<?xml version="1.0" encoding="utf-8"?>
<!-- Generator: Adobe Illustrator 25.0.0, SVG Export Plug-In . SVG Version: 6.00 Build 0)  -->
<svg version="1.1" xmlns="http://www.w3.org/2000/svg" xmlns:xlink="http://www.w3.org/1999/xlink" x="0px" y="0px"
	 viewBox="0 0 86 91" style="enable-background:new 0 0 86 91;" xml:space="preserve">
<style type="text/css">
	.st0{fill:#F4E9E9;}
	.st1{fill:#EFD6A8;}
	.st2{fill:#FFD265;}
	.st3{fill:#7C81BD;}
</style>
<g id="Capa_1">
	<rect class="st0" width="85.8" height="90.9"/>
</g>
<g id="Capa_2">
	<path d="M69,37.8c1-0.3,1.9-0.5,2.9-0.7c0.1-0.1,0.3-0.1,0.4-0.1c0.3,0,0.7-0.1,0.9,0.1c0.3,0.3,0,0.5-0.1,0.9
		c-0.1,0.2-0.2,0.5-0.3,0.7c0.7-0.1,1.3-0.2,1.9-0.3c0.7-0.2,1.4-0.4,2.2-0.5c1.1-0.3,1.2-0.2,1.4,0.9l2.2,0.2c0.1,0,0.2,0,0.4,0
		c0.7,0.1,0.9,0.4,0.7,1.1c-0.4,1.5-0.7,3.1-1.1,4.7c-0.6,3.2-0.8,6.4-1,9.6c-0.1,2.5-0.4,5.1-0.5,7.6c-0.1,1.6-0.1,3.3-0.1,5
		c0,2.5,0.1,5.1,0,7.5c0,2.2,0.2,4.3,0.5,6.4c0,0.2,0.1,0.4,0.4,0.4c0.1,0,0.2,0,0.3,0c0.1,0,0.2,0.1,0.2,0.1
		c0.1,0.1,0.1,0.1,0.1,0.2c0,0.1,0.1,0.2,0.1,0.2c0,0.6-0.1,1.4-0.2,2c0,0.1-0.1,0.2-0.2,0.3c-0.1,0.1-0.2,0.1-0.3,0.1
		c-1.1,0.2-2.2,0.3-3.4,0.4c-2.8,0.2-5.6,0.3-8.4,0.5c-4.3,0.5-8.7,1-13,1.4c-3.3,0.3-6.4,0.5-9.7,0.4c-0.5,0-0.9,0-1.4,0
		c-0.4,0-0.5-0.2-0.5-0.5c-0.1-0.5-0.2-1.2-0.3-1.8c-0.2-1.2-0.5-1.4-1.5-1.4c-1.3,0-2.5,0-3.9,0.1c-2.9,0.3-5.8,0.6-8.6,0.9
		c-2.1,0.2-4.2,0.5-6.3,0.6c-1.5,0.1-3.1,0.1-4.7,0.1c-0.9,0-1.9-0.1-2.8-0.1c-0.4,0-0.5-0.2-0.5-0.5c0-1.2,0-2.4,0-3.5
		c-0.1-1.9-0.1-3.7-0.2-5.6c-0.2-3.7-0.4-7.4-0.5-11.1c-0.3-5.2-0.5-10.4,0.1-15.6c0.4-3.3,0.6-6.4,0.9-9.7c0.1-1.1,0-2.2,0-3.3
		c0-0.6,0.8-1.7,1.7-1.7c1.4,0.1,2.8,0,4.2,0.1c5.9,0.2,11.4,1.6,16.9,3.4c2.1,0.7,4.3,1.4,6.3,2.1c0.8,0.3,1.5,0.7,2.3,1.1
		c0.3,0.1,0.5,0.2,0.6-0.1c3.5-3.4,7.8-5.3,12.5-6.5c2.7-0.7,5.4-1.2,8.2-1.7c0.8-0.1,1.7-0.2,2.5-0.2c0.5,0,0.6,0.1,0.7,0.6
		c0,0.5-0.1,0.8-0.3,1.2c-0.6,1.2-1.3,2.4-1.8,3.7C69,37.6,69,37.6,69,37.8z M43.7,80.5c0-0.5-0.1-0.7-0.1-1.1
		c-0.1-0.5-0.1-1.2-0.1-1.7c0.2-2.4,0.3-4.9,0.5-7.3c0.4-4.4,0.7-8.8,0.9-13.2c0.2-3.2,0.4-6.3,0.9-9.4c0.3-1.8,0.5-3.5,0.8-5.3
		c0-0.2,0-0.4,0-0.5c-0.1-0.2-0.2-0.3-0.3-0.4c-0.7-0.5-1.4-0.8-2.2-1.2c-1.2-0.4-2.4-0.5-3.5-0.9c-3.4-0.9-6.9-1.5-10.4-2.1
		c-3.4-0.5-6.9-0.9-10.3-1.4c-0.7-0.1-1.4-0.2-2.3-0.4c0,0.2,0,0.4,0,0.5c0.1,1.2,0.2,2.3,0.2,3.4c0,3.7-0.1,7.5-0.1,11.2
		c0.1,4.5,0.1,9.1,0.4,13.7c0.4,5.4,0,11-0.4,16.4c0,0.5,0,1,0.1,1.5c0.7-0.1,1.4-0.2,2.1-0.3c2.3-0.3,4.4-0.5,6.7-0.7
		c1.1-0.1,2.2-0.3,3.3-0.4c1.5-0.2,3.1-0.4,4.6-0.5c1.3-0.1,2.5-0.2,3.8-0.1c1.4,0.1,2.7,0.4,4.1,0.5c0.1,0,0.3,0,0.4,0
		c0.1-0.1,0.2-0.2,0.3-0.3C43.1,80.4,43.2,80.2,43.7,80.5z M70.3,32.8c-0.1,0-0.3,0-0.4,0c-1.7,0.3-3.4,0.4-5,0.7
		c-3.4,0.6-6.8,1.4-10,2.8c-2.5,1-4.9,2.4-6.9,4.3c-0.3,0.2-0.5,0.5-0.5,0.8c-0.2,0.6-0.2,1.4-0.3,2.1c-0.2,1.6-0.4,3.2-0.6,4.8
		c-0.5,3.3-0.7,6.6-0.8,10c-0.2,3.4-0.5,6.9-0.7,10.4c-0.2,3-0.5,6-0.6,9c-0.1,0.9,0.1,1.8,0.2,2.7l0.2,0.1
		c5.6-6.4,13-10.2,20.7-13.9c-0.1-0.2-0.1-0.4-0.2-0.5c-1.4-4-1.6-8.2-0.9-12.3c0.5-3.3,1.3-6.5,1.8-9.9c0.5-2.9,1.4-5.7,2.6-8.3
		C69.3,34.7,69.9,33.8,70.3,32.8z M76.9,38.8c-0.1,0-0.2,0-0.3,0c-1.1,0.2-2.1,0.5-3.2,0.5c-0.9,0.1-1.3,0.4-1.5,1.3
		c-0.8,2.6-1.4,5.3-1.5,8.2c-0.1,3.4-0.2,6.9-0.2,10.3c0,1.5,0,3.1,0.2,4.6c0.2,1.7,0.5,3.5,1.2,5.2c0.3,0.6,0.2,0.8-0.5,1.1
		c-0.5,0.2-0.9,0.4-1.4,0.5c-3.6,1.5-7.2,3-10.8,4.5c-3.8,1.6-7.7,3.3-11.1,5.7l-0.4,0.4c0.4,0,0.6,0,1-0.1L64,77.7l9.1-2
		c0.3-0.1,0.5-0.1,0.5-0.5c-0.2-3.3-0.5-6.6-0.5-10c-0.1-3.3,0.3-6.4,0.6-9.6c0.5-4.3,1.2-8.7,2.3-12.9
		C76.3,41.5,76.7,40.2,76.9,38.8z M45.4,81.1L45.4,81.1c0.6-0.3,1.3-0.6,1.8-1c1.4-0.8,2.5-1.8,4-2.5c2.5-1.3,5.2-2.5,7.9-3.6
		c3.7-1.5,7.4-3.1,11.1-4.5c0.4-0.2,0.5-0.3,0.3-0.7c-0.7-1.9-1.1-4-1.2-6c0-3.6-0.1-7.2,0-10.8c0-1.9,0.2-3.7,0.4-5.6
		c0.3-2.7,1.2-5.3,2.1-8c0-0.1,0.1-0.3,0.1-0.5c-1.1,0.3-2.1,0.5-3.1,0.8c-0.1,0-0.2,0.1-0.2,0.2c-0.1,0.1-0.1,0.2-0.1,0.3
		c-0.3,0.6-0.5,1.3-0.5,1.9c-0.5,2.8-1.1,5.5-1.5,8.3c-0.4,2.6-0.6,5.3-0.8,7.9c-0.2,2.4,0.1,5,0.5,7.3c0.1,0.6,0.5,1.3,0.6,1.9
		c0,0.1,0.1,0.2,0.1,0.3c0,0.1,0,0.2,0,0.3c0,0.1-0.1,0.2-0.2,0.2c-0.1,0.1-0.1,0.1-0.2,0.1c-2.1,1-4.2,1.9-6.3,3
		c-4.8,2.4-9.3,5.3-13.1,9.1L45.4,81.1z M16.7,34.6c-0.1,0.1-0.3,0.1-0.3,0.3c-0.2,0.5-0.3,1.2-0.4,1.7c-0.1,1.8-0.1,3.5-0.3,5.3
		c-0.5,4.9-1.2,9.8-1,14.7c0.1,2.3,0.1,4.5,0.2,6.8c0.1,2,0.3,4,0.4,6c0.1,3.1,0.2,6.1,0.2,9.1c0.1,1.7,0.1,3.4,0.2,5.3
		c0,0.3,0.1,0.4,0.4,0.4c1.3,0,2.5,0.2,3.8,0.1c1.6-0.1,3.3-0.2,5-0.4c3.2-0.4,6.4-0.7,9.6-1.1c2.1-0.2,4.1-0.4,6.2-0.5
		c0.7,0,1.4,0.2,2.1,0.3l0.1-0.1c-0.2-0.1-0.3-0.2-0.5-0.2c-1.2-0.2-2.4-0.3-3.5-0.5c-1.4-0.2-2.7-0.3-4.1-0.1
		c-3.1,0.4-6.2,0.7-9.2,1.1c-2.5,0.3-5,0.6-7.5,0.9c-0.9,0.1-1.1,0-1.1-0.9c0-1.9,0.1-3.7,0.2-5.6c0.1-1.8,0.3-3.6,0.3-5.5
		c-0.1-4.3-0.3-8.5-0.4-12.8c-0.1-6.3-0.4-12.8-0.1-19.1c0.1-1.3-0.1-2.4-0.2-3.7C16.6,35.5,16.6,35,16.7,34.6z M79.3,39.7
		c-0.4,0-0.6,0-0.9-0.1c-0.5-0.1-0.6,0.1-0.7,0.5c-0.4,1.4-0.7,2.9-1.1,4.3c-1.7,7.6-2.7,15.3-2.5,23.2c0.1,2.5,0.4,5.2,0.5,7.7
		c0.1,0.7,0,1-0.7,1.2c-1.4,0.4-2.8,0.7-4.3,1c-5.6,1.3-11.3,2.4-17,3.6c-2.2,0.5-4.3,1.1-6.5,1.1c-0.1,0-0.3,0.1-0.4,0.2l0.1,0.2
		c5.3-0.7,10.6-2,15.9-2.7c5.3-0.8,10.7-1.6,16.1-2.5c0-0.3-0.1-0.5-0.2-0.9c-0.2-0.5-0.5-0.9-0.5-1.4c-0.7-3.6-1.5-7.2-1.5-10.9
		c0-2.6,0-5.3,0.2-8c0.1-1.6,0.5-3.3,0.7-4.8c0.4-2.7,0.8-5.4,1.6-8.1C78.5,42.2,78.8,41,79.3,39.7z M45.9,84.8c0.1,0,0.2,0,0.3,0
		c1.9-0.3,3.8-0.5,5.6-0.8c3.4-0.5,6.7-0.9,10.1-1c3,0,5.9-0.3,8.8-0.8c2.4-0.5,4.9-1,7.3-0.9c0.1,0,0.2,0,0.2-0.1
		c-0.2-1-0.3-1.9-0.5-2.8c-0.9,0.2-1.8,0.3-2.7,0.5c-2.6,0.4-5.2,0.8-7.8,1.2c-3.5,0.5-7.1,1.2-10.6,1.7c-3.4,0.5-6.8,1.2-10.1,1.7
		c-0.9,0.2-0.9,0.1-0.8,1.1C45.9,84.6,45.9,84.7,45.9,84.8L45.9,84.8z M80.4,39.9l-0.2-0.1c-0.1,0.1-0.1,0.3-0.2,0.4
		c-0.8,3-1.8,6-2.3,9.1c-0.3,2.3-0.8,4.4-1,6.6c-0.5,4.8-0.4,9.7,0.5,14.4c0.1,0.7,0.3,1.4,0.4,2.1h0.1c0-0.5,0-1.2,0-1.7
		c0-2.6,0-5.3,0.1-7.9c0.2-4.2,0.5-8.4,0.8-12.6c0.3-3.4,0.8-6.7,1.7-10C80.3,40.2,80.4,40,80.4,39.9z M79.4,82.2
		c-1.4-0.2-4.2,0-6,0.4c-3.5,0.7-7.2,1.2-10.8,1.3c-2.3,0.1-4.6,0.2-6.9,0.5c-3.2,0.4-6.3,0.9-9.4,1.4c-0.1,0-0.3,0.1-0.4,0.2V86
		c0.2,0,0.3,0,0.5,0c0.5,0,0.8-0.1,1.3-0.1c3.7-0.1,7.5-0.4,11.1-0.9c4.8-0.6,9.6-1.2,14.5-1.4c1.8-0.1,3.6-0.3,5.4-0.4
		c0.1,0,0.2,0,0.3-0.1c0.1,0,0.2-0.1,0.2-0.2C79.4,82.9,79.4,82.5,79.4,82.2z M17.6,34.6v0.2l17.1,2.4
		C29.1,35.5,23.4,34.5,17.6,34.6z M44.6,81.9c-0.9-0.3-1-0.2-0.9,0.6c0.1,0.9,0.2,1.8,0.4,2.7c0.1,0.6,0.2,0.7,0.9,0.6L44.6,81.9z"
		/>
	<path class="st1" d="M43.7,80.5c-0.5-0.3-0.5-0.1-0.7,0.2c-0.1,0.1-0.2,0.2-0.3,0.3c-0.1,0.1-0.3,0.1-0.4,0
		c-1.4-0.2-2.7-0.5-4.1-0.5c-1.3-0.1-2.5,0-3.8,0.1c-1.5,0.1-3.1,0.4-4.6,0.5c-1.1,0.1-2.2,0.3-3.3,0.4c-2.3,0.3-4.4,0.5-6.7,0.7
		c-0.6,0.1-1.3,0.2-2.1,0.3c-0.1-0.4-0.1-0.9-0.1-1.4c0.4-5.4,0.7-10.9,0.4-16.4c-0.3-4.5-0.4-9.1-0.4-13.7c-0.1-3.7,0-7.5,0-11.2
		c0-1.2-0.1-2.3-0.2-3.4c0-0.2,0-0.3,0-0.5c0.8,0.1,1.5,0.3,2.3,0.4c3.4,0.5,6.9,0.9,10.3,1.4c3.5,0.5,7,1.2,10.4,2.1
		c1.2,0.3,2.4,0.5,3.5,0.9c0.7,0.3,1.5,0.7,2.2,1.2c0.2,0.1,0.3,0.3,0.3,0.4c0.1,0.2,0.1,0.4,0,0.5c-0.3,1.8-0.5,3.5-0.8,5.3
		c-0.5,3.1-0.7,6.3-0.9,9.4c-0.2,4.4-0.6,8.8-0.9,13.2c-0.2,2.4-0.4,4.9-0.5,7.3c0,0.5,0,1.2,0.1,1.7C43.6,79.8,43.7,80,43.7,80.5z
		 M39,46.6l0.4-0.3c-0.2-0.1-0.3-0.3-0.5-0.4c-0.1,0-0.1,0-0.2,0c-4.9-0.8-9.8-1.6-14.7-2.4c-0.5-0.1-1-0.2-1.5-0.2
		c-0.1,0-0.2,0.1-0.3,0.2c0.1,0.1,0.2,0.2,0.3,0.3c0.1,0,0.2,0.1,0.3,0.1c3.8,0.6,7.7,1.4,11.6,2C35.8,46.1,37.2,46.3,39,46.6z
		 M34.2,71.3c1.4,0,3.2,0,4.9,0c0.2,0,0.4-0.1,0.5-0.2c-0.2-0.1-0.3-0.3-0.5-0.3c-0.7-0.1-1.4-0.2-2.2-0.2c-2.7,0.1-5.4,0.2-8.2,0.5
		c-1.9,0.1-3.8,0.4-5.7,0.6c-0.3,0.1-0.6,0.2-0.9,0.3c-0.1,0-0.1,0.3-0.1,0.4s0.2,0.1,0.3,0.1c0.8-0.2,1.7-0.5,2.6-0.5
		C27.9,71.8,30.9,71.6,34.2,71.3z M40.3,62.6L40.3,62.6c0-0.2-0.1-0.4-0.3-0.5S39.8,62,39.6,62c-5.2-0.4-10.3-0.3-15.5-0.1
		c-0.5,0-0.8,0.1-1.3,0.2c-0.1,0-0.2,0.2-0.3,0.3c0.1,0.1,0.2,0.2,0.3,0.2c0.3,0,0.6,0,0.9,0c4.8-0.2,9.6-0.2,14.4,0
		C39.1,62.6,39.7,62.6,40.3,62.6z M40.1,52.6c-0.1,0-0.2,0-0.2,0c-4.5-0.2-9.1-0.4-13.6-0.5c-1.1,0-2.2,0-3.3,0
		c-0.2,0-0.4,0.1-0.5,0.3l0.1,0.2c0.3,0,0.6,0.1,0.9,0.1c5,0.2,10,0.4,14.9,0.5c0.5,0,0.9,0,1.4,0C40,53,40.1,53,40.1,52.6z
		 M24.1,47.7L24.1,47.7c-0.6,0.1-1.4,0.1-2,0.1c-0.1,0-0.3,0.1-0.4,0.2c0.1,0.1,0.3,0.2,0.4,0.3c0.1,0,0.1,0,0.2,0
		c1.4,0.1,2.6,0.2,4,0.3c3.7,0.4,7.3,0.7,11.1,1.1c0.4,0,0.8,0.1,1.2,0.1c0.1,0,0.2-0.1,0.3-0.2c-0.1-0.1-0.1-0.2-0.2-0.3
		c-0.3-0.1-0.5-0.2-0.7-0.2C33.3,48.6,28.6,48.2,24.1,47.7z M33.8,65.8c-3.5,0.2-6.3,0.4-9,0.5c-0.6,0-1.3,0.1-1.9,0.2
		c-0.2,0-0.4,0.2-0.5,0.3c0.2,0.1,0.4,0.1,0.5,0.2c0.1,0,0.2,0,0.3,0c1.4-0.1,2.9-0.3,4.3-0.3c3.6-0.2,7.2-0.3,10.8-0.5
		c0.3,0,0.5,0,0.9,0c0.1,0,0.2-0.1,0.3-0.2c0-0.1-0.1-0.2-0.2-0.2c-0.2-0.1-0.5-0.1-0.7-0.1C36.7,65.8,34.8,65.8,33.8,65.8z
		 M22.3,76.9c0.1,0,0.2,0,0.2,0c0.6-0.1,1.3-0.3,1.9-0.4c3.4-0.5,7-0.6,10.4-0.3c0.8,0.1,1.6,0.1,2.4,0.2c0.2,0,0.3-0.1,0.5-0.2
		c-0.1-0.1-0.2-0.3-0.4-0.3c-0.5-0.1-1-0.2-1.4-0.3c-3.1-0.4-6.2-0.4-9.2,0c-1.3,0.2-2.4,0.4-3.7,0.5C22.6,76.3,22.3,76.4,22.3,76.9
		z M31,57.6c0.8,0,1.6,0,2.4,0c1.4,0.1,3,0.1,4.4,0.2c0.2,0,0.3-0.1,0.5-0.2c-0.1-0.1-0.3-0.3-0.4-0.3c-0.5-0.1-1.2-0.2-1.7-0.2
		c-3.8,0-7.7-0.1-11.5-0.1c-0.5,0-0.8,0-1.3,0.1c-0.2,0-0.3,0.2-0.4,0.3c0.2,0.1,0.3,0.2,0.5,0.2c0.5,0,0.9-0.1,1.4-0.1
		C26.8,57.6,28.9,57.6,31,57.6z"/>
	<path class="st2" d="M70.3,32.8c-0.5,1-1,1.8-1.4,2.7c-1.3,2.6-2.2,5.4-2.6,8.3c-0.5,3.3-1.3,6.5-1.8,9.9
		c-0.7,4.2-0.5,8.2,0.9,12.3c0.1,0.2,0.1,0.4,0.2,0.5c-7.6,3.6-15,7.4-20.7,13.9l-0.2-0.1c-0.1-0.9-0.2-1.8-0.2-2.7
		c0.2-3,0.5-6,0.6-9c0.3-3.4,0.5-6.9,0.7-10.4c0.2-3.4,0.3-6.6,0.8-10c0.3-1.5,0.4-3.2,0.6-4.8c0.1-0.7,0.1-1.4,0.3-2.1
		c0.1-0.4,0.3-0.6,0.5-0.8c2.1-1.8,4.4-3.3,6.9-4.3c3.2-1.4,6.5-2.2,10-2.8c1.6-0.3,3.3-0.5,4.9-0.6C70,32.8,70.1,32.8,70.3,32.8z
		 M61.5,63.3L61.5,63.3c-0.7,0.1-1.4,0.2-2,0.4c-1.7,0.7-3.4,1.4-5.1,2.3c-1.9,1-3.7,2.2-5.6,3.3c-0.3,0.2-0.5,0.5-0.7,0.6
		C48,69.9,48,70.1,48,70.2c0.1,0,0.3,0,0.4-0.1c0.3-0.2,0.5-0.5,0.8-0.6c3.9-2.4,7.8-4.9,12.5-5.8c0.2-0.1,0.3-0.2,0.5-0.3
		c-0.2-0.1-0.3-0.2-0.5-0.3C61.6,63.2,61.6,63.3,61.5,63.3z M62.5,43.3c-0.3,0-0.5,0-0.6,0.1c-2.4,0.5-4.8,1-7.2,1.6
		c-2.1,0.5-4,1.4-5.8,2.4c-0.2,0.1-0.5,0.3-0.4,0.6c0,0.1,0.5,0,0.7-0.2c0.7-0.4,1.4-0.8,2.3-1.2c2.3-0.9,4.7-1.6,7.2-2.1
		c1.3-0.3,2.6-0.5,3.9-0.7c0.2-0.1,0.4-0.2,0.5-0.4L62.5,43.3z M48.2,54l0.2,0.2c0.2-0.1,0.5-0.2,0.6-0.3c1.2-0.5,2.4-1.2,3.6-1.5
		c2.7-0.7,5.5-1.4,8.2-2.1c0.2,0,0.4-0.1,0.5-0.2l0.1-0.1c0,0,0-0.1,0-0.2c0-0.1-0.1-0.1-0.1-0.1l-0.1-0.1c-0.1,0-0.3,0-0.4,0
		c-2.5,0.6-5.2,1.2-7.7,1.8c-1.6,0.5-3.1,1.1-4.5,1.9C48.5,53.6,48.4,53.8,48.2,54L48.2,54z M59.9,55.7c-0.8,0.3-1.5,0.4-2.4,0.6
		c-2.7,1-5.3,2.3-7.8,3.7c-0.6,0.4-1.2,0.7-1.8,1.1c-0.1,0.1-0.2,0.3-0.2,0.4c0.2,0,0.4,0,0.5,0c0.2-0.1,0.4-0.2,0.5-0.3
		c2.2-1.4,4.4-2.5,6.8-3.5c1.4-0.5,2.8-1,4.3-1.5c0.2-0.1,0.3-0.3,0.5-0.4L59.9,55.7z M60.3,52.8c-0.2,0-0.3,0-0.5,0.1
		c-3.5,0.8-7,2-10.2,3.4c-0.4,0.2-0.8,0.5-1.2,0.7c-0.1,0.1-0.1,0.3-0.2,0.5c0.2,0,0.3,0,0.5,0c0.3-0.1,0.5-0.3,0.7-0.5
		c2.2-1.2,4.5-1.9,7-2.6c1.3-0.4,2.4-0.7,3.7-1.1c0.1,0,0.2-0.2,0.4-0.3L60.3,52.8z M60.9,46.5c-0.2-0.1-0.2-0.2-0.3-0.2
		c-0.2,0-0.4,0-0.5,0c-1.5,0.4-3,0.8-4.5,1.3c-1.7,0.5-3.4,1.2-5.2,1.9c-0.5,0.3-1.2,0.5-1.7,0.9c-0.1,0.1-0.1,0.3-0.2,0.4
		c0.1,0,0.3,0.1,0.4,0.1c0.1,0,0.2-0.1,0.3-0.1c2.7-1.5,5.7-2.4,8.7-3.2c0.9-0.3,1.8-0.5,2.6-0.7C60.6,46.7,60.8,46.6,60.9,46.5z
		 M59.8,60.5l-0.1-0.2c-0.2,0-0.4,0-0.5,0c-3.4,0.8-6.7,2-9.7,3.7c-0.4,0.3-0.7,0.5-1.1,0.8c-0.1,0.1-0.1,0.3-0.1,0.5
		c0.2,0,0.3,0,0.5-0.1c0.5-0.4,1.1-0.7,1.7-1c2-1,4.2-1.9,6.3-2.5c0.8-0.3,1.7-0.5,2.5-0.7C59.5,60.7,59.7,60.6,59.8,60.5z
		 M59.8,38.4c-0.1,0-0.2,0-0.2,0c-2.1,0.5-4.2,1.2-6.1,2c-0.2,0.1-0.3,0.2-0.4,0.3c-0.2,0.1-0.2,0.2-0.3,0.3c0.1,0,0.2,0.1,0.3,0.1
		s0.3-0.1,0.4-0.1c1.1-0.4,2.1-0.7,3.2-1.1c1-0.3,2-0.5,3-0.9c0.1,0,0.2-0.2,0.3-0.3L59.8,38.4z"/>
	<path class="st1" d="M76.9,38.8c-0.4,1.3-0.6,2.6-1,3.9c-1.1,4.3-1.9,8.5-2.3,12.9c-0.4,3.2-0.7,6.4-0.6,9.6
		c0.1,3.4,0.4,6.6,0.5,10c0,0.5-0.2,0.5-0.5,0.5l-9.1,2L48.6,81c-0.4,0.1-0.6,0.1-1,0.1l0.4-0.3c3.4-2.5,7.2-4.1,11.1-5.7
		c3.6-1.5,7.2-3,10.8-4.5c0.5-0.2,0.9-0.4,1.4-0.5c0.6-0.3,0.7-0.5,0.5-1.1c-0.6-1.6-1.1-3.4-1.2-5.2c-0.2-1.5-0.2-3.1-0.2-4.6
		c0-3.4,0.1-6.9,0.2-10.3c0.1-2.8,0.7-5.4,1.5-8.2c0.3-0.9,0.6-1.2,1.5-1.3c1.1-0.1,2.2-0.4,3.2-0.5C76.8,38.8,76.9,38.8,76.9,38.8z
		"/>
	<path class="st1" d="M45.4,81.1l1.5-1.5c3.8-3.8,8.3-6.7,13.1-9.1c2-1.1,4.2-2,6.3-3c0.1,0,0.2-0.1,0.2-0.1
		c0.1-0.1,0.1-0.1,0.2-0.2c0.1-0.1,0.1-0.2,0-0.3c0-0.1,0-0.2-0.1-0.3c-0.3-0.6-0.5-1.3-0.6-1.9c-0.4-2.4-0.6-4.9-0.5-7.3
		c0.2-2.6,0.5-5.3,0.8-7.9c0.5-2.8,1-5.6,1.5-8.3c0.2-0.6,0.4-1.3,0.5-1.9c0-0.1,0.1-0.2,0.1-0.3c0.1-0.1,0.1-0.1,0.2-0.2
		c1-0.3,2-0.5,3.1-0.8c-0.1,0.2-0.1,0.4-0.1,0.5c-0.9,2.6-1.7,5.3-2.1,8c-0.2,1.9-0.3,3.7-0.4,5.6c-0.1,3.6,0,7.2,0,10.8
		c0.1,2.1,0.5,4.1,1.2,6c0.1,0.4,0.1,0.5-0.3,0.7c-3.7,1.5-7.4,3-11.1,4.5c-2.6,1.2-5.3,2.4-7.9,3.6c-1.4,0.7-2.6,1.6-4,2.5
		c-0.5,0.4-1.2,0.7-1.7,1.1L45.4,81.1z"/>
	<path class="st3" d="M16.7,34.6c0,0.5-0.1,0.9-0.1,1.4c0,1.3,0.2,2.4,0.2,3.7c-0.3,6.3,0,12.8,0.1,19.1c0.1,4.3,0.3,8.5,0.4,12.8
		c0,1.8-0.2,3.6-0.3,5.5c-0.1,1.8-0.2,3.6-0.2,5.5c0,0.9,0.2,1,1.1,0.9c2.5-0.4,5-0.6,7.5-0.9c3.1-0.4,6.2-0.7,9.2-1.1
		c1.4-0.2,2.7-0.2,4.1,0.1c1.2,0.2,2.4,0.3,3.5,0.5c0.2,0.1,0.3,0.1,0.5,0.2l-0.1,0.1c-0.7-0.1-1.4-0.3-2.1-0.3
		c-2.1,0.1-4.2,0.3-6.2,0.5c-3.2,0.4-6.4,0.7-9.6,1.1c-1.6,0.2-3.3,0.3-5,0.4c-1.3,0-2.5-0.1-3.8-0.1c-0.3,0-0.4-0.2-0.4-0.4
		c-0.1-1.7-0.1-3.4-0.2-5.3c-0.1-3.1-0.1-6.1-0.2-9.1c-0.1-2-0.3-4-0.4-6c-0.1-2.3-0.1-4.5-0.2-6.8c-0.2-4.9,0.5-9.8,1-14.7
		c0.2-1.7,0.2-3.5,0.3-5.3c0.1-0.6,0.2-1.2,0.4-1.7C16.4,34.7,16.6,34.7,16.7,34.6z"/>
	<path class="st1" d="M79.3,39.7c-0.4,1.3-0.7,2.4-1.2,3.6c-0.8,2.6-1.3,5.3-1.6,8.1c-0.3,1.6-0.6,3.3-0.7,4.8
		c-0.2,2.6-0.2,5.3-0.2,8c0,3.7,0.8,7.2,1.5,10.9c0.1,0.5,0.4,0.9,0.5,1.4c0.1,0.3,0.2,0.5,0.2,0.9C72.4,78.1,67,79,61.7,79.9
		s-10.6,2-15.9,2.7l-0.1-0.2c0.1-0.1,0.3-0.2,0.4-0.2c2.3,0,4.3-0.6,6.5-1.1c5.7-1.2,11.3-2.4,17-3.6c1.4-0.3,2.8-0.6,4.3-1
		c0.7-0.2,0.8-0.4,0.7-1.2c-0.2-2.5-0.5-5.2-0.5-7.7c-0.2-7.8,0.8-15.5,2.5-23.1c0.4-1.4,0.7-2.9,1.1-4.3c0.1-0.5,0.3-0.6,0.7-0.5
		C78.6,39.7,78.9,39.7,79.3,39.7z"/>
	<path class="st1" d="M45.9,84.8c0-0.1,0-0.2-0.1-0.2c-0.2-0.9-0.2-0.9,0.8-1.1c3.4-0.5,6.8-1.2,10.1-1.7c3.5-0.5,7.1-1.2,10.6-1.7
		c2.6-0.5,5.2-0.8,7.8-1.2c0.9-0.2,1.8-0.3,2.7-0.5c0.2,0.9,0.3,1.8,0.5,2.8c-0.1,0-0.2,0.1-0.2,0.1c-2.5-0.1-4.9,0.5-7.3,0.9
		C67.9,82.8,65,83,62,83c-3.4,0.1-6.8,0.5-10.1,1c-1.9,0.3-3.8,0.5-5.6,0.8C46.1,84.8,46,84.8,45.9,84.8z"/>
	<path class="st1" d="M80.4,39.9c0,0.2-0.1,0.3-0.1,0.5c-0.9,3.3-1.4,6.6-1.7,10c-0.4,4.2-0.6,8.3-0.8,12.6
		c-0.1,2.6-0.1,5.3-0.1,7.9c0,0.5,0,1.2,0,1.7h-0.1c-0.1-0.7-0.3-1.4-0.4-2.1c-0.9-4.8-1-9.6-0.5-14.4c0.3-2.3,0.7-4.4,1-6.6
		c0.5-3.1,1.4-6.1,2.3-9.1c0.1-0.1,0.1-0.3,0.2-0.4L80.4,39.9z"/>
	<path class="st3" d="M79.4,82.2c0,0.3-0.1,0.5-0.1,0.9c-0.1,0.1-0.1,0.1-0.2,0.2c-0.1,0-0.2,0.1-0.3,0.1c-1.8,0.2-3.6,0.3-5.4,0.4
		c-4.8,0.2-9.7,0.7-14.5,1.4c-3.7,0.5-7.4,0.8-11.1,0.9c-0.5,0-0.8,0-1.3,0.1c-0.2,0-0.3,0-0.5,0v-0.2c0.1-0.1,0.3-0.2,0.4-0.2
		c3.2-0.5,6.3-1,9.4-1.4c2.3-0.3,4.6-0.4,6.9-0.5c3.6-0.1,7.2-0.5,10.8-1.3C75.2,82.3,78.1,82.1,79.4,82.2z"/>
	<path class="st3" d="M17.6,34.6c5.9-0.2,11.5,0.9,17.1,2.5l-17.2-2.4L17.6,34.6z"/>
	<path class="st3" d="M44.6,81.9l0.4,3.9c-0.8,0-0.8,0-0.9-0.6c-0.1-0.9-0.3-1.8-0.4-2.7C43.6,81.7,43.8,81.6,44.6,81.9z"/>
	<path d="M39,46.6c-1.6-0.3-3.2-0.5-4.6-0.8c-3.9-0.6-7.7-1.4-11.6-2c-0.1,0-0.2,0-0.3-0.1c-0.1-0.1-0.2-0.2-0.3-0.3
		c0.1-0.1,0.2-0.2,0.3-0.2c0.5,0,1,0.1,1.5,0.2c4.9,0.8,9.8,1.6,14.7,2.4c0.1,0,0.1,0,0.2,0c0.2,0.1,0.3,0.2,0.5,0.4L39,46.6z"/>
	<path d="M34.2,71.3c-3.3,0.3-6.3,0.5-9.2,0.7c-0.9,0.1-1.7,0.4-2.6,0.5c-0.1,0-0.3,0-0.4-0.1c0-0.1,0.1-0.4,0.1-0.4
		c0.3-0.2,0.5-0.3,0.9-0.3c1.9-0.2,3.8-0.5,5.7-0.6c2.7-0.2,5.4-0.3,8.2-0.5c0.7,0,1.4,0,2.2,0.1c0.2,0,0.3,0.2,0.5,0.3
		c-0.2,0.1-0.3,0.2-0.5,0.2C37.3,71.3,35.6,71.3,34.2,71.3z"/>
	<path d="M40.3,62.6c-0.6,0-1.4,0-2,0c-4.8-0.2-9.6-0.2-14.4,0c-0.3,0-0.6,0-0.9,0c-0.1,0-0.2-0.1-0.3-0.2c0.1-0.1,0.2-0.3,0.3-0.3
		c0.4-0.1,0.8-0.1,1.3-0.2c5.2-0.2,10.3-0.3,15.5,0.1c0.2,0,0.3,0,0.5,0.1c0.1,0.1,0.3,0.2,0.4,0.4L40.3,62.6z"/>
	<path d="M40.1,52.6c0.1,0.4,0,0.5-0.3,0.5c-0.5,0-0.9,0-1.4,0c-5-0.2-10-0.4-14.9-0.5c-0.3,0-0.6,0-0.9-0.1l-0.1-0.2
		c0.2-0.1,0.4-0.2,0.5-0.3c1.1,0,2.2-0.1,3.3,0c4.5,0.2,9.1,0.4,13.6,0.5C39.9,52.6,40,52.6,40.1,52.6z"/>
	<path d="M24.1,47.7c4.5,0.5,9.1,0.9,13.7,1.4c0.3,0,0.5,0.1,0.7,0.2c0.1,0,0.1,0.2,0.2,0.3c-0.1,0.1-0.2,0.2-0.3,0.2
		c-0.4,0-0.8,0-1.2-0.1c-3.7-0.4-7.3-0.7-11.1-1.1c-1.4-0.1-2.6-0.2-4-0.3c-0.1,0-0.1,0-0.2,0c-0.2-0.1-0.3-0.2-0.4-0.3
		c0.1-0.1,0.3-0.2,0.4-0.2C22.8,47.8,23.4,47.8,24.1,47.7L24.1,47.7z"/>
	<path d="M33.8,65.8c1,0,2.9,0,4.7,0c0.3,0,0.5,0,0.7,0.1c0.1,0,0.2,0.2,0.2,0.2c0,0.1-0.2,0.2-0.3,0.2c-0.3,0-0.5,0-0.9,0
		c-3.6,0.2-7.2,0.3-10.8,0.5c-1.4,0.1-2.9,0.2-4.3,0.3c-0.1,0-0.2,0-0.3,0c-0.2-0.1-0.4-0.1-0.5-0.2c0.2-0.1,0.4-0.3,0.5-0.3
		c0.6-0.1,1.3-0.2,1.9-0.2C27.6,66.2,30.3,66,33.8,65.8z"/>
	<path d="M22.3,76.9c0-0.5,0.4-0.5,0.6-0.6c1.3-0.2,2.4-0.4,3.7-0.5c3.1-0.4,6.2-0.4,9.2,0c0.5,0.1,1,0.2,1.4,0.3
		c0.1,0,0.3,0.2,0.4,0.3c-0.2,0.1-0.3,0.2-0.5,0.2c-0.8,0-1.6-0.1-2.4-0.2c-3.4-0.3-7-0.2-10.4,0.3c-0.6,0.1-1.3,0.3-1.9,0.4
		C22.4,76.9,22.4,76.9,22.3,76.9z"/>
	<path d="M31,57.6c-2.1,0-4.1,0-6.2,0c-0.5,0-0.9,0.1-1.4,0.1c-0.2,0-0.3-0.1-0.5-0.2c0.1-0.1,0.3-0.3,0.4-0.3
		c0.4-0.1,0.8-0.1,1.3-0.1c3.8,0,7.7,0,11.5,0.1c0.5,0,1.2,0.1,1.7,0.2c0.2,0,0.3,0.2,0.4,0.3c-0.2,0.1-0.3,0.2-0.5,0.2
		c-1.4,0-3-0.1-4.4-0.2C32.6,57.6,31.8,57.6,31,57.6L31,57.6z"/>
	<path class="st2" d="M61.5,63.3c0.1,0,0.1,0,0.2,0c0.2,0.1,0.4,0.2,0.5,0.3c-0.1,0.1-0.3,0.2-0.5,0.3c-4.6,0.9-8.5,3.4-12.5,5.8
		c-0.3,0.2-0.5,0.5-0.8,0.6c-0.1,0.1-0.3,0-0.4,0.1c0-0.2,0-0.3,0.1-0.4c0.2-0.3,0.5-0.5,0.7-0.6c1.8-1.1,3.7-2.3,5.6-3.3
		c1.6-0.8,3.4-1.5,5.1-2.3C60.2,63.4,60.8,63.4,61.5,63.3L61.5,63.3z"/>
	<path class="st2" d="M62.5,43.3l0.5,0.2c-0.2,0.2-0.4,0.3-0.5,0.4c-1.3,0.3-2.6,0.5-3.9,0.7c-2.4,0.5-4.8,1.2-7.2,2.1
		c-0.8,0.4-1.5,0.8-2.3,1.2c-0.2,0.1-0.6,0.2-0.7,0.2c-0.2-0.4,0.2-0.5,0.4-0.6c1.8-1.1,3.7-2,5.8-2.4c2.4-0.6,4.8-1.1,7.2-1.6
		C62,43.3,62.2,43.3,62.5,43.3z"/>
	<path class="st2" d="M48.2,54c0.1-0.2,0.3-0.4,0.5-0.5c1.4-0.8,2.9-1.5,4.5-1.9c2.5-0.6,5.2-1.3,7.7-1.8c0.1,0,0.3,0,0.4,0
		c0.1,0,0.1,0,0.1,0.1l0.1,0.1c0,0.1,0,0.1,0,0.2l-0.1,0.1c-0.2,0.1-0.3,0.1-0.5,0.2c-2.7,0.6-5.5,1.3-8.2,2.1
		c-1.3,0.4-2.4,1-3.6,1.5c-0.2,0.1-0.5,0.2-0.6,0.3L48.2,54z"/>
	<path class="st2" d="M59.9,55.7l0.4,0.3c-0.1,0.1-0.3,0.3-0.5,0.4c-1.4,0.5-2.9,0.9-4.3,1.5c-2.4,1-4.6,2.2-6.8,3.5
		c-0.2,0.1-0.3,0.2-0.5,0.3c-0.2,0-0.4,0-0.5,0c0.1-0.2,0.1-0.4,0.2-0.4c0.5-0.4,1.2-0.7,1.8-1.1c2.4-1.4,5.1-2.7,7.8-3.7
		C58.4,56.1,59.1,55.9,59.9,55.7z"/>
	<path class="st2" d="M60.3,52.8l0.3,0.3c-0.1,0.1-0.2,0.3-0.4,0.3c-1.3,0.4-2.4,0.7-3.7,1.1c-2.4,0.7-4.7,1.4-7,2.6
		c-0.3,0.2-0.5,0.3-0.7,0.5c-0.2,0-0.3,0-0.5,0c0.1-0.2,0.1-0.4,0.2-0.5c0.4-0.3,0.7-0.5,1.2-0.7c3.3-1.5,6.7-2.7,10.2-3.4
		C60,52.8,60.1,52.8,60.3,52.8z"/>
	<path class="st2" d="M60.9,46.5c-0.1,0.1-0.3,0.2-0.5,0.3c-0.9,0.3-1.8,0.5-2.6,0.7c-3,0.9-6,1.6-8.7,3.2c-0.1,0.1-0.2,0.1-0.3,0.1
		s-0.3,0-0.4-0.1c0.1-0.1,0.1-0.4,0.2-0.4c0.5-0.4,1.1-0.6,1.7-0.9c1.7-0.6,3.4-1.3,5.2-1.9c1.4-0.5,3-0.8,4.5-1.3
		c0.2,0,0.4-0.1,0.5,0C60.7,46.3,60.8,46.4,60.9,46.5z"/>
	<path class="st2" d="M59.8,60.5c-0.1,0.1-0.3,0.2-0.5,0.3c-0.8,0.3-1.7,0.5-2.5,0.7c-2.2,0.6-4.3,1.4-6.3,2.5
		c-0.5,0.3-1.1,0.7-1.7,1c-0.2,0.1-0.3,0.1-0.5,0.1c0-0.2,0-0.4,0.1-0.5c0.4-0.3,0.7-0.5,1.1-0.8c3.1-1.6,6.3-2.9,9.7-3.7
		c0.2,0,0.4,0,0.5,0L59.8,60.5z"/>
	<path class="st2" d="M59.8,38.4l0.3,0.3c-0.1,0.1-0.2,0.3-0.3,0.3c-1,0.3-2,0.5-3,0.9c-1.1,0.4-2.1,0.7-3.2,1.1
		C53.6,41,53.5,41,53.3,41c-0.1,0-0.2,0-0.3-0.1c0-0.1,0-0.2,0.1-0.3c0.1-0.1,0.3-0.2,0.4-0.3c2-0.8,4-1.5,6.1-2
		C59.6,38.4,59.6,38.4,59.8,38.4z"/>
	<path d="M63.7,45.1c0,0.1,0,0.1,0.1,0.2c0,0,0.1,0.1,0.2,0.1c0.1,0,0.1,0,0.2-0.1c0.1-0.1,0.1-0.1,0.1-0.2c0-0.1,0-0.1-0.1-0.2
		c0,0-0.1-0.1-0.2-0.1c-0.1,0-0.1,0-0.2,0.1C63.8,45,63.7,45.1,63.7,45.1z"/>
	<path d="M60.1,44.6L60.1,44.6c-0.1,0-0.2,0-0.2,0.1c0,0,0,0-0.1,0.1v0.1c0,0.1,0,0.1,0.1,0.2c0,0,0.1,0.1,0.2,0.1h0.1h0.1
		c0,0,0,0,0.1-0.1V45v-0.1v-0.1C60.3,44.7,60.3,44.7,60.1,44.6C60.2,44.6,60.2,44.6,60.1,44.6z"/>
	<path d="M54.8,44.8c0,0.1,0,0.1,0.1,0.2c0,0,0.1,0.1,0.2,0.1c0.1,0,0.1,0,0.2-0.1c0.1,0,0.1-0.1,0.1-0.2c0-0.1,0-0.1-0.1-0.2
		c0,0-0.1-0.1-0.2-0.1c-0.1,0-0.1,0-0.2,0.1C54.9,44.7,54.8,44.7,54.8,44.8z"/>
	<path d="M51.2,44.4L51.2,44.4c-0.1,0-0.2,0-0.2,0.1c0,0,0,0-0.1,0.1v0.1c0,0.1,0,0.1,0.1,0.2c0,0,0.1,0.1,0.2,0.1
		c0.1,0,0.1,0,0.2-0.1c0,0,0.1-0.1,0.1-0.2v-0.1v-0.1C51.4,44.4,51.3,44.4,51.2,44.4C51.3,44.4,51.3,44.4,51.2,44.4z"/>
	<path d="M61.7,46.4c0,0.1,0,0.1,0.1,0.2c0,0,0.1,0.1,0.2,0.1s0.1,0,0.2-0.1c0.1,0,0.1-0.1,0.1-0.2c0-0.1,0-0.1-0.1-0.2
		c0,0-0.1-0.1-0.2-0.1s-0.1,0-0.2,0.1C61.8,46.3,61.7,46.3,61.7,46.4z"/>
	<path d="M58.1,46L58.1,46c-0.1,0-0.2,0-0.2,0.1c0,0,0,0-0.1,0.1v0.1c0,0.1,0,0.1,0.1,0.2c0,0,0.1,0.1,0.2,0.1h0.1h0.1
		c0,0,0,0,0.1-0.1v-0.1v-0.1v-0.1C58.3,46.1,58.3,46,58.1,46C58.2,46,58.2,46,58.1,46z"/>
	<path d="M52.8,46.2c0,0.1,0,0.1,0.1,0.2c0,0,0.1,0.1,0.2,0.1c0.1,0,0.1,0,0.2-0.1c0.1,0,0.1-0.1,0.1-0.2c0-0.1,0-0.1-0.1-0.2
		c0,0-0.1-0.1-0.2-0.1c-0.1,0-0.1,0-0.2,0.1C52.8,46,52.8,46.1,52.8,46.2z"/>
	<path d="M49.2,45.7L49.2,45.7c-0.1,0-0.2,0-0.2,0.1c0,0,0,0-0.1,0.1c-0.1,0.1,0,0.1,0,0.1c0,0.1,0,0.1,0.1,0.2c0,0,0.1,0.1,0.2,0.1
		c0.1,0,0.1,0,0.2-0.1c0,0,0.1-0.1,0.1-0.2v-0.1v-0.1C49.4,45.7,49.3,45.7,49.2,45.7C49.3,45.7,49.2,45.7,49.2,45.7z"/>
	<path d="M63.7,47.6c0,0.1,0,0.1,0.1,0.2c0,0,0.1,0.1,0.2,0.1c0.1,0,0.1,0,0.2-0.1c0.1,0,0.1-0.1,0.1-0.2s0-0.1-0.1-0.2
		c0,0-0.1-0.1-0.2-0.1c-0.1,0-0.1,0-0.2,0.1C63.8,47.5,63.7,47.6,63.7,47.6z"/>
	<path d="M60.1,47.2L60.1,47.2c-0.1,0-0.2,0-0.2,0.1c0,0,0,0-0.1,0.1v0.1c0,0.1,0,0.1,0.1,0.2c0.1,0.1,0.1,0.1,0.2,0.1
		s0.1,0,0.2-0.1c0,0,0.1-0.1,0.1-0.2v-0.1v-0.1C60.3,47.2,60.3,47.2,60.1,47.2C60.2,47.2,60.2,47.2,60.1,47.2z"/>
	<path d="M54.8,47.3c0,0.1,0,0.1,0.1,0.2c0,0,0.1,0.1,0.2,0.1c0.1,0,0.1,0,0.2-0.1c0.1,0,0.1-0.1,0.1-0.2c0-0.1,0-0.1-0.1-0.2
		c0,0-0.1-0.1-0.2-0.1c-0.1,0-0.1,0-0.2,0.1C54.8,47.2,54.8,47.2,54.8,47.3z"/>
	<path d="M51.2,46.9C51.2,46.9,51.1,46.9,51.2,46.9c-0.1,0-0.2,0-0.2,0.1c0,0,0,0-0.1,0.1v0.1c0,0.1,0,0.1,0.1,0.2
		c0,0,0.1,0.1,0.2,0.1h0.1h0.1c0,0,0,0,0.1-0.1c0.1-0.1,0-0.1,0-0.1v-0.1v-0.1C51.4,46.9,51.3,46.9,51.2,46.9
		C51.3,46.9,51.2,46.9,51.2,46.9z"/>
	<path d="M61.3,49.2c0,0.1,0,0.1,0.1,0.2c0,0,0.1,0.1,0.2,0.1s0.1,0,0.2-0.1c0.1,0,0.1-0.1,0.1-0.2c0-0.1,0-0.1-0.1-0.2
		c0,0-0.1-0.1-0.2-0.1s-0.1,0-0.2,0.1S61.3,49.2,61.3,49.2z"/>
	<path d="M57.7,48.8C57.6,48.8,57.6,48.8,57.7,48.8c-0.1,0-0.2,0-0.2,0.1c0,0,0,0-0.1,0.1v0.1c0,0.1,0,0.1,0.1,0.2
		c0,0,0.1,0.1,0.2,0.1c0.1,0,0.1,0,0.2-0.1c0,0,0.1-0.1,0.1-0.2V49v-0.1C57.8,48.9,57.8,48.9,57.7,48.8L57.7,48.8z"/>
	<path d="M52.4,49c0,0.1,0,0.1,0.1,0.2c0,0,0.1,0.1,0.2,0.1c0.1,0,0.1,0,0.2-0.1c0.1,0,0.1-0.1,0.1-0.2c0-0.1,0-0.1-0.1-0.2
		c0,0-0.1-0.1-0.2-0.1c-0.1,0-0.1,0-0.2,0.1C52.5,48.9,52.5,48.9,52.4,49z"/>
	<path d="M48.8,48.5C48.7,48.5,48.7,48.5,48.8,48.5c-0.1,0-0.2,0-0.2,0.1c0,0.1,0,0-0.1,0.1v0.1c0,0.1,0,0.1,0.1,0.2
		c0.1,0.1,0.1,0.1,0.2,0.1h0.1H49c0,0,0,0,0.1-0.1v-0.1v-0.1v-0.1C48.9,48.6,48.9,48.5,48.8,48.5L48.8,48.5z"/>
	<path d="M59.3,50.6c0,0.1,0,0.1,0.1,0.2c0,0,0.1,0.1,0.2,0.1s0.1,0,0.2-0.1c0.1,0,0.1-0.1,0.1-0.2c0-0.1,0-0.1-0.1-0.2
		c0,0-0.1-0.1-0.2-0.1s-0.1,0-0.2,0.1C59.3,50.5,59.3,50.5,59.3,50.6z"/>
	<path d="M55.7,50.1C55.6,50.1,55.6,50.1,55.7,50.1c-0.1,0-0.2,0-0.2,0.1c0,0,0,0-0.1,0.1v0.1c0,0.1,0,0.1,0.1,0.2
		c0,0,0.1,0.1,0.2,0.1h0.1h0.1c0,0,0,0,0.1-0.1v-0.1v-0.1v-0.1C55.8,50.2,55.8,50.1,55.7,50.1L55.7,50.1z"/>
	<path d="M50.4,50.3c0,0.1,0,0.1,0.1,0.2c0,0,0.1,0.1,0.2,0.1c0.1,0,0.1,0,0.2-0.1c0.1,0,0.1-0.1,0.1-0.2c0-0.1,0-0.1-0.1-0.2
		c0,0-0.1-0.1-0.2-0.1c-0.1,0-0.1,0-0.2,0.1C50.5,50.2,50.5,50.2,50.4,50.3z"/>
	<path d="M63.4,50.1C63.4,50.1,63.3,50.1,63.4,50.1c-0.1,0-0.2,0-0.2,0.1c0,0,0,0-0.1,0.1v0.1c0,0.1,0,0.1,0.1,0.2
		c0.1,0.1,0.1,0.1,0.2,0.1h0.1h0.1c0,0,0,0,0.1-0.1v-0.1v-0.1v-0.1C63.6,50.1,63.5,50.1,63.4,50.1C63.5,50.1,63.4,50.1,63.4,50.1z"
		/>
	<path d="M61.3,51.8c0,0.1,0,0.1,0.1,0.2c0,0,0.1,0.1,0.2,0.1s0.1,0,0.2-0.1c0.1,0,0.1-0.1,0.1-0.2c0-0.1,0-0.1-0.1-0.2
		c0,0-0.1-0.1-0.2-0.1s-0.1,0-0.2,0.1C61.3,51.7,61.3,51.8,61.3,51.8z"/>
	<path d="M57.7,51.3C57.6,51.3,57.6,51.3,57.7,51.3c-0.1,0-0.2,0-0.2,0.1c0,0,0,0-0.1,0.1c-0.1,0.1,0,0.1,0,0.1c0,0.1,0,0.1,0.1,0.2
		c0,0,0.1,0.1,0.2,0.1c0.1,0,0.1,0,0.2-0.1c0,0,0.1-0.1,0.1-0.2v-0.1v-0.1C57.8,51.4,57.8,51.4,57.7,51.3L57.7,51.3z"/>
	<path d="M52.4,51.5c0,0.1,0,0.1,0.1,0.2c0,0,0.1,0.1,0.2,0.1c0.1,0,0.1,0,0.2-0.1c0.1,0,0.1-0.1,0.1-0.2s0-0.1-0.1-0.2
		c0,0-0.1-0.1-0.2-0.1c-0.1,0-0.1,0-0.2,0.1C52.5,51.4,52.5,51.4,52.4,51.5z"/>
	<path d="M48.7,51.1L48.7,51.1c-0.1,0-0.2,0-0.2,0.1c0,0,0,0-0.1,0.1v0.1c0,0.1,0,0.1,0.1,0.2c0,0,0.1,0.1,0.2,0.1h0.1h0.1
		c0,0,0,0,0.1-0.1v-0.1v-0.1v-0.1C48.9,51.1,48.9,51.1,48.7,51.1C48.8,51.1,48.8,51.1,48.7,51.1z"/>
	<path d="M63.2,53c0,0.1,0,0.1,0.1,0.2c0,0,0.1,0.1,0.2,0.1s0.1,0,0.2-0.1c0.1,0,0.1-0.1,0.1-0.2c0-0.1,0-0.1-0.1-0.2
		c0,0-0.1-0.1-0.2-0.1s-0.1,0-0.2,0.1C63.2,53,63.2,53,63.2,53z"/>
	<path d="M59.5,52.6L59.5,52.6c-0.1,0-0.2,0-0.2,0.1c0,0,0,0-0.1,0.1v0.1c0,0.1,0,0.1,0.1,0.2s0.1,0.1,0.2,0.1h0.1h0.1
		c0,0,0,0,0.1-0.1V53v-0.1v-0.1C59.7,52.7,59.7,52.7,59.5,52.6C59.6,52.7,59.6,52.6,59.5,52.6z"/>
	<path d="M54.3,52.8c0,0.1,0,0.1,0.1,0.2c0,0,0.1,0.1,0.2,0.1c0.1,0,0.1,0,0.2-0.1c0.1,0,0.1-0.1,0.1-0.2c0-0.1,0-0.1-0.1-0.2
		c0,0-0.1-0.1-0.2-0.1s-0.1,0-0.2,0.1C54.4,52.7,54.3,52.8,54.3,52.8z"/>
	<path d="M50.7,52.3L50.7,52.3c-0.1,0-0.2,0-0.2,0.1c0,0,0,0-0.1,0.1v0.1c0,0.1,0,0.1,0.1,0.2c0,0,0.1,0.1,0.2,0.1h0.1h0.1
		c0,0,0,0,0.1-0.1v-0.1v-0.1v-0.1C50.8,52.4,50.8,52.4,50.7,52.3C50.7,52.3,50.7,52.3,50.7,52.3z"/>
	<path d="M61.2,54.4c0,0.1,0,0.1,0.1,0.2c0,0,0.1,0.1,0.2,0.1s0.1,0,0.2-0.1c0.1,0,0.1-0.1,0.1-0.2s0-0.1-0.1-0.2
		c0,0-0.1-0.1-0.2-0.1s-0.1,0-0.2,0.1C61.3,54.3,61.2,54.3,61.2,54.4z"/>
	<path d="M57.5,54L57.5,54c-0.1,0-0.2,0-0.2,0.1s0,0-0.1,0.1v0.1c0,0.1,0,0.1,0.1,0.2c0,0,0.1,0.1,0.2,0.1h0.1h0.1c0,0,0,0,0.1-0.1
		v-0.1v-0.1v-0.1C57.7,54,57.7,54,57.5,54C57.6,54,57.6,54,57.5,54z"/>
	<path d="M52.3,54.1c0,0.1,0,0.1,0.1,0.2c0,0,0.1,0.1,0.2,0.1c0.1,0,0.1,0,0.2-0.1c0.1-0.1,0.1-0.1,0.1-0.2c0-0.1,0-0.1-0.1-0.2
		c0,0-0.1-0.1-0.2-0.1s-0.1,0-0.2,0.1C52.3,54,52.3,54,52.3,54.1z"/>
	<path d="M48.7,53.7L48.7,53.7c-0.1,0-0.2,0-0.2,0.1c0,0,0,0-0.1,0.1V54V54v0.1c0,0,0,0,0.1,0.1h0.1h0.1h0.1c0,0,0,0,0.1-0.1
		c0.1-0.1,0-0.1,0-0.1V54v-0.1C48.8,53.7,48.7,53.7,48.7,53.7C48.7,53.7,48.7,53.7,48.7,53.7z"/>
	<path d="M63.2,55.6c0,0.1,0,0.1,0.1,0.2c0,0,0.1,0.1,0.2,0.1s0.1,0,0.2-0.1c0.1,0,0.1-0.1,0.1-0.2c0-0.1,0-0.1-0.1-0.2
		c0,0-0.1-0.1-0.2-0.1s-0.1,0-0.2,0.1C63.2,55.5,63.2,55.6,63.2,55.6z"/>
	<path d="M59.5,55.1L59.5,55.1c-0.1,0-0.2,0-0.2,0.1c0,0,0,0-0.1,0.1v0.1c0,0.1,0,0.1,0.1,0.2c0,0,0.1,0.1,0.2,0.1h0.1h0.1
		c0,0,0,0,0.1-0.1v-0.1v-0.1v-0.1C59.7,55.2,59.7,55.2,59.5,55.1C59.6,55.1,59.6,55.1,59.5,55.1z"/>
	<path d="M54.3,55.3c0,0.1,0,0.1,0.1,0.2c0.1,0.1,0.1,0.1,0.2,0.1c0.1,0,0.1,0,0.2-0.1s0.1-0.1,0.1-0.2c0-0.1,0-0.1-0.1-0.2
		c0,0-0.1-0.1-0.2-0.1s-0.1,0-0.2,0.1C54.3,55.2,54.3,55.2,54.3,55.3z"/>
	<path d="M50.7,54.9C50.7,54.9,50.6,54.9,50.7,54.9c-0.1,0-0.2,0-0.2,0.1c0,0,0,0-0.1,0.1v0.1c0,0.1,0,0.1,0.1,0.2
		c0,0,0.1,0.1,0.2,0.1h0.1h0.1c0,0,0,0,0.1-0.1v-0.1v-0.1V55C50.8,54.9,50.7,54.9,50.7,54.9C50.7,54.9,50.7,54.9,50.7,54.9z"/>
	<path d="M60.8,57.3c0,0.1,0,0.1,0.1,0.2c0,0,0.1,0.1,0.2,0.1s0.1,0,0.2-0.1c0.1,0,0.1-0.1,0.1-0.2c0-0.1,0-0.1-0.1-0.2
		c0,0-0.1-0.1-0.2-0.1s-0.1,0-0.2,0.1C60.8,57.1,60.8,57.2,60.8,57.3z"/>
	<path d="M57.2,56.9C57.2,56.9,57.1,56.9,57.2,56.9c-0.1,0-0.2,0-0.2,0.1c0,0,0,0-0.1,0.1v0.1c0,0.1,0,0.1,0.1,0.2
		c0.1,0.1,0.1,0.1,0.2,0.1h0.1h0.1c0,0,0,0,0.1-0.1c0.1-0.1,0-0.1,0-0.1v-0.1V57C57.3,56.9,57.3,56.9,57.2,56.9L57.2,56.9z"/>
	<path d="M51.8,56.9c0,0.1,0,0.1,0.1,0.2c0,0,0.1,0.1,0.2,0.1c0.1,0,0.1,0,0.2-0.1c0.1,0,0.1-0.1,0.1-0.2c0-0.1,0-0.1-0.1-0.2
		c0,0-0.1-0.1-0.2-0.1c-0.1,0-0.1,0-0.2,0.1C51.9,56.9,51.9,56.9,51.8,56.9z"/>
	<path d="M48.3,56.5C48.2,56.5,48.2,56.5,48.3,56.5c-0.1,0-0.2,0-0.2,0.1c0,0,0,0-0.1,0.1v0.1c0,0.1,0,0.1,0.1,0.2
		c0,0,0.1,0.1,0.2,0.1h0.1h0.1c0,0,0,0,0.1-0.1v-0.1v-0.1v-0.1C48.4,56.6,48.4,56.6,48.3,56.5L48.3,56.5z"/>
	<path d="M58.8,58.6c0,0.1,0,0.1,0.1,0.2c0,0,0.1,0.1,0.2,0.1c0.1,0,0.1,0,0.2-0.1c0.1,0,0.1-0.1,0.1-0.2c0-0.1,0-0.1-0.1-0.2
		c0,0-0.1-0.1-0.2-0.1c-0.1,0-0.1,0-0.2,0.1C58.8,58.5,58.8,58.6,58.8,58.6z"/>
	<path d="M55.2,58.1C55.1,58.1,55.1,58.1,55.2,58.1c-0.1,0-0.2,0-0.2,0.1c0,0,0,0-0.1,0.1v0.1c0,0.1,0,0.1,0.1,0.2
		c0,0,0.1,0.1,0.2,0.1c0.1,0,0.1,0,0.2-0.1c0,0,0.1-0.1,0.1-0.2v-0.1v-0.1C55.3,58.2,55.3,58.1,55.2,58.1L55.2,58.1z"/>
	<path d="M49.8,58.3c0,0.1,0,0.1,0.1,0.2c0,0,0.1,0.1,0.2,0.1c0.1,0,0.1,0,0.2-0.1c0.1,0,0.1-0.1,0.1-0.2c0-0.1,0-0.1-0.1-0.2
		c0,0-0.1-0.1-0.2-0.1c-0.1,0-0.1,0-0.2,0.1C49.9,58.2,49.9,58.2,49.8,58.3z"/>
	<path d="M62.9,58.1C62.9,58.1,62.8,58.1,62.9,58.1c-0.1,0-0.2,0-0.2,0.1c0,0.1,0,0-0.1,0.1v0.1c0,0.1,0,0.1,0.1,0.2
		c0,0,0.1,0.1,0.2,0.1H63h0.1c0,0,0,0,0.1-0.1v-0.1v-0.1v-0.1C63.1,58.2,63,58.1,62.9,58.1C63,58.1,62.9,58.1,62.9,58.1z"/>
	<path d="M60.7,59.8c0,0.1,0,0.1,0.1,0.2c0,0,0.1,0.1,0.2,0.1s0.1,0,0.2-0.1c0.1,0,0.1-0.1,0.1-0.2c0-0.1,0-0.1-0.1-0.2
		c0,0-0.1-0.1-0.2-0.1s-0.1,0-0.2,0.1C60.8,59.7,60.8,59.8,60.7,59.8z"/>
	<path d="M57.2,59.3C57.1,59.3,57.1,59.3,57.2,59.3c-0.1,0-0.2,0-0.2,0.1c0,0,0,0-0.1,0.1v0.1c0,0.1,0,0.1,0.1,0.2
		c0,0,0.1,0.1,0.2,0.1h0.1h0.1c0,0,0,0,0.1-0.1v-0.1v-0.1v-0.1C57.3,59.4,57.3,59.4,57.2,59.3L57.2,59.3z"/>
	<path d="M51.8,59.5c0,0.1,0,0.1,0.1,0.2c0,0,0.1,0.1,0.2,0.1c0.1,0,0.1,0,0.2-0.1c0.1,0,0.1-0.1,0.1-0.2c0-0.1,0-0.1-0.1-0.2
		l-0.1-0.1c-0.1,0-0.1,0-0.2,0.1C51.9,59.4,51.8,59.4,51.8,59.5z"/>
	<path d="M48.2,59L48.2,59c-0.1,0-0.2,0-0.2,0.1c0,0,0,0-0.1,0.1v0.1c0,0.1,0,0.1,0.1,0.2s0.1,0.1,0.2,0.1h0.1h0.1c0,0,0,0,0.1-0.1
		v-0.1v-0.1v-0.1C48.5,59.2,48.4,59,48.2,59C48.3,59,48.3,59,48.2,59z"/>
	<path d="M58.2,60.6L58.2,60.6c-0.1,0-0.2,0-0.2,0.1c0,0,0,0-0.1,0.1v0.1c0,0.1,0,0.1,0.1,0.2c0,0,0.1,0.1,0.2,0.1h0.1h0.1
		c0,0,0,0,0.1-0.1v-0.1v-0.1v-0.1C58.4,60.7,58.3,60.7,58.2,60.6C58.3,60.6,58.3,60.6,58.2,60.6z"/>
	<path d="M52.9,60.7c0,0.1,0,0.1,0.1,0.2c0,0,0.1,0.1,0.2,0.1c0.1,0,0.1,0,0.2-0.1c0.1,0,0.1-0.1,0.1-0.2c0-0.1,0-0.1-0.1-0.2
		c0,0-0.1-0.1-0.2-0.1c-0.1,0-0.1,0-0.2,0.1S52.9,60.7,52.9,60.7z"/>
	<path d="M49.3,60.3C49.3,60.3,49.2,60.3,49.3,60.3c-0.1,0-0.2,0-0.2,0.1c0,0,0,0-0.1,0.1v0.1c0,0.1,0,0.1,0.1,0.2
		c0,0,0.1,0.1,0.2,0.1h0.1h0.1c0,0,0,0,0.1-0.1v-0.1v-0.1v-0.1C49.5,60.4,49.4,60.3,49.3,60.3C49.4,60.3,49.3,60.3,49.3,60.3z"/>
	<path d="M59.8,62.4c0,0.1,0,0.1,0.1,0.2c0,0,0.1,0.1,0.2,0.1s0.1,0,0.2-0.1c0.1,0,0.1-0.1,0.1-0.2c0-0.1,0-0.1-0.1-0.2
		c0,0-0.1-0.1-0.2-0.1s-0.1,0-0.2,0.1C59.8,62.3,59.8,62.3,59.8,62.4z"/>
	<path d="M56.2,61.9L56.2,61.9c-0.1,0-0.2,0-0.2,0.1c0,0,0,0-0.1,0.1v0.1c0,0.1,0,0.1,0.1,0.2c0,0,0.1,0.1,0.2,0.1h0.1h0.1
		c0,0,0,0,0.1-0.1v-0.1v-0.1v-0.1C56.4,62,56.3,61.9,56.2,61.9C56.3,61.9,56.2,61.9,56.2,61.9z"/>
	<path d="M50.9,62.1c0,0.1,0,0.1,0.1,0.2c0,0,0.1,0.1,0.2,0.1c0.1,0,0.1,0,0.2-0.1c0.1,0,0.1-0.1,0.1-0.2c0-0.1,0-0.1-0.1-0.2
		c0,0-0.1-0.1-0.2-0.1c-0.1,0-0.1,0-0.2,0.1C50.9,61.9,50.9,62,50.9,62.1z"/>
	<path d="M61.8,63.6c0,0.1,0,0.1,0.1,0.2c0,0,0.1,0.1,0.2,0.1c0.1,0,0.1,0,0.2-0.1c0.1,0,0.1-0.1,0.1-0.2c0-0.1,0-0.1-0.1-0.2
		c0,0-0.1-0.1-0.2-0.1c-0.1,0-0.1,0-0.2,0.1C61.8,63.5,61.8,63.5,61.8,63.6z"/>
	<path d="M58.2,63.1C58.2,63.1,58.1,63.1,58.2,63.1c-0.1,0-0.2,0-0.2,0.1c0,0,0,0-0.1,0.1v0.1c0,0.1,0,0.1,0.1,0.2
		c0,0,0.1,0.1,0.2,0.1h0.1h0.1c0,0,0,0,0.1-0.1v-0.1v-0.1v-0.1C58.4,63.2,58.3,63.2,58.2,63.1C58.3,63.1,58.2,63.1,58.2,63.1z"/>
	<path d="M52.9,63.3c0,0.1,0,0.1,0.1,0.2c0,0,0.1,0.1,0.2,0.1c0.1,0,0.1,0,0.2-0.1c0.1,0,0.1-0.1,0.1-0.2c0-0.1,0-0.1-0.1-0.2
		c0,0-0.1-0.1-0.2-0.1c-0.1,0-0.1,0-0.2,0.1S52.9,63.2,52.9,63.3z"/>
	<path d="M49.3,62.8C49.3,62.8,49.2,62.8,49.3,62.8c-0.1,0-0.2,0-0.2,0.1c0,0,0,0-0.1,0.1v0.1c0,0.1,0,0.1,0.1,0.2
		c0,0,0.1,0.1,0.2,0.1h0.1h0.1c0,0,0,0,0.1-0.1v-0.1v-0.1V63C49.4,62.8,49.4,62.8,49.3,62.8L49.3,62.8z"/>
	<path d="M56.1,63.9L56.1,63.9c-0.1,0-0.2,0-0.2,0.1c0,0,0,0-0.1,0.1v0.1c0,0.1,0,0.1,0.1,0.2c0,0,0.1,0.1,0.2,0.1h0.1h0.1
		c0,0,0,0,0.1-0.1v-0.1v-0.1v-0.1C56.3,64,56.3,63.9,56.1,63.9C56.2,63.9,56.2,63.9,56.1,63.9z"/>
	<path d="M50.8,64.1c0,0.1,0,0.1,0.1,0.2c0,0,0.1,0.1,0.2,0.1c0.1,0,0.1,0,0.2-0.1c0.1,0,0.1-0.1,0.1-0.2c0-0.1,0-0.1-0.1-0.2
		c0,0-0.1-0.1-0.2-0.1c-0.1,0-0.1,0-0.2,0.1C50.8,64,50.8,64,50.8,64.1z"/>
	<path d="M47.2,63.6C47.2,63.6,47.1,63.6,47.2,63.6c-0.1,0-0.2,0-0.2,0.1c0,0,0,0-0.1,0.1v0.1c0,0.1,0,0.1,0.1,0.2
		c0,0,0.1,0.1,0.2,0.1h0.1h0.1c0,0,0,0,0.1-0.1V64v-0.1v-0.1C47.4,63.6,47.3,63.6,47.2,63.6C47.3,63.6,47.2,63.6,47.2,63.6z"/>
	<path d="M57.7,65.7c0,0.1,0,0.1,0.1,0.2c0,0,0.1,0.1,0.2,0.1c0.1,0,0.1,0,0.2-0.1c0.1,0,0.1-0.1,0.1-0.2s0-0.1-0.1-0.2
		s-0.1-0.1-0.2-0.1c-0.1,0-0.1,0-0.2,0.1C57.7,65.5,57.7,65.6,57.7,65.7z"/>
	<path d="M54.1,65.3L54.1,65.3c-0.1,0-0.2,0-0.2,0.1c0,0,0,0-0.1,0.1v0.1c0,0.1,0,0.1,0.1,0.2c0,0,0.1,0.1,0.2,0.1h0.1h0.1
		c0,0,0,0,0.1-0.1v-0.1v-0.1v-0.1C54.3,65.3,54.3,65.3,54.1,65.3C54.2,65.3,54.2,65.3,54.1,65.3z"/>
	<path d="M48.8,65.5c0,0.1,0,0.1,0.1,0.2s0.1,0.1,0.2,0.1c0.1,0,0.1,0,0.2-0.1c0.1,0,0.1-0.1,0.1-0.2s0-0.1-0.1-0.2
		c0,0-0.1-0.1-0.2-0.1c-0.1,0-0.1,0-0.2,0.1C48.8,65.3,48.8,65.4,48.8,65.5z"/>
	<path d="M59.7,66.9c0,0.1,0,0.1,0.1,0.2c0,0,0.1,0.1,0.2,0.1s0.1,0,0.2-0.1c0.1,0,0.1-0.1,0.1-0.2c0-0.1,0-0.1-0.1-0.2
		c0,0-0.1-0.1-0.2-0.1s-0.1,0-0.2,0.1S59.7,66.8,59.7,66.9z"/>
	<path d="M56.1,66.5C56.1,66.5,56,66.5,56.1,66.5c-0.1,0-0.2,0-0.2,0.1c0,0,0,0-0.1,0.1v0.1c0,0.1,0,0.1,0.1,0.2
		c0,0,0.1,0.1,0.2,0.1h0.1h0.1c0,0,0,0,0.1-0.1v-0.1v-0.1v-0.1C56.3,66.5,56.2,66.5,56.1,66.5C56.2,66.5,56.1,66.5,56.1,66.5z"/>
	<path d="M50.8,66.6c0,0.1,0,0.1,0.1,0.2c0,0,0.1,0.1,0.2,0.1c0.1,0,0.1,0,0.2-0.1c0.1,0,0.1-0.1,0.1-0.2c0-0.1,0-0.1-0.1-0.2
		c0,0-0.1-0.1-0.2-0.1c-0.1,0-0.1,0-0.2,0.1C50.8,66.5,50.8,66.5,50.8,66.6z"/>
	<path d="M47.2,66.2C47.2,66.2,47.1,66.2,47.2,66.2c-0.1,0-0.2,0-0.2,0.1c0,0,0,0-0.1,0.1v0.1c0,0.1,0,0.1,0.1,0.2
		c0,0,0.1,0.1,0.2,0.1c0.1,0,0.1,0,0.2-0.1c0,0,0.1-0.1,0.1-0.2v-0.1v-0.1C47.3,66.2,47.3,66.2,47.2,66.2
		C47.3,66.2,47.2,66.2,47.2,66.2z"/>
	<path d="M55.1,68.1C55.1,68.1,55,68.1,55.1,68.1c-0.1,0-0.2,0-0.2,0.1c0,0,0,0-0.1,0.1v0.1c0,0.1,0,0.1,0.1,0.2
		c0,0,0.1,0.1,0.2,0.1c0.1,0,0.1,0,0.2-0.1c0,0,0.1-0.1,0.1-0.2v-0.1v-0.1C55.2,68.1,55.2,68.1,55.1,68.1L55.1,68.1z"/>
	<path d="M49.7,68.2c0,0.1,0,0.1,0.1,0.2c0,0,0.1,0.1,0.2,0.1c0.1,0,0.1,0,0.2-0.1c0.1-0.1,0.1-0.1,0.1-0.2s0-0.1-0.1-0.2
		c0,0-0.1-0.1-0.2-0.1c-0.1,0-0.1,0-0.2,0.1C49.8,68.1,49.8,68.2,49.7,68.2z"/>
	<path d="M46.2,67.7C46.1,67.7,46.1,67.7,46.2,67.7c-0.1,0-0.2,0-0.2,0.1c0,0,0,0-0.1,0.1V68c0,0.1,0,0.1,0.1,0.2s0.1,0.1,0.2,0.1
		h0.1h0.1c0,0,0,0,0.1-0.1v-0.1V68v-0.1C46.3,67.8,46.3,67.8,46.2,67.7L46.2,67.7z"/>
	<path d="M56.7,69.8c0,0.1,0,0.1,0.1,0.2c0,0,0.1,0.1,0.2,0.1c0.1,0,0.1,0,0.2-0.1c0.1,0,0.1-0.1,0.1-0.2c0-0.1,0-0.1-0.1-0.2
		c0,0-0.1-0.1-0.2-0.1c-0.1,0-0.1,0-0.2,0.1C56.7,69.7,56.7,69.8,56.7,69.8z"/>
	<path d="M53.1,69.4C53,69.4,53,69.4,53.1,69.4c-0.1,0-0.2,0-0.2,0.1c0,0,0,0-0.1,0.1v0.1c0,0.1,0,0.1,0.1,0.2c0,0,0.1,0.1,0.2,0.1
		h0.1h0.1c0,0,0,0,0.1-0.1v-0.1v-0.1v-0.1C53.2,69.4,53.2,69.4,53.1,69.4L53.1,69.4z"/>
	<path d="M47.8,69.5c0,0.1,0,0.1,0.1,0.2c0,0,0.1,0.1,0.2,0.1c0.1,0,0.1,0,0.2-0.1c0.1,0,0.1-0.1,0.1-0.2c0-0.1,0-0.1-0.1-0.2
		c0,0-0.1-0.1-0.2-0.1c-0.1,0-0.1,0-0.2,0.1C47.8,69.4,47.8,69.4,47.8,69.5z"/>
	<path d="M60.7,64.8c0,0.1,0,0.1,0.1,0.2c0,0,0.1,0.1,0.2,0.1s0.1,0,0.2-0.1c0.1,0,0.1-0.1,0.1-0.2c0-0.1,0-0.1-0.1-0.2
		c0,0-0.1-0.1-0.2-0.1s-0.1,0-0.2,0.1C60.8,64.7,60.7,64.7,60.7,64.8z"/>
	<path d="M55.1,70.6C55,70.5,55,70.6,55.1,70.6c-0.1,0-0.2,0-0.2,0.1c0,0.1,0,0-0.1,0.1v0.1c0,0.1,0,0.1,0.1,0.2
		c0,0,0.1,0.1,0.2,0.1h0.1h0.1c0,0,0,0,0.1-0.1V71v-0.1v-0.1C55.2,70.6,55.2,70.6,55.1,70.6L55.1,70.6z"/>
	<path d="M49.7,70.7c0,0.1,0,0.1,0.1,0.2c0,0,0.1,0.1,0.2,0.1c0.1,0,0.1,0,0.2-0.1c0.1,0,0.1-0.1,0.1-0.2s0-0.1-0.1-0.2
		c0,0-0.1-0.1-0.2-0.1c-0.1,0-0.1,0-0.2,0.1C49.8,70.6,49.7,70.7,49.7,70.7z"/>
	<path d="M46.1,70.3L46.1,70.3c-0.1,0-0.2,0-0.2,0.1c0,0,0,0-0.1,0.1v0.1c0,0.1,0,0.1,0.1,0.2c0,0,0.1,0.1,0.2,0.1
		c0.1,0,0.1,0,0.2-0.1c0,0,0.1-0.1,0.1-0.2v-0.1v-0.1C46.3,70.4,46.3,70.4,46.1,70.3C46.2,70.3,46.2,70.3,46.1,70.3z"/>
	<path d="M61.3,40.2L61.3,40.2c-0.1,0-0.2,0-0.2,0.1c0,0,0,0-0.1,0.1v0.1c0,0.1,0,0.1,0.1,0.2c0,0,0.1,0.1,0.2,0.1h0.1h0.1
		c0,0,0,0,0.1-0.1v-0.1v-0.1v-0.1C61.4,40.3,61.4,40.2,61.3,40.2C61.3,40.2,61.3,40.2,61.3,40.2z"/>
	<path d="M56,40.4c0,0.1,0,0.1,0.1,0.2c0,0,0.1,0.1,0.2,0.1s0.1,0,0.2-0.1c0.1,0,0.1-0.1,0.1-0.2c0-0.1,0-0.1-0.1-0.2
		c0,0-0.1-0.1-0.2-0.1c-0.1,0-0.1,0-0.2,0.1C56.1,40.2,56,40.3,56,40.4z"/>
	<path d="M52.4,39.9L52.4,39.9c-0.1,0-0.2,0-0.2,0.1c0,0,0,0-0.1,0.1v0.1v0.1v0.1c0,0,0,0,0.1,0.1h0.1h0.1h0.1c0,0,0,0,0.1-0.1v-0.1
		v-0.1v-0.1C52.6,39.9,52.6,39.9,52.4,39.9C52.5,39.9,52.5,39.9,52.4,39.9z"/>
	<path d="M62.9,42c0,0.1,0,0.1,0.1,0.2c0,0,0.1,0.1,0.2,0.1c0.1,0,0.1,0,0.2-0.1c0.1,0,0.1-0.1,0.1-0.2c0-0.1,0-0.1-0.1-0.2
		c0,0-0.1-0.1-0.2-0.1c-0.1,0-0.1,0-0.2,0.1C63,41.8,62.9,41.9,62.9,42z"/>
	<path d="M59.3,41.5L59.3,41.5c-0.1,0-0.2,0-0.2,0.1c0,0,0,0-0.1,0.1v0.1c0,0.1,0,0.1,0.1,0.2c0,0,0.1,0.1,0.2,0.1h0.1h0.1
		c0,0,0,0,0.1-0.1v-0.1v-0.1v-0.1C59.4,41.5,59.4,41.5,59.3,41.5C59.3,41.5,59.3,41.5,59.3,41.5z"/>
	<path d="M54,41.7c0,0.1,0,0.1,0.1,0.2c0,0,0.1,0.1,0.2,0.1s0.1,0,0.2-0.1c0.1,0,0.1-0.1,0.1-0.2s0-0.1-0.1-0.2c0,0-0.1-0.1-0.2-0.1
		c-0.1,0-0.1,0-0.2,0.1C54.1,41.5,54,41.6,54,41.7z"/>
	<path d="M64.9,43.2c0,0.1,0,0.1,0.1,0.2c0,0,0.1,0.1,0.2,0.1c0.1,0,0.1,0,0.2-0.1c0.1-0.1,0.1-0.1,0.1-0.2s0-0.1-0.1-0.2
		c-0.1-0.1-0.1-0.1-0.2-0.1c-0.1,0-0.1,0-0.2,0.1C65,43.1,64.9,43.1,64.9,43.2z"/>
	<path d="M61.3,42.7L61.3,42.7c-0.1,0-0.2,0-0.2,0.1c0,0,0,0-0.1,0.1V43c0,0.1,0,0.1,0.1,0.2c0,0,0.1,0.1,0.2,0.1h0.1h0.1
		c0,0,0,0,0.1-0.1v-0.1V43v-0.1C61.4,42.7,61.4,42.7,61.3,42.7C61.3,42.7,61.3,42.7,61.3,42.7z"/>
	<path d="M56,42.9c0,0.1,0,0.1,0.1,0.2c0,0,0.1,0.1,0.2,0.1s0.1,0,0.2-0.1c0.1,0,0.1-0.1,0.1-0.2c0-0.1,0-0.1-0.1-0.2
		c0,0-0.1-0.1-0.2-0.1c-0.1,0-0.1,0-0.2,0.1C56,42.7,56,42.8,56,42.9z"/>
	<path d="M52.4,42.4L52.4,42.4c-0.1,0-0.2,0-0.2,0.1c0,0,0,0-0.1,0.1c-0.1,0.1,0,0.1,0,0.1c0,0.1,0,0.1,0.1,0.2
		c0.1,0.1,0.1,0.1,0.2,0.1h0.1h0.1c0,0,0,0,0.1-0.1v-0.1v-0.1v-0.1C52.6,42.4,52.5,42.4,52.4,42.4C52.5,42.4,52.4,42.4,52.4,42.4z"
		/>
	<path d="M63.3,35.8L63.3,35.8c-0.1,0-0.2,0-0.2,0.1c0,0,0,0-0.1,0.1v0.1c0,0.1,0,0.1,0.1,0.2c0,0,0.1,0.1,0.2,0.1h0.1h0.1
		c0,0,0,0,0.1-0.1v-0.1v-0.1V36C63.5,35.8,63.5,35.8,63.3,35.8C63.4,35.8,63.4,35.8,63.3,35.8z"/>
	<path d="M58.1,36c0,0.1,0,0.1,0.1,0.2c0,0,0.1,0.1,0.2,0.1c0.1,0,0.1,0,0.2-0.1c0.1,0,0.1-0.1,0.1-0.2c0-0.1,0-0.1-0.1-0.2
		c0,0-0.1-0.1-0.2-0.1s-0.1,0-0.2,0.1C58.2,35.8,58.1,35.9,58.1,36z"/>
	<path d="M54.5,35.6C54.5,35.5,54.5,35.5,54.5,35.6c-0.1,0-0.2,0-0.2,0.1c0,0,0,0-0.1,0.1v0.1c0,0.1,0,0.1,0.1,0.2
		c0,0,0.1,0.1,0.2,0.1h0.1h0.1c0,0,0,0,0.1-0.1v-0.1v-0.1v-0.1C54.6,35.6,54.5,35.6,54.5,35.6C54.5,35.6,54.5,35.6,54.5,35.6z"/>
	<path d="M65,37.6c0,0.1,0,0.1,0.1,0.2c0,0,0.1,0.1,0.2,0.1c0.1,0,0.1,0,0.2-0.1c0.1,0,0.1-0.1,0.1-0.2c0-0.1,0-0.1-0.1-0.2
		c0,0-0.1-0.1-0.2-0.1c-0.1,0-0.1,0-0.2,0.1C65.1,37.5,65,37.6,65,37.6z"/>
	<path d="M61.3,37.1L61.3,37.1c-0.1,0-0.2,0-0.2,0.1c0,0,0,0-0.1,0.1v0.1c0,0.1,0,0.1,0.1,0.2c0,0,0.1,0.1,0.2,0.1
		c0.1,0,0.1,0,0.2-0.1c0,0,0.1-0.1,0.1-0.2v-0.1v-0.1C61.5,37.2,61.5,37.2,61.3,37.1C61.4,37.2,61.4,37.1,61.3,37.1z"/>
	<path d="M56.1,37.3c0,0.1,0,0.1,0.1,0.2s0.1,0.1,0.2,0.1s0.1,0,0.2-0.1c0.1,0,0.1-0.1,0.1-0.2s0-0.1-0.1-0.2c0,0-0.1-0.1-0.2-0.1
		c-0.1,0-0.1,0-0.2,0.1C56.1,37.2,56.1,37.3,56.1,37.3z"/>
	<path d="M64.9,40.8c0,0.1,0,0.1,0.1,0.2c0,0,0.1,0.1,0.2,0.1c0.1,0,0.1,0,0.2-0.1c0.1,0,0.1-0.1,0.1-0.2c0-0.1,0-0.1-0.1-0.2
		c-0.1-0.1-0.1-0.1-0.2-0.1c-0.1,0-0.1,0-0.2,0.1C65,40.7,64.9,40.8,64.9,40.8z"/>
	<path d="M63.3,38.4L63.3,38.4c-0.1,0-0.2,0-0.2,0.1c0,0,0,0-0.1,0.1v0.1c0,0.1,0,0.1,0.1,0.2c0,0,0.1,0.1,0.2,0.1h0.1h0.1
		c0,0,0,0,0.1-0.1v-0.1v-0.1v-0.1C63.5,38.4,63.4,38.4,63.3,38.4C63.4,38.4,63.4,38.4,63.3,38.4z"/>
	<path d="M58.1,38.5c0,0.1,0,0.1,0.1,0.2c0,0,0.1,0.1,0.2,0.1c0.1,0,0.1,0,0.2-0.1c0.1,0,0.1-0.1,0.1-0.2c0-0.1,0-0.1-0.1-0.2
		c0,0-0.1-0.1-0.2-0.1s-0.1,0-0.2,0.1C58.1,38.4,58.1,38.5,58.1,38.5z"/>
	<path d="M54.5,38C54.5,38,54.4,38,54.5,38c-0.1,0-0.2,0-0.2,0.1c0,0,0,0-0.1,0.1v0.1c0,0.1,0,0.1,0.1,0.2c0,0,0.1,0.1,0.2,0.1
		c0.1,0,0.1,0,0.2-0.1c0,0,0.1-0.1,0.1-0.2v-0.1v-0.1C54.6,38.1,54.5,38.1,54.5,38C54.5,38,54.5,38,54.5,38z"/>
	<path d="M48.4,43.2C48.4,43.2,48.3,43.2,48.4,43.2c-0.1,0-0.2,0-0.2,0.1c0,0,0,0-0.1,0.1v0.1c0,0.1,0,0.1,0.1,0.2
		c0,0,0.1,0.1,0.2,0.1h0.1h0.1c0,0,0,0,0.1-0.1v-0.1v-0.1v-0.1C48.6,43.2,48.5,43.2,48.4,43.2C48.5,43.2,48.4,43.2,48.4,43.2z"/>
	<path d="M50.5,41.3C50.5,41.3,50.4,41.3,50.5,41.3c-0.1,0-0.2,0-0.2,0.1c0,0.1,0,0-0.1,0.1v0.1c0,0.1,0,0.1,0.1,0.2
		c0,0,0.1,0.1,0.2,0.1s0.1,0,0.2-0.1c0,0,0.1-0.1,0.1-0.2v-0.1v-0.1C50.6,41.4,50.6,41.4,50.5,41.3C50.6,41.3,50.5,41.3,50.5,41.3z"
		/>
	<path d="M48.1,72.5c0,0.1,0,0.1,0.1,0.2c0,0,0.1,0.1,0.2,0.1s0.1,0,0.2-0.1c0.1,0,0.1-0.1,0.1-0.2s0-0.1-0.1-0.2
		c-0.1-0.1-0.1-0.1-0.2-0.1c-0.1,0-0.1,0-0.2,0.1C48.1,72.4,48.1,72.5,48.1,72.5z"/>
	<path d="M46.5,73.2C46.5,73.2,46.4,73.2,46.5,73.2c-0.1,0-0.2,0-0.2,0.1c0,0,0,0-0.1,0.1c-0.1,0.1,0,0.1,0,0.1c0,0.1,0,0.1,0.1,0.2
		c0,0,0.1,0.1,0.2,0.1h0.1h0.1c0,0,0,0,0.1-0.1v-0.1v-0.1v-0.1C46.6,73.3,46.6,73.3,46.5,73.2C46.6,73.3,46.5,73.2,46.5,73.2z"/>
	<path d="M48.1,75.7c0,0.1,0,0.1,0.1,0.2c0,0,0.1,0.1,0.2,0.1s0.1,0,0.2-0.1c0.1,0,0.1-0.1,0.1-0.2s0-0.1-0.1-0.2
		c0,0-0.1-0.1-0.2-0.1c-0.1,0-0.1,0-0.2,0.1C48.1,75.5,48.1,75.6,48.1,75.7z"/>
	<path d="M46.5,76.4C46.5,76.4,46.4,76.4,46.5,76.4c-0.1,0-0.2,0-0.2,0.1c0,0,0,0-0.1,0.1v0.1c0,0.1,0,0.1,0.1,0.2
		c0,0,0.1,0.1,0.2,0.1h0.1h0.1c0,0,0,0,0.1-0.1v-0.1v-0.1v-0.1C46.6,76.4,46.6,76.4,46.5,76.4C46.6,76.4,46.5,76.4,46.5,76.4z"/>
	<path d="M52.3,71.5c0,0.1,0,0.1,0.1,0.2c0,0,0.1,0.1,0.2,0.1c0.1,0,0.1,0,0.2-0.1c0.1,0,0.1-0.1,0.1-0.2s0-0.1-0.1-0.2
		c0,0-0.1-0.1-0.2-0.1s-0.1,0-0.2,0.1C52.3,71.4,52.3,71.4,52.3,71.5z"/>
	<path d="M50.7,72.3C50.6,72.3,50.6,72.3,50.7,72.3c-0.1,0-0.2,0-0.2,0.1c0,0,0,0-0.1,0.1v0.1c0,0.1,0,0.1,0.1,0.2
		c0,0,0.1,0.1,0.2,0.1h0.1h0.1c0,0,0,0,0.1-0.1v-0.1v-0.1v-0.1C50.7,72.3,50.7,72.3,50.7,72.3L50.7,72.3z"/>
	<path d="M47.4,61.3L47.4,61.3c-0.1,0-0.2,0-0.2,0.1s0,0-0.1,0.1v0.1c0,0.1,0,0.1,0.1,0.2c0,0,0.1,0.1,0.2,0.1h0.1h0.1
		c0,0,0,0,0.1-0.1v-0.1v-0.1v-0.1C47.6,61.3,47.5,61.3,47.4,61.3C47.5,61.3,47.5,61.3,47.4,61.3z"/>
	<path d="M63,60.8C63,60.8,62.9,60.8,63,60.8c-0.1,0-0.2,0-0.2,0.1c0,0,0,0-0.1,0.1v0.1c0,0.1,0,0.1,0.1,0.2c0,0,0.1,0.1,0.2,0.1
		h0.1h0.1c0,0,0,0,0.1-0.1v-0.1v-0.1V61C63.2,60.8,63.1,60.8,63,60.8C63.1,60.8,63,60.8,63,60.8z"/>
	<path d="M63,65.4C63,65.4,62.9,65.4,63,65.4c-0.1,0-0.2,0-0.2,0.1c0,0,0,0-0.1,0.1v0.1c0,0.1,0,0.1,0.1,0.2c0,0,0.1,0.1,0.2,0.1
		h0.1h0.1c0,0,0,0,0.1-0.1v-0.1v-0.1v-0.1C63.1,65.5,63.1,65.5,63,65.4L63,65.4z"/>
	<path d="M9.3,66.4c-1.1,0-1.7-0.8-1.4-1.7c0.3-0.7,1.2-1,2-0.7c0.2,0.1,0.3,0.1,0.5,0.3c0.1,0.1,0.3,0.3,0.3,0.4
		c0.1,0.2,0.1,0.3,0.1,0.5c0,0.2,0,0.4-0.1,0.5C10.5,66.1,10,66.4,9.3,66.4z"/>
	<path d="M11.2,37.9c0,0.4-0.2,0.6-0.4,0.9c-0.3,0.3-0.5,0.4-0.9,0.4S9.2,39,8.8,38.7c-0.3-0.3-0.4-0.7-0.5-1.1
		c0-0.4,0.2-0.6,0.4-0.9c0.3-0.3,0.5-0.4,0.9-0.4c0.4,0,0.7,0.2,1.1,0.5C11,37.2,11.2,37.6,11.2,37.9z"/>
	<path d="M81.1,33.8c0,0.4-0.2,0.6-0.4,0.9c-0.3,0.3-0.5,0.4-0.9,0.4c-0.4,0-0.8-0.2-1.1-0.5c-0.3-0.3-0.5-0.6-0.5-1.1
		c0-0.4,0.2-0.6,0.5-0.9c0.3-0.2,0.5-0.4,0.9-0.4c0.4,0,0.7,0.2,1,0.5C80.9,32.9,81.1,33.3,81.1,33.8z"/>
	<path d="M82.9,74c0.2,0,0.4,0,0.5,0.1c0.2,0.1,0.4,0.2,0.5,0.3c0.1,0.1,0.3,0.3,0.3,0.5c0.1,0.2,0.1,0.4,0.1,0.5
		c0,0.4-0.2,0.7-0.5,0.9c-0.3,0.3-0.6,0.4-1,0.4c-0.2,0-0.4,0-0.5-0.1c-0.2-0.1-0.3-0.2-0.5-0.3c-0.1-0.1-0.3-0.3-0.3-0.5
		c-0.1-0.2-0.1-0.4-0.1-0.5c0-0.2,0-0.4,0.1-0.5c0.1-0.2,0.2-0.4,0.3-0.5c0.1-0.1,0.3-0.2,0.5-0.3C82.5,74,82.7,74,82.9,74z"/>
	<path d="M3.2,35.4c-0.8,0-1.4-0.5-1.4-1.4c0-0.2,0.1-0.4,0.1-0.5c0.1-0.2,0.2-0.3,0.3-0.5c0.1-0.1,0.3-0.2,0.5-0.3
		c0.2-0.1,0.5-0.1,0.6,0c0.8,0,1.4,0.5,1.4,1.3S4,35.4,3.2,35.4z"/>
	<path d="M8.1,78.4c-0.8,0-1.4-0.5-1.4-1.3c0-0.2,0-0.4,0.1-0.5c0.1-0.2,0.2-0.3,0.3-0.5c0.1-0.1,0.3-0.2,0.5-0.3
		c0.2-0.1,0.4-0.1,0.5-0.1c0.8,0,1.4,0.5,1.4,1.3S8.9,78.4,8.1,78.4z"/>
</g>
</svg>
