<?xml version="1.0" encoding="utf-8"?>
<!-- Generator: Adobe Illustrator 25.0.0, SVG Export Plug-In . SVG Version: 6.00 Build 0)  -->
<svg version="1.1" xmlns="http://www.w3.org/2000/svg" xmlns:xlink="http://www.w3.org/1999/xlink" x="0px" y="0px"
	 viewBox="0 0 86 91" style="enable-background:new 0 0 86 91;" xml:space="preserve">
<style type="text/css">
	.st0{fill:#F4E9E9;}
	.st1{fill:#EFD6A8;}
	.st2{fill:#FFD265;}
	.st3{fill:#7C81BD;}
</style>
<g id="Capa_1">
	<rect class="st0" width="85.8" height="90.9"/>
</g>
<g id="Capa_2">
	<path d="M67.6,38.5l2.9-0.7c0.1-0.1,0.3-0.1,0.4-0.1c0.3,0,0.7-0.1,0.9,0.1c0.3,0.3,0,0.5-0.1,0.9c-0.1,0.2-0.2,0.5-0.3,0.7
		c0.6-0.1,1.3-0.2,1.8-0.4c0.7-0.2,1.4-0.4,2.2-0.5c1.1-0.3,1.2-0.2,1.4,0.9l2.2,0.2c0.1,0,0.2,0,0.4,0c0.7,0.1,0.9,0.4,0.7,1.1
		c-0.4,1.5-0.7,3.1-1,4.7c-0.6,3.2-0.8,6.4-1,9.6c-0.1,2.5-0.4,5.1-0.5,7.6c-0.1,1.6-0.1,3.2-0.1,5c0,2.5,0.1,5.1,0,7.5
		c0,2.2,0.2,4.2,0.5,6.4c0,0.2,0.1,0.4,0.4,0.4c0.1,0,0.2,0,0.2,0c0.1,0,0.2,0.1,0.2,0.1c0.1,0.1,0.1,0.1,0.1,0.2
		c0,0.1,0.1,0.2,0.1,0.2c0,0.6-0.1,1.4-0.1,2c0,0.1-0.1,0.2-0.2,0.3c-0.1,0.1-0.2,0.1-0.3,0.1c-1.1,0.2-2.2,0.3-3.2,0.4
		c-2.8,0.2-5.5,0.3-8.3,0.5c-4.3,0.5-8.6,1-12.9,1.4c-3.2,0.4-6.4,0.5-9.6,0.4c-0.5,0-0.9,0-1.4,0c-0.4,0-0.5-0.2-0.5-0.5
		c-0.1-0.5-0.2-1.2-0.3-1.7c-0.2-1.2-0.5-1.4-1.5-1.4c-1.3,0-2.5,0-3.8,0.1c-2.9,0.3-5.7,0.6-8.6,0.9c-2.1,0.2-4.1,0.5-6.1,0.6
		c-1.5,0.1-3.1,0.1-4.6,0.1c-0.9,0-1.9-0.1-2.8-0.1c-0.4,0-0.5-0.2-0.5-0.5c0-1.2,0-2.3,0-3.5c-0.1-1.9-0.1-3.7-0.2-5.6
		c-0.2-3.7-0.4-7.4-0.5-11.1c-0.3-5.1-0.5-10.4,0.1-15.5c0.4-3.2,0.6-6.4,0.9-9.7c0.1-1.1,0-2.2,0-3.2c0-0.8,0.8-1.9,1.7-1.8
		c1.4,0.1,2.8,0,4.2,0.1c5.8,0.2,11.3,1.6,16.8,3.4c2.1,0.7,4.2,1.4,6.3,2.1c0.8,0.3,1.5,0.7,2.3,1.1c0.3,0.1,0.5,0.2,0.6-0.1
		c3.4-3.4,7.7-5.3,12.3-6.5c2.7-0.7,5.4-1.2,8.1-1.7c0.8-0.1,1.7-0.2,2.5-0.2c0.5,0,0.6,0.1,0.7,0.6c0,0.5-0.1,0.8-0.3,1.2
		c-0.6,1.2-1.3,2.4-1.8,3.7C67.6,38.3,67.6,38.4,67.6,38.5z M42.6,81c0-0.5-0.1-0.7-0.1-1.1c-0.1-0.5-0.1-1.2-0.1-1.7
		c0.2-2.4,0.3-4.9,0.5-7.3c0.3-4.4,0.7-8.8,0.9-13.2c0.1-3.2,0.5-6.2,0.9-9.4c0.3-1.8,0.5-3.5,0.7-5.3c0-0.2,0-0.4,0-0.5
		c-0.1-0.2-0.2-0.3-0.3-0.4c-0.7-0.5-1.4-0.8-2.2-1.2c-1.2-0.4-2.3-0.5-3.5-0.9c-3.4-0.9-6.9-1.5-10.3-2.1
		c-3.3-0.5-6.8-0.9-10.2-1.4c-0.7-0.1-1.4-0.3-2.3-0.4c0,0.2,0,0.4,0,0.5c0.1,1.2,0.2,2.3,0.2,3.3c0,3.7-0.1,7.5-0.1,11.2
		c0.1,4.5,0.1,9.1,0.4,13.6c0.4,5.4,0,10.9-0.4,16.3c0,0.5,0,1,0.1,1.5c0.7-0.1,1.4-0.2,2.1-0.3c2.3-0.3,4.4-0.5,6.7-0.7
		c1.1-0.1,2.2-0.3,3.2-0.4c1.5-0.2,3.1-0.4,4.5-0.5c1.3-0.1,2.5-0.2,3.8-0.1c1.4,0.1,2.7,0.4,4,0.5c0.1,0,0.3,0,0.4,0
		c0.1-0.1,0.2-0.2,0.3-0.3C42.1,81,42.1,80.7,42.6,81z M68.9,33.6c-0.1,0-0.3,0-0.4,0c-1.6,0.2-3.2,0.4-4.9,0.6
		c-3.3,0.6-6.7,1.4-9.8,2.8c-2.5,1-4.8,2.4-6.9,4.2c-0.3,0.2-0.5,0.5-0.5,0.8c-0.1,0.6-0.2,1.4-0.3,2.1c-0.2,1.6-0.4,3.2-0.6,4.8
		c-0.5,3.2-0.7,6.6-0.8,9.9c-0.2,3.4-0.5,6.9-0.7,10.4c-0.2,3-0.5,6-0.6,8.9c-0.1,0.9,0.1,1.8,0.2,2.7l0.2,0.1
		c5.6-6.4,12.9-10.2,20.4-13.8C64,67,64,66.8,63.9,66.6c-1.4-4-1.6-8.1-0.9-12.3c0.5-3.2,1.2-6.5,1.8-9.8c0.5-2.9,1.4-5.7,2.6-8.3
		C68,35.4,68.4,34.5,68.9,33.6z M75.5,39.6c-0.1,0-0.2,0-0.3,0c-1.1,0.2-2.1,0.5-3.2,0.5c-0.9,0.1-1.3,0.4-1.5,1.3
		C69.7,44,69,46.7,69,49.5c-0.1,3.4-0.2,6.9-0.2,10.3c0,1.5,0,3.1,0.1,4.6c0.2,1.7,0.5,3.5,1.2,5.1c0.3,0.6,0.2,0.8-0.5,1.1
		c-0.5,0.2-0.9,0.4-1.4,0.5c-3.5,1.5-7.1,3-10.7,4.5c-3.8,1.6-7.6,3.2-10.9,5.7l-0.4,0.3c0.4,0,0.6,0,1-0.1l15.3-3.3l9-2
		c0.3-0.1,0.5-0.1,0.5-0.5c-0.2-3.3-0.5-6.6-0.5-9.9c-0.1-3.2,0.3-6.4,0.6-9.6c0.5-4.3,1.2-8.7,2.3-12.8
		C74.8,42.1,75.1,40.8,75.5,39.6z M44.3,81.6L44.3,81.6c0.6-0.3,1.2-0.6,1.8-1c1.3-0.8,2.5-1.8,3.9-2.5c2.5-1.3,5.1-2.5,7.8-3.6
		c3.7-1.5,7.3-3.1,11-4.5c0.4-0.2,0.5-0.3,0.3-0.7c-0.7-1.9-1.1-4-1.2-6c0-3.6-0.1-7.1,0-10.7c0-1.9,0.1-3.7,0.4-5.6
		c0.3-2.7,1.1-5.3,2-7.9c0-0.1,0.1-0.3,0.1-0.5c-1,0.5-2,0.7-2.9,1c-0.1,0-0.2,0.1-0.2,0.2c-0.1,0.1-0.1,0.2-0.1,0.3
		c-0.3,0.6-0.5,1.3-0.5,1.9c-0.5,2.8-1.1,5.5-1.5,8.3c-0.4,2.6-0.6,5.2-0.8,7.9c-0.2,2.4,0.1,5,0.5,7.3c0.1,0.6,0.5,1.3,0.6,1.9
		c0,0.1,0.1,0.2,0.1,0.3s0,0.2,0,0.3c0,0.1-0.1,0.2-0.2,0.2c-0.1,0.1-0.1,0.1-0.2,0.1c-2.1,1-4.2,1.9-6.1,3c-4.7,2.4-9.2,5.3-13,9.1
		L44.3,81.6z M15.9,35.2c-0.1,0.1-0.3,0.1-0.3,0.2c-0.2,0.5-0.3,1.2-0.4,1.7c-0.1,1.7-0.1,3.5-0.3,5.3c-0.5,4.9-1.1,9.7-1,14.6
		c0.1,2.3,0.1,4.5,0.2,6.8c0.1,2,0.3,4,0.4,6c0.1,3.1,0.2,6,0.2,9.1c0,1.7,0.1,3.4,0.2,5.2c0,0.3,0.1,0.4,0.4,0.4
		c1.3,0,2.5,0.2,3.8,0.1c1.6-0.1,3.2-0.2,4.9-0.4c3.2-0.4,6.3-0.7,9.5-1.1c2.1-0.2,4.1-0.4,6.1-0.5c0.7,0,1.4,0.2,2.1,0.3l0.1-0.1
		c-0.1-0.2-0.3-0.3-0.5-0.3c-1.2-0.2-2.3-0.3-3.4-0.5c-1.4-0.2-2.7-0.3-4.1-0.1c-3.1,0.4-6.1,0.7-9.2,1.1c-2.5,0.3-5,0.6-7.5,0.9
		c-0.9,0.1-1.1,0-1.1-0.9c0-1.9,0.1-3.7,0.2-5.6c0.1-1.8,0.3-3.6,0.3-5.4c-0.1-4.2-0.3-8.5-0.4-12.8C16,53,15.7,46.6,16,40.3
		c0.1-1.3-0.1-2.4-0.2-3.7C15.8,36.1,15.9,35.8,15.9,35.2z M77.7,40.5c-0.4,0-0.6,0-0.9-0.1c-0.5-0.1-0.6,0.1-0.7,0.5
		c-0.4,1.4-0.7,2.9-1.1,4.3c-1.7,7.6-2.6,15.3-2.4,23.1c0.1,2.5,0.4,5.1,0.5,7.7c0.1,0.7,0,1-0.7,1.2c-1.4,0.4-2.8,0.7-4.2,1
		c-5.6,1.3-11.2,2.4-16.8,3.6c-2.2,0.5-4.2,1.1-6.4,1.1c-0.1,0-0.3,0.1-0.4,0.2l0.1,0.2c5.3-0.7,10.5-2,15.8-2.7
		c5.2-0.8,10.6-1.6,16-2.5c0-0.3-0.1-0.5-0.2-0.9c-0.2-0.5-0.5-0.9-0.5-1.4c-0.7-3.6-1.5-7.1-1.5-10.8c0-2.6,0-5.3,0.2-7.9
		c0.1-1.6,0.5-3.2,0.7-4.8c0.4-2.7,0.8-5.4,1.6-8C77,42.9,77.3,41.7,77.7,40.5z M44.8,85.2c0.1,0,0.2,0,0.3,0
		c1.9-0.3,3.7-0.5,5.6-0.8c3.3-0.5,6.7-0.9,10-1c2.9,0,5.8-0.3,8.7-0.8c2.4-0.5,4.8-1,7.3-0.8c0.1,0,0.2,0,0.2-0.1
		c-0.2-1-0.3-1.9-0.5-2.8c-0.9,0.2-1.8,0.3-2.6,0.5c-2.5,0.4-5.1,0.8-7.7,1.2c-3.5,0.5-7,1.2-10.5,1.7c-3.3,0.5-6.7,1.2-10,1.7
		c-0.9,0.2-0.9,0.1-0.8,1.1C44.8,85.1,44.8,85.1,44.8,85.2L44.8,85.2z M78.8,40.5l-0.2-0.1c-0.1,0.1-0.1,0.3-0.2,0.4
		c-0.8,3-1.8,6-2.3,9c-0.3,2.3-0.7,4.4-1,6.6c-0.5,4.8-0.5,9.7,0.5,14.4c0.1,0.7,0.3,1.4,0.4,2.1h0.1c0-0.5,0-1.2,0-1.7
		c0-2.6,0-5.2,0.1-7.9c0.2-4.2,0.5-8.4,0.8-12.5c0.3-3.3,0.8-6.7,1.6-9.9C78.8,40.8,78.8,40.7,78.8,40.5z M77.9,82.8
		c-1.4-0.2-4.1,0-6,0.4c-3.5,0.7-7,1.2-10.7,1.3c-2.3,0.1-4.5,0.2-6.8,0.5c-3.1,0.4-6.1,0.8-9.3,1.4c-0.1,0-0.3,0.1-0.4,0.2v0.2
		c0.2,0,0.3,0,0.5,0c0.5,0,0.8-0.1,1.3-0.1c3.7-0.1,7.4-0.4,11-0.9c4.8-0.6,9.5-1.2,14.3-1.4c1.8-0.1,3.6-0.3,5.4-0.4
		c0.1,0,0.2,0,0.3-0.1c0.1,0,0.2-0.1,0.2-0.2C77.8,83.3,77.9,83.1,77.9,82.8L77.9,82.8z M16.8,35.3v0.2l16.9,2.3
		C28.1,36.2,22.6,35.1,16.8,35.3L16.8,35.3z M43.5,82.4c-0.9-0.3-1-0.2-0.9,0.6c0.1,0.9,0.2,1.8,0.4,2.7c0.1,0.6,0.2,0.7,0.9,0.6
		L43.5,82.4z"/>
	<path class="st1" d="M42.6,81c-0.5-0.3-0.5,0-0.7,0.2c-0.1,0.1-0.2,0.2-0.3,0.3c-0.1,0.1-0.3,0.1-0.4,0c-1.4-0.2-2.7-0.5-4-0.5
		c-1.3-0.1-2.5,0-3.8,0.1c-1.5,0.1-3.1,0.4-4.5,0.5c-1.1,0.1-2.2,0.3-3.2,0.4c-2.3,0.3-4.4,0.5-6.7,0.7c-0.6,0.1-1.3,0.2-2.1,0.3
		c-0.1-0.5-0.1-1-0.1-1.5c0.4-5.4,0.7-10.8,0.4-16.3c-0.3-4.5-0.4-9-0.4-13.6c-0.1-3.7,0.1-7.5,0.1-11.2c0-1.2-0.1-2.3-0.2-3.3
		c0-0.2,0-0.3,0-0.5c0.7,0.1,1.5,0.3,2.3,0.4c3.4,0.5,6.8,0.9,10.2,1.4c3.3,0.6,6.8,1.3,10.2,2.2c1.2,0.3,2.3,0.5,3.5,0.9
		c0.7,0.3,1.4,0.7,2.2,1.2c0.2,0.1,0.3,0.3,0.3,0.4c0.1,0.2,0.1,0.4,0,0.5c-0.3,1.8-0.5,3.5-0.7,5.3c-0.5,3.1-0.7,6.2-0.9,9.4
		c-0.2,4.4-0.6,8.8-0.9,13.2c-0.2,2.4-0.4,4.9-0.5,7.3c0,0.5,0,1.2,0.1,1.7C42.5,80.3,42.6,80.6,42.6,81z M37.9,47.2l0.4-0.3
		c-0.2-0.1-0.3-0.3-0.5-0.4c-0.1,0-0.1,0-0.2,0c-4.8-0.8-9.7-1.6-14.4-2.4c-0.5-0.1-1-0.1-1.5-0.2c-0.1,0-0.2,0.1-0.3,0.2
		c0.1,0.1,0.2,0.2,0.3,0.3c0.1,0,0.2,0.1,0.3,0.1c3.8,0.6,7.6,1.4,11.4,2C34.7,46.8,36.3,47,37.9,47.2z M33.2,71.9
		c1.4,0,3.2,0,4.8,0c0.2,0,0.3-0.1,0.5-0.2c-0.2-0.1-0.3-0.3-0.5-0.3c-0.7-0.1-1.4-0.1-2.2-0.1c-2.7,0.1-5.4,0.2-8.1,0.5
		c-1.9,0.1-3.8,0.4-5.6,0.6c-0.3,0.1-0.6,0.2-0.9,0.3c-0.1,0-0.1,0.3-0.1,0.4c0.1,0.1,0.3,0.1,0.4,0.1c0.9-0.2,1.7-0.5,2.6-0.5
		C27,72.3,30,72.1,33.2,71.9z M39.3,63.1L39.3,63.1c0-0.2-0.1-0.4-0.3-0.5c-0.2-0.1-0.3-0.1-0.5-0.1c-5.1-0.4-10.2-0.3-15.3-0.1
		c-0.5,0-0.8,0.1-1.2,0.2c-0.1,0-0.2,0.2-0.3,0.3c0.1,0.1,0.2,0.2,0.3,0.2c0.3,0,0.6,0,0.9,0c4.8-0.2,9.5-0.2,14.3,0
		C38,63.2,38.6,63.1,39.3,63.1L39.3,63.1z M39,53.2c-0.1,0-0.2,0-0.2,0c-4.4-0.2-8.9-0.4-13.4-0.5c-1.1,0-2.2,0-3.2,0
		c-0.2,0-0.4,0.1-0.5,0.3v0.2c0.3,0,0.6,0.1,0.9,0.1c4.9,0.2,9.8,0.4,14.7,0.5c0.5,0,0.9,0,1.4,0C38.9,53.7,39.1,53.5,39,53.2
		L39,53.2z M23.3,48.4L23.3,48.4c-0.6,0.1-1.4,0.1-2,0.1c-0.1,0-0.3,0.1-0.4,0.2c0.1,0.1,0.3,0.2,0.4,0.3c0,0,0.1,0,0.2,0
		c1.4,0.1,2.6,0.2,4,0.3c3.6,0.4,7.2,0.7,10.9,1.1c0.4,0,0.8,0.1,1.2,0.1c0.1,0,0.2-0.1,0.3-0.2c-0.1-0.1-0.1-0.2-0.2-0.2
		c-0.3-0.1-0.5-0.2-0.7-0.2C32.2,49.3,27.7,48.9,23.3,48.4z M32.8,66.4c-3.5,0.2-6.2,0.4-8.9,0.5c-0.6,0-1.3,0.1-1.9,0.2
		c-0.2,0-0.4,0.2-0.5,0.3c0.2,0.1,0.4,0.1,0.5,0.2c0.1,0,0.2,0,0.3,0c1.4-0.1,2.8-0.3,4.2-0.3c3.5-0.2,7.1-0.3,10.7-0.5
		c0.3,0,0.5,0,0.9,0c0.1,0,0.1-0.1,0.2-0.1c0.1,0,0.1-0.1,0.1-0.2s-0.1-0.2-0.2-0.2c-0.2-0.1-0.5-0.1-0.6-0.1
		C35.6,66.4,33.8,66.4,32.8,66.4z M21.5,77.4c0.1,0,0.2,0,0.2,0c0.6-0.1,1.3-0.3,1.9-0.4c3.4-0.5,6.9-0.6,10.4-0.3
		c0.8,0.1,1.5,0.1,2.3,0.2c0.1,0,0.3-0.1,0.5-0.2c-0.1-0.1-0.2-0.3-0.4-0.3c-0.5-0.1-1-0.2-1.5-0.2c-3.1-0.4-6-0.4-9.1,0
		c-1.3,0.2-2.4,0.4-3.7,0.5c-0.2,0-0.3,0.1-0.5,0.2C21.6,77.1,21.5,77.2,21.5,77.4z M30,58.1c0.8,0,1.6,0,2.4,0c1.4,0,3,0.1,4.4,0.2
		c0.1,0,0.3-0.1,0.5-0.2c-0.1-0.1-0.3-0.3-0.4-0.3c-0.5-0.1-1.2-0.2-1.7-0.2c-3.8,0-7.6-0.1-11.4-0.1c-0.5,0-0.8,0-1.3,0.1
		c-0.2,0-0.3,0.2-0.4,0.3c0.2,0.1,0.3,0.2,0.5,0.2c0.5,0,0.9-0.1,1.4-0.1C26,58.1,28,58.1,30,58.1L30,58.1z"/>
	<path class="st2" d="M68.9,33.6c-0.5,1-1,1.8-1.4,2.7c-1.3,2.6-2.2,5.4-2.6,8.3c-0.5,3.2-1.3,6.5-1.8,9.8
		c-0.7,4.2-0.5,8.2,0.9,12.3c0.1,0.2,0.1,0.4,0.2,0.5c-7.5,3.6-14.8,7.4-20.4,13.8L43.5,81c-0.1-0.9-0.2-1.8-0.2-2.7
		c0.2-3,0.5-6,0.6-8.9c0.3-3.4,0.5-6.9,0.7-10.4c0.2-3.3,0.3-6.6,0.8-9.9c0.3-1.5,0.4-3.2,0.6-4.8c0.1-0.6,0.1-1.4,0.3-2.1
		c0.1-0.4,0.3-0.6,0.5-0.8c2.1-1.8,4.3-3.2,6.9-4.2c3.2-1.4,6.5-2.2,9.8-2.8c1.6-0.3,3.2-0.5,4.9-0.6C68.6,33.6,68.8,33.6,68.9,33.6
		z M60.2,63.8L60.2,63.8c-0.6,0.1-1.4,0.2-2,0.4c-1.7,0.7-3.4,1.4-5.1,2.3c-1.9,1-3.7,2.2-5.5,3.2c-0.3,0.2-0.5,0.5-0.7,0.6
		c-0.1,0.1-0.1,0.3-0.1,0.4c0.1,0,0.3,0,0.4-0.1c0.3-0.2,0.5-0.5,0.8-0.6c3.9-2.3,7.8-4.9,12.3-5.8c0.2-0.1,0.3-0.2,0.5-0.3
		c-0.2-0.1-0.3-0.2-0.5-0.3C60.3,63.8,60.3,63.8,60.2,63.8z M61.2,43.9c-0.3,0-0.5,0-0.6,0.1c-2.4,0.5-4.8,1-7.1,1.6
		c-2,0.5-4,1.4-5.8,2.4c-0.2,0.1-0.5,0.3-0.4,0.5c0,0.1,0.5,0,0.7-0.2c0.7-0.4,1.4-0.8,2.3-1.2c2.3-0.9,4.6-1.6,7-2.1
		c1.3-0.3,2.6-0.5,3.9-0.7c0.2-0.1,0.4-0.2,0.5-0.4L61.2,43.9z M47.1,54.5l0.2,0.2c0.2-0.1,0.5-0.2,0.6-0.3c1.2-0.5,2.3-1.2,3.5-1.5
		c2.7-0.7,5.4-1.4,8.1-2.1c0.2,0,0.4-0.1,0.5-0.2l0.1-0.1c0,0,0-0.1,0-0.2s-0.1-0.2-0.2-0.2c-0.1,0-0.3,0-0.4,0
		c-2.5,0.6-5.1,1.2-7.7,1.8c-1.5,0.5-3.1,1.1-4.4,1.9C47.4,54.3,47.2,54.4,47.1,54.5L47.1,54.5z M58.6,56.3
		c-0.8,0.3-1.5,0.4-2.3,0.6c-2.6,1-5.2,2.3-7.7,3.7c-0.6,0.4-1.2,0.7-1.8,1.1c-0.1,0.1-0.2,0.3-0.2,0.4c0.2,0,0.4,0,0.5,0
		c0.2-0.1,0.4-0.2,0.5-0.3c2.2-1.4,4.4-2.5,6.8-3.5c1.4-0.5,2.8-1,4.2-1.5c0.2-0.1,0.3-0.3,0.4-0.4L58.6,56.3z M59,53.4
		c-0.2,0-0.3,0-0.5,0.1c-3.5,0.8-6.9,2-10.1,3.4c-0.4,0.2-0.8,0.5-1.1,0.7c-0.1,0.1-0.1,0.3-0.2,0.5c0.2,0,0.3,0,0.5,0
		c0.3-0.1,0.5-0.3,0.7-0.5c2.2-1.2,4.5-1.9,6.9-2.6c1.2-0.4,2.4-0.7,3.7-1.1c0.1,0,0.2-0.2,0.4-0.3L59,53.4z M59.6,47.1
		C59.4,47,59.4,47,59.3,47c-0.2,0-0.4,0-0.5,0c-1.4,0.4-3,0.8-4.4,1.3c-1.7,0.5-3.4,1.2-5.1,1.9c-0.5,0.3-1.2,0.5-1.6,0.9
		c-0.1,0.1-0.1,0.3-0.2,0.4c0.1,0,0.3,0.1,0.4,0.1c0.1,0,0.2-0.1,0.3-0.1c2.7-1.5,5.6-2.3,8.6-3.2c0.9-0.3,1.7-0.5,2.6-0.7
		C59.3,47.3,59.5,47.2,59.6,47.1L59.6,47.1z M58.6,61l-0.1-0.2c-0.2,0-0.4,0-0.5,0c-3.3,0.8-6.6,2-9.7,3.7c-0.4,0.3-0.7,0.5-1.1,0.8
		c-0.1,0.1-0.1,0.3-0.1,0.5c0.2,0,0.3,0,0.5-0.1c0.5-0.4,1.1-0.7,1.6-1c2-1,4.2-1.9,6.3-2.5c0.8-0.3,1.7-0.5,2.5-0.7
		C58.3,61.3,58.4,61.2,58.6,61z M58.5,39.1c-0.1,0-0.2,0-0.2,0c-2.1,0.5-4.1,1.2-6,2c-0.2,0.1-0.3,0.2-0.4,0.3
		c-0.1,0.1-0.1,0.2-0.1,0.3c0.1,0,0.2,0.1,0.3,0.1c0.1,0,0.3-0.1,0.4-0.1c1.1-0.4,2.1-0.7,3.2-1.1c1-0.3,2-0.5,3-0.9
		c0.1,0,0.2-0.2,0.3-0.3L58.5,39.1z"/>
	<path class="st1" d="M75.5,39.6c-0.4,1.3-0.6,2.6-1,3.9c-1.1,4.2-1.8,8.5-2.3,12.8c-0.4,3.2-0.7,6.4-0.6,9.6
		c0.1,3.3,0.3,6.6,0.5,9.9c0,0.5-0.2,0.5-0.5,0.5l-9,2l-15.3,3.3c-0.4,0.1-0.6,0.1-1,0.1l0.4-0.3c3.3-2.5,7.1-4.1,10.9-5.7
		c3.5-1.5,7.1-3,10.7-4.5c0.5-0.2,0.9-0.4,1.4-0.5c0.6-0.3,0.7-0.5,0.5-1.1c-0.6-1.6-1-3.3-1.2-5.1c-0.2-1.5-0.2-3.1-0.1-4.6
		c0-3.4,0.1-6.9,0.2-10.3c0.1-2.8,0.7-5.4,1.5-8.1c0.3-0.9,0.6-1.2,1.5-1.3c1.1-0.1,2.1-0.4,3.2-0.5C75.3,39.6,75.4,39.6,75.5,39.6z
		"/>
	<path class="st1" d="M44.3,81.6l1.5-1.5c3.8-3.8,8.2-6.7,12.9-9.1c2-1.1,4.1-2,6.1-3c0.1,0,0.2-0.1,0.2-0.1
		c0.1-0.1,0.1-0.1,0.2-0.2c0-0.1,0.1-0.2,0-0.3c0-0.1,0-0.2-0.1-0.3c-0.2-0.6-0.5-1.3-0.6-1.9c-0.4-2.4-0.6-4.9-0.5-7.3
		c0.2-2.6,0.5-5.2,0.8-7.9c0.5-2.8,1-5.6,1.5-8.3c0.2-0.6,0.4-1.3,0.5-1.9c0-0.1,0.1-0.2,0.1-0.3c0.1-0.1,0.1-0.1,0.2-0.2
		c1-0.3,2-0.5,3.1-0.8c-0.1,0.2-0.1,0.4-0.1,0.5c-0.9,2.6-1.7,5.2-2,7.9c-0.2,1.9-0.3,3.7-0.4,5.6c-0.1,3.6,0,7.1,0,10.7
		c0.1,2.1,0.5,4.1,1.2,6c0.1,0.4,0.1,0.5-0.3,0.7c-3.7,1.5-7.4,3-11,4.5c-2.6,1.2-5.2,2.3-7.8,3.6c-1.4,0.7-2.6,1.6-3.9,2.5
		c-0.5,0.4-1.1,0.7-1.7,1.1L44.3,81.6z"/>
	<path class="st3" d="M15.9,35.2c0,0.5-0.1,0.9-0.1,1.4c0,1.3,0.2,2.4,0.2,3.7c-0.3,6.3,0,12.7,0.1,19c0.1,4.2,0.3,8.5,0.4,12.8
		c0,1.8-0.2,3.6-0.3,5.4c-0.1,1.9-0.2,3.7-0.2,5.6c0,0.9,0.2,1,1.1,0.9c2.4-0.4,5-0.6,7.5-0.9c3.1-0.4,6.1-0.7,9.2-1.1
		c1.4-0.2,2.7-0.2,4.1,0.1c1.2,0.2,2.3,0.3,3.4,0.5c0.2,0.1,0.3,0.1,0.5,0.2l-0.1,0.1c-0.7-0.1-1.4-0.3-2.1-0.3
		c-2.1,0.1-4.1,0.3-6.1,0.5c-3.2,0.4-6.3,0.7-9.5,1.1c-1.6,0.2-3.2,0.3-4.9,0.4c-1.3,0-2.5-0.1-3.8-0.1c-0.3,0-0.4-0.2-0.4-0.4
		c-0.1-1.7-0.1-3.4-0.2-5.2c-0.1-3.1-0.1-6-0.2-9.1c-0.1-2-0.3-4-0.4-6c-0.1-2.3-0.1-4.5-0.2-6.8c-0.2-4.9,0.5-9.7,1-14.6
		c0.2-1.7,0.1-3.5,0.3-5.3c0.1-0.6,0.2-1.2,0.4-1.7C15.6,35.4,15.8,35.3,15.9,35.2z"/>
	<path class="st1" d="M77.7,40.5c-0.4,1.3-0.7,2.4-1.1,3.6c-0.8,2.6-1.3,5.3-1.6,8c-0.3,1.6-0.6,3.2-0.7,4.8
		c-0.2,2.6-0.2,5.3-0.2,7.9c0,3.7,0.8,7.2,1.5,10.8c0.1,0.5,0.4,0.9,0.5,1.4c0.1,0.3,0.2,0.5,0.2,0.9c-5.3,0.8-10.7,1.7-16,2.5
		c-5.3,0.8-10.5,2-15.8,2.7L44.5,83c0.1-0.1,0.3-0.2,0.4-0.2c2.2,0,4.3-0.6,6.4-1.1c5.6-1.2,11.2-2.4,16.8-3.6
		c1.4-0.3,2.8-0.6,4.2-1c0.7-0.2,0.8-0.4,0.7-1.2c-0.2-2.5-0.5-5.1-0.5-7.7c-0.2-7.8,0.7-15.5,2.4-23.1c0.4-1.4,0.7-2.9,1.1-4.3
		c0.1-0.5,0.3-0.6,0.7-0.5C77.1,40.4,77.3,40.4,77.7,40.5z"/>
	<path class="st1" d="M44.8,85.2c0-0.1,0-0.2-0.1-0.2c-0.2-0.9-0.2-0.9,0.8-1.1c3.3-0.5,6.7-1.2,10-1.7c3.5-0.5,7-1.2,10.5-1.7
		c2.5-0.5,5.1-0.8,7.7-1.2c0.9-0.2,1.7-0.3,2.6-0.5c0.2,0.9,0.3,1.8,0.5,2.8c-0.1,0-0.1,0.1-0.2,0.1c-2.4-0.1-4.9,0.5-7.3,0.8
		c-2.9,0.5-5.8,0.8-8.7,0.8c-3.3,0.1-6.7,0.5-10,1c-1.9,0.3-3.7,0.5-5.6,0.8C45,85.2,44.9,85.2,44.8,85.2z"/>
	<path class="st1" d="M78.8,40.5c0,0.2-0.1,0.3-0.1,0.5c-0.9,3.2-1.4,6.6-1.6,9.9c-0.4,4.2-0.6,8.3-0.8,12.5
		c-0.1,2.6-0.1,5.2-0.1,7.9c0,0.5,0,1.2,0,1.7h-0.1c-0.1-0.7-0.3-1.4-0.4-2.1c-0.9-4.8-1-9.6-0.5-14.4c0.3-2.3,0.7-4.4,1-6.6
		c0.5-3.1,1.4-6,2.3-9C78.5,40.9,78.6,40.7,78.8,40.5L78.8,40.5z"/>
	<path class="st3" d="M77.9,82.8c0,0.3-0.1,0.5-0.1,0.8c-0.1,0.1-0.1,0.1-0.2,0.2c-0.1,0-0.2,0.1-0.3,0.1c-1.8,0.2-3.6,0.3-5.4,0.4
		c-4.8,0.2-9.6,0.7-14.3,1.4c-3.7,0.5-7.3,0.8-11,0.9c-0.5,0-0.8,0-1.3,0.1c-0.2,0-0.3,0-0.5,0v-0.2c0.1-0.1,0.3-0.2,0.4-0.2
		c3.1-0.5,6.1-1,9.3-1.4c2.3-0.3,4.5-0.4,6.8-0.5c3.6-0.1,7.1-0.5,10.7-1.3C73.7,82.8,76.5,82.6,77.9,82.8z"/>
	<path class="st3" d="M16.8,35.3c5.8-0.2,11.4,0.9,16.9,2.5l-16.9-2.3V35.3z"/>
	<path class="st3" d="M43.5,82.3l0.4,3.9c-0.7,0-0.8,0-0.9-0.6c-0.1-0.9-0.3-1.8-0.4-2.7C42.5,82.2,42.7,82.1,43.5,82.3z"/>
	<path d="M37.9,47.2c-1.6-0.3-3.2-0.5-4.6-0.8c-3.8-0.6-7.6-1.4-11.4-2c-0.1,0-0.2,0-0.3-0.1c-0.1-0.1-0.2-0.2-0.3-0.3
		c0.1-0.1,0.2-0.2,0.3-0.2c0.5,0,1,0.1,1.5,0.2c4.8,0.8,9.7,1.6,14.4,2.4c0.1,0,0.1,0,0.2,0c0.2,0.1,0.3,0.2,0.5,0.4L37.9,47.2z"/>
	<path d="M33.2,71.9c-3.2,0.3-6.2,0.5-9.1,0.7c-0.9,0.1-1.7,0.4-2.6,0.5c-0.1,0-0.3,0-0.4-0.1c0-0.1,0-0.4,0.1-0.4
		c0.3-0.2,0.5-0.3,0.9-0.3c1.9-0.3,3.8-0.5,5.6-0.6c2.7-0.2,5.4-0.3,8.1-0.5c0.7,0,1.4,0,2.2,0.1c0.2,0,0.3,0.2,0.5,0.3
		c-0.2,0.1-0.3,0.2-0.5,0.2C36.3,72,34.6,71.9,33.2,71.9z"/>
	<path d="M39.3,63.1c-0.6,0-1.4,0-2,0c-4.8-0.2-9.5-0.2-14.3,0c-0.3,0-0.6,0-0.9,0c-0.1,0-0.2-0.1-0.3-0.2c0.1-0.1,0.2-0.3,0.3-0.3
		c0.4-0.1,0.8-0.2,1.2-0.2c5.1-0.2,10.2-0.3,15.3,0.1c0.2,0,0.3,0,0.5,0.1C39.2,62.8,39.3,62.8,39.3,63.1L39.3,63.1z"/>
	<path d="M39,53.2c0.1,0.4,0,0.5-0.3,0.5c-0.5,0-0.9,0-1.4,0c-4.9-0.2-9.8-0.4-14.7-0.5c-0.3,0-0.6,0-0.9-0.1v-0.2
		c0.2-0.1,0.4-0.2,0.5-0.3c1.1,0,2.2-0.1,3.2,0c4.4,0.2,8.9,0.4,13.4,0.5C38.8,53.2,38.9,53.2,39,53.2z"/>
	<path d="M23.3,48.4c4.5,0.5,9,0.9,13.5,1.4c0.3,0,0.5,0.1,0.7,0.2c0.1,0,0.1,0.2,0.2,0.2c-0.1,0.1-0.2,0.2-0.3,0.2
		c-0.4,0-0.8,0-1.2-0.1c-3.6-0.4-7.2-0.7-10.9-1.1c-1.4-0.1-2.6-0.2-4-0.3c-0.1,0-0.1,0-0.2,0c-0.2-0.1-0.3-0.2-0.4-0.3
		c0.1-0.1,0.3-0.2,0.4-0.2C21.9,48.4,22.6,48.4,23.3,48.4L23.3,48.4z"/>
	<path d="M32.8,66.4c1,0,2.8,0,4.7,0c0.3,0,0.5,0,0.6,0.1c0.1,0,0.2,0.2,0.2,0.2c0,0.1-0.1,0.1-0.1,0.2c0,0-0.1,0.1-0.2,0.1
		c-0.3,0-0.5,0-0.9,0c-3.5,0.2-7.1,0.3-10.7,0.5c-1.4,0.1-2.8,0.2-4.2,0.3c-0.1,0-0.2,0-0.3,0c-0.2-0.1-0.4-0.1-0.5-0.2
		c0.2-0.1,0.4-0.3,0.5-0.3c0.6-0.1,1.3-0.2,1.9-0.2C26.6,66.7,29.3,66.6,32.8,66.4z"/>
	<path d="M21.5,77.4c0-0.2,0.1-0.3,0.2-0.5c0.1-0.1,0.3-0.2,0.5-0.2c1.3-0.2,2.4-0.4,3.7-0.5c3.1-0.4,6-0.4,9.1,0
		c0.5,0.1,1,0.2,1.4,0.3c0.1,0,0.3,0.2,0.4,0.3c-0.2,0.1-0.3,0.2-0.5,0.2c-0.8,0-1.5-0.1-2.3-0.2c-3.4-0.3-7-0.2-10.4,0.3
		c-0.6,0.1-1.3,0.3-1.9,0.4C21.6,77.4,21.5,77.4,21.5,77.4z"/>
	<path d="M30,58.1c-2,0-4.1,0-6.1,0c-0.5,0-0.9,0.1-1.4,0.1c-0.2,0-0.3-0.1-0.5-0.2c0.1-0.1,0.3-0.3,0.4-0.3
		c0.4-0.1,0.8-0.1,1.3-0.1c3.8,0,7.6,0,11.4,0.1c0.5,0,1.2,0.1,1.7,0.2c0.2,0,0.3,0.2,0.4,0.3c-0.2,0.1-0.3,0.2-0.5,0.2
		c-1.4,0-3-0.1-4.4-0.2C31.7,58.1,30.9,58.1,30,58.1z"/>
	<path d="M60.2,63.8L60.2,63.8c0.3,0.1,0.4,0.2,0.5,0.3c-0.1,0.1-0.3,0.2-0.5,0.3c-4.6,0.9-8.4,3.3-12.3,5.8
		c-0.3,0.2-0.5,0.5-0.8,0.6c-0.1,0.1-0.3,0-0.4,0.1c0-0.1,0-0.3,0.1-0.4c0.2-0.3,0.5-0.5,0.7-0.6c1.8-1.1,3.6-2.3,5.5-3.2
		c1.6-0.8,3.3-1.5,5.1-2.3C58.8,64,59.6,63.9,60.2,63.8L60.2,63.8z"/>
	<path d="M61.2,43.9l0.5,0.2c-0.2,0.2-0.4,0.3-0.5,0.4c-1.3,0.3-2.6,0.5-3.9,0.7c-2.4,0.5-4.8,1.2-7,2.1c-0.8,0.4-1.5,0.8-2.3,1.2
		c-0.2,0.1-0.6,0.2-0.7,0.2c-0.2-0.4,0.2-0.5,0.4-0.5c1.8-1.1,3.7-2,5.8-2.4c2.3-0.6,4.8-1.1,7.1-1.6C60.6,43.9,60.8,43.9,61.2,43.9
		z"/>
	<path d="M47.1,54.5c0.1-0.2,0.3-0.4,0.5-0.5c1.4-0.8,2.9-1.5,4.4-1.9c2.5-0.6,5.1-1.3,7.7-1.8c0.1,0,0.3,0,0.4,0
		c0.1,0,0.2,0.1,0.2,0.2s0,0.1,0,0.2l-0.1,0.1c-0.2,0.1-0.3,0.1-0.5,0.2c-2.7,0.7-5.4,1.3-8.1,2.1c-1.3,0.4-2.3,1-3.5,1.5
		c-0.2,0.1-0.5,0.2-0.6,0.3L47.1,54.5z"/>
	<path d="M58.7,56.3l0.4,0.3c-0.1,0.1-0.3,0.3-0.4,0.4c-1.4,0.5-2.9,0.9-4.2,1.5c-2.3,1-4.6,2.2-6.8,3.5c-0.2,0.1-0.3,0.2-0.5,0.3
		c-0.2,0-0.4,0-0.5,0c0.1-0.2,0.1-0.4,0.2-0.4c0.5-0.4,1.2-0.7,1.8-1.1c2.4-1.4,5-2.7,7.7-3.7C57,56.7,57.8,56.5,58.7,56.3z"/>
	<path d="M59,53.4l0.3,0.3c-0.1,0.1-0.2,0.3-0.4,0.3c-1.2,0.4-2.4,0.7-3.7,1.1c-2.3,0.7-4.7,1.4-6.9,2.6c-0.3,0.2-0.5,0.3-0.7,0.5
		c-0.2,0-0.3,0-0.5,0c0.1-0.2,0.1-0.4,0.2-0.5c0.4-0.3,0.7-0.5,1.1-0.7c3.2-1.5,6.6-2.7,10.1-3.4C58.7,53.4,58.8,53.4,59,53.4z"/>
	<path d="M59.7,47.1c-0.1,0.1-0.3,0.2-0.5,0.3c-0.9,0.3-1.7,0.5-2.6,0.7c-2.9,0.9-5.9,1.6-8.6,3.2c-0.1,0.1-0.2,0.1-0.3,0.1
		c-0.1,0-0.3,0-0.4-0.1c0.1-0.1,0.1-0.4,0.2-0.4c0.5-0.4,1.1-0.6,1.6-0.9c1.7-0.6,3.3-1.3,5.1-1.9c1.4-0.5,3-0.8,4.4-1.3
		c0.2,0,0.4-0.1,0.5,0C59.4,47,59.5,47,59.7,47.1z"/>
	<path d="M58.6,61c-0.1,0.1-0.3,0.2-0.5,0.3c-0.8,0.3-1.7,0.5-2.5,0.7c-2.2,0.6-4.2,1.4-6.3,2.5c-0.5,0.3-1.1,0.7-1.6,1
		c-0.2,0.1-0.3,0.1-0.5,0.1c0-0.2,0-0.4,0.1-0.5c0.4-0.3,0.6-0.5,1.1-0.8c3.1-1.6,6.2-2.9,9.7-3.7c0.2,0,0.4,0,0.5,0V61z"/>
	<path d="M58.5,39.1l0.3,0.3c-0.1,0.1-0.2,0.3-0.3,0.3c-1,0.3-2,0.5-3,0.9c-1.1,0.4-2.1,0.7-3.2,1.1c-0.1,0.1-0.2,0.1-0.4,0.1
		c-0.1,0-0.2,0-0.3-0.1c0-0.1,0-0.2,0.1-0.3c0.1-0.1,0.3-0.2,0.4-0.3c2-0.8,4-1.5,6-2C58.3,39.1,58.4,39.1,58.5,39.1z"/>
	<path d="M9.7,63.4c-1.1,0-1.7-0.8-1.4-1.7c0.3-0.7,1.2-1,2-0.7c0.2,0.1,0.3,0.1,0.5,0.3c0.1,0.1,0.3,0.3,0.3,0.4
		c0.1,0.2,0.1,0.3,0.1,0.5s0,0.4-0.1,0.5C10.9,63.1,10.5,63.4,9.7,63.4z"/>
	<path d="M11.6,35c0,0.4-0.2,0.6-0.4,0.9c-0.3,0.3-0.5,0.4-0.9,0.4c-0.4,0-0.7-0.2-1.1-0.5c-0.4-0.3-0.5-0.7-0.5-1.1
		s0.2-0.6,0.4-0.9c0.3-0.3,0.5-0.4,0.9-0.4c0.4,0,0.7,0.2,1,0.5C11.4,34.3,11.5,34.7,11.6,35z"/>
	<path d="M80.7,30.9c0,0.4-0.2,0.6-0.4,0.9c-0.3,0.2-0.6,0.3-0.9,0.3c-0.4,0-0.7-0.2-1-0.5C78.2,31.3,78,31,78,30.5
		c0-0.4,0.2-0.6,0.4-0.9c0.3-0.2,0.5-0.4,0.9-0.4c0.4,0,0.7,0.2,1,0.5C80.5,30.1,80.7,30.4,80.7,30.9z"/>
	<path d="M82.4,71c0.2,0,0.4,0,0.5,0.1c0.2,0.1,0.4,0.2,0.5,0.3c0.1,0.1,0.3,0.3,0.3,0.5c0.1,0.2,0.1,0.4,0.1,0.5
		c0,0.4-0.2,0.7-0.5,0.9s-0.5,0.4-0.9,0.4c-0.2,0-0.4,0-0.5-0.1c-0.2-0.1-0.3-0.2-0.5-0.3c-0.1-0.1-0.2-0.3-0.3-0.5
		C81,72.6,81,72.4,81,72.2c0-0.2,0-0.4,0.1-0.5c0.1-0.2,0.2-0.4,0.3-0.5c0.1-0.1,0.3-0.2,0.5-0.3C82.1,71,82.3,71,82.4,71z"/>
	<path d="M3.7,32.5c-0.8,0-1.4-0.5-1.4-1.3c0-0.4,0.2-0.6,0.5-0.9S3.4,30,3.7,30C4.5,30,5,30.5,5,31.2C5,32,4.5,32.5,3.7,32.5z"/>
	<path d="M8.6,75.4c-0.8,0-1.4-0.5-1.4-1.3c0-0.2,0-0.4,0.1-0.5c0.1-0.2,0.2-0.3,0.3-0.5C7.7,73,7.8,73,8,72.9
		c0.2-0.1,0.4-0.1,0.5-0.1c0.8,0,1.4,0.5,1.4,1.3C9.9,74.8,9.4,75.4,8.6,75.4z"/>
</g>
</svg>
