<?xml version="1.0" encoding="utf-8"?>
<!-- Generator: Adobe Illustrator 25.0.0, SVG Export Plug-In . SVG Version: 6.00 Build 0)  -->
<svg version="1.1" xmlns="http://www.w3.org/2000/svg" xmlns:xlink="http://www.w3.org/1999/xlink" x="0px" y="0px"
	 viewBox="0 0 86 91" style="enable-background:new 0 0 86 91;" xml:space="preserve">
<style type="text/css">
	.st0{fill:#F4E9E9;}
	.st1{fill:#A06A80;}
	.st2{fill:#FFD265;}
	.st3{fill:#8EC2D8;}
</style>
<g id="Capa_1">
	<rect class="st0" width="85.8" height="90.9"/>
</g>
<g id="Capa_2">
	<path class="st1" d="M43.2,60.8h2.6H49l2.6,1l1.6,1l0.7,0.7l0.6,0.8l0.3,0.6l1-0.5l3.1-1H61l1.6-0.5h2.1l2.3,0.5h2.3l2.5,1.3
		l1.6,0.3l2.3,2.5l0.8,0.6l1,2.1l0.5,2.1L76,75.4l-5.2,5.7l-4.7,3.6l-4.2,2.6l-4.7,1L49.4,89l-4.7-0.5l-5.2-1.6l-4.7-2.6l-3-3.1
		l-2.1-3.6l-1.6-5.2l-1-4.2L26.7,66l-1-1.6l-3.1-2.1l-1.6-1.6l-2.1-1.6l-1.6-2.6l-1-3.6l-0.5-3.6v-2.6v-2.6l1.6,0.5l3.1,1.6l1,1v-1
		v-3.6l0.5-2.1l1,0.5l2.6,2.1l1.6,2.1l1.6,2.6l1,2.6l1,2.6l0.3,2.7L31,58.5l-1.7,4.4l-0.5,1.6v1l0.5,1.6l1,1l1.6,0.5h1.6H36l2.1-1
		l2.1-1.6l2.1-2.6L43.2,60.8z"/>
	<path class="st2" d="M43.8,60.3l1-3.1l0.5-3.1v-2.6l0.5-3.6l0.9-2.5l0.3-1.4l2.3-3.6l1-4.5l0.3-3l0.5-0.5l0.5-0.5l0.8,0.8l1.3,1.2
		l1.1,1.7l3.1-0.5l3.1-0.5l5.2,0.5l4.7,1l2.1,0.5h1l1.6-1.6l2.1-1.6l1,0.5l0.5,0.5l0.5,1l2.1,4.2l1.6,7.8l-0.2,7.5l-0.3,3.4
		l-0.5,4.2l-1.6,4.2l-2.1,5.7l-1,0.7l0.2-2.6l-1.4-2.9l-3.3-2.8l-3.3-1.4l-4.7-0.5l-2.1,0.1l-3,0.4L57.3,64l-2.1,0.6L54.7,65
		L54,63.4l-1.3-1.2L50.3,61l-2-0.3l-2.9,0.1h-1.1L43.8,60.3z"/>
	<path class="st3" d="M55.7,57.8l0.5,1.6V62l0.5,1l1.6,0.5h2.1l1.6-0.3l0.4-0.2l0.5-2.1v-2.1l-0.5-0.5l-1-1l-1.6-0.5v-1.6h-1
		l-0.5,1.6l-1.6,0.5L55.7,57.8z"/>
	<path class="st3" d="M60.4,46.9l-0.5,1l-0.3,1.6l-0.3,2v0.5h1l0.1-2.2l0.2-1.7L60.4,46.9z"/>
	<path d="M55.1,34.9c1.8-0.2,3.6-0.3,5.2-0.5c0.5-0.1,1-0.1,1.6-0.1c3.4-0.1,6.7,0.4,10,1.4c0.7,0.2,1.5,0.2,2.3,0.2
		c0.2,0,0.4-0.3,0.6-0.4c0.6-0.5,1.1-1,1.7-1.6c0.3-0.3,0.5-0.4,0.9-0.5c0.7-0.3,1.3-0.3,1.7,0.4c0.3,0.5,0.6,1.1,1,1.7
		c0.3,0.6,0.7,1.2,1,1.7c0.8,1.4,1.2,2.9,1.6,4.3c0.7,2.6,1.2,5.1,1.3,7.8c0.1,2,0,3.9-0.2,5.9c-0.5,5.6-1.9,11.1-4.5,16.2
		c-1.6,3.3-4,6.2-6.6,8.8c-3.8,3.8-8.2,6.8-13.5,8.3c-2.6,0.9-5.4,1.2-8.2,1.1c-4-0.2-7.9-0.8-11.6-2.3c-4.7-1.8-8-5.1-10.2-9.7
		c-1.4-3-2.3-6.2-2.4-9.5c-0.1-1.6-1-3-2.3-3.9c-1.3-1-2.7-2-4.1-3c-2.4-1.8-3.9-4.3-4.6-7.1c-0.6-2.6-0.7-5.2-0.7-7.9
		c0-0.6,0-1.2,0-1.7c0-0.6,0.1-0.7,0.8-0.5c1.7,0.3,3.3,1.1,4.7,2.2c0.1,0.1,0.3,0.2,0.3,0.3h0.1c0-1-0.1-1.9,0-2.9
		c0.1-0.9,0.2-1.8,0.4-2.7c0.1-0.6,0.3-0.6,0.9-0.3c1.8,0.9,3.2,2.2,4.4,3.7c3,3.6,4.3,7.8,4.2,12.5c-0.1,2.2-0.7,4.2-1.5,6.2
		c-0.3,0.7-0.5,1.4-0.7,2.1c0,0.2,0,0.3,0,0.6c0.1,0.2,0.1,0.3,0.2,0.5c0.5,1.5,1.5,2.3,3,2.3c2.7-0.1,5.2-0.6,7.5-2.3
		c1.7-1.3,2.7-3,3.6-4.9c1.2-2.6,1.6-5.4,1.8-8.2c0.1-2.5,0.3-4.9,1.3-7.3c0.5-1.4,1.3-2.8,1.9-4.1c1-2.4,1.9-4.9,2-7.6
		c0-0.5,0.2-1.1,0.3-1.6c0.3-0.9,1-1,1.8-0.5c1,0.8,1.9,1.7,2.6,2.9C55,34.8,55.1,34.9,55.1,34.9z M60.3,54.6l0.4,0.3
		c0.1-0.1,0.1-0.3,0.1-0.3c0-0.3,0-0.4-0.1-0.7h-0.5C60.3,54.1,60.3,54.3,60.3,54.6c-0.1-0.3-0.2-0.4-0.3-0.7L60,53.8
		c0,0-0.1,0-0.2-0.1c-0.1,0-0.2,0.1-0.2,0.2c-0.2,0.4,0,0.7,0.4,0.7L60.3,54.6z M59.2,54.8l-0.5,0.1l0.1-0.1l-0.2-0.1
		c0.3-0.6,0.2-1-0.3-1.1c-0.3,0.5-0.2,0.9,0.3,1.1l-1,0.2c0.1,0.3,0.1,0.7,0.1,1c-0.1,0.3-0.2,0.7-0.3,1l1.4-0.1
		c0.1-0.6,0.2-1.1,0.3-1.6H59c-0.1,0.9-0.2,1.8-0.3,2.7h0.9c0.1-0.7,0.2-1.4,0.3-2H60v1h1.4l0.5-1.9l-1.7,0.1L60,55.5L59.8,55
		L59.2,54.8c0.2-0.7,0.2-0.9-0.3-1C58.8,54.4,58.8,54.5,59.2,54.8L59.2,54.8z M60.3,51c0-0.1,0.1-0.1,0.1-0.2
		c0.1-0.9,0.2-1.7,0.3-2.6c0-0.3-0.1-0.6-0.2-1c-0.6,0.3-0.8,0.8-0.8,1.3c0,0.3,0,0.7-0.1,1c-0.1,0.7-0.2,1.3-0.3,2.1
		C59.2,51.5,59.5,51,59,51c-0.9,0.1-1.8,0.3-2.7,0.3c-0.2,0-0.3,0.1-0.4,0.2c-0.1,0.1-0.2,0.3-0.2,0.4c0,0.3,0.3,0.5,0.5,0.6
		c1.2,0.5,2.5,0.8,3.9,0.8c0.9,0,1.7-0.1,2.6-0.3c0.1,0,0.1,0,0.2-0.1l0.6-0.3v0.6c0.4,0.1,0.5,0,0.6-0.3l1-0.3
		c1.7-0.5,3.5-0.3,5.1-0.1c0.2,0,0.4,0.1,0.6,0.1v0.1c-0.1,0-0.2,0-0.3,0.1c-0.3,0-0.7,0-1,0c-1.9,0-3.8,0.3-5.6,1
		c-0.1,0-0.1,0-0.2,0.1c-0.3,0.3-0.5,0.4-0.8,0.7c-0.3,0.3-0.7,0.5-0.8,1.1c-0.1,0.8,0.1,1.3,0.7,1.8c0.3,0.3,0.8,0.5,1.2,0.6
		c0.4,0.1,0.9,0.1,1.3,0c0.7-0.2,1.5-0.5,2.2-0.7l1.1-0.4l0.1,0.2c-1.6,1-3.3,1.9-5.4,1.6c-0.2,1.2-0.3,2.4-0.5,3.7
		c0.2,0,0.3,0,0.4,0c1,0,2.2,0,3.2,0.1c2.4,0.2,4.8,1,6.9,2.2c1.9,1.1,3.5,2.7,4.2,4.9c0.2,0.6,0.3,1.3,0.5,2c0.3-0.5,0.5-1,0.8-1.5
		c1-2.1,2-4.2,2.2-6.5c0-0.3,0.1-0.4,0.1-0.7c0,0-0.1,0-0.1,0.1l-0.1,0.1c-0.2,0.4-0.3,0.8-0.5,1.1c-0.1,0.2-0.3,0.2-0.5,0.3
		c0-0.2,0-0.3,0-0.5c0.1-0.4,0.3-0.8,0.3-1.2c-0.3,0.3-0.4,0.7-0.6,1c-0.1,0.1-0.2,0.3-0.3,0.3c-0.1-0.2-0.1-0.3-0.1-0.4
		c0.1-0.5,0.2-1,0.2-1.6c-0.3,0.3-0.4,0.8-0.5,1.2c-0.1,0.2-0.2,0.3-0.4,0.2c0.1-0.5,0.1-1,0.2-1.6c-0.1,0.2-0.3,0.3-0.3,0.4
		c0,0.1-0.1,0.1-0.2,0.2c0-0.1-0.1-0.2-0.1-0.3c0.1-0.3,0.2-0.8,0.3-1.1c0-0.1,0.1-0.1,0.1-0.1c0.3,0.1,0.3-0.2,0.4-0.3
		C78.9,61,79,61,79.2,61l-0.1,0.9c0.1-0.2,0.3-0.3,0.3-0.5c0.1-0.1,0.3-0.2,0.3-0.2c0.1,0.1,0.1,0.3,0.1,0.3c0,0.4-0.1,0.8-0.2,1.2
		c0.3-0.4,0.5-0.8,0.7-1.2c0.1-0.1,0.2-0.2,0.3-0.3c0.1,0.1,0.1,0.3,0.2,0.3c0,0.1,0,0.3,0,0.4c0.2-0.3,0.3-0.6,0.4-1
		c0-0.1,0.1-0.1,0.1-0.1s0.1-0.1,0.2-0.1c0.1,0,0.2,0.2,0.2,0.3c0,0.2,0,0.3,0,0.5c0.1-0.1,0.2-0.2,0.2-0.3c0.2-0.9,0.3-1.7,0.5-2.6
		c0.1-0.5,0-1-0.5-1.2l0,0c-0.2-0.2-0.3-0.3-0.3-0.5c-0.1-0.3,0-0.4,0.1-0.7c0.1-0.2,0.1-0.3,0.1-0.5c0.1-0.1,0.2-0.3,0.3-0.3
		c0.1,0.1,0.2,0.3,0.2,0.3c0.1,0.3,0.1,0.8,0.1,1.1c0.2-0.1,0.3-0.2,0.2-0.3c-0.3-0.4,0-0.7,0.2-1c0.1-0.2,0.2-0.3,0.2-0.4
		c0.1-0.8,0.1-1.6,0.2-2.4c0-0.1,0-0.3,0-0.3c-0.4-0.3-0.3-0.8-0.3-1.2c0-0.1,0-0.2-0.1-0.3c-0.1,0.4-0.2,0.9-0.3,1.3
		c-0.1,0.2-0.1,0.3-0.2,0.4c-0.2-0.1-0.3-0.2-0.4-0.3c-0.2-0.3-0.3-0.7-0.3-1.1c0,0.2-0.1,0.4-0.1,0.6c-0.1,0.2-0.2,0.3-0.3,0.3
		c-0.1-0.1-0.2-0.3-0.3-0.3c-0.1-0.3-0.1-0.7-0.2-1h-0.2c0,0.3,0,0.7,0,1c0,0.1-0.1,0.2-0.2,0.3c-0.1-0.1-0.3-0.2-0.3-0.3
		c-0.1-0.2-0.2-0.4-0.3-0.7c-0.1,0.2-0.1,0.3-0.2,0.5c0,0.1-0.1,0.2-0.2,0.2c-0.1-0.1-0.2-0.1-0.2-0.2c-0.1-0.3-0.2-0.5-0.3-0.9
		L78.7,51l-0.3,0.3c-0.1-0.1-0.1-0.2-0.2-0.3c-0.2-0.5,0.4-0.6,0.4-1h0.1l0.3,0.8c0.1-0.3,0.1-0.6,0.2-0.9c0.1-0.1,0.1-0.2,0.2-0.3
		c0.1,0.1,0.2,0.2,0.2,0.3c0.1,0.3,0.1,0.5,0.2,0.7c0.2-0.3,0.3-0.8,0.3-1.1c0-0.1,0.2-0.2,0.3-0.3c0.1,0.1,0.2,0.2,0.2,0.3
		c0.1,0.3,0.1,0.5,0.1,0.8c0.1-0.3,0.2-0.6,0.3-0.9c0.1-0.2,0.2-0.3,0.3-0.4c0.1,0.2,0.3,0.3,0.3,0.4c0.1,0.6,0.1,1.2,0.2,1.9
		c0.1-0.1,0.1-0.1,0.1-0.2c0.1-0.5,0.1-1,0.2-1.6c0-0.1,0.1-0.2,0.2-0.3c0.1,0.1,0.3,0.1,0.3,0.2c0.1,0.2,0.2,0.4,0.3,0.6
		c0.1-0.2,0.1-0.3,0.1-0.4c-0.1-1.3-0.2-2.7-0.3-4c-0.3-2.3-0.7-4.7-1.7-6.9c-0.3-0.9-0.8-1.6-1.2-2.4c-0.3-0.7-0.7-1.4-1-2
		c-0.4-0.7-1-0.8-1.6-0.3c-0.3,0.3-0.8,0.5-1.1,0.8c-0.6,0.5-1.2,1-1.7,1.5c-0.2,0.2-0.3,0.3-0.6,0.3c-0.8-0.1-1.6-0.2-2.3-0.3
		c-0.6-0.2-1.2-0.4-1.9-0.2c0.2,0.1,0.3,0.1,0.4,0.2c0.1,0.1,0.2,0.2,0.3,0.3c-0.1,0.1-0.2,0.2-0.3,0.2c-0.3,0-0.4,0-0.7,0l0.3,0.4
		l-0.4,0.2c0,0.2,0,0.3-0.1,0.4c-0.3,0.1-0.8,0.1-1.2,0.1c-0.3-0.1-0.6-0.3-0.9-0.4c-0.1-0.1-0.1-0.3-0.1-0.3h0.1l-0.3-0.3
		c0.2,0,0.3-0.1,0.4-0.1c0.2,0,0.3,0.1,0.5,0.1c-0.3-0.2-0.4-0.3-0.7-0.4c-0.1-0.1-0.3-0.3-0.3-0.3c0.2,0,0.3-0.1,0.4-0.1h0.1h0.1
		c-0.5-1-1.5-0.5-2.2-0.7l0.2,0.3l-0.3,0.4c-0.2-0.2,0,0,0,0.1c-0.1,0.1-0.2,0.2-0.3,0.3c0.1,0.1,0.2,0.3,0.2,0.4
		c0,0.1-0.3,0.2-0.3,0.2l0.2,0.3C64,37,63.8,37,63.7,37c-0.2,0-0.3,0-0.4,0l0.3,0.4l0.2,0.3c-0.1,0-0.2,0-0.2,0
		c-0.3,0.1-0.5,0.1-0.8,0s-0.5-0.3-0.6-0.4l0.7-0.1c-0.2-0.1-0.4-0.2-0.6-0.3c-0.1-0.1-0.2-0.2-0.3-0.3c0.1-0.1,0.2-0.1,0.3-0.1
		c0.3,0,0.6,0.1,0.9,0.1c-0.3-0.2-0.6-0.3-0.9-0.3c-0.1,0-0.2-0.2-0.2-0.2c0-0.1,0.2-0.2,0.2-0.3c-0.1-0.1-0.2-0.3-0.1-0.3
		s0.2-0.2,0.3-0.2L62,34.8c-0.3,0-0.7,0-1.1,0c-0.3,0-0.4,0.1-0.2,0.3c0.1,0.1,0,0.2,0,0.3s0,0.2-0.1,0.3c-0.1,0.3,0.3,0.7-0.1,0.9
		c0,0.2,0,0.4,0,0.4c-0.3,0.2-0.5,0.3-0.8,0.3c-0.5,0-1-0.1-1.5-0.3c0,0-0.1,0-0.1-0.1c0,0,0-0.1-0.1-0.1c0-0.1,0.1-0.1,0.2-0.2
		c0.2,0,0.4,0,0.6,0c-0.3-0.1-0.7-0.2-0.9-0.3c-0.2-0.2-0.1-0.4-0.2-0.7l-0.2-0.3l0.5-0.3c-1,0-2.3,0.2-3.3,0.2
		c-0.2-0.2-0.3-0.3-0.5-0.5c-0.7-0.7-0.9-1.6-1.6-2.3c-0.3-0.3-0.7-0.7-1.2-0.5c-0.5,0.2-0.6,0.7-0.7,1.1c-0.2,1-0.3,2.1-0.4,3.1
		h-0.2c0,0.3,0,0.4,0,0.7c0,0.2-0.1,0.3-0.1,0.5c-0.1,1.1-0.4,2.3-0.9,3.3c-0.4,1-1,1.8-1.5,2.8c-0.3,0.7-0.7,1.4-1,2.2l0.1,0.1
		c0.2,0,0.3,0,0.4-0.1c0.3-0.3,0.4-0.1,0.5,0.1c0.3-0.3,0.4-0.2,0.5,0.2c0,0.2,0,0.3,0.1,0.5c0.1-0.1,0.2-0.2,0.2-0.3
		c0.1-0.1,0.1-0.2,0.2-0.3c0.1,0.1,0.2,0.1,0.3,0.2c0.4,0.3,0.2,0.8,0.1,1.1c-0.1,0.3-0.2,0.4-0.4,0.3c-0.2,0.2-0.3,0.3-0.3,0.4
		l-0.3-0.5c-0.1,0.3-0.1,0.6-0.2,0.9c0,0.1-0.1,0.1-0.1,0.1s-0.1,0.1-0.2,0.1c-0.1,0-0.2-0.1-0.2-0.2s0-0.1,0-0.2l-0.4,0.6l-0.3-0.4
		c-0.2,0.3-0.3,0.6-0.5,1c-0.1,0.6-0.2,1.2-0.2,1.8c0,0.1,0,0.3,0,0.3c0.2,0.2,0.3,0.3,0.5,0.6c0-0.1,0-0.2,0.1-0.3
		c0.1-0.1,0.1-0.2,0.2-0.3c0.1,0.1,0.2,0.2,0.3,0.2c0.1,0.1,0.2,0.1,0.2,0.1c0.3,0.1,0.7,0.9,0.4,1c-0.1,0.1-0.2,0.2-0.3,0.3
		c-0.1,0.1-0.1,0.2-0.1,0.3c-0.1,0.3-0.3,0.3-0.3,0.1c-0.1-0.1-0.1-0.2-0.1-0.2l-0.3,0.6l-0.4-0.2c-0.1,0.2-0.3,0.3-0.3,0.4
		c-0.1,0.8-0.1,1.5-0.1,2.3c0,0.1,0.3,0.2,0.3,0.2c0.3-0.3,0.4-0.1,0.5,0.3c0.2-0.3,0.3-0.3,0.5-0.1c0.3,0.5,0.2,1,0.2,1.5
		c0,0.2-0.1,0.3-0.2,0.4h-0.7L45.9,59c-0.1-0.3-0.2-0.4-0.3-0.7c-0.1,0.3-0.3,0.3-0.6,0.2l-0.8,2.3c0.1,0,0.1,0,0.1,0
		c1.5-0.3,2.9-0.3,4.3-0.1c1.9,0.3,3.6,0.8,5,2.2c0.5,0.5,1,1.1,1.4,1.7l3-1.1c-0.4-0.2-0.9-0.3-1.3-0.4c-0.2-0.1-0.3-0.2-0.4-0.3
		c-0.1-0.2-0.2-0.3-0.2-0.5c0-0.7-0.1-1.4-0.2-2.1c-0.1-0.7-0.1-1.5-0.2-2.2c-1.8,0.3-4.9-0.6-5.6-1.6c0.3,0.1,0.7,0.2,1,0.3
		c0.6,0.3,1.2,0.5,1.7,0.7c0.8,0.3,1.7,0.3,2.5-0.1c1.5-0.7,1.6-1.9,0.6-3.1c-0.9-1-2.1-1.6-3.3-1.6c-1.4-0.2-2.8-0.3-4.2-0.3h-0.4
		V52c2.3-0.3,4.7-0.6,7,0.5c-0.1-1,0.5-1.4,1.3-1.6c0.3-0.1,0.4-0.1,0.7-0.2c0.7-0.1,1.4-0.1,2.2-0.1c0.1-0.8,0.2-1.6,0.3-2.5
		c0-0.1,0-0.2,0-0.3c-0.3,0-0.6,0-0.9,0c-0.3-0.1-0.6-0.2-0.8-0.4c-0.2-0.3-0.3-0.4-0.3-0.8l0.2-0.1c0,0.1,0,0.3,0.1,0.3
		c0,0.1,0.1,0.2,0.2,0.3c0.1,0.1,0.2,0.2,0.3,0.2c0.1,0.1,0.3,0.1,0.3,0.1c0.6,0.1,1.2,0,1.6-0.5c0.1-0.1,0.1-0.2,0.1-0.3
		s0-0.2-0.1-0.3c-0.2-0.3-0.3-0.7-0.5-1c-0.2-0.3,0-0.5,0.3-0.5c0.4,0,1,0.1,1.4,0.2c0.3,0.1,0.3,0.3,0.2,0.5
		c-0.2,0.3-0.4,0.6-0.6,0.9c-0.1,0.2-0.2,0.3-0.2,0.4c0,0.2,0.1,0.4,0.3,0.6c0.2,0.2,0.3,0.3,0.5,0.3c0.2,0.1,0.4,0.1,0.6,0
		c0.2-0.1,0.3-0.2,0.5-0.3c0.1-0.1,0.2-0.2,0.2-0.3c-0.2,0.9-0.6,1-2.1,0.7c-0.1,0.8-0.2,1.6-0.3,2.4C60.5,50.7,60.4,50.9,60.3,51
		L60.3,51z M16.5,44.8L16.5,44.8c0.6,0.9,1.3,1.7,2,2.6c2.4,3.3,4.5,6.8,6.2,10.4c1.2,2.4,2.2,5,3,7.6c0,0.2,0,0.3,0.1,0.4L27.5,66
		c-2.3-7.6-6.1-14.6-11-20.7c0.1,0.3,0.3,0.6,0.3,0.9c0.8,2.5,1.8,4.9,3.2,7.1c1.4,2.2,2.9,4.3,4.2,6.6c1.2,2,2.4,4.1,3,6.4
		c0.3,1.2,0.5,2.4,0.8,3.6c0.5,2.6,1.2,5.1,2.3,7.6c2.2,4.7,5.7,7.9,10.7,9.6c3.2,1,6.6,1.6,10,1.7c5,0.3,9.6-1.1,14-3.6
		c5-2.9,9-6.9,12.2-11.5c0.3-0.3,0.4-0.7,0.5-1.1c0.1-0.4,0.1-0.8,0-1.2c-0.1-0.3-0.1-0.5-0.2-0.8c-0.9-2.7-2.8-4.5-5.4-5.6
		c-2.5-1.1-5.1-1.6-7.9-1.6c-0.5,0-1-0.1-1.5,0.1c-0.8,0.3-1.6,0.3-2.3,0.3c-0.4,0-0.9,0-1.3,0.1c-1.2,0.3-2.3,0.7-3.6,1
		c-0.2,0.1-0.3,0.2-0.5,0.3c-0.1-0.1-0.1-0.1-0.2-0.2c-0.5-1.2-1.5-2-2.6-2.7c-1.6-0.9-3.3-1.2-5.1-1.2c-1,0-1.8,0.1-2.8,0.1
		c-0.1,0-0.3,0.1-0.3,0.2c-0.1,0.1-0.2,0.2-0.2,0.3c-0.2,0.5-0.4,1-0.7,1.4c-1,2.1-2.5,3.8-4.7,4.8c-1.7,0.8-3.7,1.2-5.6,1.2
		c-2.8,0-4.3-1.7-4.5-4.8c0.2-0.2,0.3-0.3,0.3-0.3c0.3-0.6,0.4-1.3,0.7-1.9c1-2.7,1.5-5.6,1.1-8.4c-0.3-2.2-0.9-4.3-1.9-6.2
		c-1-1.9-2.4-3.6-4.2-4.9c-0.7-0.6-1.5-1.1-2.2-1.6l-0.1,0.1c0.1,0.2,0.2,0.3,0.3,0.4c0.4,0.6,0.9,1.2,1.4,1.7
		c1.9,2.1,3.3,4.6,4.2,7.3c1.3,4.3,1.6,8.5,0.2,12.8c-0.2,0.5-0.2,1.1,0,1.7c0.1,0.3,0.1,0.6,0.2,0.9h-0.2c-0.1-0.2-0.1-0.3-0.2-0.4
		c-0.7-2.1-1.3-4.3-2.1-6.3c-1-3-2.3-5.8-4.1-8.5c-1.4-2.2-3.2-3.9-5-5.6C16.8,44.9,16.7,44.8,16.5,44.8z M26.5,58.7L26.5,58.7
		c-0.1-0.1-0.2-0.3-0.2-0.3c-0.3-1.5-0.6-3-1.1-4.5c-1-3.1-2.8-5.8-5.6-7.6c-0.6-0.4-1.3-0.8-2-1.1l-0.1,0.1l0.2,0.2
		c2.4,2.2,4.5,4.7,6,7.6c1.4,2.6,2.4,5.4,3.3,8.2c0.3,0.8,0.5,1.6,0.8,2.3c0-0.1,0.1-0.1,0.1-0.1c0-0.1,0.1-0.2,0.1-0.3
		c0.8-2.6,1-5.4,0.8-8.2c-0.4-3.6-1.6-6.9-3.7-9.9c-0.8-1-1.6-2.1-2.4-3.1c-0.2-0.2-0.3-0.3-0.3-0.5c0,0.2,0,0.3,0.1,0.4
		c0.7,1.2,1.4,2.5,2.1,3.7c1,1.7,1.9,3.6,2.4,5.5c0.7,2.7,1.1,5.6,1.1,8.3c0,0.9,0,1.8,0,2.7h-0.1c0-0.1,0-0.2,0-0.3
		c-0.2-2.3-0.3-4.6-0.6-6.9c-0.3-2.7-1-5.4-2.3-7.7c-0.9-1.6-1.7-3.1-2.6-4.7h-0.1c0.2,2.5,1,4.9,2,7.2c-1.4-2.2-2-4.6-2.4-7.1
		c-0.2,1.4-0.2,2.9,0.1,4.3c0,0.2,0.1,0.4,0.3,0.5c2.9,3,4.2,6.8,4.3,10.8C26.5,58.5,26.5,58.6,26.5,58.7z M16.7,48.4L16.7,48.4
		c0.4,1.3,0.9,2.6,1.3,3.9c0.7,2.1,1.6,4,3,5.7c0.9,1,1.9,2.1,2.8,3.1c0.9,1,1.7,2,2.2,3.3c0.1,0.2,0.2,0.3,0.3,0.5
		c0-0.1,0-0.2,0-0.3c-1-2.6-2.5-4.9-4.1-7.2c-2.1-3.1-4.1-6.4-5.3-10c-0.2-0.3-0.3-0.8-0.4-1.1h-0.1v0.4h-0.1L16,45.5
		c0,0.2-0.1,0.3-0.1,0.3c0,2.3,0.1,4.8,0.5,7.1c0.7,3.6,2.4,6.4,5.5,8.4c1,0.7,2.1,1.5,3,2.3c0.2,0.2,0.4,0.3,0.6,0.5
		c-0.3-1-1-1.8-1.8-2.5c-3.2-2.8-5.4-6.2-6.5-10.3C17.1,50.3,16.9,49.4,16.7,48.4z M59.8,58.3c-0.3,0.3,0.2,1.3-0.9,1.2
		c-1-0.1-0.5-0.8-0.5-1.3l-2.3-0.4c0.1,1.4,0.3,2.7,0.3,4c0.1,0.8,0.3,1,1,1.1c0.6,0.1,1.2,0.2,1.9,0.2c0.8,0,1.6,0,2.3-0.1
		c0.5-0.1,0.8-0.3,0.9-0.9c0.2-1,0.3-2,0.4-3c0-0.1,0-0.3,0-0.3c-0.3-0.2-0.6-0.5-1-0.5C61.3,58.3,60.6,58.2,59.8,58.3z M59.8,57.8
		h1.9c-0.3-0.7-0.3-0.7-1-0.7h-0.3C59.8,57.1,59.8,57.1,59.8,57.8L59.8,57.8z M58.5,57c-0.6,0.2-1.3-0.2-1.9,0.5
		c0.5,0.1,0.9,0.2,1.3,0.2C58.5,57.9,58.6,57.9,58.5,57L58.5,57z M59.6,58.2c-0.9-0.2-1-0.2-1,0.4c-0.1,0.4,0.1,0.6,0.5,0.5
		C59.8,59.2,59.3,58.6,59.6,58.2L59.6,58.2z M61.2,54.7c0.6-0.1,0.7-0.3,0.6-0.7c-0.1-0.2-0.2-0.3-0.4-0.3c-0.3,0.1-0.3,0.2-0.3,0.4
		C61.2,54.3,61.2,54.4,61.2,54.7L61.2,54.7z M62.2,54.4c0.5,0,0.3-0.6,0.5-0.8l0.2,0.4c0.1-0.1,0.3-0.2,0.3-0.3c0-0.1,0-0.2,0-0.3
		c0-0.1-0.2-0.1-0.2-0.1C62.3,53.5,62.1,53.6,62.2,54.4L62.2,54.4z M57.7,54.2c0-0.3,0.3-0.6-0.3-0.7C57.3,54.2,57.4,54.2,57.7,54.2
		L57.7,54.2z"/>
	<path d="M82,57.5c0.2,0.3,0.3,0.7,0.3,1.1c0,0.1-0.2,0.3-0.3,0.3C82,58.8,82,58.7,82,58.6c0-0.3-0.1-0.4-0.2-0.7
		c-0.1,0.3-0.1,0.5-0.2,0.7c-0.1,0.1-0.1,0.3-0.2,0.3c-0.1-0.1-0.3-0.2-0.3-0.3C81,58.5,81,58.2,81,58.1c0-0.3,0-0.5,0-0.8
		c-0.1,0.2-0.1,0.4-0.2,0.6c-0.1,0.1-0.2,0.2-0.3,0.3c-0.1-0.1-0.2-0.3-0.2-0.3c0-0.2,0-0.4,0-0.6c-0.1,0-0.1,0-0.1,0
		c-0.2,0.2-0.3,0.3-0.5,0.4c-0.1-0.3-0.1-0.4-0.2-0.7c0-0.2,0-0.4,0-0.6h-0.1c0,0.2-0.1,0.3-0.2,0.4c-0.1,0.1-0.1,0.2-0.2,0.3
		c-0.1-0.1-0.2-0.1-0.2-0.2c-0.1-0.3-0.1-0.8-0.2-1.1H79l0.2,0.4c0.1-0.3,0.2-0.5,0.3-0.8c0-0.1,0.2-0.1,0.2-0.2
		c0.1,0.1,0.2,0.2,0.2,0.3c0,0.3,0.1,0.8,0.2,1.1c0.1-0.3,0.2-0.7,0.3-1c0.1-0.2,0.2-0.3,0.3-0.3c0.1,0.2,0.2,0.3,0.2,0.4
		c0,0.3,0,0.5,0,0.7h0.1c0.1-0.3,0.2-0.8,0.3-1.1c0.1-0.2,0.2-0.3,0.3-0.3c0.1,0.2,0.2,0.3,0.2,0.4c0,0.3,0,0.8,0,1.1
		c-0.1,0.2,0,0.4,0.1,0.6C81.7,57.2,81.9,57.4,82,57.5L82,57.5z"/>
	<path d="M71,75.3c-0.1,0.3-0.3,0.4-0.5,0.7c-0.3,0.2-0.5,0.3-0.9,0.3c-0.3,0-0.6,0-0.9-0.2c-0.3-0.1-0.5-0.3-0.7-0.6
		c-0.2-0.3-0.3-0.6-0.3-0.9c0-0.5,0-1-0.4-1.4c-0.5-0.5-0.4-1.3-0.1-2c0.1-0.1,0.3-0.2,0.4-0.3c0,0.2,0,0.3,0,0.4
		c-0.4,1-0.1,1.8,0.9,2.1c0.3,0,0.5,0,0.8-0.1c0.3-0.1,0.3-0.2,0.3-0.5c-0.1-0.3,0-0.6,0.2-0.9c0.2-0.3,0.4-0.5,0.7-0.6
		c-0.1,0.3-0.2,0.6-0.3,1c-0.1,0.2-0.1,0.3-0.1,0.4s0.1,0.3,0.2,0.4c0.1,0.2,0.2,0.3,0.3,0.3c0.2,0.1,0.3,0.2,0.4,0.2
		c0.3,0,0.4,0,0.7-0.1c0.2-0.1,0.4-0.2,0.6-0.3c0.2-0.1,0.3-0.3,0.4-0.4c0,0.4-0.4,0.9-1,1.1c-0.7,0.3-1.3,0.2-1.9-0.5
		c-0.4,0.1-0.9,0.3-1.3,0.3c-0.1,0-0.1,0.1-0.1,0.1s-0.1,0.1-0.1,0.2c-0.1,0.3-0.1,0.6,0.1,0.9c0.1,0.3,0.3,0.5,0.5,0.7
		c0.3,0.2,0.5,0.2,0.9,0.2c0.3-0.1,0.5-0.2,0.8-0.4C70.8,75.4,70.9,75.3,71,75.3L71,75.3z"/>
	<path d="M59.1,72.1c-0.3,0-0.4,0.1-0.6,0.1c-0.3,0-0.5-0.1-0.7,0.3c-0.1,0.2-0.2,0.3-0.2,0.5s0,0.4,0.1,0.6
		c0.2,0.3,0.3,0.4,0.6,0.5c0.3,0.1,0.5,0.1,0.9,0.1c0.2,0,0.3-0.1,0.6-0.1c-0.3,0.6-1.1,0.7-1.8,0.4c-0.9-0.4-1-1.3-0.6-2.4
		c-1.1-1.1-1.3-2.6-0.3-3c0,0.3,0,0.4-0.1,0.7c-0.1,0.3-0.1,0.4-0.1,0.7c0,0.3,0.1,0.4,0.3,0.6c0.2,0.3,0.4,0.4,0.7,0.5
		s0.6,0,0.9-0.1c0.3-0.2,0.4-0.3,0.6-0.4c0,0,0.1,0,0.1-0.1h0.1l0.1,0.1v0.1c0,0.1,0,0.2-0.1,0.3c-0.1,0.2-0.2,0.3-0.1,0.5
		c0,0.2,0.1,0.3,0.2,0.5s0.3,0.3,0.4,0.3c0.2,0.1,0.3,0.1,0.5,0.1c0.2,0,0.3-0.1,0.5-0.1c0.1,0,0.3,0,0.3,0.1
		c-0.1,0.1-0.1,0.3-0.2,0.3c-0.6,0.4-1.6,0.2-2-0.5C59.3,72.6,59.2,72.3,59.1,72.1z"/>
	<path d="M43,81.8c-0.2,0-0.3,0.1-0.5,0.1c-0.8,0.1-1.1,0.3-1.3,0.9c-0.2,0.5,0.1,1,0.7,1.5c0.2,0.2,0.4,0.3,0.7,0.5
		c-1.1,0.2-1.8-0.7-1.8-2.2c-0.7-0.3-1.4-0.6-1.6-1.4c-0.1-0.3-0.1-0.7,0-1c0.1-0.3,0.3-0.5,0.5-0.7c0.3-0.2,0.5-0.2,0.9-0.2
		c-0.5,0.5-1.3,1-1,1.9c0.3,0.6,0.9,0.8,1.4,1l0.8-0.6c-0.4-0.4-0.7-1-0.5-1.6c0.1-0.3,0.3-0.6,0.5-0.8c0.5-0.4,1.2-0.4,1.6,0
		c-0.8,0-1.6,0.1-1.7,1c-0.1,1,0.8,1.3,1.6,1.5L43,81.8z"/>
	<path d="M46.1,68.6c-0.2,0.1-0.3,0.3-0.6,0.3c-0.3,0.1-0.4,0.3-0.6,0.4c-0.1,0.3-0.2,0.4-0.1,0.7c0.2,1,1,1.5,2.1,1.1
		c0.2-0.1,0.4-0.2,0.7-0.3c-0.3,0.7-1.2,1-2,0.6c-1.1-0.4-1.5-1.3-1-2.8c-0.3-0.1-0.6-0.3-0.8-0.5c-0.2-0.3-0.3-0.5-0.3-0.9
		c-0.1-0.3,0-0.5,0.1-0.8c0.1-0.3,0.2-0.4,0.4-0.6c0.1-0.1,0.3-0.1,0.4-0.2c0,0.2,0,0.3,0,0.4c-0.4,0.9-0.4,1.5,0.2,1.8
		c0.3,0.2,0.8,0.2,1.1,0.3c0.2,0,0.3,0,0.4-0.1L46.1,68.6z"/>
	<path d="M64.4,83.7c0,0.6-0.3,0.7-0.7,0.8c-0.6,0.2-1.2,0-1.7-0.7c-0.2,0.1-0.4,0.2-0.7,0.3c-0.3,0-0.5,0-0.7-0.1
		c-0.3-0.1-0.4-0.2-0.6-0.3c-0.2-0.2-0.3-0.3-0.4-0.5c-0.4-0.9-0.3-1.6,0.4-2h-0.3c0-0.1,0-0.2,0-0.2c0.2-0.2,0.3-0.4,0.4-0.3
		c0.3,0.1,0.2,0.3,0.1,0.6C60,81.6,59.8,82,60,82.5c0,0.2,0.1,0.3,0.3,0.5c0.1,0.2,0.3,0.3,0.4,0.3s0.3,0.2,0.5,0.2
		c0.2,0,0.3,0,0.5-0.1c0.1,0,0.1,0,0.2-0.1l0.1-0.1c0,0,0.1-0.1,0.1-0.2c0-0.1,0-0.1,0-0.2c0-0.3,0-0.4,0.1-0.6
		c0.1-0.2,0.2-0.3,0.3-0.5c0.1-0.1,0.3-0.1,0.3-0.2c0,0.1-0.1,0.3-0.1,0.3c-0.3,0.5-0.4,1-0.1,1.5c0.2,0.2,0.3,0.3,0.6,0.4
		c0.3,0.1,0.5,0,0.8-0.1C64,83.8,64.2,83.8,64.4,83.7z"/>
	<path d="M37.3,73.6c0.4-0.8,0.8-1,1.3-0.7c-0.1,0.1-0.3,0.2-0.3,0.3c-0.2,0.1-0.3,0.3-0.4,0.4s-0.1,0.4-0.1,0.6s0.2,0.3,0.3,0.5
		c0.2,0.2,0.3,0.3,0.5,0.3c0.3,0.1,0.6,0.1,0.9,0.2v0.2c-0.3,0.1-0.5,0.2-0.8,0.2c-0.3,0-0.7-0.2-1-0.3s-0.4-0.5-0.5-0.9
		c0-0.1-0.1-0.1-0.1-0.2C36.9,74,36.9,74,36.8,74c-0.3-0.1-0.7-0.3-1-0.6c-0.3-0.3-0.3-0.7-0.4-1c0-0.3,0.1-0.8,0.3-1
		c0.3-0.3,0.5-0.5,1-0.6c0.1,0,0.1-0.1,0.2-0.1c0.2,0.1,0.4,0.1,0.6,0.2c-0.2,0.1-0.3,0.2-0.5,0.3c-0.7,0.2-1.1,0.7-1.1,1.3
		C36.1,73,36.6,73.5,37.3,73.6z"/>
	<path d="M53.2,76.9c-0.1,0.5-0.4,0.7-0.7,0.8c-0.5,0.2-0.6,0.3-0.5,1c0.3,1.1,1.5,1.6,2.5,1l0.3-0.3c-0.2,0.6-1,1-1.6,1
		c-1.1-0.1-1.6-0.9-1.6-2.4c-1-0.5-1.4-1.3-1.1-2.2c0.1-0.2,0.2-0.4,0.3-0.6c0.1-0.1,0.3-0.1,0.3-0.2c0,0.1,0,0.3,0,0.3
		c-0.1,0.2-0.1,0.3-0.2,0.4c-0.2,0.6-0.1,1,0.3,1.3c0.2,0.2,0.4,0.3,0.7,0.3c0.3,0,0.5-0.1,0.8-0.2C52.8,77.2,53,77.1,53.2,76.9z"/>
	<path d="M32.5,75.9c-0.3-0.5-0.3-1,0-1.4c0.2-0.2,0.3-0.3,0.6-0.4c0.3-0.1,0.5-0.1,0.7,0c0.3,0.1,0.4,0.2,0.6,0.4
		c0.1,0,0,0.2,0,0.3c-0.1,0-0.2,0-0.3-0.1c-0.2-0.2-0.3-0.3-0.5-0.3s-0.4,0-0.6,0.2c-0.2,0.1-0.3,0.2-0.3,0.3
		c-0.1,0.2-0.1,0.3,0,0.4c0.1,0.3,0.3,0.4,0.6,0.3c0.3,0,0.4,0,0.7,0.2c0.2,0.2,0.3,0.3,0.3,0.6c-0.2-0.1-0.3-0.1-0.6-0.2
		c-0.3-0.1-0.6-0.1-1,0c-0.6,0.2-0.8,0.7-0.4,1.3c0.2,0.3,0.3,0.7,0.5,1.1c-0.6-0.2-0.9-0.7-1-1.2c-0.1-0.3-0.1-0.6,0-0.9
		C32.1,76.4,32.2,76.1,32.5,75.9z"/>
	<path d="M30.6,73.3c-0.3-0.2-0.4-0.4-0.5-0.7c-0.1-0.3-0.1-0.6,0-0.9c0.2-0.3,0-0.5-0.3-0.6c-0.1,0-0.2,0-0.3,0
		c-0.1,0-0.2,0-0.3,0.1c-0.1,0-0.2,0.1-0.2,0.2C29,71.4,29,71.5,29,71.6s-0.1,0.3-0.1,0.3c-0.1,0-0.2-0.1-0.2-0.1
		c-0.1-0.1-0.1-0.1-0.1-0.2s0-0.2,0-0.3c0-0.1,0-0.2,0.1-0.2c0.3-0.5,0.9-0.7,1.5-0.3c0.3,0.2,0.6,0.2,1,0.3
		c0.3,0.1,0.6,0.3,0.9,0.4c0.1,0,0,0.2,0.1,0.3c-0.1,0-0.2,0-0.3,0c-0.2-0.1-0.3-0.2-0.5-0.3c-0.5-0.2-1,0.1-0.9,0.7
		c0,0.3,0.2,0.6,0.3,0.9C30.7,73,30.7,73.1,30.6,73.3z"/>
	<path d="M47,67.6c0,0.2,0,0.3,0,0.5c0,0.4-0.1,0.9,0.1,1.2c0.3,0.7,1,0.9,1.7,0.7c0.3-0.1,0.4-0.2,0.7-0.3
		c-0.1,0.4-0.6,0.8-1.2,0.8c-0.4,0-0.8-0.1-1.1-0.3c-0.3-0.3-0.5-0.6-0.6-1C46.3,68.5,46.5,67.9,47,67.6z"/>
	<path d="M73.1,43.8c0,0.3-0.1,0.7-0.2,1.1l0.4,0.5l-0.1,0.1c-0.3,0-0.7-0.9-1.1-0.1c0.1,0.2,0.2,0.3,0.3,0.4c0,0.1,0,0.2,0,0.3
		c-0.1,0-0.2,0-0.3-0.1c-0.1,0-0.1-0.1-0.1-0.2c-0.1-0.3-0.3-0.3-0.6-0.2c0,0.3,0.1,0.5,0.2,0.9l-0.2,0.1c-0.1-0.2-0.2-0.3-0.2-0.5
		c0-0.1-0.1-0.2-0.1-0.3s-0.2-0.1-0.3-0.1c-1.3-0.2-2.1-1.1-1.9-2.2c0-0.1,0-0.2,0.1-0.3c0.1-0.1,0.3-0.2,0.3-0.2
		c0.1,0.1,0.3,0.2,0.2,0.3c-0.1,0.3-0.1,0.5,0,0.8c0.1,0.3,0.3,0.5,0.5,0.6c0.3,0.2,0.6,0.3,1,0.4c0.3,0.1,0.7,0,1-0.1
		c0.2-0.1,0.4-0.2,0.5-0.3c0.2-0.2,0.3-0.3,0.3-0.5C73,44.2,73,44,73.1,43.8L73.1,43.8z"/>
	<path d="M54.1,44.2l-0.5,0.5l-0.1-0.1l0.3-0.7l-0.3-0.3c-0.2,0.2-0.3,0.3-0.5,0.3c-0.1,0-0.2,0-0.3,0c0-0.1,0-0.3,0.1-0.3
		c0.6-0.3,0.6-0.7,0.4-1.1c0-0.2,0-0.3,0.1-0.4h0.1c0,0.2,0.1,0.3,0.1,0.4c0.1,0.3,0.2,0.7,0.4,1c0.3,0.3,0.6,0.4,1,0.5
		c0.8,0.2,1.3-0.2,1.6-0.8c0.1-0.1,0.3-0.2,0.3-0.3c0,0.2,0.1,0.3,0,0.4c-0.3,0.6-0.8,1-1.7,1.2c0,0.3-0.1,0.6-0.1,0.9H55
		c-0.1-0.1-0.1-0.3-0.1-0.4c0.1-0.3-0.1-0.6-0.4-0.7C54.3,44.3,54.2,44.2,54.1,44.2z"/>
	<path d="M64.2,53.2c-0.2-0.1-0.3-0.2-0.3-0.3l-0.1-0.1c0,0,0-0.1,0-0.2c0.2-0.5,0-1-0.6-1.1c-0.8-0.2-1.6-0.3-2.4-0.6
		c0.2,0,0.4,0,0.6,0c0.6,0.1,1.2,0.2,1.8,0.3C64.2,51.4,64.5,52.1,64.2,53.2L64.2,53.2z"/>
	<path d="M61.6,52.4c0.3-0.2,0.3-0.3-0.1-0.4s-0.7-0.2-1-0.2c-0.3,0.5-0.4,0.6-1,0.3l0.8-0.1c0-0.3,0.1-0.6,0.1-0.9
		c0.1,0.2,0.1,0.3,0.2,0.5c0.4,0,0.8,0,1.2,0c0.3,0,0.5,0.2,0.4,0.4c0,0.1,0,0.1-0.1,0.2c0,0.1-0.1,0.1-0.2,0.1
		C61.8,52.4,61.8,52.5,61.6,52.4C61.7,52.4,61.6,52.3,61.6,52.4L61.6,52.4z"/>
	<path d="M61.6,52.4L61.6,52.4c-0.1,0-0.2,0.1-0.3,0.2c-0.8,0-1.6,0.1-2.3,0c-0.1,0-0.3-0.2-0.4-0.3c1,0,1.9,0,2.8,0
		C61.5,52.3,61.6,52.3,61.6,52.4z"/>
	<path d="M57.4,52.8c-0.3-0.1-0.4-0.2-0.7-0.3c-0.1-0.1-0.1-0.2-0.1-0.3s0-0.2,0.1-0.3c0.2-0.2,0.4-0.3,0.8-0.3
		c-0.3,0.3-0.7,0.7,0.1,1L57.4,52.8z"/>
	<path d="M59,51.6l-0.3,0.6l-0.3,0.3c-0.1-0.1-0.3-0.1-0.3-0.2c0-0.2,0-0.3,0.1-0.4C58.4,51.6,58.7,51.6,59,51.6z"/>
	<path d="M67.9,29.1c1.2,0,2,0.9,1.6,1.9c-0.3,0.8-1.3,1.1-2.3,0.9c-0.2-0.1-0.3-0.2-0.5-0.3c-0.2-0.1-0.3-0.3-0.3-0.4
		c-0.1-0.2-0.2-0.3-0.2-0.5c0-0.2,0-0.3,0.1-0.5C66.5,29.4,67,29.1,67.9,29.1z"/>
	<path d="M60.9,30.8c0-0.3,0.2-0.7,0.4-1c0.3-0.3,0.6-0.4,1-0.4c0.4,0,0.9,0.3,1.2,0.5c0.3,0.3,0.5,0.8,0.5,1.2c0,0.3-0.2,0.7-0.4,1
		c-0.3,0.3-0.6,0.4-1,0.4c-0.4,0-0.9-0.2-1.1-0.5C61,31.7,60.9,31.2,60.9,30.8z"/>
	<path d="M22.2,74.5c0-0.3,0.2-0.7,0.4-1c0.3-0.3,0.6-0.4,1-0.4c0.4,0,0.9,0.3,1.1,0.5c0.3,0.3,0.5,0.8,0.5,1.2c0,0.3-0.2,0.7-0.4,1
		c-0.3,0.3-0.6,0.4-1,0.3c-0.4,0-0.9-0.3-1.1-0.5C22.3,75.3,22.2,74.9,22.2,74.5z"/>
	<path d="M20.2,67.5c-0.2,0-0.4,0-0.6-0.1c-0.2-0.1-0.3-0.2-0.5-0.3c-0.2-0.2-0.3-0.3-0.3-0.5c-0.1-0.2-0.1-0.3-0.1-0.6
		c0-0.4,0.2-0.8,0.4-1c0.3-0.3,0.7-0.4,1-0.4c0.2,0,0.4,0,0.6,0.1c0.2,0.1,0.3,0.2,0.5,0.3s0.3,0.3,0.3,0.5c0.1,0.2,0.1,0.3,0.1,0.6
		c0,0.2,0,0.4-0.1,0.6c-0.1,0.2-0.2,0.3-0.3,0.5c-0.2,0.2-0.3,0.3-0.5,0.3C20.5,67.5,20.3,67.5,20.2,67.5z"/>
	<path d="M65.7,24.7c1,0,1.6,0.6,1.6,1.5c0,0.3-0.2,0.8-0.5,1c-0.3,0.3-0.7,0.4-1,0.3c-1,0-1.6-0.6-1.6-1.5S64.8,24.7,65.7,24.7z"/>
</g>
</svg>
