<?xml version="1.0" encoding="utf-8"?>
<!-- Generator: Adobe Illustrator 25.0.0, SVG Export Plug-In . SVG Version: 6.00 Build 0)  -->
<svg version="1.1" xmlns="http://www.w3.org/2000/svg" xmlns:xlink="http://www.w3.org/1999/xlink" x="0px" y="0px"
	 viewBox="0 0 86 91" style="enable-background:new 0 0 86 91;" xml:space="preserve">
<style type="text/css">
	.st0{fill:#F4E9E9;}
	.st1{fill:#8EC2D8;}
	.st2{fill:#A06A80;}
	.st3{fill:#E88D4F;}
	.st4{fill:#517583;}
	.st5{fill:#7C81BD;}
	.st6{fill:#FFD265;}
</style>
<g id="Capa_1">
	<rect class="st0" width="85.8" height="90.9"/>
</g>
<g id="Capa_2">
	<path d="M53,27c-3-0.3-6-0.5-9-0.8c-3.3-0.3-6.5-0.7-9.8-1c-2-0.2-4-0.5-5.9-0.7c-0.5-0.1-0.8,0.1-0.9,0.6c-0.2,2-0.5,4-0.7,6
		c-0.2,2-0.5,4-0.6,6c-0.6,9-1.7,17.9-2.7,26.8c-0.4,3.7-0.9,7.4-1.4,11.2c-0.1,1-0.3,1.9-0.6,2.8c-0.1,0.3-0.2,0.5-0.5,0.7
		c-0.4,0.4-0.5,0.8-0.3,1.2c0.6,1.1,0.5,2.3,0,3.5c-0.3,0.6-0.2,1.1,0.5,1.3c0.4,0.1,0.7,0.2,1.1,0.2c1.1,0.1,2.3,0.3,3.4,0.4
		c1.9,0.1,3.6,0.8,5.3,1.2c1.9,0.5,3.9,0.6,5.9,0.8c2.9,0.1,5.8,0.2,8.6,0.6c2.6,0.3,5.1,0.9,7.7,1.4c0.6,0.1,1.3,0.2,1.9,0.3
		c0.7,0.1,1.1-0.1,1.2-0.7c0.3-0.9,0.4-1.8,0.5-2.8c0.3-2.6,0.8-5.2,1.6-7.7c2-7.2,3.1-14.6,3.8-22c0.5-5.3,0.9-10.6,1.2-15.8
		c0.2-3.8,0.3-7.6,0.5-11.5c0-0.6-0.2-0.8-0.7-0.9C59.9,27.6,56.5,27.3,53,27L53,27z M22.7,78.5c0-0.2,0-0.4,0.1-0.7
		c0.3-1.7,0.7-3.4,0.9-5.1c0.5-3.9,0.8-7.8,1.3-11.7c1-8.6,1.9-17.2,2.5-25.9c0.2-2.9,0.5-5.8,0.8-8.7c0-0.4,0.1-0.7,0.6-0.6
		c0.5,0.1,1.1,0,1.6,0.1c1.6,0.2,3.1,0.4,4.7,0.5c3.6,0.4,7.2,0.8,10.7,1.1c4,0.4,8,0.7,12,1c0.6,0.2,0.8,0.4,0.8,0.9
		c0.1,2.9,0.2,5.8,0.2,8.7c0,3.6-0.2,7.2-0.3,10.7c-0.1,3.1-0.2,6.3-0.4,9.4c-0.4,5-1.2,10-2.3,15c-0.6,2.7-1.3,5.3-1.9,8
		c-0.2,0.8-0.5,1.6-0.8,2.4c-1.3-0.4-2.6-0.9-3.8-1.3c-6.1-1.8-12.4-2.2-18.8-2.5C27.9,79.6,25.2,79.2,22.7,78.5z M59.9,28.7
		c0.8,0.1,1.5,0.2,2.2,0.3c1,0.1,1,0.1,0.9,1.1c-0.2,3.7-0.3,7.4-0.6,11.1C62,46.5,61.7,52,61.1,57.4c-0.4,4.2-1.1,8.4-1.9,12.5
		c-0.7,3.6-1.6,7.2-2.4,10.8c-0.2,0.8-0.4,1.6-0.6,2.4l-1.5-0.5c0.1-0.3,0.1-0.5,0.2-0.7c0.3-1.1,0.7-2.3,1-3.4
		c0.7-3.1,1.5-6.2,2-9.3c0.6-3.9,1.1-7.8,1.5-11.7c0.3-2.9,0.3-5.9,0.4-8.9c0.1-5.5,0.2-10.9,0.3-16.4C60.1,31.1,60,30,59.9,28.7z
		 M52.2,87.7c-0.2,0-0.4-0.1-0.6-0.1l-4-0.8c-2.9-0.6-5.9-0.7-8.8-0.8c-3.1,0-6.1-0.2-9-1.2c-1.8-0.6-3.6-0.9-5.4-0.8
		c-0.5,0-1.1,0-1.6-0.1c-0.6-0.1-0.7-0.2-0.6-0.8c0.1-0.4,0.3-0.4,0.6-0.4c1.9,0,3.7-0.1,5.6,0c5,0.4,9.9,1.3,14.8,2.3
		c2.4,0.5,4.7,1,7,1.6c0.7,0.2,1.4,0.3,2.2,0.5C52.3,87.2,52.3,87.4,52.2,87.7L52.2,87.7z M52.5,86.3c-1.6-0.4-3.2-0.7-4.7-1.1
		c-1.7-0.4-3.5-0.9-5.2-1.2c-3.1-0.6-6.2-1.1-9.3-1.5c-2.5-0.3-5.1-0.5-7.7-0.7c-1-0.1-2.1,0-3.1,0c-0.1-0.4,0.1-0.5,0.4-0.5
		c1.1,0.1,2.2,0.1,3.3,0.2c3.2,0.3,6.3,0.6,9.5,0.9c4.5,0.5,9,0.8,13.4,2c1.2,0.3,2.5,0.7,3.7,1.1C52.6,85.9,52.5,86.1,52.5,86.3
		L52.5,86.3z M22.2,79.8c0.3,0,0.6,0,0.9,0.1c2.7,0.8,5.6,1,8.4,1.1c5.6,0.3,11.1,0.7,16.5,2.1c1.5,0.4,2.9,0.9,4.4,1.3
		c0.3,0.1,0.6,0.2,0.3,0.6c-0.7-0.2-1.4-0.4-2.1-0.6c-1.9-0.5-3.9-1.1-5.9-1.4c-5-0.6-10.1-1.2-15.2-1.7c-2.1-0.2-4.3-0.4-6.4-0.5
		C22.2,80.7,22.2,80.8,22.2,79.8L22.2,79.8z M53.4,87.8c0.2-1,0.3-2,0.5-2.9c0.2-1.2,0.4-1.3,1.5-0.8c0.1,0,0.2,0.1,0.3,0.1
		c0.1,0.1,0.3,0.3,0.3,0.4c-0.1,1.1-0.3,2.1-0.5,3.2c0,0.1-0.1,0.1-0.2,0.2s-0.1,0.1-0.2,0.1C54.6,88,54,87.9,53.4,87.8L53.4,87.8z"
		/>
	<path class="st1" d="M22.7,78.5c2.6,0.7,5.2,1.1,7.8,1.2c6.3,0.3,12.6,0.7,18.8,2.5c1.3,0.4,2.5,0.8,3.8,1.3
		c0.3-0.8,0.6-1.6,0.8-2.4c0.7-2.6,1.3-5.3,1.9-8c1.1-4.9,1.9-9.9,2.3-15c0.3-3.1,0.3-6.3,0.4-9.4c0.1-3.6,0.3-7.2,0.3-10.7
		c0-2.9-0.1-5.8-0.2-8.7c0-0.5-0.2-0.8-0.8-0.8c-4-0.3-8-0.7-12-1c-3.6-0.3-7.2-0.7-10.7-1.1c-1.6-0.2-3.1-0.4-4.7-0.5
		c-0.5-0.1-1.1,0-1.6-0.1s-0.6,0.2-0.6,0.6c-0.3,2.9-0.6,5.8-0.8,8.7C26.8,43.7,26,52.4,24.9,61c-0.5,3.9-0.8,7.8-1.3,11.7
		c-0.2,1.7-0.6,3.4-0.9,5.1C22.7,78.1,22.7,78.3,22.7,78.5z M43.8,51c0,0.1,0,0.1,0,0.2c-2.2-0.4-4.5-0.8-6.7-1.1
		c-0.8-0.1-1.6-0.3-2.4-0.5c-0.2-0.1-0.4-0.4-0.5-0.6c0-0.1,0-0.2,0-0.2c0-0.1,0.1-0.1,0.1-0.2c0-0.1,0.1-0.1,0.2-0.1
		c0.1,0,0.1,0,0.2,0c0.2,0,0.5,0,0.7,0c2.3,0.4,4.5,0.8,6.8,1.2c1.9,0.3,3.8,0.6,5.7,0.9c0.6,0.1,1.2,0.3,1.7,0.6
		c0.1,0,0.1,0.1,0.2,0.1c0.1,0.1,0.1,0.1,0.1,0.2c0,0.1,0,0.2,0,0.2c0,0.1,0,0.2-0.1,0.2c-0.1,0.1-0.2,0.2-0.3,0.2s-0.3,0.1-0.4,0.1
		C47.4,51.7,45.6,51.3,43.8,51z M34.4,55.8L34.4,55.8l-1-0.2c-1.4-0.2-2.7-0.3-4.1-0.5c-0.4-0.1-0.8-0.3-0.7-0.8
		c0.1-0.5,0.5-0.6,0.9-0.5c2.2,0.3,4.4,0.6,6.7,0.9c1.1,0.2,2.3,0.5,3.4,0.7c0.1,0,0.2,0,0.2,0.1c0.1,0,0.1,0.1,0.2,0.2
		c0,0.1,0.1,0.1,0.1,0.2c0,0.1,0,0.2,0,0.2c-0.1,0.4-0.3,0.5-0.7,0.5c-0.2,0-0.4,0-0.6-0.1L34.4,55.8z M49.2,58.2L49.2,58.2
		c-0.9-0.1-1.9-0.3-2.8-0.4c-0.1,0-0.2,0-0.2-0.1c-0.1,0-0.1-0.1-0.2-0.2c0-0.1-0.1-0.1-0.1-0.2c0-0.1,0-0.2,0-0.2
		c0-0.1,0-0.2,0.1-0.2s0.1-0.1,0.1-0.2c0.1-0.1,0.1-0.1,0.2-0.1c0.1,0,0.2,0,0.2,0c0.1,0,0.2,0,0.3,0c1.7,0.3,3.4,0.6,5.1,0.9
		c0.4,0.1,0.7,0.3,0.6,0.7c-0.1,0.5-0.5,0.5-0.9,0.5L49.2,58.2z M39.2,31.8c0.9-0.4,3.8-0.1,4.3,0.4C42.9,32.5,39.5,32.2,39.2,31.8z
		 M58,30.6c-0.3,0.1-0.3,0.1-0.4,0.1c-1.1-0.2-2.2-0.5-3.4-0.7c-0.1,0-0.2-0.2-0.3-0.3c0.1-0.1,0.3-0.2,0.4-0.2c1,0.2,2,0.4,3.1,0.7
		C57.6,30.3,57.7,30.4,58,30.6z M55.7,33.2L55.7,33.2c-0.8-0.2-1.5-0.3-2.3-0.5c-0.1,0-0.2-0.2-0.3-0.3c0.2-0.1,0.3-0.2,0.5-0.2
		c0.3,0,0.5,0.1,0.8,0.2c0.7,0.2,1.3,0.3,2,0.5c0.2,0,0.3,0.3,0.5,0.4c-0.2,0.1-0.4,0.1-0.5,0.1C56.1,33.2,55.9,33.2,55.7,33.2z
		 M52,35.8v-0.2c0.1,0,0.2,0,0.3,0c1.1,0.1,2.2,0.2,3.3,0.4c0.1,0,0.3,0.2,0.4,0.3c-0.2,0-0.3,0.1-0.5,0.1c-1-0.1-2-0.2-3-0.4
		C52.3,36,52.2,35.9,52,35.8z M51.1,32.5c-0.7,0.3-3.3-0.2-3.6-0.7C48.2,31.6,50.7,32,51.1,32.5z M48.5,29.5
		c0.1-0.1,0.1-0.1,0.1-0.1c1.1,0.1,2.3,0.2,3.4,0.4c0.1,0,0.2,0.2,0.4,0.5c-1.3-0.2-2.4-0.3-3.6-0.4C48.7,29.8,48.6,29.6,48.5,29.5z
		 M36.2,28.6c0.7-0.3,3,0.1,3.3,0.6C38.9,29.4,36.5,29.1,36.2,28.6z M34.4,34.8l-3.1-0.4c0.3-0.4,1.3-0.5,2.6-0.2
		C34.2,34.3,34.5,34.3,34.4,34.8L34.4,34.8z M48.3,80.5c0,0.1,0,0.1-0.1,0.2c-0.9-0.1-1.8-0.2-2.7-0.3c-0.2,0-0.3-0.2-0.4-0.3
		c0.2-0.1,0.3-0.3,0.5-0.2c0.8,0.1,1.6,0.3,2.4,0.4C48.1,80.3,48.2,80.4,48.3,80.5z M33.4,28.3c-0.4,0.3-2.6,0.3-2.9,0.1
		c-0.1-0.1-0.1-0.1-0.1-0.2c0.1-0.1,0.2-0.2,0.3-0.2c0.6,0,1.2,0,1.8,0C32.8,28.1,33.1,28.2,33.4,28.3z M34.1,78.4l0.1-0.2
		c1,0.1,1.9,0.2,2.9,0.3c0.1,0,0.1,0.2,0.2,0.3C37.2,78.9,37.1,79,37,79c-0.8-0.1-1.7-0.2-2.5-0.3C34.3,78.6,34.2,78.5,34.1,78.4z
		 M45.9,34.9c0.7-0.3,2.8,0.1,2.9,0.5C47.9,35.7,46.1,35.4,45.9,34.9z M39.7,35.1L39.7,35.1c-0.4-0.1-0.9-0.2-1.3-0.3
		c-0.1,0-0.2-0.2-0.3-0.3c0.1-0.1,0.3-0.2,0.4-0.2c0.4,0,0.8,0.1,1.2,0.1c0.4,0.1,0.8,0.1,1.2,0.3c0.1,0,0.2,0.2,0.2,0.3
		c-0.1,0-0.3,0.1-0.4,0.1C40.4,35.2,40,35.1,39.7,35.1L39.7,35.1z M28.7,75.4c0.4-0.3,2.3-0.2,2.6,0.1c0,0,0,0.1,0.1,0.1v0.1
		l-0.1,0.1h-0.1c-0.7-0.1-1.4-0.2-2.1-0.3C28.9,75.6,28.8,75.4,28.7,75.4L28.7,75.4z M51,79.1L51,79.1c-0.2,0-0.5,0-0.7-0.1
		c-0.1,0-0.2-0.2-0.3-0.3c0.1-0.1,0.2-0.2,0.3-0.2c0.6,0.1,1.3,0.2,1.9,0.3c0.1,0,0.2,0.2,0.2,0.3c-0.1,0.1-0.2,0.2-0.4,0.2
		C51.7,79.3,51.4,79.2,51,79.1z M34.1,76.5L34,76.3c0.1-0.1,0.3-0.2,0.4-0.2c0.8,0.2,1.7-0.1,2.4,0.5v0.2L34.1,76.5z M42.8,79.6
		c0,0.1,0,0.1-0.1,0.2c-0.8,0.1-1.6-0.2-2.4-0.4l-0.1-0.2c0.1-0.1,0.2-0.2,0.3-0.2c0.6,0.1,1.1,0.1,1.7,0.2
		C42.4,79.4,42.6,79.5,42.8,79.6L42.8,79.6z M39,73.9l0.1-0.3c0.8,0.2,1.5,0.3,2.3,0.5c0.1,0,0.1,0.2,0.2,0.3
		c-0.1,0-0.2,0.1-0.3,0.1c-0.6-0.1-1.2-0.2-1.9-0.4C39.2,74.2,39.1,74,39,73.9L39,73.9z M52.4,81.6c-0.6,0.1-2.4-0.2-2.6-0.5
		C50.6,80.8,52.2,81.1,52.4,81.6L52.4,81.6z M43.4,29.7c0-0.1,0-0.2,0.1-0.2c0.8,0.1,1.6,0.1,2.4,0.2c0.1,0,0.1,0.2,0.2,0.3
		c-0.1,0.1-0.2,0.2-0.3,0.1c-0.6,0-1.3-0.1-1.9-0.2C43.7,29.9,43.5,29.8,43.4,29.7z M41.8,77.4L41.8,77.4h-1.9c-0.1,0-0.1,0-0.2,0
		c-0.1-0.1-0.3-0.2-0.4-0.3c0.1-0.1,0.3-0.2,0.4-0.2c0.6,0,1.2,0.1,1.8,0.2C41.6,77.1,41.7,77.3,41.8,77.4z M27.2,77.6
		c-0.4,0.3-1.9,0.2-2.2,0l-0.1-0.1c0,0,0-0.1,0-0.2l0.1-0.1h0.1c0.6,0.1,1.2,0.1,1.7,0.2C27,77.4,27.1,77.5,27.2,77.6z M32.7,31.3
		v0.3c-0.7,0-1.4,0-2.1,0c-0.1,0-0.2-0.1-0.3-0.2c0.1-0.1,0.2-0.2,0.3-0.2c0.5,0,1,0,1.5,0C32.3,31.2,32.5,31.2,32.7,31.3z
		 M37.1,31.7c-0.8,0.2-1.5,0.2-2.3,0c-0.1,0-0.1-0.1-0.1-0.2c0-0.1,0.1-0.2,0.1-0.2C35.6,31.2,36.4,31.3,37.1,31.7L37.1,31.7z
		 M29.9,77.8c0.6-0.3,2-0.2,2.3,0.2l0.1,0.1c0,0.1,0,0.1,0,0.2l-0.1,0.1c-0.1,0-0.1,0-0.2,0c-0.4-0.1-0.9-0.1-1.3-0.3
		C30.4,78,30.1,77.9,29.9,77.8z M34.3,72.7L34.3,72.7c0.3,0,0.7,0.1,1,0.2l0.1,0.1c0,0,0,0.1,0.1,0.1c0,0,0,0.1-0.1,0.1l-0.1,0.1
		c-0.6-0.1-1.2-0.2-1.9-0.3c-0.1,0-0.1-0.2-0.1-0.3l0.1-0.1c0,0,0.1,0,0.1-0.1C33.8,72.7,34.1,72.7,34.3,72.7L34.3,72.7z M50.5,76.6
		l0.1-0.4c0.7,0.1,1.4,0.3,2,0.4l0.1,0.1v0.1c0,0.1-0.2,0.2-0.2,0.2C51.9,76.9,51.2,76.7,50.5,76.6L50.5,76.6z M44.9,75.4
		c0.4-0.3,1.6-0.4,1.9-0.1c0.1,0.1,0,0.4,0,0.4C46.2,75.8,45.5,75.7,44.9,75.4L44.9,75.4z M24.6,75.2V75c0.4-0.3,1.3-0.3,1.6-0.1
		c0.1,0.1,0.1,0.2,0.2,0.3c0,0-0.1,0.1-0.2,0.1C25.7,75.3,25.2,75.3,24.6,75.2L24.6,75.2z M45.1,78.1c0.4-0.5,1.6-0.4,2.2,0.2
		C46.5,78.5,45.9,78.2,45.1,78.1z M30.3,72.6C30.1,72.8,30.1,73,30,73c-0.5,0-1.1-0.1-1.6-0.2l-0.1-0.2l0.1-0.1h0.1
		C29.1,72.4,29.6,72.5,30.3,72.6z M25.9,73.2l-0.4-0.4c0.3-0.1,0.5-0.2,0.8-0.3c0.1,0,0.3,0.2,0.4,0.3L25.9,73.2z"/>
	<path class="st2" d="M59.9,28.7c0.1,1.3,0.3,2.4,0.2,3.6c-0.1,5.5-0.2,10.9-0.3,16.4c-0.1,3-0.1,5.9-0.4,8.9
		c-0.4,3.9-0.9,7.8-1.5,11.7c-0.5,3.1-1.3,6.2-2,9.3c-0.3,1.2-0.7,2.3-1,3.4c-0.1,0.2-0.1,0.4-0.2,0.7l1.5,0.5
		c0.2-0.8,0.4-1.6,0.6-2.4c0.8-3.6,1.8-7.2,2.4-10.8c0.8-4.1,1.4-8.3,1.9-12.5c0.6-5.4,0.9-10.9,1.3-16.3c0.3-3.7,0.4-7.4,0.6-11.1
		c0.1-1,0.1-1-0.9-1.1C61.4,28.8,60.7,28.8,59.9,28.7z M61,36.1l0.5-0.4c0.1,0.1,0.2,0.3,0.2,0.4c-0.1,0.2-0.2,0.3-0.4,0.5L61,36.1z
		 M59.2,64.6c0.1,0.2,0.2,0.4,0.2,0.6c0,0.1-0.2,0.2-0.3,0.3c-0.1-0.1-0.2-0.2-0.3-0.4C58.9,65,59,64.9,59.2,64.6L59.2,64.6z
		 M59.3,66.7l0.3,0.2c-0.1,0.2-0.3,0.3-0.4,0.5c0,0-0.2-0.1-0.3-0.1L59.3,66.7z"/>
	<path class="st3" d="M52.2,87.7c0.1-0.3,0.1-0.5,0.1-0.8c-0.7-0.2-1.5-0.3-2.2-0.5c-2.3-0.5-4.7-1.1-7-1.6
		c-4.9-0.9-9.8-1.9-14.8-2.3c-1.9-0.1-3.7,0-5.6,0c-0.3,0-0.5,0.1-0.6,0.4c-0.1,0.6-0.1,0.7,0.6,0.8c0.5,0.1,1,0.1,1.6,0.1
		c1.9-0.1,3.7,0.2,5.4,0.8c2.9,1,5.9,1.2,9,1.2c3,0,5.9,0.2,8.8,0.8l4,0.8C51.8,87.6,52,87.6,52.2,87.7z"/>
	<path class="st3" d="M52.5,86.3c0-0.2,0.1-0.4,0.1-0.7c-1.3-0.4-2.5-0.8-3.7-1.1c-4.4-1.2-8.9-1.6-13.4-2c-3.2-0.3-6.3-0.6-9.5-0.9
		c-1.1-0.1-2.2-0.2-3.3-0.2c-0.3,0-0.5,0.1-0.4,0.5c1,0,2.1-0.1,3.1,0c2.6,0.2,5.1,0.4,7.7,0.7c3.1,0.4,6.2,1,9.3,1.5
		c1.8,0.3,3.5,0.8,5.2,1.2C49.3,85.6,50.8,86,52.5,86.3z"/>
	<path class="st3" d="M22.2,79.8c0,1,0,1,0.8,1c2.1,0.1,4.3,0.3,6.4,0.5c5.1,0.5,10.2,1.1,15.3,1.8c2,0.3,3.9,0.9,5.9,1.4
		c0.7,0.2,1.4,0.4,2.1,0.6c0.3-0.4,0-0.5-0.3-0.6c-1.5-0.4-2.9-0.9-4.4-1.3c-5.4-1.4-10.9-1.8-16.5-2.1c-2.8-0.2-5.6-0.3-8.4-1.1
		C22.8,79.8,22.5,79.8,22.2,79.8z"/>
	<path class="st2" d="M53.4,87.8c0.6,0.1,1.2,0.2,1.7,0.3c0.1,0,0.2-0.1,0.2-0.1s0.1-0.1,0.2-0.2c0.2-1.1,0.3-2.1,0.5-3.2
		c0-0.1-0.1-0.3-0.3-0.4c-0.1-0.1-0.2-0.1-0.3-0.1c-1.1-0.4-1.3-0.4-1.5,0.8C53.8,85.8,53.6,86.8,53.4,87.8z"/>
	<path class="st1" d="M43.8,51c1.8,0.3,3.5,0.7,5.3,1c0.1,0,0.3,0,0.4-0.1c0.1,0,0.2-0.1,0.3-0.2c0-0.1,0.1-0.1,0.1-0.2
		c0-0.1,0-0.2,0-0.2c0-0.1-0.1-0.1-0.1-0.2C49.7,51,49.7,51,49.6,51c-0.5-0.2-1.1-0.4-1.7-0.6c-1.9-0.3-3.8-0.6-5.7-0.9
		c-2.3-0.4-4.5-0.8-6.8-1.2c-0.2,0-0.5,0-0.7,0c-0.1,0-0.2,0-0.2,0c-0.1,0-0.1,0.1-0.2,0.1c0,0.1-0.1,0.1-0.1,0.2c0,0.1,0,0.2,0,0.2
		c0.1,0.3,0.3,0.6,0.5,0.6c0.8,0.2,1.6,0.3,2.4,0.5C39.3,50.3,41.6,50.7,43.8,51C43.8,51.1,43.8,51,43.8,51z"/>
	<path class="st1" d="M34.4,55.8l4.3,0.7c0.2,0,0.4,0.1,0.6,0.1c0.4,0.1,0.6-0.1,0.7-0.5c0-0.1,0-0.2,0-0.2c0-0.1,0-0.2-0.1-0.2
		c0-0.1-0.1-0.1-0.2-0.2c-0.1,0-0.2-0.1-0.2-0.1c-1.1-0.3-2.2-0.5-3.4-0.7c-2.2-0.3-4.4-0.6-6.7-0.9c-0.4-0.1-0.8,0-0.9,0.5
		c-0.1,0.6,0.3,0.7,0.7,0.8c1.4,0.2,2.7,0.4,4.1,0.5L34.4,55.8L34.4,55.8z"/>
	<path class="st1" d="M49.2,58.2l2.4,0.4c0.4,0.1,0.8,0,0.9-0.5c0.1-0.5-0.2-0.7-0.6-0.7c-1.7-0.3-3.4-0.6-5.1-0.9
		c-0.1,0-0.2,0-0.3,0s-0.2,0-0.2,0c-0.1,0-0.1,0.1-0.2,0.1C46,56.7,46,56.7,46,56.8c0,0.1-0.1,0.2-0.1,0.2c0,0.1,0,0.2,0,0.2
		c0,0.1,0.1,0.2,0.1,0.2c0,0.1,0.1,0.1,0.2,0.2c0.1,0,0.2,0.1,0.2,0.1C47.4,57.9,48.3,58.1,49.2,58.2L49.2,58.2z"/>
	<path class="st1" d="M39.2,31.8c0.3,0.4,3.6,0.6,4.3,0.4C43,31.7,40.1,31.4,39.2,31.8z"/>
	<path class="st1" d="M58,30.6c-0.3-0.2-0.4-0.3-0.6-0.4c-1-0.2-2-0.5-3.1-0.7c-0.1,0-0.3,0.1-0.4,0.2c0.1,0.1,0.2,0.3,0.3,0.3
		c1.1,0.3,2.2,0.5,3.4,0.7C57.6,30.8,57.7,30.7,58,30.6z"/>
	<path class="st1" d="M55.7,33.2c0.2,0,0.3,0.1,0.5,0.1s0.4-0.1,0.5-0.1c-0.2-0.1-0.3-0.3-0.5-0.4c-0.6-0.2-1.3-0.3-2-0.5
		c-0.2-0.1-0.5-0.1-0.8-0.2c-0.2,0-0.3,0.1-0.5,0.2c0.1,0.1,0.2,0.3,0.3,0.3C54.2,32.8,54.9,33,55.7,33.2L55.7,33.2z"/>
	<path class="st1" d="M52,35.8c0.2,0.1,0.4,0.2,0.6,0.3c1,0.1,2,0.3,3,0.4c0.1,0,0.3-0.1,0.5-0.2C56,36.2,55.8,36,55.7,36
		c-1.1-0.1-2.2-0.3-3.3-0.4c-0.1,0-0.2,0-0.3,0L52,35.8z"/>
	<path class="st1" d="M51.1,32.5c-0.5-0.5-2.9-0.9-3.6-0.7C47.8,32.3,50.5,32.8,51.1,32.5z"/>
	<path class="st1" d="M48.5,29.5c0.1,0.1,0.3,0.3,0.4,0.3c1.1,0.2,2.2,0.3,3.6,0.4c-0.2-0.3-0.3-0.5-0.4-0.5
		c-1.2-0.1-2.3-0.2-3.4-0.3C48.6,29.4,48.6,29.4,48.5,29.5z"/>
	<path class="st1" d="M36.2,28.6c0.3,0.4,2.6,0.8,3.3,0.6C39.2,28.7,37,28.3,36.2,28.6z"/>
	<path class="st1" d="M34.4,34.8c0.1-0.4-0.1-0.5-0.4-0.6c-1.3-0.3-2.4-0.2-2.6,0.2L34.4,34.8z"/>
	<path class="st1" d="M48.3,80.5c-0.1-0.1-0.2-0.2-0.4-0.2c-0.8-0.2-1.6-0.3-2.4-0.4c-0.2,0-0.3,0.1-0.5,0.2
		c0.1,0.1,0.3,0.3,0.4,0.3c0.9,0.1,1.8,0.2,2.7,0.3C48.3,80.6,48.3,80.5,48.3,80.5z"/>
	<path class="st1" d="M33.4,28.3c-0.3-0.1-0.6-0.2-1-0.3c-0.6,0-1.2-0.1-1.8,0c-0.1,0-0.2,0.1-0.3,0.2c0,0.1,0.1,0.2,0.1,0.2
		C30.8,28.6,33,28.6,33.4,28.3z"/>
	<path class="st1" d="M34.1,78.4c0.1,0.1,0.2,0.2,0.3,0.2c0.8,0.1,1.7,0.2,2.5,0.3c0.1,0,0.2-0.1,0.3-0.2c-0.1-0.1-0.1-0.3-0.2-0.3
		c-1-0.1-1.9-0.2-2.9-0.3V78.4z"/>
	<path class="st1" d="M45.9,34.9c0.2,0.5,2,0.8,2.9,0.5C48.7,35,46.6,34.6,45.9,34.9z"/>
	<path class="st1" d="M39.7,35.1c0.4,0,0.7,0.1,1.1,0.1c0.1,0,0.3-0.1,0.4-0.1c-0.1-0.1-0.1-0.3-0.2-0.3c-0.4-0.1-0.8-0.2-1.2-0.3
		c-0.5-0.1-1-0.1-1.4-0.1c-0.1,0-0.3,0.1-0.4,0.2c0.1,0.1,0.2,0.2,0.3,0.3C38.8,34.9,39.2,35,39.7,35.1L39.7,35.1z"/>
	<path class="st1" d="M28.7,75.4c0.1,0.1,0.2,0.2,0.3,0.2c0.7,0.1,1.4,0.2,2.1,0.3c0.1,0,0.1,0,0.1,0l0.1-0.1v-0.1
		c0,0,0-0.1-0.1-0.1C31,75.2,29,75.1,28.7,75.4z"/>
	<path class="st1" d="M51,79.1c0.4,0.1,0.7,0.2,1.1,0.2c0.1,0,0.2-0.1,0.4-0.2c-0.1-0.1-0.1-0.3-0.2-0.3c-0.6-0.1-1.3-0.2-1.9-0.3
		c-0.1,0-0.2,0.1-0.3,0.2c0.1,0.1,0.2,0.2,0.3,0.3C50.5,79.1,50.8,79.1,51,79.1L51,79.1z"/>
	<path class="st1" d="M34.1,76.5l2.6,0.3v-0.2c-0.7-0.5-1.6-0.3-2.4-0.5c-0.1,0-0.3,0.1-0.4,0.2L34.1,76.5z"/>
	<path class="st1" d="M42.8,79.6c-0.2-0.1-0.4-0.2-0.6-0.3c-0.5-0.1-1.1-0.2-1.7-0.2c-0.1,0-0.2,0.1-0.3,0.2c0,0,0,0.2,0.1,0.2
		c0.8,0.2,1.6,0.5,2.4,0.4C42.8,79.7,42.8,79.7,42.8,79.6z"/>
	<path class="st1" d="M39,74c0.1,0.1,0.2,0.2,0.3,0.3c0.6,0.1,1.2,0.3,1.9,0.4c0.1,0,0.2-0.1,0.3-0.1c0-0.1-0.1-0.3-0.1-0.3
		c-0.7-0.2-1.5-0.3-2.3-0.5L39,74z"/>
	<path class="st1" d="M52.4,81.6c-0.2-0.5-1.9-0.8-2.6-0.5C50.1,81.4,51.8,81.7,52.4,81.6z"/>
	<path class="st1" d="M43.4,29.7c0.1,0.1,0.2,0.2,0.4,0.2c0.6,0.1,1.3,0.1,1.9,0.2c0.1,0,0.2-0.1,0.3-0.1c-0.1-0.1-0.1-0.3-0.2-0.3
		c-0.8-0.1-1.6-0.1-2.4-0.2C43.5,29.6,43.4,29.7,43.4,29.7z"/>
	<path class="st1" d="M41.8,77.4c-0.1-0.1-0.2-0.3-0.4-0.3c-0.6-0.1-1.2-0.1-1.8-0.2c-0.1,0-0.3,0.1-0.4,0.2
		c0.1,0.1,0.3,0.2,0.4,0.3c0.1,0,0.1,0,0.2,0l1.8,0.1L41.8,77.4z"/>
	<path class="st1" d="M27.2,77.6c-0.1-0.1-0.2-0.2-0.3-0.3c-0.6-0.1-1.2-0.2-1.7-0.2c-0.1,0-0.1,0-0.1,0L25,77.2c0,0.1,0,0.1,0,0.2
		c0,0,0,0.1,0.1,0.1C25.3,77.8,26.9,77.9,27.2,77.6z"/>
	<path class="st1" d="M32.7,31.3c-0.2-0.1-0.4-0.1-0.6-0.2c-0.5,0-1,0-1.5,0c-0.1,0-0.2,0.2-0.3,0.2c0.1,0.1,0.2,0.2,0.3,0.2
		c0.7,0,1.4,0,2.1,0V31.3z"/>
	<path class="st1" d="M37.1,31.7c-0.7-0.3-1.5-0.5-2.3-0.4c0-0.1-0.1,0.1-0.1,0.1c0,0.1,0.1,0.2,0.1,0.2
		C35.6,31.9,36.4,31.9,37.1,31.7z"/>
	<path class="st1" d="M29.9,77.8c0.3,0.1,0.6,0.2,0.8,0.3c0.4,0.1,0.8,0.2,1.3,0.3c0.1,0,0.1,0,0.2,0c0,0,0.1,0,0.1-0.1s0-0.1,0-0.2
		c0-0.1,0-0.1-0.1-0.1C31.9,77.6,30.5,77.5,29.9,77.8z"/>
	<path class="st1" d="M34.3,72.7c-0.3,0-0.6-0.1-0.8-0.1c0,0-0.1,0-0.1,0.1s-0.1,0.1-0.1,0.1c0,0.1,0.1,0.3,0.1,0.3
		c0.6,0.1,1.2,0.2,1.9,0.3c0,0,0.1,0,0.1-0.1l0.1-0.1c0-0.1,0-0.1-0.1-0.1c-0.1,0-0.1-0.1-0.1-0.1C35,72.8,34.7,72.8,34.3,72.7
		L34.3,72.7z"/>
	<path class="st1" d="M50.5,76.6c0.7,0.2,1.4,0.3,2.1,0.5c0.1,0,0.2-0.1,0.2-0.2s0-0.1,0-0.1l-0.1-0.1c-0.7-0.2-1.4-0.3-2-0.4
		C50.6,76.3,50.5,76.5,50.5,76.6z"/>
	<path class="st1" d="M45,75.4c0.6,0.2,1.2,0.3,1.9,0.3c0,0,0.1-0.3,0-0.4C46.6,75.1,45.4,75.1,45,75.4z"/>
	<path class="st1" d="M24.6,75.2c0.5,0.1,1,0.1,1.6,0.2c0.1,0,0.2-0.1,0.2-0.1c0-0.1-0.1-0.2-0.2-0.3C25.9,74.8,25,74.8,24.6,75.2
		L24.6,75.2z"/>
	<path class="st1" d="M45.2,78.1c0.8,0.1,1.4,0.4,2.2,0.2C46.8,77.7,45.5,77.6,45.2,78.1z"/>
	<path class="st1" d="M30.3,72.6c-0.7-0.1-1.2-0.2-1.7-0.2c-0.1,0-0.1,0-0.1,0l-0.1,0.1l0.1,0.2c0.5,0.1,1.1,0.1,1.6,0.2
		C30.1,73,30.1,72.8,30.3,72.6z"/>
	<path class="st1" d="M25.9,73.2l0.8-0.4c-0.1-0.1-0.3-0.3-0.4-0.3c-0.3,0.1-0.5,0.2-0.8,0.3L25.9,73.2z"/>
	<path class="st4" d="M61,36.1l0.3,0.4c0.1-0.1,0.3-0.3,0.4-0.5c0-0.1-0.1-0.3-0.2-0.4L61,36.1z"/>
	<path class="st4" d="M59.2,64.6c-0.2,0.3-0.3,0.4-0.3,0.5s0.2,0.3,0.3,0.4c0.1-0.1,0.3-0.2,0.3-0.3C59.4,65,59.3,64.8,59.2,64.6z"
		/>
	<path class="st4" d="M59.3,66.7l-0.4,0.5c0.1,0.1,0.2,0.2,0.3,0.1c0.1-0.2,0.3-0.3,0.4-0.5L59.3,66.7z"/>
	<path d="M48.7,53.7c-0.1,0-0.2-0.1-0.3-0.2c-0.1-0.1-0.2-0.1-0.3-0.2c-0.3-0.1-0.6-0.2-0.8-0.3c-0.5-0.2-1-0.4-1.5-0.5
		c-0.4-0.1-0.8-0.3-1.2-0.5c0,0,0,0-0.1,0s-0.1,0-0.1-0.1c-0.1-0.2-0.1-0.4-0.2-0.5c-0.1-0.3-0.2-0.5-0.4-0.7L43.5,50l0,0
		c-0.1-0.2-0.1-0.2-0.4-0.3H43c0,0-0.1,0-0.1,0.1c-0.1,0.1-0.3,0.2-0.4,0.3l-0.8,0.5l-0.8,0.7l0,0c0,0,0,0-0.1,0
		c-0.3,0-0.5-0.1-0.7-0.1c-0.7-0.1-1.3-0.2-2-0.2c-0.4,0-0.9-0.1-1.3-0.1c-0.3,0-0.6,0-1,0l0,0h-0.1c0,0-0.1,0.1-0.1,0.2l0,0l0,0
		c0,0,0,0.1,0.1,0.1c0.1,0.4,0.2,0.9,0.3,1.3c0.2,0.7,0.4,1.4,0.6,2.1v0.1v0.1v0.1c0,0,0,0.1,0.1,0.1c0,0,0,0,0.1,0.1h0.1H37
		c0.3,0.2,0.6,0.3,0.9,0.5c0.3,0.1,0.7,0.3,1.1,0.4c0.4,0.2,0.8,0.3,1.2,0.5c0.4,0.1,0.7,0.2,1.1,0.4c0.2,0,0.3,0.1,0.5,0.1
		c0.5,0,1,0.1,1.5,0.1c0.3,0,0.6,0,0.8,0c0.3,0,0.6,0.1,1,0.1c0.3,0,0.5,0.1,0.7,0.1c0.1,0,0.2,0,0.3,0.1c0,0,0,0,0.1,0
		c0,0,0,0,0.1,0c0,0,0,0,0-0.1c0,0,0,0,0-0.1l0,0l0,0c0.1-0.2,0.3-0.4,0.4-0.6l1.7-2.3C48.5,53.9,48.6,53.8,48.7,53.7z M35.9,51.3
		L35.9,51.3l1,0.7c0.7,0.5,1.5,1,2.3,1.4c0.1,0.1,0.3,0.1,0.4,0.2c0.2,0.1,0.3,0.2,0.5,0.3c0.6,0.3,1.2,0.7,1.7,1.2l0,0l0,0l0,0l0,0
		c0,0.3-0.1,0.5-0.1,0.7c-0.1,0.2-0.2,0.4-0.3,0.7c0,0,0,0-0.1,0c-0.3-0.1-0.6-0.2-0.9-0.3c-0.4-0.2-0.8-0.3-1.2-0.5
		c-0.3-0.1-0.7-0.3-1-0.4c-0.4-0.2-0.7-0.4-1.1-0.6c0,0,0,0,0-0.1c-0.2-0.5-0.3-1-0.5-1.5c-0.1-0.4-0.2-0.8-0.3-1.2
		C36.1,51.8,36,51.6,35.9,51.3L35.9,51.3z M48.3,53.8l-2.2,3.1c-0.1,0-0.1,0-0.2,0c-0.3,0-0.6-0.1-0.8-0.1c-0.3,0-0.6-0.1-0.9-0.1
		c-0.5,0-1,0-1.5,0c-0.3,0-0.7,0-1,0l0,0c0.1-0.2,0.2-0.3,0.3-0.5c0.1-0.3,0.3-0.5,0.4-0.8c0,0,0,0,0.1,0l0.5-0.1
		c0.3-0.1,0.6-0.1,1-0.2c0.3-0.1,0.6-0.1,0.9-0.1c0.4-0.1,0.8-0.2,1.2-0.3c0.7-0.2,1.3-0.4,2-0.5L48.3,53.8z M43.2,49.9
		c0,0.1,0.1,0.2,0.1,0.2c0.1,0.2,0.2,0.3,0.2,0.5c0.1,0.3,0.3,0.5,0.4,0.8c0.3,0.6,0.5,1.2,0.7,1.8c0.1,0.3,0.3,0.7,0.4,1
		c0,0,0,0,0,0.1c-0.4,0.1-0.7,0.2-1.1,0.2c-0.3,0-0.5,0.1-0.8,0.1c-0.4,0.1-0.7,0.2-1.1,0.2l0,0c0,0,0,0,0-0.1
		c0.1-0.5,0.2-1,0.3-1.5c0.1-0.4,0.1-0.8,0.2-1.1c0.1-0.5,0.3-1,0.4-1.5C43,50.4,43,50.1,43.2,49.9C43.1,50,43.2,50,43.2,49.9
		L43.2,49.9z M35.9,51L35.9,51c1.6,0,3.2,0.1,4.7,0.4l0,0c-0.4,0.4-0.8,0.7-1.3,1.1c-0.2,0.1-0.3,0.3-0.5,0.4h-0.1
		c-0.3-0.2-0.6-0.3-0.9-0.5c-0.6-0.4-1.2-0.8-1.8-1.3C36,51.1,36,51.1,35.9,51L35.9,51z M42.8,50L42.8,50c-0.2,0.4-0.4,0.7-0.5,1
		c-0.2,0.3-0.3,0.7-0.5,1.1c-0.1,0.3-0.2,0.6-0.4,0.8c-0.2,0.3-0.3,0.7-0.5,1c-0.1,0.1-0.1,0.2-0.2,0.3c-0.6-0.4-1.2-0.7-1.8-1
		l0.1-0.1c0.1-0.1,0.2-0.2,0.3-0.3l1.4-1.2c0.4-0.3,0.8-0.7,1.2-1C42.2,50.4,42.5,50.2,42.8,50L42.8,50z M44.4,52.2L44.4,52.2
		L44.4,52.2c0.3,0.1,0.6,0.2,0.9,0.3c0.6,0.2,1.3,0.4,1.9,0.7l0.7,0.3c0.1,0,0.1,0.1,0.2,0.1l-2.8,0.7L44.4,52.2z M42.8,50.3
		L42.8,50.3v0.1c-0.1,0.2-0.1,0.4-0.2,0.6c-0.1,0.4-0.2,0.9-0.3,1.3c-0.1,0.3-0.1,0.7-0.2,1c-0.1,0.4-0.2,0.8-0.2,1.2
		c0,0.1-0.1,0.3-0.1,0.4l0,0L41,54.4c0,0,0,0,0-0.1c0.1-0.2,0.2-0.4,0.3-0.6c0.2-0.4,0.4-0.9,0.6-1.3c0.1-0.2,0.2-0.5,0.3-0.7
		c0.1-0.3,0.3-0.5,0.4-0.8C42.7,50.6,42.7,50.5,42.8,50.3L42.8,50.3z"/>
	<path class="st5" d="M36,51.3c0.1,0.2,0.1,0.4,0.2,0.6c0.1,0.4,0.2,0.8,0.3,1.2c0.2,0.5,0.3,1,0.5,1.5c0,0,0,0,0,0.1
		c0.4,0.2,0.7,0.4,1.1,0.6c0.3,0.2,0.7,0.3,1,0.4c0.4,0.2,0.8,0.3,1.2,0.5c0.3,0.1,0.6,0.2,0.9,0.3h0.1c0.1-0.2,0.2-0.4,0.3-0.7
		c0.1-0.2,0.2-0.3,0.2-0.5l0,0l0,0l0,0l0,0c-0.5-0.4-1.1-0.8-1.7-1.2c-0.2-0.1-0.3-0.2-0.5-0.3c-0.1-0.1-0.2-0.1-0.4-0.2
		c-0.8-0.4-1.6-0.9-2.3-1.4L36,51.3L36,51.3z"/>
	<path class="st5" d="M48.3,53.8l-0.5,0.1c-0.7,0.2-1.3,0.4-2,0.5c-0.4,0.1-0.8,0.2-1.2,0.3c-0.3,0.1-0.6,0.1-0.9,0.1
		c-0.3,0.1-0.6,0.1-1,0.2l-0.5,0.1c0,0,0,0-0.1,0c-0.1,0.3-0.2,0.6-0.4,0.8c-0.1,0.2-0.2,0.3-0.3,0.5l0,0c0.3,0,0.7,0,1,0
		c0.5,0,1,0,1.5,0c0.3,0,0.6,0.1,0.9,0.1c0.3,0,0.6,0.1,0.8,0.1c0.1,0,0.1,0,0.2,0L48.3,53.8L48.3,53.8z"/>
	<path class="st6" d="M43.2,49.9C43.2,50,43.2,50,43.2,49.9c-0.1,0.3-0.1,0.6-0.2,0.8c-0.1,0.5-0.3,1-0.4,1.5
		c-0.1,0.4-0.1,0.8-0.2,1.1c-0.1,0.5-0.2,1-0.3,1.5c0,0,0,0,0,0.1l0,0c0.4-0.1,0.7-0.2,1.1-0.2c0.3-0.1,0.5-0.1,0.8-0.1
		c0.4-0.1,0.8-0.1,1.1-0.2c0,0,0,0,0-0.1c-0.1-0.3-0.3-0.7-0.4-1c-0.3-0.6-0.5-1.2-0.7-1.8c-0.1-0.3-0.2-0.5-0.4-0.8
		c-0.1-0.2-0.2-0.3-0.2-0.5C43.3,50.1,43.2,50,43.2,49.9z"/>
	<path class="st5" d="M35.9,51c0.1,0.1,0.1,0.1,0.2,0.2c0.6,0.5,1.2,0.9,1.8,1.3c0.3,0.2,0.6,0.3,0.9,0.5h0.1
		c0.2-0.1,0.3-0.3,0.5-0.4c0.4-0.4,0.8-0.7,1.3-1.1l0,0C39.1,51.1,37.5,51,35.9,51L35.9,51z"/>
	<path class="st6" d="M42.8,50L42.8,50c-0.3,0.2-0.5,0.4-0.7,0.6c-0.4,0.3-0.8,0.7-1.2,1l-1.4,1.2c-0.1,0.1-0.2,0.2-0.3,0.3
		l-0.1,0.1c0.6,0.3,1.2,0.7,1.8,1c0.1-0.1,0.1-0.2,0.2-0.3c0.2-0.3,0.3-0.7,0.5-1c0.1-0.3,0.3-0.5,0.4-0.8c0.1-0.4,0.3-0.7,0.5-1.1
		C42.4,50.6,42.6,50.3,42.8,50L42.8,50L42.8,50z"/>
	<path class="st5" d="M44.4,52.2l0.9,2.1l2.8-0.7c-0.1,0-0.1-0.1-0.2-0.1l-0.7-0.3c-0.6-0.3-1.3-0.5-1.9-0.7
		C45.1,52.4,44.8,52.3,44.4,52.2L44.4,52.2L44.4,52.2z"/>
	<path class="st6" d="M42.8,50.3c-0.1,0.2-0.2,0.3-0.3,0.5c-0.1,0.3-0.3,0.5-0.4,0.8c-0.1,0.2-0.2,0.5-0.3,0.7
		c-0.2,0.4-0.4,0.9-0.6,1.3c-0.1,0.2-0.2,0.4-0.3,0.6c0,0,0,0,0,0.1l0.8,0.5l0,0c0-0.1,0.1-0.3,0.1-0.4c0.1-0.4,0.2-0.8,0.2-1.2
		c0.1-0.3,0.1-0.7,0.2-1c0.1-0.4,0.2-0.9,0.3-1.3C42.5,50.7,42.6,50.5,42.8,50.3C42.8,50.4,42.8,50.4,42.8,50.3L42.8,50.3z"/>
	<path d="M63,72.9c1.1,0,1.8-0.8,1.4-1.8c-0.3-0.7-1.2-1.1-2.1-0.8c-0.2,0.1-0.3,0.1-0.4,0.2c-0.1,0.1-0.2,0.2-0.3,0.4
		c-0.1,0.2-0.1,0.3-0.1,0.5c0,0.2,0,0.3,0.1,0.5C61.7,72.6,62.2,72.9,63,72.9z"/>
	<path d="M60.3,78.7c0,0.3,0.1,0.7,0.4,0.9c0.2,0.2,0.6,0.4,0.9,0.4c0.4,0,0.8-0.2,1.1-0.5c0.3-0.3,0.5-0.7,0.5-1.1
		c0-0.3-0.2-0.7-0.4-0.9c-0.2-0.2-0.6-0.4-0.9-0.4c-0.4,0-0.8,0.2-1.1,0.5C60.4,78,60.3,78.3,60.3,78.7z"/>
	<path d="M18.3,55.4c0,0.3,0.2,0.7,0.4,0.9c0.2,0.2,0.6,0.4,0.9,0.4c0.4,0,0.8-0.2,1.1-0.5c0.3-0.3,0.4-0.7,0.5-1.1
		c0-0.3-0.2-0.7-0.4-0.9c-0.2-0.2-0.6-0.4-0.9-0.4c-0.4,0-0.8,0.2-1,0.5C18.4,54.6,18.3,55,18.3,55.4z"/>
	<path d="M16.4,61.7c-0.2,0-0.4,0-0.5,0.1c-0.2,0.1-0.3,0.2-0.5,0.3c-0.1,0.1-0.2,0.3-0.3,0.5S15,63,15,63.1c0,0.4,0.2,0.7,0.4,0.9
		c0.3,0.3,0.7,0.4,1,0.4c0.2,0,0.4,0,0.5-0.1c0.2-0.1,0.3-0.2,0.4-0.3c0.3-0.1,0.4-0.3,0.4-0.4c0.1-0.2,0.1-0.3,0.1-0.5
		s0-0.4-0.1-0.5c0-0.2-0.1-0.4-0.3-0.5c-0.1-0.1-0.3-0.2-0.5-0.3C16.8,61.7,16.6,61.7,16.4,61.7z"/>
	<path d="M70.3,76.1c0.9,0,1.4-0.6,1.4-1.3c0-0.4-0.2-0.7-0.4-0.9c-0.3-0.2-0.6-0.4-1-0.4c-0.8,0-1.4,0.5-1.4,1.3
		C68.9,75.6,69.4,76.1,70.3,76.1z"/>
	<path d="M65.1,84.4c0.9,0,1.4-0.5,1.4-1.3c0-0.2,0-0.4-0.1-0.5c-0.1-0.2-0.2-0.3-0.3-0.4c-0.1-0.1-0.3-0.2-0.4-0.3
		c-0.2-0.1-0.3-0.1-0.5-0.1c-0.8,0-1.4,0.6-1.5,1.3C63.7,83.9,64.3,84.4,65.1,84.4z"/>
</g>
</svg>
