<?xml version="1.0" encoding="utf-8"?>
<!-- Generator: Adobe Illustrator 25.0.0, SVG Export Plug-In . SVG Version: 6.00 Build 0)  -->
<svg version="1.1" xmlns="http://www.w3.org/2000/svg" xmlns:xlink="http://www.w3.org/1999/xlink" x="0px" y="0px"
	 viewBox="0 0 86 91" style="enable-background:new 0 0 86 91;" xml:space="preserve">
<style type="text/css">
	.st0{fill:#F4E9E9;}
	.st1{fill:#8EC2D8;}
	.st2{fill:#A06A80;}
	.st3{fill:#E88D4F;}
	.st4{fill:#7C81BD;}
	.st5{fill:#FFD265;}
	.st6{fill:#EFE3DF;}
</style>
<g id="Capa_1">
	<rect class="st0" width="85.8" height="90.9"/>
</g>
<g id="Capa_2">
	<path d="M32.9,28.9c2.9-0.2,5.8-0.5,8.7-0.8c3.1-0.3,6.3-0.6,9.4-1c1.9-0.2,3.8-0.5,5.7-0.7c0.6,0,0.8,0.1,0.9,0.6
		c0.2,1.9,0.5,3.9,0.7,5.8c0.2,1.9,0.5,3.9,0.6,5.8c0.6,8.7,1.6,17.3,2.6,25.9c0.4,3.6,0.9,7.2,1.3,10.8c0.1,0.9,0.3,1.8,0.6,2.7
		c0.1,0.3,0.2,0.5,0.4,0.7c0.4,0.4,0.5,0.7,0.2,1.2c-0.6,1.1-0.5,2.3,0,3.4c0.2,0.6,0.2,1-0.5,1.2c-0.3,0.1-0.7,0.2-1.1,0.2
		c-1.1,0.1-2.2,0.3-3.3,0.4c-1.8,0.1-3.4,0.7-5.1,1.2c-1.9,0.5-3.8,0.6-5.7,0.7c-2.8,0.1-5.6,0.2-8.3,0.5c-2.5,0.3-4.9,0.9-7.4,1.3
		c-0.6,0.1-1.2,0.2-1.8,0.3c-0.7,0.1-1-0.1-1.2-0.7c-0.2-0.9-0.4-1.8-0.5-2.7c-0.3-2.5-0.8-5-1.5-7.5c-2-6.9-3-14-3.7-21.2
		c-0.5-5.1-0.8-10.2-1.1-15.3c-0.2-3.7-0.3-7.4-0.5-11.1c0-0.5,0.1-0.8,0.7-0.8C26.2,29.6,29.5,29.2,32.9,28.9L32.9,28.9z
		 M62.1,78.6c0-0.2,0-0.4-0.1-0.6c-0.3-1.6-0.7-3.2-0.9-4.9c-0.5-3.8-0.8-7.6-1.2-11.3c-1-8.3-1.8-16.6-2.4-24.9
		c-0.2-2.8-0.5-5.6-0.8-8.4c0-0.4-0.1-0.7-0.6-0.6s-1.1,0-1.6,0.1c-1.5,0.2-3,0.4-4.5,0.5c-3.4,0.3-6.8,0.7-10.3,1
		c-3.9,0.4-7.7,0.7-11.6,1c-0.6,0-0.8,0.2-0.8,0.8c-0.1,2.8-0.2,5.6-0.2,8.4c0,3.5,0.2,6.9,0.3,10.4c0.1,3,0.2,6.1,0.4,9.1
		c0.4,4.9,1.1,9.7,2.3,14.4c0.6,2.6,1.2,5.1,1.9,7.7c0.2,0.8,0.5,1.5,0.8,2.3c1.3-0.4,2.5-0.9,3.7-1.2c5.9-1.7,12-2.2,18.1-2.4
		C57.1,79.7,59.7,79.3,62.1,78.6z M26.2,30.5c-0.8,0.1-1.4,0.2-2.1,0.2c-0.9,0.1-0.9,0.1-0.9,1.1c0.2,3.6,0.3,7.1,0.6,10.7
		c0.4,5.2,0.7,10.5,1.2,15.7c0.4,4,1.1,8.1,1.8,12.1c0.6,3.5,1.5,6.9,2.3,10.4c0.2,0.8,0.4,1.5,0.6,2.3l1.4-0.5
		c-0.1-0.2-0.1-0.4-0.2-0.6c-0.3-1.1-0.7-2.2-1-3.3c-0.7-3-1.4-5.9-1.9-8.9c-0.6-3.7-1.1-7.5-1.5-11.3c-0.3-2.8-0.3-5.7-0.4-8.5
		c-0.1-5.3-0.2-10.5-0.3-15.8C26,32.9,26.2,31.8,26.2,30.5z M33.6,87.4c0.2,0,0.4-0.1,0.6-0.1l3.9-0.8c2.8-0.6,5.7-0.7,8.5-0.7
		c2.9,0,5.8-0.2,8.7-1.2c1.7-0.6,3.5-0.8,5.3-0.8c0.5,0,1,0,1.5-0.1c0.6-0.1,0.7-0.2,0.6-0.8c-0.1-0.4-0.3-0.4-0.6-0.4
		c-1.8,0-3.6-0.1-5.4,0c-4.8,0.4-9.5,1.3-14.3,2.2c-2.3,0.4-4.5,1-6.8,1.5c-0.7,0.2-1.4,0.3-2.1,0.5C33.6,87,33.6,87.2,33.6,87.4z
		 M33.4,86.2c1.6-0.3,3.1-0.7,4.6-1c1.7-0.4,3.3-0.8,5-1.1c3-0.5,6-1.1,9-1.5c2.5-0.3,4.9-0.5,7.4-0.7c1-0.1,2,0,3,0
		c0.1-0.4-0.1-0.5-0.4-0.5c-1.1,0.1-2.1,0.1-3.2,0.2c-3.1,0.3-6.1,0.6-9.2,0.9c-4.3,0.4-8.7,0.8-12.9,1.9c-1.2,0.3-2.4,0.7-3.6,1.1
		C33.3,85.8,33.4,85.9,33.4,86.2L33.4,86.2z M62.6,79.8c-0.3,0-0.6,0-0.8,0.1c-2.6,0.8-5.4,1-8.1,1.1c-5.4,0.3-10.7,0.7-15.9,2
		c-1.4,0.4-2.8,0.8-4.2,1.3c-0.3,0.1-0.6,0.2-0.3,0.6c0.7-0.2,1.3-0.4,2-0.6c1.9-0.5,3.7-1.1,5.7-1.3c4.9-0.7,9.8-1.2,14.7-1.7
		c2.1-0.2,4.1-0.4,6.2-0.5C62.6,80.8,62.6,80.8,62.6,79.8z M32.5,87.6c-0.2-1-0.3-1.9-0.5-2.8c-0.2-1.1-0.4-1.2-1.4-0.8
		c-0.1,0-0.2,0.1-0.3,0.1c-0.1,0.1-0.2,0.2-0.2,0.4c0.1,1,0.3,2.1,0.5,3.1c0,0.1,0.1,0.1,0.1,0.2c0.1,0.1,0.1,0.1,0.2,0.1
		C31.4,87.8,31.9,87.7,32.5,87.6z"/>
	<path class="st1" d="M62.1,78.6c-2.5,0.7-5,1.1-7.6,1.2c-6.1,0.2-12.2,0.7-18.1,2.4c-1.2,0.4-2.4,0.8-3.7,1.2
		c-0.3-0.8-0.6-1.5-0.8-2.3c-0.6-2.6-1.2-5.1-1.9-7.7c-1.1-4.7-1.9-9.6-2.3-14.4c-0.3-3-0.3-6.1-0.4-9.1c-0.1-3.5-0.2-6.9-0.3-10.4
		c0-2.8,0.1-5.6,0.2-8.4c0-0.5,0.2-0.7,0.8-0.8c3.9-0.3,7.7-0.6,11.6-1c3.6-0.1,7-0.5,10.5-0.9c1.5-0.2,3-0.4,4.5-0.5
		c0.5-0.1,1.1,0,1.6-0.1c0.5-0.1,0.6,0.2,0.6,0.6c0.2,2.8,0.6,5.6,0.8,8.4c0.6,8.3,1.4,16.7,2.4,24.9c0.5,3.8,0.8,7.6,1.2,11.3
		c0.2,1.6,0.6,3.3,0.9,4.9C62.1,78.2,62.1,78.4,62.1,78.6z M41.7,52.1v0.2c2.1-0.4,4.3-0.7,6.4-1.1c0.8-0.1,1.6-0.2,2.4-0.5
		c0.2-0.1,0.4-0.4,0.4-0.6c0-0.1,0-0.1,0-0.2c0-0.1-0.1-0.1-0.1-0.2c0-0.1-0.1-0.1-0.2-0.1c-0.1,0-0.1,0-0.2,0c-0.2,0-0.5,0-0.7,0
		c-2.2,0.4-4.4,0.8-6.6,1.1c-1.8,0.3-3.7,0.6-5.5,0.9c-0.6,0.1-1.1,0.3-1.6,0.5c-0.1,0-0.1,0.1-0.2,0.1c-0.1,0.1-0.1,0.1-0.1,0.2
		c0,0.1,0,0.2,0,0.2c0,0.1,0,0.2,0.1,0.2c0.1,0.1,0.2,0.2,0.3,0.2s0.3,0.1,0.4,0.1C38.3,52.7,40,52.4,41.7,52.1z M50.8,56.7
		L50.8,56.7c0.3-0.1,0.7-0.1,1-0.2c1.3-0.2,2.6-0.3,3.9-0.5c0.4-0.1,0.8-0.2,0.7-0.8c-0.1-0.5-0.5-0.5-0.9-0.5
		c-2.1,0.3-4.3,0.6-6.4,0.9c-1.1,0.2-2.2,0.4-3.3,0.7c-0.1,0-0.2,0-0.2,0.1c-0.1,0-0.1,0.1-0.2,0.2c0,0.1-0.1,0.1-0.1,0.2
		c0,0.1,0,0.2,0,0.2c0.1,0.4,0.3,0.5,0.7,0.4c0.2,0,0.4,0,0.6-0.1C48,57.2,49.4,57,50.8,56.7z M36.5,59L36.5,59
		c0.9-0.1,1.8-0.3,2.7-0.4c0.1,0,0.2,0,0.2-0.1c0.1,0,0.1-0.1,0.2-0.2c0-0.1,0.1-0.1,0.1-0.2c0-0.1,0-0.2,0-0.2c0-0.1,0-0.2-0.1-0.2
		c0-0.1-0.1-0.1-0.1-0.2c-0.1-0.1-0.1-0.1-0.2-0.1s-0.2,0-0.2,0c-0.1,0-0.2,0-0.3,0c-1.6,0.3-3.3,0.6-4.9,0.9
		c-0.4,0.1-0.7,0.3-0.6,0.7c0.1,0.5,0.4,0.5,0.8,0.4L36.5,59z M46.2,33.6c-0.8-0.4-3.6-0.1-4.1,0.4C42.7,34.2,45.9,34,46.2,33.6
		L46.2,33.6z M28.1,32.4c0.3,0.1,0.3,0.1,0.4,0.1c1.1-0.2,2.2-0.4,3.2-0.7c0.1,0,0.2-0.2,0.3-0.3c-0.1,0-0.3-0.1-0.4-0.1
		c-1,0.2-2,0.4-3,0.6C28.5,32.1,28.4,32.3,28.1,32.4L28.1,32.4z M30.3,34.9L30.3,34.9c0.7-0.1,1.5-0.3,2.2-0.5
		c0.1,0,0.2-0.2,0.3-0.3c-0.1-0.1-0.3-0.2-0.4-0.2c-0.2,0-0.5,0.1-0.7,0.2c-0.6,0.1-1.3,0.3-1.9,0.4c-0.2,0-0.3,0.2-0.4,0.4
		c0.2,0.1,0.3,0.1,0.5,0.1C29.9,34.9,30.1,34.9,30.3,34.9L30.3,34.9z M33.9,37.4v-0.2c-0.1,0-0.2,0-0.2,0c-1.1,0.1-2.1,0.2-3.2,0.4
		c-0.1,0-0.2,0.2-0.4,0.3c0.1,0.1,0.3,0.2,0.4,0.2c1-0.1,1.9-0.2,2.9-0.4C33.5,37.6,33.7,37.5,33.9,37.4L33.9,37.4z M34.7,34.2
		c0.6,0.3,3.2-0.2,3.5-0.6C37.5,33.3,35.1,33.8,34.7,34.2L34.7,34.2z M37.2,31.3c-0.1-0.1-0.1-0.1-0.1-0.1c-1.1,0.1-2.2,0.2-3.3,0.4
		c-0.1,0-0.2,0.2-0.4,0.5c1.3-0.2,2.4-0.3,3.4-0.4C37,31.6,37.1,31.4,37.2,31.3L37.2,31.3z M49,30.5c-0.7-0.3-2.9,0.1-3.1,0.5
		C46.5,31.3,48.8,30.9,49,30.5z M50.9,36.4l3-0.4c-0.2-0.4-1.3-0.5-2.6-0.2C51,35.9,50.7,36,50.9,36.4L50.9,36.4z M37.4,80.5
		l0.1,0.2c0.9-0.1,1.8-0.2,2.7-0.3c0.1,0,0.3-0.2,0.4-0.3c-0.2-0.1-0.3-0.2-0.5-0.2c-0.8,0.1-1.5,0.3-2.3,0.4
		C37.6,80.3,37.5,80.4,37.4,80.5z M51.7,30.2c0.4,0.3,2.5,0.2,2.8,0.1c0.1,0,0.2-0.2,0.1-0.2c-0.1-0.1-0.2-0.2-0.3-0.2
		c-0.6,0-1.2,0-1.7,0C52.4,30,52.1,30.1,51.7,30.2z M51.1,78.5L51,78.3c-0.9,0.1-1.9,0.2-2.8,0.3c-0.1,0-0.1,0.2-0.2,0.3
		c0.1,0.1,0.2,0.2,0.3,0.2c0.8-0.1,1.6-0.2,2.4-0.3C51,78.7,51,78.6,51.1,78.5z M39.7,36.5C39,36.2,37,36.6,36.9,37
		C37.8,37.3,39.5,37,39.7,36.5z M45.7,36.7L45.7,36.7c0.4-0.1,0.9-0.2,1.3-0.3c0.1,0,0.2-0.2,0.3-0.2c-0.1-0.1-0.2-0.2-0.4-0.1
		c-0.4,0-0.8,0.1-1.2,0.1c-0.4,0.1-0.8,0.1-1.2,0.2c-0.1,0-0.2,0.2-0.2,0.3c0.1,0,0.2,0.1,0.4,0.1C45.1,36.8,45.4,36.8,45.7,36.7
		L45.7,36.7z M56.4,75.6c-0.4-0.3-2.3-0.2-2.5,0.1c0,0,0,0.1-0.1,0.1v0.1l0.1,0.1H54c0.7-0.1,1.4-0.2,2.1-0.3
		C56.2,75.8,56.3,75.6,56.4,75.6z M34.8,79.2L34.8,79.2c0.2,0,0.5,0,0.7-0.1c0.1,0,0.2-0.2,0.3-0.2c-0.1-0.1-0.2-0.2-0.3-0.2
		c-0.6,0.1-1.2,0.2-1.9,0.3c-0.1,0-0.1,0.2-0.2,0.3c0.1,0.1,0.2,0.2,0.3,0.2C34.1,79.3,34.5,79.2,34.8,79.2z M51.1,76.6l0.1-0.2
		c-0.1-0.1-0.3-0.2-0.4-0.2c-0.8,0.2-1.6-0.1-2.3,0.4v0.2L51.1,76.6z M42.7,79.6l0.1,0.2c0.8,0.1,1.6-0.2,2.4-0.4l0.1-0.2
		C45.2,79.1,45.1,79,45,79c-0.5,0.1-1.1,0.1-1.6,0.2C43.1,79.4,42.9,79.5,42.7,79.6L42.7,79.6z M46.4,74.2l-0.1-0.3
		c-0.7,0.1-1.5,0.3-2.2,0.5c-0.1,0-0.1,0.2-0.1,0.3c0.1,0,0.2,0.1,0.3,0.1c0.6-0.1,1.2-0.2,1.8-0.4C46.2,74.4,46.3,74.3,46.4,74.2
		L46.4,74.2z M33.4,81.6c0.6,0.1,2.3-0.2,2.5-0.5C35.2,80.8,33.6,81.1,33.4,81.6z M42.1,31.6c0-0.1,0-0.1-0.1-0.2
		c-0.8,0.1-1.5,0.1-2.3,0.2c-0.1,0-0.1,0.2-0.2,0.3c0.1,0,0.2,0.1,0.3,0.1c0.6,0,1.3-0.1,1.9-0.2C41.9,31.8,42,31.6,42.1,31.6z
		 M43.7,77.6L43.7,77.6h1.9c0.1,0,0.1,0,0.2,0c0.1-0.1,0.2-0.2,0.4-0.3c-0.1-0.1-0.2-0.2-0.4-0.2c-0.6,0-1.1,0.1-1.7,0.1
		C43.9,77.3,43.8,77.5,43.7,77.6z M57.7,77.7c0.4,0.3,1.9,0.2,2.2,0l0.1-0.1v-0.1l-0.1-0.1h-0.1c-0.6,0.1-1.1,0.1-1.7,0.2
		C57.9,77.5,57.9,77.6,57.7,77.7z M52.5,33.1c0,0.1,0,0.2,0,0.3c0.7,0,1.4,0,2,0c0.1,0,0.2-0.1,0.3-0.2c-0.1-0.1-0.2-0.2-0.3-0.2
		c-0.5,0-1,0-1.5,0C52.9,32.9,52.7,33,52.5,33.1z M48.2,33.4c0.7,0.2,1.5,0.2,2.2,0c0.1,0,0.1-0.1,0.1-0.2S50.4,33,50.4,33
		C49.6,32.9,48.9,33.1,48.2,33.4L48.2,33.4z M55.2,77.9c-0.6-0.3-1.9-0.2-2.2,0.1l-0.1,0.1v0.1l0.1,0.1h0.1c0.4-0.1,0.8-0.1,1.2-0.2
		C54.7,78.1,55,78.1,55.2,77.9L55.2,77.9z M50.9,73L50.9,73c-0.3,0-0.6,0.1-0.9,0.2l-0.1,0.1c0,0,0,0.1-0.1,0.1c0,0,0,0.1,0.1,0.1
		l0.1,0.1c0.6-0.1,1.2-0.2,1.8-0.3c0.1,0,0.1-0.2,0.1-0.2L51.8,73h-0.1C51.4,73,51.2,73,50.9,73L50.9,73z M35.3,76.7l-0.1-0.3
		c-0.7,0.1-1.3,0.2-2,0.4l-0.1,0.1V77c0,0.1,0.1,0.2,0.2,0.2C34,77.1,34.6,76.9,35.3,76.7L35.3,76.7z M40.7,75.6
		c-0.4-0.3-1.6-0.4-1.8-0.1c-0.1,0.1,0,0.3,0,0.4C39.5,76,40.1,75.9,40.7,75.6L40.7,75.6z M60.3,75.4v-0.2c-0.3-0.2-1.2-0.3-1.5-0.1
		c-0.2,0.1-0.2,0.2-0.3,0.3c0,0,0.1,0.1,0.2,0.1C59.2,75.5,59.7,75.5,60.3,75.4L60.3,75.4z M40.5,78.2c-0.3-0.5-1.6-0.4-2.1,0.2
		C39.1,78.6,39.7,78.3,40.5,78.2z M54.8,72.9c0.1,0.2,0.2,0.3,0.3,0.3c0.5,0,1-0.1,1.6-0.2l0.1-0.2l-0.1-0.1h-0.1
		C55.9,72.8,55.4,72.8,54.8,72.9z M59,73.5l0.4-0.4c-0.2-0.1-0.5-0.2-0.8-0.3c-0.1,0-0.2,0.2-0.4,0.3L59,73.5z"/>
	<path class="st2" d="M26.2,30.5C26.1,31.7,26,32.8,26,34c0.1,5.3,0.1,10.5,0.3,15.8c0.1,2.9,0.1,5.7,0.4,8.5
		c0.4,3.8,0.8,7.5,1.5,11.3c0.5,3,1.3,6,1.9,8.9c0.2,1.1,0.6,2.2,1,3.3c0.1,0.2,0.1,0.4,0.2,0.6l-1.4,0.5c-0.2-0.8-0.4-1.5-0.6-2.3
		c-0.8-3.5-1.7-6.9-2.3-10.4c-0.7-4-1.4-8-1.8-12.1c-0.5-5.2-0.9-10.5-1.2-15.7c-0.2-3.6-0.4-7.1-0.6-10.7c-0.1-0.9-0.1-0.9,0.9-1.1
		C24.8,30.7,25.5,30.6,26.2,30.5z M25.2,37.7l-0.5-0.4c-0.1,0.1-0.2,0.3-0.1,0.4c0.1,0.2,0.2,0.3,0.3,0.5L25.2,37.7z M26.9,65.2
		c-0.1,0.2-0.2,0.4-0.2,0.6c0,0.1,0.2,0.2,0.2,0.3c0.1-0.1,0.2-0.2,0.2-0.4C27.1,65.5,27.1,65.4,26.9,65.2L26.9,65.2z M26.8,67.2
		l-0.2,0.2c0.1,0.2,0.2,0.3,0.4,0.5l0.2-0.1L26.8,67.2z"/>
	<path class="st3" d="M33.6,87.4c0-0.3-0.1-0.5-0.1-0.8c0.7-0.2,1.4-0.3,2.1-0.5c2.3-0.5,4.5-1.1,6.8-1.5c4.7-0.9,9.5-1.8,14.3-2.2
		c1.8-0.1,3.6,0,5.4,0c0.3,0,0.5,0,0.6,0.4c0.1,0.6,0.1,0.7-0.6,0.8c-0.5,0.1-1,0.1-1.5,0.1c-1.8,0-3.6,0.2-5.3,0.8
		c-2.8,1-5.7,1.2-8.7,1.2c-2.9,0-5.7,0.2-8.5,0.7l-3.9,0.8C34,87.4,33.9,87.4,33.6,87.4z"/>
	<path class="st3" d="M33.4,86.2c0-0.2-0.1-0.4-0.1-0.7c1.2-0.4,2.4-0.7,3.6-1.1c4.2-1.2,8.6-1.5,12.9-1.9c3.1-0.3,6.1-0.6,9.2-0.9
		c1-0.1,2.1-0.1,3.2-0.2c0.3,0,0.5,0.1,0.4,0.5c-1,0-2-0.1-3,0c-2.5,0.2-5,0.4-7.4,0.7c-3,0.4-6,0.9-9,1.5c-1.7,0.3-3.4,0.8-5,1.1
		C36.5,85.5,35,85.8,33.4,86.2z"/>
	<path class="st3" d="M62.6,79.8c0,1,0,0.9-0.8,1c-2.1,0.1-4.1,0.3-6.2,0.5c-4.9,0.5-9.8,1-14.7,1.7c-1.9,0.3-3.8,0.9-5.7,1.3
		c-0.7,0.2-1.3,0.4-2,0.6c-0.2-0.4,0-0.5,0.3-0.6c1.4-0.4,2.8-0.9,4.2-1.3c5.2-1.4,10.6-1.8,15.9-2c2.7-0.1,5.4-0.3,8.1-1.1
		C62.1,79.9,62.3,79.9,62.6,79.8z"/>
	<path class="st2" d="M32.5,87.6c-0.6,0.1-1.1,0.2-1.7,0.3c-0.1,0-0.2,0-0.2-0.1c-0.1-0.1-0.1-0.1-0.1-0.2c-0.2-1-0.3-2.1-0.5-3.1
		c0-0.1,0.1-0.2,0.2-0.4c0.1-0.1,0.2-0.1,0.3-0.1c1.1-0.4,1.2-0.3,1.4,0.8C32.2,85.7,32.3,86.6,32.5,87.6z"/>
	<path class="st1" d="M41.7,52.1c-1.7,0.3-3.4,0.7-5.1,0.9c-0.1,0-0.3,0-0.4-0.1c-0.1,0-0.2-0.1-0.3-0.2c0-0.1-0.1-0.1-0.1-0.2
		c0-0.1,0-0.2,0-0.2c0-0.1,0.1-0.1,0.1-0.2C36,52,36,52,36.1,52c0.5-0.2,1.1-0.4,1.6-0.5c1.8-0.3,3.7-0.6,5.5-0.9
		c2.2-0.4,4.4-0.7,6.6-1.1c0.2,0,0.5,0,0.7,0c0.1,0,0.1,0,0.2,0c0.1,0,0.1,0.1,0.2,0.1c0,0.1,0.1,0.1,0.1,0.2c0,0.1,0,0.1,0,0.2
		c-0.1,0.2-0.2,0.6-0.4,0.6c-0.8,0.2-1.6,0.3-2.4,0.5c-2.1,0.4-4.3,0.7-6.4,1.1L41.7,52.1z"/>
	<path class="st1" d="M50.8,56.7c-1.4,0.2-2.8,0.5-4.1,0.7c-0.2,0-0.4,0.1-0.6,0.1c-0.4,0-0.6-0.1-0.7-0.4c0-0.1,0-0.2,0-0.2
		c0-0.1,0-0.2,0.1-0.2c0-0.1,0.1-0.1,0.2-0.2c0.1,0,0.1-0.1,0.2-0.1c1.1-0.2,2.2-0.5,3.3-0.7c2.1-0.3,4.3-0.6,6.4-0.9
		c0.4-0.1,0.8,0,0.9,0.5c0.1,0.5-0.3,0.7-0.7,0.8c-1.3,0.2-2.6,0.3-3.9,0.5C51.4,56.6,51.1,56.7,50.8,56.7L50.8,56.7z"/>
	<path class="st1" d="M36.5,59l-2.3,0.4c-0.4,0.1-0.8,0-0.8-0.4c-0.1-0.4,0.2-0.6,0.6-0.7c1.6-0.3,3.2-0.6,4.9-0.9
		c0.1,0,0.2,0,0.3,0s0.2,0,0.2,0c0.1,0,0.1,0.1,0.2,0.1c0.1,0.1,0.1,0.1,0.1,0.2c0,0.1,0.1,0.1,0.1,0.2c0,0.1,0,0.2,0,0.2
		c0,0.1-0.1,0.1-0.1,0.2c0,0.1-0.1,0.1-0.2,0.2c-0.1,0-0.1,0.1-0.2,0.1C38.3,58.8,37.4,58.9,36.5,59L36.5,59z"/>
	<path class="st1" d="M46.2,33.6c-0.3,0.4-3.5,0.6-4.1,0.4C42.5,33.5,45.4,33.2,46.2,33.6z"/>
	<path class="st1" d="M28.1,32.4c0.3-0.2,0.4-0.4,0.6-0.4c1-0.2,2-0.4,3-0.6c0.1,0,0.2,0.1,0.4,0.2c-0.1,0.1-0.2,0.2-0.3,0.3
		c-1.1,0.2-2.2,0.5-3.2,0.7C28.4,32.6,28.4,32.5,28.1,32.4z"/>
	<path class="st1" d="M30.3,34.9c-0.2,0-0.3,0.1-0.5,0.1s-0.4-0.1-0.5-0.1c0.1-0.1,0.3-0.3,0.4-0.4c0.6-0.2,1.3-0.3,1.9-0.4
		c0.2-0.1,0.5-0.1,0.7-0.2c0.1,0,0.3,0.1,0.4,0.2c-0.1,0.1-0.2,0.3-0.3,0.3C31.7,34.6,31,34.7,30.3,34.9L30.3,34.9z"/>
	<path class="st1" d="M33.9,37.4c-0.2,0.1-0.4,0.2-0.5,0.2c-1,0.1-1.9,0.3-2.9,0.4c-0.1,0-0.3-0.1-0.4-0.2c0.1-0.1,0.2-0.3,0.4-0.3
		c1.1-0.1,2.1-0.2,3.2-0.4c0.1,0,0.2,0,0.2,0L33.9,37.4z"/>
	<path class="st1" d="M34.7,34.2c0.4-0.5,2.8-0.9,3.5-0.6C37.9,34.1,35.3,34.6,34.7,34.2z"/>
	<path class="st1" d="M37.2,31.3c-0.1,0.1-0.2,0.3-0.4,0.3c-1.1,0.1-2.1,0.3-3.4,0.4c0.2-0.2,0.2-0.5,0.4-0.5
		c1.1-0.1,2.2-0.2,3.3-0.4C37.1,31.2,37.1,31.3,37.2,31.3z"/>
	<path class="st1" d="M49,30.5c-0.3,0.4-2.5,0.8-3.1,0.5C46.2,30.6,48.3,30.2,49,30.5z"/>
	<path class="st1" d="M50.9,36.4c-0.1-0.4,0.1-0.5,0.4-0.6c1.3-0.3,2.3-0.2,2.6,0.2L50.9,36.4z"/>
	<path class="st1" d="M37.4,80.5c0.1-0.1,0.2-0.1,0.3-0.2c0.8-0.2,1.5-0.3,2.3-0.4c0.1,0,0.3,0.1,0.5,0.2c-0.1,0.1-0.3,0.2-0.4,0.3
		c-0.9,0.1-1.8,0.2-2.6,0.3L37.4,80.5z"/>
	<path class="st1" d="M51.7,30.2c0.3-0.1,0.6-0.2,0.9-0.3c0.6,0,1.2-0.1,1.7,0c0.1,0,0.2,0.1,0.3,0.2l-0.1,0.2
		C54.3,30.5,52.2,30.5,51.7,30.2z"/>
	<path class="st1" d="M51.1,78.5c-0.1,0.1-0.2,0.2-0.3,0.2c-0.8,0.1-1.6,0.2-2.4,0.3c-0.1,0-0.2-0.1-0.3-0.2
		c0.1-0.1,0.1-0.3,0.2-0.3c0.9-0.1,1.9-0.2,2.8-0.3V78.5z"/>
	<path class="st1" d="M39.7,36.5c-0.2,0.5-1.9,0.8-2.8,0.5C37,36.6,39,36.3,39.7,36.5z"/>
	<path class="st1" d="M45.7,36.7c-0.3,0-0.7,0.1-1,0.1c-0.1,0-0.2-0.1-0.4-0.1c0.1-0.1,0.1-0.3,0.2-0.3c0.4-0.1,0.8-0.2,1.2-0.2
		c0.4-0.1,0.8-0.1,1.2-0.1c0.1,0,0.2,0.1,0.4,0.1c-0.1,0.1-0.2,0.2-0.3,0.2C46.6,36.5,46.2,36.6,45.7,36.7L45.7,36.7z"/>
	<path class="st1" d="M56.4,75.6c-0.1,0.1-0.2,0.2-0.3,0.2c-0.7,0.1-1.4,0.2-2.1,0.3h-0.1L53.8,76v-0.1c0,0,0-0.1,0.1-0.1
		C54.1,75.4,56,75.3,56.4,75.6z"/>
	<path class="st1" d="M34.8,79.2c-0.4,0.1-0.7,0.2-1.1,0.2c-0.1,0-0.2-0.1-0.3-0.2c0.1-0.1,0.1-0.3,0.2-0.3c0.6-0.1,1.2-0.2,1.9-0.3
		c0.1,0,0.2,0.1,0.3,0.2c-0.1,0.1-0.2,0.2-0.3,0.2C35.3,79.2,35.1,79.2,34.8,79.2L34.8,79.2z"/>
	<path class="st1" d="M51.1,76.6l-2.5,0.3v-0.2c0.7-0.5,1.5-0.3,2.3-0.4c0.1,0,0.3,0.1,0.4,0.2L51.1,76.6z"/>
	<path class="st1" d="M42.7,79.6c0.2-0.1,0.4-0.2,0.6-0.3c0.5-0.1,1.1-0.2,1.6-0.2c0.1,0,0.2,0.1,0.3,0.2c0,0,0,0.2-0.1,0.2
		c-0.8,0.2-1.5,0.5-2.3,0.3L42.7,79.6z"/>
	<path class="st1" d="M46.4,74.2c-0.1,0.1-0.2,0.2-0.3,0.2c-0.6,0.1-1.2,0.3-1.8,0.4c-0.1,0-0.2-0.1-0.3-0.1c0-0.1,0.1-0.3,0.1-0.3
		c0.7-0.2,1.4-0.3,2.2-0.5L46.4,74.2z"/>
	<path class="st1" d="M33.4,81.6c0.2-0.5,1.8-0.8,2.5-0.5C35.7,81.4,34,81.7,33.4,81.6z"/>
	<path class="st1" d="M42.1,31.6c-0.1,0.1-0.2,0.2-0.4,0.2c-0.6,0.1-1.3,0.1-1.9,0.2c-0.1,0-0.2-0.1-0.3-0.1
		c0.1-0.1,0.1-0.3,0.2-0.3c0.8-0.1,1.5-0.1,2.3-0.2C42.1,31.4,42.1,31.5,42.1,31.6z"/>
	<path class="st1" d="M43.7,77.6c0.1-0.1,0.2-0.3,0.3-0.3c0.6-0.1,1.1-0.1,1.7-0.1c0.1,0,0.2,0.1,0.4,0.2c-0.1,0.1-0.2,0.2-0.4,0.3
		c0,0-0.1,0-0.2,0l-1.8,0.1V77.6z"/>
	<path class="st1" d="M57.7,77.7c0.1-0.1,0.2-0.2,0.3-0.2c0.6-0.1,1.1-0.1,1.7-0.2h0.1l0.1,0.1v0.1c0,0,0,0.1-0.1,0.1
		C59.6,78,58.1,78,57.7,77.7z"/>
	<path class="st1" d="M52.5,33.1c0.2-0.1,0.4-0.1,0.6-0.2c0.5,0,1,0,1.5,0c0.1,0,0.2,0.1,0.3,0.2c-0.1,0.1-0.2,0.2-0.3,0.2
		c-0.7,0-1.4,0-2,0C52.5,33.2,52.5,33.2,52.5,33.1z"/>
	<path class="st1" d="M48.2,33.4c0.7-0.3,1.4-0.5,2.2-0.4c0.1,0,0.1,0.1,0.1,0.2c0,0.1-0.1,0.2-0.1,0.2
		C49.7,33.6,48.9,33.6,48.2,33.4z"/>
	<path class="st1" d="M55.2,77.9c-0.3,0.1-0.5,0.2-0.8,0.3c-0.4,0.1-0.8,0.2-1.2,0.2c0,0-0.1,0-0.2,0c-0.1,0-0.1-0.1-0.1-0.1
		s0-0.1,0-0.2c0-0.1,0-0.1,0.1-0.1C53.2,77.8,54.6,77.6,55.2,77.9z"/>
	<path class="st1" d="M50.9,73c0.3,0,0.5-0.1,0.8-0.1h0.1l0.1,0.1c0,0.1-0.1,0.2-0.1,0.2c-0.6,0.1-1.2,0.2-1.8,0.3
		c0,0-0.1,0-0.1-0.1l-0.1-0.1c0,0,0-0.1,0.1-0.1l0.1-0.1C50.2,73.1,50.6,73.1,50.9,73L50.9,73z"/>
	<path class="st1" d="M35.3,76.8c-0.7,0.2-1.3,0.3-2,0.5c-0.1,0-0.2-0.1-0.2-0.2c0-0.1,0-0.1,0-0.1l0.1-0.1c0.7-0.1,1.3-0.3,2-0.4
		L35.3,76.8z"/>
	<path class="st1" d="M40.7,75.6c-0.6,0.2-1.2,0.3-1.8,0.2c0,0-0.1-0.3,0-0.4C39.1,75.3,40.2,75.3,40.7,75.6z"/>
	<path class="st1" d="M60.3,75.4c-0.5,0.1-1,0.1-1.5,0.2c-0.1,0-0.2-0.1-0.2-0.1c0-0.1,0.1-0.2,0.2-0.3C59.1,75,60,75,60.3,75.4
		L60.3,75.4z"/>
	<path class="st1" d="M40.4,78.2c-0.7,0.1-1.3,0.4-2.1,0.2C38.9,77.9,40.1,77.7,40.4,78.2z"/>
	<path class="st1" d="M54.8,72.9c0.6-0.1,1.2-0.1,1.7-0.2h0.1l0.1,0.1c0,0,0,0.2-0.1,0.2c-0.5,0.1-1,0.1-1.6,0.2
		C55,73.2,54.9,73.1,54.8,72.9z"/>
	<path class="st1" d="M59,73.5l-0.7-0.4c0.1-0.1,0.3-0.3,0.4-0.3c0.3,0.1,0.5,0.2,0.8,0.3L59,73.5z"/>
	<path class="st2" d="M25.2,37.7l-0.3,0.4c-0.1-0.1-0.3-0.3-0.3-0.5c0-0.1,0.1-0.2,0.1-0.4L25.2,37.7z"/>
	<path class="st2" d="M26.9,65.2c0.2,0.3,0.3,0.4,0.3,0.5S27,65.9,27,66.1c-0.1-0.1-0.2-0.2-0.2-0.3C26.7,65.6,26.8,65.4,26.9,65.2z
		"/>
	<path class="st2" d="M26.8,67.2l0.4,0.5c-0.1,0-0.2,0.2-0.2,0.1c-0.1-0.2-0.3-0.3-0.4-0.5L26.8,67.2z"/>
	<path d="M37.5,54.6c0.1,0,0.2-0.1,0.3-0.2c0.1-0.1,0.2-0.1,0.3-0.2c0.3-0.1,0.5-0.2,0.8-0.3c0.5-0.2,1-0.4,1.5-0.5
		c0.4-0.1,0.8-0.3,1.2-0.5c0,0,0,0,0.1,0s0.1,0,0.1-0.1c0.1-0.2,0.1-0.3,0.2-0.5c0.1-0.2,0.2-0.5,0.3-0.7l0.3-0.6l0,0
		c0.1-0.2,0.1-0.2,0.4-0.3h0.1h0.1c0.1,0.1,0.2,0.2,0.4,0.3l0.7,0.6l0.8,0.7l0,0c0,0,0,0,0.1,0c0.2,0,0.5-0.1,0.7-0.1
		c0.6-0.1,1.3-0.2,1.9-0.2c0.4,0,0.8-0.1,1.3-0.1c0.3,0,0.6,0,0.9,0l0,0h0.1c0,0,0.1,0.1,0.1,0.2c0,0,0,0,0,0.1c0,0,0,0.1-0.1,0.1
		c-0.1,0.4-0.2,0.8-0.3,1.3c-0.2,0.7-0.4,1.3-0.6,2v0.1c0,0,0,0,0,0.1v0.1c0,0,0,0.1-0.1,0.1c0,0,0,0-0.1,0.1c0,0,0,0-0.1,0h-0.1
		c-0.3,0.1-0.6,0.3-0.9,0.4s-0.7,0.3-1,0.4c-0.4,0.2-0.8,0.3-1.2,0.5c-0.3,0.1-0.7,0.2-1.1,0.4c-0.2,0-0.3,0.1-0.5,0.1
		c-0.5,0-1,0.1-1.5,0.1c-0.3,0-0.5,0-0.8,0s-0.6,0.1-0.9,0.1c-0.2,0-0.5,0.1-0.7,0.1c-0.1,0-0.2,0-0.3,0.1c0,0,0,0-0.1,0
		c0,0,0,0-0.1,0c0,0,0,0,0-0.1c0,0,0,0,0-0.1l0,0l0,0c-0.1-0.2-0.3-0.4-0.4-0.6l-1.7-2.6C37.6,54.8,37.5,54.7,37.5,54.6z M49.7,52.4
		L49.7,52.4c-0.4,0.3-0.7,0.5-1,0.7c-0.7,0.5-1.5,1-2.3,1.3c-0.1,0.1-0.2,0.1-0.4,0.2c-0.2,0.1-0.3,0.2-0.5,0.3
		c-0.6,0.3-1.1,0.7-1.6,1.1l0,0l0,0l0,0l0,0c0.1,0.2,0.2,0.3,0.2,0.5c0.1,0.2,0.2,0.4,0.3,0.6c0,0,0,0,0.1,0
		c0.3-0.1,0.6-0.2,0.9-0.3c0.4-0.1,0.8-0.3,1.2-0.5c0.3-0.1,0.7-0.3,1-0.4c0.4-0.2,0.7-0.4,1.1-0.5c0,0,0,0,0-0.1
		c0.2-0.5,0.3-1,0.5-1.5c0.1-0.4,0.2-0.7,0.3-1.1C49.6,52.8,49.7,52.6,49.7,52.4L49.7,52.4z M37.8,54.8l2.2,2.9c0.1,0,0.1,0,0.2,0
		c0.3,0,0.5-0.1,0.8-0.1s0.6-0.1,0.9-0.1c0.5,0,1,0,1.4,0c0.3,0,0.6,0,1,0l0,0L44.1,57c-0.1-0.3-0.3-0.5-0.4-0.8l0,0l0,0l-0.5-0.1
		c-0.3-0.1-0.6-0.1-0.9-0.2c-0.3-0.1-0.6-0.1-0.9-0.1c-0.4-0.1-0.8-0.2-1.2-0.3c-0.7-0.2-1.3-0.3-1.9-0.5L37.8,54.8z M42.8,51.1
		c0,0.1-0.1,0.1-0.1,0.2c-0.1,0.2-0.2,0.3-0.2,0.5c-0.1,0.2-0.2,0.5-0.4,0.8c-0.2,0.6-0.5,1.2-0.7,1.8c-0.1,0.3-0.3,0.7-0.4,1
		c0,0,0,0,0,0.1c0.4,0.1,0.7,0.2,1.1,0.2c0.3,0,0.5,0.1,0.8,0.1c0.4,0.1,0.7,0.2,1.1,0.2l0,0c0,0,0,0,0-0.1c-0.3-0.5-0.4-1-0.4-1.5
		c-0.1-0.4-0.1-0.7-0.2-1.1c-0.1-0.5-0.2-1-0.4-1.5C42.9,51.6,42.9,51.3,42.8,51.1L42.8,51.1L42.8,51.1z M49.8,52.1L49.8,52.1
		c-1.5,0-3.1,0.1-4.6,0.4l0,0c0.4,0.4,0.8,0.7,1.2,1.1c0.1,0.1,0.3,0.2,0.5,0.4H47c0.3-0.2,0.6-0.3,0.9-0.5c0.6-0.4,1.2-0.8,1.7-1.3
		C49.6,52.2,49.7,52.1,49.8,52.1L49.8,52.1z M43.1,51.1L43.1,51.1c0.2,0.3,0.3,0.6,0.5,0.9s0.3,0.7,0.4,1c0.1,0.3,0.2,0.5,0.3,0.8
		s0.3,0.7,0.4,1l0.1,0.3c0.6-0.3,1.1-0.7,1.7-1L46.4,54c-0.1-0.1-0.2-0.2-0.3-0.2c-0.4-0.4-0.9-0.8-1.3-1.2c-0.4-0.3-0.8-0.7-1.2-1
		C43.6,51.5,43.4,51.3,43.1,51.1L43.1,51.1z M41.5,53.2L41.5,53.2L41.5,53.2c-0.3,0.1-0.6,0.2-0.9,0.3c-0.6,0.2-1.3,0.4-1.9,0.7
		l-0.6,0.2c-0.1,0-0.1,0.1-0.2,0.1l2.7,0.7L41.5,53.2z M43.1,51.4L43.1,51.4L43.1,51.4c0.1,0.3,0.1,0.5,0.2,0.6
		c0.1,0.4,0.2,0.8,0.3,1.3c0.1,0.3,0.1,0.6,0.2,1c0.1,0.4,0.1,0.8,0.2,1.1c0,0.1,0.1,0.2,0.1,0.4l0,0l0.7-0.5c0,0,0,0,0-0.1
		c-0.1-0.2-0.2-0.4-0.3-0.5c-0.2-0.4-0.4-0.8-0.6-1.3c-0.1-0.2-0.2-0.5-0.3-0.7s-0.2-0.5-0.4-0.8C43.2,51.7,43.2,51.6,43.1,51.4
		L43.1,51.4z"/>
	<path class="st4" d="M49.7,52.4c-0.1,0.2-0.1,0.4-0.1,0.6c-0.1,0.4-0.2,0.8-0.3,1.1c-0.1,0.5-0.3,1-0.5,1.5c0,0,0,0,0,0.1
		c-0.4,0.2-0.7,0.4-1.1,0.5c-0.3,0.1-0.7,0.3-1,0.4c-0.4,0.2-0.8,0.3-1.2,0.5c-0.3,0.1-0.6,0.2-0.9,0.3h-0.1
		c-0.1-0.2-0.2-0.4-0.3-0.6c-0.1-0.2-0.2-0.3-0.2-0.5l0,0l0,0l0,0l0,0c0.5-0.4,1.1-0.8,1.6-1.1c0.2-0.1,0.3-0.2,0.5-0.3
		c0.1-0.1,0.2-0.1,0.4-0.2c0.8-0.4,1.6-0.8,2.3-1.3C49.1,52.9,49.4,52.7,49.7,52.4L49.7,52.4z"/>
	<path class="st4" d="M37.8,54.8l0.4,0.1c0.6,0.2,1.3,0.3,1.9,0.5c0.4,0.1,0.8,0.2,1.2,0.3c0.3,0.1,0.6,0.1,0.9,0.1
		c0.3,0.1,0.6,0.1,0.9,0.2l0.5,0.1l0,0l0,0c0.1,0.3,0.2,0.5,0.4,0.8l0.2,0.5l0,0c-0.3,0-0.6,0-1,0c-0.5,0-1,0-1.4,0
		c-0.3,0-0.6,0-0.9,0.1s-0.5,0.1-0.8,0.1c-0.1,0-0.1,0-0.2,0L37.8,54.8L37.8,54.8z"/>
	<path class="st5" d="M42.7,51.1C42.7,51.2,42.7,51.2,42.7,51.1c0.1,0.3,0.1,0.5,0.2,0.8c0.1,0.5,0.3,1,0.4,1.5
		c0.1,0.4,0.1,0.7,0.2,1.1c0.1,0.5,0.2,1,0.3,1.4c0,0,0,0,0,0.1l0,0c-0.4-0.1-0.7-0.2-1.1-0.2c-0.2,0-0.5-0.1-0.8-0.1
		c-0.4,0-0.7-0.1-1.1-0.2c0,0,0,0,0-0.1c0.1-0.3,0.3-0.7,0.4-1c0.2-0.6,0.5-1.2,0.7-1.8c0.1-0.3,0.2-0.5,0.4-0.8
		c0.1-0.2,0.1-0.3,0.2-0.5C42.7,51.2,42.7,51.1,42.7,51.1z"/>
	<path class="st4" d="M49.8,52.1c-0.1,0-0.1,0.1-0.2,0.1c-0.6,0.4-1.1,0.9-1.7,1.3c-0.3,0.2-0.6,0.3-0.9,0.5h-0.1
		c-0.1-0.1-0.3-0.2-0.5-0.4c-0.4-0.4-0.8-0.7-1.2-1.1l0,0C46.7,52.2,48.2,52.1,49.8,52.1L49.8,52.1z"/>
	<path class="st5" d="M43.1,51.1L43.1,51.1c0.3,0.2,0.5,0.4,0.7,0.6c0.4,0.3,0.8,0.7,1.2,1c0.4,0.4,0.9,0.8,1.3,1.2
		c0.1,0.1,0.2,0.2,0.3,0.2l0.1,0.1c-0.6,0.3-1.2,0.6-1.7,1l-0.1-0.3c-0.2-0.3-0.3-0.7-0.4-1c-0.1-0.3-0.2-0.5-0.3-0.8
		c-0.1-0.4-0.3-0.7-0.4-1C43.5,51.7,43.3,51.4,43.1,51.1L43.1,51.1L43.1,51.1z"/>
	<path class="st4" d="M41.5,53.2l-0.9,2.1l-2.7-0.7c0.1,0,0.1-0.1,0.2-0.1l0.6-0.2c0.6-0.2,1.2-0.5,1.9-0.7
		C40.9,53.5,41.2,53.3,41.5,53.2L41.5,53.2L41.5,53.2z"/>
	<path class="st5" d="M43.1,51.4c0.1,0.1,0.2,0.3,0.2,0.5c0.1,0.3,0.2,0.5,0.4,0.8c0.1,0.3,0.2,0.5,0.3,0.7c0.2,0.4,0.4,0.9,0.6,1.3
		c0.1,0.2,0.2,0.4,0.3,0.5c0,0,0,0,0,0.1l-0.7,0.5l0,0c0-0.1-0.1-0.2-0.1-0.4c-0.1-0.4-0.2-0.8-0.2-1.1c-0.1-0.3-0.1-0.6-0.2-1
		c-0.1-0.4-0.2-0.8-0.3-1.3C43.2,51.9,43.2,51.7,43.1,51.4C43.1,51.5,43.1,51.5,43.1,51.4L43.1,51.4z"/>
	<path class="st6" d="M36.9,33.6c-0.3,0.7-0.8,1.1-1.6,1.3c-0.8,0.1-1.3-0.2-1.9-0.7c-1,1.5-1.9,1.7-3.4,0.6
		c-0.2,0.3-0.5,0.6-0.8,0.9c-0.2,0.1-0.4,0.2-0.6,0.3c-0.1,0-0.3,0-0.4-0.1c0.1-0.1,0.2-0.2,0.3-0.3c0.1-0.1,0.3-0.1,0.5-0.2
		c0.2-0.2,0.4-0.4,0.5-0.6s0.2-0.5,0.2-0.8c0-0.1,0.1-0.2,0.2-0.4c0.1,0.1,0.2,0.2,0.2,0.3c0.1,0.4,0.3,0.7,0.6,0.9
		c0.3,0.2,0.7,0.3,1,0.3c0.4,0,0.7-0.2,0.9-0.4c0.3-0.2,0.4-0.6,0.5-0.9c0-0.2,0.1-0.4,0.2-0.5c0.1,0.1,0.2,0.3,0.3,0.4
		c0.2,0.3,0.4,0.5,0.7,0.7c0.3,0.2,0.6,0.2,1,0.2c0.3-0.1,0.6-0.2,0.9-0.5c0.2-0.2,0.4-0.6,0.4-0.9c0-0.2,0.1-0.3,0.2-0.5
		c0.1,0.1,0.2,0.3,0.3,0.4c0.1,0.3,0.3,0.5,0.6,0.7C38,34,38.2,34,38.5,34c0.1,0,0.1,0,0.2,0c0.1,0.1,0.2,0.1,0.3,0.2
		c-0.1,0.1-0.2,0.2-0.2,0.2c-0.3,0-0.6,0-0.8-0.1c-0.3-0.1-0.5-0.2-0.7-0.4L36.9,33.6C37,33.6,37,33.6,36.9,33.6z"/>
	<path class="st6" d="M38.1,38.2c-0.3,0.7-0.8,1.1-1.6,1.2c-0.8,0.1-1.3-0.2-1.9-0.7c-1,1.5-1.9,1.7-3.4,0.6
		c-0.2,0.3-0.5,0.6-0.8,0.9c-0.2,0.1-0.4,0.2-0.6,0.3c-0.1,0-0.3,0-0.4-0.1c0.1-0.1,0.2-0.2,0.3-0.3c0.1-0.1,0.3-0.1,0.5-0.2
		c0.2-0.2,0.4-0.4,0.5-0.6s0.2-0.5,0.2-0.8c0-0.1,0.1-0.2,0.2-0.4c0.1,0.1,0.2,0.2,0.2,0.3c0.1,0.4,0.3,0.7,0.6,0.9
		c0.3,0.2,0.7,0.3,1,0.3c0.4,0,0.7-0.2,0.9-0.4c0.3-0.2,0.4-0.6,0.5-0.9c0-0.2,0.1-0.4,0.2-0.5c0.1,0.1,0.2,0.3,0.3,0.4
		c0.2,0.3,0.4,0.5,0.7,0.7c0.3,0.2,0.6,0.2,1,0.2c0.3-0.1,0.6-0.2,0.9-0.5c0.2-0.2,0.4-0.6,0.4-0.9c0-0.2,0.1-0.3,0.2-0.5
		c0.1,0.1,0.2,0.3,0.3,0.4c0.1,0.3,0.3,0.5,0.6,0.7s0.5,0.2,0.8,0.2c0.1,0,0.1,0,0.2,0c0.1,0.1,0.2,0.1,0.3,0.2
		c-0.1,0.1-0.2,0.2-0.2,0.2c-0.3,0-0.6,0-0.8-0.1c-0.3-0.1-0.5-0.2-0.7-0.4L38.1,38.2C38.2,38.2,38.2,38.2,38.1,38.2z"/>
	<path class="st6" d="M54.2,35.5c-0.3,0.7-0.8,1.1-1.6,1.3c-0.8,0.2-1.3-0.2-1.9-0.7c-1,1.5-1.9,1.7-3.4,0.6
		c-0.2,0.3-0.5,0.6-0.8,0.9c-0.2,0.1-0.4,0.2-0.6,0.3c-0.1,0-0.3,0-0.4-0.1c0.1-0.1,0.2-0.2,0.3-0.3c0.1-0.1,0.3-0.1,0.5-0.2
		c0.2-0.2,0.4-0.4,0.5-0.6s0.2-0.5,0.2-0.8c0-0.1,0.1-0.2,0.2-0.4c0.1,0.1,0.2,0.2,0.2,0.3c0.1,0.4,0.3,0.7,0.6,0.9
		c0.3,0.2,0.7,0.3,1,0.3c0.4,0,0.7-0.2,0.9-0.4c0.3-0.2,0.4-0.6,0.5-0.9c0-0.2,0.1-0.4,0.2-0.5c0.1,0.1,0.2,0.3,0.3,0.4
		c0.2,0.3,0.4,0.5,0.7,0.7c0.3,0.2,0.6,0.2,1,0.2c0.3-0.1,0.6-0.2,0.9-0.5c0.2-0.2,0.4-0.6,0.4-0.9c0-0.2,0.1-0.3,0.2-0.5
		c0.1,0.1,0.2,0.3,0.3,0.4c0.1,0.3,0.3,0.5,0.6,0.7s0.5,0.2,0.8,0.2c0.1,0,0.1,0,0.2,0c0.1,0.1,0.2,0.1,0.3,0.2
		c-0.1,0.1-0.2,0.2-0.2,0.2c-0.3,0-0.6,0-0.8-0.1c-0.3-0.1-0.5-0.2-0.7-0.4C54.4,35.7,54.3,35.6,54.2,35.5
		C54.3,35.6,54.2,35.6,54.2,35.5z"/>
	<path class="st6" d="M54.3,31.1c-0.3,0.7-0.8,1.1-1.6,1.3c-0.8,0.1-1.3-0.2-1.9-0.7c-1,1.5-1.9,1.7-3.4,0.6
		c-0.2,0.3-0.5,0.6-0.8,0.9c-0.2,0.1-0.4,0.2-0.6,0.3c-0.1,0-0.3,0-0.4-0.1c0.1-0.1,0.2-0.2,0.3-0.3c0.1-0.1,0.3-0.1,0.5-0.2
		c0.2-0.2,0.4-0.4,0.5-0.6s0.2-0.5,0.2-0.8c0-0.1,0.1-0.2,0.2-0.4c0.1,0.1,0.2,0.2,0.2,0.3c0.1,0.4,0.3,0.7,0.6,0.9
		c0.3,0.2,0.7,0.3,1,0.3c0.4,0,0.7-0.2,0.9-0.4c0.3-0.2,0.4-0.6,0.5-0.9c0-0.2,0.1-0.4,0.2-0.5c0.1,0.1,0.2,0.3,0.3,0.4
		c0.2,0.3,0.4,0.5,0.7,0.7s0.6,0.2,1,0.2c0.3-0.1,0.6-0.2,0.9-0.5c0.2-0.2,0.4-0.6,0.4-0.9c0-0.2,0.1-0.3,0.2-0.5
		c0.1,0.1,0.2,0.3,0.3,0.4c0.1,0.3,0.3,0.5,0.6,0.7c0.3,0.2,0.5,0.2,0.8,0.2c0.1,0,0.1,0,0.2,0c0.1,0.1,0.2,0.1,0.3,0.2
		c-0.1,0.1-0.2,0.2-0.2,0.2c-0.3,0-0.6,0-0.8-0.1c-0.3-0.1-0.5-0.2-0.7-0.4L54.3,31.1L54.3,31.1z"/>
	<path class="st6" d="M41.1,74.3c-0.3,0.7-0.8,1.1-1.6,1.2s-1.3-0.2-1.9-0.7c-1,1.5-1.9,1.7-3.4,0.6c-0.2,0.3-0.5,0.6-0.8,0.9
		c-0.2,0.1-0.4,0.2-0.6,0.3c-0.1,0-0.3,0-0.4-0.1c0.1-0.1,0.2-0.2,0.3-0.3s0.3-0.1,0.5-0.2c0.2-0.2,0.4-0.4,0.5-0.6
		c0.1-0.2,0.2-0.5,0.2-0.8c0-0.1,0.1-0.2,0.2-0.4c0.1,0.1,0.2,0.2,0.2,0.3c0.1,0.4,0.3,0.7,0.6,0.9c0.3,0.2,0.7,0.3,1,0.3
		c0.4,0,0.7-0.2,0.9-0.4c0.2-0.2,0.4-0.6,0.5-0.9c0-0.2,0.1-0.3,0.2-0.5c0.1,0.1,0.2,0.3,0.3,0.4c0.2,0.3,0.4,0.5,0.7,0.7
		c0.3,0.2,0.6,0.2,1,0.2c0.3-0.1,0.6-0.2,0.9-0.5c0.2-0.2,0.4-0.6,0.4-0.9c0-0.2,0.1-0.3,0.2-0.5c0.1,0.1,0.2,0.3,0.3,0.4
		c0.1,0.3,0.3,0.5,0.6,0.7c0.3,0.2,0.5,0.2,0.8,0.2c0.1,0,0.1,0,0.2,0c0.1,0.1,0.2,0.1,0.3,0.2C43.1,74.9,43,75,43,75
		c-0.3,0-0.6,0-0.8-0.1c-0.3-0.1-0.5-0.2-0.7-0.4L41.1,74.3C41.2,74.3,41.1,74.3,41.1,74.3z"/>
	<path class="st6" d="M42.3,79c-0.3,0.7-0.8,1.1-1.6,1.2s-1.3-0.2-1.9-0.7c-1,1.5-1.9,1.7-3.4,0.6c-0.2,0.3-0.5,0.6-0.8,0.9
		c-0.2,0.1-0.4,0.2-0.6,0.3c-0.1,0-0.3,0-0.4-0.1c0.1-0.1,0.2-0.2,0.3-0.3s0.3-0.1,0.5-0.2c0.2-0.2,0.4-0.4,0.5-0.6
		c0.1-0.2,0.2-0.5,0.2-0.8c0-0.1,0.1-0.2,0.1-0.4c0.1,0.1,0.2,0.2,0.2,0.3c0.1,0.4,0.3,0.7,0.6,0.9c0.3,0.2,0.7,0.3,1,0.3
		c0.4,0,0.7-0.2,0.9-0.4c0.3-0.2,0.4-0.6,0.5-0.9c0-0.2,0.1-0.4,0.2-0.5c0.1,0.1,0.2,0.3,0.3,0.4c0.2,0.3,0.4,0.5,0.7,0.7
		c0.3,0.2,0.6,0.2,1,0.2c0.3-0.1,0.6-0.2,0.9-0.5c0.2-0.2,0.4-0.6,0.4-0.9c0-0.2,0.1-0.3,0.2-0.5c0.1,0.1,0.2,0.3,0.3,0.4
		c0.1,0.3,0.3,0.5,0.6,0.7c0.3,0.2,0.5,0.2,0.8,0.2c0.1,0,0.1,0,0.2,0c0.1,0.1,0.2,0.1,0.3,0.2c-0.1,0.1-0.2,0.2-0.2,0.2
		c-0.3,0-0.6,0-0.8-0.1c-0.3-0.1-0.5-0.2-0.7-0.4L42.3,79C42.4,79,42.3,79,42.3,79z"/>
	<path class="st6" d="M58.4,76.3c-0.3,0.7-0.8,1.1-1.6,1.2s-1.3-0.2-1.9-0.7c-1,1.5-1.9,1.7-3.4,0.6c-0.2,0.3-0.5,0.6-0.8,0.9
		c-0.2,0.1-0.4,0.2-0.6,0.3c-0.1,0-0.3,0-0.4-0.1c0.1-0.1,0.2-0.2,0.3-0.3s0.3-0.1,0.5-0.2c0.2-0.2,0.4-0.4,0.5-0.6s0.2-0.5,0.2-0.8
		c0-0.1,0.1-0.2,0.2-0.4c0.1,0.1,0.2,0.2,0.2,0.3c0.1,0.4,0.3,0.7,0.6,0.9c0.3,0.2,0.7,0.3,1,0.3c0.4,0,0.7-0.2,0.9-0.4
		c0.3-0.2,0.4-0.6,0.5-0.9c0-0.2,0.1-0.4,0.2-0.5c0.1,0.1,0.2,0.3,0.3,0.4c0.2,0.3,0.4,0.5,0.7,0.7c0.3,0.2,0.6,0.2,1,0.2
		c0.3-0.1,0.6-0.2,0.9-0.5c0.2-0.2,0.4-0.6,0.4-0.9c0-0.2,0.1-0.3,0.2-0.5c0.1,0.1,0.2,0.3,0.3,0.4c0.1,0.3,0.3,0.5,0.6,0.7
		c0.3,0.2,0.5,0.2,0.8,0.2c0.1,0,0.1,0,0.2,0c0.1,0.1,0.2,0.1,0.3,0.2c-0.1,0.1-0.2,0.2-0.2,0.2c-0.3,0-0.6,0-0.9-0.1
		c-0.3-0.1-0.5-0.2-0.7-0.4L58.4,76.3L58.4,76.3z"/>
	<path class="st6" d="M58.4,71.9c-0.3,0.7-0.8,1.1-1.6,1.2s-1.3-0.2-1.9-0.7c-1,1.5-1.9,1.7-3.4,0.6c-0.2,0.3-0.5,0.6-0.8,0.9
		c-0.2,0.1-0.4,0.2-0.6,0.3c-0.1,0-0.3,0-0.4-0.1c0.1-0.1,0.2-0.2,0.3-0.3s0.3-0.1,0.5-0.2c0.2-0.2,0.4-0.4,0.5-0.6s0.2-0.5,0.2-0.8
		c0-0.1,0.1-0.2,0.2-0.4c0.1,0.1,0.2,0.2,0.2,0.3c0.1,0.4,0.3,0.7,0.6,0.9c0.3,0.2,0.7,0.3,1,0.3c0.4,0,0.7-0.2,0.9-0.4
		c0.3-0.2,0.4-0.6,0.5-0.9c0-0.2,0.1-0.3,0.2-0.5c0.1,0.1,0.2,0.3,0.3,0.4c0.2,0.3,0.4,0.5,0.7,0.7c0.3,0.2,0.6,0.2,1,0.2
		c0.3-0.1,0.6-0.2,0.9-0.5c0.3-0.3,0.4-0.6,0.4-0.9c0-0.2,0.1-0.3,0.2-0.5c0.1,0.1,0.2,0.3,0.3,0.4c0.1,0.3,0.3,0.5,0.6,0.7
		c0.3,0.2,0.5,0.2,0.8,0.2c0.1,0,0.1,0,0.2,0c0.1,0.1,0.2,0.1,0.3,0.2c-0.1,0.1-0.2,0.2-0.2,0.2c-0.3,0-0.6,0-0.8-0.1
		c-0.3-0.1-0.5-0.2-0.7-0.4L58.4,71.9C58.5,71.9,58.5,71.9,58.4,71.9z"/>
	<path d="M62.3,34.7c1.1,0,1.7,0.8,1.4,1.7c-0.3,0.7-1.1,1-2,0.7c-0.2-0.1-0.3-0.1-0.4-0.2c-0.1-0.1-0.2-0.2-0.3-0.4
		c-0.1-0.1-0.1-0.3-0.1-0.5c0-0.2,0-0.3,0.1-0.5C61.1,35,61.6,34.7,62.3,34.7z"/>
	<path d="M61.5,29.1c0-0.3,0.1-0.6,0.4-0.9c0.2-0.2,0.5-0.4,0.9-0.4s0.8,0.2,1,0.5c0.3,0.3,0.4,0.7,0.5,1c0,0.3-0.2,0.6-0.4,0.9
		c-0.2,0.2-0.6,0.4-0.9,0.3c-0.4,0-0.8-0.2-1-0.5C61.6,29.8,61.5,29.5,61.5,29.1z"/>
	<path d="M19.2,51.6c0-0.3,0.2-0.6,0.4-0.9c0.2-0.2,0.5-0.4,0.9-0.4s0.8,0.2,1,0.5c0.3,0.3,0.4,0.7,0.4,1.1c0,0.3-0.2,0.6-0.4,0.9
		c-0.2,0.2-0.6,0.3-0.9,0.3c-0.4,0-0.7-0.2-1-0.5C19.4,52.4,19.2,52,19.2,51.6z"/>
	<path d="M17.4,45.5c-0.2,0-0.4,0-0.5-0.1c-0.2,0-0.3-0.1-0.4-0.3c-0.1-0.1-0.2-0.3-0.3-0.4c-0.1-0.2-0.1-0.3-0.1-0.5
		c0-0.3,0.2-0.7,0.4-0.9c0.3-0.2,0.6-0.4,0.9-0.4c0.2,0,0.3,0,0.5,0.1c0.2,0.1,0.3,0.2,0.4,0.3c0.2,0.1,0.3,0.2,0.4,0.4
		c0.1,0.2,0.1,0.3,0.1,0.5s0,0.4-0.1,0.5c-0.1,0.2-0.2,0.3-0.3,0.4c-0.1,0.2-0.3,0.3-0.4,0.3C17.8,45.5,17.6,45.5,17.4,45.5z"/>
	<path d="M69.3,31.6c0.8,0,1.4,0.5,1.4,1.3c0,0.2,0,0.3-0.1,0.5s-0.2,0.3-0.3,0.4c-0.1,0.1-0.3,0.2-0.4,0.3
		c-0.2,0.1-0.3,0.1-0.5,0.1c-0.8,0-1.4-0.5-1.4-1.3S68.5,31.6,69.3,31.6z"/>
	<path d="M63.5,22.7c0.8,0,1.4,0.5,1.4,1.3c0,0.2,0,0.3-0.1,0.5c-0.1,0.2-0.2,0.3-0.3,0.4c-0.1,0.1-0.3,0.2-0.4,0.3
		c-0.2,0.1-0.3,0.1-0.5,0.1c-0.8,0-1.4-0.5-1.4-1.3C62.1,23.2,62.7,22.7,63.5,22.7z"/>
</g>
</svg>
