<?xml version="1.0" encoding="utf-8"?>
<!-- Generator: Adobe Illustrator 25.0.0, SVG Export Plug-In . SVG Version: 6.00 Build 0)  -->
<svg version="1.1" xmlns="http://www.w3.org/2000/svg" xmlns:xlink="http://www.w3.org/1999/xlink" x="0px" y="0px"
	 viewBox="0 0 86 91" style="enable-background:new 0 0 86 91;" xml:space="preserve">
<style type="text/css">
	.st0{fill:#F4E9E9;}
	.st1{fill:#A06A80;}
	.st2{fill:#FFD265;}
	.st3{fill:#8EC2D8;}
</style>
<g id="Capa_1">
	<rect class="st0" width="85.8" height="90.9"/>
</g>
<g id="Capa_2">
	<path class="st1" d="M28.7,65.1l0.5,0.5l1.1,1.1l1.6,1.1l0.8,0.6h1.6h2.5l2-1.1l2-1.6l2-2.5l1.1-2.5h2.5h3.1l2.5,1.1l1.6,1.1
		l0.7,0.6l0.6,0.8l0.3,0.6l1.1-0.5l3.1-1.1h2l1.6-0.5h2l2.4,0.5h2.3l2.5,1.3l1.7,0.3l2.3,2.5l0.8,0.6l1.1,2l0.5,2.1l-2,3.1l-5.2,5.7
		l-4.6,3.6l-3.9,2.5l-4.6,1.1l-7.7,0.5l-4.6-0.5l-5.2-1.6l-4.6-2.5l-3.1-3.1l-2-3.7L29,71.8l-1.1-4.1l-0.2-1.1"/>
	<path class="st1" d="M31.8,67.9l-4.6-1.2l-1.3-1.1l-1.8-0.1l-3.5,1.3l-2.2,0.4L15.9,68l-3-0.3l-3.5-1.2l-3.2-1.7l-2.1-1.5L2,61.8
		l1.3-1l3.1-1.7L7.8,59l-0.9-0.6L4,56.3l-1.4-1.6l1.1-0.5l3.2-0.9l2.5-0.1l3,0.3l2.7,0.6l2.4,0.7l2.5,1.6l2,2.1l2.8,3.3l1,1.3
		l0.9,1.1l1.6,0.5l1.1,1.1l1.1,1.1L31.8,67.9"/>
	<path d="M27.6,66.8c-1.4-0.9-2.9-0.9-4.5-0.4c-1.6,0.5-3.2,1.1-4.7,1.6c-2.8,0.9-5.6,0.7-8.4-0.4c-2.5-1-4.6-2.5-6.8-3.9
		c-0.4-0.4-1-0.7-1.4-1.1s-0.5-0.5,0-1c1.3-1.1,2.8-2,4.5-2.5c0.2,0,0.3-0.1,0.4-0.1c0,0,0,0,0.1-0.1c-0.8-0.5-1.6-1.1-2.3-1.7
		c-0.7-0.6-1.3-1.2-1.9-1.8c-0.4-0.4-0.4-0.6,0.2-0.9c1.8-1,3.6-1.3,5.5-1.5c4.6-0.4,8.8,1,12.5,3.8c1.7,1.3,3,3,4.1,4.7
		c0.4,0.6,0.8,1.2,1.2,1.8c0.1,0.2,0.3,0.3,0.4,0.4c0.2,0.2,0.4,0.3,0.6,0.4c1.4,0.4,2,1.1,2,1.1L27.6,66.8z M28.7,65.6
		c0.5-0.5-2.5-1.6-3.6-2.6c-0.4-0.5-0.8-1.1-1.1-1.7c-1.5-2.4-3.6-4.4-6.1-5.7c-1.8-1.1-3.9-1.8-6.1-1.9c-2.1-0.3-4.3-0.1-6.3,0.5
		c-0.9,0.3-1.8,0.5-2.6,0.8v0.1c0.2,0,0.4,0,0.4,0c0.7,0,1.5,0,2.2-0.1c2.8-0.3,5.6,0,8.2,0.8c4.2,1.3,7.7,3.6,10.3,7.2
		c0.4,0.4,0.8,0.8,1.4,1c0.3,0.1,0.5,0.3,0.8,0.4l-0.1,0.1c-0.2,0-0.3-0.1-0.4-0.1c-2.1-0.6-4.2-1.3-6.3-1.9c-3-0.9-6.1-1.4-9.2-1.6
		c-2.5-0.1-5,0.4-7.5,0.9c-0.1,0-0.2,0.1-0.3,0.1v0.1c1.1-0.1,2.1-0.2,3.2-0.2c4-0.1,8.1,0.3,12,1c2.6,0.4,5.3,1.1,7.9,2
		c0.1,0.1,0.3,0.1,0.4,0.2L25.8,65c-7.4-2.5-15.2-3.5-23-3c0.4,0.1,0.6,0.2,0.9,0.3c2.5,0.8,5,1.3,7.6,1.5c2.5,0.2,5.1,0.3,7.7,0.4
		c2.4,0.2,6.8,0.9,8.4,2.5L28.7,65.6z M19.6,61.7L19.6,61.7c-0.2,0-0.3,0-0.4-0.1c-1.4-0.5-2.8-1.2-4.3-1.7c-3.2-1-6.3-1.1-9.4,0.2
		c-0.7,0.3-1.4,0.6-2,1l0.1,0.1l0.3-0.1c3.2-0.7,6.4-0.9,9.6-0.5c2.9,0.4,5.7,1.1,8.4,2c0.8,0.3,1.6,0.5,2.4,0.7c0-0.1,0-0.1,0-0.1
		c-0.1-0.1-0.1-0.2-0.2-0.3c-1.7-2.1-3.8-3.9-6.1-5.3c-3.2-1.8-6.5-2.7-10.1-2.7c-1.3,0-2.6,0.2-3.9,0.2c-0.2,0-0.4,0-0.6,0
		c0.1,0.1,0.3,0.2,0.4,0.2c1.4,0.2,2.8,0.4,4.2,0.4c2,0.2,3.9,0.5,5.9,1.1c2.6,1,5.1,2.3,7.4,3.9c0.7,0.5,1.5,1.1,2.2,1.6l-0.1,0.1
		c-0.1,0-0.2-0.1-0.3-0.1c-1.9-1.1-3.9-2.4-5.9-3.5c-2.3-1.3-4.9-2.3-7.5-2.6c-1.8-0.3-3.5-0.4-5.3-0.6H4.2c2.1,1.3,4.6,1.9,6.9,2.5
		c-2.5,0.3-4.7-0.6-7-1.8c1.1,1,2.2,1.8,3.5,2.4c0.2,0.1,0.4,0.1,0.6,0.1c4.1-0.5,7.8,0.4,11.2,2.8C19.5,61.5,19.6,61.6,19.6,61.7z
		 M5.7,63.7L5.7,63.7c1.3,0.4,2.6,0.8,3.9,1.2c2.1,0.6,4.2,1,6.4,0.8c1.4-0.1,2.7-0.4,4.1-0.5c1.3-0.2,2.6-0.2,3.9,0.2
		c0.2,0,0.4,0,0.6,0c-0.1-0.1-0.2-0.2-0.3-0.2c-2.6-0.6-5.3-0.8-8.1-0.9c-3.8-0.1-7.5-0.4-11.1-1.4c-0.4-0.1-0.8-0.2-1.1-0.3v0.1
		L4.5,63v0.1l-1.3-0.4c0.2,0.2,0.2,0.2,0.3,0.3c1.9,1.4,3.9,2.7,6.1,3.6c3.2,1.4,6.6,1.7,9.9,0.4c1.1-0.4,2.4-0.8,3.6-1.1
		c0.3-0.1,0.5-0.1,0.8-0.2c-1-0.3-2.1-0.3-3.1,0c-4,1-8.1,0.8-12-0.7C7.6,64.4,6.6,64,5.7,63.7z"/>
	<path class="st2" d="M44.5,60l1.1-3.1l0.5-3.1v-2.5l0.5-3.6l0.9-2.5l0.4-1.4l2.3-3.6l0.9-4.5l0.3-3.1l0.5-0.5l0.5-0.5l0.7,0.7
		l1.2,1.2l1.1,1.8l3.1-0.5l3.1-0.5l5.2,0.5l4.6,1.1l2,0.5h1.1l1.6-1.6l2-1.6l1.1,0.5l0.5,0.5l0.5,1.1l2,4.1l1.6,7.7l-0.2,7.5
		l-0.4,3.4l-0.5,4.1L81,66.3L79,72l-1,0.7l0.2-2.5l-1.3-2.9l-3.3-2.9l-3.2-1.3l-4.6-0.6l-2.1,0.1L60.6,63l-2.8,0.6l-2,0.5l-0.5,0.4
		L54.6,63l-1.3-1.2l-2.5-1.1l-1.9-0.3l-2.8,0.2H45L44.5,60z"/>
	<path class="st3" d="M56.3,57.5l0.5,1.6v2.5l0.5,1.1l1.6,0.5h2l1.6-0.4l0.4-0.2l0.5-2.1v-2L63,58L62,56.9l-1.6-0.5v-1.6h-1.1
		l-0.5,1.6l-1.6,0.5L56.3,57.5z"/>
	<path class="st3" d="M60.9,46.7l-0.5,1.1l-0.3,1.7l-0.3,1.9v0.4h1.1l0.1-2.2l0.2-1.7L60.9,46.7z"/>
	<path d="M29.2,65.1c0,0,0.5,0.4,0.6,0.6c1,1.4,1.4,1.4,3,2.2c2.6-0.1,5.2-0.5,7.4-2.2c1.7-1.2,2.6-3.1,3.5-4.9
		c1.2-2.5,1.7-5.3,1.8-8.2c0.1-2.5,0.4-4.9,1.2-7.3c0.5-1.4,1.2-2.7,1.8-4.1c1.1-2.4,1.8-4.9,2-7.5c0-0.5,0.2-1.1,0.4-1.6
		c0.4-0.9,1.1-1.1,1.8-0.5c1.1,0.8,1.9,1.8,2.6,2.8c0.1,0.1,0.2,0.2,0.2,0.3c1.8-0.2,3.5-0.4,5.2-0.5c0.5-0.1,1.1-0.1,1.6-0.1
		c3.3-0.1,6.7,0.4,9.8,1.4c0.7,0.2,1.5,0.2,2.2,0.2c0.2,0,0.4-0.3,0.6-0.4c0.6-0.5,1.1-1.1,1.8-1.6c0.3-0.2,0.5-0.4,0.8-0.5
		c0.7-0.4,1.3-0.3,1.8,0.4c0.4,0.5,0.6,1.1,1,1.8c0.4,0.6,0.7,1.1,1.1,1.8c0.8,1.3,1.2,2.8,1.6,4.3c0.7,2.5,1.2,5.1,1.3,7.7
		c0.1,1.9,0,3.9-0.1,5.8c-0.5,5.6-1.9,11-4.5,16c-1.6,3.5-3.9,6.3-6.4,8.9c-3.8,3.8-8.2,6.7-13.3,8.2c-2.6,0.8-5.3,1.2-8.1,1.1
		c-3.9-0.2-7.8-0.8-11.5-2.2c-4.6-1.8-7.9-5.1-10-9.6c-1.4-3-2.2-6.2-2.5-9.5c0-0.7,0-0.7-0.5-1.2L29.2,65.1z M60.9,54.3l0.4,0.3
		c0.1-0.1,0.1-0.3,0.1-0.4c0-0.3,0-0.4-0.1-0.7h-0.5C60.8,53.8,60.8,54,60.9,54.3c-0.1-0.3-0.2-0.4-0.3-0.7l-0.1-0.1
		c-0.1,0-0.1,0-0.2,0s-0.2,0.1-0.2,0.2c-0.2,0.4,0,0.7,0.4,0.7L60.9,54.3z M59.7,54.5l-0.5,0.1l0.1-0.1l-0.2-0.1
		c0.3-0.6,0.2-1-0.3-1.1c-0.3,0.5-0.2,0.8,0.3,1.1L58,54.6c0.1,0.4,0.1,0.7,0.1,1.1c-0.1,0.4-0.2,0.7-0.4,1l1.3-0.1
		c0.1-0.5,0.2-1.1,0.3-1.7h0.1c-0.1,0.9-0.2,1.8-0.2,2.7h0.9c0.1-0.7,0.2-1.3,0.3-2l0,0v1h1.4l0.5-1.8l-1.8,0.1l-0.2,0.4l-0.1-0.4
		L59.7,54.5c0.2-0.7,0.1-0.9-0.3-1C59.3,54.1,59.3,54.2,59.7,54.5L59.7,54.5z M60.8,50.8c0-0.1,0.1-0.1,0.1-0.2
		c0.1-0.9,0.2-1.8,0.3-2.5c0-0.4-0.1-0.6-0.2-0.9c-0.6,0.3-0.8,0.7-0.8,1.3c0,0.4,0,0.7-0.1,1c-0.1,0.6-0.2,1.3-0.3,2
		c-0.2-0.3,0.1-0.7-0.4-0.7c-0.9,0.1-1.8,0.3-2.6,0.4c-0.2,0-0.3,0.1-0.4,0.2c-0.1,0.1-0.2,0.3-0.2,0.4c0,0.4,0.3,0.5,0.5,0.6
		c1.2,0.5,2.5,0.7,3.9,0.7c0.9,0,1.8-0.1,2.5-0.3c0.1,0,0.1,0,0.2-0.1l0.6-0.3v0.6c0.4,0.1,0.5,0,0.6-0.3l0.9-0.3
		c1.7-0.5,3.4-0.4,5.1-0.1c0.2,0,0.4,0.1,0.6,0.1v0.1c-0.1,0-0.2,0-0.3,0.1c-0.4,0-0.7,0-1,0c-1.9,0-3.8,0.4-5.5,1.1
		c-0.1,0-0.1,0-0.2,0.1c-0.3,0.3-0.5,0.4-0.8,0.7c-0.4,0.4-0.7,0.5-0.8,1.1c-0.1,0.8,0.1,1.3,0.7,1.8c0.4,0.3,0.8,0.4,1.2,0.6
		c0.4,0.1,0.9,0.1,1.3,0c0.7-0.2,1.4-0.4,2.1-0.7l1.1-0.4l0.1,0.2c-1.6,1-3.2,1.8-5.3,1.6c-0.2,1.2-0.4,2.5-0.5,3.7
		c0.2,0,0.3,0,0.4,0c1.1,0,2.1,0,3.2,0.1c2.4,0.2,4.7,0.9,6.8,2.1c1.9,1.1,3.4,2.6,4.1,4.8c0.2,0.6,0.4,1.3,0.5,2
		c0.3-0.5,0.5-1,0.7-1.4c1-2.1,2-4.1,2.1-6.4c0-0.2,0.1-0.4,0.1-0.6c0,0-0.1,0-0.1,0.1l-0.1,0.1c-0.2,0.4-0.3,0.8-0.4,1.1
		c-0.1,0.2-0.4,0.2-0.5,0.4c0-0.2,0-0.4,0-0.5c0.1-0.4,0.3-0.8,0.4-1.2c-0.3,0.4-0.4,0.6-0.6,1c-0.1,0.1-0.2,0.3-0.4,0.4
		c-0.1-0.2-0.1-0.3-0.1-0.4c0.1-0.5,0.2-1.1,0.2-1.6c-0.2,0.4-0.4,0.8-0.5,1.2c-0.1,0.2-0.2,0.4-0.4,0.2c0.1-0.5,0.1-1.1,0.2-1.5
		c-0.1,0.2-0.3,0.3-0.3,0.4c0,0.1-0.1,0.1-0.2,0.2c0-0.1-0.1-0.2-0.1-0.3c0.1-0.4,0.2-0.8,0.3-1.1c0-0.1,0.1-0.1,0.1-0.1
		c0.3,0.1,0.4-0.2,0.4-0.3c0.1-0.1,0.2-0.1,0.4-0.1l-0.1,0.9c0.1-0.2,0.3-0.4,0.4-0.5c0.1-0.1,0.3-0.2,0.4-0.2
		c0.1,0.1,0.1,0.3,0.1,0.4c0,0.4-0.1,0.8-0.2,1.1c0.3-0.4,0.5-0.8,0.7-1.2c0.1-0.1,0.2-0.2,0.3-0.3c0.1,0.1,0.1,0.3,0.2,0.4
		c0,0.1,0,0.3,0,0.4c0.2-0.3,0.4-0.6,0.4-0.9c0-0.1,0.1-0.1,0.1-0.1s0.1-0.1,0.2-0.1c0.1,0,0.2,0.2,0.2,0.3c0,0.2,0,0.4,0,0.5
		c0.1-0.1,0.2-0.2,0.2-0.4c0.2-0.9,0.4-1.7,0.5-2.5c0.1-0.5,0-1-0.5-1.2l0,0C82,57.2,82,57,81.9,56.8c-0.1-0.3,0-0.4,0.1-0.6
		c0.1-0.2,0.1-0.4,0.1-0.5c0.1-0.1,0.2-0.3,0.3-0.4c0.1,0.1,0.2,0.3,0.2,0.4c0.1,0.4,0.1,0.8,0.1,1.1c0.1-0.1,0.2-0.2,0.2-0.3
		c-0.4-0.4,0-0.7,0.2-1.1c0.1-0.2,0.2-0.3,0.2-0.4c0.1-0.8,0.1-1.6,0.2-2.4c0-0.1,0-0.3,0-0.3c-0.4-0.4-0.3-0.8-0.4-1.2
		c0-0.1,0-0.2-0.1-0.3c-0.1,0.4-0.2,0.9-0.2,1.3c-0.1,0.2-0.1,0.3-0.2,0.4c-0.2-0.1-0.4-0.2-0.4-0.4c-0.1-0.4-0.3-0.7-0.4-1.1
		c0,0.2-0.1,0.4-0.1,0.6c-0.1,0.2-0.2,0.3-0.3,0.4c-0.1-0.1-0.2-0.3-0.3-0.4c-0.1-0.4-0.1-0.7-0.2-1h-0.1c0,0.4,0,0.7,0,1
		c0,0.1-0.1,0.2-0.2,0.4c0.1-0.4-0.1-0.5-0.1-0.6c-0.1-0.2-0.2-0.4-0.3-0.6c-0.1,0.2-0.1,0.4-0.2,0.5c0,0.1-0.1,0.2-0.2,0.2
		c-0.1-0.1-0.2-0.1-0.2-0.2c-0.1-0.3-0.2-0.5-0.3-0.9l-0.1,0.1l-0.3,0.3c-0.1-0.1-0.1-0.2-0.2-0.4c-0.2-0.5,0.4-0.6,0.4-1.1h0.1
		l0.4,0.8c0.1-0.4,0.1-0.6,0.2-0.9c0.1-0.1,0.1-0.2,0.2-0.3c0.1,0.1,0.2,0.2,0.2,0.3c0.1,0.3,0.1,0.4,0.2,0.7
		c0.2-0.4,0.3-0.7,0.4-1.1c0-0.1,0.2-0.2,0.3-0.3c0.1,0.1,0.1,0.2,0.2,0.3c0.1,0.4,0.1,0.6,0.1,0.9c0.1-0.3,0.2-0.6,0.3-0.9
		c0.1-0.2,0.2-0.3,0.3-0.4c0.1,0.2,0.3,0.3,0.3,0.4c0.1,0.6,0.1,1.2,0.2,1.8c0.1-0.1,0.1-0.1,0.1-0.2c0.1-0.5,0.1-1.1,0.2-1.6
		c0-0.1,0.1-0.2,0.2-0.3c0.1,0.1,0.3,0.1,0.3,0.2c0.1,0.2,0.2,0.4,0.3,0.6c0.1-0.1,0.1-0.3,0.1-0.4c-0.1-1.3-0.2-2.6-0.4-3.9
		c-0.3-2.4-0.7-4.6-1.7-6.8c-0.4-0.8-0.8-1.7-1.1-2.5c-0.4-0.7-0.7-1.3-1.1-2c-0.4-0.7-1-0.8-1.7-0.4c-0.4,0.3-0.7,0.5-1.1,0.8
		c-0.6,0.5-1.1,1-1.8,1.5c-0.2,0.2-0.4,0.3-0.6,0.4c-0.8-0.1-1.5-0.2-2.3-0.4c-0.6-0.2-1.2-0.4-1.9-0.2c0.2,0.1,0.3,0.1,0.4,0.2
		c0.1,0.1,0.2,0.2,0.3,0.3c-0.1,0.1-0.2,0.1-0.4,0.2c-0.3,0-0.4,0-0.7,0l0.3,0.4l-0.4,0.2c0,0.2,0,0.3,0,0.4
		c-0.4,0.1-0.8,0.1-1.1,0.1c-0.3-0.1-0.6-0.2-0.8-0.4c-0.1,0-0.1-0.2-0.1-0.3h0.1l-0.3-0.4c0.2-0.1,0.3-0.1,0.4-0.1
		c0.2,0,0.4,0.1,0.5,0.1c-0.2-0.2-0.4-0.4-0.7-0.4c-0.1-0.1-0.3-0.3-0.4-0.4c0.2,0,0.3-0.1,0.4-0.1h0.1h0.1
		c-0.5-0.9-1.4-0.5-2.2-0.7l0.2,0.3l-0.4,0.4c-0.2-0.2,0,0,0,0.1c-0.1,0.1-0.2,0.2-0.3,0.3c0.1,0.1,0.2,0.3,0.2,0.4
		s-0.3,0.2-0.4,0.2l0.2,0.4C65,37,64.9,37,64.8,37c-0.2,0-0.3,0-0.4,0l0.3,0.4c-0.2,0-0.3,0.1-0.4,0.1c-0.1,0-0.2,0-0.2,0
		c-0.3,0.1-0.5,0.1-0.8,0c-0.3-0.1-0.4-0.3-0.6-0.4l0.7-0.1c-0.2-0.1-0.4-0.2-0.6-0.3c-0.1-0.1-0.2-0.2-0.2-0.3
		c0.1-0.1,0.2-0.1,0.4-0.1c0.3,0,0.5,0.1,0.9,0.1c-0.3-0.2-0.6-0.3-0.9-0.4c-0.1,0-0.2-0.2-0.2-0.2c0-0.1,0.1-0.2,0.2-0.2
		c-0.1-0.1-0.2-0.3-0.1-0.4c0.1-0.1,0.2-0.1,0.4-0.2l-0.6-0.4c-0.3,0-0.7,0-1.1,0c-0.3,0-0.4,0.1-0.2,0.4c0.1,0.1,0,0.2,0,0.3
		c0,0.1,0,0.2-0.1,0.3c-0.1,0.3,0.4,0.7-0.1,0.9c0,0.2,0,0.4,0,0.4c-0.3,0.2-0.5,0.3-0.8,0.3c-0.5,0-1-0.1-1.5-0.3
		c0,0-0.1,0-0.1-0.1c0,0,0-0.1-0.1-0.1c0-0.1,0.1-0.1,0.2-0.2c0.2,0,0.4,0,0.6,0c-0.4-0.1-0.7-0.2-0.8-0.4c-0.2-0.2-0.1-0.4-0.2-0.7
		l-0.2-0.3l0.5-0.4c-1.1,0-2.3,0.2-3.2,0.2c-0.2-0.2-0.4-0.4-0.5-0.5c-0.7-0.7-0.9-1.5-1.7-2.2c-0.4-0.4-0.7-0.7-1.2-0.5
		c-0.5,0.2-0.6,0.7-0.7,1.1c-0.2,1.1-0.3,2.1-0.4,3.1h-0.2c0,0.3,0,0.4,0,0.7c0,0.2-0.1,0.4-0.1,0.5c-0.1,1.1-0.4,2.3-0.9,3.3
		c-0.4,1-1,1.8-1.5,2.7c-0.4,0.7-0.7,1.4-1.1,2.1l0.1,0.1c0.2,0,0.4,0,0.4-0.1c0.3-0.3,0.4-0.1,0.5,0.1c0.4-0.3,0.4-0.2,0.5,0.2
		l0.1,0.5c0.1-0.1,0.2-0.2,0.2-0.4c0.1-0.1,0.1-0.2,0.2-0.3c0.1,0.1,0.2,0.1,0.3,0.2c0.4,0.4,0.2,0.7,0.1,1.1
		c-0.1,0.4-0.1,0.4-0.4,0.4l-0.4,0.4l-0.4-0.5c-0.1,0.3-0.1,0.5-0.2,0.9c0,0.1-0.1,0.1-0.1,0.1c-0.1,0-0.1,0.1-0.2,0.1
		c-0.1,0-0.2-0.1-0.2-0.2c0-0.1,0-0.1,0-0.2c-0.1,0.2-0.3,0.4-0.4,0.6l-0.6-0.4c-0.2,0.3-0.4,0.6-0.5,1c-0.1,0.6-0.2,1.2-0.2,1.8
		c0,0.1,0,0.3,0,0.4c0.2,0.2,0.3,0.4,0.4,0.5c0-0.1,0-0.2,0.1-0.4c0.1-0.1,0.1-0.2,0.2-0.3c0.1,0.1,0.2,0.2,0.3,0.2
		c0.1,0.1,0.1,0.1,0.2,0.1c0.4,0.1,0.7,0.9,0.4,1.1c-0.1,0.1-0.2,0.2-0.2,0.3c-0.1,0.1-0.1,0.2-0.1,0.3c-0.1,0.3-0.3,0.3-0.4,0.1
		c-0.1-0.1-0.1-0.2-0.1-0.2l-0.3,0.6l-0.4-0.2c-0.1,0.2-0.4,0.3-0.4,0.4c-0.1,0.7-0.1,1.5-0.1,2.2c0,0.1,0.3,0.2,0.4,0.2
		c0.4-0.4,0.4-0.1,0.5,0.3c0.2-0.3,0.3-0.4,0.5-0.1c0.4,0.4,0.2,1,0.2,1.5c0,0.2-0.1,0.3-0.2,0.4L47,58.2c-0.2,0.2-0.4,0.4-0.5,0.5
		L46.2,58c-0.1,0.3-0.4,0.4-0.6,0.2l-0.8,2.3h0.1c1.4-0.3,2.9-0.3,4.3-0.1c1.8,0.3,3.6,0.8,5,2.2c0.5,0.5,1,1.1,1.3,1.8l3-1.1
		c-0.4-0.1-0.9-0.3-1.3-0.4c-0.2-0.1-0.4-0.2-0.4-0.3c-0.1-0.2-0.2-0.4-0.2-0.5c0-0.7-0.1-1.4-0.2-2.1c-0.1-0.7-0.1-1.5-0.2-2.2
		c-1.8,0.3-4.7-0.6-5.5-1.7c0.4,0.1,0.7,0.2,1.1,0.3c0.6,0.2,1.1,0.5,1.8,0.7c0.8,0.3,1.7,0.3,2.5-0.1c1.4-0.7,1.7-1.9,0.6-3.1
		c-0.9-0.9-2-1.5-3.3-1.7c-1.4-0.2-2.8-0.3-4.1-0.4h-0.4v-0.2c2.4-0.4,4.6-0.6,6.9,0.5c-0.1-1,0.5-1.4,1.3-1.6
		c0.3-0.1,0.4-0.1,0.7-0.2c0.7-0.1,1.4-0.1,2.1-0.1c0.1-0.8,0.2-1.7,0.3-2.5c0-0.1,0-0.2,0-0.3c-0.3,0-0.6,0-0.9,0
		c-0.3-0.1-0.5-0.2-0.8-0.4c-0.2-0.3-0.3-0.4-0.4-0.7l0.1-0.1c0,0.1,0,0.3,0.1,0.4c0,0.1,0.1,0.2,0.2,0.3c0.1,0.1,0.2,0.2,0.3,0.2
		c0.1,0,0.3,0.1,0.4,0.1c0.6,0.1,1.1,0,1.6-0.5c0.1-0.1,0.1-0.2,0.1-0.3c0-0.1,0-0.2-0.1-0.3c-0.2-0.4-0.4-0.6-0.5-1
		c-0.2-0.4,0-0.5,0.4-0.5c0.4,0,0.9,0.1,1.4,0.2c0.3,0.1,0.4,0.3,0.2,0.5c-0.2,0.3-0.4,0.5-0.6,0.9c-0.1,0.1-0.2,0.3-0.2,0.4
		c0,0.2,0.1,0.4,0.3,0.5c0.2,0.2,0.4,0.3,0.5,0.4c0.2,0.1,0.4,0.1,0.6,0c0.2-0.1,0.4-0.2,0.5-0.4c0.1-0.1,0.2-0.2,0.2-0.3
		c-0.2,0.8-0.6,1-2,0.7c-0.1,0.8-0.2,1.6-0.3,2.4C61,50.4,60.9,50.6,60.8,50.8L60.8,50.8z M29.2,66.1c0,0.1-1.1,0.4-1.1,0.5
		c0.2,1,0.3,1.8,0.5,2.9c0.5,2.5,1.1,5.1,2.3,7.5c2.2,4.6,5.7,7.9,10.5,9.6c3.2,1.1,6.5,1.7,9.8,1.8c5,0.2,9.6-1.1,13.9-3.5
		c5-2.8,8.9-6.8,12.2-11.5c0.3-0.4,0.4-0.7,0.5-1.1c0.1-0.4,0.1-0.8,0-1.2c-0.1-0.3-0.1-0.5-0.2-0.8c-0.9-2.7-2.8-4.5-5.3-5.5
		c-2.5-1.1-5.1-1.6-7.8-1.6c-0.5,0-1.1-0.1-1.5,0.1c-0.8,0.4-1.6,0.4-2.4,0.4c-0.4,0-0.9,0-1.3,0.1c-1.1,0.4-2.4,0.7-3.5,1.1
		c-0.2,0.1-0.4,0.2-0.5,0.3c-0.1-0.1-0.1-0.1-0.2-0.2c-0.5-1.2-1.5-2-2.6-2.6c-1.6-0.9-3.2-1.2-5-1.2c-0.9,0-1.8,0.1-2.7,0.1
		c-0.1,0-0.3,0.1-0.4,0.2c-0.1,0.1-0.2,0.2-0.2,0.4c-0.2,0.4-0.4,1-0.7,1.4c-1.1,2-2.5,3.8-4.6,4.7c-1.8,0.8-4.3,1.2-6.2,1.2
		L29.2,66.1z M60.3,58c-0.4,0.4,0.2,1.2-0.9,1.1s-0.5-0.8-0.5-1.3l-2.2-0.4c0.1,1.3,0.2,2.6,0.4,3.9c0.1,0.8,0.3,1.1,1.1,1.1
		c0.6,0.1,1.2,0.2,1.8,0.2c0.8,0,1.5,0,2.3-0.1c0.5-0.1,0.7-0.3,0.8-0.8c0.2-1,0.3-2,0.4-3c0-0.1,0-0.3,0-0.4
		c-0.4-0.2-0.6-0.5-1-0.5C61.8,58,61.1,58,60.3,58L60.3,58z M60.3,57.5h1.9c-0.3-0.6-0.3-0.6-0.9-0.7H61
		C60.3,56.8,60.3,56.8,60.3,57.5L60.3,57.5z M59,56.8c-0.6,0.2-1.3-0.2-1.8,0.5c0.4,0.1,0.9,0.2,1.2,0.2
		C59.1,57.5,59.1,57.5,59,56.8L59,56.8z M60,57.9c-0.9-0.2-0.9-0.2-1,0.4c-0.1,0.4,0.1,0.6,0.5,0.5C60.3,58.9,59.9,58.2,60,57.9
		L60,57.9z M61.7,54.4c0.5-0.1,0.7-0.3,0.6-0.7c-0.1-0.2-0.2-0.4-0.4-0.3c-0.3,0.1-0.3,0.2-0.3,0.4C61.7,54,61.7,54.2,61.7,54.4
		L61.7,54.4z M62.7,54.1c0.5,0,0.2-0.6,0.5-0.8l0.2,0.4c0.1-0.1,0.3-0.2,0.3-0.3s0-0.2,0-0.4l-0.2-0.1
		C62.7,53.2,62.6,53.4,62.7,54.1L62.7,54.1z M58.3,54c0-0.3,0.2-0.6-0.4-0.6C57.8,54,57.9,54,58.3,54z"/>
	<path d="M82.3,57.2c0.2,0.4,0.3,0.7,0.4,1.1c0,0.1-0.2,0.3-0.3,0.4c-0.1-0.1-0.1-0.3-0.2-0.4c0-0.3-0.1-0.4-0.2-0.7
		C82,57.8,82,58,81.9,58.2c-0.1,0.1-0.1,0.3-0.2,0.4c-0.1-0.1-0.3-0.1-0.4-0.3c-0.1-0.2-0.1-0.4-0.1-0.6c0-0.3,0-0.5,0-0.8
		c-0.1,0.2-0.1,0.4-0.2,0.6c-0.1,0.1-0.2,0.2-0.3,0.3c-0.1-0.1-0.2-0.3-0.2-0.4c0-0.2,0-0.4,0-0.6c-0.1,0-0.1,0-0.1,0
		c-0.2,0.2-0.4,0.4-0.5,0.4c-0.1-0.2-0.1-0.4-0.2-0.6c0-0.2,0-0.4,0-0.6h-0.1c0,0.2-0.1,0.3-0.2,0.4c-0.1,0.1-0.1,0.2-0.2,0.3
		c-0.1-0.1-0.2-0.1-0.2-0.2c-0.1-0.4-0.1-0.8-0.2-1.1h0.2l0.2,0.4c0.1-0.3,0.2-0.5,0.4-0.8c0-0.1,0.1-0.1,0.2-0.2
		c0.1,0.1,0.2,0.2,0.2,0.2c0,0.4,0.1,0.8,0.2,1.1c0.1-0.4,0.2-0.7,0.3-1c0.1-0.1,0.2-0.3,0.4-0.4c0.1,0.1,0.1,0.3,0.2,0.4
		c0,0.3,0,0.4,0,0.7h0.1c0.1-0.4,0.2-0.8,0.3-1.1c0.1-0.2,0.2-0.3,0.3-0.4c0.1,0.2,0.2,0.3,0.2,0.4c0,0.4,0,0.8,0,1.1
		c-0.1,0.2,0,0.4,0.1,0.6C82,56.9,82.1,57.1,82.3,57.2L82.3,57.2z"/>
	<path d="M72,74.3c0,0.3-0.1,0.5-0.2,0.8c-0.2,0.3-0.4,0.4-0.6,0.6c-0.3,0.2-0.6,0.2-0.9,0.2c-0.3,0-0.6-0.1-0.9-0.3
		c-0.3-0.2-0.4-0.4-0.5-0.7c-0.2-0.5-0.4-0.9-1-1.1c-0.7-0.4-1-1.1-0.9-1.8c0-0.2,0.2-0.3,0.3-0.4c0.1,0.1,0.2,0.3,0.2,0.4
		c0,1.1,0.6,1.7,1.6,1.6c0.3-0.1,0.5-0.2,0.7-0.4c0.2-0.2,0.3-0.3,0.1-0.5c-0.2-0.3-0.3-0.6-0.2-0.9c0-0.4,0.2-0.6,0.4-0.8
		c0,0.4,0.1,0.7,0.1,1c0,0.2,0,0.3,0.1,0.4c0.1,0.2,0.2,0.3,0.3,0.4c0.1,0.1,0.3,0.2,0.4,0.2s0.4,0,0.4,0c0.2-0.1,0.4-0.2,0.6-0.3
		c0.2-0.2,0.3-0.4,0.4-0.5c0.1-0.2,0.2-0.4,0.3-0.5c0.2,0.4,0,1-0.4,1.4c-0.5,0.5-1.1,0.6-1.9,0.3c-0.4,0.3-0.7,0.5-1.1,0.9
		l-0.1,0.1c0,0.1,0,0.1,0,0.2c0.1,0.3,0.2,0.5,0.4,0.8c0.2,0.2,0.4,0.4,0.8,0.4c0.3,0,0.6,0,0.8-0.2c0.3-0.2,0.4-0.4,0.5-0.6
		c0.1-0.1,0.1-0.3,0.2-0.4L72,74.3z"/>
	<path d="M59.7,71.6c-0.2,0.2-0.4,0.3-0.4,0.4c-0.2,0.1-0.5,0.2-0.4,0.5c0,0.2,0.1,0.4,0.2,0.5c0.1,0.2,0.2,0.4,0.4,0.4
		c0.3,0.2,0.5,0.3,0.8,0.2c0.3,0,0.5-0.2,0.7-0.4c0.2-0.1,0.3-0.2,0.4-0.4c0,0.6-0.6,1.1-1.4,1.2c-1,0.1-1.6-0.6-1.7-1.8
		c-1.5-0.4-2.4-1.6-1.7-2.5c0.1,0.2,0.2,0.4,0.3,0.6c0.1,0.3,0.2,0.4,0.3,0.6c0.2,0.2,0.4,0.4,0.5,0.4c0.3,0.2,0.6,0.2,0.9,0.1
		s0.5-0.3,0.7-0.5c0.2-0.3,0.2-0.4,0.4-0.7c0-0.1,0.1-0.2,0.2-0.2c0.1,0,0.2,0.1,0.2,0.2c0,0.1,0.1,0.2,0.1,0.3
		c0,0.2,0.1,0.4,0.2,0.5c0.1,0.2,0.3,0.3,0.4,0.4c0.2,0.1,0.4,0.1,0.5,0.1c0.2,0,0.4-0.1,0.5-0.2c0.2-0.1,0.3-0.3,0.4-0.4
		c0.1,0,0.2-0.1,0.4-0.1c0,0.1,0,0.3,0,0.4c-0.4,0.6-1.3,0.9-2,0.5C60.1,71.8,59.9,71.8,59.7,71.6z"/>
	<path d="M43.3,80.2c-0.1,0.1-0.3,0.3-0.4,0.4c-0.5,0.5-0.7,1-0.5,1.4c0.2,0.5,0.7,0.8,1.4,0.8c0.3,0,0.5,0,0.8,0
		c-0.8,0.8-1.8,0.5-2.7-0.6c-0.7,0.3-1.4,0.4-2.1-0.1c-0.3-0.3-0.5-0.5-0.6-0.9c-0.1-0.3-0.2-0.5,0-0.9c0.1-0.3,0.3-0.5,0.5-0.6
		c-0.1,0.8-0.4,1.6,0.4,2c0.5,0.4,1.1,0.1,1.7,0l0.3-0.9c-0.6-0.1-1.1-0.4-1.4-1c-0.1-0.4-0.1-0.6-0.1-1c0.2-0.6,0.7-1.1,1.2-1
		c-0.4,0.5-1.1,1.1-0.6,1.9C41.6,80.7,42.5,80.4,43.3,80.2L43.3,80.2z"/>
	<path d="M46.6,68.3c-0.1,0.2-0.2,0.4-0.3,0.6c-0.2,0.2-0.3,0.4-0.2,0.7s0.2,0.4,0.4,0.6c0.7,0.7,1.8,0.6,2.4-0.3
		c0.1-0.2,0.3-0.4,0.4-0.5c0.2,0.7-0.4,1.4-1.2,1.7c-1.1,0.3-1.9-0.3-2.4-1.7c-0.3,0.1-0.6,0.1-1,0c-0.4-0.1-0.6-0.3-0.8-0.5
		c-0.2-0.2-0.4-0.4-0.4-0.6s-0.1-0.5-0.1-0.8c0-0.2,0.2-0.3,0.3-0.4c0.1,0.1,0.2,0.3,0.2,0.4c0.1,0.9,0.5,1.4,1.2,1.4
		c0.4,0,0.7-0.3,1.1-0.4c0.1-0.1,0.3-0.2,0.4-0.4L46.6,68.3z"/>
	<path d="M65.1,81.8c0.3,0.5,0,0.8-0.3,1.1c-0.4,0.4-1.1,0.5-1.8,0.3c-0.1,0.2-0.3,0.4-0.5,0.5c-0.2,0.2-0.4,0.3-0.6,0.3
		c-0.3,0.1-0.4,0-0.7,0c-0.3-0.1-0.4-0.2-0.6-0.3c-0.8-0.5-1-1.3-0.5-1.9l-0.3,0.2c0-0.1-0.1-0.1-0.1-0.2c0.1-0.2,0.2-0.5,0.3-0.5
		c0.3,0,0.3,0.3,0.3,0.5c0,0.4,0.1,1,0.4,1.3c0.1,0.2,0.3,0.3,0.4,0.4c0.2,0.1,0.4,0.1,0.5,0.1s0.4,0,0.5-0.1
		c0.2-0.1,0.4-0.2,0.4-0.3l0.1-0.1c0,0,0-0.1,0.1-0.2c0-0.1,0-0.1,0-0.2c0-0.1,0-0.1-0.1-0.1c-0.1-0.2-0.2-0.4-0.2-0.6
		c0-0.2,0-0.4,0.1-0.6c0-0.1,0.2-0.2,0.3-0.3c0,0.1,0.1,0.3,0.1,0.4c0,0.5,0,1.1,0.6,1.4c0.3,0.1,0.5,0.2,0.8,0.1
		c0.3-0.1,0.4-0.3,0.6-0.4C64.8,82.2,64.9,82.1,65.1,81.8z"/>
	<path d="M38.3,73.2c0-0.9,0.3-1.2,0.8-1.2c-0.1,0.2-0.1,0.3-0.2,0.4c-0.1,0.2-0.2,0.4-0.2,0.6c0,0.2,0.1,0.4,0.2,0.5
		c0.1,0.2,0.3,0.3,0.5,0.4c0.2,0.1,0.4,0.1,0.6,0s0.6-0.2,0.9-0.3l0.1,0.2c-0.2,0.2-0.4,0.4-0.6,0.5c-0.4,0.1-0.6,0.2-1,0.1
		c-0.4-0.1-0.6-0.3-0.9-0.5c-0.1-0.1-0.1-0.1-0.2-0.1s-0.2,0-0.2,0c-0.4,0.1-0.8,0.1-1.1-0.1c-0.4-0.2-0.6-0.4-0.8-0.8
		s-0.3-0.7-0.2-1.1c0.1-0.4,0.3-0.7,0.5-1l0.1-0.1c0.2-0.1,0.4-0.1,0.6-0.2c-0.1,0.2-0.2,0.4-0.3,0.4c-0.5,0.4-0.7,1.1-0.4,1.7
		C37,73.2,37.6,73.4,38.3,73.2z"/>
	<path d="M53.4,76.2c0.2,0.5,0,0.8-0.3,1.1c-0.4,0.4-0.4,0.6,0,1.1c0.8,0.9,2,0.7,2.6-0.4c0.1-0.1,0.1-0.2,0.2-0.4
		c0.1,0.6-0.4,1.3-1.1,1.6c-1.1,0.4-1.8,0-2.6-1.3c-1.1,0-1.8-0.4-2-1.3c0-0.2,0-0.4,0-0.6c0-0.1,0.2-0.2,0.3-0.3
		c0.1,0.1,0.1,0.2,0.2,0.4c0,0.2,0.1,0.3,0.1,0.4c0.1,0.6,0.4,1,0.9,1.1c0.3,0.1,0.5,0,0.8-0.1c0.3-0.1,0.4-0.3,0.6-0.5
		C53.1,76.6,53.2,76.4,53.4,76.2z"/>
	<path d="M33.1,76c-0.5-0.2-0.9-0.5-0.9-1.1c0-0.3,0.1-0.5,0.2-0.7c0.2-0.2,0.4-0.4,0.5-0.4c0.3-0.1,0.4-0.1,0.7-0.1
		c0.1,0,0.1,0.2,0.2,0.3c-0.1,0-0.2,0.1-0.3,0.1c-0.2,0-0.4,0-0.6,0.2c-0.2,0.1-0.3,0.3-0.4,0.4c-0.1,0.2-0.1,0.3,0,0.4
		c0,0.2,0.1,0.3,0.3,0.4c0.3,0.2,0.4,0.2,0.7-0.1c0.2-0.2,0.4-0.3,0.6-0.3s0.4,0.1,0.6,0.3c-0.2,0.1-0.4,0.2-0.5,0.3
		c-0.3,0.1-0.5,0.4-0.8,0.5c-0.4,0.4-0.2,1,0.4,1.3c0.4,0.2,0.7,0.4,1.1,0.5c-0.6,0.2-1.1,0-1.5-0.4c-0.3-0.2-0.4-0.4-0.5-0.7
		C33,76.6,33,76.2,33.1,76z"/>
	<path d="M32.8,71.7c-0.3,0.1-0.6,0-0.9-0.1c-0.3-0.1-0.5-0.4-0.6-0.6c-0.2-0.4-0.4-0.4-0.6-0.2c-0.1,0-0.2,0.1-0.2,0.2
		c-0.1,0.1-0.1,0.2-0.1,0.2c0,0.1,0,0.2,0,0.3c0,0.1,0.1,0.2,0.1,0.2c0.1,0.1,0.2,0.2,0.3,0.3c-0.1,0-0.2,0.1-0.2,0.1
		c-0.1,0-0.2,0-0.2,0c-0.1,0-0.1-0.1-0.2-0.1c-0.1-0.1-0.1-0.1-0.1-0.2c-0.2-0.5,0.1-1.1,0.7-1.3c0.3-0.2,0.5-0.4,0.8-0.5
		c0.3-0.2,0.6-0.3,0.9-0.4c0.1,0,0.2,0.1,0.3,0.2c-0.1,0.1-0.1,0.2-0.2,0.2c-0.2,0.1-0.4,0.2-0.5,0.3c-0.7,0.1-0.7,0.6-0.3,1
		c0.3,0.2,0.5,0.3,0.8,0.4C32.7,71.4,32.8,71.5,32.8,71.7z"/>
	<path d="M46.8,67.1c0.1,0.2,0.2,0.3,0.3,0.4c0.3,0.4,0.4,0.7,0.8,1c0.6,0.4,1.3,0.2,1.8-0.4c0.2-0.2,0.3-0.4,0.4-0.6
		c0.2,0.4-0.1,1-0.5,1.3c-0.4,0.3-0.7,0.4-1.1,0.4c-0.4,0-0.8-0.2-1.1-0.4C46.8,68.2,46.5,67.5,46.8,67.1z"/>
	<path d="M73.4,43.7c0,0.4-0.1,0.7-0.2,1.1l0.4,0.5l-0.1,0.1c-0.4,0-0.7-0.9-1.1-0.1c0.1,0.2,0.2,0.3,0.3,0.4c0,0.1,0,0.2,0,0.3
		c-0.1,0-0.2,0-0.3-0.1c-0.1,0-0.1-0.1-0.1-0.2c-0.1-0.4-0.4-0.4-0.6-0.2c0,0.3,0.1,0.5,0.1,0.9l-0.1,0c-0.1-0.2-0.2-0.4-0.2-0.5
		c0-0.1,0-0.1,0-0.2c0-0.1-0.1-0.1-0.1-0.1s-0.1-0.1-0.2-0.1c-0.1,0-0.1,0-0.2,0c-1.3-0.2-2.1-1.1-1.9-2.2c0-0.1,0-0.2,0.1-0.3
		c0.1-0.1,0.2-0.2,0.3-0.2c0.1,0.1,0.3,0.2,0.2,0.3c-0.1,0.3-0.1,0.5,0,0.8c0.1,0.3,0.3,0.4,0.5,0.6s0.6,0.4,1,0.4
		c0.4,0.1,0.7,0,1.1-0.1c0.2-0.1,0.4-0.2,0.5-0.4c0.2-0.2,0.3-0.4,0.4-0.5C73.3,43.9,73.3,43.7,73.4,43.7L73.4,43.7z"/>
	<path d="M54.7,44l-0.5,0.5L54,44.4l0.3-0.7L54,43.3c-0.2,0.1-0.4,0.3-0.5,0.4c-0.1,0-0.2,0-0.3,0c0-0.1,0-0.3,0.1-0.3
		c0.5-0.3,0.5-0.7,0.4-1.1c0-0.2,0-0.3,0.1-0.4h0.1c0,0.2,0.1,0.3,0.1,0.4c0.1,0.4,0.2,0.7,0.4,1c0.3,0.3,0.5,0.4,0.9,0.5
		C56,44,56.5,43.6,57,43c0.1-0.1,0.3-0.2,0.4-0.3c0,0.2,0.1,0.4,0,0.4c-0.3,0.6-0.8,1-1.8,1.1c0,0.3-0.1,0.5-0.1,0.9h-0.2
		c-0.1-0.1-0.1-0.3-0.1-0.4c0.1-0.4-0.1-0.6-0.4-0.7C54.9,44,54.8,44,54.7,44z"/>
	<path d="M64.7,52.9c-0.2-0.1-0.3-0.2-0.4-0.3l-0.1-0.1c0-0.1,0-0.1,0-0.2c0.2-0.5,0-1-0.6-1.1c-0.8-0.2-1.6-0.4-2.4-0.6
		c0.2,0,0.4,0,0.6,0c0.6,0.1,1.2,0.2,1.8,0.3C64.6,51.1,64.9,51.8,64.7,52.9L64.7,52.9z"/>
	<path d="M62,52.1c0.3-0.2,0.3-0.4-0.1-0.4c-0.4-0.1-0.7-0.2-1.1-0.2c-0.3,0.5-0.4,0.6-1.1,0.4l0.8-0.1c0-0.3,0.1-0.6,0.1-0.9
		l0.2,0.5c0.4,0,0.8,0,1.2,0c0.3,0,0.5,0.2,0.4,0.4c0,0.1,0,0.1-0.1,0.2c0,0.1-0.1,0.1-0.1,0.1c-0.1,0-0.1,0.1-0.2,0.1
		C62.2,52.1,62.1,52.1,62,52.1L62,52.1z"/>
	<path d="M62,52.1L62,52.1c-0.1,0-0.2,0.1-0.2,0.1c-0.8,0-1.6,0-2.4,0c-0.1,0-0.2-0.1-0.4-0.3c1,0,1.8,0,2.7,0
		C62,52,62,52.1,62,52.1z"/>
	<path d="M57.9,52.5c-0.3-0.1-0.4-0.2-0.6-0.3c-0.1-0.1-0.1-0.2-0.1-0.3s0-0.2,0.1-0.3c0.2-0.2,0.4-0.3,0.7-0.4
		c-0.4,0.4-0.7,0.7,0.1,1.1L57.9,52.5z"/>
	<path d="M59.4,51.2l-0.4,0.6l-0.2,0.4c-0.1-0.1-0.3-0.1-0.3-0.2c0-0.2,0-0.4,0.1-0.4C58.9,51.4,59.2,51.3,59.4,51.2z"/>
	<path class="st1" d="M28.2,64.9l0.8,0.5c0.2,0.1,0.4,0.3,0.4,0.5l0.4,0.7l-1.1,1.6c-0.1,0-0.5-1.1-0.5-1.1l-0.3-0.3l-0.6-0.5
		L28.2,64.9z"/>
	<path d="M68.7,28.7c1.2,0,1.9,0.9,1.6,1.9c-0.3,0.8-1.3,1.1-2.2,0.8c-0.2-0.1-0.4-0.2-0.4-0.3c-0.3-0.2-0.4-0.3-0.4-0.4
		c-0.1-0.2-0.2-0.4-0.2-0.5s0-0.4,0.1-0.5C67.3,29,67.9,28.6,68.7,28.7z"/>
	<path d="M61.8,30.4c0-0.4,0.2-0.7,0.4-1c0.2-0.3,0.5-0.4,1-0.4c0.4,0,0.9,0.3,1.1,0.5c0.3,0.4,0.4,0.8,0.5,1.2c0,0.4-0.2,0.7-0.4,1
		c-0.3,0.3-0.6,0.4-1,0.4c-0.4,0-0.9-0.2-1.1-0.5C62,31.2,61.8,30.8,61.8,30.4z"/>
	<path d="M22.4,54.7c0-0.4,0.2-0.7,0.4-1s0.6-0.4,1-0.4c0.4,0,0.9,0.3,1.1,0.5c0.3,0.4,0.4,0.7,0.5,1.1c0,0.4-0.2,0.7-0.4,1
		c-0.3,0.3-0.6,0.4-1,0.4c-0.4,0-0.8-0.3-1.1-0.5C22.7,55.4,22.5,55.1,22.4,54.7z"/>
	<path d="M20.5,47.8c-0.2,0-0.4,0-0.6-0.1c-0.2-0.1-0.4-0.2-0.5-0.4c-0.2-0.2-0.3-0.3-0.4-0.5c-0.1-0.2-0.1-0.4-0.1-0.6
		c0-0.4,0.2-0.8,0.4-1.1c0.3-0.3,0.7-0.4,1.1-0.4c0.2,0,0.4,0,0.6,0.1c0.2,0.1,0.4,0.2,0.5,0.4c0.2,0.2,0.3,0.3,0.4,0.4
		S22,46,22,46.1s0,0.4-0.1,0.6s-0.2,0.4-0.4,0.5s-0.4,0.3-0.5,0.4C20.8,47.7,20.7,47.8,20.5,47.8z"/>
	<path d="M66.6,24.2c1,0,1.6,0.6,1.6,1.5c0,0.2-0.1,0.4-0.2,0.5c-0.1,0.2-0.2,0.4-0.4,0.4c-0.2,0.1-0.3,0.3-0.5,0.3
		C67,27,66.8,27,66.6,27c-0.9,0-1.6-0.6-1.6-1.4S65.7,24.2,66.6,24.2z"/>
</g>
</svg>
