<?xml version="1.0" encoding="utf-8"?>
<!-- Generator: Adobe Illustrator 25.0.0, SVG Export Plug-In . SVG Version: 6.00 Build 0)  -->
<svg version="1.1" id="Capa_1" xmlns="http://www.w3.org/2000/svg" xmlns:xlink="http://www.w3.org/1999/xlink" x="0px" y="0px"
	 viewBox="0 0 86 91" style="enable-background:new 0 0 86 91;" xml:space="preserve">
<style type="text/css">
	.st0{fill:#F4E9E9;}
	.st1{fill:#A06A80;}
	.st2{fill:#FFD265;}
	.st3{fill:#8EC2D8;}
</style>
<g id="Capa_1_1_">
	<rect class="st0" width="85.8" height="90.9"/>
</g>
<path d="M47.1,85.7c-3.4,0-6.9-0.1-10.3-0.1c-2.1,0-4.1,0.2-6.2,0.2c-2.2,0.1-4.3-0.2-6.4-0.8c-1.4-0.3-2.7-1-3.8-2.1
	c-1.5-1.3-2.2-3-2.3-5C18,76.6,18,75.4,18,74.1c0-2.5,0-5,0-7.5c0-2.1,0-4.3,0.5-6.4c0.5-2,1.3-3.7,3-5c1.3-1,2.8-1.5,4.4-1.7
	c2.3-0.3,4.5-0.3,6.8-0.2c3.8,0.3,7.7,0.3,11.6,0.2c5.3,0,10.6-0.1,15.9-0.1c2.6,0,5.3,0.3,7.8,1c1.1,0.3,2.2,0.8,3.1,1.6
	c1.4,1.1,2.1,2.6,2.4,4.4c0.3,1.4,0.3,2.9,0.3,4.3c-0.1,3.7-0.3,7.4-0.3,11.1c0,0.2,0.1,0.4,0.1,0.6c0,0.1,0,0.3,0,0.3
	c-0.1,1.7-0.3,3.4-0.3,5.1c0,0.3,0,0.6-0.4,0.6c-0.1,0-0.2,0.1-0.2,0.2c-0.6,1.5-1.8,2.3-3.4,2.5c-2.2,0.5-4.4,0.6-6.7,0.7
	c-4.4,0.2-8.7,0-13.1-0.2c-0.9,0-1.7-0.1-2.5-0.1L47.1,85.7z M22.9,56.2c0.2,0.2,0.3,0.3,0.3,0.3c0.8,0.6,1.6,1.3,2.4,1.8
	c2.3,1.6,4.6,3,6.9,4.5c1,0.7,2.1,1.5,3.1,2.3c1.4,1,2.9,2,4.3,3c1,0.7,2,1.3,3,1.9c0.1,0.1,0.3,0.1,0.3,0.1c0.2,0,0.3,0,0.4,0.1
	c0.2,0.1,0.3,0.2,0.3,0.3c0,0.1,0.1,0.1,0.2,0.2c1.3,0.6,2.7,0.9,4.1,0.5c1.4-0.3,2.6-1,3.8-1.7c4.2-2.6,8.4-5.2,12.5-7.8
	c2.1-1.3,4.3-2.6,6.5-3.7c-0.5-0.3-0.9-0.7-1.4-1c-1-0.6-2.1-1-3.2-1.2c-2.6-0.6-5.3-0.8-7.9-0.8c-6.5,0-13.1,0.2-19.5,0.2
	c-3.1,0-6.2-0.2-9.3-0.3c-1.9-0.1-3.8,0.1-5.7,0.8C23.7,55.8,23.3,55.9,22.9,56.2L22.9,56.2z M22,82.4c0.2,0.1,0.3,0.2,0.4,0.3
	c1.5,0.8,3,1.2,4.6,1.5c1.9,0.3,3.8,0.3,5.7,0.2c2.9-0.1,5.7-0.3,8.5-0.2c5.3,0.1,10.6,0.4,16,0.5c3.7,0.1,7.5-0.1,11.1-0.6
	c0.4-0.1,0.9-0.2,1.4-0.3c-0.7-0.6-1.3-1-1.9-1.6c-1-1-2.3-1.8-3.6-2.5c-2-1-3.8-2.3-5.4-3.9c-1.8-1.7-3.7-3.1-5.8-4.4
	c-0.6-0.3-1-0.4-1.7,0c-1,0.6-2.2,1-3.4,1.3c-1.7,0.3-3.1-0.1-4.6-0.8c-0.2-0.1-0.3-0.1-0.4,0c-1.1,0.6-2.2,1.2-3.4,1.7
	c-4,1.7-8,3.7-11.9,5.6C25.7,80.2,23.9,81.3,22,82.4z M21.7,57.3c-0.6,0.7-1.1,1.6-1.4,2.5c-0.6,1.9-0.7,3.9-0.7,5.9
	c0,2.1,0.1,4.3,0.1,6.4c0,1.9,0,3.7,0.1,5.7c0.1,1.3,0.5,2.5,1.2,3.6c0.2,0.3,0.4,0.4,0.8,0.3c0.8-0.4,1.6-0.8,2.3-1.3
	c3.6-2.3,7.4-4.1,11.2-6c2-1,4.1-2,6.1-3c0.1-0.1,0.3-0.2,0.3-0.3l-0.3-0.2c-1.9-1.3-3.8-2.5-5.7-3.8c-2-1.4-4-3-6.1-4.4
	c-1.4-1-3-1.7-4.4-2.7C24.1,59.2,22.9,58.2,21.7,57.3z M71.1,82.8c0.3-0.5,0.6-1.1,0.7-1.7c0.3-1.2,0.3-2.5,0.8-3.7
	c0-0.1,0-0.2,0-0.2c0.1-3.9,0.2-7.8,0.2-11.7c0-1.5,0-3-0.3-4.4c-0.2-1-0.6-2-1.2-2.8c-0.2,0.2-0.3,0.3-0.5,0.4
	c-1.7,1.4-3.5,2.7-5.4,3.8c-3.3,2.1-6.6,4.1-9.8,6.2c-0.8,0.5-1.7,1-2.4,1.7c0.1,0.1,0.1,0.1,0.1,0.1c2.1,1,3.9,2.4,5.7,3.9
	c1.4,1.1,2.7,2.3,4.3,3.2c0.5,0.3,1,0.6,1.5,0.9c1.7,0.8,3.1,1.9,4.5,3.1C69.9,82,70.5,82.4,71.1,82.8z"/>
<path class="st1" d="M22.9,56.2c0.4-0.2,0.9-0.4,1.3-0.6c1.8-0.7,3.7-0.9,5.7-0.8c3.1,0.1,6.2,0.3,9.3,0.3c6.5,0,13.1-0.1,19.5-0.2
	c2.7,0,5.3,0.1,7.9,0.8c1.1,0.3,2.3,0.6,3.2,1.2c0.5,0.3,0.9,0.7,1.4,1c-2.3,1.1-4.4,2.4-6.5,3.7c-4.2,2.6-8.4,5.2-12.5,7.8
	c-1.2,0.8-2.4,1.4-3.8,1.7c-1.5,0.3-2.8,0.1-4.1-0.5c-0.1,0-0.2-0.1-0.2-0.2c-0.1-0.2-0.2-0.3-0.3-0.3c-0.2-0.1-0.3-0.1-0.4-0.1
	c-0.1,0-0.3,0-0.3-0.1c-1-0.6-2-1.3-3-1.9c-1.5-1-2.9-2-4.3-3c-1-0.8-2.1-1.6-3.1-2.3c-2.3-1.6-4.6-3-6.9-4.5
	c-0.9-0.6-1.7-1.2-2.4-1.8C23.1,56.5,23,56.4,22.9,56.2z"/>
<path class="st2" d="M22,82.4c1.9-1,3.7-2.2,5.7-3.1c3.9-2,7.9-3.8,11.9-5.6c1.1-0.5,2.3-1.1,3.4-1.7c0.2-0.1,0.3-0.1,0.4,0
	c1.5,0.7,3,1,4.6,0.8c1.2-0.2,2.3-0.6,3.4-1.3c0.6-0.3,1-0.3,1.7,0c2.1,1.3,4.1,2.7,5.8,4.4c1.7,1.6,3.5,2.9,5.5,3.9
	c1.3,0.7,2.5,1.6,3.6,2.5c0.6,0.5,1.2,1,1.9,1.6c-0.5,0.1-1,0.3-1.4,0.3c-3.7,0.5-7.5,0.7-11.1,0.6c-5.3-0.2-10.6-0.4-16-0.5
	c-2.9-0.1-5.7,0.1-8.5,0.2c-1.9,0.1-3.8,0.1-5.7-0.2c-1.7-0.3-3.2-0.7-4.6-1.5C22.3,82.6,22.1,82.5,22,82.4z"/>
<path class="st3" d="M21.7,57.3c1.3,1,2.4,1.8,3.7,2.7c1.4,1,3,1.7,4.4,2.7c2.1,1.4,4,3,6.1,4.4c1.9,1.3,3.8,2.5,5.7,3.8l0.3,0.2
	c-0.1,0.1-0.3,0.2-0.3,0.3c-2,1-4.1,2-6.1,3c-3.8,1.9-7.7,3.7-11.2,6c-0.8,0.5-1.6,0.9-2.3,1.3c-0.3,0.2-0.5,0.1-0.8-0.3
	c-0.8-1-1.2-2.3-1.2-3.6c-0.2-2-0.2-3.9-0.2-5.8c0-2.1,0-4.3-0.1-6.4c0-2,0.1-4,0.7-5.9C20.5,58.9,21,58,21.7,57.3z"/>
<path class="st3" d="M71.1,82.8c-0.6-0.4-1.3-0.9-1.8-1.3c-1.4-1.2-2.9-2.3-4.5-3.1c-0.5-0.3-1-0.5-1.5-0.9
	c-1.6-0.9-2.9-2.1-4.3-3.2c-1.7-1.5-3.7-2.9-5.7-3.9l-0.1-0.1c0.8-0.5,1.6-1.1,2.4-1.7c3.3-2.1,6.6-4.1,9.9-6.2
	c1.9-1.1,3.7-2.4,5.4-3.8c0.2-0.2,0.3-0.3,0.5-0.4c0.6,0.9,1,1.8,1.2,2.8c0.3,1.5,0.3,3,0.3,4.4c0,3.9-0.1,7.8-0.2,11.7
	c0,0.1,0,0.2,0,0.2c-0.5,1.2-0.5,2.5-0.8,3.7C71.7,81.7,71.4,82.3,71.1,82.8z"/>
<path d="M70.5,48.9c0.8,0.8,1.7,0.6,2.2-0.3c0.3-0.7-0.1-1.5-0.9-1.9c-0.2-0.1-0.3-0.1-0.4-0.1s-0.3,0-0.4,0.1
	c-0.2,0.1-0.3,0.2-0.4,0.3c-0.1,0.1-0.3,0.3-0.3,0.3C69.8,47.9,69.9,48.5,70.5,48.9z"/>
<path d="M12.2,58.2c0.3,0.3,0.3,0.5,0.3,0.9s-0.2,0.6-0.3,0.9c-0.3,0.3-0.7,0.3-1,0.3s-0.8-0.2-1-0.4c-0.2-0.3-0.3-0.5-0.3-0.9
	s0.2-0.6,0.3-0.9c0.3-0.3,0.7-0.3,1-0.3C11.5,57.8,11.9,57.9,12.2,58.2z"/>
<path d="M68.3,52.8c0.6,0.5,1.3,0.6,1.8,0c0.1-0.1,0.2-0.3,0.3-0.4s0.1-0.3,0.1-0.5s-0.1-0.3-0.1-0.5c-0.1-0.2-0.2-0.3-0.3-0.4
	c-0.6-0.5-1.3-0.6-1.8-0.1C67.6,51.6,67.7,52.3,68.3,52.8z"/>
<path d="M15,64c-0.6,0.6-1.3,0.6-1.8,0c-0.1-0.1-0.2-0.3-0.3-0.4s-0.1-0.3-0.1-0.5c0-0.2,0.1-0.3,0.1-0.5c0.1-0.2,0.2-0.3,0.3-0.4
	c0.7-0.3,1.5-0.3,2,0.2C15.7,62.8,15.7,63.5,15,64z"/>
</svg>
