<?xml version="1.0" encoding="utf-8"?>
<!-- Generator: Adobe Illustrator 25.0.0, SVG Export Plug-In . SVG Version: 6.00 Build 0)  -->
<svg version="1.1" id="Capa_1" xmlns="http://www.w3.org/2000/svg" xmlns:xlink="http://www.w3.org/1999/xlink" x="0px" y="0px"
	 viewBox="0 0 86 91" style="enable-background:new 0 0 86 91;" xml:space="preserve">
<style type="text/css">
	.st0{fill:#F4E9E9;}
	.st1{fill:#8EC2D8;}
	.st2{fill:#FFD265;}
	.st3{fill:#A06A80;}
</style>
<g id="Capa_1_1_">
	<rect class="st0" width="85.8" height="90.9"/>
</g>
<g id="Capa_2_1_">
	<path d="M59.5,86.1c-4.3,0-8.5,0-12.8,0c-3.3,0-6.5,0.2-9.9,0.3c-1.5,0-2.9,0-4.4,0c-1.4,0-2.6,0-4-0.1c-2.2-0.1-4.4-0.3-6.5-0.4
		c-0.8-0.1-1.7,0-2.4-0.1c-1.2-0.2-1.9-0.9-2-2.3c0-0.9,0.1-1.8,0.1-2.7c0-4.9,0-9.9,0-14.9c0-2.2,0-4.3-0.1-6.4
		c0-1.1-0.1-2.2-0.1-3.3c0-0.7,0.1-1.4,0.3-2.1c0-0.3,0.2-0.4,0.4-0.4h0.1c0,0,0.1,0,0.1-0.1c1-1.4,2.4-2.6,3.5-3.7
		c1-0.9,2-1.9,3-2.9c0.1-0.2,0.2-0.3,0.2-0.4c0-2.1-0.1-4.2-0.1-6.2c0-0.8,0.3-1,1-0.9c2.3,0.2,4.6,0.4,6.9,0.4c0.2,0,0.3,0,0.4-0.2
		c1.2-1.1,2.6-2.1,3.7-3.2c1.2-1.1,2.5-2.4,3.7-3.4c0.7-0.7,1.6-1.4,2.5-1.9c1-0.7,2.2-1.1,3.4-1.1c1,0.1,2,0.4,2.8,1
		c2,1.2,3.8,2.7,5.5,4.4c1.6,1.5,3.1,2.9,4.6,4.4c0.1,0.1,0.2,0.2,0.3,0.2s0.2,0,0.4,0c1.1-0.2,2.4-0.4,3.5-0.5
		c0.9-0.1,1.9-0.2,2.8,0.3c0.1,0,0.2,0,0.2,0c0.4,0.1,0.6,0.2,0.7,0.6c0.1,0.9,0.2,1.8,0.2,2.7c0,1.2-0.1,2.6-0.2,3.9
		c0,0.1,0,0.3,0,0.4c0,0.1,0.1,0.3,0.2,0.3c1.8,1.8,3.5,3.6,5.3,5.5c0.1,0.1,0.2,0.2,0.3,0.3c0.1,0.1,0.3,0.1,0.4,0.1
		c0.4,0,0.7,0.4,0.7,0.8c0,4.4-0.1,8.7-0.1,13.2c0,1.6,0.2,3.1,0.3,4.8c0,1.8,0,3.3,0,5.1c0,1.9-0.1,3.8-0.2,5.6
		c-0.1,0.8-0.2,1.8-0.4,2.6c-0.1,0.5-0.4,0.7-0.9,0.7H61.7C61,86.2,60.3,86.2,59.5,86.1L59.5,86.1z M26.5,40.6c0,0.1,0,0.1,0,0.2
		c0,1.7,0,3.2,0,4.8c0,1.2,0.1,2.6,0.2,3.7c0.1,3.2,0.1,6.4-0.3,9.7c0,0.2,0.1,0.3,0.3,0.4c0.9,0.5,1.9,1.1,2.8,1.7
		c2.2,1.4,4.4,2.8,6.5,4.2c1.8,1.1,3.7,2.1,5.4,3.3c0.1,0,0.1,0,0.2,0c0.1,0,0.1,0,0.2,0c0.4-0.2,0.7-0.4,1.1-0.5
		c2.6-1.4,5.4-1.8,8.1-0.4c0.1,0,0.1,0,0.2,0s0.1,0,0.2-0.1c1-0.7,2-1.6,3-2.3c0.9-0.6,1.8-1.2,2.7-1.8c1.5-0.9,3-1.8,4.5-2.6
		c1.4-0.8,2.6-1.8,4-2.6c0.9-0.5,0.9-0.5,0.9-1.7c0-2,0-4,0-6c0-1.1,0-2.5,0-3.6c0-0.4,0.1-0.9,0.2-1.5c0.2-1.5,0.3-3,0.1-4.5
		c0-0.1-0.1-0.2-0.1-0.2c-0.1-0.1-0.1-0.1-0.2-0.2c-0.7-0.3-1.5-0.2-2.2-0.1c-0.9,0.1-1.8,0.4-2.7,0.4c-1.1,0.1-2.2,0.2-3.3,0.2
		c-1.9,0-3.9-0.2-5.8-0.3c-2.8,0-5.7,0.1-8.5,0.1c-3.5,0-7.1,0-10.6-0.1c-0.7,0-1.5-0.1-2.1-0.2l-1.6-0.1L26.5,40.6z M70.9,84.6
		L70.9,84.6c0-0.1-0.1-0.2-0.2-0.2C70,84,69.2,83.5,68.6,83c-3.7-2.6-7.2-5.5-10.7-8.4c-2-1.7-4-3.3-6.1-4.9c-1.2-1-2.8-1.7-4.5-1.7
		c-1.8,0-3.4,0.7-5,1.6c-0.1,0.1-0.2,0.2-0.2,0.3c-0.1,0.1-0.2,0.3-0.3,0.4c-0.1,0.1-0.3,0.1-0.4,0.1c-0.2,0-0.4,0-0.5,0.1
		c-1,0.7-2,1.5-3,2.1c-5.9,3.8-11.7,7.6-17.7,11.4c-0.1,0.1-0.2,0.2-0.4,0.2v0.1c0.4,0,0.8,0,1.2,0.1c0.8,0,1.7,0,2.6,0
		c1.6,0.1,3.1,0.4,4.7,0.4c3.1,0.1,6.1,0.1,9.2,0.1c4.3-0.1,8.4-0.3,12.8-0.3c6.7-0.1,13.3,0,20.1,0h0.6V84.6z M52.2,68.3
		c0.6,0.4,1.1,0.8,1.7,1.1c2.9,2.4,5.9,4.8,8.8,7.2c3.1,2.5,6.2,4.9,9.7,7c0.3,0.2,0.5,0.3,0.8,0.4c0.1-0.4,0.1-0.8,0.2-1.1
		c0.1-1.6,0.2-3.1,0.2-4.7c0-2,0.1-4.1,0.1-6.1c-0.1-3.3-0.2-6.7-0.3-9.9c0-2.2,0-4.4,0-6.5v-0.6c-0.1,0-0.2,0.1-0.3,0.1
		c-1,0.5-1.9,1.1-2.9,1.7c-1.8,1.1-3.6,2.3-5.4,3.3c-1.1,0.7-2.2,1.5-3.3,2.2c-1.8,1.1-3.7,2.2-5.5,3.3
		C54.5,66.5,53.4,67.4,52.2,68.3z M40.1,69.5c-0.7-0.4-1.4-1-2-1.4c-3.2-2-6.3-3.9-9.4-6c-2.1-1.5-4.4-2.7-6.4-4
		c-1.2-0.8-2.6-1.8-3.6-2.7c0,0-0.1,0-0.1-0.1c0.7,9.6,0.6,18.9,0.8,28.4C26,78.7,33.2,74.5,40.1,69.5z M35.3,39.7
		c0.2,0,0.3,0,0.4,0c3.1,0,6.1,0,9.2,0c2.5,0,4.9-0.1,7.3-0.1c1.8,0,3.6,0.2,5.5,0.3c0.1,0,0.3,0,0.4,0c-0.3-0.3-0.4-0.4-0.6-0.6
		c-2-2-4-4-6.2-5.6c-0.9-0.7-1.9-1.4-2.9-2c-0.4-0.3-0.9-0.4-1.5-0.4s-1,0.1-1.5,0.3c-1.2,0.5-2.4,1.4-3.4,2.3c-1.7,1.6-3.3,3-5,4.5
		C36.5,38.7,35.9,39.2,35.3,39.7z M25.2,48.2c-2,2.2-4.6,3.7-6.4,6c2,1.8,4.3,3.2,6.7,4.5C25.6,57.2,25.5,49.1,25.2,48.2z
		 M67.8,56.6l4.5-2.6l-4.7-4.8C67.7,51.8,67.7,54.2,67.8,56.6z"/>
	<path class="st1" d="M26.5,40.6l2.7,0.2l1.6,0.1c0.7,0.1,1.5,0.2,2.1,0.2c3.5,0,7.1,0.1,10.6,0.1c2.8,0,5.7-0.1,8.5-0.1
		c1.9,0,3.9,0.2,5.8,0.3c1.1,0,2.2,0,3.3-0.2c0.9-0.1,1.8-0.4,2.7-0.4c0.7-0.1,1.5-0.2,2.2,0.1c0.1,0,0.1,0.1,0.2,0.2
		s0.1,0.1,0.1,0.2c0.2,1.5,0.2,3-0.1,4.5c-0.1,0.4-0.1,0.9-0.2,1.5c0,1.1,0,2.5,0,3.6c0,2,0.1,4,0,6c0,1.1-0.1,1-0.9,1.7
		c-1.4,0.9-2.6,1.8-4,2.6c-1.5,0.9-3,1.8-4.5,2.6c-0.9,0.5-1.9,1.1-2.7,1.8c-1,0.7-2,1.6-3,2.3c0,0-0.1,0.1-0.2,0.1s-0.1,0-0.2,0
		c-2.8-1.4-5.5-0.9-8.1,0.4c-0.4,0.2-0.7,0.4-1.1,0.5c-0.1,0-0.1,0-0.2,0c-0.1,0-0.1,0-0.2,0c-1.7-1.4-3.5-2.3-5.4-3.3
		c-2.2-1.4-4.4-2.8-6.5-4.2c-0.9-0.5-1.8-1.1-2.8-1.7c-0.2-0.1-0.3-0.2-0.3-0.4c0.4-3.2,0.4-6.4,0.3-9.7c0-1.2-0.1-2.6-0.2-3.7
		c0-1.7,0-3.2,0-4.8C26.5,40.7,26.5,40.6,26.5,40.6z"/>
	<path class="st2" d="M70.9,84.6h-0.6c-6.7,0-13.3-0.1-20.1,0c-4.3,0-8.4,0.3-12.8,0.3c-3.1,0-6.1,0-9.2-0.1c-1.6,0-3.1-0.3-4.7-0.4
		c-0.8-0.1-1.7,0-2.6,0c-0.4,0-0.8,0-1.2-0.1v-0.1c0.1-0.1,0.2-0.2,0.4-0.2c5.9-3.8,11.7-7.6,17.7-11.4c1-0.6,2-1.4,3-2.1
		c0.2-0.1,0.4-0.2,0.5-0.1c0.2,0,0.3,0,0.4-0.1c0.1-0.1,0.2-0.2,0.3-0.4c0-0.1,0.1-0.2,0.2-0.3c1.6-0.9,3.2-1.6,5-1.6
		c1.8,0,3.2,0.5,4.5,1.7c2.1,1.7,4.1,3.3,6.1,4.9c3.4,2.9,7,5.8,10.7,8.4c0.7,0.4,1.4,0.9,2.1,1.4C70.8,84.4,70.9,84.5,70.9,84.6
		L70.9,84.6z"/>
	<path class="st1" d="M52.2,68.3c1.2-0.9,2.4-1.8,3.5-2.6c1.8-1.1,3.7-2.3,5.5-3.3c1.1-0.7,2.2-1.5,3.3-2.2c1.8-1.1,3.5-2.3,5.4-3.3
		c0.9-0.5,1.9-1.1,2.9-1.7c0.1,0,0.2-0.1,0.3-0.1v0.6c0,2.2,0,4.4,0,6.5c0.1,3.3,0.2,6.7,0.3,9.9c0,2,0,4.1-0.1,6.1
		c0,1.6-0.1,3.1-0.2,4.7c0,0.4-0.1,0.7-0.2,1.1c-0.3-0.2-0.5-0.4-0.8-0.4c-3.4-2-6.5-4.4-9.7-7c-2.9-2.4-5.9-4.8-8.8-7.2
		C53.3,69,52.8,68.7,52.2,68.3z"/>
	<path class="st1" d="M40.1,69.5c-6.9,4.9-14.1,9.1-20.9,14.1c-0.2-9.5-0.1-18.9-0.8-28.3c0.1,0,0.1,0,0.1,0.1
		c1.1,1.1,2.4,2,3.6,2.7c2.2,1.4,4.4,2.6,6.4,4c3.1,2.1,6.2,4,9.4,6C38.7,68.7,39.4,69.1,40.1,69.5z"/>
	<path class="st3" d="M35.3,39.7c0.6-0.5,1.1-1,1.8-1.6c1.7-1.5,3.3-3,5-4.5c1-0.9,2.1-1.8,3.4-2.3c0.4-0.2,1-0.3,1.5-0.3
		s1,0.2,1.5,0.4c1,0.6,2,1.2,2.9,2c2.2,1.8,4.2,3.7,6.2,5.6c0.2,0.2,0.4,0.4,0.6,0.6c-0.2,0-0.4,0-0.4,0c-1.8-0.1-3.6-0.2-5.5-0.3
		c-2.5,0-4.9,0.1-7.3,0.1c-3.1,0-6.1,0-9.2,0C35.6,39.8,35.4,39.7,35.3,39.7z"/>
	<path class="st3" d="M25.2,48.2c0.2,0.9,0.4,9,0.2,10.6c-2.4-1.2-4.7-2.6-6.7-4.5C20.7,52,23.3,50.4,25.2,48.2z"/>
	<path class="st3" d="M67.8,56.6c0-2.5-0.1-4.8-0.1-7.4l4.7,4.8L67.8,56.6z"/>
	<path class="st3" d="M46.5,51.6c0.2-0.2,0.3-0.4,0.4-0.5c0.4-0.6,0.9-1.1,1.7-1.4c1.6-0.6,2.7,0.6,2.8,1.8c0,0.9-0.1,1.8-0.4,2.6
		c-0.5,1.6-1.2,3-2.2,4.4c-0.3,0.4-0.6,0.7-0.9,1.1c-0.3,0.4-0.5,0.6-0.8,1c-0.4,0.4-0.7,0.5-1.2,0.3c-0.9-0.5-1.8-1.2-2.5-2.1
		c-0.7-0.8-1.2-1.7-1.8-2.6c-0.4-0.7-0.7-1.5-0.7-2.2c-0.1-0.6,0-1.2,0.3-1.8c0.2-0.4,0.4-0.6,0.7-0.9c0.8-0.5,1.8-0.9,2.7-0.6
		c0.4,0.1,0.9,0.4,1.4,0.6C46.1,51.1,46.3,51.3,46.5,51.6z"/>
	<path d="M46.5,51.6c0.1-0.2,0.2-0.3,0.3-0.4c0.1-0.2,0.2-0.4,0.3-0.4c0.2-0.3,0.5-0.5,0.8-0.7s0.6-0.4,1-0.4c0.4-0.1,0.8,0,1.1,0.1
		c0.4,0.2,0.6,0.4,0.9,0.7c0.3,0.3,0.4,0.6,0.4,1.1c0.1,0.7,0,1.6-0.3,2.2c-0.4,1.5-1.1,2.7-1.8,4c-0.2,0.3-0.4,0.6-0.6,0.9
		c-0.2,0.3-0.4,0.5-0.7,0.8s-0.4,0.5-0.7,0.8l-0.2,0.2c-0.1,0.1-0.1,0.2-0.2,0.2c-0.1,0.2-0.3,0.3-0.5,0.3c-0.2,0-0.4,0-0.5-0.1
		c-0.2-0.1-0.3-0.2-0.4-0.3c-0.9-0.6-1.8-1.4-2.5-2.2c-0.4-0.5-0.9-1.1-1.2-1.8c-0.4-0.6-0.7-1.4-0.9-2.1c0.1-0.4,0.1-0.7,0.1-1.1
		s0.1-0.7,0.2-1.1c0.1-0.4,0.4-0.7,0.6-1c0.2-0.1,0.3-0.3,0.4-0.3c0.2-0.1,0.4-0.2,0.4-0.3c0.4-0.2,0.7-0.3,1.1-0.3s0.7,0,1.1,0.1
		c0.4,0.1,0.7,0.3,1,0.5C46,51,46.3,51.2,46.5,51.6z M46.5,51.6L45.6,51c-0.3-0.2-0.6-0.4-1-0.4c-0.4-0.1-0.7-0.1-1.1-0.1
		c-0.4,0.1-0.7,0.2-1,0.4c-0.2,0.1-0.4,0.2-0.4,0.3c-0.2,0.1-0.3,0.2-0.4,0.3c-0.3,0.3-0.4,0.5-0.5,0.9c-0.1,0.4-0.2,0.7-0.2,1.1
		c0,0.4,0,0.7,0.1,1.1c0.2,0.7,0.4,1.4,0.8,2s0.8,1.2,1.2,1.8c0.4,0.6,1,1.1,1.6,1.6c0.3,0.3,0.5,0.4,0.9,0.6
		c0.3,0.2,0.6,0.4,0.9,0.4c0.2,0,0.4-0.1,0.4-0.3c0.1-0.1,0.1-0.1,0.2-0.2l0.2-0.2l0.7-0.8c0.3-0.3,0.4-0.5,0.7-0.8s0.4-0.6,0.6-0.9
		c0.7-1.2,1.4-2.6,1.8-4.1c0.2-0.7,0.3-1.5,0.3-2.2c-0.1-0.4-0.2-0.6-0.4-1c-0.2-0.3-0.4-0.5-0.8-0.6c-0.4-0.2-0.6-0.2-1-0.2
		c-0.4,0.1-0.7,0.2-1,0.4c-0.3,0.2-0.5,0.4-0.8,0.7c-0.1,0.2-0.2,0.3-0.4,0.4C46.9,51.2,46.7,51.3,46.5,51.6L46.5,51.6z"/>
	<path d="M75.5,30.2c0.8,0.7,1.8,0.6,2.2-0.3c0.3-0.7-0.1-1.6-0.9-1.9c-0.2-0.1-0.3-0.1-0.4-0.1c-0.2,0-0.4,0-0.4,0.1
		c-0.2,0.1-0.3,0.2-0.4,0.3c-0.1,0.1-0.2,0.3-0.3,0.4C74.8,29.1,74.9,29.7,75.5,30.2z"/>
	<path d="M15.3,39.8c0.2,0.3,0.4,0.5,0.4,0.9c0,0.4-0.2,0.6-0.4,0.9c-0.3,0.3-0.7,0.4-1.1,0.4c-0.4,0-0.8-0.2-1.1-0.4
		c-0.2-0.3-0.4-0.5-0.4-0.9s0.2-0.6,0.4-0.9c0.3-0.3,0.6-0.4,1.1-0.4C14.6,39.4,14.9,39.5,15.3,39.8z"/>
	<path d="M73.2,34.2c0.6,0.5,1.4,0.5,1.9,0c0.3-0.3,0.4-0.6,0.4-0.9c0-0.4-0.2-0.6-0.4-0.9c-0.5-0.5-1.4-0.6-1.9-0.1
		C72.6,33,72.7,33.7,73.2,34.2z"/>
	<path d="M18.4,45.8c-0.6,0.5-1.4,0.6-1.9,0c-0.1-0.1-0.2-0.3-0.3-0.4c-0.1-0.2-0.1-0.4-0.1-0.5c0-0.2,0.1-0.4,0.1-0.4
		c0.1-0.2,0.2-0.3,0.3-0.4c0.5-0.5,1.4-0.6,1.9-0.1C19,44.5,18.9,45.2,18.4,45.8z"/>
</g>
</svg>
