<?xml version="1.0" encoding="utf-8"?>
<!-- Generator: Adobe Illustrator 25.0.0, SVG Export Plug-In . SVG Version: 6.00 Build 0)  -->
<svg version="1.1" id="Capa_1" xmlns="http://www.w3.org/2000/svg" xmlns:xlink="http://www.w3.org/1999/xlink" x="0px" y="0px"
	 viewBox="0 0 86 91" style="enable-background:new 0 0 86 91;" xml:space="preserve">
<style type="text/css">
	.st0{fill:#F4E9E9;}
	.st1{fill:#E88D4F;}
	.st2{fill:#8EC2D8;}
</style>
<rect class="st0" width="85.8" height="90.9"/>
<path d="M58.6,59.6c0.1,2.3,0.2,4.6,0.2,7c0,0.9-0.1,1.8-0.1,2.7c0,0.3,0,0.6,0.1,0.8c0.5,1,0.1,1.8-1.1,1.8c-0.7,0-1.2-0.2-1.9-0.2
	c-1.2,0-2.3-0.1-3.4,0.1c-2,0.2-3.8,0.1-5.6-0.9c-1-0.6-2-1-3-1.7c-0.3-0.2-0.7-0.6-0.8-0.9c-0.2-0.4-0.2-0.8-0.1-1.2
	c0.8-4.3,0.4-8.7,0.5-13c0-1.2-0.1-2.3-0.2-3.5c0-0.3,0-0.7,0.1-0.9c0.2-0.7,0.4-0.8,1.2-0.7c1.8,0.2,3.7,0.3,5.6-0.1
	c1.5-0.3,2.9-0.7,4.3-1.2c1.7-0.6,2.8-1.8,3.5-3.5c0.5-1.4,0.9-2.8,0.8-4.3c-0.2-1.7-0.9-3.1-2.4-3.9c-0.6-0.3-1.2-0.6-1.7-0.8
	c-0.7-0.3-1.6-0.5-2.4-0.4c-0.8,0.1-1.6,0.3-2.2,0.8c-1.7,1-3.2,2.3-4.5,3.8c-0.2,0.2-0.3,0.3-0.5,0.4c-0.2,0.1-0.4,0.2-0.7,0.2
	c-1.6,0-3.1-0.1-4.7-0.5c-0.9-0.2-1.4-0.8-2-1.4c-0.8-0.8-1.7-1.6-2.5-2.3c-0.2-0.2-0.5-0.4-0.7-0.7c-0.1-0.2-0.2-0.5-0.1-0.7
	c0.8-1.3,1.6-2.8,2.7-4c0.9-1,2.2-1.7,3.3-2.6c2.2-1.6,4.6-3.1,7.4-3.7c1.2-0.3,2.4-0.5,3.6-0.6c1.8-0.2,3.6-0.2,5.5,0
	c2.2,0.2,4.2,0.7,6.2,1.3c1.4,0.4,2.7,0.8,4.1,1.2c0.9,0.2,1.7,0.8,2.2,1.5c1.5,1.7,2.7,3.6,3.6,5.7c1.2,3.1,1.7,6.1,1.1,9.4
	c-0.2,1-0.1,2.1-0.2,3.1c-0.1,0.4-0.3,0.8-0.5,1.3c-0.2,0.6-0.5,1.2-0.7,1.9c-1.2,4.2-4.1,6.9-8,8.5C62.5,58.3,60.6,59,58.6,59.6z
	 M44.2,49.7c0,0.2-0.1,0.5-0.1,0.7c0,3.6,0,7.2,0,10.8c0,1.5-0.1,3.1-0.1,4.6c0,0.7,0,1.5,0,2.2c0,0.4,0.2,0.7,0.7,0.6
	c0.4-0.1,0.8,0,1.2,0c1.1,0,2.2,0,3.1,0c0.6,0,1.2-0.1,1.8-0.1c1.2-0.1,2.3-0.1,3.6-0.1c-0.1-3.8-0.2-7.5-0.2-11.4
	c0.2-0.1,0.5-0.2,0.7-0.2c1.8-0.5,3.6-1,5.5-1.5c1-0.2,1.8-0.7,2.7-1.3c3-1.9,4.7-4.6,5.7-8c0.4-1.4,0.7-3,1.1-4.5
	c0.5-2,0-3.9-0.7-5.8c-0.3-0.8-0.7-1.7-1-2.6c-0.6-1.4-1.3-2.7-2.4-3.9c-1.3-1.5-2.7-2.7-4.5-3.4c-0.1,0-0.2-0.2-0.3-0.2
	c-1.2-0.6-2.4-1.4-3.9-1.4c-1.2,0-2.3-0.2-3.6-0.2c-3.5-0.1-7,0.3-10,2.2c-2,1.2-3.8,2.6-5.7,3.9c-0.3,0.2-0.7,0.6-0.9,1
	c-0.7,1.2-1.5,2.3-2.2,3.5c0.2,0.1,0.2,0.2,0.4,0.3c1.4,0.7,2.3,1.9,3.3,3.1c0.7,0.7,0.7,0.7,1.5,0.1c0.8-0.7,1.7-1.6,2.6-2.2
	c3.1-1.8,6.7-2.5,10.3-1.9c1.7,0.2,3.1,0.9,4.5,1.9c2,1.5,2.4,3.6,2,6c-0.4,2.4-1.3,4.5-3.4,5.9c-1.9,1.2-4,1.7-6.1,2
	C48.1,49.9,46.2,49.7,44.2,49.7z M62.3,25.2l-0.1,0.2c0.2,0.2,0.6,0.3,0.8,0.4c1.1,0.4,2,1.2,2.7,2.1c0.2,0.2,0.4,0.5,0.6,0.7
	c0.7,1.1,1.7,2.2,2.2,3.3c0.7,1.4,1.2,3,1.7,4.5c0.5,1.6,0.8,3.2,0.4,4.9c-0.6,2.5-0.9,5-2.1,7.3c-1.1,2.2-2.3,4-4.3,5.4
	c-1.6,1.1-3.3,1.7-5.1,2.2c-1.2,0.3-2.3,0.7-3.6,1c0.6,0.3,1.1,0.7,1.6,1.1c0.7,0.6,1.2,0.6,2.1,0.2c2.2-0.9,4.5-1.6,6.6-2.5
	c2.5-1,4.2-2.8,5.4-5.1c1.2-2.5,1.8-5.1,2.1-7.9c0.2-2.6,0.5-5.2-0.3-7.8c-0.9-2.9-2.4-5.6-4.6-7.7c-0.2-0.2-0.3-0.2-0.6-0.3
	c-0.8-0.3-1.7-0.7-2.5-1.1C64.2,25.8,63.3,25.5,62.3,25.2z M54.8,57.7c0.1,3.1,0.2,6,0.2,9c0,1.2,0.2,2.2,1.3,2.7
	c0.1,0,0.1,0.2,0.2,0.2c0.5,0.2,1,0.6,1.6,0.9c0.1-0.5,0.2-0.9,0.2-1.4c0-0.6-0.1-1.1-0.2-1.7c-0.2-2.3-0.2-4.7-0.4-7
	c0-0.3-0.2-0.7-0.4-0.9C56.6,58.8,55.8,58.3,54.8,57.7z M58.2,71.2c-0.5-0.4-0.8-0.7-1.2-0.9c-1.3-1.1-2.8-1.5-4.6-1.4
	c-1.9,0.2-3.9,0.2-5.8,0.2c-0.6,0-1.1,0.1-1.7,0.1l-0.1,0.2c1.4,0.6,2.9,1.2,4.3,1.8c0.2,0.1,0.5,0.2,0.8,0.1
	c1.5-0.1,2.9-0.2,4.3-0.2c0.9,0,1.9,0.1,2.8,0.2C57.6,71.3,57.9,71.2,58.2,71.2z M50.7,34.5c-3.9,0.2-7.6,0.7-10.1,4.5
	c1.1,0.2,2.1,0.2,3.1,0.4c0.7,0.1,1.1-0.1,1.6-0.6c0.9-0.9,1.8-1.8,2.8-2.6C48.9,35.6,49.8,35.1,50.7,34.5z"/>
<path d="M44.3,72.7c0.3,0.1,0.7,0.1,0.9,0.1c2.1,0,4.1-0.1,6.3-0.1c0.8,0,1.7,0.1,2.5-0.1c1.3-0.2,2.6,0.1,3.7,0.7
	c0.1,0.1,0.2,0.1,0.2,0.1c1.2,0.5,1.3,0.5,1.3,1.8c0,1.9-0.2,3.7-0.2,5.6c0,0.5,0,0.9,0,1.4c0,0.8,0,1.7-0.1,2.6
	c0,0.2-0.2,0.3-0.4,0.4c-0.4,0.1-0.8,0.2-1.2,0.2c-2.2,0.1-4.2,0.2-6.4,0.2c-1.2,0-2.4,0-3.6-0.1c-0.4-0.1-0.7-0.2-1.1-0.4
	c-0.5-0.3-1-0.7-1.6-1c-0.3-0.2-0.6-0.3-0.7-0.7c-0.2-0.2-0.2-0.6-0.2-0.9c0.1-3.2,0.3-6.5,0.5-9.7C44.2,72.9,44.2,72.7,44.3,72.7z
	 M55.1,73.2c-0.3,0-0.6,0.1-0.7,0.1c-1,0-2.1,0.1-3.1,0c-1.7-0.1-3.2-0.2-4.9-0.2c-0.6,0-1.1,0.1-1.7,0.2c-0.2,3.1-0.2,6.2-0.4,9.4
	c0.2,0.1,0.5,0.1,0.7,0.1c2.9,0,5.8,0.1,8.7,0.1c1.2,0,1.2,0,1.2-1.2c0.1-2.4,0.1-4.8,0.2-7.2C55.1,74,55.1,73.7,55.1,73.2z
	 M58.4,83.8c0-0.4,0.1-0.7,0.1-1c0-2.7,0-5.4,0-8.1c0-0.1,0-0.2-0.1-0.2c0-0.1-0.1-0.2-0.2-0.2c-0.8-0.4-1.6-0.7-2.5-1.1
	c-0.1,3.3-0.2,6.5-0.2,9.9L58.4,83.8z M44.6,83.4c1.1,1.1,3.7,2,5.2,1.9c1.7-0.2,3.4-0.2,5.1-0.3c1-0.1,2-0.2,3.1-0.3
	c-0.9-0.3-1.7-0.6-2.5-0.8c-0.2-0.1-0.6-0.2-0.8-0.2c-2.7-0.1-5.5-0.2-8.2-0.2C45.8,83.4,45.3,83.4,44.6,83.4z"/>
<path class="st1" d="M44.3,49.7c2,0,3.8,0.2,5.6,0.1c2.2-0.2,4.3-0.7,6.1-2c2.2-1.4,3.1-3.5,3.4-5.9c0.4-2.3,0-4.5-2-6
	c-1.3-1-2.9-1.7-4.5-1.9c-3.6-0.6-7.2,0.1-10.3,1.9c-0.9,0.6-1.7,1.4-2.6,2.2c-0.7,0.7-0.8,0.7-1.5-0.1c-1-1.2-1.9-2.4-3.3-3.1
	c-0.2-0.1-0.2-0.2-0.4-0.3c0.7-1.2,1.5-2.4,2.2-3.5c0.2-0.4,0.6-0.7,0.9-1c1.9-1.3,3.7-2.7,5.7-3.9c3.1-1.8,6.5-2.3,10-2.2
	c1.2,0,2.3,0.2,3.6,0.2c1.5,0,2.6,0.8,3.9,1.4c0.1,0.1,0.2,0.2,0.3,0.2c1.7,0.7,3.1,1.9,4.5,3.4c1,1.2,1.8,2.5,2.4,3.9
	c0.3,0.8,0.7,1.7,1,2.6c0.7,1.9,1.1,3.8,0.7,5.8c-0.3,1.5-0.6,3-1.1,4.5c-1,3.2-2.7,6.1-5.7,8c-0.8,0.6-1.7,1.1-2.7,1.3
	c-1.8,0.4-3.6,1-5.5,1.5c-0.3,0.1-0.6,0.2-0.7,0.2c0.1,3.8,0.2,7.5,0.2,11.4c-1.2,0-2.4,0.1-3.6,0.1c-0.6,0-1.2,0.1-1.8,0.1
	c-1.1,0-2.2,0-3.1,0c-0.4,0-0.8-0.1-1.2,0c-0.5,0.1-0.7-0.2-0.7-0.6c0-0.7,0-1.5,0-2.2c0-1.5,0.1-3.1,0.1-4.6c0-3.6,0-7.2,0-10.8
	C44.2,50.2,44.2,49.9,44.3,49.7z"/>
<path class="st2" d="M62.3,25.2c1,0.3,2,0.6,3,1c0.8,0.3,1.7,0.7,2.5,1.1c0.2,0.1,0.4,0.2,0.6,0.3c2.1,2.2,3.6,4.8,4.6,7.7
	c0.8,2.7,0.6,5.2,0.3,7.8c-0.2,2.7-0.8,5.4-2.1,7.9c-1.2,2.3-3,4.1-5.4,5.1c-2.2,0.9-4.5,1.6-6.6,2.5c-0.8,0.3-1.4,0.2-2.1-0.2
	c-0.5-0.4-1-0.7-1.6-1.1c1.3-0.3,2.5-0.6,3.6-1c1.7-0.6,3.6-1.1,5.1-2.2c2-1.4,3.2-3.2,4.3-5.4c1.2-2.3,1.5-4.8,2.1-7.3
	c0.4-1.7,0.1-3.3-0.4-4.9c-0.5-1.5-0.9-3.1-1.7-4.5c-0.6-1.2-1.5-2.2-2.2-3.3c-0.2-0.2-0.4-0.5-0.6-0.7C65,27,64.1,26.2,63,25.8
	c-0.2-0.1-0.6-0.2-0.8-0.4L62.3,25.2z"/>
<path class="st2" d="M54.8,57.7c1,0.7,1.7,1.2,2.6,1.7c0.2,0.2,0.4,0.6,0.4,0.9c0.2,2.3,0.3,4.7,0.4,7c0,0.6,0.2,1.1,0.2,1.7
	c0,0.5-0.1,0.9-0.2,1.4c-0.7-0.3-1.1-0.7-1.6-0.9c-0.1-0.1-0.1-0.2-0.2-0.2c-1.2-0.6-1.3-1.6-1.3-2.7C55,63.6,55,60.7,54.8,57.7z"/>
<path class="st2" d="M58.2,71.2c-0.3,0.1-0.6,0.2-0.9,0.2c-0.9,0-1.9-0.2-2.8-0.2c-1.5,0-2.9,0.2-4.3,0.2c-0.2,0-0.6,0-0.8-0.1
	c-1.5-0.6-2.9-1.2-4.3-1.8l0.1-0.2c0.6,0,1.1-0.1,1.7-0.1c1.9-0.1,3.9-0.1,5.8-0.2c1.7-0.2,3.2,0.2,4.6,1.4
	C57.4,70.5,57.7,70.8,58.2,71.2z"/>
<path class="st2" d="M50.7,34.5c-0.8,0.6-1.7,1.1-2.6,1.7c-1,0.8-2,1.7-2.8,2.6c-0.5,0.5-0.8,0.7-1.6,0.6c-1.1-0.2-2.1-0.2-3.1-0.4
	C43,35.4,46.8,34.7,50.7,34.5z"/>
<path class="st1" d="M55.1,73.2c0,0.4,0,0.8,0,1.2C55,76.8,55,79.2,55,81.6c0,1.2,0,1.2-1.2,1.2c-2.9,0-5.8,0-8.7-0.1
	c-0.2,0-0.5-0.1-0.7-0.1c0.2-3.1,0.2-6.2,0.4-9.4c0.7-0.1,1.2-0.2,1.7-0.2c1.7,0,3.2,0.2,4.9,0.2c1,0,2.1,0,3.1,0
	C54.6,73.2,54.8,73.2,55.1,73.2z"/>
<path class="st2" d="M58.4,83.8l-2.9-0.7c0.1-3.3,0.2-6.5,0.2-9.9c0.9,0.4,1.7,0.7,2.5,1.1c0.1,0.1,0.1,0.1,0.2,0.2
	c0,0.1,0.1,0.2,0.1,0.2c0,2.7,0,5.4,0,8.1C58.4,83.1,58.4,83.4,58.4,83.8z"/>
<path class="st2" d="M44.6,83.4c0.7,0,1.2,0.1,1.7,0.1c2.7,0.1,5.5,0.2,8.2,0.2c0.3,0,0.6,0.1,0.8,0.2c0.8,0.2,1.6,0.5,2.5,0.8
	c-1.1,0.1-2.1,0.2-3.1,0.3c-1.7,0.2-3.4,0.2-5.1,0.3C48.3,85.3,45.6,84.3,44.6,83.4z"/>
<path d="M31.4,64.2c0.4,1.2,0.8,2.2,1.2,3.4c0.2,0.4,0.2,0.9,0.4,1.3c0,0.2,0.1,0.2,0.2,0.4c0.4,0.4,0.3,0.8-0.2,1.1
	c-0.3,0.1-0.7,0.2-0.9,0.2c-0.6,0.2-1.1,0.3-1.7,0.6c-0.9,0.5-1.8,0.7-2.8,0.5c-0.6-0.2-1.2-0.2-1.7-0.3c-0.2-0.1-0.4-0.2-0.6-0.3
	c-0.2-0.2-0.2-0.3-0.2-0.6c-0.2-2.2-1.2-4.3-1.8-6.4c-0.2-0.6-0.4-1.1-0.7-1.7c-0.1-0.2-0.1-0.3-0.1-0.5c0-0.4,0.1-0.5,0.4-0.6
	c0.9-0.2,1.8-0.5,2.7-0.9c0.7-0.4,1.3-0.8,1.9-1.2c0.7-0.6,1.1-1.3,1.2-2.2c0-0.7,0-1.5-0.3-2.2c-0.2-0.4-0.4-0.7-0.7-1
	c-0.3-0.2-0.7-0.4-1.1-0.5c-0.3-0.1-0.7-0.1-1-0.1c-0.4,0-0.8,0-1.2,0.2c-0.4,0.2-0.7,0.4-1,0.7c-0.7,0.7-1.2,1.7-1.6,2.6
	c0,0.1-0.1,0.2-0.2,0.2c-0.1,0.1-0.2,0.2-0.2,0.2c-0.7,0.2-1.6,0.5-2.4,0.5c-0.4,0-0.8-0.2-1.2-0.3c-0.5-0.2-1.1-0.5-1.6-0.7
	c-0.2-0.1-0.3-0.2-0.4-0.2c-0.1-0.1-0.2-0.2-0.2-0.3c0.2-0.8,0.3-1.6,0.7-2.3c0.2-0.7,0.7-1.2,1.2-1.8c0.8-1.2,1.7-2.2,3-3
	c0.5-0.3,1.1-0.6,1.7-0.8c0.8-0.4,1.7-0.7,2.7-0.9c1.1-0.2,2.2-0.3,3.2-0.3c0.7,0,1.5,0,2.2-0.1c0.5,0,0.9,0.1,1.3,0.4
	c1,0.6,1.9,1.3,2.7,2.2c1.1,1.2,1.7,2.8,2,4.4c0.1,0.5,0.2,1,0.4,1.5c0,0.2,0,0.5,0,0.7c0,0.3-0.1,0.7-0.1,1.1
	c0.1,2.2-0.8,4.1-2.6,5.4C33.1,63,32.3,63.5,31.4,64.2z M22.7,61.7c0,0.1,0.1,0.2,0.1,0.4c0.6,1.7,1.2,3.5,1.7,5.2
	c0.2,0.7,0.4,1.5,0.7,2.2c0.1,0.3,0.2,0.7,0.3,1.1c0.1,0.2,0.2,0.3,0.4,0.2c0.2-0.1,0.4-0.2,0.6-0.2c0.5-0.2,1.1-0.3,1.6-0.5
	c0.3-0.1,0.6-0.2,0.8-0.3c0.6-0.2,1.1-0.4,1.7-0.6c-0.7-1.8-1.2-3.6-1.9-5.6c0.1-0.1,0.2-0.2,0.3-0.2c0.8-0.5,1.6-1.1,2.4-1.6
	c0.4-0.3,0.8-0.7,1.1-1.1c1.2-1.4,1.6-3.1,1.5-4.8c0-0.7-0.2-1.6-0.2-2.3c-0.1-1.1-0.6-1.9-1.2-2.7c-0.2-0.3-0.6-0.7-0.9-1.1
	c-0.5-0.6-1.1-1.2-1.8-1.5c-0.8-0.5-1.7-0.8-2.7-0.9c-0.1,0-0.1,0-0.2,0c-0.7-0.1-1.4-0.2-2.2-0.1c-0.6,0.2-1.2,0.3-1.7,0.5
	c-1.7,0.5-3.3,1.3-4.6,2.7c-0.7,0.9-1.4,1.8-2.2,2.8c-0.2,0.2-0.2,0.4-0.3,0.7c-0.2,0.7-0.3,1.3-0.5,2.1c0.1,0,0.2,0.1,0.2,0.1
	c0.8,0.1,1.4,0.6,2.2,1c0.4,0.2,0.5,0.2,0.7-0.2c0.3-0.5,0.5-1,0.9-1.4c1.2-1.4,2.9-2.3,4.7-2.6c0.8-0.2,1.7-0.1,2.5,0.2
	c1.2,0.4,1.7,1.4,1.9,2.6c0.2,1.2,0.1,2.4-0.7,3.4c-0.7,0.8-1.7,1.5-2.7,2C24.6,61.2,23.7,61.4,22.7,61.7z M27.6,46.8L27.6,46.8
	c0.2,0.1,0.3,0.2,0.5,0.2c0.6,0,1.2,0.2,1.7,0.6c0.2,0.1,0.2,0.2,0.4,0.2c0.6,0.4,1.2,0.7,1.7,1.2c0.6,0.6,1.1,1.2,1.5,1.9
	c0.5,0.7,0.9,1.4,1,2.3c0.1,1.3,0.3,2.6,0.2,3.9c-0.2,1.2-0.5,2.3-1.2,3.3c-0.6,0.7-1.3,1.3-2.2,1.9c-0.5,0.3-1.1,0.7-1.7,1.1
	c0.3,0.1,0.7,0.2,0.9,0.2c0.4,0.2,0.7,0.1,1.1-0.2c0.9-0.7,1.9-1.5,2.8-2.2c1-0.8,1.7-2.1,1.8-3.4c0.2-1.4,0.1-2.8-0.2-4.1
	c-0.3-1.3-0.6-2.6-1.4-3.7c-0.9-1.2-2.1-2.3-3.5-3.1c-0.1-0.1-0.2-0.1-0.3-0.1c-0.5-0.1-0.9-0.1-1.4-0.1S28.2,46.8,27.6,46.8z
	 M29.2,63.9c0.5,1.5,1.1,2.9,1.6,4.3c0.2,0.6,0.4,1,1.1,1.1c0.1,0,0.1,0.1,0.1,0.1l0.9,0.2c0-0.2-0.1-0.5-0.2-0.7
	c-0.1-0.2-0.2-0.5-0.3-0.7c-0.4-1.2-0.9-2.2-1.3-3.4c-0.1-0.2-0.2-0.3-0.3-0.4C30.3,64.1,29.8,64,29.2,63.9z M33,69.9l-0.7-0.2
	c-0.4-0.2-0.8-0.2-1.2-0.2c-0.4,0-0.8,0.1-1.2,0.2c-0.9,0.4-1.9,0.7-2.8,1.1c-0.2,0.1-0.5,0.2-0.8,0.3v0.2c0.8,0.1,1.6,0.2,2.4,0.2
	c0.2,0,0.2,0,0.4-0.1c0.7-0.2,1.4-0.6,2.1-0.8c0.4-0.2,0.9-0.2,1.4-0.4C32.8,70.1,32.9,70,33,69.9L33,69.9z M23.5,53.3
	c-1.9,0.7-3.6,1.6-4.2,3.8c0.5-0.1,1.1-0.2,1.6-0.3c0.2,0,0.2-0.1,0.4-0.2c0.1-0.1,0.2-0.2,0.2-0.3c0.2-0.6,0.6-1.2,1-1.7
	C22.8,54.1,23.1,53.7,23.5,53.3z"/>
<path d="M26.5,72.9c0.2,0,0.3-0.1,0.5-0.1c1-0.3,2-0.7,3.1-1.1c0.4-0.1,0.8-0.2,1.2-0.4c0.6-0.3,1.3-0.4,1.9-0.2c0.1,0,0.1,0,0.2,0
	c0.7,0,0.7,0,0.9,0.7c0.2,0.9,0.5,1.8,0.8,2.8c0.1,0.2,0.2,0.5,0.2,0.7c0.2,0.4,0.2,0.8,0.4,1.2c0,0.1,0,0.1,0,0.2
	c0,0.1-0.1,0.1-0.1,0.1C35.4,76.8,35.2,77,35,77c-1,0.4-2.1,0.7-3.1,1.1c-0.6,0.2-1.2,0.4-1.7,0.6c-0.2,0-0.4,0-0.6,0
	c-0.3-0.1-0.6-0.2-0.9-0.2c-0.2,0-0.3-0.1-0.5-0.2c-0.2-0.1-0.2-0.2-0.2-0.4c-0.5-1.6-0.9-3.2-1.3-4.8C26.5,73.1,26.5,73,26.5,72.9z
	 M31.8,71.4c-0.2,0.1-0.2,0.2-0.3,0.2c-0.5,0.2-1,0.3-1.5,0.5c-0.8,0.2-1.7,0.4-2.4,0.7c-0.2,0.1-0.6,0.2-0.8,0.4
	c0.4,1.6,0.8,3.1,1.3,4.6c0.2,0,0.2-0.1,0.4-0.1c1.4-0.4,2.8-0.9,4.2-1.4c0.6-0.2,0.6-0.2,0.4-0.7c-0.3-1.2-0.7-2.4-1.1-3.6
	C32,71.8,31.9,71.7,31.8,71.4z M35.2,76.1c-0.1-0.2-0.1-0.3-0.1-0.5c-0.4-1.3-0.8-2.7-1.3-4c0,0,0-0.1-0.1-0.1l-0.1-0.1
	c-0.4-0.1-0.9-0.1-1.4-0.2c0.5,1.7,1,3.2,1.4,4.8H35.2z M28.4,78c0.7,0.3,2.2,0.3,2.8,0.1c0.8-0.3,1.7-0.7,2.4-1
	c0.5-0.2,0.9-0.4,1.5-0.7c-0.5,0-0.9,0-1.3,0c-0.2,0-0.3,0-0.4,0.1c-1.3,0.4-2.7,0.8-4.1,1.2C28.9,77.9,28.7,78,28.4,78L28.4,78z"/>
<path class="st1" d="M22.7,61.7c1-0.3,1.9-0.5,2.7-0.8c1.1-0.4,2-1.1,2.7-2c0.8-1,0.9-2.2,0.7-3.4c-0.2-1.2-0.7-2.2-1.9-2.6
	c-0.8-0.2-1.7-0.3-2.5-0.2c-1.7,0.2-3.4,1.1-4.6,2.5c-0.4,0.4-0.6,1-0.9,1.4c-0.2,0.4-0.3,0.4-0.7,0.2c-0.7-0.4-1.3-0.8-2.2-1
	c-0.1,0-0.2-0.1-0.2-0.1c0.2-0.7,0.3-1.4,0.5-2.1c0.1-0.2,0.2-0.4,0.3-0.7c0.7-0.9,1.4-1.9,2.2-2.8c1.2-1.4,2.8-2.2,4.6-2.7
	c0.6-0.2,1.2-0.2,1.7-0.5c0.7-0.2,1.4,0,2.2,0.1c0.1,0,0.1,0,0.2,0c1,0.1,1.9,0.4,2.7,0.9c0.7,0.4,1.3,0.9,1.8,1.5
	c0.2,0.3,0.6,0.7,0.9,1.1c0.7,0.8,1.2,1.7,1.2,2.7c0.1,0.7,0.2,1.6,0.2,2.3c0,1.7-0.3,3.4-1.5,4.8c-0.3,0.4-0.7,0.7-1.1,1.1
	c-0.8,0.5-1.7,1.1-2.4,1.6c-0.2,0.1-0.2,0.2-0.3,0.2c0.7,1.8,1.2,3.6,1.9,5.6c-0.6,0.2-1.2,0.4-1.7,0.6c-0.3,0.1-0.6,0.2-0.8,0.3
	c-0.5,0.2-1,0.3-1.6,0.5c-0.2,0.1-0.4,0.1-0.6,0.2c-0.2,0.2-0.3,0-0.4-0.2c-0.1-0.3-0.2-0.7-0.3-1.1c-0.2-0.7-0.4-1.5-0.7-2.2
	c-0.6-1.7-1.2-3.5-1.7-5.2C22.8,61.9,22.8,61.8,22.7,61.7z"/>
<path class="st2" d="M27.6,46.8c0.5,0,1.1,0,1.6,0c0.5,0,0.9,0.1,1.4,0.1c0.1,0,0.2,0,0.3,0.1c1.4,0.7,2.6,1.7,3.5,3.1
	c0.8,1.2,1.1,2.5,1.4,3.7c0.3,1.4,0.5,2.7,0.2,4.1c-0.2,1.3-0.8,2.5-1.8,3.4c-0.9,0.7-1.9,1.5-2.8,2.2c-0.3,0.3-0.7,0.3-1.1,0.2
	c-0.2-0.1-0.6-0.2-0.9-0.2c0.6-0.4,1.1-0.7,1.7-1.1c0.7-0.6,1.6-1.1,2.2-1.9c0.7-1,1.1-2.2,1.2-3.3c0.2-1.3,0-2.6-0.2-3.9
	c-0.1-0.9-0.5-1.7-1-2.3c-0.5-0.7-1-1.3-1.5-1.9c-0.5-0.5-1.1-0.8-1.7-1.2c-0.2-0.1-0.2-0.2-0.4-0.2c-0.5-0.3-1.1-0.6-1.7-0.6
	C27.9,47,27.8,46.9,27.6,46.8L27.6,46.8z"/>
<path class="st2" d="M29.2,63.9c0.6,0.2,1.1,0.2,1.5,0.4c0.2,0.1,0.2,0.2,0.3,0.4c0.5,1.2,0.9,2.2,1.3,3.4c0.1,0.2,0.2,0.5,0.3,0.7
	c0.1,0.2,0.1,0.5,0.2,0.7l-0.9-0.2c-0.1,0-0.1-0.1-0.1-0.1c-0.7-0.1-0.9-0.6-1.1-1.1C30.3,66.8,29.8,65.4,29.2,63.9z"/>
<path class="st2" d="M33,69.9c-0.2,0.1-0.2,0.2-0.4,0.2c-0.5,0.2-0.9,0.2-1.4,0.4c-0.7,0.2-1.4,0.5-2.1,0.8
	c-0.2,0.1-0.2,0.1-0.4,0.1c-0.8-0.1-1.6-0.2-2.4-0.2v-0.2c0.2-0.1,0.5-0.2,0.8-0.3c0.9-0.3,1.9-0.7,2.8-1.1c0.4-0.2,0.8-0.2,1.2-0.2
	s0.8,0.1,1.2,0.2L33,69.9z"/>
<path class="st2" d="M23.5,53.3c-0.3,0.4-0.7,0.8-1,1.2c-0.3,0.6-0.7,1.2-1,1.7c-0.1,0.2-0.2,0.2-0.2,0.3c-0.1,0.1-0.2,0.2-0.4,0.2
	c-0.5,0.1-1.1,0.2-1.6,0.3C19.9,54.9,21.6,54,23.5,53.3z"/>
<path class="st1" d="M31.8,71.4c0.1,0.2,0.2,0.4,0.2,0.6c0.3,1.2,0.7,2.4,1.1,3.6c0.2,0.6,0.2,0.6-0.4,0.7c-1.4,0.5-2.8,0.9-4.2,1.4
	c-0.2,0-0.2,0.1-0.4,0.1c-0.4-1.6-0.9-3.1-1.3-4.6c0.2-0.2,0.6-0.2,0.8-0.4c0.8-0.2,1.7-0.4,2.4-0.7c0.5-0.2,1-0.3,1.5-0.5
	C31.6,71.6,31.7,71.5,31.8,71.4z"/>
<path class="st2" d="M35.2,76.1l-1.5,0.1c-0.5-1.6-1-3.2-1.4-4.8c0.5,0.1,0.9,0.1,1.4,0.2c0,0,0.1,0,0.1,0.1l0.1,0.1
	c0.4,1.3,0.8,2.7,1.3,4C35.1,75.7,35.1,75.9,35.2,76.1z"/>
<path class="st2" d="M28.4,78c0.3-0.1,0.6-0.2,0.8-0.2c1.3-0.4,2.7-0.8,4.1-1.2c0.2-0.1,0.2-0.1,0.4-0.1c0.4,0,0.8,0,1.3,0
	c-0.5,0.2-1,0.4-1.5,0.7c-0.8,0.3-1.7,0.7-2.4,1C30.5,78.4,29,78.4,28.4,78z"/>
<path d="M40.7,43.7c0.9-0.6,1.9-0.3,2.2,0.7c0.2,0.7-0.3,1.5-1.2,1.7c-0.2,0.1-0.3,0.1-0.5,0.1c-0.2,0-0.3-0.1-0.5-0.2
	c-0.2-0.1-0.2-0.2-0.4-0.3c-0.1-0.2-0.2-0.2-0.2-0.4C39.8,44.7,40,44.1,40.7,43.7z"/>
<path d="M36.3,48.6c-0.2-0.2-0.2-0.6-0.2-0.9c0.1-0.3,0.2-0.6,0.5-0.8c0.3-0.2,0.7-0.2,1.2-0.2c0.4,0.1,0.7,0.3,1,0.7
	c0.2,0.2,0.2,0.7,0.2,0.9c-0.1,0.3-0.2,0.6-0.6,0.8c-0.3,0.2-0.7,0.2-1.2,0.2C36.9,49.1,36.6,48.9,36.3,48.6z"/>
<path d="M36.9,84.1c0-0.3,0.2-0.7,0.4-0.9c0.2-0.2,0.6-0.3,0.9-0.3c0.7,0,1.5,0.8,1.5,1.6c0,0.3-0.2,0.7-0.4,0.8
	c-0.2,0.2-0.6,0.3-0.9,0.3c-0.4,0-0.7-0.2-1-0.5C37.1,84.9,36.9,84.5,36.9,84.1z"/>
<path d="M36,82.4c-0.2,0-0.3,0-0.5-0.1c-0.2-0.1-0.3-0.2-0.4-0.2c-0.2-0.2-0.2-0.2-0.3-0.4c-0.1-0.2-0.1-0.3-0.1-0.5
	c0-0.3,0.2-0.7,0.4-0.9c0.2-0.2,0.6-0.4,1-0.3c0.2,0,0.3,0,0.5,0.1c0.2,0.1,0.3,0.2,0.4,0.2c0.2,0.1,0.2,0.2,0.3,0.4
	c0.1,0.2,0.1,0.3,0.1,0.5c0,0.2,0,0.3-0.1,0.5c-0.1,0.2-0.2,0.3-0.3,0.4c-0.2,0.2-0.2,0.2-0.4,0.2C36.3,82.4,36.2,82.4,36,82.4z"/>
<path d="M36.8,41.6c0.7-0.5,1.5-0.3,1.9,0.3c0.1,0.2,0.2,0.3,0.2,0.5c0,0.2,0,0.3,0,0.5c0,0.2-0.1,0.3-0.2,0.5
	c-0.1,0.2-0.2,0.2-0.4,0.3c-0.7,0.5-1.5,0.3-1.9-0.2C36,42.7,36.2,42,36.8,41.6z"/>
<path d="M62.9,67.5c0-0.3,0.2-0.7,0.4-0.9s0.6-0.3,0.9-0.3c0.7,0,1.5,0.8,1.5,1.6c0,0.3-0.2,0.7-0.4,0.9c-0.2,0.2-0.6,0.3-0.9,0.3
	c-0.4,0-0.7-0.2-1-0.5C63.1,68.3,62.9,67.9,62.9,67.5z"/>
<path d="M62,65.9c-0.2,0-0.3,0-0.5-0.1c-0.2-0.1-0.3-0.2-0.4-0.2c-0.2-0.2-0.2-0.2-0.3-0.4c-0.1-0.2-0.1-0.3-0.1-0.5
	c0-0.3,0.2-0.7,0.4-0.9s0.6-0.4,1-0.3c0.2,0,0.3,0,0.5,0.1c0.2,0.1,0.3,0.2,0.4,0.2c0.2,0.1,0.2,0.2,0.3,0.4
	c0.1,0.2,0.1,0.3,0.1,0.5C63.4,65.3,62.8,65.9,62,65.9z"/>
</svg>
