<?xml version="1.0" encoding="utf-8"?>
<!-- Generator: Adobe Illustrator 25.0.0, SVG Export Plug-In . SVG Version: 6.00 Build 0)  -->
<svg version="1.1" id="Capa_1" xmlns="http://www.w3.org/2000/svg" xmlns:xlink="http://www.w3.org/1999/xlink" x="0px" y="0px"
	 viewBox="0 0 86 91" style="enable-background:new 0 0 86 91;" xml:space="preserve">
<style type="text/css">
	.st0{fill:#F4E9E9;}
	.st1{fill:#E88D4F;}
	.st2{fill:#8EC2D8;}
</style>
<rect class="st0" width="85.8" height="90.9"/>
<path d="M39.7,59.2c0.1,2.3,0.2,4.6,0.2,7c0,0.9-0.1,1.8-0.1,2.7c0,0.3,0,0.6,0.2,0.9c0.5,1,0.1,1.8-1.1,1.8c-0.7,0-1.2-0.2-1.9-0.2
	c-1.2,0-2.2-0.1-3.4,0.1c-2,0.2-3.8,0.1-5.5-0.9c-1-0.6-2-1-3-1.7c-0.3-0.2-0.7-0.6-0.8-0.9c-0.2-0.4-0.2-0.8-0.1-1.2
	c0.8-4.3,0.4-8.7,0.5-13c0-1.2-0.1-2.3-0.2-3.5c0-0.3,0-0.7,0.1-0.9c0.2-0.7,0.4-0.8,1.2-0.7c1.8,0.2,3.7,0.3,5.6-0.1
	c1.4-0.3,2.9-0.7,4.3-1.2c1.7-0.6,2.8-1.8,3.5-3.5c0.5-1.4,0.9-2.8,0.8-4.3c-0.2-1.7-0.9-3.1-2.4-3.9c-0.6-0.3-1.2-0.6-1.8-0.8
	c-0.7-0.3-1.6-0.5-2.4-0.4c-0.8,0.1-1.6,0.3-2.2,0.8c-1.7,1-3.2,2.3-4.5,3.8c-0.2,0.2-0.3,0.3-0.5,0.4c-0.2,0.1-0.4,0.2-0.7,0.2
	c-1.6,0-3.1-0.1-4.7-0.5c-0.9-0.2-1.4-0.8-2-1.4c-0.7-0.8-1.7-1.6-2.5-2.3c-0.2-0.2-0.5-0.4-0.7-0.7c0-0.3-0.1-0.7,0-0.8
	c0.8-1.3,1.6-2.8,2.7-4c0.9-1,2.2-1.7,3.3-2.6c2.2-1.6,4.6-3.1,7.4-3.7c1.2-0.2,2.3-0.4,3.5-0.6c1.8-0.2,3.6-0.2,5.4,0
	c2.1,0.2,4.2,0.7,6.2,1.3c1.4,0.4,2.7,0.9,4.1,1.2c0.9,0.2,1.7,0.8,2.2,1.5c1.5,1.7,2.7,3.6,3.6,5.7c1.2,3.1,1.7,6.1,1.1,9.4
	c-0.2,1-0.1,2.1-0.2,3.1c-0.1,0.4-0.3,0.9-0.5,1.3c-0.2,0.6-0.5,1.2-0.7,1.9c-1.2,4.2-4,6.9-8,8.5C43.6,57.9,41.6,58.6,39.7,59.2z
	 M25.4,49.2c0,0.2-0.1,0.5-0.1,0.7c0,3.6,0,7.2,0,10.8c0,1.5-0.1,3.1-0.1,4.6c0,0.7,0,1.5,0,2.2c0,0.4,0.2,0.7,0.7,0.6
	c0.4-0.1,0.8,0,1.2,0c1.1,0,2.2,0,3.1,0c0.6,0,1.2-0.1,1.8-0.1c1.2-0.1,2.3-0.1,3.6-0.1c-0.1-3.8-0.2-7.5-0.2-11.4
	c0.2-0.1,0.5-0.2,0.7-0.2c1.8-0.5,3.6-1,5.5-1.5c1-0.2,1.8-0.7,2.7-1.3c3-1.9,4.7-4.6,5.7-8c0.4-1.4,0.7-3,1-4.5
	c0.5-2,0.1-3.9-0.7-5.8c-0.3-0.8-0.7-1.7-1-2.6c-0.6-1.4-1.3-2.7-2.4-3.9c-1.2-1.5-2.7-2.7-4.4-3.4c-0.1,0-0.2-0.2-0.3-0.2
	c-1.2-0.6-2.4-1.4-3.9-1.4c-1.2,0-2.3-0.2-3.6-0.2c-3.5-0.1-6.9,0.3-9.9,2.2c-2,1.2-3.8,2.6-5.6,3.9c-0.3,0.2-0.7,0.6-0.9,1
	c-0.7,1.2-1.5,2.3-2.2,3.5c0.2,0.1,0.2,0.2,0.4,0.3c1.4,0.7,2.3,1.9,3.3,3.1c0.7,0.7,0.7,0.7,1.5,0.1c0.8-0.7,1.6-1.6,2.6-2.2
	c3.1-1.8,6.7-2.5,10.3-1.9c1.7,0.2,3.1,0.9,4.5,1.9c2,1.5,2.3,3.6,2,6c-0.4,2.4-1.2,4.5-3.4,5.9c-1.9,1.2-4,1.7-6.1,2
	C29.2,49.5,27.4,49.3,25.4,49.2z M43.3,24.8l-0.1,0.2c0.2,0.2,0.6,0.3,0.8,0.4c1.1,0.4,2,1.2,2.7,2.1c0.2,0.2,0.4,0.5,0.6,0.7
	c0.7,1.1,1.7,2.2,2.2,3.4c0.7,1.4,1.2,3,1.7,4.5c0.5,1.6,0.8,3.2,0.4,4.9c-0.6,2.5-0.9,5-2.1,7.3c-1.1,2.2-2.3,4-4.3,5.4
	c-1.6,1.1-3.3,1.7-5.1,2.2c-1.2,0.3-2.3,0.7-3.6,1c0.6,0.3,1.1,0.7,1.6,1.1c0.7,0.6,1.2,0.6,2.1,0.2c2.2-0.9,4.4-1.6,6.6-2.5
	c2.5-1,4.2-2.8,5.4-5.1c1.2-2.5,1.8-5.1,2.1-7.9c0.2-2.7,0.5-5.2-0.3-7.9c-0.9-2.9-2.4-5.6-4.6-7.7c-0.2-0.2-0.3-0.2-0.6-0.3
	c-0.8-0.3-1.7-0.7-2.5-1.1C45.3,25.3,44.3,25.1,43.3,24.8z M35.9,57.3c0.1,3.1,0.2,6,0.2,9c0,1.2,0.2,2.2,1.3,2.7
	c0.1,0,0.1,0.2,0.2,0.2c0.5,0.2,1,0.6,1.6,0.9c0.1-0.5,0.2-0.9,0.2-1.4c0-0.6-0.1-1.1-0.2-1.7c-0.2-2.3-0.2-4.7-0.4-7
	c0-0.3-0.2-0.7-0.4-0.9C37.7,58.4,36.9,57.9,35.9,57.3z M39.3,70.8l-1.2-1c-1.3-1.1-2.8-1.5-4.6-1.4c-1.9,0.2-3.9,0.2-5.8,0.2
	c-0.6,0-1.1,0.1-1.7,0.1L26,68.9c1.4,0.6,2.9,1.2,4.3,1.8c0.2,0.1,0.5,0.2,0.8,0.1c1.4-0.1,2.9-0.2,4.3-0.2c0.9,0,1.8,0.1,2.8,0.2
	C38.6,70.9,39,70.9,39.3,70.8z M31.7,34.1c-3.9,0.2-7.6,0.8-10,4.5c1.1,0.2,2.1,0.2,3.1,0.4c0.7,0.1,1.1-0.1,1.5-0.6
	c0.9-0.9,1.8-1.8,2.8-2.7C30,35.1,30.9,34.7,31.7,34.1z"/>
<path d="M25.4,72.3c0.3,0.1,0.7,0.1,0.9,0.1c2.1,0,4.1-0.1,6.2-0.1c0.8,0,1.7,0.1,2.4-0.1c1.3-0.2,2.6,0.1,3.7,0.7
	c0.1,0.1,0.2,0.1,0.2,0.1c1.2,0.5,1.3,0.5,1.2,1.8c0,1.9-0.2,3.8-0.2,5.6c0,0.5,0,1,0,1.4c0,0.9,0,1.7-0.1,2.7
	c0,0.2-0.2,0.3-0.4,0.4c-0.4,0.1-0.8,0.2-1.2,0.2c-2.1,0.1-4.2,0.2-6.3,0.2c-1.2,0-2.4,0-3.6-0.1c-0.4-0.1-0.7-0.2-1.1-0.4
	c-0.5-0.3-1-0.7-1.6-1c-0.3-0.2-0.6-0.3-0.7-0.7c-0.2-0.2-0.2-0.6-0.2-0.9c0.1-3.2,0.3-6.5,0.5-9.7C25.3,72.5,25.3,72.3,25.4,72.3z
	 M36.1,72.8c-0.3,0-0.6,0.1-0.7,0.1c-1,0-2.1,0.1-3.1,0c-1.7-0.1-3.2-0.2-4.9-0.2c-0.6,0-1.1,0.1-1.7,0.2c-0.1,3.1-0.2,6.2-0.3,9.4
	c0.2,0.1,0.5,0.1,0.7,0.1c2.9,0,5.8,0.1,8.7,0.1c1.2,0,1.2,0,1.2-1.2c0.1-2.4,0.1-4.8,0.2-7.2C36.1,73.7,36.1,73.3,36.1,72.8z
	 M39.5,83.4c0-0.4,0.1-0.7,0.1-1c0-2.7,0-5.4,0-8.1c0-0.1,0-0.2-0.1-0.2c0-0.1-0.1-0.2-0.2-0.2c-0.8-0.4-1.6-0.7-2.5-1.1
	c-0.1,3.3-0.2,6.5-0.2,9.9L39.5,83.4z M25.7,83c1.1,1.1,3.7,2,5.1,1.9c1.7-0.2,3.4-0.2,5.1-0.3c1-0.1,2-0.2,3.1-0.3
	c-0.9-0.3-1.7-0.6-2.5-0.8c-0.2-0.1-0.6-0.2-0.8-0.2c-2.7-0.1-5.5-0.2-8.2-0.2C26.9,83,26.4,83,25.7,83L25.7,83z"/>
<path class="st1" d="M25.4,49.2c2,0,3.8,0.2,5.6,0.1c2.2-0.2,4.2-0.7,6.1-2c2.2-1.4,3.1-3.5,3.4-5.9c0.4-2.3,0-4.5-2-6
	c-1.3-1-2.8-1.7-4.5-1.9c-3.6-0.6-7.2,0.1-10.3,1.9c-0.9,0.6-1.7,1.4-2.6,2.2c-0.7,0.7-0.8,0.7-1.5-0.1c-1-1.2-1.9-2.4-3.3-3.1
	c-0.2-0.1-0.2-0.2-0.4-0.3c0.7-1.2,1.5-2.4,2.2-3.5c0.2-0.4,0.6-0.7,0.9-1c1.9-1.3,3.7-2.7,5.6-3.9c3.1-1.8,6.5-2.3,9.9-2.2
	c1.2,0,2.3,0.2,3.6,0.2c1.5,0,2.6,0.8,3.9,1.4c0.1,0.1,0.2,0.2,0.3,0.2c1.7,0.7,3.1,1.9,4.4,3.4c1,1.2,1.8,2.5,2.4,3.9
	c0.3,0.8,0.7,1.7,1,2.6c0.7,1.9,1.1,3.8,0.7,5.8c-0.3,1.5-0.6,3-1,4.5c-1,3.2-2.7,6.1-5.7,8c-0.8,0.6-1.7,1.1-2.7,1.3
	c-1.8,0.4-3.6,1-5.5,1.5c-0.3,0.1-0.6,0.2-0.7,0.2c0.1,3.8,0.2,7.5,0.2,11.4c-1.2,0-2.4,0.1-3.6,0.1c-0.6,0-1.2,0.1-1.8,0.1
	c-1.1,0-2.2,0-3.1,0c-0.4,0-0.8-0.1-1.2,0c-0.5,0.1-0.7-0.2-0.7-0.6c0-0.7,0-1.5,0-2.2c0-1.5,0.1-3.1,0.1-4.6c0-3.6,0-7.2,0-10.8
	C25.3,49.7,25.3,49.5,25.4,49.2z"/>
<path class="st2" d="M43.3,24.8c1,0.3,2,0.6,3,1c0.8,0.3,1.7,0.7,2.5,1.1c0.2,0.1,0.4,0.2,0.6,0.3c2.1,2.2,3.6,4.8,4.6,7.7
	c0.8,2.7,0.6,5.2,0.3,7.9c-0.2,2.7-0.8,5.4-2.1,7.9c-1.2,2.3-3,4.1-5.4,5.1c-2.2,0.9-4.4,1.6-6.6,2.5c-0.8,0.3-1.4,0.2-2.1-0.2
	c-0.5-0.4-1-0.7-1.6-1.1c1.3-0.3,2.5-0.6,3.6-1c1.7-0.6,3.6-1.1,5.1-2.2c2-1.4,3.2-3.2,4.3-5.4c1.2-2.3,1.5-4.8,2.1-7.3
	c0.4-1.7,0.1-3.3-0.4-4.9c-0.5-1.5-0.9-3.1-1.7-4.5c-0.6-1.2-1.5-2.2-2.2-3.4c-0.2-0.2-0.4-0.5-0.6-0.7c-0.7-0.9-1.6-1.7-2.7-2.1
	c-0.2-0.1-0.6-0.2-0.8-0.4L43.3,24.8z"/>
<path class="st2" d="M35.9,57.3c1,0.7,1.7,1.2,2.5,1.7c0.2,0.2,0.4,0.6,0.4,0.9c0.2,2.3,0.3,4.7,0.4,7c0,0.6,0.2,1.1,0.2,1.7
	c0,0.5-0.1,0.9-0.2,1.4c-0.7-0.3-1.1-0.7-1.6-0.9c-0.1-0.1-0.1-0.2-0.2-0.2c-1.2-0.6-1.3-1.6-1.3-2.7C36.1,63.2,36,60.3,35.9,57.3z"
	/>
<path class="st2" d="M39.3,70.8c-0.3,0.1-0.6,0.2-0.9,0.2c-0.9,0-1.9-0.2-2.8-0.2c-1.4,0-2.9,0.2-4.3,0.2c-0.2,0-0.6,0-0.8-0.1
	c-1.4-0.6-2.9-1.2-4.3-1.8l0.1-0.2c0.6,0,1.1-0.1,1.7-0.1c2-0.1,3.9-0.1,5.8-0.2c1.7-0.2,3.2,0.2,4.6,1.4L39.3,70.8z"/>
<path class="st2" d="M31.7,34.1c-0.8,0.6-1.7,1.1-2.6,1.7c-1,0.8-2,1.7-2.8,2.6c-0.4,0.5-0.8,0.7-1.5,0.6c-1.1-0.2-2.1-0.2-3.1-0.4
	C24.1,35,27.8,34.3,31.7,34.1z"/>
<path class="st1" d="M36.1,72.8c0,0.4,0,0.8,0,1.2c-0.1,2.4-0.1,4.8-0.2,7.2c0,1.2,0,1.2-1.2,1.2c-2.9,0-5.8,0-8.7-0.1
	c-0.2,0-0.5-0.1-0.7-0.1c0.2-3.1,0.2-6.2,0.3-9.4c0.7-0.1,1.2-0.2,1.7-0.2c1.7,0,3.2,0.2,4.9,0.2c1,0,2.1,0,3.1,0
	C35.6,72.9,35.9,72.8,36.1,72.8z"/>
<path class="st2" d="M39.5,83.4l-2.9-0.7c0.1-3.3,0.2-6.5,0.2-9.9c0.9,0.4,1.7,0.7,2.5,1.1c0.1,0.1,0.1,0.1,0.2,0.2
	c0,0.1,0.1,0.2,0.1,0.2c0,2.7,0,5.4,0,8.1C39.5,82.8,39.5,83,39.5,83.4z"/>
<path class="st2" d="M25.7,83c0.7,0,1.2,0.1,1.7,0.1c2.7,0.1,5.5,0.2,8.2,0.2c0.2,0,0.6,0.1,0.8,0.2c0.8,0.2,1.6,0.5,2.5,0.8
	c-1.1,0.1-2.1,0.2-3.1,0.3c-1.7,0.2-3.4,0.2-5.1,0.3C29.4,84.9,26.8,84,25.7,83z"/>
<path d="M65.8,63.7c-0.2,1.2-0.5,2.3-0.7,3.5c-0.1,0.4-0.2,0.9-0.3,1.3c-0.1,0.2-0.1,0.3,0,0.4c0.1,0.6-0.2,0.9-0.7,0.8
	c-0.3-0.1-0.6-0.2-0.9-0.3c-0.6-0.2-1.2-0.2-1.7-0.3c-1-0.1-1.9-0.4-2.7-1.1c-0.4-0.4-0.9-0.7-1.3-1.2c-0.2-0.2-0.2-0.3-0.2-0.6
	c0-0.2,0-0.4,0.1-0.7c0.9-2.1,1.2-4.3,1.7-6.5c0.2-0.6,0.2-1.2,0.3-1.7c0-0.2,0.1-0.3,0.2-0.5c0.2-0.3,0.3-0.4,0.7-0.2
	c0.9,0.3,1.8,0.6,2.8,0.6c0.7,0,1.5,0,2.3-0.1c0.9-0.1,1.7-0.6,2.2-1.3c0.4-0.7,0.8-1.3,0.9-2.1c0.1-0.4,0.1-0.8-0.1-1.2
	c-0.2-0.4-0.3-0.7-0.7-1c-0.2-0.2-0.5-0.4-0.8-0.7c-0.3-0.2-0.7-0.4-1.2-0.5c-0.4-0.1-0.8,0-1.2,0.2c-1,0.3-1.9,0.7-2.7,1.4
	c-0.1,0.1-0.2,0.1-0.3,0.2c-0.1,0-0.2,0-0.3,0c-0.7-0.2-1.6-0.4-2.3-0.8c-0.3-0.2-0.7-0.6-0.8-0.9c-0.3-0.5-0.7-1-1-1.5
	c-0.1-0.2-0.2-0.2-0.2-0.4c0-0.1,0-0.1,0-0.2c0-0.1,0-0.1,0.1-0.2c0.6-0.6,1.1-1.2,1.7-1.7c0.6-0.4,1.3-0.6,2-0.9
	c1.3-0.5,2.7-1,4.1-1c0.6,0,1.2,0.1,1.8,0.2c0.9,0.1,1.8,0.3,2.7,0.7c1,0.3,2,0.8,2.9,1.4c0.7,0.4,1.2,0.7,1.9,1.2
	c0.4,0.2,0.7,0.6,0.9,1c0.6,1,0.9,2.2,1.1,3.3c0.2,1.7,0.1,3.3-0.6,4.8c-0.2,0.5-0.2,1-0.5,1.5c-0.1,0.2-0.2,0.4-0.4,0.6
	c-0.2,0.2-0.4,0.6-0.6,0.8c-1.1,2-2.8,3-5,3.2C67.9,63.6,66.9,63.6,65.8,63.7z M59.8,57c-0.1,0.1-0.1,0.2-0.1,0.3
	c-0.4,1.8-0.8,3.6-1.2,5.4c-0.2,0.7-0.4,1.5-0.6,2.2c-0.1,0.3-0.2,0.7-0.2,1.1c-0.1,0.2,0,0.3,0.2,0.3c0.2,0,0.4,0.1,0.6,0.2
	c0.5,0.2,1.1,0.2,1.6,0.3c0.3,0.1,0.6,0.1,0.9,0.2c0.6,0.1,1.2,0.2,1.7,0.3l1.2-5.7c0.1,0,0.2,0,0.4,0c1,0,1.9-0.1,2.9-0.1
	c0.5,0,1-0.2,1.5-0.3c1.7-0.6,2.9-1.8,3.8-3.3c0.4-0.7,0.7-1.4,1.1-2.1c0.5-0.9,0.5-2,0.3-3c-0.1-0.5-0.2-0.9-0.2-1.4
	c-0.1-0.7-0.3-1.6-0.7-2.2c-0.4-0.8-1.1-1.7-1.8-2.2c-0.1,0-0.1-0.1-0.1-0.1c-0.6-0.4-1.1-1-1.7-1.2c-0.6-0.2-1.2-0.3-1.7-0.5
	c-1.7-0.5-3.5-0.7-5.2-0.1c-1.2,0.3-2.2,0.8-3.3,1.2c-0.2,0.1-0.4,0.2-0.6,0.3c-0.5,0.5-1,1-1.5,1.5c0.1,0.1,0.1,0.2,0.2,0.2
	c0.7,0.5,0.9,1.2,1.3,1.9c0.2,0.4,0.2,0.4,0.7,0.2c0.5-0.2,1-0.6,1.5-0.7c1.7-0.6,3.6-0.5,5.4,0.2c0.7,0.3,1.5,0.8,2,1.5
	c0.8,1,0.7,2.1,0.2,3.2s-1.2,2.1-2.4,2.6c-1.1,0.3-2.2,0.4-3.3,0.2C61.7,57.6,60.8,57.3,59.8,57z M71.7,46.9L71.7,46.9
	c0,0.2,0.2,0.3,0.2,0.4c0.5,0.3,0.8,0.8,1.1,1.3c0.1,0.2,0.2,0.3,0.2,0.4c0.2,0.7,0.6,1.2,0.7,2c0.2,0.8,0.2,1.7,0.3,2.4
	c0.1,0.8,0,1.7-0.3,2.5c-0.6,1.2-1.1,2.4-1.9,3.4c-0.8,0.9-1.7,1.7-2.8,2.2c-0.9,0.3-1.8,0.4-2.8,0.5c-0.7,0-1.2,0-1.9,0.1
	c0.2,0.2,0.5,0.5,0.7,0.7c0.2,0.3,0.6,0.4,1,0.4c1.2-0.2,2.4-0.2,3.6-0.5c1.3-0.2,2.5-0.9,3.3-1.9c0.9-1.1,1.5-2.3,2-3.6
	c0.4-1.2,0.8-2.6,0.7-4c-0.1-1.6-0.6-3.1-1.3-4.4c-0.1-0.1-0.2-0.2-0.2-0.2c-0.3-0.2-0.7-0.6-1.2-0.8C72.6,47.5,72.1,47.2,71.7,46.9
	z M64.2,62.3c-0.3,1.6-0.6,3-0.9,4.5c-0.2,0.6-0.2,1.1,0.3,1.5c0,0,0,0.1,0.1,0.1c0.2,0.2,0.4,0.4,0.7,0.7c0.1-0.2,0.2-0.4,0.2-0.7
	c0.1-0.2,0.1-0.6,0.1-0.8c0.2-1.2,0.4-2.4,0.6-3.6c0-0.2,0-0.3-0.1-0.5C64.9,63.1,64.6,62.7,64.2,62.3z M64.2,69.4
	c-0.2-0.2-0.3-0.4-0.4-0.6c-0.2-0.3-0.6-0.6-0.9-0.8c-0.3-0.2-0.7-0.3-1.2-0.4c-1-0.2-2-0.4-2.9-0.6C58.6,67,58.3,67,58,66.9
	L57.9,67c0.7,0.5,1.3,1,2,1.4c0.1,0.1,0.2,0.2,0.4,0.2c0.7,0.2,1.5,0.2,2.2,0.4c0.5,0.1,0.9,0.2,1.4,0.4
	C63.9,69.4,64.1,69.4,64.2,69.4L64.2,69.4z M64.8,50.2c-2-0.4-3.9-0.5-5.6,1c0.5,0.2,1,0.3,1.5,0.6c0.2,0.2,0.3,0.2,0.4,0.2
	c0.2,0,0.2-0.1,0.4-0.2c0.6-0.3,1.2-0.7,1.7-1C63.8,50.5,64.3,50.5,64.8,50.2L64.8,50.2z"/>
<path d="M57.1,68.5c0.2,0.1,0.3,0.1,0.5,0.2c1.1,0.2,2.1,0.5,3.1,0.7c0.4,0.1,0.8,0.2,1.2,0.2c0.7,0.1,1.3,0.3,1.7,0.8l0.1,0.1
	c0.6,0.4,0.6,0.4,0.4,1.1c-0.2,0.9-0.5,1.9-0.7,2.8c-0.1,0.2-0.1,0.5-0.2,0.7c-0.1,0.4-0.2,0.9-0.3,1.3l-0.1,0.1c0,0-0.1,0-0.2,0
	c-0.2,0-0.4,0-0.7-0.1c-1.1-0.2-2.2-0.4-3.1-0.7c-0.6-0.2-1.2-0.3-1.8-0.5c-0.2-0.1-0.3-0.2-0.5-0.3c-0.2-0.2-0.4-0.5-0.7-0.7
	c-0.2-0.1-0.2-0.2-0.2-0.4c-0.1-0.2-0.1-0.3,0-0.5C56.1,71.8,56.6,70.3,57.1,68.5C57,68.7,57,68.6,57.1,68.5z M62.4,70.1
	c-0.2,0-0.2,0-0.4-0.1c-0.5-0.1-1-0.2-1.5-0.3c-0.8-0.2-1.6-0.5-2.4-0.7c-0.3-0.1-0.6-0.1-0.9-0.1c-0.4,1.6-0.8,3.1-1.3,4.6
	c0.1,0.1,0.2,0.1,0.4,0.2c1.4,0.3,2.9,0.7,4.3,1.1c0.6,0.2,0.6,0.2,0.7-0.5c0.3-1.2,0.6-2.4,0.9-3.6C62.3,70.5,62.4,70.4,62.4,70.1
	L62.4,70.1z M62.8,75.8c0.1-0.2,0.2-0.3,0.2-0.5c0.3-1.3,0.7-2.7,1-4.1v-0.1c0,0,0-0.1-0.1-0.1c-0.3-0.2-0.7-0.6-1.1-0.8l-1.3,4.9
	L62.8,75.8z M56,73.9c0.4,0.7,1.7,1.4,2.4,1.6c0.8,0.2,1.7,0.3,2.6,0.4c0.5,0.1,1,0.2,1.6,0.2c-0.4-0.2-0.7-0.5-1.2-0.7
	c-0.2-0.1-0.2-0.2-0.4-0.2c-1.3-0.3-2.7-0.7-4.1-1.1C56.6,74.1,56.4,74,56,73.9z"/>
<path class="st1" d="M59.8,57c1,0.2,1.9,0.6,2.8,0.7c1.1,0.2,2.2,0.1,3.3-0.2c1.2-0.4,1.9-1.4,2.4-2.6c0.5-1.1,0.5-2.2-0.2-3.2
	c-0.6-0.7-1.2-1.2-2-1.5c-1.7-0.7-3.6-0.8-5.4-0.2c-0.5,0.2-1,0.5-1.5,0.7c-0.4,0.2-0.5,0.2-0.7-0.2c-0.3-0.7-0.7-1.4-1.3-1.9
	c-0.1-0.1-0.1-0.2-0.2-0.2c0.5-0.5,1-1,1.5-1.5c0.2-0.2,0.3-0.2,0.6-0.3c1.1-0.4,2.2-0.9,3.3-1.2c1.7-0.6,3.5-0.4,5.2,0.1
	c0.6,0.2,1.2,0.3,1.7,0.5C70,46,70.5,46.6,71,47c0.1,0,0.1,0.1,0.1,0.1c0.7,0.6,1.4,1.3,1.8,2.2c0.4,0.7,0.7,1.4,0.7,2.2
	c0.1,0.5,0.2,0.9,0.2,1.4c0.1,1,0.1,2-0.3,3c-0.3,0.7-0.7,1.4-1.1,2.1c-0.9,1.5-2.1,2.7-3.8,3.3c-0.5,0.2-1,0.3-1.5,0.3
	c-1,0-1.9,0.1-2.9,0.1c-0.2,0-0.3,0-0.4,0l-1.2,5.7c-0.7-0.2-1.2-0.2-1.7-0.3C60.5,67,60.3,67,59.9,67c-0.5-0.1-1.1-0.2-1.6-0.3
	c-0.2-0.1-0.4-0.1-0.6-0.2c-0.2,0-0.3-0.2-0.2-0.3c0.1-0.3,0.2-0.7,0.2-1.1c0.2-0.7,0.4-1.5,0.6-2.2c0.4-1.8,0.8-3.6,1.2-5.4
	C59.7,57.3,59.8,57.2,59.8,57z"/>
<path class="st2" d="M71.7,46.9c0.4,0.2,0.9,0.5,1.3,0.8c0.4,0.2,0.7,0.6,1.2,0.8c0.1,0.1,0.2,0.2,0.2,0.2c0.7,1.3,1.2,2.8,1.3,4.4
	c0.1,1.4-0.3,2.7-0.7,4c-0.4,1.3-1,2.7-2,3.6c-0.8,1-2,1.7-3.3,1.9c-1.2,0.2-2.4,0.2-3.6,0.5c-0.4,0.1-0.7,0-1-0.4
	c-0.2-0.2-0.4-0.5-0.7-0.7c0.7,0,1.3,0,1.9-0.1c0.9-0.1,1.9-0.2,2.8-0.5c1.2-0.5,2-1.2,2.8-2.2c0.8-1,1.3-2.2,1.9-3.4
	c0.4-0.8,0.4-1.7,0.3-2.5c0-0.8-0.2-1.7-0.3-2.4c-0.2-0.7-0.5-1.3-0.7-2c-0.1-0.2-0.2-0.3-0.2-0.4c-0.2-0.6-0.6-1-1.1-1.3
	C71.9,47.2,71.8,47.1,71.7,46.9L71.7,46.9z"/>
<path class="st2" d="M64.2,62.3c0.4,0.4,0.7,0.7,1.1,1.2c0.1,0.2,0.2,0.3,0.1,0.5c-0.2,1.2-0.4,2.4-0.6,3.6
	c-0.1,0.2-0.1,0.6-0.1,0.8c-0.1,0.2-0.2,0.5-0.2,0.7c-0.2-0.2-0.5-0.4-0.7-0.7c0,0,0-0.1-0.1-0.1c-0.5-0.4-0.5-0.9-0.3-1.5
	C63.6,65.3,63.8,63.8,64.2,62.3z"/>
<path class="st2" d="M64.2,69.4c-0.2,0-0.3,0-0.5,0c-0.5-0.2-0.9-0.3-1.4-0.4c-0.7-0.2-1.5-0.2-2.2-0.4c-0.2,0-0.2-0.1-0.4-0.2
	c-0.7-0.5-1.3-1-2-1.4l0.1-0.1c0.2,0.1,0.6,0.1,0.8,0.2c1,0.2,2,0.4,2.9,0.6c0.4,0.1,0.8,0.2,1.2,0.4c0.3,0.2,0.7,0.5,0.9,0.8
	C63.9,69,64.1,69.2,64.2,69.4z"/>
<path class="st2" d="M64.8,50.2c-0.5,0.2-1,0.3-1.5,0.5c-0.6,0.2-1.2,0.6-1.7,1c-0.1,0.1-0.2,0.2-0.4,0.2c-0.2,0-0.3,0-0.4-0.1
	c-0.5-0.2-1-0.4-1.5-0.6C60.9,49.7,62.8,49.9,64.8,50.2z"/>
<path class="st1" d="M62.4,70.1c-0.1,0.2-0.1,0.4-0.2,0.6c-0.3,1.2-0.6,2.4-0.9,3.6c-0.2,0.6-0.2,0.6-0.7,0.5
	c-1.4-0.3-2.9-0.7-4.3-1.1c-0.2,0-0.2-0.1-0.4-0.2c0.4-1.6,0.8-3.1,1.3-4.6c0.3,0,0.6,0.1,0.9,0.1c0.8,0.2,1.6,0.5,2.4,0.7
	c0.5,0.2,1,0.2,1.5,0.3C62.2,70.1,62.2,70.1,62.4,70.1z"/>
<path class="st2" d="M62.8,75.8l-1.3-0.7l1.3-4.9c0.4,0.3,0.7,0.6,1.1,0.8l0.1,0.1v0.1c-0.3,1.3-0.7,2.7-1,4.1
	C62.9,75.5,62.9,75.7,62.8,75.8z"/>
<path class="st2" d="M56,73.9c0.3,0.1,0.6,0.2,0.8,0.2c1.3,0.3,2.7,0.7,4.1,1.1c0.2,0,0.2,0.1,0.4,0.2c0.3,0.2,0.7,0.4,1.2,0.7
	c-0.6-0.1-1.1-0.2-1.6-0.2c-0.8-0.2-1.7-0.3-2.6-0.4C57.6,75.3,56.4,74.6,56,73.9z"/>
<path d="M19.1,44.5c-0.9-0.6-1.9-0.3-2.2,0.7c-0.2,0.7,0.3,1.5,1.2,1.7c0.2,0.1,0.3,0.1,0.5,0.1s0.3-0.1,0.5-0.2
	c0.2-0.1,0.2-0.2,0.4-0.3c0.1-0.2,0.2-0.2,0.2-0.4C20,45.5,19.7,44.9,19.1,44.5z"/>
<path d="M23.5,49.4c0.2-0.2,0.2-0.6,0.2-0.9c-0.1-0.3-0.2-0.6-0.5-0.8c-0.3-0.2-0.7-0.2-1.2-0.2c-0.4,0.1-0.7,0.3-1,0.7
	c-0.2,0.2-0.2,0.7-0.2,0.9c0.1,0.3,0.2,0.6,0.6,0.8c0.3,0.2,0.7,0.2,1.2,0.2C22.9,49.9,23.2,49.7,23.5,49.4z"/>
<path d="M44.6,64.1c0-0.3-0.2-0.7-0.4-0.9s-0.6-0.3-0.9-0.3c-0.7,0-1.5,0.8-1.5,1.6c0,0.3,0.2,0.7,0.4,0.9c0.2,0.2,0.6,0.3,0.9,0.3
	c0.4,0,0.7-0.2,1-0.5C44.4,64.9,44.6,64.5,44.6,64.1z"/>
<path d="M45.5,62.4c0.2,0,0.3,0,0.5-0.1c0.2-0.1,0.3-0.2,0.4-0.2c0.2-0.2,0.2-0.2,0.3-0.4c0.1-0.2,0.1-0.3,0.1-0.5
	c0-0.3-0.2-0.7-0.4-0.9s-0.6-0.4-1-0.3c-0.2,0-0.3,0-0.5,0.1c-0.2,0.1-0.3,0.2-0.4,0.2c-0.2,0.1-0.2,0.2-0.3,0.4
	c-0.1,0.2-0.1,0.3-0.1,0.5c0,0.2,0,0.3,0.1,0.5c0.1,0.2,0.2,0.3,0.3,0.4c0.2,0.2,0.2,0.2,0.4,0.2C45.1,62.4,45.3,62.4,45.5,62.4z"/>
<path d="M23,42.3c-0.7-0.5-1.5-0.3-1.9,0.3c-0.1,0.2-0.2,0.3-0.2,0.5s0,0.3,0,0.5s0.1,0.3,0.2,0.5c0.1,0.2,0.2,0.2,0.4,0.3
	c0.7,0.5,1.5,0.3,1.9-0.2C23.8,43.5,23.6,42.8,23,42.3z"/>
<path d="M53.8,80.1c0-0.3-0.2-0.7-0.4-0.9s-0.6-0.3-0.9-0.3c-0.7,0-1.5,0.8-1.5,1.6c0,0.3,0.2,0.7,0.4,0.9c0.2,0.2,0.6,0.3,0.9,0.3
	c0.4,0,0.7-0.2,1-0.5C53.6,80.9,53.8,80.5,53.8,80.1z"/>
<path d="M54.7,78.4c0.2,0,0.3,0,0.5-0.1c0.2-0.1,0.3-0.2,0.4-0.2c0.2-0.2,0.2-0.2,0.3-0.4c0.1-0.2,0.1-0.3,0.1-0.5
	c0-0.3-0.2-0.7-0.4-0.9c-0.2-0.2-0.6-0.4-1-0.3c-0.2,0-0.3,0-0.5,0.1s-0.3,0.2-0.4,0.2c-0.2,0.1-0.2,0.2-0.3,0.4
	c-0.1,0.2-0.1,0.3-0.1,0.5c0,0.2,0,0.3,0.1,0.5c0.1,0.2,0.2,0.3,0.3,0.4c0.2,0.2,0.2,0.2,0.4,0.2C54.4,78.4,54.5,78.4,54.7,78.4z"/>
</svg>
