<?xml version="1.0" encoding="utf-8"?>
<!-- Generator: Adobe Illustrator 25.0.0, SVG Export Plug-In . SVG Version: 6.00 Build 0)  -->
<svg version="1.1" id="Capa_1" xmlns="http://www.w3.org/2000/svg" xmlns:xlink="http://www.w3.org/1999/xlink" x="0px" y="0px"
	 viewBox="0 0 92 66" style="enable-background:new 0 0 92 66;" xml:space="preserve">
<style type="text/css">
	.st0{fill:#FFFFFF;}
	.st1{fill:#EFD6A8;}
	.st2{fill:#FFD265;}
	.st3{fill:#7C81BD;}
</style>
<rect class="st0" width="92" height="66"/>
<path d="M73.2,11.1l3.2-0.8c0.1-0.1,0.3-0.1,0.4-0.1c0.3,0,0.8-0.1,1,0.1c0.3,0.3,0,0.6-0.1,1c-0.1,0.2-0.2,0.5-0.3,0.8
	c0.7-0.1,1.4-0.2,2-0.4c0.8-0.2,1.6-0.4,2.4-0.6c1.2-0.3,1.3-0.2,1.5,1l2.4,0.2c0.1,0,0.2,0,0.4,0c0.8,0.1,1,0.4,0.8,1.2
	c-0.4,1.7-0.8,3.4-1.1,5.2c-0.7,3.5-0.9,7.1-1.1,10.6c-0.1,2.8-0.4,5.6-0.5,8.4c-0.1,1.8-0.1,3.6-0.1,5.5c0,2.8,0.1,5.6,0,8.3
	c0,2.4,0.2,4.7,0.6,7.1c0,0.2,0.1,0.4,0.4,0.4c0.1,0,0.2,0,0.2,0c0.1,0,0.2,0.1,0.2,0.1c0.1,0.1,0.1,0.1,0.1,0.2
	c0,0.1,0.1,0.2,0.1,0.2c0,0.7-0.1,1.5-0.1,2.2c0,0.1-0.1,0.2-0.2,0.3c-0.1,0.1-0.2,0.1-0.3,0.1c-1.2,0.2-2.4,0.3-3.6,0.4
	c-3.1,0.2-6.1,0.3-9.2,0.6c-4.8,0.5-9.5,1.1-14.3,1.6c-3.5,0.4-7.1,0.5-10.6,0.4c-0.5,0-1,0-1.5,0c-0.4,0-0.5-0.2-0.6-0.6
	c-0.1-0.6-0.2-1.3-0.3-1.9c-0.2-1.3-0.6-1.6-1.7-1.6c-1.4,0-2.8,0-4.2,0.1c-3.2,0.3-6.3,0.7-9.5,1c-2.3,0.2-4.5,0.5-6.8,0.7
	c-1.7,0.1-3.4,0.1-5.1,0.1c-1,0-2.1-0.1-3.1-0.1c-0.4,0-0.5-0.2-0.5-0.6c0-1.3,0-2.6,0-3.9c-0.1-2.1-0.1-4.1-0.2-6.2
	c-0.2-4.1-0.4-8.2-0.5-12.3c-0.3-5.7-0.5-11.5,0.1-17.2c0.4-3.6,0.7-7.1,1-10.7c0.1-1.2,0-2.4,0-3.6c0-0.9,0.9-2.1,1.9-2
	c1.5,0.1,3.1,0,4.6,0.1c6.4,0.2,12.5,1.8,18.6,3.8c2.3,0.8,4.7,1.5,7,2.3c0.9,0.3,1.7,0.8,2.5,1.2c0.3,0.1,0.5,0.2,0.7-0.1
	c3.8-3.8,8.5-5.9,13.6-7.2c3-0.8,6-1.3,9-1.9c0.9-0.1,1.9-0.2,2.8-0.2c0.6,0,0.7,0.1,0.8,0.7c0,0.5-0.1,0.9-0.3,1.3
	c-0.7,1.3-1.4,2.7-2,4.1C73.2,10.9,73.2,11,73.2,11.1z M45.5,58.2c0-0.5-0.1-0.8-0.1-1.2c-0.1-0.6-0.1-1.3-0.1-1.9
	c0.2-2.7,0.3-5.4,0.5-8.1c0.3-4.9,0.8-9.7,1-14.6c0.1-3.5,0.5-6.9,1-10.4c0.3-2,0.6-3.9,0.8-5.9c0-0.2,0-0.4,0-0.5
	c-0.1-0.2-0.2-0.3-0.3-0.4c-0.8-0.5-1.6-0.9-2.4-1.3c-1.3-0.4-2.6-0.6-3.9-1c-3.8-1-7.6-1.7-11.4-2.3c-3.7-0.5-7.5-1-11.3-1.5
	c-0.8-0.1-1.6-0.3-2.5-0.4c0,0.2,0,0.4,0,0.5c0.1,1.3,0.2,2.5,0.2,3.7c0,4.1-0.1,8.3-0.1,12.4c0.1,5,0.1,10.1,0.4,15.1
	c0.4,6,0,12.1-0.4,18.1c0,0.6,0,1.1,0.1,1.7c0.8-0.1,1.6-0.2,2.3-0.3c2.5-0.3,4.9-0.5,7.4-0.8c1.2-0.1,2.4-0.3,3.6-0.4
	c1.7-0.2,3.4-0.4,5-0.5c1.4-0.1,2.8-0.2,4.2-0.1c1.5,0.1,3,0.4,4.4,0.6c0.1,0,0.3,0,0.4,0c0.1-0.1,0.2-0.2,0.3-0.3
	C44.9,58.2,45,57.9,45.5,58.2z M74.6,5.7c-0.1,0-0.3,0-0.4,0c-1.8,0.2-3.6,0.4-5.4,0.7c-3.7,0.7-7.4,1.6-10.9,3.1
	c-2.8,1.1-5.3,2.7-7.6,4.7c-0.3,0.2-0.5,0.5-0.6,0.9c-0.1,0.7-0.2,1.5-0.3,2.3c-0.2,1.8-0.4,3.5-0.7,5.3c-0.6,3.6-0.8,7.3-0.9,11
	c-0.2,3.8-0.5,7.6-0.8,11.5c-0.2,3.3-0.5,6.6-0.7,9.9c-0.1,1,0.1,2,0.2,3l0.2,0.1c6.2-7.1,14.3-11.3,22.6-15.3
	c-0.1-0.2-0.1-0.4-0.2-0.6c-1.6-4.4-1.8-9-1-13.6c0.6-3.6,1.3-7.2,2-10.9c0.5-3.2,1.5-6.3,2.9-9.2C73.6,7.7,74.1,6.7,74.6,5.7z
	 M81.9,12.3c-0.1,0-0.2,0-0.3,0c-1.2,0.2-2.3,0.5-3.5,0.6c-1,0.1-1.4,0.4-1.7,1.4c-0.9,2.9-1.6,5.9-1.7,9c-0.1,3.8-0.2,7.6-0.2,11.4
	c0,1.7,0,3.4,0.1,5.1c0.2,1.9,0.6,3.9,1.3,5.7c0.3,0.7,0.2,0.9-0.5,1.2c-0.5,0.2-1,0.4-1.5,0.6c-3.9,1.7-7.9,3.3-11.8,5
	c-4.2,1.8-8.4,3.6-12.1,6.3l-0.4,0.3c0.4,0,0.7,0,1.1-0.1l16.9-3.7l10-2.2c0.3-0.1,0.6-0.1,0.5-0.6c-0.2-3.7-0.5-7.3-0.6-11
	c-0.1-3.6,0.3-7.1,0.7-10.6c0.5-4.8,1.3-9.6,2.5-14.2C81.2,15.1,81.5,13.7,81.9,12.3z M47.4,58.9l0.1,0.1c0.6-0.4,1.2-0.8,1.9-1.2
	c1.4-0.9,2.8-2,4.3-2.8c2.8-1.4,5.7-2.8,8.6-4c4.1-1.7,8.1-3.4,12.2-5c0.4-0.2,0.5-0.3,0.3-0.8c-0.8-2.1-1.2-4.4-1.3-6.6
	c0-4-0.1-7.9,0-11.9c0-2.1,0.1-4.1,0.4-6.2c0.3-3,1.2-5.9,2.2-8.8c0-0.1,0.1-0.3,0.1-0.5C75.1,11.7,74,12,73,12.3
	c-0.1,0-0.2,0.1-0.2,0.2c-0.1,0.1-0.1,0.2-0.1,0.3c-0.3,0.7-0.5,1.4-0.6,2.1c-0.6,3.1-1.2,6.1-1.7,9.2c-0.4,2.9-0.7,5.8-0.9,8.7
	c-0.2,2.7,0.1,5.5,0.5,8.1c0.1,0.7,0.5,1.4,0.7,2.1c0,0.1,0.1,0.2,0.1,0.3c0,0.1,0,0.2,0,0.3c0,0.1-0.1,0.2-0.2,0.2
	c-0.1,0.1-0.1,0.1-0.2,0.1c-2.3,1.1-4.6,2.1-6.8,3.3c-5.2,2.7-10.2,5.9-14.4,10.1L47.4,58.9z M15.9,7.5c-0.1,0.1-0.3,0.1-0.3,0.2
	c-0.2,0.6-0.3,1.3-0.4,1.9c-0.1,1.9-0.1,3.9-0.3,5.9c-0.5,5.4-1.2,10.8-1.1,16.2c0.1,2.5,0.1,5,0.2,7.5c0.1,2.2,0.3,4.4,0.4,6.6
	c0.1,3.4,0.2,6.7,0.2,10.1c0,1.9,0.1,3.8,0.2,5.8c0,0.3,0.1,0.4,0.4,0.4c1.4,0,2.8,0.2,4.2,0.1c1.8-0.1,3.6-0.2,5.4-0.4
	c3.5-0.4,7-0.8,10.5-1.2c2.3-0.2,4.5-0.4,6.8-0.5c0.8,0,1.5,0.2,2.3,0.3l0.1-0.1C44.4,60.1,44.2,60,44,60c-1.3-0.2-2.6-0.3-3.8-0.5
	c-1.5-0.2-3-0.3-4.5-0.1c-3.4,0.4-6.8,0.8-10.2,1.2c-2.8,0.3-5.5,0.7-8.3,1c-1,0.1-1.2,0-1.2-1c0-2.1,0.1-4.1,0.2-6.2
	c0.1-2,0.3-4,0.3-6c-0.1-4.7-0.3-9.4-0.4-14.2c-0.1-7-0.4-14.1-0.1-21.1c0.1-1.4-0.1-2.7-0.2-4.1C15.8,8.5,15.9,8.1,15.9,7.5z
	 M84.4,13.3c-0.4,0-0.7,0-1-0.1c-0.5-0.1-0.7,0.1-0.8,0.6c-0.4,1.6-0.8,3.2-1.2,4.8c-1.9,8.4-2.9,16.9-2.7,25.6
	c0.1,2.8,0.4,5.7,0.6,8.5c0.1,0.8,0,1.1-0.8,1.3c-1.6,0.4-3.1,0.8-4.7,1.1c-6.2,1.4-12.4,2.7-18.6,4c-2.4,0.5-4.7,1.2-7.1,1.2
	c-0.1,0-0.3,0.1-0.4,0.2l0.1,0.2c5.9-0.8,11.6-2.2,17.5-3c5.8-0.9,11.7-1.8,17.7-2.8c0-0.3-0.1-0.6-0.2-1c-0.2-0.5-0.5-1-0.6-1.5
	c-0.8-4-1.7-7.9-1.7-12c0-2.9,0-5.9,0.2-8.8c0.1-1.8,0.5-3.6,0.8-5.3c0.4-3,0.9-6,1.8-8.9C83.6,16,84,14.7,84.4,13.3z M47.9,62.9
	c0.1,0,0.2,0,0.3,0c2.1-0.3,4.1-0.6,6.2-0.9c3.7-0.6,7.4-1,11.1-1.1c3.2,0,6.4-0.3,9.6-0.9c2.7-0.5,5.3-1.1,8.1-0.9
	c0.1,0,0.2,0,0.2-0.1c-0.2-1.1-0.3-2.1-0.5-3.1c-1,0.2-2,0.3-2.9,0.5c-2.8,0.4-5.7,0.9-8.5,1.3c-3.9,0.6-7.8,1.3-11.6,1.9
	c-3.7,0.6-7.4,1.3-11.1,1.9c-1,0.2-1,0.1-0.9,1.2C47.9,62.7,47.9,62.8,47.9,62.9L47.9,62.9z M85.6,13.4l-0.2-0.1
	c-0.1,0.1-0.1,0.3-0.2,0.4c-0.9,3.3-2,6.6-2.5,10c-0.3,2.5-0.8,4.9-1.1,7.3c-0.6,5.3-0.5,10.7,0.5,15.9c0.1,0.8,0.3,1.5,0.4,2.3h0.1
	c0-0.6,0-1.3,0-1.9c0-2.9,0-5.8,0.1-8.7c0.2-4.6,0.5-9.3,0.9-13.9c0.3-3.7,0.9-7.4,1.8-11C85.6,13.7,85.6,13.6,85.6,13.4z
	 M84.6,60.2c-1.5-0.2-4.5,0-6.6,0.4c-3.9,0.8-7.8,1.3-11.8,1.4c-2.5,0.1-5,0.2-7.5,0.5c-3.4,0.4-6.8,0.9-10.3,1.5
	c-0.1,0-0.3,0.1-0.4,0.2l0,0.2c0.2,0,0.3,0,0.5,0c0.5,0,0.9-0.1,1.4-0.1c4.1-0.1,8.2-0.4,12.2-1c5.3-0.7,10.5-1.3,15.8-1.5
	c2-0.1,4-0.3,6-0.4c0.1,0,0.2,0,0.3-0.1c0.1,0,0.2-0.1,0.2-0.2C84.5,60.8,84.6,60.5,84.6,60.2L84.6,60.2z M16.9,7.6l0,0.2l18.7,2.6
	C29.5,8.6,23.3,7.4,16.9,7.6L16.9,7.6z M46.5,59.8c-1-0.3-1.1-0.2-1,0.7c0.1,1,0.2,2,0.4,3c0.1,0.7,0.2,0.8,1,0.7L46.5,59.8z"/>
<path class="st1" d="M45.5,58.2c-0.5-0.3-0.6,0-0.8,0.2c-0.1,0.1-0.2,0.2-0.3,0.3c-0.1,0.1-0.3,0.1-0.4,0c-1.5-0.2-3-0.5-4.4-0.6
	c-1.4-0.1-2.8,0-4.2,0.1c-1.7,0.1-3.4,0.4-5,0.5c-1.2,0.1-2.4,0.3-3.6,0.4c-2.5,0.3-4.9,0.5-7.4,0.8c-0.7,0.1-1.4,0.2-2.3,0.3
	c-0.1-0.6-0.1-1.1-0.1-1.7c0.4-6,0.8-12,0.4-18.1c-0.3-5-0.4-10-0.4-15.1c-0.1-4.1,0.1-8.3,0.1-12.4c0-1.3-0.1-2.5-0.2-3.7
	c0-0.2,0-0.3,0-0.5c0.8,0.1,1.7,0.3,2.5,0.4c3.8,0.5,7.5,1,11.3,1.5C34.4,11.3,38.2,12,42,13c1.3,0.3,2.6,0.6,3.9,1
	c0.8,0.3,1.6,0.8,2.4,1.3c0.2,0.1,0.3,0.3,0.3,0.4c0.1,0.2,0.1,0.4,0,0.5c-0.3,2-0.6,3.9-0.8,5.9c-0.5,3.4-0.8,6.9-1,10.4
	c-0.2,4.9-0.7,9.7-1,14.6c-0.2,2.7-0.4,5.4-0.5,8.1c0,0.6,0,1.3,0.1,1.9C45.4,57.4,45.5,57.8,45.5,58.2z M40.3,20.8l0.4-0.3
	c-0.2-0.1-0.3-0.3-0.5-0.4c-0.1,0-0.1,0-0.2,0c-5.3-0.9-10.7-1.8-16-2.7c-0.6-0.1-1.1-0.1-1.7-0.2c-0.1,0-0.2,0.1-0.3,0.2
	c0.1,0.1,0.2,0.2,0.3,0.3c0.1,0,0.2,0.1,0.3,0.1c4.2,0.7,8.4,1.5,12.6,2.2C36.8,20.3,38.5,20.5,40.3,20.8z M35.1,48.1
	c1.6,0,3.5,0,5.3,0c0.2,0,0.3-0.1,0.5-0.2c-0.2-0.1-0.3-0.3-0.5-0.3c-0.8-0.1-1.6-0.1-2.4-0.1c-3,0.1-6,0.2-9,0.5
	c-2.1,0.1-4.2,0.4-6.2,0.7c-0.3,0.1-0.7,0.2-1,0.3c-0.1,0-0.1,0.3-0.1,0.4c0.1,0.1,0.3,0.1,0.4,0.1c1-0.2,1.9-0.5,2.9-0.5
	C28.2,48.6,31.5,48.4,35.1,48.1z M41.9,38.4l0.1-0.1c-0.1-0.1-0.2-0.3-0.4-0.4c-0.2-0.1-0.3-0.1-0.5-0.1c-5.6-0.4-11.3-0.3-16.9-0.1
	c-0.5,0-0.9,0.1-1.3,0.2c-0.1,0-0.2,0.2-0.3,0.3c0.1,0.1,0.2,0.2,0.3,0.2c0.3,0,0.7,0,1,0c5.3-0.2,10.5-0.2,15.8,0
	C40.4,38.5,41.1,38.4,41.9,38.4L41.9,38.4z M41.5,27.4c-0.1,0-0.2,0-0.2,0c-4.9-0.2-9.9-0.4-14.8-0.5c-1.2,0-2.4,0-3.6,0
	c-0.2,0-0.4,0.1-0.6,0.3l0,0.2c0.3,0,0.7,0.1,1,0.1c5.4,0.2,10.9,0.4,16.3,0.6c0.5,0,1,0,1.6,0C41.4,28,41.6,27.8,41.5,27.4
	L41.5,27.4z M24.1,22.1L24.1,22.1c-0.7,0.1-1.5,0.1-2.2,0.1c-0.1,0-0.3,0.1-0.4,0.2c0.1,0.1,0.3,0.2,0.4,0.3c0,0,0.1,0,0.2,0
	c1.5,0.1,2.9,0.2,4.4,0.3c4,0.4,8,0.8,12.1,1.2c0.4,0,0.9,0.1,1.3,0.1c0.1,0,0.2-0.1,0.3-0.2c-0.1-0.1-0.1-0.2-0.2-0.2
	c-0.3-0.1-0.5-0.2-0.8-0.2C34,23.1,29,22.6,24.1,22.1z M34.7,42c-3.9,0.2-6.9,0.4-9.9,0.6c-0.7,0-1.4,0.1-2.1,0.2
	c-0.2,0-0.4,0.2-0.6,0.3c0.2,0.1,0.4,0.1,0.6,0.2c0.1,0,0.2,0,0.3,0c1.6-0.1,3.1-0.3,4.7-0.3c3.9-0.2,7.9-0.3,11.8-0.5
	c0.3,0,0.6,0,1,0c0.1,0,0.1-0.1,0.2-0.1s0.1-0.1,0.1-0.2c0-0.1-0.1-0.2-0.2-0.2c-0.2-0.1-0.5-0.1-0.7-0.1C37.8,42,35.8,42,34.7,42z
	 M22.1,54.2c0.1,0,0.2,0,0.2,0c0.7-0.1,1.4-0.3,2.1-0.4c3.8-0.5,7.6-0.7,11.5-0.3c0.9,0.1,1.7,0.1,2.6,0.2c0.1,0,0.3-0.1,0.5-0.2
	c-0.1-0.1-0.2-0.3-0.4-0.3C38,53.1,37.5,53,36.9,53c-3.4-0.4-6.7-0.4-10.1,0c-1.4,0.2-2.7,0.4-4.1,0.6c-0.2,0-0.3,0.1-0.5,0.2
	C22.2,53.9,22.1,54,22.1,54.2z M31.6,32.9c0.9,0,1.8,0,2.7,0c1.6,0,3.3,0.1,4.9,0.2c0.1,0,0.3-0.1,0.5-0.2c-0.1-0.1-0.3-0.3-0.4-0.3
	c-0.6-0.1-1.3-0.2-1.9-0.2c-4.2,0-8.4-0.1-12.6-0.1c-0.5,0-0.9,0-1.4,0.1c-0.2,0-0.3,0.2-0.4,0.3c0.2,0.1,0.3,0.2,0.5,0.2
	c0.5,0,1-0.1,1.5-0.1C27.1,32.9,29.3,32.9,31.6,32.9L31.6,32.9z"/>
<path class="st2" d="M74.6,5.7c-0.5,1.1-1.1,2-1.6,3c-1.4,2.9-2.4,6-2.9,9.2c-0.6,3.6-1.4,7.2-2,10.9c-0.8,4.6-0.6,9.1,1,13.6
	c0.1,0.2,0.1,0.4,0.2,0.6c-8.3,4-16.4,8.2-22.6,15.3l-0.2-0.1c-0.1-1-0.2-2-0.2-3c0.2-3.3,0.5-6.6,0.7-9.9c0.3-3.8,0.6-7.6,0.8-11.5
	c0.2-3.7,0.3-7.3,0.9-11c0.3-1.7,0.4-3.5,0.7-5.3c0.1-0.7,0.1-1.5,0.3-2.3c0.1-0.4,0.3-0.7,0.6-0.9c2.3-2,4.8-3.6,7.6-4.7
	c3.5-1.5,7.2-2.4,10.9-3.1c1.8-0.3,3.6-0.5,5.4-0.7C74.3,5.7,74.5,5.7,74.6,5.7z M65,39.2L65,39.2c-0.7,0.1-1.5,0.2-2.2,0.4
	c-1.9,0.8-3.8,1.5-5.6,2.5c-2.1,1.1-4.1,2.4-6.1,3.6c-0.3,0.2-0.6,0.5-0.8,0.7c-0.1,0.1-0.1,0.3-0.1,0.4c0.1,0,0.3,0,0.4-0.1
	c0.3-0.2,0.6-0.5,0.9-0.7c4.3-2.6,8.6-5.4,13.6-6.4c0.2-0.1,0.3-0.2,0.5-0.3c-0.2-0.1-0.3-0.2-0.5-0.3C65.1,39.2,65.1,39.2,65,39.2z
	 M66.1,17.1c-0.3,0-0.5,0-0.7,0.1c-2.7,0.6-5.3,1.1-7.9,1.8c-2.2,0.6-4.4,1.5-6.4,2.7c-0.2,0.1-0.6,0.3-0.4,0.6c0,0.1,0.5,0,0.8-0.2
	c0.8-0.4,1.6-0.9,2.5-1.3c2.5-1,5.1-1.8,7.8-2.3c1.4-0.3,2.9-0.5,4.3-0.8c0.2-0.1,0.4-0.2,0.6-0.4L66.1,17.1z M50.5,28.9l0.2,0.2
	c0.2-0.1,0.5-0.2,0.7-0.3c1.3-0.6,2.6-1.3,3.9-1.7c3-0.8,6-1.5,9-2.3c0.2,0,0.4-0.1,0.5-0.2c0,0,0.1-0.1,0.1-0.1c0,0,0-0.1,0-0.2
	c0-0.1-0.1-0.2-0.2-0.2c-0.1,0-0.3,0-0.4,0c-2.8,0.7-5.7,1.3-8.5,2c-1.7,0.5-3.4,1.2-4.9,2.1C50.8,28.6,50.6,28.7,50.5,28.9
	L50.5,28.9z M63.2,30.9c-0.9,0.3-1.7,0.4-2.5,0.7c-2.9,1.1-5.8,2.5-8.5,4.1c-0.7,0.4-1.3,0.8-2,1.2c-0.1,0.1-0.2,0.3-0.2,0.4
	c0.2,0,0.4,0,0.5,0c0.2-0.1,0.4-0.2,0.5-0.3c2.4-1.5,4.9-2.8,7.5-3.9c1.5-0.6,3.1-1.1,4.7-1.7c0.2-0.1,0.3-0.3,0.4-0.4L63.2,30.9z
	 M63.7,27.6c-0.2,0-0.3,0-0.5,0.1c-3.9,0.9-7.6,2.2-11.2,3.8c-0.4,0.2-0.9,0.5-1.2,0.8c-0.1,0.1-0.1,0.3-0.2,0.5c0.2,0,0.3,0,0.5,0
	c0.3-0.1,0.6-0.3,0.8-0.5c2.4-1.3,5-2.1,7.6-2.9c1.3-0.4,2.7-0.8,4.1-1.2c0.1,0,0.2-0.2,0.4-0.3L63.7,27.6z M64.3,20.7
	c-0.2-0.1-0.2-0.2-0.3-0.2c-0.2,0-0.4,0-0.6,0c-1.6,0.4-3.3,0.9-4.9,1.4c-1.9,0.6-3.8,1.3-5.6,2.1c-0.6,0.3-1.3,0.6-1.8,1
	c-0.1,0.1-0.1,0.3-0.2,0.4c0.1,0,0.3,0.1,0.4,0.1c0.1,0,0.2-0.1,0.3-0.1c3-1.7,6.2-2.6,9.5-3.5c1-0.3,1.9-0.5,2.9-0.8
	C64,20.9,64.2,20.8,64.3,20.7L64.3,20.7z M63.2,36.1l-0.1-0.2c-0.2,0-0.4,0-0.6,0c-3.7,0.9-7.3,2.2-10.7,4.1
	c-0.4,0.3-0.8,0.5-1.2,0.9c-0.1,0.1-0.1,0.3-0.1,0.5c0.2,0,0.3,0,0.5-0.1c0.6-0.4,1.2-0.8,1.8-1.1c2.2-1.1,4.6-2.1,7-2.8
	c0.9-0.3,1.9-0.5,2.8-0.8C62.9,36.4,63,36.3,63.2,36.1z M63.1,11.8c-0.1,0-0.2,0-0.2,0c-2.3,0.5-4.5,1.3-6.7,2.2
	c-0.2,0.1-0.3,0.2-0.4,0.3c-0.1,0.1-0.1,0.2-0.1,0.3c0.1,0,0.2,0.1,0.3,0.1c0.1,0,0.3-0.1,0.4-0.1c1.2-0.4,2.3-0.8,3.5-1.2
	c1.1-0.3,2.2-0.6,3.3-1c0.1,0,0.2-0.2,0.3-0.3L63.1,11.8z"/>
<path class="st1" d="M81.9,12.3c-0.4,1.4-0.7,2.9-1.1,4.3c-1.2,4.7-2,9.4-2.5,14.2c-0.4,3.5-0.8,7.1-0.7,10.6
	c0.1,3.7,0.3,7.3,0.6,11c0,0.5-0.2,0.5-0.5,0.6l-10,2.2l-16.9,3.7c-0.4,0.1-0.7,0.1-1.1,0.1l0.4-0.3c3.7-2.8,7.9-4.5,12.1-6.3
	c3.9-1.7,7.9-3.3,11.8-5c0.5-0.2,1-0.4,1.5-0.6c0.7-0.3,0.8-0.5,0.5-1.2c-0.7-1.8-1.1-3.7-1.3-5.7c-0.2-1.7-0.2-3.4-0.1-5.1
	c0-3.8,0.1-7.6,0.2-11.4c0.1-3.1,0.8-6,1.7-9c0.3-1,0.7-1.3,1.7-1.4c1.2-0.1,2.3-0.4,3.5-0.6C81.7,12.3,81.8,12.3,81.9,12.3z"/>
<path class="st1" d="M47.4,58.9l1.7-1.7c4.2-4.2,9.1-7.4,14.3-10.1c2.2-1.2,4.5-2.2,6.8-3.3c0.1,0,0.2-0.1,0.2-0.1
	c0.1-0.1,0.1-0.1,0.2-0.2c0-0.1,0.1-0.2,0-0.3c0-0.1,0-0.2-0.1-0.3c-0.2-0.7-0.6-1.4-0.7-2.1c-0.4-2.7-0.7-5.4-0.5-8.1
	c0.2-2.9,0.5-5.8,0.9-8.7c0.5-3.1,1.1-6.2,1.7-9.2c0.2-0.7,0.4-1.4,0.6-2.1c0-0.1,0.1-0.2,0.1-0.3c0.1-0.1,0.1-0.1,0.2-0.2
	c1.1-0.3,2.2-0.6,3.4-0.9c-0.1,0.2-0.1,0.4-0.1,0.5c-1,2.9-1.9,5.8-2.2,8.8c-0.2,2.1-0.3,4.1-0.4,6.2c-0.1,4,0,7.9,0,11.9
	c0.1,2.3,0.5,4.5,1.3,6.6c0.1,0.4,0.1,0.6-0.3,0.8c-4.1,1.7-8.2,3.3-12.2,5c-2.9,1.3-5.8,2.6-8.6,4c-1.5,0.8-2.9,1.8-4.3,2.8
	c-0.6,0.4-1.2,0.8-1.9,1.2L47.4,58.9z"/>
<path class="st3" d="M15.9,7.5c0,0.5-0.1,1-0.1,1.5c0,1.4,0.2,2.7,0.2,4.1c-0.3,7,0,14.1,0.1,21.1c0.1,4.7,0.3,9.4,0.4,14.2
	c0,2-0.2,4-0.3,6c-0.1,2.1-0.2,4.1-0.2,6.2c0,1,0.2,1.1,1.2,1c2.7-0.4,5.5-0.7,8.3-1c3.4-0.4,6.8-0.8,10.2-1.2
	c1.5-0.2,3-0.2,4.5,0.1c1.3,0.2,2.6,0.3,3.8,0.5c0.2,0.1,0.3,0.1,0.5,0.2l-0.1,0.1c-0.8-0.1-1.5-0.3-2.3-0.3
	c-2.3,0.1-4.5,0.3-6.8,0.5c-3.5,0.4-7,0.8-10.5,1.2c-1.8,0.2-3.6,0.3-5.4,0.4c-1.4,0-2.8-0.1-4.2-0.1c-0.3,0-0.4-0.2-0.4-0.4
	c-0.1-1.9-0.1-3.8-0.2-5.8c-0.1-3.4-0.1-6.7-0.2-10.1c-0.1-2.2-0.3-4.4-0.4-6.6c-0.1-2.5-0.1-5-0.2-7.5c-0.2-5.4,0.5-10.8,1.1-16.2
	c0.2-1.9,0.1-3.9,0.3-5.9c0.1-0.7,0.2-1.3,0.4-1.9C15.6,7.7,15.8,7.6,15.9,7.5z"/>
<path class="st1" d="M84.4,13.3c-0.4,1.4-0.8,2.7-1.2,4c-0.9,2.9-1.4,5.9-1.8,8.9c-0.3,1.8-0.7,3.6-0.8,5.3
	c-0.2,2.9-0.2,5.9-0.2,8.8c0,4.1,0.9,8,1.7,12c0.1,0.5,0.4,1,0.6,1.5c0.1,0.3,0.2,0.6,0.2,1c-5.9,0.9-11.8,1.9-17.7,2.8
	c-5.9,0.9-11.6,2.2-17.5,3l-0.1-0.2c0.1-0.1,0.3-0.2,0.4-0.2c2.4,0,4.8-0.7,7.1-1.2c6.2-1.3,12.4-2.7,18.6-4
	c1.6-0.3,3.1-0.7,4.7-1.1c0.8-0.2,0.9-0.4,0.8-1.3c-0.2-2.8-0.5-5.7-0.6-8.5c-0.2-8.6,0.8-17.2,2.7-25.6c0.4-1.6,0.8-3.2,1.2-4.8
	c0.1-0.5,0.3-0.7,0.8-0.6C83.7,13.2,84,13.2,84.4,13.3z"/>
<path class="st1" d="M47.9,62.9c0-0.1,0-0.2-0.1-0.2c-0.2-1-0.2-1,0.9-1.2c3.7-0.6,7.4-1.3,11.1-1.9c3.9-0.6,7.8-1.3,11.6-1.9
	c2.8-0.5,5.7-0.9,8.5-1.3c1-0.2,1.9-0.3,2.9-0.5c0.2,1,0.3,2,0.5,3.1c-0.1,0-0.1,0.1-0.2,0.1c-2.7-0.1-5.4,0.5-8.1,0.9
	c-3.2,0.6-6.4,0.9-9.6,0.9c-3.7,0.1-7.4,0.5-11.1,1.1c-2.1,0.3-4.1,0.6-6.2,0.9C48.2,62.9,48.1,62.9,47.9,62.9z"/>
<path class="st1" d="M85.6,13.4c0,0.2-0.1,0.3-0.1,0.5c-1,3.6-1.6,7.3-1.8,11c-0.4,4.6-0.7,9.2-0.9,13.9c-0.1,2.9-0.1,5.8-0.1,8.7
	c0,0.6,0,1.3,0,1.9h-0.1c-0.1-0.8-0.3-1.5-0.4-2.3c-1-5.3-1.1-10.6-0.5-15.9c0.3-2.5,0.8-4.9,1.1-7.3c0.5-3.4,1.6-6.7,2.5-10
	c0-0.1,0.1-0.3,0.2-0.4L85.6,13.4z"/>
<path class="st3" d="M84.6,60.2c0,0.3-0.1,0.6-0.1,0.9c-0.1,0.1-0.1,0.1-0.2,0.2c-0.1,0-0.2,0.1-0.3,0.1c-2,0.2-4,0.3-6,0.4
	c-5.3,0.2-10.6,0.8-15.8,1.5c-4.1,0.6-8.1,0.9-12.2,1c-0.5,0-0.9,0-1.4,0.1c-0.2,0-0.3,0-0.5,0l0-0.2c0.1-0.1,0.3-0.2,0.4-0.2
	c3.4-0.5,6.8-1.1,10.3-1.5c2.5-0.3,5-0.4,7.5-0.5c4-0.1,7.9-0.6,11.8-1.4C80,60.2,83.1,60,84.6,60.2z"/>
<path class="st3" d="M16.9,7.6c6.4-0.2,12.6,1,18.7,2.8L16.9,7.8L16.9,7.6z"/>
<path class="st3" d="M46.5,59.7l0.4,4.3c-0.8,0-0.9,0-1-0.7c-0.1-1-0.3-2-0.4-3C45.4,59.5,45.6,59.4,46.5,59.7z"/>
<path d="M40.3,20.8c-1.8-0.3-3.5-0.6-5.1-0.9c-4.2-0.7-8.4-1.5-12.6-2.2c-0.1,0-0.2,0-0.3-0.1c-0.1-0.1-0.2-0.2-0.3-0.3
	c0.1-0.1,0.2-0.2,0.3-0.2c0.6,0,1.1,0.1,1.7,0.2c5.3,0.9,10.7,1.8,16,2.7c0.1,0,0.1,0,0.2,0c0.2,0.1,0.3,0.2,0.5,0.4L40.3,20.8z"/>
<path d="M35.1,48.1c-3.6,0.3-6.9,0.5-10.1,0.8c-1,0.1-1.9,0.4-2.9,0.5c-0.1,0-0.3,0-0.4-0.1c0-0.1,0-0.4,0.1-0.4
	c0.3-0.2,0.6-0.3,1-0.3c2.1-0.3,4.2-0.5,6.2-0.7c3-0.2,6-0.3,9-0.5c0.8,0,1.6,0,2.4,0.1c0.2,0,0.3,0.2,0.5,0.3
	c-0.2,0.1-0.3,0.2-0.5,0.2C38.5,48.2,36.7,48.1,35.1,48.1z"/>
<path d="M41.9,38.4c-0.7,0-1.5,0-2.2,0c-5.3-0.2-10.5-0.2-15.8,0c-0.3,0-0.7,0-1,0c-0.1,0-0.2-0.1-0.3-0.2c0.1-0.1,0.2-0.3,0.3-0.3
	c0.4-0.1,0.9-0.2,1.3-0.2c5.6-0.2,11.3-0.3,16.9,0.1c0.2,0,0.3,0,0.5,0.1c0.1,0.1,0.3,0.2,0.4,0.4L41.9,38.4z"/>
<path d="M41.5,27.4c0.1,0.4,0,0.5-0.3,0.5c-0.5,0-1,0-1.6,0c-5.4-0.2-10.9-0.4-16.3-0.6c-0.3,0-0.7,0-1-0.1l0-0.2
	c0.2-0.1,0.4-0.2,0.6-0.3c1.2,0,2.4-0.1,3.6,0c4.9,0.2,9.9,0.4,14.8,0.5C41.3,27.4,41.4,27.4,41.5,27.4z"/>
<path d="M24.1,22.1c5,0.5,10,1,15,1.5c0.3,0,0.6,0.1,0.8,0.2c0.1,0,0.1,0.2,0.2,0.2c-0.1,0.1-0.2,0.2-0.3,0.2c-0.4,0-0.9,0-1.3-0.1
	c-4-0.4-8-0.8-12.1-1.2c-1.5-0.1-2.9-0.2-4.4-0.3c-0.1,0-0.1,0-0.2,0c-0.2-0.1-0.3-0.2-0.4-0.3c0.1-0.1,0.3-0.2,0.4-0.2
	C22.6,22.1,23.3,22.1,24.1,22.1L24.1,22.1z"/>
<path d="M34.7,42c1.1,0,3.1,0,5.2,0c0.3,0,0.5,0,0.7,0.1c0.1,0,0.2,0.2,0.2,0.2c0,0.1-0.1,0.1-0.1,0.2c0,0-0.1,0.1-0.2,0.1
	c-0.3,0-0.6,0-1,0c-3.9,0.2-7.9,0.3-11.8,0.5c-1.6,0.1-3.1,0.2-4.7,0.3c-0.1,0-0.2,0-0.3,0c-0.2-0.1-0.4-0.1-0.6-0.2
	c0.2-0.1,0.4-0.3,0.6-0.3c0.7-0.1,1.4-0.2,2.1-0.2C27.8,42.4,30.8,42.3,34.7,42z"/>
<path d="M22.1,54.2c0-0.2,0.1-0.3,0.2-0.5c0.1-0.1,0.3-0.2,0.5-0.2c1.4-0.2,2.7-0.4,4.1-0.6c3.4-0.4,6.7-0.4,10.1,0
	c0.5,0.1,1.1,0.2,1.6,0.3c0.1,0,0.3,0.2,0.4,0.3c-0.2,0.1-0.3,0.2-0.5,0.2c-0.9,0-1.7-0.1-2.6-0.2c-3.8-0.3-7.7-0.2-11.5,0.3
	c-0.7,0.1-1.4,0.3-2.1,0.4C22.2,54.2,22.1,54.2,22.1,54.2z"/>
<path d="M31.6,32.9c-2.2,0-4.5,0-6.8,0c-0.5,0-1,0.1-1.5,0.1c-0.2,0-0.3-0.1-0.5-0.2c0.1-0.1,0.3-0.3,0.4-0.3
	c0.4-0.1,0.9-0.1,1.4-0.1c4.2,0,8.4,0,12.6,0.1c0.6,0,1.3,0.1,1.9,0.2c0.2,0,0.3,0.2,0.4,0.3c-0.2,0.1-0.3,0.2-0.5,0.2
	c-1.6,0-3.3-0.1-4.9-0.2C33.4,32.9,32.5,32.9,31.6,32.9z"/>
<path d="M65,39.2c0,0,0.1,0,0.1,0c0.2,0.1,0.3,0.2,0.5,0.3c-0.1,0.1-0.3,0.2-0.5,0.3c-5.1,1-9.3,3.7-13.6,6.4
	c-0.3,0.2-0.6,0.5-0.9,0.7c-0.1,0.1-0.3,0-0.4,0.1c0-0.1,0-0.3,0.1-0.4c0.2-0.3,0.5-0.5,0.8-0.7c2-1.2,4-2.5,6.1-3.6
	c1.8-0.9,3.7-1.7,5.6-2.5C63.5,39.4,64.3,39.3,65,39.2L65,39.2z"/>
<path d="M66.1,17.1l0.5,0.2c-0.2,0.2-0.4,0.3-0.6,0.4c-1.4,0.3-2.9,0.5-4.3,0.8c-2.7,0.5-5.3,1.3-7.8,2.3c-0.9,0.4-1.7,0.9-2.5,1.3
	c-0.2,0.1-0.7,0.2-0.8,0.2c-0.2-0.4,0.2-0.5,0.4-0.6c2-1.2,4.1-2.2,6.4-2.7c2.6-0.7,5.3-1.2,7.9-1.8C65.5,17.1,65.7,17.1,66.1,17.1z
	"/>
<path d="M50.5,28.9c0.1-0.2,0.3-0.4,0.5-0.5c1.5-0.9,3.2-1.7,4.9-2.1c2.8-0.7,5.6-1.4,8.5-2c0.1,0,0.3,0,0.4,0
	c0.1,0,0.2,0.1,0.2,0.2c0,0.1,0,0.1,0,0.2c0,0-0.1,0.1-0.1,0.1c-0.2,0.1-0.3,0.1-0.5,0.2c-3,0.8-6,1.4-9,2.3
	c-1.4,0.4-2.6,1.1-3.9,1.7c-0.2,0.1-0.5,0.2-0.7,0.3L50.5,28.9z"/>
<path d="M63.3,30.9l0.4,0.3c-0.1,0.1-0.3,0.3-0.4,0.4c-1.6,0.6-3.2,1-4.7,1.7c-2.6,1.1-5.1,2.4-7.5,3.9c-0.2,0.1-0.3,0.2-0.5,0.3
	c-0.2,0-0.4,0-0.5,0c0.1-0.2,0.1-0.4,0.2-0.4c0.6-0.4,1.3-0.8,2-1.2c2.7-1.6,5.5-3,8.5-4.1C61.5,31.3,62.4,31.1,63.3,30.9z"/>
<path d="M63.7,27.6l0.3,0.3c-0.1,0.1-0.2,0.3-0.4,0.3c-1.3,0.4-2.7,0.8-4.1,1.2c-2.6,0.8-5.2,1.6-7.6,2.9c-0.3,0.2-0.5,0.3-0.8,0.5
	c-0.2,0-0.3,0-0.5,0c0.1-0.2,0.1-0.4,0.2-0.5c0.4-0.3,0.8-0.6,1.2-0.8c3.6-1.7,7.3-3,11.2-3.8C63.3,27.6,63.5,27.6,63.7,27.6z"/>
<path d="M64.4,20.7c-0.1,0.1-0.3,0.2-0.5,0.3c-1,0.3-1.9,0.5-2.9,0.8c-3.2,1-6.5,1.8-9.5,3.5c-0.1,0.1-0.2,0.1-0.3,0.1
	c-0.1,0-0.3,0-0.4-0.1c0.1-0.1,0.1-0.4,0.2-0.4c0.6-0.4,1.2-0.7,1.8-1c1.9-0.7,3.7-1.4,5.6-2.1c1.6-0.5,3.3-0.9,4.9-1.4
	c0.2,0,0.4-0.1,0.6,0C64.1,20.5,64.2,20.6,64.4,20.7z"/>
<path d="M63.2,36.1c-0.1,0.1-0.3,0.2-0.5,0.3c-0.9,0.3-1.9,0.5-2.8,0.8c-2.4,0.7-4.7,1.6-7,2.8c-0.6,0.3-1.2,0.8-1.8,1.1
	c-0.2,0.1-0.3,0.1-0.5,0.1c0-0.2,0-0.4,0.1-0.5c0.4-0.3,0.7-0.6,1.2-0.9c3.4-1.8,6.9-3.2,10.7-4.1c0.2,0,0.4,0,0.6,0L63.2,36.1z"/>
<path d="M63.1,11.8l0.3,0.3c-0.1,0.1-0.2,0.3-0.3,0.3c-1.1,0.3-2.2,0.6-3.3,1c-1.2,0.4-2.3,0.8-3.5,1.2c-0.1,0.1-0.2,0.1-0.4,0.1
	c-0.1,0-0.2,0-0.3-0.1c0-0.1,0-0.2,0.1-0.3c0.1-0.1,0.3-0.2,0.4-0.3c2.2-0.9,4.4-1.7,6.7-2.2C62.9,11.8,63,11.8,63.1,11.8z"/>
<path d="M9.1,38.7c-1.2,0-1.9-0.9-1.5-1.9c0.3-0.8,1.3-1.1,2.2-0.8c0.2,0.1,0.3,0.1,0.5,0.3c0.1,0.1,0.3,0.3,0.3,0.4
	c0.1,0.2,0.1,0.3,0.1,0.5s0,0.4-0.1,0.5C10.4,38.4,9.9,38.7,9.1,38.7z"/>
<path d="M11.2,7.3c0,0.4-0.2,0.7-0.4,1c-0.3,0.3-0.6,0.4-1,0.4c-0.4,0-0.8-0.2-1.2-0.5S8.1,7.4,8.1,7c0-0.4,0.2-0.7,0.4-1
	c0.3-0.3,0.6-0.4,1-0.4c0.4,0,0.8,0.2,1.1,0.5C11,6.5,11.1,6.9,11.2,7.3z"/>
<path d="M87.7,2.7c0,0.4-0.2,0.7-0.4,1C87,3.9,86.6,4,86.3,4c-0.4,0-0.8-0.2-1.1-0.5c-0.3-0.3-0.5-0.7-0.5-1.2c0-0.4,0.2-0.7,0.4-1
	c0.3-0.2,0.6-0.4,1-0.4c0.4,0,0.8,0.2,1.1,0.5C87.5,1.8,87.7,2.2,87.7,2.7z"/>
<path d="M89.6,47.1c0.2,0,0.4,0,0.6,0.1c0.2,0.1,0.4,0.2,0.5,0.3c0.1,0.1,0.3,0.3,0.3,0.5c0.1,0.2,0.1,0.4,0.1,0.6
	c0,0.4-0.2,0.8-0.5,1S90,50,89.6,50c-0.2,0-0.4,0-0.6-0.1c-0.2-0.1-0.3-0.2-0.5-0.3c-0.1-0.1-0.2-0.3-0.3-0.5
	c-0.1-0.2-0.1-0.4-0.1-0.6c0-0.2,0-0.4,0.1-0.6c0.1-0.2,0.2-0.4,0.3-0.5c0.1-0.1,0.3-0.2,0.5-0.3C89.3,47.1,89.5,47.1,89.6,47.1z"/>
<path d="M2.4,4.5c-0.9,0-1.6-0.6-1.5-1.4c0-0.4,0.2-0.7,0.5-1c0.3-0.3,0.7-0.4,1-0.4c0.9,0,1.5,0.6,1.5,1.4S3.3,4.5,2.4,4.5z"/>
<path d="M7.8,52c-0.9,0-1.5-0.6-1.5-1.4c0-0.2,0-0.4,0.1-0.6c0.1-0.2,0.2-0.3,0.3-0.5c0.1-0.1,0.3-0.2,0.5-0.3
	c0.2-0.1,0.4-0.1,0.6-0.1c0.9,0,1.6,0.6,1.6,1.4C9.3,51.4,8.7,52,7.8,52z"/>
</svg>
