<?xml version="1.0" encoding="utf-8"?>
<!-- Generator: Adobe Illustrator 25.0.0, SVG Export Plug-In . SVG Version: 6.00 Build 0)  -->
<svg version="1.1" id="Capa_1" xmlns="http://www.w3.org/2000/svg" xmlns:xlink="http://www.w3.org/1999/xlink" x="0px" y="0px"
	 viewBox="0 0 16 16" style="enable-background:new 0 0 16 16;" xml:space="preserve">
<style type="text/css">
	.st0{fill:#FFFFFF;}
</style>
<path class="st0" d="M3.2,4.8c0.6-0.3,1.5-0.5,2.3-0.6c0.9-0.1,1.7,0,2.1,0.5v6.7C7,11.1,6.2,11,5.4,11.1c-0.8,0.1-1.6,0.3-2.3,0.6
	C3.2,11.7,3.2,4.8,3.2,4.8z M8.3,4.7c0.5-0.5,1.2-0.6,2.1-0.5c0.9,0.1,1.7,0.4,2.3,0.6v6.8c-0.6-0.2-1.5-0.5-2.3-0.6
	c-0.8-0.1-1.6,0-2.2,0.3V4.7z M8,4.1C7.3,3.5,6.3,3.4,5.4,3.5C4.4,3.6,3.3,4,2.7,4.3C2.6,4.3,2.5,4.5,2.5,4.6v7.6
	c0,0.2,0.2,0.3,0.3,0.3c0,0,0.1,0,0.1,0c0.6-0.3,1.6-0.6,2.5-0.7c1-0.1,1.8,0.1,2.2,0.6c0.1,0.1,0.3,0.2,0.5,0.1c0,0,0,0,0.1-0.1
	c0.4-0.5,1.3-0.7,2.2-0.6c1,0.1,1.9,0.4,2.5,0.7c0.2,0.1,0.4,0,0.5-0.2c0,0,0-0.1,0-0.1V4.6c0-0.1-0.1-0.3-0.2-0.3
	c-0.7-0.3-1.7-0.7-2.8-0.8C9.7,3.4,8.7,3.5,8,4.1z"/>
</svg>
