<?xml version="1.0" encoding="utf-8"?>
<!-- Generator: Adobe Illustrator 25.0.0, SVG Export Plug-In . SVG Version: 6.00 Build 0)  -->
<svg version="1.1" id="Capa_1" xmlns="http://www.w3.org/2000/svg" xmlns:xlink="http://www.w3.org/1999/xlink" x="0px" y="0px"
	 viewBox="0 0 66 70" style="enable-background:new 0 0 66 70;" xml:space="preserve">
<style type="text/css">
	.st0{fill:#FFFFFF;}
	.st1{fill:#8EC2D8;}
	.st2{fill:#A06A80;}
	.st3{fill:#E88D4F;}
	.st4{fill:#517583;}
	.st5{fill:#7C81BD;}
	.st6{fill:#FFD265;}
</style>
<rect x="0.5" y="0.3" class="st0" width="66.3" height="70"/>
<path d="M42.3,6.6c-3-0.3-6-0.5-9-0.8c-3.3-0.3-6.5-0.7-9.8-1c-2-0.2-4-0.5-5.9-0.7c-0.5-0.1-0.8,0.1-0.9,0.6c-0.2,2-0.5,4-0.7,6
	c-0.2,2-0.5,4-0.6,6c-0.6,9-1.7,17.9-2.7,26.8c-0.4,3.7-0.9,7.4-1.4,11.2c-0.1,1-0.3,1.9-0.6,2.8c-0.1,0.3-0.2,0.5-0.5,0.7
	c-0.4,0.4-0.5,0.8-0.3,1.2c0.6,1.1,0.5,2.3,0,3.5c-0.3,0.6-0.2,1.1,0.5,1.3c0.4,0.1,0.7,0.2,1.1,0.2c1.1,0.1,2.3,0.3,3.4,0.4
	c1.9,0.1,3.6,0.8,5.3,1.2c1.9,0.5,3.9,0.6,5.9,0.8c2.9,0.1,5.8,0.2,8.6,0.6c2.6,0.3,5.1,0.9,7.7,1.4c0.6,0.1,1.3,0.2,1.9,0.3
	c0.7,0.1,1.1-0.1,1.2-0.7c0.3-0.9,0.4-1.8,0.5-2.8c0.3-2.6,0.8-5.2,1.6-7.7c2-7.2,3.1-14.6,3.8-22c0.5-5.3,0.9-10.6,1.2-15.8
	c0.2-3.8,0.3-7.6,0.5-11.5c0-0.6-0.2-0.8-0.7-0.9C49.2,7.2,45.8,6.9,42.3,6.6L42.3,6.6z M12,58.1c0-0.2,0-0.4,0.1-0.7
	c0.3-1.7,0.7-3.4,0.9-5.1c0.5-3.9,0.8-7.8,1.3-11.7c1-8.6,1.9-17.2,2.5-25.9c0.2-2.9,0.5-5.8,0.8-8.7c0-0.4,0.1-0.7,0.6-0.6
	c0.5,0.1,1.1,0,1.6,0.1c1.6,0.2,3.1,0.4,4.7,0.5c3.6,0.4,7.2,0.8,10.7,1.1c4,0.4,8,0.7,12,1C47.8,8.3,48,8.5,48,9
	c0.1,2.9,0.2,5.8,0.2,8.7c0,3.6-0.2,7.2-0.3,10.7c-0.1,3.1-0.2,6.3-0.4,9.4c-0.4,5-1.2,10-2.3,15c-0.6,2.7-1.3,5.3-1.9,8
	c-0.2,0.8-0.5,1.6-0.8,2.4c-1.3-0.4-2.6-0.9-3.8-1.3c-6.1-1.8-12.4-2.2-18.8-2.5C17.2,59.2,14.5,58.8,12,58.1z M49.2,8.3
	c0.8,0.1,1.5,0.2,2.2,0.3c1,0.1,1,0.1,0.9,1.1c-0.2,3.7-0.3,7.4-0.6,11.1C51.3,26.1,51,31.6,50.4,37c-0.4,4.2-1.1,8.4-1.9,12.5
	c-0.7,3.6-1.6,7.2-2.4,10.8c-0.2,0.8-0.4,1.6-0.6,2.4l-1.5-0.5c0.1-0.3,0.1-0.5,0.2-0.7c0.3-1.1,0.7-2.3,1-3.4
	c0.7-3.1,1.5-6.2,2-9.3c0.6-3.9,1.1-7.8,1.5-11.7c0.3-2.9,0.3-5.9,0.4-8.9c0.1-5.5,0.2-10.9,0.3-16.4C49.4,10.7,49.3,9.6,49.2,8.3z
	 M41.5,67.3c-0.2,0-0.4-0.1-0.6-0.1l-4-0.8c-2.9-0.6-5.9-0.7-8.8-0.8c-3.1,0-6.1-0.2-9-1.2c-1.8-0.6-3.6-0.9-5.4-0.8
	c-0.5,0-1.1,0-1.6-0.1c-0.6-0.1-0.7-0.2-0.6-0.8c0.1-0.4,0.3-0.4,0.6-0.4c1.9,0,3.7-0.1,5.6,0c5,0.4,9.9,1.3,14.8,2.3
	c2.4,0.5,4.7,1,7,1.6c0.7,0.2,1.4,0.3,2.2,0.5C41.6,66.8,41.6,67,41.5,67.3L41.5,67.3z M41.8,65.9c-1.6-0.4-3.2-0.7-4.7-1.1
	c-1.7-0.4-3.5-0.9-5.2-1.2c-3.1-0.6-6.2-1.1-9.3-1.5c-2.5-0.3-5.1-0.5-7.7-0.7c-1-0.1-2.1,0-3.1,0c-0.1-0.4,0.1-0.5,0.4-0.5
	c1.1,0.1,2.2,0.1,3.3,0.2c3.2,0.3,6.3,0.6,9.5,0.9c4.5,0.5,9,0.8,13.4,2c1.2,0.3,2.5,0.7,3.7,1.1C41.9,65.5,41.8,65.7,41.8,65.9
	L41.8,65.9z M11.5,59.4c0.3,0,0.6,0,0.9,0.1c2.7,0.8,5.6,1,8.4,1.1c5.6,0.3,11.1,0.7,16.5,2.1c1.5,0.4,2.9,0.9,4.4,1.3
	c0.3,0.1,0.6,0.2,0.3,0.6c-0.7-0.2-1.4-0.4-2.1-0.6c-1.9-0.5-3.9-1.1-5.9-1.4C29,62,23.9,61.4,18.8,60.9c-2.1-0.2-4.3-0.4-6.4-0.5
	C11.5,60.3,11.5,60.4,11.5,59.4L11.5,59.4z M42.7,67.4c0.2-1,0.3-2,0.5-2.9c0.2-1.2,0.4-1.3,1.5-0.8c0.1,0,0.2,0.1,0.3,0.1
	c0.1,0.1,0.3,0.3,0.3,0.4c-0.1,1.1-0.3,2.1-0.5,3.2c0,0.1-0.1,0.1-0.2,0.2s-0.1,0.1-0.2,0.1C43.9,67.6,43.3,67.5,42.7,67.4
	L42.7,67.4z"/>
<path class="st1" d="M12,58.1c2.6,0.7,5.2,1.1,7.8,1.2c6.3,0.3,12.6,0.7,18.8,2.5c1.3,0.4,2.5,0.8,3.8,1.3c0.3-0.8,0.6-1.6,0.8-2.4
	c0.7-2.6,1.3-5.3,1.9-8c1.1-4.9,1.9-9.9,2.3-15c0.3-3.1,0.3-6.3,0.4-9.4c0.1-3.6,0.3-7.2,0.3-10.7c0-2.9-0.1-5.8-0.2-8.7
	c0-0.5-0.2-0.8-0.8-0.8c-4-0.3-8-0.7-12-1c-3.6-0.3-7.2-0.7-10.7-1.1c-1.6-0.2-3.1-0.4-4.7-0.5c-0.5-0.1-1.1,0-1.6-0.1
	c-0.5-0.1-0.6,0.2-0.6,0.6c-0.3,2.9-0.6,5.8-0.8,8.7c-0.6,8.6-1.4,17.3-2.5,25.9c-0.5,3.9-0.8,7.8-1.3,11.7
	c-0.2,1.7-0.6,3.4-0.9,5.1C12,57.7,12,57.9,12,58.1z M33.1,30.6c0,0.1,0,0.1,0,0.2c-2.2-0.4-4.5-0.8-6.7-1.1
	c-0.8-0.1-1.6-0.3-2.4-0.5c-0.2-0.1-0.4-0.4-0.5-0.6c0-0.1,0-0.2,0-0.2c0-0.1,0.1-0.1,0.1-0.2c0-0.1,0.1-0.1,0.2-0.1
	c0.1,0,0.1,0,0.2,0c0.2,0,0.5,0,0.7,0c2.3,0.4,4.5,0.8,6.8,1.2c1.9,0.3,3.8,0.6,5.7,0.9c0.6,0.1,1.2,0.3,1.7,0.6
	c0.1,0,0.1,0.1,0.2,0.1c0.1,0.1,0.1,0.1,0.1,0.2c0,0.1,0,0.2,0,0.2c0,0.1,0,0.2-0.1,0.2c-0.1,0.1-0.2,0.2-0.3,0.2
	c-0.1,0-0.3,0.1-0.4,0.1C36.7,31.3,34.9,30.9,33.1,30.6z M23.7,35.4L23.7,35.4l-1-0.2c-1.4-0.2-2.7-0.3-4.1-0.5
	c-0.4-0.1-0.8-0.3-0.7-0.8c0.1-0.5,0.5-0.6,0.9-0.5c2.2,0.3,4.4,0.6,6.7,0.9c1.1,0.2,2.3,0.5,3.4,0.7c0.1,0,0.2,0,0.2,0.1
	c0.1,0,0.1,0.1,0.2,0.2c0,0.1,0.1,0.1,0.1,0.2c0,0.1,0,0.2,0,0.2c-0.1,0.4-0.3,0.5-0.7,0.5c-0.2,0-0.4,0-0.6-0.1L23.7,35.4z
	 M38.5,37.8L38.5,37.8c-0.9-0.1-1.9-0.3-2.8-0.4c-0.1,0-0.2,0-0.2-0.1c-0.1,0-0.1-0.1-0.2-0.2c0-0.1-0.1-0.1-0.1-0.2
	c0-0.1,0-0.2,0-0.2c0-0.1,0-0.2,0.1-0.2s0.1-0.1,0.1-0.2c0.1-0.1,0.1-0.1,0.2-0.1c0.1,0,0.2,0,0.2,0c0.1,0,0.2,0,0.3,0
	c1.7,0.3,3.4,0.6,5.1,0.9c0.4,0.1,0.7,0.3,0.6,0.7c-0.1,0.5-0.5,0.5-0.9,0.5L38.5,37.8z M28.5,11.4c0.9-0.4,3.8-0.1,4.3,0.4
	C32.2,12.1,28.8,11.8,28.5,11.4z M47.3,10.2c-0.3,0.1-0.3,0.1-0.4,0.1c-1.1-0.2-2.2-0.5-3.4-0.7c-0.1,0-0.2-0.2-0.3-0.3
	c0.1-0.1,0.3-0.2,0.4-0.2c1,0.2,2,0.4,3.1,0.7C46.9,9.9,47,10,47.3,10.2z M45,12.8L45,12.8c-0.8-0.2-1.5-0.3-2.3-0.5
	c-0.1,0-0.2-0.2-0.3-0.3c0.2-0.1,0.3-0.2,0.5-0.2c0.3,0,0.5,0.1,0.8,0.2c0.7,0.2,1.3,0.3,2,0.5c0.2,0,0.3,0.3,0.5,0.4
	c-0.2,0.1-0.4,0.1-0.5,0.1C45.4,12.8,45.2,12.8,45,12.8z M41.3,15.4l0-0.2c0.1,0,0.2,0,0.3,0c1.1,0.1,2.2,0.2,3.3,0.4
	c0.1,0,0.3,0.2,0.4,0.3C45.1,15.9,45,16,44.8,16c-1-0.1-2-0.2-3-0.4C41.6,15.6,41.5,15.5,41.3,15.4z M40.4,12.1
	c-0.7,0.3-3.3-0.2-3.6-0.7C37.5,11.2,40,11.6,40.4,12.1z M37.8,9.1C37.9,9,37.9,9,37.9,9c1.1,0.1,2.3,0.2,3.4,0.4
	c0.1,0,0.2,0.2,0.4,0.5c-1.3-0.2-2.4-0.3-3.6-0.4C38,9.4,37.9,9.2,37.8,9.1z M25.5,8.2c0.7-0.3,3,0.1,3.3,0.6
	C28.2,9,25.8,8.7,25.5,8.2z M23.7,14.4L20.6,14c0.3-0.4,1.3-0.5,2.6-0.2C23.5,13.9,23.8,13.9,23.7,14.4L23.7,14.4z M37.6,60.1
	c0,0.1,0,0.1-0.1,0.2c-0.9-0.1-1.8-0.2-2.7-0.3c-0.2,0-0.3-0.2-0.4-0.3c0.2-0.1,0.3-0.3,0.5-0.2c0.8,0.1,1.6,0.3,2.4,0.4
	C37.4,59.9,37.5,60,37.6,60.1z M22.7,7.9c-0.4,0.3-2.6,0.3-2.9,0.1c-0.1-0.1-0.1-0.1-0.1-0.2c0.1-0.1,0.2-0.2,0.3-0.2
	c0.6,0,1.2,0,1.8,0C22.1,7.7,22.4,7.8,22.7,7.9z M23.4,58l0.1-0.2c1,0.1,1.9,0.2,2.9,0.3c0.1,0,0.1,0.2,0.2,0.3
	c-0.1,0.1-0.2,0.2-0.3,0.2c-0.8-0.1-1.7-0.2-2.5-0.3C23.6,58.2,23.5,58.1,23.4,58z M35.2,14.5c0.7-0.3,2.8,0.1,2.9,0.5
	C37.2,15.3,35.4,15,35.2,14.5z M29,14.7L29,14.7c-0.4-0.1-0.9-0.2-1.3-0.3c-0.1,0-0.2-0.2-0.3-0.3c0.1-0.1,0.3-0.2,0.4-0.2
	c0.4,0,0.8,0.1,1.2,0.1c0.4,0.1,0.8,0.1,1.2,0.3c0.1,0,0.2,0.2,0.2,0.3c-0.1,0-0.3,0.1-0.4,0.1C29.7,14.8,29.3,14.7,29,14.7L29,14.7
	z M18,55c0.4-0.3,2.3-0.2,2.6,0.1c0,0,0,0.1,0.1,0.1c0,0,0,0.1,0,0.1c0,0-0.1,0.1-0.1,0.1c0,0-0.1,0-0.1,0c-0.7-0.1-1.4-0.2-2.1-0.3
	C18.2,55.2,18.1,55,18,55L18,55z M40.3,58.7L40.3,58.7c-0.2,0-0.5,0-0.7-0.1c-0.1,0-0.2-0.2-0.3-0.3c0.1-0.1,0.2-0.2,0.3-0.2
	c0.6,0.1,1.3,0.2,1.9,0.3c0.1,0,0.2,0.2,0.2,0.3c-0.1,0.1-0.2,0.2-0.4,0.2C41,58.9,40.7,58.8,40.3,58.7z M23.4,56.1l-0.1-0.2
	c0.1-0.1,0.3-0.2,0.4-0.2c0.8,0.2,1.7-0.1,2.4,0.5l0,0.2L23.4,56.1z M32.1,59.2c0,0.1,0,0.1-0.1,0.2c-0.8,0.1-1.6-0.2-2.4-0.4
	c0,0-0.1-0.2-0.1-0.2c0.1-0.1,0.2-0.2,0.3-0.2c0.6,0.1,1.1,0.1,1.7,0.2C31.7,59,31.9,59.1,32.1,59.2L32.1,59.2z M28.3,53.5l0.1-0.3
	c0.8,0.2,1.5,0.3,2.3,0.5c0.1,0,0.1,0.2,0.2,0.3c-0.1,0-0.2,0.1-0.3,0.1c-0.6-0.1-1.2-0.2-1.9-0.4C28.5,53.8,28.4,53.6,28.3,53.5
	L28.3,53.5z M41.7,61.2c-0.6,0.1-2.4-0.2-2.6-0.5C39.9,60.4,41.5,60.7,41.7,61.2L41.7,61.2z M32.7,9.3c0-0.1,0-0.2,0.1-0.2
	c0.8,0.1,1.6,0.1,2.4,0.2c0.1,0,0.1,0.2,0.2,0.3c-0.1,0.1-0.2,0.2-0.3,0.1c-0.6,0-1.3-0.1-1.9-0.2C33,9.5,32.8,9.4,32.7,9.3z
	 M31.1,57l-0.1,0.1l-1.8-0.1c-0.1,0-0.1,0-0.2,0c-0.1-0.1-0.3-0.2-0.4-0.3c0.1-0.1,0.3-0.2,0.4-0.2c0.6,0,1.2,0.1,1.8,0.2
	C30.9,56.7,31,56.9,31.1,57z M16.5,57.2c-0.4,0.3-1.9,0.2-2.2,0c0,0-0.1-0.1-0.1-0.1c0,0,0-0.1,0-0.2c0,0,0.1-0.1,0.1-0.1
	c0,0,0.1,0,0.1,0c0.6,0.1,1.2,0.1,1.7,0.2C16.3,57,16.4,57.1,16.5,57.2z M22,10.9l0,0.3c-0.7,0-1.4,0-2.1,0c-0.1,0-0.2-0.1-0.3-0.2
	c0.1-0.1,0.2-0.2,0.3-0.2c0.5,0,1,0,1.5,0C21.6,10.8,21.8,10.8,22,10.9z M26.4,11.3c-0.8,0.2-1.5,0.2-2.3,0c-0.1,0-0.1-0.1-0.1-0.2
	c0-0.1,0.1-0.2,0.1-0.2C24.9,10.8,25.7,10.9,26.4,11.3L26.4,11.3z M19.2,57.4c0.6-0.3,2-0.2,2.3,0.2c0,0,0.1,0.1,0.1,0.1
	c0,0.1,0,0.1,0,0.2c0,0-0.1,0.1-0.1,0.1c-0.1,0-0.1,0-0.2,0c-0.4-0.1-0.9-0.1-1.3-0.3C19.7,57.6,19.4,57.5,19.2,57.4z M23.6,52.3
	L23.6,52.3c0.3,0,0.7,0.1,1,0.2c0,0,0.1,0.1,0.1,0.1c0,0,0,0.1,0.1,0.1c0,0,0,0.1-0.1,0.1c0,0-0.1,0.1-0.1,0.1
	c-0.6-0.1-1.2-0.2-1.9-0.3c-0.1,0-0.1-0.2-0.1-0.3c0,0,0.1-0.1,0.1-0.1c0,0,0.1,0,0.1-0.1C23.1,52.3,23.4,52.3,23.6,52.3L23.6,52.3z
	 M39.8,56.2l0.1-0.4c0.7,0.1,1.4,0.3,2,0.4c0,0,0.1,0.1,0.1,0.1c0,0,0,0.1,0,0.1c0,0.1-0.2,0.2-0.2,0.2
	C41.2,56.5,40.5,56.3,39.8,56.2L39.8,56.2z M34.2,55c0.4-0.3,1.6-0.4,1.9-0.1c0.1,0.1,0,0.4,0,0.4C35.5,55.4,34.8,55.3,34.2,55
	L34.2,55z M13.9,54.8l0-0.2c0.4-0.3,1.3-0.3,1.6-0.1c0.1,0.1,0.1,0.2,0.2,0.3c0,0-0.1,0.1-0.2,0.1C15,54.9,14.5,54.9,13.9,54.8
	L13.9,54.8z M34.4,57.7c0.4-0.5,1.6-0.4,2.2,0.2C35.8,58.1,35.2,57.8,34.4,57.7z M19.6,52.2c-0.2,0.2-0.2,0.4-0.3,0.4
	c-0.5,0-1.1-0.1-1.6-0.2c0,0-0.1-0.2-0.1-0.2c0,0,0.1-0.1,0.1-0.1c0,0,0.1,0,0.1,0C18.4,52,18.9,52.1,19.6,52.2z M15.2,52.8
	l-0.4-0.4c0.3-0.1,0.5-0.2,0.8-0.3c0.1,0,0.3,0.2,0.4,0.3L15.2,52.8z"/>
<path class="st2" d="M49.2,8.3c0.1,1.3,0.3,2.4,0.2,3.6c-0.1,5.5-0.2,10.9-0.3,16.4c-0.1,3-0.1,5.9-0.4,8.9
	c-0.4,3.9-0.9,7.8-1.5,11.7c-0.5,3.1-1.3,6.2-2,9.3c-0.3,1.2-0.7,2.3-1,3.4c-0.1,0.2-0.1,0.4-0.2,0.7l1.5,0.5
	c0.2-0.8,0.4-1.6,0.6-2.4c0.8-3.6,1.8-7.2,2.4-10.8c0.8-4.1,1.4-8.3,1.9-12.5c0.6-5.4,0.9-10.9,1.3-16.3c0.3-3.7,0.4-7.4,0.6-11.1
	c0.1-1,0.1-1-0.9-1.1C50.7,8.4,50,8.4,49.2,8.3z M50.3,15.7l0.5-0.4c0.1,0.1,0.2,0.3,0.2,0.4c-0.1,0.2-0.2,0.3-0.4,0.5L50.3,15.7z
	 M48.5,44.2c0.1,0.2,0.2,0.4,0.2,0.6c0,0.1-0.2,0.2-0.3,0.3c-0.1-0.1-0.2-0.2-0.3-0.4C48.2,44.6,48.3,44.5,48.5,44.2L48.5,44.2z
	 M48.6,46.3l0.3,0.2c-0.1,0.2-0.3,0.3-0.4,0.5c0,0-0.2-0.1-0.3-0.1L48.6,46.3z"/>
<path class="st3" d="M41.5,67.3c0.1-0.3,0.1-0.5,0.1-0.8c-0.7-0.2-1.5-0.3-2.2-0.5c-2.3-0.5-4.7-1.1-7-1.6
	c-4.9-0.9-9.8-1.9-14.8-2.3c-1.9-0.1-3.7,0-5.6,0c-0.3,0-0.5,0.1-0.6,0.4c-0.1,0.6-0.1,0.7,0.6,0.8c0.5,0.1,1,0.1,1.6,0.1
	c1.9-0.1,3.7,0.2,5.4,0.8c2.9,1,5.9,1.2,9,1.2c3,0,5.9,0.2,8.8,0.8l4,0.8C41.1,67.2,41.3,67.2,41.5,67.3z"/>
<path class="st3" d="M41.8,65.9c0-0.2,0.1-0.4,0.1-0.7c-1.3-0.4-2.5-0.8-3.7-1.1c-4.4-1.2-8.9-1.6-13.4-2c-3.2-0.3-6.3-0.6-9.5-0.9
	C14.2,61.1,13.1,61,12,61c-0.3,0-0.5,0.1-0.4,0.5c1,0,2.1-0.1,3.1,0c2.6,0.2,5.1,0.4,7.7,0.7c3.1,0.4,6.2,1,9.3,1.5
	c1.8,0.3,3.5,0.8,5.2,1.2C38.6,65.2,40.1,65.6,41.8,65.9z"/>
<path class="st3" d="M11.5,59.4c0,1,0,1,0.8,1c2.1,0.1,4.3,0.3,6.4,0.5c5.1,0.5,10.2,1.1,15.3,1.8c2,0.3,3.9,0.9,5.9,1.4
	c0.7,0.2,1.4,0.4,2.1,0.6c0.3-0.4,0-0.5-0.3-0.6c-1.5-0.4-2.9-0.9-4.4-1.3c-5.4-1.4-10.9-1.8-16.5-2.1c-2.8-0.2-5.6-0.3-8.4-1.1
	C12.1,59.4,11.8,59.4,11.5,59.4z"/>
<path class="st2" d="M42.7,67.4c0.6,0.1,1.2,0.2,1.7,0.3c0.1,0,0.2-0.1,0.2-0.1s0.1-0.1,0.2-0.2c0.2-1.1,0.3-2.1,0.5-3.2
	c0-0.1-0.1-0.3-0.3-0.4c-0.1-0.1-0.2-0.1-0.3-0.1c-1.1-0.4-1.3-0.4-1.5,0.8C43.1,65.4,42.9,66.4,42.7,67.4z"/>
<path class="st1" d="M33.1,30.6c1.8,0.3,3.5,0.7,5.3,1c0.1,0,0.3,0,0.4-0.1c0.1,0,0.2-0.1,0.3-0.2c0-0.1,0.1-0.1,0.1-0.2
	c0-0.1,0-0.2,0-0.2c0-0.1-0.1-0.1-0.1-0.2c-0.1-0.1-0.1-0.1-0.2-0.1c-0.5-0.2-1.1-0.4-1.7-0.6c-1.9-0.3-3.8-0.6-5.7-0.9
	c-2.3-0.4-4.5-0.8-6.8-1.2c-0.2,0-0.5,0-0.7,0c-0.1,0-0.2,0-0.2,0c-0.1,0-0.1,0.1-0.2,0.1c0,0.1-0.1,0.1-0.1,0.2c0,0.1,0,0.2,0,0.2
	c0.1,0.3,0.3,0.6,0.5,0.6c0.8,0.2,1.6,0.3,2.4,0.5c2.2,0.4,4.5,0.8,6.7,1.1C33.1,30.7,33.1,30.6,33.1,30.6z"/>
<path class="st1" d="M23.7,35.4l4.3,0.7c0.2,0,0.4,0.1,0.6,0.1c0.4,0.1,0.6-0.1,0.7-0.5c0-0.1,0-0.2,0-0.2c0-0.1,0-0.2-0.1-0.2
	c0-0.1-0.1-0.1-0.2-0.2c-0.1,0-0.2-0.1-0.2-0.1c-1.1-0.3-2.2-0.5-3.4-0.7c-2.2-0.3-4.4-0.6-6.7-0.9c-0.4-0.1-0.8,0-0.9,0.5
	c-0.1,0.6,0.3,0.7,0.7,0.8c1.4,0.2,2.7,0.4,4.1,0.5L23.7,35.4L23.7,35.4z"/>
<path class="st1" d="M38.5,37.8l2.4,0.4c0.4,0.1,0.8,0,0.9-0.5c0.1-0.5-0.2-0.7-0.6-0.7c-1.7-0.3-3.4-0.6-5.1-0.9
	c-0.1,0-0.2,0-0.3,0c-0.1,0-0.2,0-0.2,0c-0.1,0-0.1,0.1-0.2,0.1c-0.1,0.1-0.1,0.1-0.1,0.2c0,0.1-0.1,0.2-0.1,0.2c0,0.1,0,0.2,0,0.2
	c0,0.1,0.1,0.2,0.1,0.2c0,0.1,0.1,0.1,0.2,0.2c0.1,0,0.2,0.1,0.2,0.1C36.7,37.5,37.6,37.7,38.5,37.8L38.5,37.8z"/>
<path class="st1" d="M28.5,11.4c0.3,0.4,3.6,0.6,4.3,0.4C32.3,11.3,29.4,11,28.5,11.4z"/>
<path class="st1" d="M47.3,10.2C47,10,46.9,9.9,46.7,9.8c-1-0.2-2-0.5-3.1-0.7c-0.1,0-0.3,0.1-0.4,0.2c0.1,0.1,0.2,0.3,0.3,0.3
	c1.1,0.3,2.2,0.5,3.4,0.7C46.9,10.4,47,10.3,47.3,10.2z"/>
<path class="st1" d="M45,12.8c0.2,0,0.3,0.1,0.5,0.1c0.2,0,0.4-0.1,0.5-0.1c-0.2-0.1-0.3-0.3-0.5-0.4c-0.6-0.2-1.3-0.3-2-0.5
	c-0.2-0.1-0.5-0.1-0.8-0.2c-0.2,0-0.3,0.1-0.5,0.2c0.1,0.1,0.2,0.3,0.3,0.3C43.5,12.4,44.2,12.6,45,12.8L45,12.8z"/>
<path class="st1" d="M41.3,15.4c0.2,0.1,0.4,0.2,0.6,0.3c1,0.1,2,0.3,3,0.4c0.1,0,0.3-0.1,0.5-0.2c-0.1-0.1-0.3-0.3-0.4-0.3
	c-1.1-0.1-2.2-0.3-3.3-0.4c-0.1,0-0.2,0-0.3,0L41.3,15.4z"/>
<path class="st1" d="M40.4,12.1c-0.5-0.5-2.9-0.9-3.6-0.7C37.1,11.9,39.8,12.4,40.4,12.1z"/>
<path class="st1" d="M37.8,9.1c0.1,0.1,0.3,0.3,0.4,0.3c1.1,0.2,2.2,0.3,3.6,0.4c-0.2-0.3-0.3-0.5-0.4-0.5C40.2,9.2,39.1,9.1,38,9
	C37.9,9,37.9,9,37.8,9.1z"/>
<path class="st1" d="M25.5,8.2c0.3,0.4,2.6,0.8,3.3,0.6C28.5,8.3,26.3,7.9,25.5,8.2z"/>
<path class="st1" d="M23.7,14.4c0.1-0.4-0.1-0.5-0.4-0.6c-1.3-0.3-2.4-0.2-2.6,0.2L23.7,14.4z"/>
<path class="st1" d="M37.6,60.1c-0.1-0.1-0.2-0.2-0.4-0.2c-0.8-0.2-1.6-0.3-2.4-0.4c-0.2,0-0.3,0.1-0.5,0.2c0.1,0.1,0.3,0.3,0.4,0.3
	c0.9,0.1,1.8,0.2,2.7,0.3C37.6,60.2,37.6,60.1,37.6,60.1z"/>
<path class="st1" d="M22.7,7.9c-0.3-0.1-0.6-0.2-1-0.3c-0.6,0-1.2-0.1-1.8,0c-0.1,0-0.2,0.1-0.3,0.2c0,0.1,0.1,0.2,0.1,0.2
	C20.1,8.2,22.3,8.2,22.7,7.9z"/>
<path class="st1" d="M23.4,58c0.1,0.1,0.2,0.2,0.3,0.2c0.8,0.1,1.7,0.2,2.5,0.3c0.1,0,0.2-0.1,0.3-0.2c-0.1-0.1-0.1-0.3-0.2-0.3
	c-1-0.1-1.9-0.2-2.9-0.3L23.4,58z"/>
<path class="st1" d="M35.2,14.5c0.2,0.5,2,0.8,2.9,0.5C38,14.6,35.9,14.2,35.2,14.5z"/>
<path class="st1" d="M29,14.7c0.4,0,0.7,0.1,1.1,0.1c0.1,0,0.3-0.1,0.4-0.1c-0.1-0.1-0.1-0.3-0.2-0.3c-0.4-0.1-0.8-0.2-1.2-0.3
	C28.6,14,28.1,14,27.7,14c-0.1,0-0.3,0.1-0.4,0.2c0.1,0.1,0.2,0.2,0.3,0.3C28.1,14.5,28.5,14.6,29,14.7L29,14.7z"/>
<path class="st1" d="M18,55c0.1,0.1,0.2,0.2,0.3,0.2c0.7,0.1,1.4,0.2,2.1,0.3c0.1,0,0.1,0,0.1,0c0,0,0.1-0.1,0.1-0.1
	c0,0,0-0.1,0-0.1c0,0,0-0.1-0.1-0.1C20.3,54.8,18.3,54.7,18,55z"/>
<path class="st1" d="M40.3,58.7c0.4,0.1,0.7,0.2,1.1,0.2c0.1,0,0.2-0.1,0.4-0.2c-0.1-0.1-0.1-0.3-0.2-0.3c-0.6-0.1-1.3-0.2-1.9-0.3
	c-0.1,0-0.2,0.1-0.3,0.2c0.1,0.1,0.2,0.2,0.3,0.3C39.8,58.7,40.1,58.7,40.3,58.7L40.3,58.7z"/>
<path class="st1" d="M23.4,56.1l2.6,0.3l0-0.2c-0.7-0.5-1.6-0.3-2.4-0.5c-0.1,0-0.3,0.1-0.4,0.2L23.4,56.1z"/>
<path class="st1" d="M32.1,59.2c-0.2-0.1-0.4-0.2-0.6-0.3c-0.5-0.1-1.1-0.2-1.7-0.2c-0.1,0-0.2,0.1-0.3,0.2c0,0,0,0.2,0.1,0.2
	c0.8,0.2,1.6,0.5,2.4,0.4C32.1,59.3,32.1,59.3,32.1,59.2z"/>
<path class="st1" d="M28.3,53.6c0.1,0.1,0.2,0.2,0.3,0.3c0.6,0.1,1.2,0.3,1.9,0.4c0.1,0,0.2-0.1,0.3-0.1c0-0.1-0.1-0.3-0.1-0.3
	c-0.7-0.2-1.5-0.3-2.3-0.5L28.3,53.6z"/>
<path class="st1" d="M41.7,61.2c-0.2-0.5-1.9-0.8-2.6-0.5C39.4,61,41.1,61.3,41.7,61.2z"/>
<path class="st1" d="M32.7,9.3c0.1,0.1,0.2,0.2,0.4,0.2c0.6,0.1,1.3,0.1,1.9,0.2c0.1,0,0.2-0.1,0.3-0.1c-0.1-0.1-0.1-0.3-0.2-0.3
	c-0.8-0.1-1.6-0.1-2.4-0.2C32.8,9.2,32.7,9.3,32.7,9.3z"/>
<path class="st1" d="M31.1,57c-0.1-0.1-0.2-0.3-0.4-0.3c-0.6-0.1-1.2-0.1-1.8-0.2c-0.1,0-0.3,0.1-0.4,0.2c0.1,0.1,0.3,0.2,0.4,0.3
	c0.1,0,0.1,0,0.2,0l1.8,0.1L31.1,57z"/>
<path class="st1" d="M16.5,57.2c-0.1-0.1-0.2-0.2-0.3-0.3c-0.6-0.1-1.2-0.2-1.7-0.2c-0.1,0-0.1,0-0.1,0c0,0-0.1,0.1-0.1,0.1
	c0,0.1,0,0.1,0,0.2c0,0,0,0.1,0.1,0.1C14.6,57.4,16.2,57.5,16.5,57.2z"/>
<path class="st1" d="M22,10.9c-0.2-0.1-0.4-0.1-0.6-0.2c-0.5,0-1,0-1.5,0c-0.1,0-0.2,0.2-0.3,0.2c0.1,0.1,0.2,0.2,0.3,0.2
	c0.7,0,1.4,0,2.1,0L22,10.9z"/>
<path class="st1" d="M26.4,11.3c-0.7-0.3-1.5-0.5-2.3-0.4C24.1,10.8,24,11,24,11c0,0.1,0.1,0.2,0.1,0.2
	C24.9,11.5,25.7,11.5,26.4,11.3z"/>
<path class="st1" d="M19.2,57.4c0.3,0.1,0.6,0.2,0.8,0.3c0.4,0.1,0.8,0.2,1.3,0.3c0.1,0,0.1,0,0.2,0c0,0,0.1,0,0.1-0.1
	c0-0.1,0-0.1,0-0.2c0-0.1,0-0.1-0.1-0.1C21.2,57.2,19.8,57.1,19.2,57.4z"/>
<path class="st1" d="M23.6,52.3c-0.3,0-0.6-0.1-0.8-0.1c0,0-0.1,0-0.1,0.1s-0.1,0.1-0.1,0.1c0,0.1,0.1,0.3,0.1,0.3
	c0.6,0.1,1.2,0.2,1.9,0.3c0,0,0.1,0,0.1-0.1c0,0,0.1-0.1,0.1-0.1c0-0.1,0-0.1-0.1-0.1s-0.1-0.1-0.1-0.1C24.3,52.4,24,52.4,23.6,52.3
	L23.6,52.3z"/>
<path class="st1" d="M39.8,56.2c0.7,0.2,1.4,0.3,2.1,0.5c0.1,0,0.2-0.1,0.2-0.2c0-0.1,0-0.1,0-0.1c0,0-0.1-0.1-0.1-0.1
	c-0.7-0.2-1.4-0.3-2-0.4C39.9,55.9,39.8,56.1,39.8,56.2z"/>
<path class="st1" d="M34.3,55c0.6,0.2,1.2,0.3,1.9,0.3c0,0,0.1-0.3,0-0.4C35.9,54.7,34.7,54.7,34.3,55z"/>
<path class="st1" d="M13.9,54.8c0.5,0.1,1,0.1,1.6,0.2c0.1,0,0.2-0.1,0.2-0.1c0-0.1-0.1-0.2-0.2-0.3c-0.3-0.2-1.2-0.2-1.6,0.1
	L13.9,54.8z"/>
<path class="st1" d="M34.5,57.7c0.8,0.1,1.4,0.4,2.2,0.2C36.1,57.3,34.8,57.2,34.5,57.7z"/>
<path class="st1" d="M19.6,52.2c-0.7-0.1-1.2-0.2-1.7-0.2c-0.1,0-0.1,0-0.1,0c0,0-0.1,0.1-0.1,0.1c0,0,0.1,0.2,0.1,0.2
	c0.5,0.1,1.1,0.1,1.6,0.2C19.4,52.6,19.4,52.4,19.6,52.2z"/>
<path class="st1" d="M15.2,52.8l0.8-0.4c-0.1-0.1-0.3-0.3-0.4-0.3c-0.3,0.1-0.5,0.2-0.8,0.3L15.2,52.8z"/>
<path class="st4" d="M50.3,15.7l0.3,0.4c0.1-0.1,0.3-0.3,0.4-0.5c0-0.1-0.1-0.3-0.2-0.4L50.3,15.7z"/>
<path class="st4" d="M48.5,44.2c-0.2,0.3-0.3,0.4-0.3,0.5s0.2,0.3,0.3,0.4c0.1-0.1,0.3-0.2,0.3-0.3C48.7,44.6,48.6,44.4,48.5,44.2z"
	/>
<path class="st4" d="M48.6,46.3l-0.4,0.5c0.1,0.1,0.2,0.2,0.3,0.1c0.1-0.2,0.3-0.3,0.4-0.5L48.6,46.3z"/>
<path d="M38,33.3c-0.1,0-0.2-0.1-0.3-0.2c-0.1-0.1-0.2-0.1-0.3-0.2c-0.3-0.1-0.6-0.2-0.8-0.3c-0.5-0.2-1-0.4-1.5-0.5
	c-0.4-0.1-0.8-0.3-1.2-0.5c0,0,0,0-0.1,0c-0.1,0-0.1,0-0.1-0.1c-0.1-0.2-0.1-0.4-0.2-0.5c-0.1-0.3-0.2-0.5-0.4-0.7l-0.3-0.7l0,0
	c-0.1-0.2-0.1-0.2-0.4-0.3c0,0-0.1,0-0.1,0c0,0-0.1,0-0.1,0.1c-0.1,0.1-0.3,0.2-0.4,0.3L31,30.2l-0.8,0.7c0,0,0,0,0,0s0,0-0.1,0
	c-0.3,0-0.5-0.1-0.7-0.1c-0.7-0.1-1.3-0.2-2-0.2c-0.4,0-0.9-0.1-1.3-0.1c-0.3,0-0.6,0-1,0c0,0,0,0,0,0c0,0-0.1,0-0.1,0
	c0,0-0.1,0.1-0.1,0.2c0,0,0,0,0,0c0,0,0,0,0,0c0,0,0,0.1,0.1,0.1c0.1,0.4,0.2,0.9,0.3,1.3c0.2,0.7,0.4,1.4,0.6,2.1c0,0,0,0.1,0,0.1
	c0,0,0,0.1,0,0.1c0,0,0,0.1,0,0.1c0,0,0,0.1,0.1,0.1c0,0,0,0,0.1,0.1c0,0,0.1,0,0.1,0c0,0,0.1,0,0.1,0c0.3,0.2,0.6,0.3,0.9,0.5
	c0.3,0.1,0.7,0.3,1.1,0.4c0.4,0.2,0.8,0.3,1.2,0.5c0.4,0.1,0.7,0.2,1.1,0.4c0.2,0,0.3,0.1,0.5,0.1c0.5,0,1,0.1,1.5,0.1
	c0.3,0,0.6,0,0.8,0c0.3,0,0.6,0.1,1,0.1c0.3,0,0.5,0.1,0.7,0.1c0.1,0,0.2,0,0.3,0.1c0,0,0,0,0.1,0c0,0,0,0,0.1,0c0,0,0,0,0-0.1
	c0,0,0,0,0-0.1c0,0,0,0,0,0c0,0,0,0,0,0c0.1-0.2,0.3-0.4,0.4-0.6l1.7-2.3C37.8,33.5,37.9,33.4,38,33.3z M25.2,30.9L25.2,30.9l1,0.7
	c0.7,0.5,1.5,1,2.3,1.4c0.1,0.1,0.3,0.1,0.4,0.2c0.2,0.1,0.3,0.2,0.5,0.3c0.6,0.3,1.2,0.7,1.7,1.2c0,0,0,0,0,0c0,0,0,0,0,0
	c0,0,0,0,0,0c0,0,0,0,0,0C31.1,35,31,35.2,31,35.4c-0.1,0.2-0.2,0.4-0.3,0.7c0,0,0,0-0.1,0c-0.3-0.1-0.6-0.2-0.9-0.3
	c-0.4-0.2-0.8-0.3-1.2-0.5c-0.3-0.1-0.7-0.3-1-0.4c-0.4-0.2-0.7-0.4-1.1-0.6c0,0,0,0,0-0.1c-0.2-0.5-0.3-1-0.5-1.5
	c-0.1-0.4-0.2-0.8-0.3-1.2C25.4,31.4,25.3,31.2,25.2,30.9L25.2,30.9z M37.6,33.4l-2.2,3.1c-0.1,0-0.1,0-0.2,0
	c-0.3,0-0.6-0.1-0.8-0.1c-0.3,0-0.6-0.1-0.9-0.1c-0.5,0-1,0-1.5,0c-0.3,0-0.7,0-1,0h0c0.1-0.2,0.2-0.3,0.3-0.5
	c0.1-0.3,0.3-0.5,0.4-0.8c0,0,0,0,0.1,0l0.5-0.1c0.3-0.1,0.6-0.1,1-0.2c0.3-0.1,0.6-0.1,0.9-0.1c0.4-0.1,0.8-0.2,1.2-0.3
	c0.7-0.2,1.3-0.4,2-0.5L37.6,33.4z M32.5,29.5c0,0.1,0.1,0.2,0.1,0.2c0.1,0.2,0.2,0.3,0.2,0.5c0.1,0.3,0.3,0.5,0.4,0.8
	c0.3,0.6,0.5,1.2,0.7,1.8c0.1,0.3,0.3,0.7,0.4,1c0,0,0,0,0,0.1c-0.4,0.1-0.7,0.2-1.1,0.2c-0.3,0-0.5,0.1-0.8,0.1
	c-0.4,0.1-0.7,0.2-1.1,0.2h0c0,0,0,0,0-0.1c0.1-0.5,0.2-1,0.3-1.5c0.1-0.4,0.1-0.8,0.2-1.1c0.1-0.5,0.3-1,0.4-1.5
	c0.1-0.2,0.1-0.5,0.2-0.7C32.4,29.6,32.5,29.6,32.5,29.5L32.5,29.5z M25.2,30.6L25.2,30.6c1.6,0,3.2,0.1,4.7,0.4l0,0
	c-0.4,0.4-0.8,0.7-1.3,1.1c-0.2,0.1-0.3,0.3-0.5,0.4c0,0-0.1,0-0.1,0c-0.3-0.2-0.6-0.3-0.9-0.5c-0.6-0.4-1.2-0.8-1.8-1.3
	C25.3,30.7,25.3,30.7,25.2,30.6L25.2,30.6z M32.1,29.6L32.1,29.6c-0.2,0.4-0.4,0.7-0.5,1c-0.2,0.3-0.3,0.7-0.5,1.1
	c-0.1,0.3-0.2,0.6-0.4,0.8c-0.2,0.3-0.3,0.7-0.5,1c-0.1,0.1-0.1,0.2-0.2,0.3c-0.6-0.4-1.2-0.7-1.8-1l0.1-0.1
	c0.1-0.1,0.2-0.2,0.3-0.3l1.4-1.2c0.4-0.3,0.8-0.7,1.2-1C31.5,30,31.8,29.8,32.1,29.6L32.1,29.6z M33.7,31.8L33.7,31.8L33.7,31.8
	c0.3,0.1,0.6,0.2,0.9,0.3c0.6,0.2,1.3,0.4,1.9,0.7l0.7,0.3c0.1,0,0.1,0.1,0.2,0.1l-2.8,0.7L33.7,31.8z M32.1,29.9L32.1,29.9
	c0,0,0,0.1,0,0.1c-0.1,0.2-0.1,0.4-0.2,0.6c-0.1,0.4-0.2,0.9-0.3,1.3c-0.1,0.3-0.1,0.7-0.2,1c-0.1,0.4-0.2,0.8-0.2,1.2
	c0,0.1-0.1,0.3-0.1,0.4l0,0l-0.8-0.5c0,0,0,0,0-0.1c0.1-0.2,0.2-0.4,0.3-0.6c0.2-0.4,0.4-0.9,0.6-1.3c0.1-0.2,0.2-0.5,0.3-0.7
	c0.1-0.3,0.3-0.5,0.4-0.8C32,30.2,32,30.1,32.1,29.9L32.1,29.9z"/>
<path class="st5" d="M25.3,30.9c0.1,0.2,0.1,0.4,0.2,0.6c0.1,0.4,0.2,0.8,0.3,1.2c0.2,0.5,0.3,1,0.5,1.5c0,0,0,0,0,0.1
	c0.4,0.2,0.7,0.4,1.1,0.6c0.3,0.2,0.7,0.3,1,0.4c0.4,0.2,0.8,0.3,1.2,0.5c0.3,0.1,0.6,0.2,0.9,0.3c0,0,0.1,0,0.1,0
	c0.1-0.2,0.2-0.4,0.3-0.7c0.1-0.2,0.2-0.3,0.2-0.5c0,0,0,0,0,0c0,0,0,0,0,0c0,0,0,0,0,0c0,0,0,0,0,0c-0.5-0.4-1.1-0.8-1.7-1.2
	c-0.2-0.1-0.3-0.2-0.5-0.3c-0.1-0.1-0.2-0.1-0.4-0.2c-0.8-0.4-1.6-0.9-2.3-1.4L25.3,30.9L25.3,30.9z"/>
<path class="st5" d="M37.6,33.4l-0.5,0.1c-0.7,0.2-1.3,0.4-2,0.5c-0.4,0.1-0.8,0.2-1.2,0.3c-0.3,0.1-0.6,0.1-0.9,0.1
	c-0.3,0.1-0.6,0.1-1,0.2l-0.5,0.1c0,0,0,0-0.1,0c-0.1,0.3-0.2,0.6-0.4,0.8c-0.1,0.2-0.2,0.3-0.3,0.5h0c0.3,0,0.7,0,1,0
	c0.5,0,1,0,1.5,0c0.3,0,0.6,0.1,0.9,0.1c0.3,0,0.6,0.1,0.8,0.1c0.1,0,0.1,0,0.2,0L37.6,33.4L37.6,33.4z"/>
<path class="st6" d="M32.5,29.5c0,0.1,0,0.1,0,0.1c-0.1,0.2-0.1,0.5-0.2,0.7c-0.1,0.5-0.3,1-0.4,1.5c-0.1,0.4-0.1,0.8-0.2,1.1
	c-0.1,0.5-0.2,1-0.3,1.5c0,0,0,0,0,0.1h0c0.4-0.1,0.7-0.2,1.1-0.2c0.3-0.1,0.5-0.1,0.8-0.1c0.4-0.1,0.8-0.1,1.1-0.2c0,0,0,0,0-0.1
	c-0.1-0.3-0.3-0.7-0.4-1c-0.3-0.6-0.5-1.2-0.7-1.8c-0.1-0.3-0.2-0.5-0.4-0.8c-0.1-0.2-0.2-0.3-0.2-0.5
	C32.6,29.7,32.5,29.6,32.5,29.5z"/>
<path class="st5" d="M25.2,30.6c0.1,0.1,0.1,0.1,0.2,0.2c0.6,0.5,1.2,0.9,1.8,1.3c0.3,0.2,0.6,0.3,0.9,0.5c0,0,0.1,0,0.1,0
	c0.2-0.1,0.3-0.3,0.5-0.4c0.4-0.4,0.8-0.7,1.3-1.1l0,0C28.4,30.7,26.8,30.6,25.2,30.6L25.2,30.6z"/>
<path class="st6" d="M32.1,29.6L32.1,29.6c-0.3,0.2-0.5,0.4-0.7,0.6c-0.4,0.3-0.8,0.7-1.2,1l-1.4,1.2c-0.1,0.1-0.2,0.2-0.3,0.3
	l-0.1,0.1c0.6,0.3,1.2,0.7,1.8,1c0.1-0.1,0.1-0.2,0.2-0.3c0.2-0.3,0.3-0.7,0.5-1c0.1-0.3,0.3-0.5,0.4-0.8c0.1-0.4,0.3-0.7,0.5-1.1
	C31.7,30.2,31.9,29.9,32.1,29.6L32.1,29.6L32.1,29.6z"/>
<path class="st5" d="M33.7,31.8l0.9,2.1l2.8-0.7c-0.1,0-0.1-0.1-0.2-0.1l-0.7-0.3c-0.6-0.3-1.3-0.5-1.9-0.7
	C34.4,32,34.1,31.9,33.7,31.8L33.7,31.8L33.7,31.8z"/>
<path class="st6" d="M32.1,29.9c-0.1,0.2-0.2,0.3-0.3,0.5c-0.1,0.3-0.3,0.5-0.4,0.8c-0.1,0.2-0.2,0.5-0.3,0.7
	c-0.2,0.4-0.4,0.9-0.6,1.3c-0.1,0.2-0.2,0.4-0.3,0.6c0,0,0,0,0,0.1l0.8,0.5l0,0c0-0.1,0.1-0.3,0.1-0.4c0.1-0.4,0.2-0.8,0.2-1.2
	c0.1-0.3,0.1-0.7,0.2-1c0.1-0.4,0.2-0.9,0.3-1.3c0-0.2,0.1-0.4,0.2-0.6C32.1,30,32.1,30,32.1,29.9L32.1,29.9z"/>
<path d="M52.3,52.5c1.1,0,1.8-0.8,1.4-1.8c-0.3-0.7-1.2-1.1-2.1-0.8c-0.2,0.1-0.3,0.1-0.4,0.2c-0.1,0.1-0.2,0.2-0.3,0.4
	c-0.1,0.2-0.1,0.3-0.1,0.5c0,0.2,0,0.3,0.1,0.5C51,52.2,51.5,52.5,52.3,52.5z"/>
<path d="M49.6,58.3c0,0.3,0.1,0.7,0.4,0.9c0.2,0.2,0.6,0.4,0.9,0.4c0.4,0,0.8-0.2,1.1-0.5c0.3-0.3,0.5-0.7,0.5-1.1
	c0-0.3-0.2-0.7-0.4-0.9c-0.2-0.2-0.6-0.4-0.9-0.4c-0.4,0-0.8,0.2-1.1,0.5C49.7,57.6,49.6,57.9,49.6,58.3z"/>
<path d="M7.6,35c0,0.3,0.2,0.7,0.4,0.9c0.2,0.2,0.6,0.4,0.9,0.4c0.4,0,0.8-0.2,1.1-0.5c0.3-0.3,0.4-0.7,0.5-1.1
	c0-0.3-0.2-0.7-0.4-0.9c-0.2-0.2-0.6-0.4-0.9-0.4c-0.4,0-0.8,0.2-1,0.5C7.7,34.2,7.6,34.6,7.6,35z"/>
<path d="M5.7,41.3c-0.2,0-0.4,0-0.5,0.1c-0.2,0.1-0.3,0.2-0.5,0.3c-0.1,0.1-0.2,0.3-0.3,0.5c-0.1,0.2-0.1,0.4-0.1,0.5
	c0,0.4,0.2,0.7,0.4,0.9C5,43.9,5.4,44,5.7,44c0.2,0,0.4,0,0.5-0.1c0.2-0.1,0.3-0.2,0.4-0.3C6.9,43.5,7,43.3,7,43.2
	c0.1-0.2,0.1-0.3,0.1-0.5c0-0.2,0-0.4-0.1-0.5C7,42,6.9,41.8,6.7,41.7c-0.1-0.1-0.3-0.2-0.5-0.3C6.1,41.3,5.9,41.3,5.7,41.3z"/>
<path d="M59.6,55.7c0.9,0,1.4-0.6,1.4-1.3c0-0.4-0.2-0.7-0.4-0.9c-0.3-0.2-0.6-0.4-1-0.4c-0.8,0-1.4,0.5-1.4,1.3
	S58.7,55.7,59.6,55.7z"/>
<path d="M54.4,64c0.9,0,1.4-0.5,1.4-1.3c0-0.2,0-0.4-0.1-0.5c-0.1-0.2-0.2-0.3-0.3-0.4c-0.1-0.1-0.3-0.2-0.4-0.3
	c-0.2-0.1-0.3-0.1-0.5-0.1c-0.8,0-1.4,0.6-1.5,1.3C53,63.5,53.6,64,54.4,64z"/>
</svg>
