<?xml version="1.0" encoding="utf-8"?>
<!-- Generator: Adobe Illustrator 25.0.0, SVG Export Plug-In . SVG Version: 6.00 Build 0)  -->
<svg version="1.1" id="Capa_1" xmlns="http://www.w3.org/2000/svg" xmlns:xlink="http://www.w3.org/1999/xlink" x="0px" y="0px"
	 viewBox="0 0 16 16" style="enable-background:new 0 0 16 16;" xml:space="preserve">
<style type="text/css">
	.st0{fill:#FFFFFF;}
</style>
<path class="st0" d="M4.8,10.1C4.9,10.2,5,10.4,5,10.5c0,0.4-0.1,0.8-0.2,1.2c0.8-0.2,1.4-0.4,1.6-0.5c0.1-0.1,0.3-0.1,0.4,0
	c0.4,0.1,0.8,0.2,1.3,0.2c2.4,0,4.2-1.7,4.2-3.6c0-1.9-1.8-3.6-4.2-3.6S3.8,5.8,3.8,7.7C3.8,8.6,4.2,9.4,4.8,10.1z M4.5,12.4
	c-0.1,0-0.3,0.1-0.4,0.1c-0.1,0-0.2-0.1-0.2-0.2C4,12.2,4,12,4,11.9l0,0c0.1-0.4,0.3-0.9,0.3-1.4C3.6,9.8,3.2,8.8,3.2,7.7
	c0-2.3,2.2-4.2,4.8-4.2s4.8,1.9,4.8,4.2s-2.2,4.2-4.8,4.2c-0.5,0-1-0.1-1.4-0.2C6.3,11.9,5.6,12.2,4.5,12.4z"/>
<path class="st0" d="M5.6,6.2c0-0.2,0.1-0.3,0.3-0.3h4.2c0.2,0,0.3,0.1,0.3,0.3s-0.1,0.3-0.3,0.3H5.9C5.7,6.5,5.6,6.4,5.6,6.2z
	 M5.6,7.7c0-0.2,0.1-0.3,0.3-0.3h4.2c0.2,0,0.3,0.1,0.3,0.3c0,0.2-0.1,0.3-0.3,0.3H5.9C5.7,8,5.6,7.9,5.6,7.7z M5.6,9.2
	c0-0.2,0.1-0.3,0.3-0.3h2.4c0.2,0,0.3,0.1,0.3,0.3c0,0.2-0.1,0.3-0.3,0.3H5.9C5.7,9.5,5.6,9.4,5.6,9.2z"/>
</svg>
