<?xml version="1.0" encoding="utf-8"?>
<!-- Generator: Adobe Illustrator 25.0.0, SVG Export Plug-In . SVG Version: 6.00 Build 0)  -->
<svg version="1.1" id="Capa_1" xmlns="http://www.w3.org/2000/svg" xmlns:xlink="http://www.w3.org/1999/xlink" x="0px" y="0px"
	 viewBox="0 0 16 16" style="enable-background:new 0 0 16 16;" xml:space="preserve">
<style type="text/css">
	.st0{fill:#FFFFFF;}
</style>
<path class="st0" d="M8.3,12.5c-2.5,0-4.5-2-4.5-4.5s2-4.5,4.5-4.5s4.5,2,4.5,4.5S10.8,12.5,8.3,12.5z M8.3,13.1
	c2.8,0,5.1-2.3,5.1-5.1s-2.3-5.1-5.1-5.1S3.2,5.2,3.2,8S5.5,13.1,8.3,13.1z"/>
<path class="st0" d="M6,9c0.2-0.1,0.3,0,0.4,0.1c0.4,0.7,1.1,1.1,1.9,1.1c0.8,0,1.5-0.4,1.9-1.1C10.4,9,10.6,8.9,10.7,9
	s0.2,0.3,0.1,0.4c0,0,0,0,0,0c-0.5,0.9-1.5,1.4-2.5,1.4c-1,0-2-0.5-2.5-1.4C5.8,9.3,5.8,9.1,6,9z M7.7,7c0,0.5-0.3,1-0.6,1
	S6.4,7.6,6.4,7s0.3-1,0.6-1S7.7,6.5,7.7,7z M10.3,7c0,0.5-0.3,1-0.6,1C9.3,8,9,7.6,9,7s0.3-1,0.6-1C10,6.1,10.3,6.5,10.3,7z"/>
</svg>
