<svg width="55" height="58" viewBox="0 0 55 58" fill="none" xmlns="http://www.w3.org/2000/svg">
<path d="M53.2847 28.9393C53.0705 33.5527 52.95 38.1694 52.6153 42.7727C52.0363 50.7697 50.8783 53.1621 43.0297 53.9685C32.3396 55.0639 21.4755 54.7413 10.695 54.5397C5.97248 54.4524 3.38865 51.099 3.06734 46.368C2.39796 36.5028 1.54449 26.6376 1.33029 16.759C1.10604 6.49728 4.45297 2.99943 14.5841 2.47526C22.9515 2.04181 31.3188 1.93765 39.6861 2.06533C48.5019 2.21653 52.545 6.21503 53.114 15.0924C53.4018 19.689 53.1675 24.3225 53.1675 28.9359L53.2847 28.9393Z" fill="#FFD265"/>
<path d="M54.1185 30.2598C54.1185 34.3322 54.2021 38.4114 54.1185 42.4838C53.8674 52.8732 50.5205 54.859 42.431 55.6822C31.2656 56.8179 19.8559 58.6391 8.51986 55.5209C4.64746 54.4558 2.26445 52.6245 2.0402 48.7638C1.31727 36.4188 0.497268 24.0638 0.366737 11.7054C0.313187 5.87234 4.34959 1.82008 10.2235 1.44375C20.7462 0.771734 31.3325 0.378605 41.8653 0.714613C49.5298 0.959899 53.4022 4.9584 54.2021 12.6832C54.8079 18.4827 54.3226 24.3965 54.3226 30.2565L54.1185 30.2598ZM52.9805 28.8049H52.8801C52.8801 24.2419 53.1177 19.6688 52.8299 15.126C52.2643 6.34947 48.2546 2.38457 39.5526 2.25017C31.2823 2.12249 22.9953 2.22665 14.7351 2.65674C4.72109 3.17419 1.41433 6.63172 1.63522 16.7691C1.84608 26.5133 2.68951 36.2777 3.3522 46.022C3.68689 50.6958 6.22387 54.0122 10.8928 54.0862C21.5495 54.2844 32.2864 54.6003 42.856 53.5183C50.6142 52.722 51.7555 50.3598 52.3312 42.4569C52.6592 37.9242 52.773 33.3612 52.9805 28.8049Z" fill="black"/>
<path d="M49.6769 28.5865C49.4928 32.5548 49.3957 36.5297 49.1079 40.4913C48.6092 47.3761 47.6118 49.4358 40.8577 50.1314C31.6537 51.0755 22.3023 50.8034 13.0213 50.6253C8.95478 50.548 6.73242 47.6617 6.45797 43.5893C5.87895 35.095 5.14597 26.6041 4.95855 18.0997C4.76777 9.26602 7.63609 6.25539 16.3716 5.80514C23.5608 5.43217 30.7801 5.34145 37.9794 5.45233C45.5568 5.57665 49.051 9.0241 49.533 16.6649C49.7806 20.6231 49.5765 24.6082 49.5765 28.5831L49.6769 28.5865Z" fill="#E88D4F"/>
<path d="M50.3935 29.7223C50.3935 33.2302 50.4638 36.7381 50.3935 40.2427C50.1793 49.1872 47.2976 50.8975 40.3359 51.6065C30.7236 52.5843 20.9003 54.1501 11.144 51.4687C7.79708 50.5514 5.7588 48.9722 5.56468 45.6524C4.94215 35.0245 4.2259 24.3865 4.13554 13.7316C4.07529 8.72849 7.54606 5.24072 12.6066 4.90471C21.6668 4.32678 30.7771 3.98741 39.8473 4.27974C46.4441 4.49142 49.7743 7.93215 50.4671 14.5818C50.9859 19.5715 50.5709 24.662 50.5709 29.7021L50.3935 29.7223ZM49.4162 28.469H49.3158C49.3158 24.5444 49.5166 20.603 49.2722 16.7087C48.797 9.15522 45.3463 5.74137 37.8525 5.62041C30.7336 5.50953 23.6013 5.60025 16.4924 5.95642C7.86737 6.40331 5.02247 9.37698 5.21325 18.1065C5.39398 26.5067 6.12361 34.9069 6.69259 43.2869C6.96369 47.319 9.16263 50.165 13.1823 50.2389C22.3562 50.4103 31.5904 50.6858 40.6974 49.7517C47.3913 49.0797 48.3619 47.0334 48.8539 40.2293C49.1384 36.3181 49.2354 32.3902 49.4162 28.469Z" fill="black"/>
<path d="M31.7041 30.7202C31.935 34.9975 32.0153 39.3589 32.4672 43.6834C32.8019 46.7511 31.5267 47.786 28.722 47.6348C27.8302 47.5811 26.9361 47.5811 26.0444 47.6348C23.8689 47.7793 23.0857 46.7746 23.1259 44.6107C23.2196 39.6009 23.156 34.5876 23.156 29.9977C20.4316 28.6537 17.3959 31.1032 16.5759 27.266C15.5719 22.6056 18.7046 21.8059 21.9578 21.2178C21.4089 12.6463 24.5985 8.8561 31.7041 9.07114C34.4653 9.15515 35.4392 10.516 35.4961 13.0428C35.5463 15.3007 35.6233 17.2933 32.3668 17.3705C31.4832 17.3907 30.6397 19.1111 29.7796 20.0586C30.5326 20.6399 31.2489 21.6311 32.0521 21.7118C33.7691 21.8865 35.8442 21.0398 35.8978 23.953C35.9446 26.5537 36.9019 29.618 32.8152 30.1725C32.5073 30.2094 32.2295 30.4413 31.7041 30.7202ZM33.8026 15.6771C33.7859 13.4527 34.6059 11.2686 31.7275 10.8453C26.108 10.0153 22.3829 13.409 23.2665 18.8826C23.6949 21.5203 22.982 22.4443 20.5253 23.039C19.5212 23.2809 18.2929 24.7695 18.159 25.8178C17.9114 27.7767 19.5447 28.0489 21.1478 27.8002C23.2062 27.4844 23.8455 28.4487 23.9559 30.4245C24.2371 35.5419 24.7056 40.6458 25.0972 45.7397H30.6565C30.7825 45.3269 30.8677 44.9026 30.9108 44.473C30.7368 40.33 30.4557 36.1904 30.4055 32.0407C30.4055 31.0024 30.9811 29.1376 31.52 29.0468C35.4158 28.4051 34.7397 25.9152 34.3147 23.2137C31.8915 22.7332 28.2902 24.4637 28.3571 19.8906C28.3973 16.4163 30.6163 15.6569 33.8026 15.6771Z" fill="black"/>
<path d="M33.8024 15.6771C30.6262 15.6502 28.4072 16.4163 28.367 19.8974C28.3101 24.4704 31.9014 22.74 34.3246 23.2205C34.7496 25.9086 35.4257 28.4118 31.5299 29.0536C30.991 29.1443 30.4053 31.0092 30.4154 32.0474C30.4656 36.1904 30.75 40.33 30.9207 44.4797C30.8776 44.9093 30.7924 45.3336 30.6664 45.7465H25.1004C24.7088 40.6526 24.2403 35.5486 23.9591 30.4312C23.8487 28.4555 23.2094 27.4912 21.151 27.807C19.5479 28.0556 17.9146 27.7835 18.1622 25.8245C18.2961 24.7762 19.5378 23.2877 20.5285 23.0458C22.9852 22.451 23.6981 21.527 23.2697 18.8893C22.3861 13.4158 26.1112 10.0221 31.7307 10.852C34.5957 11.2687 33.7757 13.4527 33.8024 15.6771Z" fill="#EFCAB6"/>
</svg>
