<?xml version="1.0" encoding="utf-8"?>
<!-- Generator: Adobe Illustrator 25.0.0, SVG Export Plug-In . SVG Version: 6.00 Build 0)  -->
<svg version="1.1" id="Capa_1" xmlns="http://www.w3.org/2000/svg" xmlns:xlink="http://www.w3.org/1999/xlink" x="0px" y="0px"
	 viewBox="0 0 86 91" style="enable-background:new 0 0 86 91;" xml:space="preserve">
<style type="text/css">
	.st0{fill:#FFFFFF;}
	.st1{fill:#E88D4F;}
	.st2{fill:#8EC2D8;}
</style>
<rect class="st0" width="85.8" height="90.9"/>
<path d="M58.3,52.1c0.1,2.8,0.2,5.6,0.2,8.4c0,1.1-0.1,2.2-0.1,3.3c0,0.4,0,0.7,0.1,1c0.6,1.2,0.1,2.2-1.3,2.2
	c-0.8,0-1.5-0.2-2.3-0.2c-1.4,0-2.8-0.1-4.1,0.1c-2.4,0.3-4.6,0.1-6.7-1.1c-1.2-0.7-2.4-1.2-3.6-2c-0.4-0.3-0.8-0.7-1-1.1
	c-0.2-0.5-0.2-1-0.1-1.5c1-5.2,0.5-10.5,0.6-15.7c0-1.4-0.1-2.8-0.2-4.2c0-0.4,0-0.8,0.1-1.1c0.2-0.9,0.5-1,1.4-0.9
	c2.2,0.3,4.5,0.4,6.7-0.1c1.8-0.4,3.5-0.8,5.2-1.4c2.1-0.7,3.4-2.2,4.2-4.2c0.6-1.7,1.1-3.4,1-5.2c-0.2-2.1-1.1-3.7-2.9-4.7
	c-0.7-0.4-1.4-0.7-2.1-1c-0.9-0.4-1.9-0.6-2.9-0.5c-1,0.1-1.9,0.4-2.7,1c-2,1.2-3.9,2.8-5.4,4.6c-0.2,0.2-0.4,0.4-0.6,0.5
	c-0.2,0.1-0.5,0.2-0.8,0.2c-1.9,0-3.8-0.1-5.7-0.6c-1.1-0.3-1.7-1-2.4-1.7c-1-1-2-1.9-3-2.8c-0.3-0.2-0.6-0.5-0.8-0.8
	c-0.1-0.2-0.2-0.6-0.1-0.8c1-1.6,1.9-3.4,3.2-4.8c1.1-1.2,2.6-2.1,4-3.1c2.7-1.9,5.5-3.8,8.9-4.5C46.6,9,48,8.8,49.4,8.7
	c2.2-0.2,4.4-0.3,6.6,0c2.6,0.3,5.1,0.8,7.5,1.6c1.7,0.5,3.3,1,5,1.5c1.1,0.3,2,1,2.7,1.8c1.8,2.1,3.3,4.3,4.4,6.9
	c1.5,3.7,2,7.4,1.3,11.4c-0.2,1.2-0.1,2.5-0.2,3.7c-0.1,0.5-0.4,1-0.6,1.6c-0.3,0.7-0.6,1.5-0.9,2.3c-1.4,5.1-4.9,8.3-9.7,10.2
	C63,50.5,60.7,51.3,58.3,52.1z M40.9,40.1c0,0.3-0.1,0.6-0.1,0.9c0,4.3,0,8.7,0,13c0,1.8-0.1,3.7-0.1,5.5c0,0.9,0,1.8,0,2.6
	c0,0.5,0.2,0.8,0.8,0.7c0.5-0.1,1,0,1.5,0c1.3,0,2.6,0,3.8,0c0.7,0,1.5-0.1,2.2-0.1c1.4-0.1,2.8-0.1,4.3-0.1
	c-0.1-4.6-0.2-9.1-0.3-13.7c0.2-0.1,0.6-0.2,0.9-0.3c2.2-0.6,4.4-1.2,6.6-1.8c1.2-0.3,2.2-0.9,3.3-1.6c3.6-2.3,5.7-5.6,6.9-9.6
	c0.5-1.7,0.8-3.6,1.3-5.4c0.6-2.4,0-4.7-0.8-7c-0.4-1-0.8-2-1.2-3.1c-0.7-1.7-1.6-3.3-2.9-4.7c-1.6-1.8-3.2-3.2-5.4-4.1
	c-0.1,0-0.2-0.2-0.4-0.2c-1.5-0.7-2.9-1.7-4.7-1.7c-1.4,0-2.8-0.2-4.3-0.3c-4.2-0.1-8.4,0.4-12.1,2.6c-2.4,1.4-4.6,3.1-6.9,4.7
	c-0.4,0.3-0.8,0.7-1.1,1.2c-0.9,1.4-1.8,2.8-2.7,4.2c0.2,0.1,0.3,0.2,0.5,0.4c1.7,0.8,2.8,2.3,4,3.7c0.8,0.9,0.9,0.9,1.8,0.1
	c1-0.9,2-1.9,3.1-2.6c3.7-2.2,8.1-3,12.4-2.3c2,0.3,3.8,1.1,5.4,2.3c2.4,1.8,2.9,4.4,2.4,7.2c-0.5,2.9-1.6,5.4-4.1,7.1
	c-2.3,1.5-4.8,2.1-7.4,2.4C45.6,40.4,43.3,40.1,40.9,40.1z M62.7,10.5l-0.1,0.2c0.3,0.2,0.7,0.4,1,0.5c1.3,0.5,2.4,1.4,3.2,2.5
	c0.2,0.3,0.5,0.6,0.7,0.9c0.9,1.3,2,2.6,2.7,4c0.8,1.7,1.4,3.6,2,5.4c0.6,1.9,1,3.9,0.5,5.9c-0.7,3-1.1,6-2.5,8.8
	c-1.3,2.6-2.8,4.8-5.2,6.5c-1.9,1.3-4,2-6.1,2.7c-1.4,0.4-2.8,0.8-4.4,1.2c0.7,0.4,1.3,0.9,1.9,1.3c0.8,0.7,1.5,0.7,2.5,0.3
	c2.6-1.1,5.4-1.9,8-3c3-1.2,5.1-3.4,6.5-6.2c1.5-3,2.2-6.2,2.5-9.5c0.3-3.1,0.6-6.3-0.4-9.4c-1.1-3.5-2.9-6.7-5.5-9.3
	c-0.2-0.2-0.4-0.3-0.7-0.4c-1-0.4-2-0.9-3-1.3C65.1,11.3,63.9,10.9,62.7,10.5z M53.7,49.7c0.1,3.7,0.3,7.2,0.3,10.8
	c0,1.4,0.2,2.6,1.6,3.3c0.1,0,0.1,0.2,0.2,0.2c0.6,0.3,1.2,0.7,1.9,1.1c0.1-0.6,0.2-1.1,0.2-1.7c0-0.7-0.1-1.3-0.2-2
	c-0.2-2.8-0.3-5.7-0.5-8.5c0-0.4-0.2-0.8-0.5-1.1C55.9,51.1,54.9,50.5,53.7,49.7z M57.8,66c-0.6-0.5-1-0.8-1.4-1.1
	c-1.6-1.3-3.4-1.8-5.5-1.7c-2.3,0.2-4.7,0.2-7,0.3c-0.7,0-1.3,0.1-2,0.1l-0.1,0.3c1.7,0.7,3.5,1.5,5.2,2.2c0.3,0.1,0.6,0.2,1,0.1
	c1.8-0.1,3.5-0.2,5.2-0.2c1.1,0,2.3,0.1,3.4,0.2C57.1,66.2,57.4,66.1,57.8,66z M48.7,21.8c-4.7,0.2-9.2,0.9-12.2,5.4
	c1.3,0.2,2.5,0.3,3.8,0.5c0.8,0.1,1.3-0.1,1.9-0.7c1.1-1.1,2.2-2.2,3.4-3.1C46.6,23.1,47.7,22.5,48.7,21.8z"/>
<path d="M41,67.8c0.4,0.1,0.8,0.1,1.1,0.1c2.5,0,5-0.1,7.6-0.1c1,0,2,0.1,3-0.1c1.6-0.3,3.1,0.1,4.5,0.9c0.1,0.1,0.2,0.1,0.3,0.1
	c1.5,0.6,1.6,0.6,1.6,2.2c0,2.3-0.2,4.5-0.3,6.8c0,0.6,0,1.1,0,1.7c0,1,0,2.1-0.1,3.1c0,0.2-0.3,0.4-0.5,0.5c-0.5,0.1-1,0.2-1.5,0.2
	c-2.6,0.1-5.1,0.2-7.7,0.2c-1.5,0-2.9,0-4.4-0.1c-0.5-0.1-0.9-0.2-1.3-0.5c-0.6-0.4-1.2-0.9-1.9-1.2c-0.4-0.2-0.7-0.4-0.9-0.8
	c-0.2-0.3-0.3-0.7-0.3-1.1c0.1-3.9,0.4-7.8,0.6-11.7C40.9,68.1,40.9,67.9,41,67.8z M54.1,68.4c-0.4,0-0.7,0.1-0.9,0.1
	c-1.2,0-2.5,0.1-3.7,0c-2-0.1-3.9-0.2-5.9-0.2c-0.7,0-1.3,0.1-2.1,0.2c-0.2,3.8-0.3,7.5-0.5,11.3c0.3,0.1,0.6,0.1,0.9,0.1
	c3.5,0,7,0.1,10.5,0.1c1.4,0,1.4,0,1.5-1.4c0.1-2.9,0.1-5.8,0.2-8.7C54.1,69.4,54.1,69,54.1,68.4z M58,81.3c0-0.5,0.1-0.8,0.1-1.2
	c0-3.3,0-6.5,0-9.8c0-0.1,0-0.2-0.1-0.3c0-0.1-0.1-0.2-0.2-0.2c-1-0.5-1.9-0.9-3-1.3c-0.1,4-0.2,7.9-0.3,11.9L58,81.3z M41.4,80.7
	c1.3,1.3,4.5,2.4,6.3,2.3c2-0.2,4.1-0.3,6.1-0.4c1.2-0.1,2.4-0.2,3.7-0.4c-1.1-0.4-2-0.7-3-1c-0.3-0.1-0.7-0.2-1-0.2
	c-3.3-0.1-6.6-0.2-9.9-0.2C42.8,80.8,42.2,80.7,41.4,80.7z"/>
<path class="st1" d="M41,40.1c2.4,0,4.6,0.3,6.8,0.1c2.6-0.2,5.2-0.9,7.4-2.4c2.6-1.7,3.7-4.2,4.1-7.1c0.5-2.8,0-5.4-2.4-7.2
	c-1.6-1.2-3.5-2-5.4-2.3c-4.3-0.7-8.7,0.1-12.4,2.3C38,24.2,37,25.2,36,26.1c-0.9,0.8-1,0.8-1.8-0.1c-1.2-1.4-2.3-2.9-4-3.7
	c-0.2-0.1-0.3-0.2-0.5-0.4c0.9-1.5,1.8-2.9,2.7-4.2c0.3-0.5,0.7-0.8,1.1-1.2c2.3-1.6,4.5-3.3,6.9-4.7c3.7-2.2,7.8-2.8,12.1-2.6
	c1.4,0,2.8,0.2,4.3,0.3c1.8,0,3.1,1,4.7,1.7c0.1,0.1,0.2,0.2,0.4,0.2c2.1,0.9,3.8,2.3,5.4,4.1c1.2,1.4,2.2,3,2.9,4.7
	c0.4,1,0.8,2,1.2,3.1c0.8,2.3,1.3,4.6,0.8,7c-0.4,1.8-0.7,3.6-1.3,5.4c-1.2,3.9-3.3,7.3-6.9,9.6c-1,0.7-2,1.3-3.3,1.6
	c-2.2,0.5-4.4,1.2-6.6,1.8c-0.4,0.1-0.7,0.2-0.9,0.3c0.1,4.6,0.2,9.1,0.3,13.7c-1.5,0-2.9,0.1-4.3,0.1c-0.7,0-1.5,0.1-2.2,0.1
	c-1.3,0-2.6,0-3.8,0c-0.5,0-1-0.1-1.5,0c-0.6,0.1-0.8-0.2-0.8-0.7c0-0.9,0-1.8,0-2.6c0-1.8,0.1-3.7,0.1-5.5c0-4.3,0-8.7,0-13
	C40.9,40.7,40.9,40.4,41,40.1z"/>
<path class="st2" d="M62.7,10.5c1.2,0.4,2.4,0.7,3.6,1.2c1,0.4,2,0.8,3,1.3c0.3,0.1,0.5,0.3,0.7,0.4c2.5,2.6,4.4,5.8,5.5,9.3
	c1,3.2,0.7,6.3,0.4,9.4c-0.3,3.3-1,6.5-2.5,9.5c-1.4,2.8-3.6,5-6.5,6.2c-2.6,1.1-5.4,1.9-8,3c-1,0.4-1.7,0.3-2.5-0.3
	c-0.6-0.5-1.2-0.9-1.9-1.3c1.6-0.4,3-0.7,4.4-1.2c2.1-0.7,4.3-1.3,6.1-2.7c2.4-1.7,3.9-3.9,5.2-6.5c1.4-2.8,1.8-5.8,2.5-8.8
	c0.5-2,0.1-4-0.5-5.9c-0.6-1.8-1.1-3.7-2-5.4c-0.7-1.4-1.8-2.7-2.7-4c-0.2-0.3-0.5-0.6-0.7-0.9c-0.8-1.1-1.9-2-3.2-2.5
	c-0.3-0.1-0.7-0.3-1-0.5L62.7,10.5z"/>
<path class="st2" d="M53.7,49.7c1.2,0.8,2.1,1.4,3.1,2.1c0.3,0.3,0.5,0.7,0.5,1.1c0.2,2.8,0.4,5.7,0.5,8.5c0,0.7,0.2,1.3,0.2,2
	c0,0.6-0.1,1.1-0.2,1.7c-0.8-0.4-1.3-0.8-1.9-1.1c-0.1-0.1-0.1-0.2-0.2-0.2c-1.4-0.7-1.6-1.9-1.6-3.3C54,56.9,53.9,53.4,53.7,49.7z"
	/>
<path class="st2" d="M57.8,66c-0.4,0.1-0.7,0.2-1.1,0.2c-1.1,0-2.3-0.2-3.4-0.2c-1.8,0-3.5,0.2-5.2,0.2c-0.3,0-0.7,0-1-0.1
	c-1.8-0.7-3.5-1.5-5.2-2.2l0.1-0.3c0.7,0,1.3-0.1,2-0.1c2.3-0.1,4.7-0.1,7-0.3c2.1-0.2,3.9,0.3,5.5,1.7C56.8,65.2,57.2,65.6,57.8,66
	z"/>
<path class="st2" d="M48.7,21.8c-1,0.7-2.1,1.3-3.1,2c-1.2,1-2.4,2-3.4,3.1c-0.6,0.6-1,0.9-1.9,0.7c-1.3-0.2-2.5-0.3-3.8-0.5
	C39.5,22.8,44,22,48.7,21.8z"/>
<path class="st1" d="M54.1,68.4c0,0.5,0,1,0,1.5c-0.1,2.9-0.1,5.8-0.2,8.7c0,1.5,0,1.5-1.5,1.4c-3.5,0-7,0-10.5-0.1
	c-0.3,0-0.6-0.1-0.9-0.1c0.2-3.8,0.3-7.5,0.5-11.3c0.8-0.1,1.4-0.3,2.1-0.2c2,0,3.9,0.2,5.9,0.2c1.2,0,2.5,0,3.7,0
	C53.4,68.5,53.7,68.5,54.1,68.4z"/>
<path class="st2" d="M58,81.3l-3.5-0.9c0.1-4,0.2-7.9,0.3-11.9c1.1,0.5,2.1,0.9,3,1.3c0.1,0.1,0.1,0.1,0.2,0.2
	c0,0.1,0.1,0.2,0.1,0.3c0,3.3,0,6.5,0,9.8C58.1,80.4,58,80.8,58,81.3z"/>
<path class="st2" d="M41.4,80.7c0.8,0,1.5,0.1,2.1,0.1c3.3,0.1,6.6,0.2,9.9,0.2c0.4,0,0.7,0.1,1,0.2c1,0.3,1.9,0.6,3,1
	c-1.3,0.1-2.5,0.3-3.7,0.4c-2,0.2-4.1,0.2-6.1,0.4C45.9,83.1,42.6,81.9,41.4,80.7z"/>
<path d="M25.5,57.6c0.5,1.4,1,2.7,1.5,4.1c0.2,0.5,0.3,1.1,0.5,1.6c0,0.2,0.1,0.3,0.2,0.5c0.5,0.5,0.4,1-0.3,1.3
	c-0.4,0.1-0.8,0.2-1.1,0.3c-0.7,0.2-1.3,0.4-2,0.7c-1.1,0.6-2.2,0.8-3.4,0.6c-0.7-0.2-1.4-0.2-2.1-0.4c-0.3-0.1-0.5-0.2-0.7-0.4
	c-0.2-0.2-0.3-0.4-0.3-0.7c-0.3-2.7-1.5-5.2-2.2-7.7c-0.2-0.7-0.5-1.3-0.8-2c-0.1-0.2-0.1-0.4-0.1-0.6c0-0.5,0.1-0.6,0.5-0.7
	c1.1-0.2,2.2-0.6,3.3-1.1c0.8-0.5,1.6-1,2.3-1.5c0.9-0.7,1.3-1.6,1.4-2.7c0-0.9,0-1.8-0.4-2.7c-0.2-0.5-0.5-0.9-0.9-1.2
	c-0.4-0.3-0.8-0.5-1.3-0.6c-0.4-0.1-0.8-0.1-1.2-0.1c-0.5,0-1,0-1.5,0.2c-0.5,0.2-0.9,0.5-1.2,0.9c-0.8,0.9-1.4,2-1.9,3.1
	c0,0.1-0.1,0.2-0.2,0.3c-0.1,0.1-0.2,0.2-0.3,0.2c-0.9,0.3-1.9,0.6-2.9,0.6c-0.5,0-1-0.2-1.4-0.4c-0.6-0.3-1.3-0.6-1.9-0.9
	c-0.2-0.1-0.4-0.2-0.5-0.3c-0.1-0.1-0.2-0.3-0.2-0.4c0.2-1,0.4-1.9,0.8-2.8c0.3-0.8,0.9-1.5,1.5-2.2c1-1.4,2.1-2.7,3.6-3.6
	c0.6-0.4,1.3-0.7,2-1c1-0.5,2.1-0.8,3.2-1.1c1.3-0.3,2.6-0.4,3.9-0.4c0.9,0,1.8,0,2.7-0.1c0.6,0,1.1,0.1,1.6,0.5
	c1.2,0.7,2.3,1.6,3.2,2.7c1.3,1.5,2.1,3.4,2.4,5.3c0.1,0.6,0.3,1.2,0.5,1.8c0,0.3,0,0.6,0,0.9c0,0.4-0.1,0.8-0.1,1.3
	c0.1,2.7-1,4.9-3.1,6.5C27.5,56.1,26.5,56.8,25.5,57.6z M15,54.6c0,0.1,0.1,0.3,0.1,0.5c0.7,2.1,1.4,4.2,2.1,6.3
	c0.3,0.9,0.5,1.8,0.8,2.7c0.1,0.4,0.3,0.9,0.4,1.3c0.1,0.2,0.2,0.4,0.5,0.2c0.2-0.1,0.5-0.2,0.7-0.2c0.6-0.2,1.3-0.4,1.9-0.6
	c0.4-0.1,0.7-0.3,1-0.4c0.7-0.3,1.3-0.5,2.1-0.7c-0.8-2.2-1.5-4.4-2.3-6.7c0.1-0.1,0.2-0.2,0.4-0.3c1-0.6,1.9-1.3,2.9-1.9
	c0.5-0.4,1-0.8,1.3-1.3c1.4-1.7,1.9-3.7,1.8-5.8c0-0.9-0.2-1.9-0.3-2.8c-0.1-1.3-0.7-2.3-1.5-3.3c-0.3-0.4-0.7-0.9-1.1-1.3
	c-0.6-0.7-1.3-1.4-2.2-1.8c-1-0.6-2.1-1-3.3-1.1c-0.1,0-0.1,0-0.2,0c-0.9-0.1-1.7-0.3-2.6-0.1c-0.7,0.2-1.4,0.4-2.1,0.6
	c-2.1,0.6-4,1.6-5.5,3.2c-0.9,1.1-1.7,2.2-2.6,3.4c-0.2,0.2-0.3,0.5-0.4,0.8c-0.2,0.8-0.4,1.6-0.6,2.5c0.1,0,0.2,0.1,0.3,0.1
	c1,0.1,1.7,0.7,2.6,1.2c0.5,0.3,0.6,0.3,0.9-0.2c0.4-0.6,0.6-1.2,1.1-1.7c1.5-1.7,3.5-2.8,5.7-3.1c1-0.2,2-0.1,3,0.2
	c1.4,0.5,2.1,1.7,2.3,3.1c0.2,1.4,0.1,2.9-0.9,4.1c-0.9,1-2,1.8-3.2,2.4C17.3,54,16.2,54.2,15,54.6z M20.9,36.6v0.1
	c0.2,0,0.4,0.1,0.6,0.1c0.7,0,1.4,0.3,2,0.7c0.2,0.1,0.3,0.2,0.5,0.3c0.7,0.5,1.4,0.9,2,1.5c0.7,0.7,1.3,1.5,1.8,2.3
	c0.6,0.8,1.1,1.7,1.2,2.8c0.1,1.6,0.4,3.1,0.2,4.7c-0.2,1.5-0.6,2.8-1.5,4c-0.7,0.9-1.6,1.6-2.6,2.3c-0.6,0.4-1.3,0.8-2,1.3
	c0.4,0.1,0.8,0.2,1.1,0.3c0.5,0.2,0.9,0.1,1.3-0.2c1.1-0.9,2.3-1.8,3.4-2.7c1.2-1,2-2.5,2.2-4.1c0.3-1.7,0.1-3.4-0.3-5
	c-0.4-1.6-0.7-3.1-1.7-4.5c-1.1-1.5-2.5-2.8-4.2-3.7c-0.1-0.1-0.3-0.1-0.4-0.1c-0.6-0.1-1.1-0.1-1.7-0.1
	C22.2,36.6,21.6,36.6,20.9,36.6z M22.8,57.2c0.6,1.8,1.3,3.5,1.9,5.2c0.2,0.7,0.5,1.2,1.3,1.3c0.1,0,0.1,0.1,0.1,0.1l1.1,0.2
	c0-0.3-0.1-0.6-0.2-0.9c-0.1-0.3-0.3-0.6-0.4-0.9c-0.5-1.4-1.1-2.7-1.6-4.1c-0.1-0.2-0.2-0.4-0.4-0.5C24.1,57.5,23.5,57.4,22.8,57.2
	z M27.4,64.5l-0.8-0.3c-0.5-0.2-1-0.3-1.5-0.3c-0.5,0-1,0.1-1.5,0.3c-1.1,0.5-2.3,0.9-3.4,1.3c-0.3,0.1-0.6,0.2-1,0.4l0,0.2
	c1,0.1,1.9,0.2,2.9,0.2c0.2,0,0.3,0,0.5-0.1c0.8-0.3,1.7-0.7,2.5-1c0.5-0.2,1.1-0.3,1.7-0.5C27.1,64.7,27.3,64.6,27.4,64.5
	L27.4,64.5z M15.9,44.4c-2.3,0.9-4.4,1.9-5.1,4.6c0.6-0.1,1.3-0.3,1.9-0.4c0.2,0,0.3-0.1,0.5-0.2c0.1-0.1,0.2-0.3,0.3-0.4
	c0.3-0.7,0.7-1.4,1.2-2.1C15.1,45.4,15.5,44.9,15.9,44.4z"/>
<path d="M19.5,68.1c0.2,0,0.4-0.1,0.6-0.1c1.2-0.4,2.4-0.8,3.7-1.3c0.5-0.1,1-0.3,1.4-0.5c0.7-0.4,1.6-0.5,2.3-0.3
	c0.1,0,0.1,0,0.2,0c0.8,0,0.9,0,1.1,0.8c0.3,1.1,0.6,2.2,1,3.4c0.1,0.3,0.2,0.6,0.3,0.8c0.2,0.5,0.3,1,0.5,1.5c0,0.1,0,0.1,0,0.2
	c0,0.1-0.1,0.1-0.1,0.1c-0.2,0.1-0.5,0.3-0.7,0.3c-1.2,0.5-2.5,0.9-3.7,1.3c-0.7,0.2-1.4,0.5-2.1,0.7c-0.2,0-0.5,0-0.7,0
	c-0.4-0.1-0.7-0.2-1.1-0.3c-0.2,0-0.4-0.1-0.6-0.2c-0.2-0.1-0.3-0.3-0.3-0.5c-0.6-1.9-1.1-3.9-1.6-5.8
	C19.5,68.3,19.5,68.2,19.5,68.1z M26,66.3c-0.2,0.1-0.3,0.2-0.4,0.2c-0.6,0.2-1.2,0.4-1.8,0.6c-1,0.3-2,0.5-2.9,0.8
	c-0.3,0.1-0.7,0.3-1,0.5c0.5,1.9,1,3.7,1.6,5.6c0.2,0,0.3-0.1,0.5-0.1c1.7-0.5,3.4-1.1,5.1-1.7c0.7-0.2,0.7-0.2,0.5-0.9
	c-0.4-1.4-0.9-2.9-1.3-4.3C26.2,66.8,26.1,66.6,26,66.3z M30,71.9c-0.1-0.2-0.1-0.4-0.1-0.6c-0.5-1.6-1-3.2-1.6-4.8
	c0,0,0-0.1-0.1-0.1c0,0-0.1-0.1-0.1-0.1c-0.5-0.1-1.1-0.1-1.7-0.2c0.6,2,1.2,3.9,1.7,5.8L30,71.9z M21.8,74.3
	c0.8,0.4,2.6,0.4,3.4,0.1c1-0.4,2-0.8,2.9-1.2c0.6-0.2,1.1-0.5,1.8-0.8c-0.6,0-1.1,0-1.6,0c-0.2,0-0.4,0-0.5,0.1
	c-1.6,0.5-3.3,1-4.9,1.5C22.5,74.1,22.2,74.2,21.8,74.3L21.8,74.3z"/>
<path class="st1" d="M15,54.6c1.2-0.4,2.3-0.6,3.3-1c1.3-0.5,2.4-1.3,3.2-2.4c1-1.2,1.1-2.6,0.9-4.1c-0.2-1.5-0.9-2.6-2.3-3.1
	c-1-0.3-2-0.4-3-0.2C15,44,13,45.1,11.5,46.8c-0.5,0.5-0.7,1.2-1.1,1.7c-0.3,0.5-0.4,0.5-0.9,0.2c-0.8-0.5-1.6-1-2.6-1.2
	c-0.1,0-0.2-0.1-0.3-0.1c0.2-0.9,0.4-1.7,0.6-2.5c0.1-0.3,0.2-0.5,0.4-0.8c0.9-1.1,1.7-2.3,2.6-3.4c1.5-1.7,3.4-2.6,5.5-3.2
	c0.7-0.2,1.4-0.3,2.1-0.6c0.9-0.3,1.7,0,2.6,0.1c0.1,0,0.1,0,0.2,0c1.2,0.1,2.3,0.5,3.3,1.1c0.8,0.5,1.6,1.1,2.2,1.8
	c0.3,0.4,0.7,0.9,1.1,1.3c0.8,1,1.4,2,1.5,3.3c0.1,0.9,0.2,1.9,0.3,2.8c0,2.1-0.4,4.1-1.8,5.8c-0.4,0.5-0.8,0.9-1.3,1.3
	c-1,0.6-2,1.3-2.9,1.9c-0.2,0.1-0.3,0.2-0.4,0.3c0.8,2.2,1.5,4.4,2.3,6.7c-0.7,0.3-1.4,0.5-2.1,0.7c-0.4,0.1-0.7,0.3-1,0.4
	c-0.6,0.2-1.2,0.4-1.9,0.6c-0.2,0.1-0.5,0.1-0.7,0.2c-0.3,0.2-0.4,0-0.5-0.2c-0.1-0.4-0.3-0.9-0.4-1.3c-0.3-0.9-0.5-1.8-0.8-2.7
	c-0.7-2.1-1.4-4.2-2.1-6.3C15.1,54.8,15.1,54.7,15,54.6z"/>
<path class="st2" d="M20.9,36.6c0.6,0,1.3,0,1.9,0c0.6,0,1.1,0.1,1.7,0.1c0.1,0,0.3,0,0.4,0.1c1.7,0.9,3.1,2.1,4.2,3.7
	c1,1.4,1.3,3,1.7,4.5c0.4,1.7,0.6,3.3,0.3,5c-0.2,1.6-1,3-2.2,4.1c-1.1,0.9-2.3,1.8-3.4,2.7c-0.4,0.4-0.8,0.4-1.3,0.2
	c-0.3-0.1-0.7-0.2-1.1-0.3c0.7-0.5,1.3-0.8,2-1.3c0.9-0.7,1.9-1.3,2.6-2.3c0.9-1.2,1.3-2.6,1.5-4c0.2-1.6,0-3.1-0.2-4.7
	c-0.1-1.1-0.6-2-1.2-2.8c-0.6-0.8-1.2-1.6-1.8-2.3c-0.6-0.6-1.3-1-2-1.5c-0.2-0.1-0.3-0.2-0.5-0.3c-0.6-0.4-1.3-0.7-2-0.7
	c-0.2,0-0.4-0.1-0.6-0.1V36.6z"/>
<path class="st2" d="M22.8,57.2c0.7,0.2,1.3,0.3,1.8,0.5c0.2,0.1,0.3,0.3,0.4,0.5c0.6,1.4,1.1,2.7,1.6,4.1c0.1,0.3,0.3,0.6,0.4,0.9
	c0.1,0.3,0.1,0.6,0.2,0.9l-1.1-0.2c-0.1,0-0.1-0.1-0.1-0.1c-0.8-0.1-1.1-0.7-1.3-1.3C24.1,60.7,23.5,59,22.8,57.2z"/>
<path class="st2" d="M27.4,64.5c-0.2,0.1-0.3,0.2-0.5,0.3c-0.6,0.2-1.1,0.3-1.7,0.5c-0.9,0.3-1.7,0.6-2.5,1
	c-0.2,0.1-0.3,0.1-0.5,0.1c-1-0.1-1.9-0.2-2.9-0.2l0-0.2c0.3-0.1,0.6-0.3,1-0.4c1.1-0.4,2.3-0.8,3.4-1.3c0.5-0.2,1-0.3,1.5-0.3
	c0.5,0,1,0.1,1.5,0.3L27.4,64.5z"/>
<path class="st2" d="M15.9,44.4c-0.4,0.5-0.8,1-1.2,1.5c-0.4,0.7-0.8,1.4-1.2,2.1c-0.1,0.2-0.2,0.3-0.3,0.4
	c-0.1,0.1-0.3,0.2-0.5,0.2c-0.6,0.1-1.3,0.2-1.9,0.4C11.6,46.4,13.6,45.3,15.9,44.4z"/>
<path class="st1" d="M26,66.3c0.1,0.3,0.2,0.5,0.2,0.7c0.4,1.4,0.9,2.9,1.3,4.3c0.2,0.7,0.2,0.7-0.5,0.9c-1.7,0.6-3.4,1.1-5.1,1.7
	c-0.2,0-0.3,0.1-0.5,0.1c-0.5-1.9-1.1-3.7-1.6-5.6c0.3-0.2,0.7-0.3,1-0.5c1-0.3,2-0.5,2.9-0.8c0.6-0.2,1.2-0.4,1.8-0.6
	C25.7,66.5,25.8,66.4,26,66.3z"/>
<path class="st2" d="M30,71.9L28.2,72c-0.6-1.9-1.2-3.9-1.7-5.8c0.6,0.1,1.1,0.1,1.7,0.2c0,0,0.1,0,0.1,0.1c0,0,0.1,0.1,0.1,0.1
	c0.5,1.6,1,3.2,1.6,4.8C29.9,71.5,29.9,71.7,30,71.9z"/>
<path class="st2" d="M21.8,74.3c0.4-0.1,0.7-0.2,1-0.3c1.6-0.5,3.3-1,4.9-1.5c0.2-0.1,0.3-0.1,0.5-0.1c0.5,0,1,0,1.6,0
	c-0.6,0.3-1.2,0.5-1.8,0.8c-1,0.4-2,0.8-2.9,1.2C24.4,74.7,22.6,74.7,21.8,74.3z"/>
<path d="M36.7,32.9c1.1-0.7,2.3-0.4,2.6,0.8c0.2,0.9-0.4,1.8-1.5,2.1c-0.2,0.1-0.4,0.1-0.6,0.1c-0.2,0-0.4-0.1-0.6-0.2
	c-0.2-0.1-0.3-0.2-0.5-0.4c-0.1-0.2-0.2-0.3-0.3-0.5C35.6,34.1,35.9,33.4,36.7,32.9z"/>
<path d="M31.4,38.8c-0.2-0.3-0.3-0.7-0.2-1.1c0.1-0.4,0.3-0.7,0.6-1c0.4-0.2,0.9-0.3,1.4-0.2c0.5,0.1,0.9,0.4,1.2,0.8
	c0.2,0.3,0.3,0.8,0.2,1.1c-0.1,0.4-0.3,0.7-0.7,1c-0.4,0.2-0.9,0.3-1.4,0.2C32.1,39.4,31.7,39.1,31.4,38.8z"/>
<path d="M32.1,81.6c0-0.4,0.2-0.8,0.5-1.1c0.3-0.3,0.7-0.4,1.1-0.4c0.9,0,1.8,1,1.8,1.9c0,0.4-0.2,0.8-0.5,1
	c-0.3,0.3-0.7,0.4-1.1,0.4c-0.5,0-0.9-0.3-1.2-0.6C32.3,82.6,32.1,82.1,32.1,81.6z"/>
<path d="M31,79.6c-0.2,0-0.4,0-0.6-0.1c-0.2-0.1-0.4-0.2-0.5-0.3c-0.2-0.2-0.3-0.3-0.4-0.5c-0.1-0.2-0.1-0.4-0.1-0.6
	c0-0.4,0.2-0.8,0.5-1.1c0.3-0.3,0.7-0.5,1.2-0.4c0.2,0,0.4,0,0.6,0.1c0.2,0.1,0.4,0.2,0.5,0.3c0.2,0.1,0.3,0.3,0.4,0.5
	c0.1,0.2,0.1,0.4,0.1,0.6c0,0.2,0,0.4-0.1,0.6c-0.1,0.2-0.2,0.4-0.4,0.5c-0.2,0.2-0.3,0.3-0.5,0.3C31.4,79.6,31.2,79.6,31,79.6z"/>
<path d="M32,30.3c0.8-0.6,1.8-0.4,2.3,0.4c0.1,0.2,0.2,0.4,0.2,0.6c0,0.2,0,0.4,0,0.6c0,0.2-0.1,0.4-0.3,0.6
	c-0.1,0.2-0.3,0.3-0.5,0.4c-0.8,0.6-1.8,0.4-2.3-0.3C31,31.7,31.2,30.8,32,30.3z"/>
<path d="M63.5,61.6c0-0.4,0.2-0.8,0.5-1.1c0.3-0.3,0.7-0.4,1.1-0.4c0.9,0,1.8,1,1.8,1.9c0,0.4-0.2,0.8-0.5,1.1
	c-0.3,0.3-0.7,0.4-1.1,0.4c-0.5,0-0.9-0.3-1.2-0.6C63.7,62.5,63.5,62.1,63.5,61.6z"/>
<path d="M62.4,59.6c-0.2,0-0.4,0-0.6-0.1c-0.2-0.1-0.4-0.2-0.5-0.3c-0.2-0.2-0.3-0.3-0.4-0.5c-0.1-0.2-0.1-0.4-0.1-0.6
	c0-0.4,0.2-0.8,0.5-1.1c0.3-0.3,0.7-0.5,1.2-0.4c0.2,0,0.4,0,0.6,0.1c0.2,0.1,0.4,0.2,0.5,0.3c0.2,0.1,0.3,0.3,0.4,0.5
	c0.1,0.2,0.1,0.4,0.1,0.6C64.1,58.9,63.4,59.6,62.4,59.6z"/>
</svg>
