<svg width="54" height="57" viewBox="0 0 54 57" fill="none" xmlns="http://www.w3.org/2000/svg">
<path d="M53.4799 30.1385C53.4799 34.1526 53.5602 38.1667 53.4799 42.1808C53.2322 52.4001 49.9254 54.3536 41.9329 55.1631C30.8881 56.2804 19.6257 58.0733 8.42347 55.0059C4.59793 53.9555 2.24504 52.1559 2.02079 48.3592C1.3079 36.2166 0.494594 24.0605 0.380798 11.8978C0.310513 6.15096 4.29336 2.16028 10.1036 1.79232C20.5025 1.12331 30.9617 0.745314 41.3707 1.07648C48.9448 1.31732 52.7502 5.24779 53.5602 12.8478C54.1559 18.5545 53.6807 24.3716 53.6807 30.1385H53.4799ZM52.3553 28.7069H52.2381C52.2381 24.2211 52.4724 19.7186 52.1879 15.2529C51.6457 6.61928 47.683 2.71891 39.0847 2.57173C30.9115 2.44796 22.7216 2.55166 14.5617 2.97314C4.66487 3.48159 1.39827 6.88019 1.61582 16.8552C1.82667 26.4556 2.66006 36.046 3.31606 45.6229C3.62732 50.2191 6.15091 53.4805 10.7663 53.5675C21.2958 53.7615 31.9055 54.076 42.348 53.0089C50.0158 52.2261 51.1437 49.9013 51.7194 42.1273C52.0373 37.6951 52.1478 33.1893 52.3553 28.7069Z" fill="black"/>
<path d="M52.3553 28.7068C52.1478 33.1892 52.0206 37.6783 51.7094 42.1507C51.1437 49.9247 50.0158 52.2495 42.3379 53.0322C31.8955 54.0993 21.2858 53.7849 10.7563 53.5909C6.14089 53.5039 3.6173 50.2458 3.30604 45.6463C2.63665 36.0593 1.81665 26.4689 1.6058 16.8786C1.38825 6.90355 4.65485 3.49826 14.5517 2.9965C22.7115 2.57502 30.9015 2.47132 39.0747 2.59509C47.673 2.72889 51.6357 6.62926 52.1779 15.2596C52.4624 19.7253 52.2281 24.2277 52.2281 28.7135L52.3553 28.7068ZM27.6851 50.6873C29.6129 50.6873 31.5441 50.771 33.4652 50.6706C44.1286 50.1187 47.5893 46.322 47.6997 35.6177C47.76 29.8475 48.2018 24.0772 48.59 18.3136C49.0954 10.8073 46.2472 6.83665 38.827 6.3951C31.7985 5.98031 24.7398 6.3951 17.6945 6.48876C11.6934 6.58243 7.50309 9.98103 6.98431 15.962C6.54252 21.0432 6.81362 26.208 7.06464 31.3193C7.89134 48.3391 10.6358 50.8713 27.6851 50.6873Z" fill="#E88D4F"/>
<path d="M27.6853 50.6873C10.636 50.8713 7.89156 48.3457 7.06152 31.3159C6.8105 26.2047 6.5394 21.0398 6.98119 15.9587C7.50331 9.97766 11.6937 6.59243 17.6914 6.48539C24.7199 6.375 31.8054 5.97694 38.8239 6.39173C46.234 6.83328 49.0923 10.8039 48.5869 18.3103C48.1986 24.0738 47.7568 29.8441 47.6966 35.6144C47.5862 46.3186 44.1254 50.1186 33.4621 50.6672C31.5443 50.7709 29.6131 50.6873 27.6853 50.6873ZM45.7018 27.8404H46.2675C46.4281 24.6325 46.6791 21.4279 46.7327 18.2199C46.8532 11.2889 44.1455 7.96057 37.1872 7.62607C30.6124 7.34615 24.0266 7.47128 17.4671 8.00072C12.112 8.40882 8.9291 11.2822 8.73164 16.534C8.47215 24.3753 8.70914 32.2252 9.44119 40.0366C9.86959 44.7799 13.0224 47.9343 18.0963 48.2119C24.0171 48.5465 29.9746 48.9847 35.8752 48.6669C42.4988 48.3123 45.4542 44.7431 45.6818 37.9459C45.7955 34.574 45.7018 31.2055 45.7018 27.8404Z" fill="black"/>
<path d="M45.7015 27.8405C45.7015 31.2057 45.7952 34.5742 45.6814 37.936C45.4538 44.7332 42.4985 48.3058 35.8749 48.657C29.9743 48.9748 24.0167 48.5265 18.096 48.2021C13.0221 47.9244 9.86925 44.77 9.44085 40.0267C8.70937 32.2197 8.47238 24.3743 8.7313 16.5375C8.92876 11.2857 12.1184 8.4123 17.4668 8.0042C24.0262 7.47475 30.6121 7.34964 37.1869 7.62955C44.1452 7.96406 46.8528 11.2924 46.7324 18.2234C46.6788 21.4314 46.4278 24.6359 46.2671 27.8439L45.7015 27.8405ZM36.9995 12.1488C34.3989 13.9852 33.85 16.6077 36.1895 18.5044C37.3978 19.4778 41.307 19.3306 41.8559 18.4107C42.9369 16.6044 43.4591 13.363 42.4985 11.7206C41.1764 9.43255 38.4453 9.43255 36.8087 12.3528L36.9995 12.1488ZM39.0612 29.7339C39.0378 21.2206 32.6384 14.6074 24.3916 14.5739C17.6408 14.5472 11.3386 21.9565 11.4925 29.774C11.6398 38.0999 17.5705 44.1177 25.6634 44.1578C33.3312 44.1813 39.1047 37.9661 39.0779 29.7339H39.0612Z" fill="#FFD265"/>
<path d="M39.0785 29.7337C39.1053 37.9659 33.3318 44.1811 25.6908 44.151C17.5979 44.1175 11.6672 38.0997 11.5199 29.7671C11.3793 21.9497 17.6682 14.5403 24.419 14.5671C32.6558 14.6139 39.0551 21.2205 39.0785 29.7337ZM25.8548 42.4785C32.1738 42.4785 37.5322 36.648 37.549 29.7203C37.549 22.5351 31.5245 16.4169 24.4524 16.4771C18.1167 16.534 13.0729 22.3979 13.1867 29.5531C13.3105 36.9223 18.7526 42.4617 25.8548 42.4785Z" fill="black"/>
<path d="M36.8256 12.3226C38.4488 9.40238 41.1766 9.40238 42.5153 11.6904C43.4759 13.3462 42.9538 16.5876 41.8727 18.3806C41.3238 19.3005 37.4146 19.4477 36.2064 18.4742C33.8635 16.5943 34.4158 13.9718 37.0163 12.1186C36.8021 12.8612 36.2265 13.741 36.4474 14.3197C36.9628 15.6778 37.8598 16.892 38.6061 18.1631C39.888 17.076 42.2309 16.0223 42.2643 14.8983C42.3815 10.8341 39.2387 12.0584 36.8256 12.3226Z" fill="black"/>
<path d="M25.8544 42.4785C18.7389 42.4617 13.3101 36.9223 13.1863 29.5531C13.0625 22.3979 18.1163 16.534 24.442 16.4771C31.5041 16.4169 37.552 22.5351 37.5386 29.7203C37.5319 36.648 32.1734 42.4918 25.8544 42.4785ZM34.9246 29.1851C34.9481 24.1407 31.4806 20.3106 26.805 20.2236C22.2331 20.1366 17.1491 25.4386 17.0353 30.4061C16.9181 35.4906 21.3863 40.177 26.3598 40.157C31.0857 40.1402 34.8945 35.2598 34.9246 29.1851Z" fill="#EFCAB6"/>
<path d="M36.826 12.3226C39.2257 12.0584 42.3685 10.8341 42.2514 14.9284C42.2179 16.0524 39.875 17.1061 38.5932 18.1933C37.8468 16.9221 36.9498 15.7079 36.4344 14.3497C36.2135 13.771 36.7892 12.8913 37.0034 12.1487L36.826 12.3226Z" fill="#EFCAB6"/>
<path d="M34.9248 29.1851C34.8947 35.2598 31.0859 40.1403 26.36 40.157C21.4032 40.1771 16.9183 35.4739 17.0354 30.4061C17.1492 25.4386 22.2332 20.1367 26.8051 20.2237C31.4708 20.3006 34.9482 24.1407 34.9248 29.1851ZM33.3049 29.3925C33.2781 25.0105 30.9386 22.3076 27.17 22.311C22.511 22.311 18.8294 25.8735 18.7558 30.4529C18.6888 34.651 22.2868 38.3674 26.2864 38.2269C30.2859 38.0864 33.335 34.2897 33.3049 29.3925Z" fill="black"/>
<path d="M33.3047 29.3926C33.3348 34.2898 30.3159 38.0898 26.2762 38.2269C22.2364 38.3641 18.6786 34.6511 18.7456 30.453C18.8192 25.8736 22.5008 22.3144 27.1597 22.311C30.9384 22.3077 33.2779 25.0105 33.3047 29.3926Z" fill="#A06A80"/>
</svg>
