<svg width="54" height="57" viewBox="0 0 54 57" fill="none" xmlns="http://www.w3.org/2000/svg">
<path d="M53.2567 29.9402C53.2567 33.9543 53.3367 37.9684 53.2567 41.9825C53.0101 52.2017 49.7172 54.1552 41.7584 54.9647C30.7599 56.082 19.5448 57.875 8.38968 54.8075C4.58021 53.7572 2.2372 51.9575 2.0139 48.1608C1.304 36.0182 0.494112 23.8622 0.380795 11.6995C0.310804 5.9526 4.27692 1.96192 10.0628 1.59396C20.418 0.924943 30.8332 0.546949 41.1984 0.878112C48.7407 1.11896 52.5302 5.04943 53.3367 12.6495C53.93 18.3562 53.4567 24.1733 53.4567 29.9402H53.2567ZM52.1369 28.5085H52.0202C52.0202 24.0227 52.2535 19.5203 51.9703 15.0546C51.4303 6.42091 47.4842 2.52055 38.9221 2.37336C30.7832 2.2496 22.6277 2.35329 14.5022 2.77477C4.64686 3.28323 1.39399 6.68183 1.61062 16.6569C1.82059 26.2572 2.65048 35.8476 3.30372 45.4246C3.61368 50.0207 6.12666 53.2822 10.7227 53.3691C21.2079 53.5631 31.7731 53.8776 42.1716 52.8105C49.8072 52.0278 50.9304 49.7029 51.5037 41.929C51.8203 37.4967 51.9303 32.9909 52.1369 28.5085Z" fill="black"/>
<path d="M52.1371 28.5085C51.9305 32.9909 51.8039 37.48 51.4939 41.9524C50.9306 49.7264 49.8075 52.0512 42.1619 52.8339C31.7633 53.901 21.1981 53.5866 10.7129 53.3926C6.11691 53.3056 3.60393 50.0475 3.29397 45.448C2.6274 35.861 1.81084 26.2706 1.60087 16.6803C1.38424 6.70525 4.63711 3.29996 14.4924 2.79819C22.6179 2.37671 30.7735 2.27302 38.9123 2.39678C47.4745 2.53059 51.4206 6.43095 51.9605 15.0613C52.2438 19.527 52.0105 24.0294 52.0105 28.5152L52.1371 28.5085ZM27.5706 50.489C29.4903 50.489 31.4134 50.5727 33.3264 50.4723C43.945 49.9204 47.3911 46.1237 47.5011 35.4194C47.5611 29.6492 48.0011 23.8789 48.3877 18.1153C48.8909 10.609 46.0547 6.63835 38.6657 6.1968C31.6667 5.78201 24.6377 6.1968 17.622 6.29046C11.6461 6.38412 7.47338 9.78273 6.95679 15.7637C6.51685 20.8449 6.78682 26.0097 7.03678 31.121C7.86 48.1408 10.593 50.673 27.5706 50.489Z" fill="#FFD265"/>
<path d="M27.5705 50.4889C10.5928 50.6729 7.85989 48.1474 7.03334 31.1176C6.78337 26.0063 6.51341 20.8415 6.95335 15.7603C7.47328 9.77929 11.646 6.39407 17.6185 6.28703C24.6176 6.17664 31.6732 5.77858 38.6623 6.19337C46.0412 6.63492 48.8875 10.6055 48.3842 18.1119C47.9976 23.8755 47.5577 29.6457 47.4977 35.416C47.3877 46.1203 43.9415 49.9203 33.323 50.4689C31.4133 50.5726 29.4902 50.4889 27.5705 50.4889ZM45.5113 27.642H46.0746C46.2345 24.4341 46.4845 21.2295 46.5378 18.0216C46.6578 11.0906 43.9615 7.76221 37.0325 7.4277C30.4853 7.14779 23.9271 7.27291 17.3952 7.80235C12.0626 8.21045 8.89308 11.0839 8.69644 16.3357C8.43805 24.177 8.67404 32.0268 9.40301 39.8382C9.82961 44.5815 12.9692 47.7359 18.0218 48.0136C23.9176 48.3481 29.8502 48.7863 35.726 48.4685C42.3218 48.1139 45.2647 44.5447 45.4913 37.7475C45.6046 34.3757 45.5113 31.0072 45.5113 27.642Z" fill="black"/>
<path d="M45.5111 27.6422C45.5111 31.0074 45.6044 34.3759 45.4911 37.7377C45.2644 44.5349 42.3215 48.1074 35.7258 48.4587C29.8499 48.7765 23.9174 48.3282 18.0216 48.0037C12.9689 47.7261 9.82938 44.5717 9.40277 39.8284C8.67437 32.0214 8.43837 24.176 8.6962 16.3392C8.89284 11.0874 12.0691 8.21399 17.395 7.80589C23.9269 7.27645 30.485 7.15133 37.0323 7.43125C43.9613 7.76575 46.6576 11.0941 46.5376 18.0251C46.4843 21.2331 46.2343 24.4376 46.0743 27.6456L45.5111 27.6422ZM36.8456 11.9504C34.256 13.7869 33.7094 16.4094 36.0391 18.3061C37.2422 19.2795 41.135 19.1323 41.6816 18.2124C42.7581 16.4061 43.278 13.1647 42.3215 11.5223C41.005 9.23424 38.2854 9.23424 36.6556 12.1545L36.8456 11.9504ZM38.8987 29.5355C38.8753 21.0223 32.5029 14.4091 24.2907 14.3756C17.5683 14.3489 11.2925 21.7582 11.4458 29.5757C11.5925 37.9016 17.4983 43.9194 25.5572 43.9595C33.1928 43.983 38.942 37.7678 38.9153 29.5355H38.8987Z" fill="#EFCAB6"/>
<path d="M38.9154 29.5354C38.942 37.7676 33.1928 43.9828 25.5839 43.9527C17.525 43.9192 11.6192 37.9014 11.4725 29.5688C11.3325 21.7514 17.595 14.342 24.3174 14.3688C32.5196 14.4156 38.892 21.0222 38.9154 29.5354ZM25.7472 42.2802C32.0396 42.2802 37.3756 36.4497 37.3922 29.522C37.3922 22.3368 31.3931 16.2186 24.3507 16.2788C18.0416 16.3357 13.019 22.1996 13.1323 29.3548C13.2556 36.724 18.6748 42.2634 25.7472 42.2802Z" fill="black"/>
<path d="M36.6722 12.1243C38.2886 9.20408 41.0049 9.20408 42.3381 11.4921C43.2946 13.1479 42.7747 16.3893 41.6982 18.1823C41.1516 19.1022 37.2588 19.2494 36.0556 18.2759C33.7226 16.396 34.2725 13.7735 36.8622 11.9203C36.6489 12.6629 36.0756 13.5426 36.2956 14.1213C36.8088 15.4795 37.7021 16.6937 38.4453 17.9648C39.7218 16.8777 42.0548 15.824 42.0881 14.7C42.2048 10.6358 39.0752 11.8601 36.6722 12.1243Z" fill="black"/>
<path d="M25.7475 42.2802C18.6618 42.2634 13.2559 36.724 13.1326 29.3548C13.0093 22.1996 18.0419 16.3357 24.341 16.2788C31.3734 16.2186 37.3959 22.3368 37.3825 29.522C37.3759 36.4497 32.04 42.2935 25.7475 42.2802ZM34.7796 28.9868C34.8029 23.9424 31.35 20.1123 26.694 20.0253C22.1413 19.9383 17.0787 25.2403 16.9654 30.2077C16.8487 35.2923 21.2981 39.9787 26.2508 39.9587C30.9568 39.9419 34.7496 35.0615 34.7796 28.9868Z" fill="#A06A80"/>
<path d="M36.6728 12.1243C39.0624 11.86 42.192 10.6357 42.0753 14.7301C42.042 15.854 39.709 16.9077 38.4325 17.9949C37.6893 16.7238 36.7961 15.5095 36.2828 14.1514C36.0628 13.5727 36.6361 12.6929 36.8494 11.9503L36.6728 12.1243Z" fill="#E88D4F"/>
<path d="M34.7793 28.9868C34.7493 35.0615 30.9565 39.942 26.2505 39.9587C21.3145 39.9788 16.8485 35.2756 16.9651 30.2078C17.0784 25.2403 22.1411 19.9384 26.6938 20.0253C31.3398 20.1023 34.8026 23.9424 34.7793 28.9868ZM33.1662 29.1942C33.1395 24.8122 30.8099 22.1093 27.0571 22.1127C22.4177 22.1127 18.7515 25.6752 18.6782 30.2546C18.6116 34.4527 22.1944 38.1691 26.1772 38.0286C30.16 37.8881 33.1962 34.0914 33.1662 29.1942Z" fill="black"/>
<path d="M33.1664 29.1943C33.1964 34.0915 30.1901 37.8915 26.1674 38.0286C22.1446 38.1658 18.6017 34.4527 18.6684 30.2547C18.7417 25.6753 22.4079 22.1161 27.0472 22.1127C30.81 22.1094 33.1397 24.8122 33.1664 29.1943Z" fill="#E88D4F"/>
</svg>
