<?xml version="1.0" encoding="utf-8"?>
<!-- Generator: Adobe Illustrator 25.0.0, SVG Export Plug-In . SVG Version: 6.00 Build 0)  -->
<svg version="1.1" id="Capa_1" xmlns="http://www.w3.org/2000/svg" xmlns:xlink="http://www.w3.org/1999/xlink" x="0px" y="0px"
	 viewBox="0 0 16 16" style="enable-background:new 0 0 16 16;" xml:space="preserve">
<style type="text/css">
	.st0{fill:#FFFFFF;}
</style>
<path class="st0" d="M4.8,3.6c0.1-0.1,0.3-0.2,0.5-0.2h5.5c0.2,0,0.4,0.1,0.5,0.2l1.7,1.9C13,5.7,13.1,6,13.1,6.2v0.2
	c0,0.8-0.7,1.5-1.5,1.5c-0.5,0-0.9-0.2-1.2-0.6c-0.3,0.4-0.7,0.6-1.2,0.6C8.7,7.9,8.3,7.7,8,7.3C7.7,7.7,7.3,7.9,6.8,7.9
	c-0.5,0-0.9-0.2-1.2-0.6C5.1,8,4.1,8.1,3.5,7.6C3.1,7.3,2.9,6.8,2.9,6.4V6.2C2.9,6,3,5.7,3.1,5.6L4.8,3.6L4.8,3.6z M5.9,6.4
	c0,0.5,0.4,0.9,0.9,0.9s0.9-0.4,0.9-0.9C7.7,6.2,7.8,6,8,6s0.3,0.1,0.3,0.3c0,0.5,0.4,0.9,0.9,0.9s0.9-0.4,0.9-0.9
	c0-0.2,0.1-0.3,0.3-0.3c0.2,0,0.3,0.1,0.3,0.3c0,0.5,0.4,0.9,0.9,0.9c0.5,0,0.9-0.4,0.9-0.9V6.2c0-0.1,0-0.2-0.1-0.2L10.7,4H5.3
	L3.6,6c0,0.1-0.1,0.1-0.1,0.2v0.2c0,0.5,0.4,0.9,0.9,0.9s0.9-0.4,0.9-0.9C5.3,6.2,5.4,6,5.6,6C5.8,6,5.9,6.2,5.9,6.4z M3.8,8.2
	c0.2,0,0.3,0.1,0.3,0.3v3.8h7.7V8.5c0-0.2,0.1-0.3,0.3-0.3s0.3,0.1,0.3,0.3v3.8h0.3c0.2,0,0.3,0.1,0.3,0.3S13,13,12.8,13H3.2
	c-0.2,0-0.3-0.1-0.3-0.3s0.1-0.3,0.3-0.3h0.3V8.5C3.5,8.3,3.7,8.2,3.8,8.2z M5.1,8.5c0.2,0,0.3,0.1,0.3,0.3v2.2h5.1V8.8
	c0-0.2,0.1-0.3,0.3-0.3s0.3,0.1,0.3,0.3v2.2c0,0.4-0.3,0.6-0.6,0.6H5.4c-0.4,0-0.6-0.3-0.6-0.6V8.8C4.8,8.7,4.9,8.5,5.1,8.5z"/>
</svg>
