<?xml version="1.0" encoding="utf-8"?>
<!-- Generator: Adobe Illustrator 25.0.0, SVG Export Plug-In . SVG Version: 6.00 Build 0)  -->
<svg version="1.1" id="Capa_1" xmlns="http://www.w3.org/2000/svg" xmlns:xlink="http://www.w3.org/1999/xlink" x="0px" y="0px"
	 viewBox="0 0 16 16" style="enable-background:new 0 0 16 16;" xml:space="preserve">
<style type="text/css">
	.st0{fill:#FFFFFF;}
</style>
<path class="st0" d="M11.8,4.1c-1-1-2.4-1.6-3.8-1.6C5,2.5,2.7,4.9,2.7,7.8c0,0.9,0.2,1.9,0.7,2.7l-0.8,2.8l2.8-0.7
	c0.8,0.4,1.7,0.6,2.5,0.6h0c2.9,0,5.3-2.4,5.3-5.3C13.3,6.4,12.8,5.1,11.8,4.1L11.8,4.1z M8,12.3c-0.8,0-1.6-0.2-2.3-0.6l-0.2-0.1
	L3.9,12l0.4-1.6l-0.1-0.2C3.8,9.5,3.6,8.7,3.6,7.8c0-2.4,2-4.4,4.4-4.4c1.2,0,2.3,0.5,3.1,1.3c0.8,0.8,1.3,2,1.3,3.1
	C12.4,10.3,10.4,12.3,8,12.3z M10.4,9c-0.1-0.1-0.8-0.4-0.9-0.4c-0.1,0-0.2-0.1-0.3,0.1C9.1,8.7,8.9,9,8.8,9.1
	c-0.1,0.1-0.2,0.1-0.3,0C8.4,9.1,7.9,8.9,7.4,8.5C7,8.1,6.8,7.7,6.7,7.6c-0.1-0.1,0-0.2,0.1-0.3C6.8,7.2,6.9,7.1,6.9,7
	C7,7,7,6.9,7.1,6.8c0-0.1,0-0.2,0-0.2c0-0.1-0.3-0.7-0.4-1C6.5,5.3,6.4,5.4,6.4,5.4c-0.1,0-0.2,0-0.3,0C6,5.4,5.8,5.4,5.7,5.5
	C5.6,5.7,5.3,6,5.3,6.7S5.8,7.9,5.8,8c0.1,0.1,0.9,1.4,2.3,2c0.3,0.1,0.6,0.2,0.8,0.3c0.3,0.1,0.6,0.1,0.8,0.1
	c0.3,0,0.8-0.3,0.9-0.6c0.1-0.3,0.1-0.6,0.1-0.6C10.6,9,10.5,9,10.4,9z"/>
</svg>
