<svg width="55" height="53" viewBox="0 0 55 53" fill="none" xmlns="http://www.w3.org/2000/svg">
<path d="M0.907227 52.9059C2.09204 48.1312 3.20992 44.7409 3.70526 41.2598C4.03995 38.8574 4.41816 35.7359 3.24339 33.9584C-4.28721 22.5677 4.21065 3.40178 19.0878 1.45629C24.4127 0.760755 30.0121 0.401227 35.2635 1.25469C49.1968 3.5261 57.3131 15.9954 54.0699 29.849C50.0134 47.1937 35.9529 59.6227 16.2496 49.0015C14.5058 48.0606 11.758 48.3294 9.67953 48.8435C7.20615 49.4551 4.96036 50.9604 0.907227 52.9059ZM4.63571 48.185C10.6602 45.2886 15.2455 46.6696 20.8851 48.7595C36.6993 54.6262 46.8941 48.2387 51.7103 29.5466C54.8062 17.5276 48.5106 7.03403 37.362 3.80835C29.4666 1.52013 21.6314 2.12831 14.1142 5.31367C5.50926 8.94592 0.00690237 19.3118 3.14298 27.7254C5.64313 34.4086 8.38427 40.6349 4.63571 48.185Z" fill="black"/>
<path d="M4.63544 48.1852C8.38401 40.6418 5.63952 34.4088 3.14271 27.7256C0.00663924 19.3254 5.50899 8.94614 14.114 5.31389C21.6412 2.15205 29.4663 1.51364 37.3617 3.80185C48.5104 7.03425 54.8059 17.5211 51.71 29.5401C46.8938 48.2322 36.699 54.6197 20.8848 48.753C15.2385 46.6631 10.6599 45.2821 4.63544 48.1852ZM8.67854 43.4811C14.703 39.7514 17.7153 43.8608 21.4839 45.9306C27.3946 49.1697 33.496 49.1932 39.3364 45.4971C46.7365 40.83 50.5286 31.5965 48.8384 22.6486C47.1482 13.7007 40.7087 7.19218 31.9062 5.33069C23.4854 3.54313 15.4828 4.12106 9.81649 11.2982C5.16091 17.1918 5.19438 24.3723 7.96899 31.1227C9.52866 34.9095 13.0597 38.0814 8.67854 43.4811Z" fill="#4A824A"/>
<path d="M8.6784 43.4811C13.0595 38.105 9.52852 34.9162 7.96216 31.1059C5.18755 24.3656 5.15408 17.1851 9.80966 11.2814C15.476 4.10428 23.4785 3.52635 31.8994 5.31392C40.7018 7.18548 47.1413 13.6772 48.8315 22.6318C50.5217 31.5864 46.7297 40.8266 39.3296 45.4803C33.4959 49.1764 27.3944 49.1529 21.4838 45.9071C17.7084 43.8541 14.6895 39.7447 8.6784 43.4811ZM14.0335 39.7615C15.4961 40.5175 17.8758 41.4415 19.9007 42.8561C28.1944 48.6791 38.0778 47.0058 43.5066 38.4712C48.1688 31.1361 48.4701 23.4852 43.8647 15.999C38.8978 7.93478 30.9455 5.94897 22.3506 6.92675C9.0131 8.46567 3.56764 22.4839 11.6003 33.4143C12.8487 35.101 13.1901 37.4497 14.0435 39.7548L14.0335 39.7615Z" fill="black"/>
<path d="M14.0436 39.7547C13.1901 37.4497 12.8487 35.101 11.6104 33.4176C3.57774 22.4872 9.0232 8.46895 22.3607 6.93004C30.9556 5.94217 38.9079 7.9179 43.8748 16.0023C48.4802 23.4885 48.1789 31.1394 43.5167 38.4745C38.0879 47.0091 28.2045 48.6824 19.9108 42.8594C17.8859 41.4246 15.5062 40.5107 14.0436 39.7547ZM16.1589 21.3045C16.1053 30.9647 25.6374 40.8769 33.7102 40.1209C36.1333 39.8958 39.0652 37.6748 40.404 35.5176C41.4081 33.8981 41.0968 29.9466 39.815 28.8143C38.4762 27.6248 35.2564 28.6328 32.8667 28.532C31.0527 28.4547 28.181 28.7202 27.689 27.7995C26.9259 26.3849 27.2338 23.7674 28.084 22.2184C30.236 18.2871 28.4789 15.9183 25.4834 13.9291C22.3206 11.8324 19.7635 13.0185 18.1202 16.0829C17.0692 18.0855 16.5136 20.3435 16.1589 21.3045Z" fill="#54A047"/>
<path d="M16.1589 21.3045C16.5137 20.3334 17.0693 18.0754 18.1269 16.0896C19.7569 13.0252 22.3139 11.8391 25.4902 13.9358C28.4857 15.925 30.2428 18.3039 28.0907 22.2251C27.2406 23.7808 26.9327 26.3916 27.6958 27.8062C28.1911 28.7269 31.0427 28.4782 32.8735 28.5387C35.2632 28.6395 38.4696 27.6315 39.8217 28.821C41.1036 29.9533 41.4182 33.9048 40.4108 35.5243C39.072 37.6815 36.1468 39.8924 33.7169 40.1276C25.6374 40.887 16.1054 30.9748 16.1589 21.3045ZM38.6068 31.2133C36.8764 31.2133 35.1025 31.4889 33.4492 31.1529C30.7315 30.6018 27.6255 30.2792 25.5404 28.7134C22.9498 26.7679 24.0008 23.9623 25.4935 21.1667C26.1629 19.9134 24.7538 17.5412 24.2853 15.6763C22.4445 16.5634 20.53 17.3328 18.8097 18.4114C18.301 18.7273 18.2574 19.91 18.1403 20.7198C17.1362 27.8096 25.4132 37.8159 32.5723 38.2191C36.5083 38.4409 38.5097 36.361 38.6068 31.2234V31.2133Z" fill="black"/>
<path d="M38.607 31.2234C38.5099 36.361 36.5085 38.4476 32.5825 38.2292C25.4234 37.826 17.1532 27.8129 18.1506 20.7299C18.2644 19.9201 18.3079 18.7374 18.8199 18.4215C20.5403 17.3429 22.4547 16.5735 24.2955 15.6864C24.7641 17.5512 26.1732 19.9235 25.5038 21.1768C24.011 23.9724 22.9601 26.778 25.5506 28.7235C27.6358 30.2893 30.7417 30.6119 33.4594 31.1629C35.1028 31.4989 36.8766 31.2234 38.607 31.2234Z" fill="white"/>
</svg>
