<?xml version="1.0" encoding="utf-8"?>
<!-- Generator: Adobe Illustrator 25.0.0, SVG Export Plug-In . SVG Version: 6.00 Build 0)  -->
<svg version="1.1" id="Capa_1" xmlns="http://www.w3.org/2000/svg" xmlns:xlink="http://www.w3.org/1999/xlink" x="0px" y="0px"
	 viewBox="0 0 92 65" style="enable-background:new 0 0 92 65;" xml:space="preserve">
<style type="text/css">
	.st0{fill:#FFFFFF;}
	.st1{fill:#EFD6A8;}
	.st2{fill:#FFD265;}
	.st3{fill:#7C81BD;}
</style>
<rect class="st0" width="92" height="65"/>
<path d="M74.6,8.7c1.1-0.3,2.1-0.6,3.2-0.8c0.1-0.1,0.3-0.1,0.4-0.1c0.3,0,0.8-0.1,1,0.1c0.3,0.3,0,0.6-0.1,1
	c-0.1,0.2-0.2,0.5-0.3,0.8c0.8-0.1,1.4-0.2,2.1-0.3c0.8-0.2,1.6-0.4,2.4-0.6c1.2-0.3,1.3-0.2,1.5,1l2.4,0.2c0.1,0,0.2,0,0.4,0
	c0.8,0.1,1,0.4,0.8,1.2c-0.4,1.7-0.8,3.4-1.2,5.2c-0.7,3.5-0.9,7.1-1.1,10.6c-0.1,2.8-0.4,5.6-0.5,8.4c-0.1,1.8-0.1,3.6-0.1,5.5
	c0,2.8,0.1,5.6,0,8.3c0,2.4,0.2,4.7,0.6,7.1c0,0.2,0.1,0.4,0.4,0.4c0.1,0,0.2,0,0.3,0c0.1,0,0.2,0.1,0.2,0.1
	c0.1,0.1,0.1,0.1,0.1,0.2c0,0.1,0.1,0.2,0.1,0.2c0,0.7-0.1,1.5-0.2,2.2c0,0.1-0.1,0.2-0.2,0.3c-0.1,0.1-0.2,0.1-0.3,0.1
	c-1.2,0.2-2.4,0.3-3.7,0.4c-3.1,0.2-6.2,0.3-9.3,0.6c-4.8,0.5-9.6,1.1-14.4,1.6c-3.6,0.3-7.1,0.5-10.7,0.4c-0.5,0-1,0-1.5,0
	c-0.4,0-0.5-0.2-0.6-0.6c-0.1-0.6-0.2-1.3-0.3-2c-0.2-1.3-0.6-1.6-1.7-1.6c-1.4,0-2.8,0-4.3,0.1c-3.2,0.3-6.4,0.7-9.5,1
	c-2.3,0.2-4.6,0.5-6.9,0.7c-1.7,0.1-3.4,0.1-5.2,0.1c-1,0-2.1-0.1-3.1-0.1c-0.4,0-0.6-0.2-0.5-0.6c0-1.3,0-2.6,0-3.9
	c-0.1-2.1-0.1-4.1-0.2-6.2c-0.2-4.1-0.4-8.2-0.6-12.3c-0.3-5.7-0.5-11.5,0.1-17.2c0.4-3.6,0.7-7.1,1-10.7c0.1-1.2,0-2.4,0-3.6
	C15.1,5.2,16,4,17,4c1.5,0.1,3.1,0,4.6,0.1c6.5,0.2,12.6,1.8,18.7,3.8c2.3,0.8,4.7,1.5,7,2.3c0.9,0.3,1.7,0.8,2.5,1.2
	c0.3,0.1,0.5,0.2,0.7-0.1c3.9-3.8,8.6-5.9,13.8-7.2c3-0.8,6-1.3,9.1-1.9c0.9-0.1,1.9-0.2,2.8-0.2c0.6,0,0.7,0.1,0.8,0.7
	c0,0.5-0.1,0.9-0.3,1.3c-0.7,1.3-1.4,2.7-2,4.1C74.7,8.4,74.7,8.5,74.6,8.7z M46.7,55.8c0-0.5-0.1-0.8-0.1-1.2
	c-0.1-0.6-0.1-1.3-0.1-1.9c0.2-2.7,0.3-5.4,0.5-8.1c0.4-4.9,0.8-9.7,1-14.6c0.2-3.5,0.4-6.9,1-10.4c0.3-2,0.6-3.9,0.9-5.9
	c0-0.2,0-0.4,0-0.5c-0.1-0.2-0.2-0.3-0.3-0.4c-0.8-0.5-1.6-0.9-2.4-1.3c-1.3-0.4-2.6-0.6-3.9-1c-3.8-1-7.6-1.7-11.5-2.3
	c-3.8-0.5-7.6-1-11.4-1.5c-0.8-0.1-1.6-0.2-2.5-0.4c0,0.2,0,0.4,0,0.5c0.1,1.3,0.2,2.5,0.2,3.7c0,4.1-0.1,8.3-0.1,12.4
	c0.1,5,0.1,10.1,0.4,15.1c0.4,6,0,12.1-0.4,18.1c0,0.6,0,1.1,0.1,1.7c0.8-0.1,1.6-0.2,2.3-0.3c2.5-0.3,4.9-0.5,7.4-0.8
	c1.2-0.1,2.4-0.3,3.6-0.4c1.7-0.2,3.4-0.4,5.1-0.5c1.4-0.1,2.8-0.2,4.2-0.1c1.5,0.1,3,0.4,4.5,0.6c0.1,0,0.3,0,0.4,0
	c0.1-0.1,0.2-0.2,0.3-0.3C46.1,55.7,46.2,55.5,46.7,55.8z M76.1,3.2c-0.1,0-0.3,0-0.4,0C73.8,3.5,72,3.6,70.2,4
	c-3.8,0.7-7.5,1.6-11,3.1c-2.8,1.1-5.4,2.7-7.6,4.7c-0.3,0.2-0.5,0.6-0.6,0.9c-0.2,0.7-0.2,1.5-0.3,2.3c-0.2,1.8-0.4,3.5-0.7,5.3
	c-0.6,3.6-0.8,7.3-0.9,11c-0.2,3.8-0.5,7.6-0.8,11.5c-0.2,3.3-0.5,6.6-0.7,9.9c-0.1,1,0.1,2,0.2,3l0.2,0.1
	c6.2-7.1,14.4-11.3,22.8-15.3c-0.1-0.2-0.1-0.4-0.2-0.6c-1.6-4.4-1.8-9-1-13.6c0.6-3.6,1.4-7.2,2-10.9c0.5-3.2,1.5-6.3,2.9-9.2
	C75,5.3,75.6,4.3,76.1,3.2z M83.4,9.8c-0.1,0-0.2,0-0.3,0c-1.2,0.2-2.3,0.5-3.5,0.6c-1,0.1-1.4,0.4-1.7,1.4c-0.9,2.9-1.6,5.9-1.7,9
	c-0.1,3.8-0.2,7.6-0.2,11.4c0,1.7,0,3.4,0.2,5.1c0.2,1.9,0.6,3.9,1.3,5.7c0.3,0.7,0.2,0.9-0.5,1.2c-0.5,0.2-1,0.4-1.5,0.6
	c-4,1.7-8,3.3-11.9,5c-4.2,1.8-8.5,3.6-12.2,6.3L51,56.5c0.4,0,0.7,0,1.1-0.1l17-3.7l10.1-2.2c0.3-0.1,0.6-0.1,0.5-0.6
	c-0.2-3.6-0.5-7.3-0.6-11c-0.1-3.6,0.3-7.1,0.7-10.6c0.5-4.8,1.3-9.6,2.5-14.2C82.7,12.7,83.1,11.3,83.4,9.8z M48.6,56.5l0.1,0.1
	c0.6-0.4,1.3-0.8,1.9-1.2c1.5-0.9,2.8-2,4.4-2.8c2.8-1.4,5.7-2.8,8.7-4c4.1-1.7,8.2-3.4,12.3-5c0.4-0.2,0.5-0.3,0.3-0.8
	c-0.8-2.1-1.2-4.4-1.3-6.6c0-4-0.1-7.9,0-11.9c0-2.1,0.2-4.1,0.4-6.2c0.3-3,1.3-5.9,2.3-8.8c0-0.1,0.1-0.3,0.1-0.5
	c-1.2,0.3-2.3,0.6-3.4,0.9c-0.1,0-0.2,0.1-0.2,0.2c-0.1,0.1-0.1,0.2-0.1,0.3c-0.3,0.7-0.5,1.4-0.6,2.1c-0.6,3.1-1.2,6.1-1.7,9.2
	c-0.4,2.9-0.7,5.8-0.9,8.7c-0.2,2.7,0.1,5.5,0.5,8.1c0.1,0.7,0.5,1.4,0.7,2.1c0,0.1,0.1,0.2,0.1,0.3c0,0.1,0,0.2,0,0.3
	c0,0.1-0.1,0.2-0.2,0.2c-0.1,0.1-0.1,0.1-0.2,0.1c-2.3,1.1-4.6,2.1-6.9,3.3c-5.3,2.7-10.3,5.9-14.5,10.1L48.6,56.5z M16.9,5.1
	c-0.1,0.1-0.3,0.1-0.3,0.3c-0.2,0.6-0.3,1.3-0.4,1.9c-0.1,2-0.1,3.9-0.3,5.9c-0.5,5.4-1.3,10.8-1.1,16.2c0.1,2.5,0.1,5,0.2,7.5
	c0.1,2.2,0.3,4.4,0.4,6.6c0.1,3.4,0.2,6.7,0.2,10.1c0.1,1.9,0.1,3.8,0.2,5.8c0,0.3,0.1,0.4,0.4,0.4c1.4,0,2.8,0.2,4.2,0.1
	c1.8-0.1,3.6-0.2,5.5-0.4c3.5-0.4,7.1-0.8,10.6-1.2c2.3-0.2,4.5-0.4,6.8-0.5c0.8,0,1.5,0.2,2.3,0.3l0.1-0.1
	c-0.2-0.1-0.3-0.2-0.5-0.2c-1.3-0.2-2.6-0.3-3.9-0.5c-1.5-0.2-3-0.3-4.5-0.1c-3.4,0.4-6.8,0.8-10.2,1.2c-2.8,0.3-5.5,0.7-8.3,1
	c-1,0.1-1.2,0-1.2-1c0-2.1,0.1-4.1,0.2-6.2c0.1-2,0.3-4,0.3-6.1c-0.1-4.7-0.3-9.4-0.4-14.1c-0.1-7-0.4-14.1-0.1-21.1
	c0.1-1.4-0.1-2.7-0.2-4.1C16.8,6.1,16.8,5.6,16.9,5.1z M86,10.8c-0.4,0-0.7,0-1-0.1c-0.5-0.1-0.7,0.1-0.8,0.6
	c-0.4,1.6-0.8,3.2-1.2,4.8C81.1,24.5,80,33,80.2,41.7c0.1,2.8,0.4,5.7,0.6,8.5c0.1,0.8,0,1.1-0.8,1.3c-1.6,0.4-3.1,0.8-4.7,1.1
	c-6.2,1.4-12.5,2.7-18.8,4c-2.4,0.5-4.7,1.2-7.2,1.2c-0.1,0-0.3,0.1-0.4,0.2l0.1,0.2c5.9-0.8,11.7-2.2,17.6-3
	c5.9-0.9,11.8-1.8,17.8-2.8c0-0.3-0.1-0.6-0.2-1c-0.2-0.5-0.5-1-0.6-1.5c-0.8-4-1.7-7.9-1.7-12c0-2.9,0-5.9,0.2-8.8
	c0.1-1.8,0.5-3.6,0.8-5.3c0.4-3,0.9-6,1.8-8.9C85.1,13.5,85.5,12.2,86,10.8z M49.1,60.5c0.1,0,0.2,0,0.3,0c2.1-0.3,4.2-0.6,6.2-0.9
	c3.7-0.6,7.4-1,11.2-1.1c3.3,0,6.5-0.3,9.7-0.9c2.7-0.5,5.4-1.1,8.1-1c0.1,0,0.2,0,0.2-0.1c-0.2-1.1-0.3-2.1-0.5-3.1
	c-1,0.2-2,0.3-3,0.5c-2.9,0.4-5.7,0.9-8.6,1.3c-3.9,0.6-7.8,1.3-11.7,1.9c-3.7,0.6-7.5,1.3-11.2,1.9c-1,0.2-1,0.1-0.9,1.2
	C49.1,60.3,49.1,60.4,49.1,60.5L49.1,60.5z M87.2,11L87,10.9c-0.1,0.1-0.1,0.3-0.2,0.4c-0.9,3.3-2,6.6-2.5,10
	c-0.3,2.5-0.9,4.9-1.1,7.3c-0.6,5.3-0.4,10.7,0.5,15.9c0.1,0.8,0.3,1.5,0.4,2.3h0.1c0-0.6,0-1.3,0-1.9c0-2.9,0-5.8,0.1-8.7
	c0.2-4.6,0.5-9.3,0.9-13.9c0.3-3.7,0.9-7.4,1.9-11C87.1,11.3,87.2,11.1,87.2,11z M86.1,57.7c-1.5-0.2-4.6,0-6.6,0.4
	c-3.9,0.8-7.9,1.3-11.9,1.4c-2.5,0.1-5.1,0.2-7.6,0.5c-3.5,0.4-6.9,1-10.4,1.5c-0.1,0-0.3,0.1-0.4,0.2l0,0.2c0.2,0,0.3,0,0.5,0
	c0.5,0,0.9-0.1,1.4-0.1c4.1-0.1,8.3-0.4,12.3-1c5.3-0.7,10.6-1.3,16-1.5c2-0.1,4-0.3,6-0.4c0.1,0,0.2,0,0.3-0.1
	c0.1,0,0.2-0.1,0.2-0.2C86.1,58.4,86.1,58,86.1,57.7z M17.9,5.1l0,0.2l18.9,2.6C30.6,6.1,24.3,5,17.9,5.1z M47.7,57.3
	c-1-0.3-1.1-0.2-1,0.7c0.1,1,0.2,2,0.4,3c0.1,0.7,0.2,0.8,1,0.7L47.7,57.3z"/>
<path class="st1" d="M46.7,55.8c-0.5-0.3-0.6-0.1-0.8,0.2c-0.1,0.1-0.2,0.2-0.3,0.3c-0.1,0.1-0.3,0.1-0.4,0c-1.5-0.2-3-0.5-4.5-0.6
	c-1.4-0.1-2.8,0-4.2,0.1c-1.7,0.1-3.4,0.4-5.1,0.5c-1.2,0.1-2.4,0.3-3.6,0.4c-2.5,0.3-4.9,0.5-7.4,0.8c-0.7,0.1-1.4,0.2-2.3,0.3
	C18,57.4,18,56.8,18,56.3c0.4-6,0.8-12,0.4-18.1c-0.3-5-0.4-10-0.4-15.1C17.9,19,18,14.8,18,10.7c0-1.3-0.1-2.5-0.2-3.7
	c0-0.2,0-0.3,0-0.5c0.9,0.1,1.7,0.3,2.5,0.4c3.8,0.5,7.6,1,11.4,1.5c3.9,0.5,7.7,1.3,11.5,2.3c1.3,0.3,2.7,0.6,3.9,1
	c0.8,0.3,1.7,0.8,2.4,1.3c0.2,0.1,0.3,0.3,0.3,0.4c0.1,0.2,0.1,0.4,0,0.5c-0.3,2-0.6,3.9-0.9,5.9c-0.5,3.4-0.8,6.9-1,10.4
	c-0.2,4.9-0.7,9.7-1,14.6c-0.2,2.7-0.4,5.4-0.5,8.1c0,0.6,0,1.3,0.1,1.9C46.6,55,46.7,55.3,46.7,55.8z M41.5,18.4l0.4-0.3
	c-0.2-0.1-0.3-0.3-0.5-0.4c-0.1,0-0.1,0-0.2,0c-5.4-0.9-10.8-1.8-16.2-2.7c-0.6-0.1-1.1-0.2-1.7-0.2c-0.1,0-0.2,0.1-0.3,0.2
	c0.1,0.1,0.2,0.2,0.3,0.3c0.1,0,0.2,0.1,0.3,0.1c4.2,0.7,8.5,1.5,12.8,2.2C38,17.8,39.6,18.1,41.5,18.4z M36.2,45.7
	c1.6,0,3.5,0,5.4,0c0.2,0,0.4-0.1,0.5-0.2c-0.2-0.1-0.3-0.3-0.5-0.3C40.8,45.1,40,45,39.2,45c-3,0.1-6,0.2-9,0.5
	c-2.1,0.1-4.2,0.4-6.3,0.7c-0.3,0.1-0.7,0.2-1,0.3c-0.1,0-0.1,0.3-0.1,0.4C22.8,47,23,47,23.1,47c0.9-0.2,1.9-0.5,2.9-0.5
	C29.3,46.2,32.6,46,36.2,45.7z M43,36l0.1-0.1c-0.1-0.1-0.2-0.3-0.4-0.4c-0.2-0.1-0.3-0.1-0.5-0.1c-5.7-0.4-11.4-0.3-17.1-0.1
	c-0.5,0-0.9,0.1-1.4,0.2c-0.1,0-0.2,0.2-0.3,0.3c0.1,0.1,0.2,0.2,0.3,0.2c0.3,0,0.7,0,1,0c5.3-0.2,10.6-0.2,15.9,0
	C41.6,36,42.3,36,43,36z M42.7,25c-0.1,0-0.2,0-0.2,0c-5-0.2-10-0.4-15-0.5c-1.2,0-2.4,0-3.6,0c-0.2,0-0.4,0.1-0.6,0.3l0.1,0.2
	c0.3,0,0.7,0.1,1,0.1c5.5,0.2,11,0.4,16.4,0.6c0.5,0,1,0,1.6,0C42.6,25.5,42.8,25.4,42.7,25z M25.1,19.6L25.1,19.6
	c-0.7,0.1-1.5,0.1-2.2,0.1c-0.1,0-0.3,0.1-0.4,0.2c0.1,0.1,0.3,0.2,0.4,0.3c0.1,0,0.1,0,0.2,0c1.5,0.1,2.9,0.2,4.4,0.3
	c4.1,0.4,8.1,0.8,12.2,1.2c0.4,0,0.9,0.1,1.3,0.1c0.1,0,0.2-0.1,0.3-0.2c-0.1-0.1-0.1-0.2-0.2-0.3c-0.3-0.1-0.6-0.2-0.8-0.2
	C35.2,20.6,30.1,20.1,25.1,19.6z M35.8,39.6c-3.9,0.2-6.9,0.4-9.9,0.6c-0.7,0-1.4,0.1-2.1,0.2c-0.2,0-0.4,0.2-0.6,0.3
	c0.2,0.1,0.4,0.1,0.6,0.2c0.1,0,0.2,0,0.3,0c1.6-0.1,3.2-0.3,4.8-0.3c4-0.2,7.9-0.3,11.9-0.5c0.3,0,0.6,0,1,0c0.1,0,0.2-0.1,0.3-0.2
	c0-0.1-0.1-0.2-0.2-0.2c-0.2-0.1-0.5-0.1-0.8-0.1C39,39.6,36.9,39.6,35.8,39.6z M23.1,51.8c0.1,0,0.2,0,0.2,0
	c0.7-0.1,1.4-0.3,2.1-0.4c3.8-0.5,7.7-0.7,11.5-0.3c0.9,0.1,1.8,0.1,2.6,0.2c0.2,0,0.3-0.1,0.5-0.2c-0.1-0.1-0.2-0.3-0.4-0.3
	c-0.5-0.1-1.1-0.2-1.6-0.3c-3.4-0.4-6.8-0.4-10.2,0c-1.4,0.2-2.7,0.4-4.1,0.6C23.4,51.2,23.1,51.3,23.1,51.8z M32.7,30.5
	c0.9,0,1.8,0,2.7,0c1.6,0.1,3.3,0.1,4.9,0.2c0.2,0,0.3-0.1,0.5-0.2c-0.1-0.1-0.3-0.3-0.4-0.3c-0.6-0.1-1.3-0.2-1.9-0.2
	c-4.2,0-8.5-0.1-12.7-0.1c-0.5,0-0.9,0-1.4,0.1c-0.2,0-0.3,0.2-0.4,0.3c0.2,0.1,0.3,0.2,0.5,0.2c0.5,0,1-0.1,1.5-0.1
	C28.1,30.5,30.4,30.5,32.7,30.5z"/>
<path class="st2" d="M76.1,3.2c-0.5,1.1-1.1,2-1.6,3c-1.4,2.9-2.4,6-2.9,9.2c-0.6,3.6-1.4,7.2-2,10.9c-0.8,4.6-0.6,9.1,1,13.6
	c0.1,0.2,0.1,0.4,0.2,0.6c-8.4,4-16.6,8.2-22.8,15.3l-0.2-0.1c-0.1-1-0.2-2-0.2-3c0.2-3.3,0.5-6.6,0.7-9.9c0.3-3.8,0.6-7.6,0.8-11.5
	c0.2-3.7,0.3-7.3,0.9-11c0.3-1.7,0.4-3.5,0.7-5.3c0.1-0.8,0.1-1.5,0.3-2.3c0.1-0.4,0.3-0.7,0.6-0.9c2.3-2,4.9-3.6,7.6-4.7
	c3.5-1.5,7.2-2.4,11-3.1c1.8-0.3,3.6-0.5,5.4-0.7C75.8,3.2,75.9,3.2,76.1,3.2z M66.4,36.8L66.4,36.8c-0.8,0.1-1.5,0.2-2.2,0.4
	c-1.9,0.8-3.8,1.5-5.6,2.5c-2.1,1.1-4.1,2.4-6.2,3.6c-0.3,0.2-0.6,0.5-0.8,0.7c-0.1,0.1-0.1,0.3-0.1,0.4c0.1,0,0.3,0,0.4-0.1
	c0.3-0.2,0.6-0.5,0.9-0.7c4.3-2.7,8.6-5.4,13.8-6.4c0.2-0.1,0.3-0.2,0.5-0.3c-0.2-0.1-0.3-0.2-0.5-0.3
	C66.5,36.7,66.5,36.8,66.4,36.8z M67.5,14.7c-0.3,0-0.5,0-0.7,0.1c-2.7,0.6-5.3,1.1-8,1.8c-2.3,0.6-4.4,1.5-6.4,2.7
	c-0.2,0.1-0.6,0.3-0.4,0.7c0,0.1,0.5,0,0.8-0.2c0.8-0.4,1.6-0.9,2.5-1.3c2.5-1,5.2-1.8,7.9-2.3c1.4-0.3,2.9-0.5,4.3-0.8
	c0.2-0.1,0.4-0.2,0.6-0.4L67.5,14.7z M51.7,26.5l0.2,0.2c0.2-0.1,0.5-0.2,0.7-0.3c1.3-0.6,2.6-1.3,4-1.7c3-0.8,6.1-1.5,9.1-2.3
	c0.2,0,0.4-0.1,0.5-0.2c0,0,0.1-0.1,0.1-0.1c0,0,0-0.1,0-0.2c0-0.1-0.1-0.1-0.1-0.1c0,0-0.1-0.1-0.1-0.1c-0.1,0-0.3,0-0.4,0
	c-2.8,0.7-5.7,1.3-8.5,2c-1.8,0.5-3.4,1.2-5,2.1C52,26.1,51.9,26.3,51.7,26.5L51.7,26.5z M64.6,28.4c-0.9,0.3-1.7,0.4-2.6,0.7
	c-3,1.1-5.8,2.5-8.6,4.1c-0.7,0.4-1.3,0.8-2,1.2c-0.1,0.1-0.2,0.3-0.2,0.4c0.2,0,0.4,0,0.5,0c0.2-0.1,0.4-0.2,0.5-0.3
	c2.4-1.5,4.9-2.8,7.5-3.9c1.5-0.6,3.1-1.1,4.7-1.7c0.2-0.1,0.3-0.3,0.5-0.4L64.6,28.4z M65.1,25.2c-0.2,0-0.3,0-0.5,0.1
	c-3.9,0.9-7.7,2.2-11.3,3.8c-0.4,0.2-0.9,0.5-1.3,0.8c-0.1,0.1-0.1,0.3-0.2,0.5c0.2,0,0.3,0,0.5,0c0.3-0.1,0.6-0.3,0.8-0.5
	c2.4-1.3,5-2.1,7.7-2.9c1.4-0.4,2.7-0.8,4.1-1.2c0.1,0,0.2-0.2,0.4-0.3L65.1,25.2z M65.7,18.3c-0.2-0.1-0.2-0.2-0.3-0.2
	c-0.2,0-0.4,0-0.6,0c-1.7,0.4-3.3,0.9-5,1.4c-1.9,0.6-3.8,1.3-5.7,2.1c-0.6,0.3-1.3,0.6-1.9,1c-0.1,0.1-0.1,0.3-0.2,0.4
	c0.1,0,0.3,0.1,0.4,0.1c0.1,0,0.2-0.1,0.3-0.1c3-1.7,6.3-2.6,9.6-3.5c1-0.3,2-0.5,2.9-0.8C65.4,18.5,65.6,18.4,65.7,18.3z
	 M64.5,33.7l-0.1-0.2c-0.2,0-0.4,0-0.6,0c-3.7,0.9-7.4,2.2-10.7,4.1c-0.4,0.3-0.8,0.5-1.2,0.9c-0.1,0.1-0.1,0.3-0.1,0.5
	c0.2,0,0.3,0,0.5-0.1c0.6-0.4,1.2-0.8,1.9-1.1c2.2-1.1,4.6-2.1,7-2.8c0.9-0.3,1.9-0.5,2.8-0.8C64.2,33.9,64.4,33.8,64.5,33.7z
	 M64.5,9.3c-0.1,0-0.2,0-0.2,0c-2.3,0.5-4.6,1.3-6.7,2.2c-0.2,0.1-0.3,0.2-0.4,0.3C57,11.9,57,12,56.9,12.1c0.1,0,0.2,0.1,0.3,0.1
	c0.1,0,0.3-0.1,0.4-0.1c1.2-0.4,2.3-0.8,3.5-1.2c1.1-0.3,2.2-0.6,3.3-1c0.1,0,0.2-0.2,0.3-0.3L64.5,9.3z"/>
<path class="st1" d="M83.4,9.8c-0.4,1.4-0.7,2.9-1.1,4.3c-1.2,4.7-2.1,9.4-2.5,14.2c-0.4,3.5-0.8,7.1-0.7,10.6
	c0.1,3.7,0.4,7.3,0.6,11c0,0.5-0.2,0.5-0.5,0.6l-10.1,2.2l-17,3.7c-0.4,0.1-0.7,0.1-1.1,0.1l0.4-0.3c3.7-2.8,8-4.5,12.2-6.3
	c4-1.7,8-3.3,11.9-5c0.5-0.2,1-0.4,1.5-0.6c0.7-0.3,0.8-0.5,0.5-1.2c-0.7-1.8-1.2-3.7-1.3-5.7c-0.2-1.7-0.2-3.4-0.2-5.1
	c0-3.8,0.1-7.6,0.2-11.4c0.1-3.1,0.8-6,1.7-9c0.3-1,0.7-1.3,1.7-1.4c1.2-0.1,2.4-0.4,3.5-0.6C83.3,9.8,83.4,9.8,83.4,9.8z"/>
<path class="st1" d="M48.6,56.5l1.7-1.7c4.2-4.2,9.2-7.4,14.5-10.1c2.2-1.2,4.6-2.2,6.9-3.3c0.1,0,0.2-0.1,0.2-0.1
	c0.1-0.1,0.1-0.1,0.2-0.2s0.1-0.2,0-0.3c0-0.1,0-0.2-0.1-0.3c-0.3-0.7-0.6-1.4-0.7-2.1c-0.4-2.7-0.7-5.4-0.5-8.1
	c0.2-2.9,0.5-5.8,0.9-8.7c0.5-3.1,1.1-6.2,1.7-9.2c0.2-0.7,0.4-1.4,0.6-2.1c0-0.1,0.1-0.2,0.1-0.3c0.1-0.1,0.1-0.1,0.2-0.2
	c1.1-0.3,2.2-0.6,3.4-0.9c-0.1,0.2-0.1,0.4-0.1,0.5c-1,2.9-1.9,5.8-2.3,8.8c-0.2,2.1-0.3,4.1-0.4,6.2c-0.1,4,0,7.9,0,11.9
	c0.1,2.3,0.5,4.5,1.3,6.6c0.1,0.4,0.1,0.6-0.3,0.8c-4.1,1.7-8.2,3.3-12.3,5c-2.9,1.3-5.8,2.6-8.7,4c-1.5,0.8-2.9,1.8-4.4,2.8
	c-0.6,0.4-1.3,0.8-1.9,1.2L48.6,56.5z"/>
<path class="st3" d="M16.9,5.1c0,0.5-0.1,1-0.1,1.5c0,1.4,0.2,2.7,0.2,4.1c-0.3,7,0,14.1,0.1,21.1c0.1,4.7,0.3,9.4,0.4,14.1
	c0,2-0.2,4-0.3,6.1C17.1,54,17,56,17,58.1c0,1,0.2,1.1,1.2,1c2.8-0.4,5.5-0.7,8.3-1c3.4-0.4,6.8-0.8,10.2-1.2c1.5-0.2,3-0.2,4.5,0.1
	c1.3,0.2,2.6,0.3,3.9,0.5c0.2,0.1,0.3,0.1,0.5,0.2l-0.1,0.1c-0.8-0.1-1.5-0.3-2.3-0.3c-2.3,0.1-4.6,0.3-6.8,0.5
	c-3.5,0.4-7.1,0.8-10.6,1.2c-1.8,0.2-3.6,0.3-5.5,0.4c-1.4,0-2.8-0.1-4.2-0.1c-0.3,0-0.4-0.2-0.4-0.4c-0.1-1.9-0.1-3.8-0.2-5.8
	c-0.1-3.4-0.1-6.7-0.2-10.1c-0.1-2.2-0.3-4.4-0.4-6.6c-0.1-2.5-0.1-5-0.2-7.5c-0.2-5.4,0.5-10.8,1.1-16.2c0.2-1.9,0.2-3.9,0.3-5.9
	c0.1-0.7,0.2-1.3,0.4-1.9C16.6,5.2,16.8,5.2,16.9,5.1z"/>
<path class="st1" d="M86,10.8c-0.4,1.4-0.8,2.7-1.3,4c-0.9,2.9-1.4,5.9-1.8,8.9c-0.3,1.8-0.7,3.6-0.8,5.3c-0.2,2.9-0.2,5.9-0.2,8.8
	c0,4.1,0.9,8,1.7,12c0.1,0.5,0.4,1,0.6,1.5c0.1,0.3,0.2,0.6,0.2,1c-6,0.9-11.9,1.9-17.8,2.8c-5.9,0.9-11.7,2.2-17.6,3l-0.1-0.2
	c0.1-0.1,0.3-0.2,0.4-0.2c2.5,0,4.8-0.7,7.2-1.2c6.3-1.3,12.5-2.7,18.8-4c1.6-0.3,3.1-0.7,4.7-1.1c0.8-0.2,0.9-0.4,0.8-1.3
	c-0.2-2.8-0.5-5.7-0.6-8.5C80,33,81.1,24.5,83,16.1c0.4-1.6,0.8-3.2,1.2-4.8c0.1-0.5,0.3-0.7,0.8-0.6C85.3,10.8,85.6,10.8,86,10.8z"
	/>
<path class="st1" d="M49.1,60.5c0-0.1,0-0.2-0.1-0.2c-0.2-1-0.2-1,0.9-1.2c3.7-0.6,7.5-1.3,11.2-1.9c3.9-0.6,7.8-1.3,11.7-1.9
	c2.9-0.5,5.7-0.9,8.6-1.3c1-0.2,2-0.3,3-0.5c0.2,1,0.3,2,0.5,3.1c-0.1,0-0.2,0.1-0.2,0.1c-2.8-0.1-5.4,0.5-8.1,1
	c-3.2,0.6-6.4,0.9-9.7,0.9c-3.7,0.1-7.5,0.5-11.2,1.1c-2.1,0.3-4.2,0.6-6.2,0.9C49.4,60.5,49.3,60.5,49.1,60.5z"/>
<path class="st1" d="M87.2,11c0,0.2-0.1,0.3-0.1,0.5c-1,3.6-1.6,7.3-1.9,11c-0.4,4.6-0.7,9.2-0.9,13.9c-0.1,2.9-0.1,5.8-0.1,8.7
	c0,0.6,0,1.3,0,1.9h-0.1c-0.1-0.8-0.3-1.5-0.4-2.3c-1-5.3-1.1-10.6-0.5-15.9c0.3-2.5,0.8-4.9,1.1-7.3c0.5-3.4,1.6-6.7,2.5-10
	c0.1-0.1,0.1-0.3,0.2-0.4L87.2,11z"/>
<path class="st3" d="M86.1,57.7c0,0.3-0.1,0.6-0.1,1c-0.1,0.1-0.1,0.1-0.2,0.2c-0.1,0-0.2,0.1-0.3,0.1c-2,0.2-4,0.3-6,0.4
	c-5.3,0.2-10.7,0.8-16,1.5c-4.1,0.6-8.2,0.9-12.3,1c-0.5,0-0.9,0-1.4,0.1c-0.2,0-0.3,0-0.5,0l0-0.2c0.1-0.1,0.3-0.2,0.4-0.2
	c3.5-0.5,6.9-1.1,10.4-1.5c2.5-0.3,5.1-0.4,7.6-0.5c4-0.1,8-0.6,11.9-1.4C81.5,57.8,84.7,57.6,86.1,57.7z"/>
<path class="st3" d="M17.9,5.1c6.5-0.2,12.7,1,18.9,2.8L17.8,5.3L17.9,5.1z"/>
<path class="st3" d="M47.7,57.3l0.4,4.3c-0.9,0-0.9,0-1-0.7c-0.1-1-0.3-2-0.4-3C46.6,57.1,46.8,57,47.7,57.3z"/>
<path d="M41.5,18.4c-1.8-0.3-3.5-0.6-5.1-0.9c-4.3-0.7-8.5-1.5-12.8-2.2c-0.1,0-0.2,0-0.3-0.1c-0.1-0.1-0.2-0.2-0.3-0.3
	c0.1-0.1,0.2-0.2,0.3-0.2c0.6,0,1.1,0.1,1.7,0.2c5.4,0.9,10.8,1.8,16.2,2.7c0.1,0,0.1,0,0.2,0c0.2,0.1,0.3,0.2,0.5,0.4L41.5,18.4z"
	/>
<path d="M36.2,45.7c-3.6,0.3-6.9,0.5-10.2,0.8c-1,0.1-1.9,0.4-2.9,0.5c-0.1,0-0.3,0-0.4-0.1c0-0.1,0.1-0.4,0.1-0.4
	c0.3-0.2,0.6-0.3,1-0.3c2.1-0.2,4.2-0.5,6.3-0.7c3-0.2,6-0.3,9-0.5c0.8,0,1.6,0,2.4,0.1c0.2,0,0.3,0.2,0.5,0.3
	c-0.2,0.1-0.3,0.2-0.5,0.2C39.7,45.7,37.8,45.7,36.2,45.7z"/>
<path d="M43,36c-0.7,0-1.5,0-2.2,0c-5.3-0.2-10.6-0.2-15.9,0c-0.3,0-0.7,0-1,0c-0.1,0-0.2-0.1-0.3-0.2c0.1-0.1,0.2-0.3,0.3-0.3
	c0.4-0.1,0.9-0.1,1.4-0.2c5.7-0.2,11.4-0.3,17.1,0.1c0.2,0,0.3,0,0.5,0.1c0.1,0.1,0.3,0.2,0.4,0.4L43,36z"/>
<path d="M42.7,25c0.1,0.4,0,0.5-0.3,0.5c-0.5,0-1,0-1.6,0c-5.5-0.2-11-0.4-16.4-0.6c-0.3,0-0.7,0-1-0.1l-0.1-0.2
	c0.2-0.1,0.4-0.2,0.6-0.3c1.2,0,2.4-0.1,3.6,0c5,0.2,10,0.4,15,0.5C42.5,25,42.6,25,42.7,25z"/>
<path d="M25.1,19.6c5,0.5,10.1,1,15.1,1.5c0.3,0,0.6,0.1,0.8,0.2c0.1,0,0.1,0.2,0.2,0.3c-0.1,0.1-0.2,0.2-0.3,0.2
	c-0.4,0-0.9,0-1.3-0.1c-4.1-0.4-8.1-0.8-12.2-1.2c-1.5-0.1-2.9-0.2-4.4-0.3c-0.1,0-0.1,0-0.2,0c-0.2-0.1-0.3-0.2-0.4-0.3
	c0.1-0.1,0.3-0.2,0.4-0.2C23.6,19.7,24.3,19.7,25.1,19.6L25.1,19.6z"/>
<path d="M35.8,39.6c1.1,0,3.2,0,5.2,0c0.3,0,0.5,0,0.8,0.1c0.1,0,0.2,0.2,0.2,0.2c0,0.1-0.2,0.2-0.3,0.2c-0.3,0-0.6,0-1,0
	c-4,0.2-7.9,0.3-11.9,0.5c-1.6,0.1-3.2,0.2-4.8,0.3c-0.1,0-0.2,0-0.3,0c-0.2-0.1-0.4-0.1-0.6-0.2c0.2-0.1,0.4-0.3,0.6-0.3
	c0.7-0.1,1.4-0.2,2.1-0.2C28.9,40,31.9,39.8,35.8,39.6z"/>
<path d="M23.1,51.8c0-0.5,0.4-0.6,0.7-0.7c1.4-0.2,2.7-0.4,4.1-0.6c3.4-0.4,6.8-0.4,10.2,0c0.6,0.1,1.1,0.2,1.6,0.3
	c0.1,0,0.3,0.2,0.4,0.3c-0.2,0.1-0.3,0.2-0.5,0.2c-0.9,0-1.8-0.1-2.6-0.2c-3.8-0.3-7.7-0.2-11.5,0.3c-0.7,0.1-1.4,0.3-2.1,0.4
	C23.2,51.8,23.2,51.8,23.1,51.8z"/>
<path d="M32.7,30.5c-2.3,0-4.5,0-6.8,0c-0.5,0-1,0.1-1.5,0.1c-0.2,0-0.3-0.1-0.5-0.2c0.1-0.1,0.3-0.3,0.4-0.3
	c0.4-0.1,0.9-0.1,1.4-0.1c4.2,0,8.5,0,12.7,0.1c0.6,0,1.3,0.1,1.9,0.2c0.2,0,0.3,0.2,0.4,0.3c-0.2,0.1-0.3,0.2-0.5,0.2
	c-1.6,0-3.3-0.1-4.9-0.2C34.5,30.5,33.6,30.5,32.7,30.5L32.7,30.5z"/>
<path class="st2" d="M66.4,36.8c0.1,0,0.1,0,0.2,0c0.2,0.1,0.4,0.2,0.5,0.3c-0.1,0.1-0.3,0.2-0.5,0.3c-5.1,1-9.4,3.7-13.8,6.4
	c-0.3,0.2-0.6,0.5-0.9,0.7c-0.1,0.1-0.3,0-0.4,0.1c0-0.2,0-0.3,0.1-0.4c0.2-0.3,0.5-0.5,0.8-0.7c2-1.2,4.1-2.5,6.2-3.6
	c1.8-0.9,3.7-1.7,5.6-2.5C64.9,36.9,65.6,36.9,66.4,36.8L66.4,36.8z"/>
<path class="st2" d="M67.5,14.7l0.5,0.2c-0.2,0.2-0.4,0.3-0.6,0.4c-1.4,0.3-2.9,0.5-4.3,0.8c-2.7,0.5-5.3,1.3-7.9,2.3
	c-0.9,0.4-1.7,0.9-2.5,1.3c-0.2,0.1-0.7,0.2-0.8,0.2c-0.2-0.4,0.2-0.5,0.4-0.7c2-1.2,4.1-2.2,6.4-2.7c2.7-0.7,5.3-1.2,8-1.8
	C66.9,14.7,67.1,14.7,67.5,14.7z"/>
<path class="st2" d="M51.7,26.5c0.1-0.2,0.3-0.4,0.5-0.5c1.5-0.9,3.2-1.7,5-2.1c2.8-0.7,5.7-1.4,8.5-2c0.1,0,0.3,0,0.4,0
	c0.1,0,0.1,0,0.1,0.1c0,0,0.1,0.1,0.1,0.1c0,0.1,0,0.1,0,0.2c0,0-0.1,0.1-0.1,0.1c-0.2,0.1-0.3,0.1-0.5,0.2c-3,0.7-6.1,1.4-9.1,2.3
	c-1.4,0.4-2.7,1.1-4,1.7c-0.2,0.1-0.5,0.2-0.7,0.3L51.7,26.5z"/>
<path class="st2" d="M64.6,28.4l0.4,0.3c-0.1,0.1-0.3,0.3-0.5,0.4c-1.6,0.6-3.2,1-4.7,1.7c-2.6,1.1-5.1,2.4-7.5,3.9
	c-0.2,0.1-0.3,0.2-0.5,0.3c-0.2,0-0.4,0-0.5,0c0.1-0.2,0.1-0.4,0.2-0.4c0.6-0.4,1.3-0.8,2-1.2c2.7-1.6,5.6-3,8.6-4.1
	C62.9,28.9,63.7,28.7,64.6,28.4z"/>
<path class="st2" d="M65.1,25.2l0.3,0.3c-0.1,0.1-0.2,0.3-0.4,0.3c-1.4,0.4-2.7,0.8-4.1,1.2c-2.6,0.8-5.2,1.6-7.7,2.9
	c-0.3,0.2-0.5,0.3-0.8,0.5c-0.2,0-0.3,0-0.5,0c0.1-0.2,0.1-0.4,0.2-0.5c0.4-0.3,0.8-0.6,1.3-0.8c3.6-1.7,7.4-3,11.3-3.8
	C64.7,25.2,64.8,25.2,65.1,25.2z"/>
<path class="st2" d="M65.7,18.3c-0.1,0.1-0.3,0.2-0.5,0.3c-1,0.3-2,0.5-2.9,0.8c-3.3,1-6.6,1.8-9.6,3.5c-0.1,0.1-0.2,0.1-0.3,0.1
	c-0.1,0-0.3,0-0.4-0.1c0.1-0.1,0.1-0.4,0.2-0.4c0.6-0.4,1.2-0.7,1.9-1c1.9-0.7,3.8-1.4,5.7-2.1c1.6-0.5,3.3-0.9,5-1.4
	c0.2,0,0.4-0.1,0.6,0C65.5,18.1,65.6,18.2,65.7,18.3z"/>
<path class="st2" d="M64.5,33.7c-0.1,0.1-0.3,0.2-0.5,0.3c-0.9,0.3-1.9,0.5-2.8,0.8c-2.4,0.7-4.8,1.6-7,2.8
	c-0.6,0.3-1.2,0.8-1.9,1.1c-0.2,0.1-0.3,0.1-0.5,0.1c0-0.2,0-0.4,0.1-0.5c0.4-0.3,0.8-0.6,1.2-0.9c3.4-1.8,7-3.2,10.7-4.1
	c0.2,0,0.4,0,0.6,0L64.5,33.7z"/>
<path class="st2" d="M64.5,9.3l0.3,0.3c-0.1,0.1-0.2,0.3-0.3,0.3c-1.1,0.3-2.2,0.6-3.3,1c-1.2,0.4-2.3,0.8-3.5,1.2
	c-0.1,0.1-0.2,0.1-0.4,0.1c-0.1,0-0.2,0-0.3-0.1c0-0.1,0-0.2,0.1-0.3c0.1-0.1,0.3-0.2,0.4-0.3c2.2-0.9,4.4-1.7,6.7-2.2
	C64.3,9.3,64.3,9.3,64.5,9.3z"/>
<path d="M68.8,16.7c0,0.1,0,0.1,0.1,0.2c0,0,0.1,0.1,0.2,0.1c0.1,0,0.1,0,0.2-0.1s0.1-0.1,0.1-0.2c0-0.1,0-0.1-0.1-0.2
	c0,0-0.1-0.1-0.2-0.1c-0.1,0-0.1,0-0.2,0.1C68.9,16.6,68.8,16.7,68.8,16.7z"/>
<path d="M64.8,16.2C64.8,16.2,64.8,16.2,64.8,16.2c-0.1,0-0.2,0-0.2,0.1c0,0,0,0-0.1,0.1c0,0,0,0.1,0,0.1c0,0.1,0,0.1,0.1,0.2
	c0,0,0.1,0.1,0.2,0.1c0,0,0.1,0,0.1,0c0,0,0.1,0,0.1,0c0,0,0,0,0.1-0.1c0,0,0-0.1,0-0.1c0,0,0-0.1,0-0.1c0,0,0-0.1,0-0.1
	C65,16.3,65,16.3,64.8,16.2C64.9,16.2,64.9,16.2,64.8,16.2z"/>
<path d="M59,16.4c0,0.1,0,0.1,0.1,0.2c0,0,0.1,0.1,0.2,0.1c0.1,0,0.1,0,0.2-0.1c0.1,0,0.1-0.1,0.1-0.2c0-0.1,0-0.1-0.1-0.2
	c0,0-0.1-0.1-0.2-0.1c-0.1,0-0.1,0-0.2,0.1C59.1,16.3,59,16.3,59,16.4z"/>
<path d="M55,15.9C55,15.9,55,15.9,55,15.9c-0.1,0-0.2,0-0.2,0.1c0,0,0,0-0.1,0.1c0,0,0,0.1,0,0.1c0,0.1,0,0.1,0.1,0.2
	c0,0,0.1,0.1,0.2,0.1c0.1,0,0.1,0,0.2-0.1c0,0,0.1-0.1,0.1-0.2c0,0,0-0.1,0-0.1c0,0,0-0.1,0-0.1C55.2,16,55.1,15.9,55,15.9
	C55.1,15.9,55.1,15.9,55,15.9z"/>
<path d="M66.6,18.2c0,0.1,0,0.1,0.1,0.2c0,0,0.1,0.1,0.2,0.1c0.1,0,0.1,0,0.2-0.1c0.1,0,0.1-0.1,0.1-0.2c0-0.1,0-0.1-0.1-0.2
	c0,0-0.1-0.1-0.2-0.1c-0.1,0-0.1,0-0.2,0.1C66.7,18.1,66.6,18.1,66.6,18.2z"/>
<path d="M62.6,17.7C62.6,17.7,62.6,17.7,62.6,17.7c-0.1,0-0.2,0-0.2,0.1c0,0,0,0-0.1,0.1c0,0,0,0.1,0,0.1c0,0.1,0,0.1,0.1,0.2
	c0,0,0.1,0.1,0.2,0.1c0,0,0.1,0,0.1,0c0,0,0.1,0,0.1,0c0,0,0,0,0.1-0.1c0,0,0-0.1,0-0.1c0,0,0-0.1,0-0.1c0,0,0-0.1,0-0.1
	C62.8,17.8,62.8,17.7,62.6,17.7C62.7,17.7,62.7,17.7,62.6,17.7z"/>
<path d="M56.8,17.9c0,0.1,0,0.1,0.1,0.2c0,0,0.1,0.1,0.2,0.1c0.1,0,0.1,0,0.2-0.1c0.1,0,0.1-0.1,0.1-0.2c0-0.1,0-0.1-0.1-0.2
	c0,0-0.1-0.1-0.2-0.1c-0.1,0-0.1,0-0.2,0.1C56.8,17.7,56.8,17.8,56.8,17.9z"/>
<path d="M52.8,17.4C52.8,17.4,52.8,17.4,52.8,17.4c-0.1,0-0.2,0-0.2,0.1c0,0,0,0-0.1,0.1s0,0.1,0,0.1c0,0.1,0,0.1,0.1,0.2
	c0,0,0.1,0.1,0.2,0.1c0.1,0,0.1,0,0.2-0.1c0,0,0.1-0.1,0.1-0.2c0,0,0-0.1,0-0.1c0,0,0-0.1,0-0.1C53,17.4,52.9,17.4,52.8,17.4
	C52.9,17.4,52.8,17.4,52.8,17.4z"/>
<path d="M68.8,19.5c0,0.1,0,0.1,0.1,0.2c0,0,0.1,0.1,0.2,0.1c0.1,0,0.1,0,0.2-0.1c0.1,0,0.1-0.1,0.1-0.2c0-0.1,0-0.1-0.1-0.2
	c0,0-0.1-0.1-0.2-0.1c-0.1,0-0.1,0-0.2,0.1C68.9,19.4,68.8,19.5,68.8,19.5z"/>
<path d="M64.8,19C64.8,19,64.8,19,64.8,19c-0.1,0-0.2,0-0.2,0.1c0,0,0,0-0.1,0.1c0,0,0,0.1,0,0.1c0,0.1,0,0.1,0.1,0.2
	s0.1,0.1,0.2,0.1c0.1,0,0.1,0,0.2-0.1c0,0,0.1-0.1,0.1-0.2c0,0,0-0.1,0-0.1c0,0,0-0.1,0-0.1C65,19.1,65,19,64.8,19
	C64.9,19,64.9,19,64.8,19z"/>
<path d="M59,19.2c0,0.1,0,0.1,0.1,0.2c0,0,0.1,0.1,0.2,0.1c0.1,0,0.1,0,0.2-0.1c0.1,0,0.1-0.1,0.1-0.2c0-0.1,0-0.1-0.1-0.2
	c0,0-0.1-0.1-0.2-0.1c-0.1,0-0.1,0-0.2,0.1S59,19.1,59,19.2z"/>
<path d="M55,18.7C55,18.7,54.9,18.7,55,18.7c-0.1,0-0.2,0-0.2,0.1c0,0,0,0-0.1,0.1c0,0,0,0.1,0,0.1c0,0.1,0,0.1,0.1,0.2
	c0,0,0.1,0.1,0.2,0.1c0,0,0.1,0,0.1,0c0,0,0.1,0,0.1,0c0,0,0,0,0.1-0.1s0-0.1,0-0.1c0,0,0-0.1,0-0.1c0,0,0-0.1,0-0.1
	C55.2,18.7,55.1,18.7,55,18.7C55.1,18.7,55,18.7,55,18.7z"/>
<path d="M66.2,21.3c0,0.1,0,0.1,0.1,0.2c0,0,0.1,0.1,0.2,0.1c0.1,0,0.1,0,0.2-0.1c0.1,0,0.1-0.1,0.1-0.2c0-0.1,0-0.1-0.1-0.2
	c0,0-0.1-0.1-0.2-0.1c-0.1,0-0.1,0-0.2,0.1C66.2,21.2,66.2,21.3,66.2,21.3z"/>
<path d="M62.2,20.8C62.1,20.8,62.1,20.8,62.2,20.8c-0.1,0-0.2,0-0.2,0.1c0,0,0,0-0.1,0.1c0,0,0,0.1,0,0.1c0,0.1,0,0.1,0.1,0.2
	c0,0,0.1,0.1,0.2,0.1c0.1,0,0.1,0,0.2-0.1c0,0,0.1-0.1,0.1-0.2c0,0,0-0.1,0-0.1c0,0,0-0.1,0-0.1C62.3,20.9,62.3,20.9,62.2,20.8
	C62.2,20.8,62.2,20.8,62.2,20.8z"/>
<path d="M56.3,21c0,0.1,0,0.1,0.1,0.2c0,0,0.1,0.1,0.2,0.1c0.1,0,0.1,0,0.2-0.1c0.1,0,0.1-0.1,0.1-0.2c0-0.1,0-0.1-0.1-0.2
	c0,0-0.1-0.1-0.2-0.1c-0.1,0-0.1,0-0.2,0.1C56.4,20.9,56.4,20.9,56.3,21z"/>
<path d="M52.4,20.5C52.3,20.5,52.3,20.5,52.4,20.5c-0.1,0-0.2,0-0.2,0.1s0,0-0.1,0.1c0,0,0,0.1,0,0.1c0,0.1,0,0.1,0.1,0.2
	s0.1,0.1,0.2,0.1c0,0,0.1,0,0.1,0c0,0,0.1,0,0.1,0c0,0,0,0,0.1-0.1c0,0,0-0.1,0-0.1c0,0,0-0.1,0-0.1c0,0,0-0.1,0-0.1
	C52.5,20.6,52.5,20.5,52.4,20.5C52.4,20.5,52.4,20.5,52.4,20.5z"/>
<path d="M64,22.8c0,0.1,0,0.1,0.1,0.2c0,0,0.1,0.1,0.2,0.1c0.1,0,0.1,0,0.2-0.1c0.1,0,0.1-0.1,0.1-0.2c0-0.1,0-0.1-0.1-0.2
	c0,0-0.1-0.1-0.2-0.1c-0.1,0-0.1,0-0.2,0.1C64,22.7,64,22.7,64,22.8z"/>
<path d="M60,22.3C59.9,22.3,59.9,22.3,60,22.3c-0.1,0-0.2,0-0.2,0.1c0,0,0,0-0.1,0.1c0,0,0,0.1,0,0.1c0,0.1,0,0.1,0.1,0.2
	c0,0,0.1,0.1,0.2,0.1c0,0,0.1,0,0.1,0c0,0,0.1,0,0.1,0c0,0,0,0,0.1-0.1c0,0,0-0.1,0-0.1c0,0,0-0.1,0-0.1c0,0,0-0.1,0-0.1
	C60.1,22.4,60.1,22.3,60,22.3C60,22.3,60,22.3,60,22.3z"/>
<path d="M54.1,22.5c0,0.1,0,0.1,0.1,0.2c0,0,0.1,0.1,0.2,0.1c0.1,0,0.1,0,0.2-0.1c0.1,0,0.1-0.1,0.1-0.2c0-0.1,0-0.1-0.1-0.2
	c0,0-0.1-0.1-0.2-0.1c-0.1,0-0.1,0-0.2,0.1C54.2,22.4,54.2,22.4,54.1,22.5z"/>
<path d="M68.5,22.3C68.5,22.3,68.4,22.3,68.5,22.3c-0.1,0-0.2,0-0.2,0.1c0,0,0,0-0.1,0.1c0,0,0,0.1,0,0.1c0,0.1,0,0.1,0.1,0.2
	s0.1,0.1,0.2,0.1c0,0,0.1,0,0.1,0c0,0,0.1,0,0.1,0c0,0,0,0,0.1-0.1c0,0,0-0.1,0-0.1c0,0,0-0.1,0-0.1c0,0,0-0.1,0-0.1
	C68.7,22.3,68.6,22.3,68.5,22.3C68.6,22.3,68.5,22.3,68.5,22.3z"/>
<path d="M66.1,24.1c0,0.1,0,0.1,0.1,0.2c0,0,0.1,0.1,0.2,0.1c0.1,0,0.1,0,0.2-0.1c0.1,0,0.1-0.1,0.1-0.2c0-0.1,0-0.1-0.1-0.2
	c0,0-0.1-0.1-0.2-0.1c-0.1,0-0.1,0-0.2,0.1C66.2,24,66.2,24.1,66.1,24.1z"/>
<path d="M62.2,23.6C62.1,23.6,62.1,23.6,62.2,23.6c-0.1,0-0.2,0-0.2,0.1c0,0,0,0-0.1,0.1s0,0.1,0,0.1c0,0.1,0,0.1,0.1,0.2
	c0,0,0.1,0.1,0.2,0.1c0.1,0,0.1,0,0.2-0.1c0,0,0.1-0.1,0.1-0.2c0,0,0-0.1,0-0.1c0,0,0-0.1,0-0.1C62.3,23.7,62.3,23.7,62.2,23.6
	C62.2,23.6,62.2,23.6,62.2,23.6z"/>
<path d="M56.3,23.8c0,0.1,0,0.1,0.1,0.2c0,0,0.1,0.1,0.2,0.1c0.1,0,0.1,0,0.2-0.1c0.1,0,0.1-0.1,0.1-0.2c0-0.1,0-0.1-0.1-0.2
	c0,0-0.1-0.1-0.2-0.1c-0.1,0-0.1,0-0.2,0.1C56.4,23.7,56.4,23.7,56.3,23.8z"/>
<path d="M52.3,23.3C52.3,23.3,52.3,23.3,52.3,23.3c-0.1,0-0.2,0-0.2,0.1c0,0,0,0-0.1,0.1c0,0,0,0.1,0,0.1c0,0.1,0,0.1,0.1,0.2
	c0,0,0.1,0.1,0.2,0.1c0,0,0.1,0,0.1,0c0,0,0.1,0,0.1,0c0,0,0,0,0.1-0.1c0,0,0-0.1,0-0.1c0,0,0-0.1,0-0.1c0,0,0-0.1,0-0.1
	C52.5,23.3,52.5,23.3,52.3,23.3C52.4,23.3,52.4,23.3,52.3,23.3z"/>
<path d="M68.2,25.5c0,0.1,0,0.1,0.1,0.2c0,0,0.1,0.1,0.2,0.1c0.1,0,0.1,0,0.2-0.1c0.1,0,0.1-0.1,0.1-0.2c0-0.1,0-0.1-0.1-0.2
	c0,0-0.1-0.1-0.2-0.1c-0.1,0-0.1,0-0.2,0.1C68.3,25.4,68.2,25.5,68.2,25.5z"/>
<path d="M64.2,25C64.2,25,64.2,25,64.2,25c-0.1,0-0.2,0-0.2,0.1c0,0,0,0-0.1,0.1c0,0,0,0.1,0,0.1c0,0.1,0,0.1,0.1,0.2
	s0.1,0.1,0.2,0.1c0,0,0.1,0,0.1,0c0,0,0.1,0,0.1,0c0,0,0,0,0.1-0.1c0,0,0-0.1,0-0.1c0,0,0-0.1,0-0.1c0,0,0-0.1,0-0.1
	C64.4,25.1,64.4,25.1,64.2,25C64.3,25.1,64.3,25,64.2,25z"/>
<path d="M58.4,25.2c0,0.1,0,0.1,0.1,0.2c0,0,0.1,0.1,0.2,0.1c0.1,0,0.1,0,0.2-0.1c0.1,0,0.1-0.1,0.1-0.2c0-0.1,0-0.1-0.1-0.2
	c0,0-0.1-0.1-0.2-0.1c-0.1,0-0.1,0-0.2,0.1C58.5,25.1,58.4,25.2,58.4,25.2z"/>
<path d="M54.4,24.7C54.4,24.7,54.4,24.7,54.4,24.7c-0.1,0-0.2,0-0.2,0.1c0,0,0,0-0.1,0.1c0,0,0,0.1,0,0.1c0,0.1,0,0.1,0.1,0.2
	c0,0,0.1,0.1,0.2,0.1c0,0,0.1,0,0.1,0c0,0,0.1,0,0.1,0c0,0,0,0,0.1-0.1c0,0,0-0.1,0-0.1c0,0,0-0.1,0-0.1c0,0,0-0.1,0-0.1
	C54.6,24.8,54.6,24.8,54.4,24.7C54.5,24.7,54.5,24.7,54.4,24.7z"/>
<path d="M66,27c0,0.1,0,0.1,0.1,0.2c0,0,0.1,0.1,0.2,0.1c0.1,0,0.1,0,0.2-0.1c0.1,0,0.1-0.1,0.1-0.2c0-0.1,0-0.1-0.1-0.2
	c0,0-0.1-0.1-0.2-0.1c-0.1,0-0.1,0-0.2,0.1C66.1,26.9,66,26.9,66,27z"/>
<path d="M62,26.5C62,26.5,62,26.5,62,26.5c-0.1,0-0.2,0-0.2,0.1s0,0-0.1,0.1c0,0,0,0.1,0,0.1c0,0.1,0,0.1,0.1,0.2
	c0,0,0.1,0.1,0.2,0.1c0,0,0.1,0,0.1,0c0,0,0.1,0,0.1,0c0,0,0,0,0.1-0.1c0,0,0-0.1,0-0.1c0,0,0-0.1,0-0.1c0,0,0-0.1,0-0.1
	C62.2,26.6,62.2,26.5,62,26.5C62.1,26.5,62.1,26.5,62,26.5z"/>
<path d="M56.2,26.7c0,0.1,0,0.1,0.1,0.2c0,0,0.1,0.1,0.2,0.1c0.1,0,0.1,0,0.2-0.1s0.1-0.1,0.1-0.2c0-0.1,0-0.1-0.1-0.2
	c0,0-0.1-0.1-0.2-0.1c-0.1,0-0.1,0-0.2,0.1C56.2,26.6,56.2,26.6,56.2,26.7z"/>
<path d="M52.2,26.2C52.2,26.2,52.2,26.2,52.2,26.2c-0.1,0-0.2,0-0.2,0.1c0,0,0,0-0.1,0.1c0,0,0,0.1,0,0.1c0,0,0,0.1,0,0.1
	c0,0,0,0.1,0,0.1c0,0,0,0,0.1,0.1c0,0,0.1,0,0.1,0c0,0,0.1,0,0.1,0c0,0,0.1,0,0.1,0c0,0,0,0,0.1-0.1s0-0.1,0-0.1c0,0,0-0.1,0-0.1
	c0,0,0-0.1,0-0.1C52.4,26.2,52.3,26.2,52.2,26.2C52.3,26.2,52.3,26.2,52.2,26.2z"/>
<path d="M68.2,28.3c0,0.1,0,0.1,0.1,0.2c0,0,0.1,0.1,0.2,0.1c0.1,0,0.1,0,0.2-0.1c0.1,0,0.1-0.1,0.1-0.2c0-0.1,0-0.1-0.1-0.2
	c0,0-0.1-0.1-0.2-0.1c-0.1,0-0.1,0-0.2,0.1C68.3,28.2,68.2,28.3,68.2,28.3z"/>
<path d="M64.2,27.8C64.2,27.8,64.2,27.8,64.2,27.8c-0.1,0-0.2,0-0.2,0.1c0,0,0,0-0.1,0.1c0,0,0,0.1,0,0.1c0,0.1,0,0.1,0.1,0.2
	c0,0,0.1,0.1,0.2,0.1c0,0,0.1,0,0.1,0c0,0,0.1,0,0.1,0c0,0,0,0,0.1-0.1c0,0,0-0.1,0-0.1c0,0,0-0.1,0-0.1c0,0,0-0.1,0-0.1
	C64.4,27.9,64.4,27.9,64.2,27.8C64.3,27.8,64.3,27.8,64.2,27.8z"/>
<path d="M58.4,28c0,0.1,0,0.1,0.1,0.2s0.1,0.1,0.2,0.1c0.1,0,0.1,0,0.2-0.1s0.1-0.1,0.1-0.2c0-0.1,0-0.1-0.1-0.2
	c0,0-0.1-0.1-0.2-0.1c-0.1,0-0.1,0-0.2,0.1C58.4,27.9,58.4,27.9,58.4,28z"/>
<path d="M54.4,27.5C54.4,27.5,54.3,27.5,54.4,27.5c-0.1,0-0.2,0-0.2,0.1c0,0,0,0-0.1,0.1c0,0,0,0.1,0,0.1c0,0.1,0,0.1,0.1,0.2
	c0,0,0.1,0.1,0.2,0.1c0,0,0.1,0,0.1,0c0,0,0.1,0,0.1,0c0,0,0,0,0.1-0.1c0,0,0-0.1,0-0.1c0,0,0-0.1,0-0.1c0,0,0-0.1,0-0.1
	C54.6,27.6,54.5,27.5,54.4,27.5C54.5,27.5,54.4,27.5,54.4,27.5z"/>
<path d="M65.6,30.2c0,0.1,0,0.1,0.1,0.2c0,0,0.1,0.1,0.2,0.1c0.1,0,0.1,0,0.2-0.1c0.1,0,0.1-0.1,0.1-0.2c0-0.1,0-0.1-0.1-0.2
	c0,0-0.1-0.1-0.2-0.1c-0.1,0-0.1,0-0.2,0.1C65.6,30,65.6,30.1,65.6,30.2z"/>
<path d="M61.6,29.7C61.6,29.7,61.5,29.7,61.6,29.7c-0.1,0-0.2,0-0.2,0.1c0,0,0,0-0.1,0.1c0,0,0,0.1,0,0.1c0,0.1,0,0.1,0.1,0.2
	s0.1,0.1,0.2,0.1c0,0,0.1,0,0.1,0c0,0,0.1,0,0.1,0c0,0,0,0,0.1-0.1s0-0.1,0-0.1c0,0,0-0.1,0-0.1c0,0,0-0.1,0-0.1
	C61.7,29.7,61.7,29.7,61.6,29.7C61.6,29.7,61.6,29.7,61.6,29.7z"/>
<path d="M55.7,29.8c0,0.1,0,0.1,0.1,0.2c0,0,0.1,0.1,0.2,0.1c0.1,0,0.1,0,0.2-0.1c0.1,0,0.1-0.1,0.1-0.2c0-0.1,0-0.1-0.1-0.2
	c0,0-0.1-0.1-0.2-0.1c-0.1,0-0.1,0-0.2,0.1C55.8,29.7,55.8,29.8,55.7,29.8z"/>
<path d="M51.8,29.3C51.7,29.3,51.7,29.3,51.8,29.3c-0.1,0-0.2,0-0.2,0.1c0,0,0,0-0.1,0.1c0,0,0,0.1,0,0.1c0,0.1,0,0.1,0.1,0.2
	c0,0,0.1,0.1,0.2,0.1c0,0,0.1,0,0.1,0c0,0,0.1,0,0.1,0c0,0,0,0,0.1-0.1c0,0,0-0.1,0-0.1c0,0,0-0.1,0-0.1c0,0,0-0.1,0-0.1
	C51.9,29.4,51.9,29.4,51.8,29.3C51.8,29.3,51.8,29.3,51.8,29.3z"/>
<path d="M63.4,31.6c0,0.1,0,0.1,0.1,0.2c0,0,0.1,0.1,0.2,0.1c0.1,0,0.1,0,0.2-0.1c0.1,0,0.1-0.1,0.1-0.2c0-0.1,0-0.1-0.1-0.2
	c0,0-0.1-0.1-0.2-0.1c-0.1,0-0.1,0-0.2,0.1C63.4,31.5,63.4,31.6,63.4,31.6z"/>
<path d="M59.4,31.1C59.3,31.1,59.3,31.1,59.4,31.1c-0.1,0-0.2,0-0.2,0.1c0,0,0,0-0.1,0.1c0,0,0,0.1,0,0.1c0,0.1,0,0.1,0.1,0.2
	c0,0,0.1,0.1,0.2,0.1c0.1,0,0.1,0,0.2-0.1c0,0,0.1-0.1,0.1-0.2c0,0,0-0.1,0-0.1c0,0,0-0.1,0-0.1C59.5,31.2,59.5,31.1,59.4,31.1
	C59.4,31.1,59.4,31.1,59.4,31.1z"/>
<path d="M53.5,31.3c0,0.1,0,0.1,0.1,0.2c0,0,0.1,0.1,0.2,0.1c0.1,0,0.1,0,0.2-0.1c0.1,0,0.1-0.1,0.1-0.2c0-0.1,0-0.1-0.1-0.2
	c0,0-0.1-0.1-0.2-0.1c-0.1,0-0.1,0-0.2,0.1C53.6,31.2,53.6,31.2,53.5,31.3z"/>
<path d="M67.9,31.1C67.9,31.1,67.8,31.1,67.9,31.1c-0.1,0-0.2,0-0.2,0.1s0,0-0.1,0.1c0,0,0,0.1,0,0.1c0,0.1,0,0.1,0.1,0.2
	c0,0,0.1,0.1,0.2,0.1c0,0,0.1,0,0.1,0c0,0,0.1,0,0.1,0c0,0,0,0,0.1-0.1c0,0,0-0.1,0-0.1c0,0,0-0.1,0-0.1c0,0,0-0.1,0-0.1
	C68.1,31.2,68,31.1,67.9,31.1C68,31.1,67.9,31.1,67.9,31.1z"/>
<path d="M65.5,32.9c0,0.1,0,0.1,0.1,0.2c0,0,0.1,0.1,0.2,0.1c0.1,0,0.1,0,0.2-0.1c0.1,0,0.1-0.1,0.1-0.2c0-0.1,0-0.1-0.1-0.2
	c0,0-0.1-0.1-0.2-0.1c-0.1,0-0.1,0-0.2,0.1C65.6,32.8,65.6,32.9,65.5,32.9z"/>
<path d="M61.6,32.4C61.5,32.4,61.5,32.4,61.6,32.4c-0.1,0-0.2,0-0.2,0.1c0,0,0,0-0.1,0.1c0,0,0,0.1,0,0.1c0,0.1,0,0.1,0.1,0.2
	c0,0,0.1,0.1,0.2,0.1c0,0,0.1,0,0.1,0c0,0,0.1,0,0.1,0c0,0,0,0,0.1-0.1c0,0,0-0.1,0-0.1c0,0,0-0.1,0-0.1c0,0,0-0.1,0-0.1
	C61.7,32.5,61.7,32.5,61.6,32.4C61.6,32.4,61.6,32.4,61.6,32.4z"/>
<path d="M55.7,32.6c0,0.1,0,0.1,0.1,0.2c0,0,0.1,0.1,0.2,0.1c0.1,0,0.1,0,0.2-0.1c0.1,0,0.1-0.1,0.1-0.2c0-0.1,0-0.1-0.1-0.2
	c0,0-0.1-0.1-0.1-0.1c-0.1,0-0.1,0-0.2,0.1C55.8,32.5,55.7,32.5,55.7,32.6z"/>
<path d="M51.7,32.1C51.7,32.1,51.7,32.1,51.7,32.1c-0.1,0-0.2,0-0.2,0.1c0,0,0,0-0.1,0.1c0,0,0,0.1,0,0.1c0,0.1,0,0.1,0.1,0.2
	s0.1,0.1,0.2,0.1c0,0,0.1,0,0.1,0c0,0,0.1,0,0.1,0c0,0,0,0,0.1-0.1c0,0,0-0.1,0-0.1c0,0,0-0.1,0-0.1c0,0,0-0.1,0-0.1
	S51.9,32.1,51.7,32.1C51.8,32.1,51.8,32.1,51.7,32.1z"/>
<path d="M62.7,33.8C62.7,33.8,62.7,33.8,62.7,33.8c-0.1,0-0.2,0-0.2,0.1c0,0,0,0-0.1,0.1c0,0,0,0.1,0,0.1c0,0.1,0,0.1,0.1,0.2
	c0,0,0.1,0.1,0.2,0.1c0,0,0.1,0,0.1,0c0,0,0.1,0,0.1,0c0,0,0,0,0.1-0.1c0,0,0-0.1,0-0.1c0,0,0-0.1,0-0.1c0,0,0-0.1,0-0.1
	C62.9,33.9,62.8,33.9,62.7,33.8C62.8,33.8,62.8,33.8,62.7,33.8z"/>
<path d="M56.9,34c0,0.1,0,0.1,0.1,0.2c0,0,0.1,0.1,0.2,0.1c0.1,0,0.1,0,0.2-0.1c0.1,0,0.1-0.1,0.1-0.2c0-0.1,0-0.1-0.1-0.2
	c0,0-0.1-0.1-0.2-0.1c-0.1,0-0.1,0-0.2,0.1S56.9,33.9,56.9,34z"/>
<path d="M52.9,33.5C52.9,33.5,52.8,33.5,52.9,33.5c-0.1,0-0.2,0-0.2,0.1c0,0,0,0-0.1,0.1c0,0,0,0.1,0,0.1c0,0.1,0,0.1,0.1,0.2
	c0,0,0.1,0.1,0.2,0.1c0,0,0.1,0,0.1,0c0,0,0.1,0,0.1,0c0,0,0,0,0.1-0.1c0,0,0-0.1,0-0.1c0,0,0-0.1,0-0.1c0,0,0-0.1,0-0.1
	C53.1,33.6,53,33.5,52.9,33.5C53,33.5,52.9,33.5,52.9,33.5z"/>
<path d="M64.5,35.8c0,0.1,0,0.1,0.1,0.2c0,0,0.1,0.1,0.2,0.1c0.1,0,0.1,0,0.2-0.1c0.1,0,0.1-0.1,0.1-0.2c0-0.1,0-0.1-0.1-0.2
	c0,0-0.1-0.1-0.2-0.1c-0.1,0-0.1,0-0.2,0.1C64.5,35.7,64.5,35.7,64.5,35.8z"/>
<path d="M60.5,35.3C60.5,35.3,60.5,35.3,60.5,35.3c-0.1,0-0.2,0-0.2,0.1c0,0,0,0-0.1,0.1c0,0,0,0.1,0,0.1c0,0.1,0,0.1,0.1,0.2
	c0,0,0.1,0.1,0.2,0.1c0,0,0.1,0,0.1,0c0,0,0.1,0,0.1,0c0,0,0,0,0.1-0.1c0,0,0-0.1,0-0.1c0,0,0-0.1,0-0.1c0,0,0-0.1,0-0.1
	C60.7,35.4,60.6,35.3,60.5,35.3C60.6,35.3,60.5,35.3,60.5,35.3z"/>
<path d="M54.7,35.5c0,0.1,0,0.1,0.1,0.2c0,0,0.1,0.1,0.2,0.1c0.1,0,0.1,0,0.2-0.1c0.1,0,0.1-0.1,0.1-0.2c0-0.1,0-0.1-0.1-0.2
	c0,0-0.1-0.1-0.2-0.1c-0.1,0-0.1,0-0.2,0.1C54.7,35.3,54.7,35.4,54.7,35.5z"/>
<path d="M66.7,37.1c0,0.1,0,0.1,0.1,0.2c0,0,0.1,0.1,0.2,0.1c0.1,0,0.1,0,0.2-0.1c0.1,0,0.1-0.1,0.1-0.2c0-0.1,0-0.1-0.1-0.2
	c0,0-0.1-0.1-0.2-0.1c-0.1,0-0.1,0-0.2,0.1C66.7,37,66.7,37,66.7,37.1z"/>
<path d="M62.7,36.6C62.7,36.6,62.6,36.6,62.7,36.6c-0.1,0-0.2,0-0.2,0.1c0,0,0,0-0.1,0.1c0,0,0,0.1,0,0.1c0,0.1,0,0.1,0.1,0.2
	c0,0,0.1,0.1,0.2,0.1c0,0,0.1,0,0.1,0c0,0,0.1,0,0.1,0c0,0,0,0,0.1-0.1c0,0,0-0.1,0-0.1c0,0,0-0.1,0-0.1c0,0,0-0.1,0-0.1
	C62.9,36.7,62.8,36.7,62.7,36.6C62.8,36.6,62.7,36.6,62.7,36.6z"/>
<path d="M56.9,36.8c0,0.1,0,0.1,0.1,0.2c0,0,0.1,0.1,0.2,0.1c0.1,0,0.1,0,0.2-0.1c0.1,0,0.1-0.1,0.1-0.2c0-0.1,0-0.1-0.1-0.2
	c0,0-0.1-0.1-0.2-0.1c-0.1,0-0.1,0-0.2,0.1S56.9,36.7,56.9,36.8z"/>
<path d="M52.9,36.3C52.9,36.3,52.8,36.3,52.9,36.3c-0.1,0-0.2,0-0.2,0.1c0,0,0,0-0.1,0.1c0,0,0,0.1,0,0.1c0,0.1,0,0.1,0.1,0.2
	c0,0,0.1,0.1,0.2,0.1c0,0,0.1,0,0.1,0c0,0,0.1,0,0.1,0c0,0,0,0,0.1-0.1c0,0,0-0.1,0-0.1c0,0,0-0.1,0-0.1c0,0,0-0.1,0-0.1
	C53,36.3,53,36.3,52.9,36.3C52.9,36.3,52.9,36.3,52.9,36.3z"/>
<path d="M60.4,37.5C60.4,37.5,60.4,37.5,60.4,37.5c-0.1,0-0.2,0-0.2,0.1c0,0,0,0-0.1,0.1c0,0,0,0.1,0,0.1c0,0.1,0,0.1,0.1,0.2
	c0,0,0.1,0.1,0.2,0.1c0,0,0.1,0,0.1,0s0.1,0,0.1,0c0,0,0,0,0.1-0.1c0,0,0-0.1,0-0.1c0,0,0-0.1,0-0.1c0,0,0-0.1,0-0.1
	C60.6,37.6,60.6,37.5,60.4,37.5C60.5,37.5,60.5,37.5,60.4,37.5z"/>
<path d="M54.6,37.7c0,0.1,0,0.1,0.1,0.2c0,0,0.1,0.1,0.2,0.1c0.1,0,0.1,0,0.2-0.1c0.1,0,0.1-0.1,0.1-0.2c0-0.1,0-0.1-0.1-0.2
	c0,0-0.1-0.1-0.2-0.1c-0.1,0-0.1,0-0.2,0.1C54.6,37.6,54.6,37.6,54.6,37.7z"/>
<path d="M50.6,37.2C50.6,37.2,50.5,37.2,50.6,37.2c-0.1,0-0.2,0-0.2,0.1c0,0,0,0-0.1,0.1c0,0,0,0.1,0,0.1c0,0.1,0,0.1,0.1,0.2
	c0,0,0.1,0.1,0.2,0.1c0,0,0.1,0,0.1,0c0,0,0.1,0,0.1,0c0,0,0,0,0.1-0.1c0,0,0-0.1,0-0.1c0,0,0-0.1,0-0.1c0,0,0-0.1,0-0.1
	C50.8,37.2,50.7,37.2,50.6,37.2C50.7,37.2,50.6,37.2,50.6,37.2z"/>
<path d="M62.2,39.5c0,0.1,0,0.1,0.1,0.2c0,0,0.1,0.1,0.2,0.1c0.1,0,0.1,0,0.2-0.1c0.1,0,0.1-0.1,0.1-0.2c0-0.1,0-0.1-0.1-0.2
	s-0.1-0.1-0.2-0.1c-0.1,0-0.1,0-0.2,0.1C62.2,39.3,62.2,39.4,62.2,39.5z"/>
<path d="M58.2,39C58.2,39,58.2,39,58.2,39c-0.1,0-0.2,0-0.2,0.1c0,0,0,0-0.1,0.1c0,0,0,0.1,0,0.1c0,0.1,0,0.1,0.1,0.2
	c0,0,0.1,0.1,0.2,0.1c0,0,0.1,0,0.1,0c0,0,0.1,0,0.1,0c0,0,0,0,0.1-0.1c0,0,0-0.1,0-0.1c0,0,0-0.1,0-0.1c0,0,0-0.1,0-0.1
	C58.4,39,58.4,39,58.2,39C58.3,39,58.3,39,58.2,39z"/>
<path d="M52.4,39.2c0,0.1,0,0.1,0.1,0.2s0.1,0.1,0.2,0.1c0.1,0,0.1,0,0.2-0.1c0.1,0,0.1-0.1,0.1-0.2c0-0.1,0-0.1-0.1-0.2
	c0,0-0.1-0.1-0.2-0.1c-0.1,0-0.1,0-0.2,0.1C52.4,39,52.4,39.1,52.4,39.2z"/>
<path d="M64.4,40.8c0,0.1,0,0.1,0.1,0.2c0,0,0.1,0.1,0.2,0.1c0.1,0,0.1,0,0.2-0.1c0.1,0,0.1-0.1,0.1-0.2c0-0.1,0-0.1-0.1-0.2
	c0,0-0.1-0.1-0.2-0.1c-0.1,0-0.1,0-0.2,0.1C64.4,40.7,64.4,40.7,64.4,40.8z"/>
<path d="M60.4,40.3C60.4,40.3,60.3,40.3,60.4,40.3c-0.1,0-0.2,0-0.2,0.1c0,0,0,0-0.1,0.1c0,0,0,0.1,0,0.1c0,0.1,0,0.1,0.1,0.2
	c0,0,0.1,0.1,0.2,0.1c0,0,0.1,0,0.1,0c0,0,0.1,0,0.1,0c0,0,0,0,0.1-0.1c0,0,0-0.1,0-0.1c0,0,0-0.1,0-0.1c0,0,0-0.1,0-0.1
	C60.6,40.3,60.5,40.3,60.4,40.3C60.5,40.3,60.4,40.3,60.4,40.3z"/>
<path d="M54.6,40.5c0,0.1,0,0.1,0.1,0.2c0,0,0.1,0.1,0.2,0.1c0.1,0,0.1,0,0.2-0.1c0.1,0,0.1-0.1,0.1-0.2c0-0.1,0-0.1-0.1-0.2
	c0,0-0.1-0.1-0.2-0.1c-0.1,0-0.1,0-0.2,0.1C54.6,40.3,54.6,40.4,54.6,40.5z"/>
<path d="M50.6,40C50.6,40,50.5,40,50.6,40c-0.1,0-0.2,0-0.2,0.1c0,0,0,0-0.1,0.1c0,0,0,0.1,0,0.1c0,0.1,0,0.1,0.1,0.2
	c0,0,0.1,0.1,0.2,0.1c0.1,0,0.1,0,0.2-0.1c0,0,0.1-0.1,0.1-0.2c0,0,0-0.1,0-0.1c0,0,0-0.1,0-0.1C50.7,40,50.7,40,50.6,40
	C50.7,40,50.6,40,50.6,40z"/>
<path d="M59.3,42.1C59.3,42.1,59.2,42.1,59.3,42.1c-0.1,0-0.2,0-0.2,0.1c0,0,0,0-0.1,0.1c0,0,0,0.1,0,0.1c0,0.1,0,0.1,0.1,0.2
	c0,0,0.1,0.1,0.2,0.1c0.1,0,0.1,0,0.2-0.1c0,0,0.1-0.1,0.1-0.2c0,0,0-0.1,0-0.1c0,0,0-0.1,0-0.1C59.4,42.1,59.4,42.1,59.3,42.1
	C59.3,42.1,59.3,42.1,59.3,42.1z"/>
<path d="M53.4,42.2c0,0.1,0,0.1,0.1,0.2c0,0,0.1,0.1,0.2,0.1c0.1,0,0.1,0,0.2-0.1s0.1-0.1,0.1-0.2c0-0.1,0-0.1-0.1-0.2
	c0,0-0.1-0.1-0.2-0.1c-0.1,0-0.1,0-0.2,0.1C53.5,42.1,53.5,42.2,53.4,42.2z"/>
<path d="M49.5,41.7C49.4,41.7,49.4,41.7,49.5,41.7c-0.1,0-0.2,0-0.2,0.1c0,0,0,0-0.1,0.1c0,0,0,0.1,0,0.1c0,0.1,0,0.1,0.1,0.2
	s0.1,0.1,0.2,0.1c0,0,0.1,0,0.1,0c0,0,0.1,0,0.1,0c0,0,0,0,0.1-0.1c0,0,0-0.1,0-0.1c0,0,0-0.1,0-0.1c0,0,0-0.1,0-0.1
	C49.6,41.8,49.6,41.8,49.5,41.7C49.5,41.7,49.5,41.7,49.5,41.7z"/>
<path d="M61.1,44c0,0.1,0,0.1,0.1,0.2c0,0,0.1,0.1,0.2,0.1c0.1,0,0.1,0,0.2-0.1c0.1,0,0.1-0.1,0.1-0.2c0-0.1,0-0.1-0.1-0.2
	c0,0-0.1-0.1-0.2-0.1c-0.1,0-0.1,0-0.2,0.1C61.1,43.9,61.1,44,61.1,44z"/>
<path d="M57.1,43.5C57,43.5,57,43.5,57.1,43.5c-0.1,0-0.2,0-0.2,0.1c0,0,0,0-0.1,0.1c0,0,0,0.1,0,0.1c0,0.1,0,0.1,0.1,0.2
	c0,0,0.1,0.1,0.2,0.1c0,0,0.1,0,0.1,0c0,0,0.1,0,0.1,0c0,0,0,0,0.1-0.1c0,0,0-0.1,0-0.1c0,0,0-0.1,0-0.1c0,0,0-0.1,0-0.1
	C57.2,43.6,57.2,43.6,57.1,43.5C57.1,43.5,57.1,43.5,57.1,43.5z"/>
<path d="M51.2,43.7c0,0.1,0,0.1,0.1,0.2c0,0,0.1,0.1,0.2,0.1c0.1,0,0.1,0,0.2-0.1c0.1,0,0.1-0.1,0.1-0.2c0-0.1,0-0.1-0.1-0.2
	c0,0-0.1-0.1-0.2-0.1c-0.1,0-0.1,0-0.2,0.1C51.3,43.6,51.2,43.6,51.2,43.7z"/>
<path d="M65.5,38.5c0,0.1,0,0.1,0.1,0.2c0,0,0.1,0.1,0.2,0.1c0.1,0,0.1,0,0.2-0.1c0.1,0,0.1-0.1,0.1-0.2c0-0.1,0-0.1-0.1-0.2
	c0,0-0.1-0.1-0.2-0.1c-0.1,0-0.1,0-0.2,0.1C65.6,38.4,65.5,38.4,65.5,38.5z"/>
<path d="M59.3,44.9C59.2,44.8,59.2,44.9,59.3,44.9c-0.1,0-0.2,0-0.2,0.1s0,0-0.1,0.1c0,0,0,0.1,0,0.1c0,0.1,0,0.1,0.1,0.2
	c0,0,0.1,0.1,0.2,0.1c0,0,0.1,0,0.1,0c0,0,0.1,0,0.1,0c0,0,0,0,0.1-0.1c0,0,0-0.1,0-0.1c0,0,0-0.1,0-0.1c0,0,0-0.1,0-0.1
	C59.4,44.9,59.4,44.9,59.3,44.9C59.3,44.9,59.3,44.9,59.3,44.9z"/>
<path d="M53.4,45c0,0.1,0,0.1,0.1,0.2c0,0,0.1,0.1,0.2,0.1c0.1,0,0.1,0,0.2-0.1c0.1,0,0.1-0.1,0.1-0.2c0-0.1,0-0.1-0.1-0.2
	c0,0-0.1-0.1-0.2-0.1c-0.1,0-0.1,0-0.2,0.1C53.5,44.9,53.4,45,53.4,45z"/>
<path d="M49.4,44.5C49.4,44.5,49.4,44.5,49.4,44.5c-0.1,0-0.2,0-0.2,0.1c0,0,0,0-0.1,0.1c0,0,0,0.1,0,0.1c0,0.1,0,0.1,0.1,0.2
	c0,0,0.1,0.1,0.2,0.1c0.1,0,0.1,0,0.2-0.1c0,0,0.1-0.1,0.1-0.2c0,0,0-0.1,0-0.1s0-0.1,0-0.1C49.6,44.6,49.6,44.6,49.4,44.5
	C49.5,44.5,49.5,44.5,49.4,44.5z"/>
<path d="M66.1,11.3C66.1,11.3,66.1,11.3,66.1,11.3c-0.1,0-0.2,0-0.2,0.1c0,0,0,0-0.1,0.1c0,0,0,0.1,0,0.1c0,0.1,0,0.1,0.1,0.2
	c0,0,0.1,0.1,0.2,0.1c0,0,0.1,0,0.1,0c0,0,0.1,0,0.1,0c0,0,0,0,0.1-0.1c0,0,0-0.1,0-0.1c0,0,0-0.1,0-0.1c0,0,0-0.1,0-0.1
	C66.3,11.4,66.3,11.3,66.1,11.3C66.2,11.3,66.2,11.3,66.1,11.3z"/>
<path d="M60.3,11.5c0,0.1,0,0.1,0.1,0.2c0,0,0.1,0.1,0.2,0.1c0.1,0,0.1,0,0.2-0.1c0.1,0,0.1-0.1,0.1-0.2c0-0.1,0-0.1-0.1-0.2
	c0,0-0.1-0.1-0.2-0.1c-0.1,0-0.1,0-0.2,0.1C60.4,11.3,60.3,11.4,60.3,11.5z"/>
<path d="M56.3,11C56.3,11,56.3,11,56.3,11c-0.1,0-0.2,0-0.2,0.1c0,0,0,0-0.1,0.1c0,0,0,0.1,0,0.1c0,0,0,0.1,0,0.1c0,0,0,0.1,0,0.1
	c0,0,0,0,0.1,0.1c0,0,0.1,0,0.1,0c0,0,0.1,0,0.1,0c0,0,0.1,0,0.1,0c0,0,0,0,0.1-0.1c0,0,0-0.1,0-0.1c0,0,0-0.1,0-0.1
	c0,0,0-0.1,0-0.1C56.5,11,56.5,11,56.3,11C56.4,11,56.4,11,56.3,11z"/>
<path d="M67.9,13.3c0,0.1,0,0.1,0.1,0.2c0,0,0.1,0.1,0.2,0.1c0.1,0,0.1,0,0.2-0.1c0.1,0,0.1-0.1,0.1-0.2c0-0.1,0-0.1-0.1-0.2
	c0,0-0.1-0.1-0.2-0.1c-0.1,0-0.1,0-0.2,0.1C68,13.1,67.9,13.2,67.9,13.3z"/>
<path d="M63.9,12.8C63.9,12.8,63.9,12.8,63.9,12.8c-0.1,0-0.2,0-0.2,0.1c0,0,0,0-0.1,0.1c0,0,0,0.1,0,0.1c0,0.1,0,0.1,0.1,0.2
	c0,0,0.1,0.1,0.2,0.1c0,0,0.1,0,0.1,0c0,0,0.1,0,0.1,0c0,0,0,0,0.1-0.1c0,0,0-0.1,0-0.1c0,0,0-0.1,0-0.1c0,0,0-0.1,0-0.1
	C64.1,12.8,64.1,12.8,63.9,12.8C64,12.8,64,12.8,63.9,12.8z"/>
<path d="M58.1,13c0,0.1,0,0.1,0.1,0.2c0,0,0.1,0.1,0.2,0.1c0.1,0,0.1,0,0.2-0.1c0.1,0,0.1-0.1,0.1-0.2c0-0.1,0-0.1-0.1-0.2
	c0,0-0.1-0.1-0.2-0.1c-0.1,0-0.1,0-0.2,0.1C58.2,12.8,58.1,12.9,58.1,13z"/>
<path d="M70.1,14.6c0,0.1,0,0.1,0.1,0.2c0,0,0.1,0.1,0.2,0.1c0.1,0,0.1,0,0.2-0.1s0.1-0.1,0.1-0.2c0-0.1,0-0.1-0.1-0.2
	s-0.1-0.1-0.2-0.1c-0.1,0-0.1,0-0.2,0.1C70.2,14.5,70.1,14.5,70.1,14.6z"/>
<path d="M66.1,14.1C66.1,14.1,66.1,14.1,66.1,14.1c-0.1,0-0.2,0-0.2,0.1c0,0,0,0-0.1,0.1c0,0,0,0.1,0,0.1c0,0.1,0,0.1,0.1,0.2
	c0,0,0.1,0.1,0.2,0.1c0,0,0.1,0,0.1,0c0,0,0.1,0,0.1,0c0,0,0,0,0.1-0.1c0,0,0-0.1,0-0.1c0,0,0-0.1,0-0.1c0,0,0-0.1,0-0.1
	C66.3,14.1,66.3,14.1,66.1,14.1C66.2,14.1,66.2,14.1,66.1,14.1z"/>
<path d="M60.3,14.3c0,0.1,0,0.1,0.1,0.2c0,0,0.1,0.1,0.2,0.1c0.1,0,0.1,0,0.2-0.1c0.1,0,0.1-0.1,0.1-0.2c0-0.1,0-0.1-0.1-0.2
	c0,0-0.1-0.1-0.2-0.1c-0.1,0-0.1,0-0.2,0.1C60.3,14.1,60.3,14.2,60.3,14.3z"/>
<path d="M56.3,13.8C56.3,13.8,56.3,13.8,56.3,13.8c-0.1,0-0.2,0-0.2,0.1c0,0,0,0-0.1,0.1s0,0.1,0,0.1c0,0.1,0,0.1,0.1,0.2
	s0.1,0.1,0.2,0.1c0,0,0.1,0,0.1,0c0,0,0.1,0,0.1,0c0,0,0,0,0.1-0.1c0,0,0-0.1,0-0.1c0,0,0-0.1,0-0.1c0,0,0-0.1,0-0.1
	C56.5,13.8,56.4,13.8,56.3,13.8C56.4,13.8,56.3,13.8,56.3,13.8z"/>
<path d="M68.4,6.5C68.4,6.5,68.4,6.5,68.4,6.5c-0.1,0-0.2,0-0.2,0.1c0,0,0,0-0.1,0.1c0,0,0,0.1,0,0.1c0,0.1,0,0.1,0.1,0.2
	c0,0,0.1,0.1,0.2,0.1c0,0,0.1,0,0.1,0c0,0,0.1,0,0.1,0c0,0,0,0,0.1-0.1c0,0,0-0.1,0-0.1c0,0,0-0.1,0-0.1c0,0,0-0.1,0-0.1
	C68.6,6.5,68.6,6.5,68.4,6.5C68.5,6.5,68.5,6.5,68.4,6.5z"/>
<path d="M62.6,6.7c0,0.1,0,0.1,0.1,0.2c0,0,0.1,0.1,0.2,0.1c0.1,0,0.1,0,0.2-0.1c0.1,0,0.1-0.1,0.1-0.2c0-0.1,0-0.1-0.1-0.2
	c0,0-0.1-0.1-0.2-0.1c-0.1,0-0.1,0-0.2,0.1C62.7,6.5,62.6,6.6,62.6,6.7z"/>
<path d="M58.6,6.2C58.6,6.1,58.6,6.1,58.6,6.2c-0.1,0-0.2,0-0.2,0.1c0,0,0,0-0.1,0.1c0,0,0,0.1,0,0.1c0,0.1,0,0.1,0.1,0.2
	c0,0,0.1,0.1,0.2,0.1c0,0,0.1,0,0.1,0c0,0,0.1,0,0.1,0c0,0,0,0,0.1-0.1c0,0,0-0.1,0-0.1c0,0,0-0.1,0-0.1c0,0,0-0.1,0-0.1
	C58.8,6.2,58.7,6.2,58.6,6.2C58.7,6.2,58.7,6.2,58.6,6.2z"/>
<path d="M70.2,8.5c0,0.1,0,0.1,0.1,0.2c0,0,0.1,0.1,0.2,0.1c0.1,0,0.1,0,0.2-0.1c0.1,0,0.1-0.1,0.1-0.2c0-0.1,0-0.1-0.1-0.2
	c0,0-0.1-0.1-0.2-0.1c-0.1,0-0.1,0-0.2,0.1C70.3,8.3,70.2,8.4,70.2,8.5z"/>
<path d="M66.2,7.9C66.2,7.9,66.2,7.9,66.2,7.9c-0.1,0-0.2,0-0.2,0.1c0,0,0,0-0.1,0.1c0,0,0,0.1,0,0.1c0,0.1,0,0.1,0.1,0.2
	c0,0,0.1,0.1,0.2,0.1c0.1,0,0.1,0,0.2-0.1c0,0,0.1-0.1,0.1-0.2c0,0,0-0.1,0-0.1c0,0,0-0.1,0-0.1C66.4,8,66.4,8,66.2,7.9
	C66.3,8,66.3,7.9,66.2,7.9z"/>
<path d="M60.4,8.1c0,0.1,0,0.1,0.1,0.2s0.1,0.1,0.2,0.1c0.1,0,0.1,0,0.2-0.1c0.1,0,0.1-0.1,0.1-0.2c0-0.1,0-0.1-0.1-0.2
	c0,0-0.1-0.1-0.2-0.1c-0.1,0-0.1,0-0.2,0.1C60.4,8,60.4,8.1,60.4,8.1z"/>
<path d="M70.1,12c0,0.1,0,0.1,0.1,0.2c0,0,0.1,0.1,0.2,0.1c0.1,0,0.1,0,0.2-0.1c0.1,0,0.1-0.1,0.1-0.2c0-0.1,0-0.1-0.1-0.2
	s-0.1-0.1-0.2-0.1c-0.1,0-0.1,0-0.2,0.1C70.2,11.9,70.1,12,70.1,12z"/>
<path d="M68.4,9.3C68.4,9.3,68.4,9.3,68.4,9.3c-0.1,0-0.2,0-0.2,0.1c0,0,0,0-0.1,0.1c0,0,0,0.1,0,0.1c0,0.1,0,0.1,0.1,0.2
	c0,0,0.1,0.1,0.2,0.1c0,0,0.1,0,0.1,0c0,0,0.1,0,0.1,0c0,0,0,0,0.1-0.1c0,0,0-0.1,0-0.1c0,0,0-0.1,0-0.1c0,0,0-0.1,0-0.1
	C68.6,9.3,68.5,9.3,68.4,9.3C68.5,9.3,68.5,9.3,68.4,9.3z"/>
<path d="M62.6,9.4c0,0.1,0,0.1,0.1,0.2c0,0,0.1,0.1,0.2,0.1c0.1,0,0.1,0,0.2-0.1c0.1,0,0.1-0.1,0.1-0.2c0-0.1,0-0.1-0.1-0.2
	c0,0-0.1-0.1-0.2-0.1c-0.1,0-0.1,0-0.2,0.1C62.6,9.3,62.6,9.4,62.6,9.4z"/>
<path d="M58.6,8.9C58.6,8.9,58.5,8.9,58.6,8.9c-0.1,0-0.2,0-0.2,0.1c0,0,0,0-0.1,0.1c0,0,0,0.1,0,0.1c0,0.1,0,0.1,0.1,0.2
	c0,0,0.1,0.1,0.2,0.1c0.1,0,0.1,0,0.2-0.1c0,0,0.1-0.1,0.1-0.2c0,0,0-0.1,0-0.1c0,0,0-0.1,0-0.1C58.8,9,58.7,9,58.6,8.9
	C58.7,8.9,58.6,8.9,58.6,8.9z"/>
<path d="M51.9,14.6C51.9,14.6,51.8,14.6,51.9,14.6c-0.1,0-0.2,0-0.2,0.1c0,0,0,0-0.1,0.1c0,0,0,0.1,0,0.1c0,0.1,0,0.1,0.1,0.2
	c0,0,0.1,0.1,0.2,0.1c0,0,0.1,0,0.1,0c0,0,0.1,0,0.1,0s0,0,0.1-0.1c0,0,0-0.1,0-0.1c0,0,0-0.1,0-0.1c0,0,0-0.1,0-0.1
	C52.1,14.6,52,14.6,51.9,14.6C52,14.6,51.9,14.6,51.9,14.6z"/>
<path d="M54.2,12.5C54.2,12.5,54.1,12.5,54.2,12.5c-0.1,0-0.2,0-0.2,0.1s0,0-0.1,0.1c0,0,0,0.1,0,0.1c0,0.1,0,0.1,0.1,0.2
	c0,0,0.1,0.1,0.2,0.1c0.1,0,0.1,0,0.2-0.1c0,0,0.1-0.1,0.1-0.2c0,0,0-0.1,0-0.1c0,0,0-0.1,0-0.1C54.3,12.6,54.3,12.6,54.2,12.5
	C54.3,12.5,54.2,12.5,54.2,12.5z"/>
<path d="M51.6,47c0,0.1,0,0.1,0.1,0.2c0,0,0.1,0.1,0.2,0.1c0.1,0,0.1,0,0.2-0.1c0.1,0,0.1-0.1,0.1-0.2c0-0.1,0-0.1-0.1-0.2
	s-0.1-0.1-0.2-0.1c-0.1,0-0.1,0-0.2,0.1C51.6,46.9,51.6,47,51.6,47z"/>
<path d="M49.8,47.8C49.8,47.8,49.7,47.8,49.8,47.8c-0.1,0-0.2,0-0.2,0.1c0,0,0,0-0.1,0.1s0,0.1,0,0.1c0,0.1,0,0.1,0.1,0.2
	c0,0,0.1,0.1,0.2,0.1c0,0,0.1,0,0.1,0c0,0,0.1,0,0.1,0c0,0,0,0,0.1-0.1c0,0,0-0.1,0-0.1c0,0,0-0.1,0-0.1c0,0,0-0.1,0-0.1
	C49.9,47.9,49.9,47.9,49.8,47.8C49.9,47.9,49.8,47.8,49.8,47.8z"/>
<path d="M51.6,50.5c0,0.1,0,0.1,0.1,0.2c0,0,0.1,0.1,0.2,0.1c0.1,0,0.1,0,0.2-0.1c0.1,0,0.1-0.1,0.1-0.2c0-0.1,0-0.1-0.1-0.2
	c0,0-0.1-0.1-0.2-0.1c-0.1,0-0.1,0-0.2,0.1C51.6,50.3,51.6,50.4,51.6,50.5z"/>
<path d="M49.8,51.3C49.8,51.3,49.7,51.3,49.8,51.3c-0.1,0-0.2,0-0.2,0.1c0,0,0,0-0.1,0.1c0,0,0,0.1,0,0.1c0,0.1,0,0.1,0.1,0.2
	c0,0,0.1,0.1,0.2,0.1c0,0,0.1,0,0.1,0c0,0,0.1,0,0.1,0s0,0,0.1-0.1c0,0,0-0.1,0-0.1c0,0,0-0.1,0-0.1c0,0,0-0.1,0-0.1
	C49.9,51.3,49.9,51.3,49.8,51.3C49.9,51.3,49.8,51.3,49.8,51.3z"/>
<path d="M56.2,45.9c0,0.1,0,0.1,0.1,0.2c0,0,0.1,0.1,0.2,0.1c0.1,0,0.1,0,0.2-0.1c0.1,0,0.1-0.1,0.1-0.2c0-0.1,0-0.1-0.1-0.2
	c0,0-0.1-0.1-0.2-0.1c-0.1,0-0.1,0-0.2,0.1C56.2,45.8,56.2,45.8,56.2,45.9z"/>
<path d="M54.4,46.7C54.3,46.7,54.3,46.7,54.4,46.7c-0.1,0-0.2,0-0.2,0.1c0,0,0,0-0.1,0.1c0,0,0,0.1,0,0.1c0,0.1,0,0.1,0.1,0.2
	c0,0,0.1,0.1,0.2,0.1c0,0,0.1,0,0.1,0c0,0,0.1,0,0.1,0c0,0,0,0,0.1-0.1c0,0,0-0.1,0-0.1c0,0,0-0.1,0-0.1c0,0,0-0.1,0-0.1
	C54.5,46.8,54.5,46.7,54.4,46.7C54.4,46.7,54.4,46.7,54.4,46.7z"/>
<path d="M50.8,34.6C50.8,34.6,50.8,34.6,50.8,34.6c-0.1,0-0.2,0-0.2,0.1s0,0-0.1,0.1c0,0,0,0.1,0,0.1c0,0.1,0,0.1,0.1,0.2
	c0,0,0.1,0.1,0.2,0.1c0,0,0.1,0,0.1,0c0,0,0.1,0,0.1,0c0,0,0,0,0.1-0.1c0,0,0-0.1,0-0.1c0,0,0-0.1,0-0.1c0,0,0-0.1,0-0.1
	C51,34.6,50.9,34.6,50.8,34.6C50.9,34.6,50.9,34.6,50.8,34.6z"/>
<path d="M68,34.1C68,34.1,67.9,34.1,68,34.1c-0.1,0-0.2,0-0.2,0.1c0,0,0,0-0.1,0.1c0,0,0,0.1,0,0.1c0,0.1,0,0.1,0.1,0.2
	c0,0,0.1,0.1,0.2,0.1c0,0,0.1,0,0.1,0c0,0,0.1,0,0.1,0c0,0,0,0,0.1-0.1c0,0,0-0.1,0-0.1c0,0,0-0.1,0-0.1c0,0,0-0.1,0-0.1
	C68.2,34.1,68.1,34.1,68,34.1C68.1,34.1,68,34.1,68,34.1z"/>
<path d="M68,39.1C68,39.1,67.9,39.1,68,39.1c-0.1,0-0.2,0-0.2,0.1c0,0,0,0-0.1,0.1c0,0,0,0.1,0,0.1c0,0.1,0,0.1,0.1,0.2
	c0,0,0.1,0.1,0.2,0.1c0,0,0.1,0,0.1,0c0,0,0.1,0,0.1,0c0,0,0,0,0.1-0.1c0,0,0-0.1,0-0.1c0,0,0-0.1,0-0.1c0,0,0-0.1,0-0.1
	C68.1,39.2,68.1,39.2,68,39.1C68,39.1,68,39.1,68,39.1z"/>
<path d="M8.7,40.2c-1.2,0-1.9-0.9-1.6-1.9c0.3-0.8,1.3-1.1,2.2-0.8c0.2,0.1,0.3,0.1,0.5,0.3c0.1,0.1,0.3,0.3,0.3,0.4
	c0.1,0.2,0.1,0.3,0.1,0.5c0,0.2,0,0.4-0.1,0.5C10.1,39.9,9.5,40.2,8.7,40.2z"/>
<path d="M10.8,8.8c0,0.4-0.2,0.7-0.4,1c-0.3,0.3-0.6,0.4-1,0.4C9,10.2,8.6,10,8.2,9.7C7.9,9.4,7.8,8.9,7.7,8.5c0-0.4,0.2-0.7,0.4-1
	c0.3-0.3,0.6-0.4,1-0.4c0.4,0,0.8,0.2,1.2,0.5C10.6,8,10.8,8.4,10.8,8.8z"/>
<path d="M88,4.2c0,0.4-0.2,0.7-0.4,1c-0.3,0.3-0.6,0.4-1,0.4c-0.4,0-0.9-0.2-1.2-0.6c-0.3-0.3-0.5-0.7-0.5-1.2c0-0.4,0.2-0.7,0.5-1
	c0.3-0.2,0.6-0.4,1-0.4c0.4,0,0.8,0.2,1.1,0.5C87.8,3.3,88,3.7,88,4.2z"/>
<path d="M90,48.6c0.2,0,0.4,0,0.6,0.1c0.2,0.1,0.4,0.2,0.5,0.3c0.1,0.1,0.3,0.3,0.3,0.5c0.1,0.2,0.1,0.4,0.1,0.6
	c0,0.4-0.2,0.8-0.5,1c-0.3,0.3-0.7,0.4-1.1,0.4c-0.2,0-0.4,0-0.6-0.1c-0.2-0.1-0.3-0.2-0.5-0.3c-0.1-0.1-0.3-0.3-0.3-0.5
	c-0.1-0.2-0.1-0.4-0.1-0.6c0-0.2,0-0.4,0.1-0.6c0.1-0.2,0.2-0.4,0.3-0.5c0.1-0.1,0.3-0.2,0.5-0.3C89.6,48.6,89.8,48.6,90,48.6z"/>
<path d="M2,6C1.1,6,0.4,5.4,0.4,4.5c0-0.2,0.1-0.4,0.1-0.5c0.1-0.2,0.2-0.3,0.3-0.5c0.1-0.1,0.3-0.2,0.5-0.3S1.8,3.1,2,3.2
	c0.9,0,1.6,0.6,1.6,1.4S2.9,6,2,6z"/>
<path d="M7.4,53.5c-0.9,0-1.5-0.6-1.5-1.4c0-0.2,0-0.4,0.1-0.5c0.1-0.2,0.2-0.3,0.3-0.5c0.1-0.1,0.3-0.2,0.5-0.3
	c0.2-0.1,0.4-0.1,0.6-0.1c0.9,0,1.6,0.6,1.6,1.4S8.3,53.5,7.4,53.5z"/>
</svg>
