<?xml version="1.0" encoding="utf-8"?>
<!-- Generator: Adobe Illustrator 25.0.0, SVG Export Plug-In . SVG Version: 6.00 Build 0)  -->
<svg version="1.1" xmlns="http://www.w3.org/2000/svg" xmlns:xlink="http://www.w3.org/1999/xlink" x="0px" y="0px"
	 viewBox="0 0 96 75" style="enable-background:new 0 0 96 75;" xml:space="preserve">
<style type="text/css">
	.st0{display:none;}
	.st1{display:inline;fill:#A06A80;}
	.st2{display:inline;}
	.st3{display:inline;fill:#FFD265;}
	.st4{display:inline;fill:#8EC2D8;}
	.st5{fill:#FFFFFF;}
	.st6{fill:#A06A80;}
	.st7{fill:#FFD265;}
	.st8{fill:#8EC2D8;}
</style>
<g id="Capa_1" class="st0">
	<path class="st1" d="M31.9,47.2l0.6,0.6l1.2,1.2l1.8,1.2l0.9,0.7h1.8H41l2.3-1.2l2.3-1.8l2.3-2.9l1.2-2.9h2.9h3.5l2.9,1.2l1.8,1.2
		l0.8,0.7l0.7,0.9l0.3,0.7l1.2-0.6l3.5-1.2h2.3l1.8-0.6h2.3l2.7,0.6l2.6,0l2.8,1.5l1.9,0.3l2.6,2.9l0.9,0.7l1.2,2.3l0.6,2.4
		l-2.3,3.5l-5.9,6.5l-5.3,4.1L70.4,72l-5.3,1.2l-8.8,0.6L51,73.2l-5.9-1.8l-5.3-2.9l-3.5-3.5L34,60.8l-1.8-5.9l-1.2-4.7L30.8,49"/>
	<path class="st1" d="M35.4,50.4L30.2,49l-1.5-1.2l-2.1-0.1l-4,1.5l-2.5,0.4l-2.8,0.9l-3.4-0.3l-4-1.4l-3.7-1.9l-2.4-1.7l-2.4-1.7
		l1.5-1.1l3.5-1.9L8,40.3l-1-0.7l-3.3-2.4l-1.6-1.8l1.2-0.6l3.6-1l2.9-0.1l3.4,0.3l3.1,0.7l2.7,0.8l2.9,1.8l2.3,2.4l3.2,3.8l1.1,1.5
		l1,1.2l1.8,0.6l1.2,1.2l1.2,1.2l1.8,1.2"/>
	<path class="st2" d="M30.6,49.2c-1.6-1-3.3-1-5.1-0.5c-1.8,0.6-3.6,1.2-5.4,1.8c-3.2,1-6.4,0.8-9.6-0.5c-2.8-1.1-5.3-2.8-7.7-4.5
		c-0.5-0.4-1.1-0.8-1.6-1.2c-0.5-0.4-0.6-0.6,0-1.1c1.5-1.3,3.2-2.3,5.1-2.8c0.2,0,0.3-0.1,0.5-0.1c0,0,0,0,0.1-0.1
		c-0.9-0.6-1.8-1.2-2.6-1.9c-0.8-0.7-1.5-1.4-2.2-2.1c-0.4-0.5-0.4-0.7,0.2-1c2-1.1,4.1-1.5,6.3-1.7c5.3-0.4,10,1.1,14.2,4.3
		c1.9,1.5,3.4,3.4,4.7,5.4c0.5,0.7,0.9,1.4,1.4,2c0.1,0.2,0.3,0.3,0.5,0.4c0.2,0.2,0.5,0.3,0.7,0.5c1.6,0.5,2.3,1.2,2.3,1.2
		L30.6,49.2z M31.9,47.8c0.6-0.6-2.9-1.8-4.1-3c-0.4-0.6-0.9-1.3-1.3-1.9c-1.7-2.7-4.1-5-7-6.5c-2.1-1.2-4.5-2-6.9-2.2
		c-2.4-0.3-4.9-0.1-7.2,0.6c-1,0.3-2,0.6-3,0.9l0,0.1c0.2,0,0.4,0,0.5,0c0.8,0,1.7,0,2.5-0.1c3.2-0.3,6.4,0,9.4,0.9
		c4.8,1.5,8.8,4.1,11.8,8.2c0.4,0.5,0.9,0.9,1.6,1.1c0.3,0.1,0.6,0.3,0.9,0.4l-0.1,0.1c-0.2,0-0.3-0.1-0.5-0.1
		c-2.4-0.7-4.8-1.5-7.2-2.2c-3.4-1-6.9-1.6-10.5-1.8c-2.9-0.1-5.7,0.4-8.5,1c-0.1,0-0.2,0.1-0.3,0.1l0,0.1c1.2-0.1,2.4-0.2,3.6-0.2
		c4.6-0.1,9.2,0.3,13.7,1.1c3,0.5,6,1.3,9,2.3c0.1,0.1,0.3,0.1,0.4,0.2l-0.1,0.2c-8.4-2.8-17.3-4-26.2-3.4c0.4,0.1,0.7,0.2,1,0.3
		c2.8,0.9,5.7,1.5,8.7,1.7c2.9,0.2,5.8,0.3,8.8,0.5c2.7,0.2,7.8,1,9.6,2.8L31.9,47.8z M21.5,43.3L21.5,43.3c-0.2,0-0.3,0-0.4-0.1
		c-1.6-0.6-3.2-1.4-4.9-1.9c-3.6-1.1-7.2-1.2-10.7,0.2c-0.8,0.3-1.6,0.7-2.3,1.1l0.1,0.1l0.3-0.1c3.6-0.8,7.3-1,10.9-0.6
		c3.3,0.4,6.5,1.3,9.6,2.3c0.9,0.3,1.8,0.6,2.7,0.8c0-0.1,0-0.1,0-0.1c-0.1-0.1-0.1-0.2-0.2-0.3c-1.9-2.4-4.3-4.5-7-6
		c-3.6-2-7.4-3.1-11.5-3.1c-1.5,0-3,0.2-4.5,0.2c-0.2,0-0.5,0-0.7,0c0.1,0.1,0.3,0.2,0.4,0.2c1.6,0.2,3.2,0.4,4.8,0.5
		c2.3,0.2,4.5,0.6,6.7,1.3c3,1.1,5.8,2.6,8.4,4.4c0.8,0.6,1.7,1.2,2.5,1.8l-0.1,0.1c-0.1,0-0.2-0.1-0.3-0.1c-2.2-1.3-4.4-2.7-6.7-4
		c-2.6-1.5-5.6-2.6-8.6-3c-2-0.3-4-0.5-6-0.7c0,0-0.1,0-0.1,0c2.4,1.5,5.2,2.2,7.9,2.8C9,39.4,6.4,38.4,3.8,37c1.2,1.1,2.5,2,4,2.7
		c0.2,0.1,0.4,0.1,0.7,0.1c4.7-0.6,8.9,0.5,12.8,3.2C21.4,43.1,21.5,43.2,21.5,43.3z M5.7,45.6L5.7,45.6c1.5,0.4,3,0.9,4.5,1.4
		c2.4,0.7,4.8,1.1,7.3,0.9c1.6-0.1,3.1-0.4,4.7-0.6c1.5-0.2,3-0.2,4.5,0.2c0.2,0,0.5,0,0.7,0c-0.1-0.1-0.2-0.2-0.3-0.2
		c-3-0.7-6.1-0.9-9.2-1c-4.3-0.1-8.5-0.5-12.7-1.6c-0.4-0.1-0.9-0.2-1.3-0.3l0,0.1l0.4,0.3l0,0.1l-1.5-0.5c0.2,0.2,0.2,0.2,0.3,0.3
		c2.2,1.6,4.4,3.1,6.9,4.1c3.7,1.6,7.5,1.9,11.3,0.5c1.3-0.5,2.7-0.9,4.1-1.3c0.3-0.1,0.6-0.1,0.9-0.2c-1.1-0.3-2.4-0.3-3.5,0
		c-4.6,1.1-9.2,0.9-13.7-0.8C7.8,46.4,6.7,46,5.7,45.6z"/>
	<path class="st3" d="M49.9,41.4l1.2-3.5l0.6-3.5v-2.9l0.6-4.1l1-2.8l0.4-1.6l2.6-4.1l1-5.1l0.3-3.5l0.6-0.6l0.6-0.6l0.8,0.8
		l1.4,1.4l1.2,2l3.5-0.6l3.5-0.6l5.9,0.6l5.3,1.2l2.3,0.6h1.2l1.8-1.8l2.3-1.8l1.2,0.6l0.6,0.6l0.6,1.2l2.3,4.7l1.8,8.8l-0.2,8.5
		l-0.4,3.9l-0.6,4.7l-1.8,4.7l-2.3,6.5l-1.1,0.8l0.2-2.9l-1.5-3.3L83,46.4l-3.7-1.5L74,44.2l-2.4,0.1l-3.3,0.5l-3.2,0.7l-2.3,0.6
		l-0.6,0.5l-0.8-1.8l-1.5-1.4l-2.8-1.3l-2.2-0.3L51.7,42h-1.2L49.9,41.4z"/>
	<path class="st4" d="M63.4,38.5l0.6,1.8v2.9l0.6,1.2l1.8,0.6h2.3l1.8-0.4l0.5-0.2l0.6-2.4v-2.3L71,39.1l-1.2-1.2l-1.8-0.6v-1.8
		h-1.2l-0.6,1.8l-1.8,0.6L63.4,38.5z"/>
	<path class="st4" d="M68.6,26.2l-0.6,1.2l-0.3,1.9l-0.3,2.2V32h1.2l0.1-2.5l0.2-1.9L68.6,26.2z"/>
	<path class="st2" d="M32.5,47.2c0,0,0.6,0.5,0.7,0.7c1.1,1.6,1.6,1.6,3.4,2.5c3-0.1,5.9-0.6,8.4-2.5c1.9-1.4,3-3.5,4-5.6
		c1.4-2.9,1.9-6.1,2-9.3c0.1-2.8,0.4-5.6,1.4-8.3c0.6-1.6,1.4-3.1,2.1-4.7c1.2-2.7,2.1-5.6,2.3-8.6c0-0.6,0.2-1.2,0.4-1.8
		c0.4-1,1.2-1.2,2-0.6c1.2,0.9,2.2,2,3,3.2c0.1,0.1,0.2,0.2,0.2,0.3c2-0.2,4-0.4,5.9-0.6c0.6-0.1,1.2-0.1,1.8-0.1
		c3.8-0.1,7.6,0.5,11.2,1.6c0.8,0.2,1.7,0.2,2.5,0.2c0.2,0,0.5-0.3,0.7-0.5c0.7-0.6,1.3-1.2,2-1.8c0.3-0.2,0.6-0.5,0.9-0.6
		c0.8-0.4,1.5-0.3,2,0.5c0.4,0.6,0.7,1.3,1.1,2c0.4,0.7,0.8,1.3,1.2,2c0.9,1.5,1.4,3.2,1.8,4.9c0.8,2.9,1.4,5.8,1.5,8.8
		c0.1,2.2,0,4.4-0.1,6.6c-0.6,6.4-2.2,12.6-5.1,18.3C88,57.8,85.4,61,82.5,64c-4.3,4.3-9.3,7.6-15.2,9.4c-3,0.9-6.1,1.4-9.2,1.3
		c-4.5-0.2-8.9-0.9-13.1-2.5c-5.3-2.1-9-5.8-11.4-10.9c-1.6-3.4-2.5-7.1-2.8-10.8c0-0.8,0-0.8-0.6-1.4L32.5,47.2z M68.6,34.9
		l0.5,0.3c0.1-0.1,0.1-0.3,0.1-0.4c0-0.3,0-0.5-0.1-0.8h-0.6C68.5,34.3,68.5,34.6,68.6,34.9c-0.1-0.3-0.2-0.5-0.3-0.8
		c0,0-0.1-0.1-0.1-0.1c-0.1,0-0.1,0-0.2,0c-0.1,0-0.2,0.1-0.2,0.2c-0.2,0.5,0,0.8,0.5,0.8L68.6,34.9z M67.2,35.1l-0.6,0.1l0.1-0.1
		l-0.2-0.1c0.3-0.7,0.2-1.1-0.3-1.3c-0.3,0.6-0.2,0.9,0.3,1.3l-1.2,0.2c0.1,0.4,0.1,0.8,0.1,1.2c-0.1,0.4-0.2,0.8-0.4,1.1l1.5-0.1
		c0.1-0.6,0.2-1.3,0.3-1.9h0.1c-0.1,1-0.2,2-0.2,3.1h1c0.1-0.8,0.2-1.5,0.3-2.3H68v1.1h1.6l0.6-2.1l-2,0.1L68,35.9l-0.1-0.5
		L67.2,35.1c0.2-0.8,0.1-1-0.3-1.1C66.8,34.7,66.8,34.8,67.2,35.1L67.2,35.1z M68.5,30.9c0-0.1,0.1-0.1,0.1-0.2c0.1-1,0.2-2,0.3-2.9
		c0-0.4-0.1-0.7-0.2-1c-0.7,0.3-0.9,0.8-0.9,1.5c0,0.4,0,0.8-0.1,1.1c-0.1,0.7-0.2,1.5-0.3,2.3c-0.2-0.3,0.1-0.8-0.4-0.8
		c-1,0.1-2,0.3-3,0.4c-0.2,0-0.3,0.1-0.5,0.2c-0.1,0.1-0.2,0.3-0.2,0.5c0,0.4,0.3,0.6,0.6,0.7c1.4,0.6,2.9,0.8,4.4,0.8
		c1,0,2-0.1,2.9-0.3c0.1,0,0.1,0,0.2-0.1l0.7-0.3v0.7c0.4,0.1,0.6,0,0.7-0.3l1-0.3c1.9-0.6,3.9-0.4,5.8-0.1c0.2,0,0.5,0.1,0.7,0.1
		v0.1c-0.1,0-0.2,0-0.3,0.1c-0.4,0-0.8,0-1.1,0c-2.2,0-4.3,0.4-6.3,1.2c-0.1,0-0.1,0-0.2,0.1c-0.3,0.3-0.6,0.5-0.9,0.8
		c-0.4,0.4-0.8,0.6-0.9,1.3c-0.1,0.9,0.1,1.5,0.8,2c0.4,0.3,0.9,0.5,1.4,0.7c0.5,0.1,1,0.1,1.5,0c0.8-0.2,1.6-0.5,2.4-0.8l1.3-0.5
		l0.1,0.2c-1.8,1.1-3.7,2.1-6,1.8c-0.2,1.4-0.4,2.8-0.6,4.2c0.2,0,0.3,0,0.5,0c1.2,0,2.4,0,3.6,0.1c2.7,0.2,5.4,1,7.7,2.4
		c2.2,1.3,3.9,3,4.7,5.5c0.2,0.7,0.4,1.5,0.6,2.3c0.3-0.6,0.6-1.1,0.8-1.6c1.1-2.4,2.3-4.7,2.4-7.3c0-0.2,0.1-0.5,0.1-0.7
		c0,0-0.1,0-0.1,0.1c0,0-0.1,0.1-0.1,0.1c-0.2,0.4-0.3,0.9-0.5,1.3c-0.1,0.2-0.4,0.2-0.6,0.4c0-0.2,0-0.4,0-0.6
		c0.1-0.5,0.3-0.9,0.4-1.4c-0.3,0.4-0.5,0.7-0.7,1.1c-0.1,0.1-0.2,0.3-0.4,0.4c-0.1-0.2-0.1-0.3-0.1-0.5c0.1-0.6,0.2-1.2,0.2-1.8
		c-0.2,0.4-0.4,0.9-0.6,1.4c-0.1,0.2-0.2,0.4-0.5,0.2c0.1-0.6,0.1-1.2,0.2-1.7c-0.1,0.2-0.3,0.3-0.3,0.5c0,0.1-0.1,0.1-0.2,0.2
		c0-0.1-0.1-0.2-0.1-0.3c0.1-0.4,0.2-0.9,0.3-1.3c0-0.1,0.1-0.1,0.1-0.1c0.3,0.1,0.4-0.2,0.5-0.3c0.1-0.1,0.2-0.1,0.4-0.1l-0.1,1
		c0.1-0.2,0.3-0.4,0.4-0.6c0.1-0.1,0.3-0.2,0.4-0.2c0.1,0.1,0.1,0.3,0.1,0.4c0,0.4-0.1,0.9-0.2,1.3c0.3-0.5,0.6-0.9,0.8-1.4
		c0.1-0.1,0.2-0.2,0.3-0.3c0.1,0.1,0.1,0.3,0.2,0.4c0,0.1,0,0.3,0,0.4c0.2-0.3,0.4-0.7,0.5-1c0-0.1,0.1-0.1,0.1-0.1s0.1-0.1,0.2-0.1
		c0.1,0,0.2,0.2,0.2,0.3c0,0.2,0,0.4,0,0.6c0.1-0.1,0.2-0.2,0.2-0.4c0.2-1,0.4-1.9,0.6-2.9c0.1-0.6,0-1.1-0.6-1.4l0,0
		c-0.2-0.2-0.3-0.4-0.4-0.6c-0.1-0.3,0-0.5,0.1-0.7c0.1-0.2,0.1-0.4,0.1-0.6c0.1-0.1,0.2-0.3,0.3-0.4c0.1,0.1,0.2,0.3,0.2,0.4
		c0.1,0.4,0.1,0.9,0.1,1.3c0.1-0.1,0.2-0.2,0.2-0.3c-0.4-0.5,0-0.8,0.2-1.2c0.1-0.2,0.2-0.3,0.2-0.5c0.1-0.9,0.1-1.8,0.2-2.7
		c0-0.1,0-0.3,0-0.3c-0.5-0.4-0.3-0.9-0.4-1.4c0-0.1,0-0.2-0.1-0.3c-0.1,0.5-0.2,1-0.2,1.5c-0.1,0.2-0.1,0.3-0.2,0.5
		c-0.2-0.1-0.4-0.2-0.5-0.4c-0.1-0.4-0.3-0.8-0.4-1.2c0,0.2-0.1,0.5-0.1,0.7c-0.1,0.2-0.2,0.3-0.3,0.4c-0.1-0.1-0.2-0.3-0.3-0.4
		c-0.1-0.4-0.1-0.8-0.2-1.1h-0.1c0,0.4,0,0.8,0,1.1c0,0.1-0.1,0.2-0.2,0.4C91.2,32.1,91,32,91,31.9c-0.1-0.2-0.2-0.5-0.3-0.7
		c-0.1,0.2-0.1,0.4-0.2,0.6c0,0.1-0.1,0.2-0.2,0.2c-0.1-0.1-0.2-0.1-0.2-0.2c-0.1-0.3-0.2-0.6-0.3-1l-0.1,0.1l-0.3,0.3
		c-0.1-0.1-0.1-0.2-0.2-0.4c-0.2-0.6,0.5-0.7,0.5-1.2l0.1,0l0.4,0.9c0.1-0.4,0.1-0.7,0.2-1c0.1-0.1,0.1-0.2,0.2-0.3
		c0.1,0.1,0.2,0.2,0.2,0.3c0.1,0.3,0.1,0.5,0.2,0.8c0.2-0.4,0.3-0.8,0.4-1.3c0-0.1,0.2-0.2,0.3-0.3c0.1,0.1,0.1,0.2,0.2,0.3
		C92,29.4,92,29.7,92,30c0.1-0.3,0.2-0.7,0.3-1c0.1-0.2,0.2-0.3,0.3-0.4c0.1,0.2,0.3,0.3,0.3,0.5c0.1,0.7,0.1,1.4,0.2,2.1
		c0.1-0.1,0.1-0.1,0.1-0.2c0.1-0.6,0.1-1.2,0.2-1.8c0-0.1,0.1-0.2,0.2-0.3c0.1,0.1,0.3,0.1,0.3,0.2c0.1,0.2,0.2,0.5,0.3,0.7
		c0.1-0.1,0.1-0.3,0.1-0.5c-0.1-1.5-0.2-3-0.4-4.5c-0.3-2.7-0.8-5.3-1.9-7.8c-0.4-0.9-0.9-1.9-1.3-2.8c-0.4-0.8-0.8-1.5-1.2-2.3
		c-0.5-0.8-1.1-0.9-1.9-0.4c-0.4,0.3-0.8,0.6-1.2,0.9c-0.7,0.6-1.3,1.1-2,1.7c-0.2,0.2-0.4,0.3-0.7,0.4c-0.9-0.1-1.7-0.2-2.6-0.4
		c-0.7-0.2-1.4-0.5-2.2-0.2c0.2,0.1,0.3,0.1,0.5,0.2c0.1,0.1,0.2,0.2,0.3,0.3c-0.1,0.1-0.2,0.1-0.4,0.2c-0.3,0-0.5,0-0.8,0l0.3,0.5
		l-0.5,0.2c0,0.2,0,0.3,0,0.4c-0.4,0.1-0.9,0.1-1.3,0.1c-0.3-0.1-0.7-0.2-0.9-0.5C76,15.3,76,15.1,76,15h0.1l-0.3-0.4
		c0.2-0.1,0.3-0.1,0.5-0.1c0.2,0,0.4,0.1,0.6,0.1c-0.2-0.2-0.5-0.4-0.8-0.5c-0.1-0.1-0.3-0.3-0.4-0.4c0.2,0,0.3-0.1,0.5-0.1
		c0,0,0.1,0,0.1,0c0,0,0.1,0,0.1,0c-0.6-1-1.6-0.6-2.5-0.8l0.2,0.3l-0.4,0.5c-0.2-0.2,0,0,0,0.1c-0.1,0.1-0.2,0.2-0.3,0.3
		c0.1,0.1,0.2,0.3,0.2,0.5s-0.3,0.2-0.4,0.2l0.2,0.4c-0.1,0.1-0.3,0.1-0.4,0.1c-0.2,0-0.3,0-0.5,0l0.3,0.5c-0.2,0-0.3,0.1-0.5,0.1
		c-0.1,0-0.2,0-0.2,0c-0.3,0.1-0.6,0.1-0.9,0c-0.3-0.1-0.5-0.3-0.7-0.5l0.8-0.1c-0.2-0.1-0.5-0.2-0.7-0.3c-0.1-0.1-0.2-0.2-0.2-0.3
		c0.1-0.1,0.2-0.1,0.4-0.1c0.3,0,0.6,0.1,1,0.1c-0.3-0.2-0.7-0.3-1-0.4c-0.1,0-0.2-0.2-0.2-0.2c0-0.1,0.1-0.2,0.2-0.2
		c-0.1-0.1-0.2-0.3-0.1-0.4c0.1-0.1,0.2-0.1,0.4-0.2l-0.7-0.5c-0.3,0-0.8,0-1.2,0c-0.3,0-0.5,0.1-0.2,0.4c0.1,0.1,0,0.2,0,0.3
		c0,0.1,0,0.2-0.1,0.3c-0.1,0.3,0.4,0.8-0.1,1c0,0.2,0,0.5,0,0.5c-0.3,0.2-0.6,0.3-0.9,0.3c-0.6,0-1.1-0.1-1.7-0.3
		c0,0-0.1,0-0.1-0.1c0,0,0-0.1-0.1-0.1c0-0.1,0.1-0.1,0.2-0.2c0.2,0,0.4,0,0.7,0c-0.4-0.1-0.8-0.2-0.9-0.4c-0.2-0.2-0.1-0.5-0.2-0.8
		l-0.2-0.3l0.6-0.4c-1.2,0-2.6,0.2-3.7,0.2c-0.2-0.2-0.4-0.4-0.6-0.6c-0.8-0.8-1-1.7-1.9-2.5c-0.4-0.4-0.8-0.8-1.4-0.6
		c-0.6,0.2-0.7,0.8-0.8,1.3c-0.2,1.2-0.3,2.4-0.5,3.5l-0.2,0c0,0.3,0,0.5,0,0.8c0,0.2-0.1,0.4-0.1,0.6c-0.1,1.3-0.5,2.6-1,3.8
		c-0.5,1.1-1.1,2-1.7,3.1c-0.4,0.8-0.8,1.6-1.2,2.4l0.1,0.1c0.2,0,0.4,0,0.5-0.1c0.3-0.3,0.5-0.1,0.6,0.1c0.4-0.3,0.5-0.2,0.6,0.2
		l0.1,0.6c0.1-0.1,0.2-0.2,0.2-0.4c0.1-0.1,0.1-0.2,0.2-0.3c0.1,0.1,0.2,0.1,0.3,0.2c0.4,0.4,0.2,0.8,0.1,1.3
		c-0.1,0.4-0.1,0.4-0.5,0.4l-0.4,0.5l-0.4-0.6c-0.1,0.3-0.1,0.6-0.2,1c0,0.1-0.1,0.1-0.1,0.1c-0.1,0-0.1,0.1-0.2,0.1
		c-0.1,0-0.2-0.1-0.2-0.2c0-0.1,0-0.1,0-0.2c-0.1,0.2-0.3,0.4-0.5,0.7L52.6,28c-0.2,0.3-0.4,0.7-0.6,1.1c-0.1,0.7-0.2,1.4-0.2,2
		c0,0.1,0,0.3,0,0.4c0.2,0.2,0.3,0.4,0.5,0.6c0-0.1,0-0.2,0.1-0.4c0.1-0.1,0.1-0.2,0.2-0.3c0.1,0.1,0.2,0.2,0.3,0.2
		c0.1,0.1,0.1,0.1,0.2,0.1c0.4,0.1,0.8,1,0.5,1.2c-0.1,0.1-0.2,0.2-0.2,0.3c-0.1,0.1-0.1,0.2-0.1,0.3c-0.1,0.3-0.3,0.3-0.4,0.1
		c-0.1-0.1-0.1-0.2-0.1-0.2l-0.3,0.7L52,33.9c-0.1,0.2-0.4,0.3-0.4,0.5c-0.1,0.8-0.1,1.7-0.1,2.5c0,0.1,0.3,0.2,0.4,0.2
		c0.4-0.4,0.5-0.1,0.6,0.3c0.2-0.3,0.3-0.4,0.6-0.1c0.4,0.5,0.2,1.1,0.2,1.7c0,0.2-0.1,0.3-0.2,0.5l-0.4-0.2
		c-0.2,0.2-0.4,0.4-0.6,0.6l-0.3-0.8c-0.1,0.3-0.4,0.4-0.7,0.2l-0.9,2.6c0,0,0.1,0,0.1,0c1.6-0.3,3.3-0.3,4.9-0.1
		c2.1,0.3,4.1,0.9,5.7,2.5c0.6,0.6,1.1,1.3,1.5,2l3.4-1.3c-0.5-0.1-1-0.3-1.5-0.5c-0.2-0.1-0.4-0.2-0.5-0.3
		c-0.1-0.2-0.2-0.4-0.2-0.6c0-0.8-0.1-1.6-0.2-2.4c-0.1-0.8-0.1-1.7-0.2-2.5c-2.1,0.3-5.4-0.7-6.3-1.9c0.4,0.1,0.8,0.2,1.2,0.3
		c0.7,0.2,1.3,0.6,2,0.8c0.9,0.3,1.9,0.3,2.8-0.1c1.6-0.8,1.9-2.2,0.7-3.5c-1-1-2.3-1.7-3.8-1.9c-1.6-0.2-3.2-0.3-4.7-0.4l-0.5,0
		l0-0.2c2.7-0.4,5.3-0.7,7.9,0.6c-0.1-1.1,0.6-1.6,1.5-1.8c0.3-0.1,0.5-0.1,0.8-0.2c0.8-0.1,1.6-0.1,2.4-0.1
		c0.1-0.9,0.2-1.9,0.3-2.8c0-0.1,0-0.2,0-0.3c-0.3,0-0.7,0-1,0c-0.3-0.1-0.6-0.2-0.9-0.5c-0.2-0.3-0.3-0.5-0.4-0.8l0.1-0.1
		c0,0.1,0,0.3,0.1,0.4c0,0.1,0.1,0.2,0.2,0.3c0.1,0.1,0.2,0.2,0.3,0.2s0.3,0.1,0.4,0.1c0.7,0.1,1.3,0,1.8-0.6
		c0.1-0.1,0.1-0.2,0.1-0.3c0-0.1,0-0.2-0.1-0.3c-0.2-0.4-0.4-0.7-0.6-1.1c-0.2-0.4,0-0.6,0.4-0.6c0.5,0,1,0.1,1.6,0.2
		c0.3,0.1,0.4,0.3,0.2,0.6c-0.2,0.3-0.5,0.6-0.7,1c-0.1,0.1-0.2,0.3-0.2,0.5c0,0.2,0.1,0.5,0.3,0.6c0.2,0.2,0.4,0.3,0.6,0.4
		c0.2,0.1,0.5,0.1,0.7,0c0.2-0.1,0.4-0.2,0.6-0.4c0.1-0.1,0.2-0.2,0.2-0.3c-0.2,0.9-0.7,1.1-2.3,0.8c-0.1,0.9-0.2,1.8-0.3,2.7
		C68.7,30.5,68.6,30.7,68.5,30.9L68.5,30.9z M32.5,48.4c0,0.1-1.2,0.5-1.2,0.6c0.2,1.1,0.3,2,0.6,3.3c0.6,2.9,1.3,5.8,2.6,8.5
		c2.5,5.3,6.5,9,12,10.9c3.6,1.2,7.4,1.9,11.2,2c5.7,0.2,10.9-1.2,15.8-4c5.7-3.2,10.2-7.7,13.9-13.1c0.3-0.4,0.5-0.8,0.6-1.2
		c0.1-0.5,0.1-0.9,0-1.4c-0.1-0.3-0.1-0.6-0.2-0.9c-1-3.1-3.2-5.1-6-6.3c-2.8-1.3-5.8-1.8-8.9-1.8c-0.6,0-1.2-0.1-1.7,0.1
		c-0.9,0.4-1.8,0.4-2.7,0.4c-0.5,0-1,0-1.5,0.1c-1.3,0.4-2.7,0.8-4,1.2c-0.2,0.1-0.4,0.2-0.6,0.3c-0.1-0.1-0.1-0.1-0.2-0.2
		c-0.6-1.4-1.7-2.3-3-3c-1.8-1-3.7-1.4-5.7-1.4c-1,0-2,0.1-3.1,0.1c-0.1,0-0.3,0.1-0.4,0.2c-0.1,0.1-0.2,0.2-0.2,0.4
		c-0.2,0.5-0.5,1.1-0.8,1.6c-1.2,2.3-2.8,4.3-5.3,5.4c-2,0.9-4.9,1.4-7.1,1.4L32.5,48.4z M67.9,39.1c-0.4,0.4,0.2,1.4-1,1.3
		c-1.2-0.1-0.6-0.9-0.6-1.5l-2.5-0.4c0.1,1.5,0.2,3,0.4,4.5c0.1,0.9,0.3,1.2,1.2,1.3c0.7,0.1,1.4,0.2,2.1,0.2c0.9,0,1.7,0,2.6-0.1
		c0.6-0.1,0.8-0.3,0.9-0.9c0.2-1.1,0.3-2.3,0.5-3.4c0-0.1,0-0.3,0-0.4c-0.4-0.2-0.7-0.6-1.1-0.6C69.6,39.1,68.8,39.1,67.9,39.1
		L67.9,39.1z M67.9,38.6h2.2c-0.3-0.7-0.3-0.7-1-0.8l-0.4,0C67.9,37.8,67.9,37.8,67.9,38.6L67.9,38.6z M66.4,37.7
		c-0.7,0.2-1.5-0.2-2.1,0.6c0.5,0.1,1,0.2,1.4,0.2C66.5,38.6,66.5,38.6,66.4,37.7L66.4,37.7z M67.6,39c-1-0.2-1-0.2-1.1,0.5
		c-0.1,0.4,0.1,0.7,0.6,0.6C67.9,40.1,67.4,39.4,67.6,39L67.6,39z M69.5,35c0.6-0.1,0.8-0.3,0.7-0.8c-0.1-0.2-0.2-0.4-0.5-0.3
		c-0.3,0.1-0.3,0.2-0.3,0.5C69.5,34.6,69.5,34.8,69.5,35L69.5,35z M70.6,34.7c0.6,0,0.2-0.7,0.6-0.9l0.2,0.5
		c0.1-0.1,0.3-0.2,0.3-0.3c0-0.1,0-0.2,0-0.4c0,0-0.2-0.1-0.2-0.1C70.6,33.6,70.5,33.9,70.6,34.7L70.6,34.7z M65.6,34.6
		c0-0.3,0.2-0.7-0.4-0.7C65.1,34.5,65.2,34.5,65.6,34.6z"/>
	<path class="st2" d="M93,38.2c0.2,0.4,0.3,0.8,0.4,1.2c0,0.1-0.2,0.3-0.3,0.4c-0.1-0.1-0.1-0.3-0.2-0.4c0-0.3-0.1-0.5-0.2-0.8
		c-0.1,0.3-0.1,0.5-0.2,0.8c-0.1,0.1-0.1,0.3-0.2,0.4c-0.1-0.1-0.3-0.1-0.4-0.3c-0.1-0.2-0.1-0.5-0.1-0.7c0-0.3,0-0.6,0-0.9
		c-0.1,0.2-0.1,0.4-0.2,0.7c-0.1,0.1-0.2,0.2-0.3,0.3c-0.1-0.1-0.2-0.3-0.2-0.4c0-0.2,0-0.5,0-0.7c-0.1,0-0.1,0-0.1,0
		c-0.2,0.2-0.4,0.4-0.6,0.5c-0.1-0.2-0.1-0.5-0.2-0.7c0-0.2,0-0.5,0-0.7l-0.1,0c0,0.2-0.1,0.3-0.2,0.5c-0.1,0.1-0.1,0.2-0.2,0.3
		c-0.1-0.1-0.2-0.1-0.2-0.2c-0.1-0.4-0.1-0.9-0.2-1.3l0.2,0l0.2,0.5c0.1-0.3,0.2-0.6,0.4-0.9c0-0.1,0.1-0.1,0.2-0.2
		c0.1,0.1,0.2,0.2,0.2,0.2c0,0.4,0.1,0.9,0.2,1.3c0.1-0.4,0.2-0.8,0.3-1.1c0.1-0.1,0.2-0.3,0.4-0.4c0.1,0.1,0.1,0.3,0.2,0.5
		c0,0.3,0,0.5,0,0.8l0.1,0c0.1-0.4,0.2-0.9,0.3-1.3c0.1-0.2,0.2-0.3,0.3-0.4c0.1,0.2,0.2,0.3,0.2,0.5c0,0.4,0,0.9,0,1.3
		c-0.1,0.2,0,0.5,0.1,0.7C92.6,37.9,92.8,38.1,93,38.2L93,38.2z"/>
	<path class="st2" d="M81.2,57.7c0,0.3-0.1,0.6-0.2,0.9c-0.2,0.3-0.4,0.5-0.7,0.7c-0.3,0.2-0.7,0.2-1,0.2c-0.3,0-0.7-0.1-1-0.3
		c-0.3-0.2-0.5-0.5-0.6-0.8c-0.2-0.6-0.5-1-1.1-1.3c-0.8-0.4-1.1-1.2-1-2.1c0-0.2,0.2-0.3,0.3-0.4c0.1,0.1,0.2,0.3,0.2,0.5
		c0,1.2,0.7,1.9,1.8,1.8c0.3-0.1,0.6-0.2,0.8-0.4c0.2-0.2,0.3-0.3,0.1-0.6c-0.2-0.3-0.3-0.7-0.2-1c0-0.4,0.2-0.7,0.5-0.9
		c0,0.4,0.1,0.8,0.1,1.1c0,0.2,0,0.3,0.1,0.5c0.1,0.2,0.2,0.3,0.3,0.4c0.1,0.1,0.3,0.2,0.5,0.2c0.2,0,0.4,0,0.5,0
		c0.2-0.1,0.5-0.2,0.7-0.3c0.2-0.2,0.3-0.4,0.4-0.6c0.1-0.2,0.2-0.4,0.3-0.6c0.2,0.4,0,1.1-0.5,1.6c-0.6,0.6-1.3,0.7-2.2,0.3
		c-0.4,0.3-0.8,0.6-1.2,1c0,0-0.1,0.1-0.1,0.1c0,0.1,0,0.1,0,0.2c0.1,0.3,0.2,0.6,0.4,0.9c0.2,0.2,0.5,0.4,0.9,0.5
		c0.3,0,0.7,0,0.9-0.2c0.3-0.2,0.5-0.4,0.6-0.7c0.1-0.1,0.1-0.3,0.2-0.4L81.2,57.7z"/>
	<path class="st2" d="M67.2,54.6c-0.2,0.2-0.4,0.3-0.5,0.4c-0.2,0.1-0.6,0.2-0.5,0.6c0,0.2,0.1,0.4,0.2,0.6c0.1,0.2,0.2,0.4,0.4,0.5
		c0.3,0.2,0.6,0.3,0.9,0.2c0.3,0,0.6-0.2,0.8-0.4c0.2-0.1,0.3-0.2,0.5-0.4c0,0.7-0.7,1.3-1.6,1.4c-1.1,0.1-1.8-0.7-1.9-2.1
		c-1.7-0.5-2.7-1.8-1.9-2.8c0.1,0.2,0.2,0.5,0.3,0.7c0.1,0.3,0.2,0.5,0.3,0.7c0.2,0.2,0.4,0.4,0.6,0.5c0.3,0.2,0.7,0.2,1,0.1
		c0.3-0.1,0.6-0.3,0.8-0.6c0.2-0.3,0.2-0.5,0.4-0.8c0-0.1,0.1-0.2,0.2-0.2c0.1,0,0.2,0.1,0.2,0.2c0,0.1,0.1,0.2,0.1,0.3
		c0,0.2,0.1,0.4,0.2,0.6c0.1,0.2,0.3,0.3,0.5,0.4c0.2,0.1,0.4,0.1,0.6,0.1c0.2,0,0.4-0.1,0.6-0.2c0.2-0.1,0.3-0.3,0.4-0.4
		c0.1,0,0.2-0.1,0.4-0.1c0,0.1,0,0.3,0,0.4c-0.4,0.7-1.5,1-2.3,0.6C67.7,54.9,67.4,54.8,67.2,54.6z"/>
	<path class="st2" d="M48.5,64.4c-0.1,0.1-0.3,0.3-0.4,0.4c-0.6,0.6-0.8,1.1-0.6,1.6c0.2,0.6,0.8,0.9,1.6,0.9c0.3,0,0.6,0,0.9,0
		c-0.9,0.9-2.1,0.6-3.1-0.7c-0.8,0.3-1.6,0.4-2.4-0.1c-0.3-0.3-0.6-0.6-0.7-1c-0.1-0.3-0.2-0.6,0-1c0.1-0.3,0.3-0.6,0.6-0.7
		c-0.1,0.9-0.5,1.8,0.4,2.3c0.6,0.4,1.3,0.1,1.9,0l0.3-1c-0.7-0.1-1.3-0.4-1.6-1.1c-0.1-0.4-0.1-0.7-0.1-1.1
		c0.2-0.7,0.8-1.2,1.4-1.1C46.2,62.4,45.4,63,46,64c0.6,1,1.6,0.7,2.5,0.3L48.5,64.4z"/>
	<path class="st2" d="M52.3,50.9c-0.1,0.2-0.2,0.5-0.3,0.7c-0.2,0.2-0.3,0.5-0.2,0.8s0.2,0.5,0.4,0.7c0.8,0.8,2,0.7,2.7-0.3
		c0.1-0.2,0.3-0.4,0.5-0.6c0.2,0.8-0.5,1.6-1.4,1.9c-1.3,0.3-2.2-0.3-2.7-1.9c-0.3,0.1-0.7,0.1-1.1,0c-0.4-0.1-0.7-0.3-0.9-0.6
		c-0.2-0.2-0.4-0.5-0.4-0.7s-0.1-0.6-0.1-0.9c0-0.2,0.2-0.3,0.3-0.4c0.1,0.1,0.2,0.3,0.2,0.4c0.1,1,0.6,1.6,1.4,1.6
		c0.4,0,0.8-0.3,1.2-0.5c0.1-0.1,0.3-0.2,0.4-0.4L52.3,50.9z"/>
	<path class="st2" d="M73.4,66.3c0.3,0.6,0,0.9-0.3,1.2c-0.5,0.5-1.2,0.6-2.1,0.3c-0.1,0.2-0.3,0.4-0.6,0.6
		c-0.2,0.2-0.5,0.3-0.7,0.3c-0.3,0.1-0.5,0-0.8,0c-0.3-0.1-0.5-0.2-0.7-0.3c-0.9-0.6-1.1-1.5-0.6-2.2l-0.3,0.2
		c0-0.1-0.1-0.1-0.1-0.2c0.1-0.2,0.2-0.6,0.3-0.6c0.3,0,0.3,0.3,0.3,0.6c0,0.5,0.1,1.1,0.5,1.5c0.1,0.2,0.3,0.3,0.5,0.4
		c0.2,0.1,0.4,0.1,0.6,0.1c0.2,0,0.4,0,0.6-0.1s0.4-0.2,0.5-0.3c0,0,0.1-0.1,0.1-0.1c0,0,0-0.1,0.1-0.2c0-0.1,0-0.1,0-0.2
		c0-0.1,0-0.1-0.1-0.1c-0.1-0.2-0.2-0.4-0.2-0.7c0-0.2,0-0.5,0.1-0.7c0-0.1,0.2-0.2,0.3-0.3c0,0.1,0.1,0.3,0.1,0.4
		c0,0.6,0,1.2,0.7,1.6c0.3,0.1,0.6,0.2,0.9,0.1c0.3-0.1,0.5-0.3,0.7-0.5C73,66.7,73.2,66.6,73.4,66.3z"/>
	<path class="st2" d="M42.8,56.5c0-1,0.3-1.4,0.9-1.4c-0.1,0.2-0.1,0.3-0.2,0.5c-0.1,0.2-0.2,0.4-0.2,0.7c0,0.2,0.1,0.5,0.2,0.6
		c0.1,0.2,0.3,0.3,0.6,0.4c0.2,0.1,0.4,0.1,0.7,0c0.3-0.1,0.7-0.2,1-0.3l0.1,0.2c-0.2,0.2-0.4,0.4-0.7,0.6c-0.4,0.1-0.7,0.2-1.1,0.1
		c-0.4-0.1-0.7-0.3-1-0.6c-0.1-0.1-0.1-0.1-0.2-0.1s-0.2,0-0.2,0c-0.4,0.1-0.9,0.1-1.3-0.1c-0.4-0.2-0.7-0.5-0.9-0.9
		c-0.2-0.4-0.3-0.8-0.2-1.3c0.1-0.4,0.3-0.8,0.6-1.1c0,0,0.1-0.1,0.1-0.1c0.2-0.1,0.5-0.1,0.7-0.2c-0.1,0.2-0.2,0.4-0.3,0.5
		c-0.6,0.5-0.8,1.3-0.5,1.9C41.3,56.5,42,56.7,42.8,56.5z"/>
	<path class="st2" d="M60,59.9c0.2,0.6,0,0.9-0.3,1.2c-0.4,0.5-0.4,0.7,0,1.2c0.9,1,2.3,0.8,3-0.4c0.1-0.1,0.1-0.2,0.2-0.4
		c0.1,0.7-0.4,1.5-1.2,1.8c-1.2,0.4-2.1,0-3-1.5c-1.3,0-2.1-0.5-2.3-1.5c0-0.2,0-0.5,0-0.7c0-0.1,0.2-0.2,0.3-0.3
		c0.1,0.1,0.1,0.2,0.2,0.4c0,0.2,0.1,0.3,0.1,0.5c0.1,0.7,0.5,1.1,1,1.2c0.3,0.1,0.6,0,0.9-0.1c0.3-0.1,0.5-0.3,0.7-0.6
		C59.7,60.3,59.8,60.1,60,59.9z"/>
	<path class="st2" d="M36.9,59.6c-0.6-0.2-1-0.6-1-1.2c0-0.3,0.1-0.6,0.2-0.8c0.2-0.2,0.4-0.4,0.6-0.5c0.3-0.1,0.5-0.1,0.8-0.1
		c0.1,0,0.1,0.2,0.2,0.3c-0.1,0-0.2,0.1-0.3,0.1c-0.2,0-0.5,0-0.7,0.2c-0.2,0.1-0.3,0.3-0.4,0.5c-0.1,0.2-0.1,0.3,0,0.5
		c0,0.2,0.1,0.3,0.3,0.4c0.3,0.2,0.5,0.2,0.8-0.1c0.2-0.2,0.4-0.3,0.7-0.3c0.3,0,0.5,0.1,0.7,0.3c-0.2,0.1-0.4,0.2-0.6,0.3
		c-0.3,0.1-0.6,0.4-0.9,0.6c-0.4,0.5-0.2,1.1,0.5,1.5c0.4,0.2,0.8,0.4,1.2,0.6c-0.7,0.2-1.2,0-1.7-0.4c-0.3-0.2-0.5-0.5-0.6-0.8
		C36.8,60.3,36.8,59.9,36.9,59.6z"/>
	<path class="st2" d="M36.6,54.7c-0.3,0.1-0.7,0-1-0.1c-0.3-0.1-0.6-0.4-0.7-0.7c-0.2-0.4-0.4-0.4-0.7-0.2c-0.1,0-0.2,0.1-0.2,0.2
		c-0.1,0.1-0.1,0.2-0.1,0.2c0,0.1,0,0.2,0,0.3c0,0.1,0.1,0.2,0.1,0.2c0.1,0.1,0.2,0.2,0.3,0.3c-0.1,0-0.2,0.1-0.2,0.1
		c-0.1,0-0.2,0-0.2,0c-0.1,0-0.1-0.1-0.2-0.1c-0.1-0.1-0.1-0.1-0.1-0.2c-0.2-0.6,0.1-1.3,0.8-1.5c0.3-0.2,0.6-0.4,0.9-0.6
		c0.3-0.2,0.7-0.3,1-0.4c0.1,0,0.2,0.1,0.3,0.2c-0.1,0.1-0.1,0.2-0.2,0.2c-0.2,0.1-0.4,0.2-0.6,0.3C35,53,35,53.6,35.5,54
		c0.3,0.2,0.6,0.3,0.9,0.4C36.4,54.4,36.5,54.5,36.6,54.7z"/>
	<path class="st2" d="M52.5,49.5c0.1,0.2,0.2,0.3,0.3,0.5c0.3,0.4,0.5,0.8,0.9,1.1c0.7,0.4,1.5,0.2,2-0.5c0.2-0.2,0.3-0.5,0.4-0.7
		c0.2,0.5-0.1,1.1-0.6,1.5c-0.4,0.3-0.8,0.4-1.2,0.4c-0.4,0-0.9-0.2-1.2-0.5C52.5,50.7,52.2,50,52.5,49.5z"/>
	<path class="st2" d="M82.9,22.8c0,0.4-0.1,0.8-0.2,1.3l0.5,0.6l-0.1,0.1c-0.4,0-0.8-1-1.3-0.1c0.1,0.2,0.2,0.3,0.3,0.5
		c0,0.1,0,0.2,0,0.3c-0.1,0-0.2,0-0.3-0.1c-0.1,0-0.1-0.1-0.1-0.2c-0.1-0.4-0.4-0.4-0.7-0.2c0,0.3,0.1,0.6,0.1,1L81,26
		c-0.1-0.2-0.2-0.4-0.2-0.6c0-0.1,0-0.1,0-0.2c0-0.1-0.1-0.1-0.1-0.1c0,0-0.1-0.1-0.2-0.1c-0.1,0-0.1,0-0.2,0
		c-1.5-0.2-2.4-1.2-2.2-2.5c0-0.1,0-0.2,0.1-0.3c0.1-0.1,0.2-0.2,0.3-0.2c0.1,0.1,0.3,0.2,0.2,0.3c-0.1,0.3-0.1,0.6,0,0.9
		c0.1,0.3,0.3,0.5,0.6,0.7c0.3,0.2,0.7,0.4,1.1,0.4c0.4,0.1,0.8,0,1.2-0.1c0.2-0.1,0.4-0.2,0.6-0.4c0.2-0.2,0.3-0.4,0.4-0.6
		c0.1-0.2,0.1-0.4,0.2-0.5L82.9,22.8z"/>
	<path class="st2" d="M61.5,23.1l-0.6,0.6l-0.2-0.1l0.3-0.8l-0.3-0.4c-0.2,0.1-0.4,0.3-0.6,0.4c-0.1,0-0.2,0-0.3,0
		c0-0.1,0-0.3,0.1-0.3c0.6-0.3,0.6-0.8,0.5-1.3c0-0.2,0-0.3,0.1-0.5h0.1c0,0.2,0.1,0.3,0.1,0.5c0.1,0.4,0.2,0.8,0.5,1.1
		c0.3,0.3,0.6,0.5,1,0.6c0.8,0.2,1.4-0.2,1.9-0.9c0.1-0.1,0.3-0.2,0.4-0.3c0,0.2,0.1,0.4,0,0.5c-0.3,0.7-0.9,1.1-2,1.3
		c0,0.3-0.1,0.6-0.1,1h-0.2c-0.1-0.1-0.1-0.3-0.1-0.4c0.1-0.4-0.1-0.7-0.5-0.8C61.7,23.2,61.6,23.2,61.5,23.1z"/>
	<path class="st2" d="M72.9,33.3c-0.2-0.1-0.3-0.2-0.4-0.3c0,0-0.1-0.1-0.1-0.1c0-0.1,0-0.1,0-0.2c0.2-0.6,0-1.1-0.7-1.3
		c-0.9-0.2-1.8-0.4-2.7-0.7c0.2,0,0.4,0,0.7,0c0.7,0.1,1.4,0.2,2.1,0.3C72.8,31.3,73.2,32.1,72.9,33.3L72.9,33.3z"/>
	<path class="st2" d="M69.9,32.4c0.3-0.2,0.3-0.4-0.1-0.5c-0.4-0.1-0.8-0.2-1.2-0.2c-0.3,0.6-0.5,0.7-1.2,0.4l0.9-0.1
		c0-0.3,0.1-0.7,0.1-1l0.2,0.6c0.4,0,0.9,0,1.4,0c0.3,0,0.6,0.2,0.5,0.5c0,0.1,0,0.1-0.1,0.2c0,0.1-0.1,0.1-0.1,0.1
		c-0.1,0-0.1,0.1-0.2,0.1C70.1,32.4,70,32.4,69.9,32.4L69.9,32.4z"/>
	<path class="st2" d="M69.9,32.4L69.9,32.4c-0.1,0-0.2,0.1-0.2,0.1c-0.9,0-1.8,0-2.7,0c-0.1,0-0.2-0.1-0.4-0.3c1.1,0,2.1,0,3.1,0
		C69.8,32.3,69.9,32.4,69.9,32.4z"/>
	<path class="st2" d="M65.2,32.8c-0.3-0.1-0.5-0.2-0.7-0.3c-0.1-0.1-0.1-0.2-0.1-0.3s0-0.2,0.1-0.3c0.2-0.2,0.5-0.3,0.8-0.4
		c-0.4,0.4-0.8,0.8,0.1,1.2L65.2,32.8z"/>
	<path class="st2" d="M66.9,31.4l-0.4,0.7l-0.2,0.4c-0.1-0.1-0.3-0.1-0.3-0.2c0-0.2,0-0.4,0.1-0.5C66.3,31.6,66.6,31.5,66.9,31.4z"
		/>
	<path class="st1" d="M31.3,47l0.9,0.6c0.2,0.1,0.4,0.3,0.5,0.6l0.4,0.8l-1.2,1.8c-0.1,0-0.6-1.2-0.6-1.2l-0.3-0.3l-0.7-0.6L31.3,47
		z"/>
	<path class="st2" d="M77.5,5.7c1.4,0,2.2,1,1.8,2.2c-0.3,0.9-1.5,1.3-2.5,0.9c-0.2-0.1-0.4-0.2-0.5-0.3C76,8.3,75.9,8.2,75.8,8
		c-0.1-0.2-0.2-0.4-0.2-0.6c0-0.2,0-0.4,0.1-0.6C75.9,6,76.6,5.6,77.5,5.7z"/>
	<path class="st2" d="M69.6,7.6c0-0.4,0.2-0.8,0.5-1.1C70.3,6.2,70.7,6,71.2,6c0.5,0,1,0.3,1.3,0.6C72.8,7,73,7.5,73.1,8
		c0,0.4-0.2,0.8-0.5,1.1c-0.3,0.3-0.7,0.4-1.1,0.4c-0.5,0-1-0.2-1.3-0.6C69.8,8.6,69.6,8.1,69.6,7.6z"/>
	<path class="st2" d="M24.7,35.3c0-0.4,0.2-0.8,0.5-1.1c0.3-0.3,0.7-0.5,1.1-0.5c0.5,0,1,0.3,1.3,0.6c0.3,0.4,0.5,0.8,0.6,1.3
		c0,0.4-0.2,0.8-0.5,1.1c-0.3,0.3-0.7,0.4-1.1,0.4c-0.5,0-0.9-0.3-1.3-0.6C25,36.2,24.8,35.8,24.7,35.3z"/>
	<path class="st2" d="M22.5,27.5c-0.2,0-0.5,0-0.7-0.1c-0.2-0.1-0.4-0.2-0.6-0.4c-0.2-0.2-0.3-0.3-0.4-0.6c-0.1-0.2-0.1-0.4-0.1-0.7
		c0-0.4,0.2-0.9,0.5-1.2c0.3-0.3,0.8-0.5,1.2-0.5c0.2,0,0.4,0,0.7,0.1c0.2,0.1,0.4,0.2,0.6,0.4c0.2,0.2,0.3,0.3,0.4,0.5
		c0.1,0.2,0.1,0.4,0.1,0.6c0,0.2,0,0.5-0.1,0.7c-0.1,0.2-0.2,0.4-0.4,0.6c-0.2,0.2-0.4,0.3-0.6,0.4C22.9,27.4,22.7,27.5,22.5,27.5z"
		/>
	<path class="st2" d="M75.1,0.6c1.1,0,1.8,0.7,1.8,1.7c0,0.2-0.1,0.4-0.2,0.6s-0.2,0.4-0.4,0.5c-0.2,0.1-0.3,0.3-0.6,0.3
		c-0.2,0.1-0.4,0.1-0.6,0.1c-1,0-1.8-0.7-1.8-1.6C73.3,1.3,74.1,0.6,75.1,0.6z"/>
</g>
<g id="Capa_2">
	<rect y="0" class="st5" width="96.1" height="75"/>
	<path class="st6" d="M49.1,41.7h3h3.6l3,1.2l1.8,1.2l0.8,0.8l0.7,0.9l0.3,0.7l1.2-0.6l3.6-1.2h2.4l1.8-0.6h2.4l2.7,0.6l2.6,0
		l2.9,1.5l1.9,0.3l2.7,2.9l0.9,0.7l1.2,2.4l0.6,2.4l-2.4,3.6l-6,6.6l-5.4,4.2l-4.8,3l-5.4,1.2l-9,0.6l-5.4-0.6l-6-1.8l-5.4-3
		L36,65.1l-2.4-4.2l-1.8-6l-1.2-4.8L30,47.7l-1.2-1.8l-3.6-2.4l-1.8-1.8L21,39.9l-1.8-3L18,32.8l-0.6-4.2v-3v-3l1.8,0.6l3.6,1.8
		l1.2,1.2V25v-4.2l0.6-2.4l1.2,0.6l3,2.4l1.8,2.4l1.8,3l1.2,3l1.2,3l0.4,3.1l-0.2,3.1L33,44.1l-0.6,1.8v1.2l0.6,1.8l1.2,1.2l1.8,0.6
		h1.8h3l2.4-1.2l2.4-1.8l2.4-3L49.1,41.7z"/>
	<path class="st7" d="M49.7,41.1l1.2-3.6l0.6-3.6v-3l0.6-4.2l1-2.9l0.4-1.6l2.6-4.2l1.1-5.2l0.3-3.5l0.6-0.6l0.6-0.6L59.6,9l1.5,1.4
		l1.3,2l3.6-0.6l3.6-0.6l6,0.6l5.4,1.2l2.4,0.6h1.2l1.8-1.8l2.4-1.8l1.2,0.6l0.6,0.6l0.6,1.2l2.4,4.8l1.8,9l-0.2,8.6l-0.4,3.9
		l-0.6,4.8l-1.8,4.8l-2.4,6.6l-1.2,0.8l0.2-3l-1.6-3.3l-3.8-3.2l-3.8-1.6L74.4,44l-2.4,0.1l-3.4,0.5l-3.3,0.7L62.9,46l-0.6,0.5
		l-0.8-1.9L60,43.2l-2.8-1.3l-2.3-0.3l-3.3,0.1h-1.3L49.7,41.1z"/>
	<path class="st8" d="M63.5,38.2l0.6,1.8v3l0.6,1.2l1.8,0.6h2.4l1.9-0.4l0.5-0.2l0.6-2.4v-2.4l-0.6-0.6l-1.2-1.2L68.3,37v-1.8h-1.2
		L66.5,37l-1.8,0.6L63.5,38.2z"/>
	<path class="st8" d="M68.9,25.6l-0.6,1.2L68,28.7L67.7,31v0.6h1.2l0.1-2.5l0.2-2L68.9,25.6z"/>
	<path d="M62.8,11.8c2.1-0.2,4.1-0.4,6-0.6c0.6-0.1,1.2-0.1,1.8-0.1c3.9-0.1,7.7,0.5,11.5,1.6c0.8,0.2,1.7,0.2,2.6,0.2
		c0.2,0,0.5-0.3,0.7-0.5c0.7-0.6,1.3-1.2,2-1.8c0.3-0.3,0.6-0.5,1-0.6c0.8-0.4,1.5-0.3,2,0.5c0.4,0.6,0.7,1.3,1.1,2
		c0.4,0.7,0.8,1.4,1.2,2c0.9,1.6,1.4,3.3,1.9,5c0.8,3,1.4,5.9,1.5,9c0.1,2.3,0,4.5-0.2,6.8c-0.6,6.5-2.2,12.8-5.2,18.7
		c-1.9,3.8-4.6,7.1-7.6,10.1c-4.4,4.4-9.5,7.8-15.5,9.6c-3,1-6.2,1.4-9.4,1.3c-4.6-0.2-9.1-0.9-13.4-2.6c-5.4-2.1-9.2-5.9-11.7-11.2
		c-1.6-3.5-2.6-7.2-2.8-11c-0.1-1.9-1.1-3.4-2.6-4.5c-1.5-1.2-3.1-2.3-4.7-3.5c-2.8-2.1-4.5-4.9-5.3-8.2c-0.7-3-0.8-6-0.8-9.1
		c0-0.7,0-1.4,0-2c0-0.7,0.1-0.8,0.9-0.6c2,0.4,3.8,1.3,5.4,2.5c0.1,0.1,0.3,0.2,0.4,0.3c0,0,0.1,0,0.1,0c0-1.1-0.1-2.2,0-3.3
		c0.1-1,0.2-2.1,0.5-3.1c0.1-0.7,0.4-0.7,1-0.4c2.1,1,3.7,2.5,5.1,4.3c3.5,4.2,5,9,4.8,14.4c-0.1,2.5-0.8,4.8-1.7,7.1
		c-0.3,0.8-0.6,1.6-0.8,2.4c0,0.2,0,0.4,0,0.7c0.1,0.2,0.1,0.4,0.2,0.6c0.6,1.7,1.7,2.6,3.5,2.6c3.1-0.1,6-0.7,8.6-2.6
		c2-1.5,3.1-3.5,4.1-5.7c1.4-3,1.9-6.2,2.1-9.4c0.1-2.9,0.4-5.7,1.5-8.4c0.6-1.6,1.5-3.2,2.2-4.7c1.2-2.8,2.2-5.7,2.3-8.8
		c0-0.6,0.2-1.3,0.4-1.8c0.4-1,1.2-1.2,2.1-0.6c1.2,0.9,2.2,2,3,3.3C62.6,11.7,62.7,11.8,62.8,11.8z M68.8,34.5l0.5,0.3
		c0.1-0.1,0.1-0.3,0.1-0.4c0-0.3,0-0.5-0.1-0.8h-0.6C68.8,33.9,68.8,34.2,68.8,34.5c-0.1-0.3-0.2-0.5-0.3-0.8c0,0-0.1-0.1-0.1-0.1
		s-0.1,0-0.2-0.1c-0.1,0-0.2,0.1-0.2,0.2c-0.2,0.5,0,0.8,0.5,0.8L68.8,34.5z M67.5,34.7l-0.6,0.1l0.1-0.1l-0.2-0.1
		c0.3-0.7,0.2-1.1-0.3-1.3c-0.3,0.6-0.2,1,0.3,1.3l-1.2,0.2c0.1,0.4,0.1,0.8,0.1,1.2c-0.1,0.4-0.2,0.8-0.4,1.1l1.6-0.1
		c0.1-0.7,0.2-1.3,0.3-1.9h0.1c-0.1,1-0.2,2.1-0.3,3.1h1c0.1-0.8,0.2-1.6,0.3-2.3h0.1V37h1.6l0.6-2.2l-2,0.1l-0.2,0.6L68.2,35
		L67.5,34.7c0.2-0.8,0.2-1-0.3-1.1C67,34.3,67,34.4,67.5,34.7L67.5,34.7z M68.8,30.4c0-0.1,0.1-0.1,0.1-0.2c0.1-1,0.2-2,0.3-3
		c0-0.4-0.1-0.7-0.2-1.1c-0.7,0.3-0.9,0.9-0.9,1.5c0,0.4,0,0.8-0.1,1.2c-0.1,0.8-0.2,1.5-0.3,2.4c-0.2-0.3,0.1-0.8-0.4-0.8
		c-1,0.1-2.1,0.3-3.1,0.4c-0.2,0-0.3,0.1-0.5,0.2c-0.1,0.1-0.2,0.3-0.2,0.5c0,0.4,0.3,0.6,0.6,0.7c1.4,0.6,2.9,0.9,4.5,0.9
		c1,0,2-0.1,3-0.3c0.1,0,0.1,0,0.2-0.1l0.7-0.3v0.7c0.5,0.1,0.6,0,0.7-0.3l1.1-0.3c2-0.6,4-0.4,5.9-0.1c0.2,0,0.5,0.1,0.7,0.1v0.1
		c-0.1,0-0.2,0-0.3,0.1c-0.4,0-0.8,0-1.2,0c-2.2,0-4.4,0.4-6.5,1.2c-0.1,0-0.1,0-0.2,0.1c-0.3,0.3-0.6,0.5-0.9,0.8
		c-0.4,0.4-0.8,0.6-0.9,1.3c-0.1,0.9,0.1,1.5,0.8,2.1c0.4,0.3,0.9,0.6,1.4,0.7c0.5,0.1,1,0.1,1.5,0c0.8-0.2,1.7-0.6,2.5-0.8l1.3-0.5
		l0.1,0.2c-1.9,1.2-3.8,2.2-6.2,1.8c-0.2,1.4-0.4,2.8-0.6,4.3c0.2,0,0.3,0,0.5,0c1.2,0,2.5,0,3.7,0.1c2.8,0.2,5.5,1.1,7.9,2.5
		c2.2,1.3,4,3.1,4.8,5.6c0.2,0.7,0.4,1.5,0.6,2.3c0.3-0.6,0.6-1.1,0.9-1.7c1.1-2.4,2.3-4.8,2.5-7.5c0-0.3,0.1-0.5,0.1-0.8
		c0,0-0.1,0-0.1,0.1c0,0-0.1,0.1-0.1,0.1c-0.2,0.5-0.3,0.9-0.6,1.3c-0.1,0.2-0.4,0.2-0.6,0.4c0-0.2,0-0.4,0-0.6
		c0.1-0.5,0.3-0.9,0.4-1.4c-0.3,0.4-0.5,0.8-0.7,1.2c-0.1,0.1-0.2,0.3-0.4,0.4c-0.1-0.2-0.1-0.4-0.1-0.5c0.1-0.6,0.2-1.2,0.2-1.9
		c-0.3,0.4-0.5,0.9-0.6,1.4c-0.1,0.2-0.2,0.4-0.5,0.2c0.1-0.6,0.1-1.2,0.2-1.8c-0.1,0.2-0.3,0.3-0.3,0.5c0,0.1-0.1,0.1-0.2,0.2
		c0-0.1-0.1-0.2-0.1-0.3c0.1-0.4,0.2-0.9,0.3-1.3c0-0.1,0.1-0.1,0.1-0.1c0.3,0.1,0.4-0.2,0.5-0.3c0.1-0.1,0.2-0.1,0.4-0.1l-0.1,1
		c0.1-0.2,0.3-0.4,0.4-0.6c0.1-0.1,0.3-0.2,0.4-0.2c0.1,0.1,0.1,0.3,0.1,0.4c0,0.5-0.1,0.9-0.2,1.4c0.3-0.5,0.6-0.9,0.8-1.4
		c0.1-0.1,0.2-0.2,0.3-0.3c0.1,0.1,0.1,0.3,0.2,0.4c0,0.1,0,0.3,0,0.5c0.2-0.3,0.4-0.7,0.5-1.1c0-0.1,0.1-0.1,0.1-0.1
		c0,0,0.1-0.1,0.2-0.1c0.1,0,0.2,0.2,0.2,0.3c0,0.2,0,0.4,0,0.6c0.1-0.1,0.2-0.2,0.2-0.4c0.2-1,0.4-2,0.6-3c0.1-0.6,0-1.1-0.6-1.4
		l0,0c-0.2-0.2-0.3-0.4-0.4-0.6c-0.1-0.3,0-0.5,0.1-0.8c0.1-0.2,0.1-0.4,0.1-0.6c0.1-0.1,0.2-0.3,0.3-0.4c0.1,0.1,0.2,0.3,0.2,0.4
		c0.1,0.4,0.1,0.9,0.1,1.3c0.2-0.1,0.3-0.2,0.2-0.3c-0.4-0.5,0-0.8,0.2-1.2c0.1-0.2,0.2-0.3,0.2-0.5c0.1-0.9,0.1-1.8,0.2-2.8
		c0-0.1,0-0.3,0-0.3c-0.5-0.4-0.3-0.9-0.4-1.4c0-0.1,0-0.2-0.1-0.3c-0.1,0.5-0.2,1-0.3,1.5c-0.1,0.2-0.1,0.3-0.2,0.5
		c-0.2-0.1-0.4-0.2-0.5-0.4c-0.2-0.4-0.3-0.8-0.4-1.3c0,0.2-0.1,0.5-0.1,0.7c-0.1,0.2-0.2,0.3-0.3,0.4c-0.1-0.1-0.2-0.3-0.3-0.4
		c-0.1-0.4-0.1-0.8-0.2-1.2l-0.2,0c0,0.4,0,0.8,0,1.2c0,0.1-0.1,0.2-0.2,0.4c-0.1-0.1-0.3-0.2-0.3-0.3c-0.1-0.2-0.2-0.5-0.3-0.8
		c-0.1,0.2-0.1,0.4-0.2,0.6c0,0.1-0.1,0.2-0.2,0.2c-0.1-0.1-0.2-0.1-0.2-0.2c-0.1-0.3-0.2-0.6-0.3-1l-0.1,0.1l-0.3,0.3
		c-0.1-0.1-0.1-0.2-0.2-0.4c-0.2-0.6,0.5-0.7,0.5-1.2h0.1l0.4,0.9c0.1-0.4,0.1-0.7,0.2-1c0.1-0.1,0.1-0.2,0.2-0.3
		c0.1,0.1,0.2,0.2,0.2,0.3c0.1,0.3,0.1,0.6,0.2,0.8c0.2-0.4,0.3-0.9,0.4-1.3c0-0.1,0.2-0.2,0.3-0.3c0.1,0.1,0.2,0.2,0.2,0.3
		c0.1,0.3,0.1,0.6,0.1,0.9c0.1-0.3,0.2-0.7,0.3-1c0.1-0.2,0.2-0.3,0.3-0.5c0.1,0.2,0.3,0.3,0.3,0.5c0.1,0.7,0.1,1.4,0.2,2.2
		c0.1-0.1,0.1-0.1,0.1-0.2c0.1-0.6,0.1-1.2,0.2-1.8c0-0.1,0.1-0.2,0.2-0.3c0.1,0.1,0.3,0.1,0.3,0.2c0.1,0.2,0.2,0.5,0.3,0.7
		c0.1-0.2,0.1-0.3,0.1-0.5c-0.1-1.5-0.2-3.1-0.4-4.6c-0.3-2.7-0.8-5.4-2-8c-0.4-1-0.9-1.9-1.4-2.8c-0.4-0.8-0.8-1.6-1.2-2.3
		c-0.5-0.8-1.1-0.9-1.9-0.4c-0.4,0.3-0.9,0.6-1.3,0.9c-0.7,0.6-1.4,1.2-2,1.7c-0.2,0.2-0.4,0.3-0.7,0.3c-0.9-0.1-1.8-0.2-2.6-0.4
		c-0.7-0.2-1.4-0.5-2.2-0.2c0.2,0.1,0.3,0.1,0.5,0.2c0.1,0.1,0.2,0.2,0.3,0.3c-0.1,0.1-0.2,0.2-0.4,0.2c-0.3,0-0.5,0-0.8,0l0.3,0.5
		l-0.5,0.2c0,0.2,0,0.3-0.1,0.5c-0.4,0.1-0.9,0.1-1.4,0.1c-0.4-0.1-0.7-0.3-1-0.5c-0.1-0.1-0.1-0.3-0.1-0.4l0.1,0l-0.3-0.4
		c0.2,0,0.3-0.1,0.5-0.1c0.2,0,0.4,0.1,0.6,0.1c-0.3-0.2-0.5-0.4-0.8-0.5c-0.1-0.1-0.3-0.3-0.4-0.4c0.2,0,0.3-0.1,0.5-0.1
		c0,0,0.1,0,0.1,0c0,0,0.1,0,0.1,0c-0.6-1.1-1.7-0.6-2.5-0.8l0.2,0.3l-0.4,0.5c-0.2-0.2,0,0,0,0.1c-0.1,0.1-0.2,0.2-0.3,0.3
		c0.1,0.1,0.2,0.3,0.2,0.5c0,0.1-0.3,0.2-0.4,0.2l0.2,0.4c-0.1,0.1-0.3,0.1-0.4,0.1c-0.2,0-0.3,0-0.5,0l0.3,0.5L72.7,15
		c-0.1,0-0.2,0-0.2,0c-0.3,0.1-0.6,0.1-0.9,0c-0.3-0.1-0.6-0.3-0.7-0.5l0.8-0.1c-0.2-0.1-0.5-0.2-0.7-0.3c-0.1-0.1-0.2-0.2-0.3-0.3
		c0.1-0.1,0.2-0.1,0.4-0.1c0.3,0,0.7,0.1,1,0.1c-0.3-0.2-0.7-0.3-1-0.4c-0.1,0-0.2-0.2-0.2-0.2c0-0.1,0.2-0.2,0.2-0.3
		c-0.1-0.1-0.2-0.3-0.1-0.4c0.1-0.1,0.2-0.2,0.4-0.2l-0.7-0.6c-0.3,0-0.8,0-1.3,0c-0.3,0-0.5,0.1-0.2,0.4c0.1,0.1,0,0.2,0,0.3
		c0,0.1,0,0.2-0.1,0.4c-0.1,0.3,0.4,0.8-0.1,1c0,0.2,0,0.5,0,0.5c-0.3,0.2-0.6,0.3-0.9,0.3c-0.6,0-1.2-0.1-1.7-0.3
		c0,0-0.1,0-0.1-0.1c0,0,0-0.1-0.1-0.1c0-0.1,0.1-0.1,0.2-0.2c0.2,0,0.5,0,0.7,0c-0.4-0.1-0.8-0.2-1-0.4c-0.2-0.2-0.1-0.5-0.2-0.8
		l-0.2-0.3l0.6-0.4c-1.2,0-2.7,0.2-3.8,0.2c-0.2-0.2-0.4-0.4-0.6-0.6c-0.8-0.8-1-1.8-1.9-2.6c-0.4-0.4-0.8-0.8-1.4-0.6
		c-0.6,0.2-0.7,0.8-0.8,1.3c-0.2,1.2-0.3,2.4-0.5,3.6l-0.2,0c0,0.3,0,0.5,0,0.8c0,0.2-0.1,0.4-0.1,0.6c-0.1,1.3-0.5,2.6-1,3.8
		c-0.5,1.1-1.2,2.1-1.7,3.2c-0.4,0.8-0.8,1.6-1.2,2.5l0.1,0.1c0.2,0,0.4,0,0.5-0.1c0.3-0.3,0.5-0.1,0.6,0.1c0.4-0.3,0.5-0.2,0.6,0.2
		c0,0.2,0,0.4,0.1,0.6c0.1-0.1,0.2-0.2,0.2-0.4c0.1-0.1,0.1-0.2,0.2-0.3c0.1,0.1,0.2,0.1,0.3,0.2c0.5,0.4,0.2,0.9,0.1,1.3
		c-0.1,0.4-0.2,0.5-0.5,0.4c-0.2,0.2-0.3,0.3-0.4,0.5l-0.4-0.6c-0.1,0.3-0.1,0.7-0.2,1c0,0.1-0.1,0.1-0.1,0.1s-0.1,0.1-0.2,0.1
		c-0.1,0-0.2-0.1-0.2-0.2c0-0.1,0-0.1,0-0.2l-0.5,0.7l-0.3-0.5c-0.2,0.3-0.4,0.7-0.6,1.1c-0.1,0.7-0.2,1.4-0.2,2.1
		c0,0.1,0,0.3,0,0.4c0.2,0.2,0.4,0.4,0.6,0.7c0-0.1,0-0.2,0.1-0.4c0.1-0.1,0.1-0.2,0.2-0.3c0.1,0.1,0.2,0.2,0.3,0.2
		c0.1,0.1,0.2,0.1,0.2,0.1c0.4,0.1,0.8,1,0.5,1.2c-0.1,0.1-0.2,0.2-0.3,0.3c-0.1,0.1-0.1,0.2-0.1,0.3c-0.1,0.3-0.3,0.3-0.4,0.1
		c-0.1-0.1-0.1-0.2-0.1-0.2l-0.3,0.7l-0.5-0.2c-0.1,0.2-0.4,0.3-0.4,0.5c-0.1,0.9-0.1,1.7-0.1,2.6c0,0.1,0.3,0.2,0.4,0.2
		c0.4-0.4,0.5-0.1,0.6,0.3c0.2-0.3,0.3-0.4,0.6-0.1c0.4,0.6,0.2,1.1,0.2,1.7c0,0.2-0.1,0.3-0.2,0.5L52.7,39l-0.6,0.6
		c-0.1-0.3-0.2-0.5-0.3-0.8c-0.1,0.4-0.4,0.4-0.7,0.2l-0.9,2.6c0.1,0,0.1,0,0.1,0c1.7-0.3,3.3-0.3,5-0.1c2.2,0.3,4.2,0.9,5.8,2.5
		c0.6,0.6,1.1,1.3,1.6,2l3.4-1.3c-0.5-0.2-1-0.3-1.5-0.5c-0.2-0.1-0.4-0.2-0.5-0.3c-0.1-0.2-0.2-0.4-0.2-0.6c0-0.8-0.1-1.6-0.2-2.4
		c-0.1-0.8-0.1-1.7-0.2-2.5c-2.1,0.3-5.6-0.7-6.4-1.9c0.4,0.1,0.8,0.2,1.2,0.4c0.7,0.3,1.4,0.6,2,0.8c0.9,0.3,2,0.3,2.9-0.1
		c1.7-0.8,1.9-2.2,0.7-3.6c-1-1.1-2.4-1.8-3.8-1.9c-1.6-0.2-3.2-0.3-4.8-0.4l-0.5,0l0-0.2c2.7-0.4,5.4-0.7,8.1,0.6
		c-0.1-1.1,0.6-1.6,1.5-1.8c0.3-0.1,0.5-0.1,0.8-0.2c0.8-0.1,1.6-0.1,2.5-0.1c0.1-0.9,0.2-1.9,0.3-2.9c0-0.1,0-0.2,0-0.3
		c-0.3,0-0.7,0-1,0c-0.3-0.1-0.7-0.2-0.9-0.5c-0.2-0.3-0.3-0.5-0.4-0.9l0.2-0.1c0,0.1,0,0.3,0.1,0.4c0,0.1,0.1,0.2,0.2,0.3
		c0.1,0.1,0.2,0.2,0.3,0.2c0.1,0.1,0.3,0.1,0.4,0.1c0.7,0.1,1.4,0,1.8-0.6c0.1-0.1,0.1-0.2,0.1-0.3s0-0.2-0.1-0.3
		c-0.2-0.4-0.4-0.8-0.6-1.2c-0.2-0.4,0-0.6,0.4-0.6c0.5,0,1.1,0.1,1.6,0.2c0.3,0.1,0.4,0.3,0.2,0.6c-0.2,0.3-0.5,0.7-0.7,1
		c-0.1,0.2-0.2,0.3-0.2,0.5c0,0.2,0.1,0.5,0.3,0.7c0.2,0.2,0.4,0.3,0.6,0.4c0.2,0.1,0.5,0.1,0.7,0c0.2-0.1,0.4-0.2,0.6-0.4
		c0.1-0.1,0.2-0.2,0.2-0.3c-0.2,1-0.7,1.1-2.4,0.8c-0.1,0.9-0.2,1.9-0.3,2.8C69,30,68.9,30.2,68.8,30.4L68.8,30.4z M18.3,23.2
		L18.3,23.2c0.7,1,1.5,2,2.3,3c2.8,3.8,5.2,7.8,7.2,12c1.4,2.8,2.5,5.8,3.4,8.8c0,0.2,0,0.3,0.1,0.5L31,47.6
		c-2.7-8.7-7-16.8-12.7-23.8c0.1,0.4,0.3,0.7,0.4,1c0.9,2.9,2.1,5.7,3.7,8.2c1.6,2.5,3.3,5,4.8,7.6c1.4,2.3,2.8,4.7,3.4,7.4
		c0.3,1.4,0.6,2.8,0.9,4.1c0.6,3,1.4,5.9,2.6,8.7c2.5,5.4,6.6,9.1,12.3,11.1c3.7,1.2,7.6,1.9,11.5,2c5.8,0.3,11.1-1.3,16.1-4.1
		c5.8-3.3,10.4-7.9,14.1-13.3c0.3-0.4,0.5-0.8,0.6-1.3c0.1-0.5,0.1-0.9,0-1.4c-0.1-0.3-0.1-0.6-0.2-0.9c-1-3.1-3.2-5.2-6.2-6.5
		c-2.9-1.3-5.9-1.8-9.1-1.9c-0.6,0-1.2-0.1-1.7,0.1C70.6,45,69.7,45,68.8,45c-0.5,0-1,0-1.5,0.1c-1.4,0.4-2.7,0.8-4.1,1.2
		c-0.2,0.1-0.4,0.2-0.6,0.3c-0.1-0.1-0.1-0.1-0.2-0.2c-0.6-1.4-1.7-2.3-3-3.1c-1.8-1-3.8-1.4-5.9-1.4c-1.1,0-2.1,0.1-3.2,0.1
		c-0.1,0-0.3,0.1-0.4,0.2c-0.1,0.1-0.2,0.2-0.2,0.4c-0.2,0.6-0.5,1.1-0.8,1.6c-1.2,2.4-2.9,4.4-5.4,5.5c-2,0.9-4.3,1.4-6.5,1.4
		c-3.2,0-5-2-5.2-5.5c0.2-0.2,0.4-0.3,0.4-0.4c0.3-0.7,0.5-1.5,0.8-2.2c1.2-3.1,1.7-6.4,1.3-9.7c-0.3-2.5-1-4.9-2.2-7.1
		c-1.2-2.2-2.8-4.1-4.8-5.7c-0.8-0.7-1.7-1.3-2.5-1.9l-0.1,0.1c0.1,0.2,0.2,0.3,0.3,0.5c0.5,0.7,1,1.4,1.6,2
		c2.2,2.4,3.8,5.3,4.8,8.4c1.5,4.9,1.9,9.8,0.2,14.7c-0.2,0.6-0.2,1.3,0,2c0.1,0.3,0.1,0.7,0.2,1l-0.2,0c-0.1-0.2-0.1-0.3-0.2-0.5
		c-0.8-2.4-1.5-4.9-2.4-7.3c-1.2-3.4-2.7-6.7-4.7-9.8c-1.6-2.5-3.7-4.5-5.8-6.5C18.6,23.3,18.5,23.2,18.3,23.2z M29.8,39.2h-0.1
		c0-0.1-0.1-0.3-0.1-0.4c-0.4-1.7-0.7-3.5-1.3-5.2c-1.2-3.6-3.2-6.7-6.5-8.8c-0.7-0.5-1.5-0.9-2.3-1.3l-0.1,0.1l0.2,0.2
		c2.8,2.5,5.2,5.4,6.9,8.8c1.6,3,2.8,6.2,3.8,9.4c0.3,0.9,0.6,1.8,0.9,2.7c0-0.1,0.1-0.1,0.1-0.1c0-0.1,0.1-0.2,0.1-0.3
		c0.9-3,1.2-6.2,0.9-9.4c-0.5-4.2-1.8-8-4.3-11.4c-0.9-1.2-1.9-2.4-2.8-3.6c-0.2-0.2-0.3-0.4-0.4-0.6c0,0.2,0,0.3,0.1,0.5
		c0.8,1.4,1.6,2.9,2.4,4.3c1.1,2,2.2,4.1,2.8,6.3c0.8,3.1,1.3,6.4,1.3,9.6c0,1,0,2.1,0,3.1h-0.1c0-0.1,0-0.2,0-0.3
		c-0.2-2.6-0.4-5.3-0.7-7.9c-0.3-3.1-1.2-6.2-2.6-8.9c-1-1.8-2-3.6-3-5.4c0,0-0.1,0-0.1,0c0.2,2.9,1.2,5.6,2.3,8.3
		c-1.6-2.5-2.3-5.3-2.8-8.2c-0.2,1.6-0.2,3.3,0.1,5c0,0.2,0.1,0.5,0.3,0.6c3.3,3.5,4.8,7.8,5,12.5C29.8,39,29.8,39.1,29.8,39.2z
		 M18.5,27.4L18.5,27.4c0.5,1.5,1,3,1.5,4.5c0.8,2.4,1.9,4.6,3.5,6.6c1,1.2,2.2,2.4,3.2,3.6c1,1.1,2,2.3,2.5,3.8
		c0.1,0.2,0.2,0.4,0.4,0.6c0-0.1,0-0.2,0-0.4c-1.2-3-2.9-5.6-4.7-8.3c-2.4-3.6-4.7-7.4-6.1-11.5c-0.2-0.4-0.3-0.9-0.5-1.3l-0.1,0
		v0.5l-0.1,0L17.7,24c0,0.2-0.1,0.3-0.1,0.4c0,2.7,0.1,5.5,0.6,8.2c0.8,4.1,2.8,7.4,6.3,9.7c1.2,0.8,2.4,1.7,3.5,2.6
		c0.2,0.2,0.5,0.4,0.7,0.6c-0.4-1.1-1.1-2.1-2.1-2.9c-3.7-3.2-6.2-7.1-7.5-11.9C19,29.6,18.8,28.5,18.5,27.4z M68.2,38.8
		c-0.4,0.4,0.2,1.5-1,1.4c-1.2-0.1-0.6-0.9-0.6-1.5L64,38.2c0.1,1.6,0.3,3.1,0.4,4.6c0.1,0.9,0.4,1.2,1.2,1.3
		c0.7,0.1,1.4,0.2,2.2,0.2c0.9,0,1.8,0,2.7-0.1c0.6-0.1,0.9-0.4,1-1c0.2-1.2,0.4-2.3,0.5-3.5c0-0.1,0-0.3,0-0.4
		c-0.4-0.2-0.7-0.6-1.1-0.6C69.9,38.8,69.1,38.7,68.2,38.8z M68.2,38.2h2.2c-0.3-0.8-0.3-0.8-1.1-0.8l-0.4,0
		C68.2,37.4,68.2,37.4,68.2,38.2L68.2,38.2z M66.7,37.3c-0.7,0.2-1.5-0.2-2.2,0.6c0.6,0.1,1,0.2,1.5,0.2
		C66.7,38.3,66.8,38.3,66.7,37.3L66.7,37.3z M67.9,38.7c-1-0.2-1.1-0.2-1.1,0.5c-0.1,0.5,0.1,0.7,0.6,0.6
		C68.2,39.8,67.6,39.1,67.9,38.7L67.9,38.7z M69.8,34.6c0.7-0.1,0.8-0.3,0.7-0.8c-0.1-0.2-0.2-0.4-0.5-0.3c-0.3,0.1-0.3,0.2-0.3,0.5
		C69.8,34.2,69.8,34.3,69.8,34.6L69.8,34.6z M70.9,34.3c0.6,0,0.3-0.7,0.6-0.9l0.2,0.5c0.1-0.1,0.3-0.2,0.3-0.3c0-0.1,0-0.2,0-0.4
		c0-0.1-0.2-0.1-0.2-0.1C71,33.2,70.8,33.4,70.9,34.3L70.9,34.3z M65.8,34.1c0-0.3,0.3-0.7-0.4-0.8C65.3,34.1,65.4,34.1,65.8,34.1
		L65.8,34.1z"/>
	<path d="M93.8,37.8c0.2,0.4,0.3,0.8,0.4,1.3c0,0.1-0.2,0.3-0.3,0.4c-0.1-0.1-0.1-0.3-0.2-0.4c0-0.3-0.1-0.5-0.2-0.8
		c-0.1,0.3-0.1,0.6-0.2,0.8c-0.1,0.1-0.1,0.3-0.2,0.4c-0.1-0.1-0.4-0.2-0.4-0.3c-0.1-0.2-0.1-0.5-0.1-0.7c0-0.3,0-0.6,0-0.9
		c-0.1,0.2-0.1,0.5-0.2,0.7c-0.1,0.1-0.2,0.2-0.3,0.3c-0.1-0.1-0.2-0.3-0.2-0.4c0-0.2,0-0.5,0-0.7c-0.1,0-0.1,0-0.1,0
		c-0.2,0.2-0.4,0.4-0.6,0.5c-0.1-0.3-0.1-0.5-0.2-0.8c0-0.2,0-0.5,0-0.7l-0.1,0c0,0.2-0.1,0.3-0.2,0.5c-0.1,0.1-0.1,0.2-0.2,0.3
		c-0.1-0.1-0.2-0.1-0.2-0.2c-0.1-0.4-0.1-0.9-0.2-1.3l0.2,0l0.2,0.5c0.1-0.3,0.2-0.6,0.4-0.9c0-0.1,0.2-0.1,0.2-0.2
		c0.1,0.1,0.2,0.2,0.2,0.3c0,0.4,0.1,0.9,0.2,1.3c0.1-0.4,0.2-0.8,0.3-1.1c0.1-0.2,0.2-0.3,0.4-0.4c0.1,0.2,0.2,0.3,0.2,0.5
		c0,0.3,0,0.6,0,0.8h0.1c0.1-0.4,0.2-0.9,0.3-1.3c0.1-0.2,0.2-0.3,0.3-0.4c0.1,0.2,0.2,0.3,0.2,0.5c0,0.4,0,0.9,0,1.3
		c-0.1,0.2,0,0.5,0.1,0.7C93.4,37.5,93.6,37.7,93.8,37.8L93.8,37.8z"/>
	<path d="M81.1,58.4c-0.1,0.3-0.3,0.5-0.6,0.8c-0.3,0.2-0.6,0.3-1,0.4c-0.4,0-0.7,0-1-0.2c-0.3-0.1-0.6-0.4-0.8-0.7
		c-0.2-0.3-0.3-0.7-0.3-1c0-0.6,0-1.1-0.5-1.6c-0.6-0.6-0.5-1.5-0.1-2.3c0.1-0.1,0.3-0.2,0.5-0.3c0,0.2,0,0.3,0,0.5
		c-0.5,1.2-0.1,2.1,1,2.4c0.3,0,0.6,0,0.9-0.1c0.3-0.1,0.4-0.2,0.3-0.6c-0.1-0.4,0-0.7,0.2-1c0.2-0.3,0.5-0.6,0.8-0.7
		c-0.1,0.4-0.2,0.7-0.3,1.1c-0.1,0.2-0.1,0.3-0.1,0.5s0.1,0.4,0.2,0.5c0.1,0.2,0.2,0.3,0.4,0.4c0.2,0.1,0.3,0.2,0.5,0.2
		c0.3,0,0.5,0,0.8-0.1c0.2-0.1,0.5-0.2,0.7-0.4c0.2-0.1,0.3-0.3,0.5-0.5c0,0.5-0.5,1-1.1,1.3c-0.8,0.3-1.5,0.2-2.2-0.6
		c-0.5,0.1-1,0.3-1.5,0.4c-0.1,0-0.1,0.1-0.1,0.1c0,0-0.1,0.1-0.1,0.2c-0.1,0.3-0.1,0.7,0.1,1c0.1,0.3,0.3,0.6,0.6,0.8
		c0.3,0.2,0.6,0.2,1,0.2c0.3-0.1,0.6-0.2,0.9-0.5c0.1-0.1,0.2-0.2,0.3-0.3L81.1,58.4z"/>
	<path d="M67.4,54.7c-0.3,0-0.5,0.1-0.7,0.1c-0.3,0-0.6-0.1-0.8,0.3c-0.1,0.2-0.2,0.4-0.2,0.6c0,0.2,0,0.5,0.1,0.7
		c0.2,0.3,0.4,0.5,0.7,0.6c0.3,0.1,0.6,0.1,1,0.1c0.2,0,0.4-0.1,0.7-0.1c-0.3,0.7-1.3,0.8-2.1,0.5c-1-0.5-1.2-1.5-0.7-2.8
		c-1.3-1.3-1.5-3-0.4-3.4c0,0.3,0,0.5-0.1,0.8c-0.1,0.3-0.1,0.5-0.1,0.8c0,0.3,0.1,0.5,0.3,0.7c0.2,0.3,0.5,0.5,0.8,0.6
		c0.3,0.1,0.7,0,1-0.1c0.3-0.2,0.5-0.3,0.7-0.5c0,0,0.1,0,0.1-0.1c0,0,0.1,0,0.1,0c0,0,0.1,0.1,0.1,0.1c0,0,0,0.1,0,0.1
		c0,0.1,0,0.2-0.1,0.3c-0.1,0.2-0.2,0.4-0.1,0.6c0,0.2,0.1,0.4,0.2,0.6c0.1,0.2,0.3,0.3,0.5,0.4c0.2,0.1,0.4,0.1,0.6,0.1
		c0.2,0,0.4-0.1,0.6-0.1c0.1,0,0.3,0,0.4,0.1c-0.1,0.1-0.1,0.3-0.2,0.3c-0.7,0.5-1.8,0.2-2.3-0.6C67.6,55.2,67.5,54.9,67.4,54.7z"/>
	<path d="M48.8,65.9c-0.2,0-0.4,0.1-0.6,0.1c-0.9,0.1-1.3,0.4-1.5,1c-0.2,0.6,0.1,1.2,0.8,1.7c0.2,0.2,0.5,0.3,0.8,0.6
		c-1.3,0.2-2.1-0.8-2.1-2.5c-0.8-0.3-1.6-0.7-1.8-1.6c-0.1-0.4-0.1-0.8,0-1.2c0.1-0.3,0.3-0.6,0.6-0.8c0.3-0.2,0.6-0.2,1-0.2
		c-0.6,0.6-1.5,1.1-1.1,2.2c0.3,0.7,1,0.9,1.6,1.1l0.9-0.7c-0.5-0.5-0.8-1.2-0.6-1.9c0.1-0.4,0.3-0.7,0.6-0.9c0.6-0.5,1.4-0.5,1.8,0
		c-0.9,0-1.9,0.1-2,1.2c-0.1,1.1,0.9,1.5,1.8,1.7L48.8,65.9z"/>
	<path d="M52.4,50.6c-0.2,0.1-0.4,0.3-0.7,0.4c-0.3,0.1-0.5,0.3-0.7,0.5c-0.1,0.3-0.2,0.5-0.1,0.8c0.2,1.1,1.2,1.7,2.4,1.3
		c0.2-0.1,0.5-0.2,0.8-0.3c-0.3,0.8-1.4,1.1-2.3,0.7c-1.3-0.5-1.7-1.5-1.2-3.2c-0.4-0.1-0.7-0.3-0.9-0.6c-0.2-0.3-0.4-0.6-0.4-1
		c-0.1-0.3,0-0.6,0.1-0.9c0.1-0.3,0.2-0.5,0.5-0.7c0.1-0.1,0.3-0.1,0.5-0.2c0,0.2,0,0.3,0,0.5c-0.5,1-0.5,1.7,0.2,2.1
		c0.4,0.2,0.9,0.2,1.3,0.3c0.2,0,0.4,0,0.5-0.1L52.4,50.6z"/>
	<path d="M73.5,68c0,0.7-0.4,0.8-0.8,0.9c-0.7,0.2-1.4,0-2-0.8c-0.2,0.1-0.5,0.2-0.8,0.3c-0.3,0-0.6,0-0.8-0.1
		c-0.3-0.1-0.5-0.2-0.7-0.4c-0.2-0.2-0.4-0.4-0.5-0.6c-0.5-1-0.3-1.9,0.5-2.3l-0.4,0c0-0.1,0-0.2,0-0.2c0.2-0.2,0.4-0.5,0.5-0.4
		c0.3,0.1,0.2,0.4,0.1,0.7c-0.2,0.5-0.4,1-0.2,1.6c0,0.2,0.1,0.4,0.3,0.6c0.1,0.2,0.3,0.3,0.5,0.4c0.2,0.1,0.4,0.2,0.6,0.2
		c0.2,0,0.4,0,0.6-0.1c0.1,0,0.1,0,0.2-0.1c0,0,0.1-0.1,0.1-0.1c0,0,0.1-0.1,0.1-0.2c0-0.1,0-0.1,0-0.2c0-0.3,0-0.5,0.1-0.7
		c0.1-0.2,0.2-0.4,0.4-0.6c0.1-0.1,0.3-0.1,0.4-0.2c0,0.1-0.1,0.3-0.1,0.4c-0.3,0.6-0.5,1.1-0.1,1.7c0.2,0.2,0.4,0.4,0.7,0.5
		c0.3,0.1,0.6,0,0.9-0.1C73,68.2,73.2,68.2,73.5,68z"/>
	<path d="M42.2,56.4c0.5-0.9,0.9-1.2,1.5-0.8c-0.1,0.1-0.3,0.2-0.4,0.3c-0.2,0.1-0.4,0.3-0.5,0.5c-0.1,0.2-0.1,0.5-0.1,0.7
		c0,0.2,0.2,0.4,0.3,0.6c0.2,0.2,0.4,0.3,0.6,0.3c0.3,0.1,0.7,0.1,1,0.2l0,0.2c-0.3,0.1-0.6,0.2-0.9,0.2c-0.4,0-0.8-0.2-1.1-0.4
		c-0.3-0.2-0.5-0.6-0.6-1c0-0.1-0.1-0.1-0.1-0.2c-0.1-0.1-0.1-0.1-0.2-0.1c-0.4-0.1-0.8-0.3-1.1-0.7c-0.3-0.3-0.4-0.8-0.5-1.2
		c0-0.4,0.1-0.9,0.4-1.2c0.3-0.4,0.6-0.6,1.1-0.7c0.1,0,0.1-0.1,0.2-0.1c0.2,0.1,0.5,0.1,0.7,0.2c-0.2,0.1-0.4,0.2-0.6,0.3
		c-0.8,0.2-1.3,0.8-1.3,1.5C40.9,55.7,41.4,56.3,42.2,56.4z"/>
	<path d="M60.6,60.2c-0.1,0.6-0.5,0.8-0.8,0.9c-0.6,0.2-0.7,0.4-0.6,1.1c0.3,1.3,1.7,1.8,2.9,1.1l0.4-0.3c-0.2,0.7-1.1,1.2-1.9,1.1
		c-1.3-0.1-1.9-1-1.9-2.8c-1.2-0.6-1.6-1.5-1.3-2.5c0.1-0.2,0.2-0.5,0.4-0.7c0.1-0.1,0.3-0.1,0.4-0.2c0,0.1,0,0.3,0,0.4
		c-0.1,0.2-0.1,0.3-0.2,0.5c-0.2,0.7-0.1,1.2,0.4,1.5c0.2,0.2,0.5,0.3,0.8,0.3c0.3,0,0.6-0.1,0.9-0.2C60.1,60.5,60.3,60.4,60.6,60.2
		z"/>
	<path d="M36.7,59.1c-0.3-0.6-0.4-1.1,0-1.6c0.2-0.2,0.4-0.4,0.7-0.5c0.3-0.1,0.6-0.1,0.8,0c0.3,0.1,0.5,0.2,0.7,0.5
		c0.1,0,0,0.2,0,0.3c-0.1,0-0.2,0-0.3-0.1c-0.2-0.2-0.4-0.3-0.6-0.3c-0.2,0-0.5,0-0.7,0.2c-0.2,0.1-0.3,0.2-0.3,0.4
		c-0.1,0.2-0.1,0.3,0,0.5c0.1,0.4,0.3,0.5,0.7,0.4c0.3,0,0.5,0,0.8,0.2c0.2,0.2,0.4,0.4,0.4,0.7c-0.2-0.1-0.4-0.1-0.7-0.2
		c-0.4-0.1-0.7-0.1-1.1,0c-0.7,0.2-0.9,0.8-0.5,1.5c0.2,0.4,0.4,0.8,0.6,1.3c-0.7-0.2-1-0.8-1.1-1.4c-0.1-0.3-0.1-0.7,0-1
		C36.2,59.6,36.4,59.3,36.7,59.1z"/>
	<path d="M34.5,56c-0.3-0.2-0.5-0.5-0.6-0.8c-0.1-0.3-0.1-0.7,0-1c0.2-0.4,0-0.6-0.3-0.7c-0.1,0-0.2,0-0.3,0c-0.1,0-0.2,0-0.3,0.1
		c-0.1,0-0.2,0.1-0.2,0.2c-0.1,0.1-0.1,0.2-0.1,0.3c0,0.1-0.1,0.3-0.1,0.4c-0.1,0-0.2-0.1-0.2-0.1c-0.1-0.1-0.1-0.1-0.1-0.2
		c0-0.1,0-0.2,0-0.3c0-0.1,0-0.2,0.1-0.2c0.3-0.6,1-0.8,1.7-0.4c0.4,0.2,0.7,0.2,1.1,0.3c0.4,0.1,0.7,0.3,1,0.5c0.1,0,0,0.2,0.1,0.3
		c-0.1,0-0.2,0-0.3,0c-0.2-0.1-0.4-0.2-0.6-0.3c-0.6-0.2-1.1,0.1-1,0.8c0,0.3,0.2,0.7,0.3,1C34.6,55.7,34.6,55.8,34.5,56z"/>
	<path d="M53.4,49.5c0,0.2,0,0.4,0,0.6c0,0.5-0.1,1,0.1,1.4c0.3,0.8,1.2,1,2,0.8c0.3-0.1,0.5-0.2,0.8-0.3c-0.1,0.5-0.7,0.9-1.4,0.9
		c-0.5,0-0.9-0.1-1.3-0.4c-0.4-0.3-0.6-0.7-0.7-1.1C52.6,50.5,52.8,49.8,53.4,49.5z"/>
	<path d="M83.5,22.1c0,0.4-0.1,0.8-0.2,1.3l0.5,0.6l-0.1,0.1c-0.4,0-0.8-1-1.3-0.1c0.1,0.2,0.2,0.3,0.3,0.5c0,0.1,0,0.2,0,0.3
		c-0.1,0-0.2,0-0.3-0.1c-0.1,0-0.1-0.1-0.1-0.2c-0.1-0.4-0.4-0.4-0.7-0.2c0,0.3,0.1,0.6,0.2,1l-0.2,0.1c-0.1-0.2-0.2-0.4-0.2-0.6
		c0-0.1-0.1-0.2-0.1-0.3s-0.2-0.1-0.3-0.1c-1.5-0.2-2.4-1.3-2.2-2.5c0-0.1,0-0.2,0.1-0.3c0.1-0.1,0.3-0.2,0.3-0.2
		c0.1,0.1,0.3,0.2,0.2,0.3c-0.1,0.3-0.1,0.6,0,0.9c0.1,0.3,0.3,0.6,0.6,0.7c0.3,0.2,0.7,0.4,1.1,0.5c0.4,0.1,0.8,0,1.2-0.1
		c0.2-0.1,0.5-0.2,0.6-0.4c0.2-0.2,0.3-0.4,0.4-0.6c0.1-0.2,0.1-0.4,0.2-0.5L83.5,22.1z"/>
	<path d="M61.6,22.5l-0.6,0.6L60.9,23l0.4-0.8l-0.3-0.4c-0.2,0.2-0.4,0.3-0.6,0.4c-0.1,0-0.2,0-0.3,0c0-0.1,0-0.3,0.1-0.3
		c0.7-0.3,0.7-0.8,0.5-1.3c0-0.2,0-0.3,0.1-0.5h0.1c0,0.2,0.1,0.3,0.1,0.5c0.1,0.4,0.2,0.8,0.5,1.1c0.3,0.3,0.7,0.5,1.1,0.6
		c0.9,0.2,1.5-0.2,1.9-0.9c0.1-0.1,0.3-0.2,0.4-0.3c0,0.2,0.1,0.4,0,0.5c-0.4,0.7-0.9,1.1-2,1.4c0,0.3-0.1,0.7-0.1,1h-0.2
		c-0.1-0.1-0.1-0.3-0.1-0.5c0.1-0.4-0.1-0.7-0.5-0.8C61.8,22.6,61.7,22.5,61.6,22.5z"/>
	<path d="M73.3,32.9c-0.2-0.1-0.3-0.2-0.4-0.3c0,0-0.1-0.1-0.1-0.1s0-0.1,0-0.2c0.2-0.6,0-1.1-0.7-1.3c-0.9-0.2-1.8-0.4-2.8-0.7
		c0.2,0,0.5,0,0.7,0c0.7,0.1,1.4,0.2,2.1,0.3C73.2,30.8,73.6,31.6,73.3,32.9L73.3,32.9z"/>
	<path d="M70.3,32c0.3-0.2,0.3-0.4-0.1-0.5c-0.4-0.1-0.8-0.2-1.2-0.2c-0.3,0.6-0.5,0.7-1.2,0.4l0.9-0.1c0-0.3,0.1-0.7,0.1-1
		c0.1,0.2,0.1,0.4,0.2,0.6c0.5,0,0.9,0,1.4,0c0.3,0,0.6,0.2,0.5,0.5c0,0.1,0,0.1-0.1,0.2c0,0.1-0.1,0.1-0.2,0.1
		c-0.1,0-0.1,0.1-0.2,0.1C70.4,32,70.3,31.9,70.3,32L70.3,32z"/>
	<path d="M70.3,32L70.3,32c-0.1,0-0.2,0.1-0.3,0.2c-0.9,0-1.8,0.1-2.7,0c-0.1,0-0.3-0.2-0.5-0.3c1.2,0,2.2,0,3.2,0
		C70.1,31.9,70.2,31.9,70.3,32z"/>
	<path d="M65.4,32.4c-0.3-0.1-0.5-0.2-0.8-0.3c-0.1-0.1-0.1-0.2-0.1-0.3s0-0.2,0.1-0.3c0.2-0.2,0.5-0.3,0.9-0.4
		c-0.4,0.4-0.8,0.8,0.1,1.2L65.4,32.4z"/>
	<path d="M67.2,31l-0.4,0.7L66.5,32c-0.1-0.1-0.3-0.1-0.3-0.2c0-0.2,0-0.4,0.1-0.5C66.6,31.1,66.9,31,67.2,31z"/>
	<path d="M77.5,5.1c1.4,0,2.3,1,1.8,2.2c-0.4,0.9-1.5,1.3-2.6,1c-0.2-0.1-0.4-0.2-0.6-0.3c-0.2-0.1-0.3-0.3-0.4-0.5
		c-0.1-0.2-0.2-0.4-0.2-0.6c0-0.2,0-0.4,0.1-0.6C75.9,5.5,76.5,5.1,77.5,5.1z"/>
	<path d="M69.4,7.1c0-0.4,0.2-0.8,0.5-1.1c0.3-0.3,0.7-0.5,1.1-0.5c0.5,0,1,0.3,1.4,0.6c0.4,0.4,0.6,0.9,0.6,1.4
		c0,0.4-0.2,0.8-0.5,1.1c-0.3,0.3-0.7,0.5-1.1,0.5c-0.5,0-1-0.2-1.3-0.6C69.6,8.1,69.4,7.6,69.4,7.1z"/>
	<path d="M24.8,57.4c0-0.4,0.2-0.8,0.5-1.1c0.3-0.3,0.7-0.5,1.1-0.5c0.5,0,1,0.3,1.3,0.6c0.4,0.4,0.6,0.9,0.6,1.4
		c0,0.4-0.2,0.8-0.5,1.1c-0.3,0.3-0.7,0.5-1.2,0.4c-0.5,0-1-0.3-1.3-0.6C25,58.4,24.8,57.9,24.8,57.4z"/>
	<path d="M22.5,49.4c-0.2,0-0.5,0-0.7-0.1c-0.2-0.1-0.4-0.2-0.6-0.4s-0.3-0.4-0.4-0.6c-0.1-0.2-0.1-0.4-0.1-0.7
		c0-0.5,0.2-0.9,0.5-1.2c0.3-0.3,0.8-0.5,1.2-0.5c0.2,0,0.5,0,0.7,0.1c0.2,0.1,0.4,0.2,0.6,0.4c0.2,0.2,0.3,0.3,0.4,0.6
		c0.1,0.2,0.1,0.4,0.1,0.7c0,0.2,0,0.5-0.1,0.7c-0.1,0.2-0.2,0.4-0.4,0.6c-0.2,0.2-0.4,0.3-0.6,0.4C22.9,49.4,22.7,49.4,22.5,49.4z"
		/>
	<path d="M75,0c1.1,0,1.8,0.7,1.8,1.7c0,0.4-0.2,0.9-0.6,1.2c-0.3,0.3-0.8,0.5-1.2,0.4c-1.1,0-1.8-0.7-1.8-1.7S73.9,0,75,0z"/>
</g>
</svg>
