<?xml version="1.0" encoding="utf-8"?>
<!-- Generator: Adobe Illustrator 25.0.0, SVG Export Plug-In . SVG Version: 6.00 Build 0)  -->
<svg version="1.1" id="Capa_1" xmlns="http://www.w3.org/2000/svg" xmlns:xlink="http://www.w3.org/1999/xlink" x="0px" y="0px"
	 viewBox="0 0 66 70" style="enable-background:new 0 0 66 70;" xml:space="preserve">
<style type="text/css">
	.st0{fill:#FFFFFF;}
	.st1{fill:#8EC2D8;}
	.st2{fill:#A06A80;}
	.st3{fill:#E88D4F;}
	.st4{fill:#7C81BD;}
	.st5{fill:#FFD265;}
	.st6{fill:#EFE3DF;}
</style>
<rect x="0.5" y="0.3" class="st0" width="66.3" height="70"/>
<path d="M23.3,8.5C26.2,8.3,29.1,8,32,7.7c3.1-0.3,6.3-0.6,9.4-1c1.9-0.2,3.8-0.5,5.7-0.7C47.7,6,47.9,6.1,48,6.6
	c0.2,1.9,0.5,3.9,0.7,5.8c0.2,1.9,0.5,3.9,0.6,5.8c0.6,8.7,1.6,17.3,2.6,25.9c0.4,3.6,0.9,7.2,1.3,10.8c0.1,0.9,0.3,1.8,0.6,2.7
	c0.1,0.3,0.2,0.5,0.4,0.7c0.4,0.4,0.5,0.7,0.2,1.2c-0.6,1.1-0.5,2.3,0,3.4c0.2,0.6,0.2,1-0.5,1.2c-0.3,0.1-0.7,0.2-1.1,0.2
	c-1.1,0.1-2.2,0.3-3.3,0.4c-1.8,0.1-3.4,0.7-5.1,1.2c-1.9,0.5-3.8,0.6-5.7,0.7c-2.8,0.1-5.6,0.2-8.3,0.5c-2.5,0.3-4.9,0.9-7.4,1.3
	c-0.6,0.1-1.2,0.2-1.8,0.3c-0.7,0.1-1-0.1-1.2-0.7c-0.2-0.9-0.4-1.8-0.5-2.7c-0.3-2.5-0.8-5-1.5-7.5c-2-6.9-3-14-3.7-21.2
	c-0.5-5.1-0.8-10.2-1.1-15.3c-0.2-3.7-0.3-7.4-0.5-11.1c0-0.5,0.1-0.8,0.7-0.8C16.6,9.2,19.9,8.8,23.3,8.5L23.3,8.5z M52.5,58.2
	c0-0.2,0-0.4-0.1-0.6c-0.3-1.6-0.7-3.2-0.9-4.9c-0.5-3.8-0.8-7.6-1.2-11.3c-1-8.3-1.8-16.6-2.4-24.9c-0.2-2.8-0.5-5.6-0.8-8.4
	c0-0.4-0.1-0.7-0.6-0.6c-0.5,0.1-1.1,0-1.6,0.1c-1.5,0.2-3,0.4-4.5,0.5C37,8.4,33.6,8.8,30.1,9.1c-3.9,0.4-7.7,0.7-11.6,1
	c-0.6,0-0.8,0.2-0.8,0.8c-0.1,2.8-0.2,5.6-0.2,8.4c0,3.5,0.2,6.9,0.3,10.4c0.1,3,0.2,6.1,0.4,9.1c0.4,4.9,1.1,9.7,2.3,14.4
	c0.6,2.6,1.2,5.1,1.9,7.7c0.2,0.8,0.5,1.5,0.8,2.3c1.3-0.4,2.5-0.9,3.7-1.2c5.9-1.7,12-2.2,18.1-2.4C47.5,59.3,50.1,58.9,52.5,58.2z
	 M16.6,10.1c-0.8,0.1-1.4,0.2-2.1,0.2c-0.9,0.1-0.9,0.1-0.9,1.1c0.2,3.6,0.3,7.1,0.6,10.7c0.4,5.2,0.7,10.5,1.2,15.7
	c0.4,4,1.1,8.1,1.8,12.1c0.6,3.5,1.5,6.9,2.3,10.4c0.2,0.8,0.4,1.5,0.6,2.3l1.4-0.5c-0.1-0.2-0.1-0.4-0.2-0.6
	c-0.3-1.1-0.7-2.2-1-3.3c-0.7-3-1.4-5.9-1.9-8.9c-0.6-3.7-1.1-7.5-1.5-11.3c-0.3-2.8-0.3-5.7-0.4-8.5c-0.1-5.3-0.2-10.5-0.3-15.8
	C16.4,12.5,16.6,11.4,16.6,10.1z M24,67c0.2,0,0.4-0.1,0.6-0.1l3.9-0.8c2.8-0.6,5.7-0.7,8.5-0.7c2.9,0,5.8-0.2,8.7-1.2
	c1.7-0.6,3.5-0.8,5.3-0.8c0.5,0,1,0,1.5-0.1c0.6-0.1,0.7-0.2,0.6-0.8c-0.1-0.4-0.3-0.4-0.6-0.4c-1.8,0-3.6-0.1-5.4,0
	c-4.8,0.4-9.5,1.3-14.3,2.2c-2.3,0.4-4.5,1-6.8,1.5c-0.7,0.2-1.4,0.3-2.1,0.5C24,66.6,24,66.8,24,67z M23.8,65.8
	c1.6-0.3,3.1-0.7,4.6-1c1.7-0.4,3.3-0.8,5-1.1c3-0.5,6-1.1,9-1.5c2.5-0.3,4.9-0.5,7.4-0.7c1-0.1,2,0,3,0c0.1-0.4-0.1-0.5-0.4-0.5
	c-1.1,0.1-2.1,0.1-3.2,0.2c-3.1,0.3-6.1,0.6-9.2,0.9c-4.3,0.4-8.7,0.8-12.9,1.9c-1.2,0.3-2.4,0.7-3.6,1.1
	C23.7,65.4,23.8,65.5,23.8,65.8L23.8,65.8z M53,59.4c-0.3,0-0.6,0-0.8,0.1c-2.6,0.8-5.4,1-8.1,1.1c-5.4,0.3-10.7,0.7-15.9,2
	c-1.4,0.4-2.8,0.8-4.2,1.3c-0.3,0.1-0.6,0.2-0.3,0.6c0.7-0.2,1.3-0.4,2-0.6c1.9-0.5,3.7-1.1,5.7-1.3c4.9-0.7,9.8-1.2,14.7-1.7
	c2.1-0.2,4.1-0.4,6.2-0.5C53,60.4,53,60.4,53,59.4z M22.9,67.2c-0.2-1-0.3-1.9-0.5-2.8c-0.2-1.1-0.4-1.2-1.4-0.8
	c-0.1,0-0.2,0.1-0.3,0.1c-0.1,0.1-0.2,0.2-0.2,0.4c0.1,1,0.3,2.1,0.5,3.1c0,0.1,0.1,0.1,0.1,0.2c0.1,0.1,0.1,0.1,0.2,0.1
	C21.8,67.4,22.3,67.3,22.9,67.2z"/>
<path class="st1" d="M52.5,58.2c-2.5,0.7-5,1.1-7.6,1.2c-6.1,0.2-12.2,0.7-18.1,2.4c-1.2,0.4-2.4,0.8-3.7,1.2
	c-0.3-0.8-0.6-1.5-0.8-2.3c-0.6-2.6-1.2-5.1-1.9-7.7c-1.1-4.7-1.9-9.6-2.3-14.4c-0.3-3-0.3-6.1-0.4-9.1c-0.1-3.5-0.2-6.9-0.3-10.4
	c0-2.8,0.1-5.6,0.2-8.4c0-0.5,0.2-0.7,0.8-0.8c3.9-0.3,7.7-0.6,11.6-1C33.6,8.8,37,8.4,40.5,8c1.5-0.2,3-0.4,4.5-0.5
	c0.5-0.1,1.1,0,1.6-0.1c0.5-0.1,0.6,0.2,0.6,0.6c0.2,2.8,0.6,5.6,0.8,8.4c0.6,8.3,1.4,16.7,2.4,24.9c0.5,3.8,0.8,7.6,1.2,11.3
	c0.2,1.6,0.6,3.3,0.9,4.9C52.5,57.8,52.5,58,52.5,58.2z M32.1,31.7l0,0.2c2.1-0.4,4.3-0.7,6.4-1.1c0.8-0.1,1.6-0.2,2.4-0.5
	c0.2-0.1,0.4-0.4,0.4-0.6c0-0.1,0-0.1,0-0.2c0-0.1-0.1-0.1-0.1-0.2c0-0.1-0.1-0.1-0.2-0.1c-0.1,0-0.1,0-0.2,0c-0.2,0-0.5,0-0.7,0
	c-2.2,0.4-4.4,0.8-6.6,1.1c-1.8,0.3-3.7,0.6-5.5,0.9c-0.6,0.1-1.1,0.3-1.6,0.5c-0.1,0-0.1,0.1-0.2,0.1c-0.1,0.1-0.1,0.1-0.1,0.2
	c0,0.1,0,0.2,0,0.2c0,0.1,0,0.2,0.1,0.2c0.1,0.1,0.2,0.2,0.3,0.2c0.1,0,0.3,0.1,0.4,0.1C28.7,32.3,30.4,32,32.1,31.7z M41.2,36.3
	L41.2,36.3c0.3-0.1,0.7-0.1,1-0.2c1.3-0.2,2.6-0.3,3.9-0.5c0.4-0.1,0.8-0.2,0.7-0.8c-0.1-0.5-0.5-0.5-0.9-0.5
	c-2.1,0.3-4.3,0.6-6.4,0.9c-1.1,0.2-2.2,0.4-3.3,0.7c-0.1,0-0.2,0-0.2,0.1c-0.1,0-0.1,0.1-0.2,0.2c0,0.1-0.1,0.1-0.1,0.2
	c0,0.1,0,0.2,0,0.2c0.1,0.4,0.3,0.5,0.7,0.4c0.2,0,0.4,0,0.6-0.1C38.4,36.8,39.8,36.6,41.2,36.3z M26.9,38.6L26.9,38.6
	c0.9-0.1,1.8-0.3,2.7-0.4c0.1,0,0.2,0,0.2-0.1c0.1,0,0.1-0.1,0.2-0.2c0-0.1,0.1-0.1,0.1-0.2c0-0.1,0-0.2,0-0.2c0-0.1,0-0.2-0.1-0.2
	c0-0.1-0.1-0.1-0.1-0.2c-0.1-0.1-0.1-0.1-0.2-0.1c-0.1,0-0.2,0-0.2,0c-0.1,0-0.2,0-0.3,0c-1.6,0.3-3.3,0.6-4.9,0.9
	c-0.4,0.1-0.7,0.3-0.6,0.7c0.1,0.5,0.4,0.5,0.8,0.4L26.9,38.6z M36.6,13.2c-0.8-0.4-3.6-0.1-4.1,0.4C33.1,13.8,36.3,13.6,36.6,13.2
	L36.6,13.2z M18.5,12c0.3,0.1,0.3,0.1,0.4,0.1c1.1-0.2,2.2-0.4,3.2-0.7c0.1,0,0.2-0.2,0.3-0.3C22.3,11.1,22.1,11,22,11
	c-1,0.2-2,0.4-3,0.6C18.9,11.7,18.8,11.9,18.5,12L18.5,12z M20.7,14.5L20.7,14.5c0.7-0.1,1.5-0.3,2.2-0.5c0.1,0,0.2-0.2,0.3-0.3
	c-0.1-0.1-0.3-0.2-0.4-0.2c-0.2,0-0.5,0.1-0.7,0.2c-0.6,0.1-1.3,0.3-1.9,0.4c-0.2,0-0.3,0.2-0.4,0.4c0.2,0.1,0.3,0.1,0.5,0.1
	C20.3,14.5,20.5,14.5,20.7,14.5L20.7,14.5z M24.3,17l0-0.2c-0.1,0-0.2,0-0.2,0c-1.1,0.1-2.1,0.2-3.2,0.4c-0.1,0-0.2,0.2-0.4,0.3
	c0.1,0.1,0.3,0.2,0.4,0.2c1-0.1,1.9-0.2,2.9-0.4C23.9,17.2,24.1,17.1,24.3,17L24.3,17z M25.1,13.8c0.6,0.3,3.2-0.2,3.5-0.6
	C27.9,12.9,25.5,13.4,25.1,13.8L25.1,13.8z M27.6,10.9c-0.1-0.1-0.1-0.1-0.1-0.1c-1.1,0.1-2.2,0.2-3.3,0.4c-0.1,0-0.2,0.2-0.4,0.5
	c1.3-0.2,2.4-0.3,3.4-0.4C27.4,11.2,27.5,11,27.6,10.9L27.6,10.9z M39.4,10.1c-0.7-0.3-2.9,0.1-3.1,0.5
	C36.9,10.9,39.2,10.5,39.4,10.1z M41.3,16l3-0.4c-0.2-0.4-1.3-0.5-2.6-0.2C41.4,15.5,41.1,15.6,41.3,16L41.3,16z M27.8,60.1l0.1,0.2
	c0.9-0.1,1.8-0.2,2.7-0.3c0.1,0,0.3-0.2,0.4-0.3c-0.2-0.1-0.3-0.2-0.5-0.2c-0.8,0.1-1.5,0.3-2.3,0.4C28,59.9,27.9,60,27.8,60.1z
	 M42.1,9.8c0.4,0.3,2.5,0.2,2.8,0.1c0.1,0,0.2-0.2,0.1-0.2c-0.1-0.1-0.2-0.2-0.3-0.2c-0.6,0-1.2,0-1.7,0C42.8,9.6,42.5,9.7,42.1,9.8
	z M41.5,58.1l-0.1-0.2c-0.9,0.1-1.9,0.2-2.8,0.3c-0.1,0-0.1,0.2-0.2,0.3c0.1,0.1,0.2,0.2,0.3,0.2c0.8-0.1,1.6-0.2,2.4-0.3
	C41.4,58.3,41.4,58.2,41.5,58.1z M30.1,16.1c-0.7-0.3-2.7,0.1-2.8,0.5C28.2,16.9,29.9,16.6,30.1,16.1z M36.1,16.3L36.1,16.3
	c0.4-0.1,0.9-0.2,1.3-0.3c0.1,0,0.2-0.2,0.3-0.2c-0.1-0.1-0.2-0.2-0.4-0.1c-0.4,0-0.8,0.1-1.2,0.1c-0.4,0.1-0.8,0.1-1.2,0.2
	c-0.1,0-0.2,0.2-0.2,0.3c0.1,0,0.2,0.1,0.4,0.1C35.5,16.4,35.8,16.4,36.1,16.3L36.1,16.3z M46.8,55.2c-0.4-0.3-2.3-0.2-2.5,0.1
	c0,0,0,0.1-0.1,0.1c0,0,0,0.1,0,0.1c0,0,0.1,0.1,0.1,0.1c0,0,0.1,0,0.1,0c0.7-0.1,1.4-0.2,2.1-0.3C46.6,55.4,46.7,55.2,46.8,55.2z
	 M25.2,58.8L25.2,58.8c0.2,0,0.5,0,0.7-0.1c0.1,0,0.2-0.2,0.3-0.2c-0.1-0.1-0.2-0.2-0.3-0.2c-0.6,0.1-1.2,0.2-1.9,0.3
	c-0.1,0-0.1,0.2-0.2,0.3c0.1,0.1,0.2,0.2,0.3,0.2C24.5,58.9,24.9,58.8,25.2,58.8z M41.5,56.2l0.1-0.2c-0.1-0.1-0.3-0.2-0.4-0.2
	c-0.8,0.2-1.6-0.1-2.3,0.4l0,0.2L41.5,56.2z M33.1,59.2l0.1,0.2c0.8,0.1,1.6-0.2,2.4-0.4c0,0,0.1-0.2,0.1-0.2
	c-0.1-0.1-0.2-0.2-0.3-0.2c-0.5,0.1-1.1,0.1-1.6,0.2C33.5,59,33.3,59.1,33.1,59.2L33.1,59.2z M36.8,53.8l-0.1-0.3
	c-0.7,0.1-1.5,0.3-2.2,0.5c-0.1,0-0.1,0.2-0.1,0.3c0.1,0,0.2,0.1,0.3,0.1c0.6-0.1,1.2-0.2,1.8-0.4C36.6,54,36.7,53.9,36.8,53.8
	L36.8,53.8z M23.8,61.2c0.6,0.1,2.3-0.2,2.5-0.5C25.6,60.4,24,60.7,23.8,61.2z M32.5,11.2c0-0.1,0-0.1-0.1-0.2
	c-0.8,0.1-1.5,0.1-2.3,0.2c-0.1,0-0.1,0.2-0.2,0.3c0.1,0,0.2,0.1,0.3,0.1c0.6,0,1.3-0.1,1.9-0.2C32.3,11.4,32.4,11.2,32.5,11.2z
	 M34.1,57.2l0.1,0.1l1.8-0.1c0.1,0,0.1,0,0.2,0c0.1-0.1,0.2-0.2,0.4-0.3c-0.1-0.1-0.2-0.2-0.4-0.2c-0.6,0-1.1,0.1-1.7,0.1
	C34.3,56.9,34.2,57.1,34.1,57.2z M48.1,57.3c0.4,0.3,1.9,0.2,2.2,0c0,0,0.1-0.1,0.1-0.1c0,0,0-0.1,0-0.1c0,0-0.1-0.1-0.1-0.1
	c0,0-0.1,0-0.1,0c-0.6,0.1-1.1,0.1-1.7,0.2C48.3,57.1,48.3,57.2,48.1,57.3z M42.9,12.7c0,0.1,0,0.2,0,0.3c0.7,0,1.4,0,2,0
	c0.1,0,0.2-0.1,0.3-0.2c-0.1-0.1-0.2-0.2-0.3-0.2c-0.5,0-1,0-1.5,0C43.3,12.5,43.1,12.6,42.9,12.7z M38.6,13c0.7,0.2,1.5,0.2,2.2,0
	c0.1,0,0.1-0.1,0.1-0.2c0-0.1-0.1-0.2-0.1-0.2C40,12.5,39.3,12.7,38.6,13L38.6,13z M45.6,57.5c-0.6-0.3-1.9-0.2-2.2,0.1
	c0,0-0.1,0.1-0.1,0.1c0,0,0,0.1,0,0.1c0,0,0.1,0.1,0.1,0.1c0,0,0.1,0,0.1,0c0.4-0.1,0.8-0.1,1.2-0.2C45.1,57.7,45.4,57.7,45.6,57.5
	L45.6,57.5z M41.3,52.6L41.3,52.6c-0.3,0-0.6,0.1-0.9,0.2c0,0-0.1,0.1-0.1,0.1c0,0,0,0.1-0.1,0.1c0,0,0,0.1,0.1,0.1
	c0,0,0.1,0.1,0.1,0.1c0.6-0.1,1.2-0.2,1.8-0.3c0.1,0,0.1-0.2,0.1-0.2c0,0-0.1-0.1-0.1-0.1c0,0-0.1,0-0.1,0
	C41.8,52.6,41.6,52.6,41.3,52.6L41.3,52.6z M25.7,56.3L25.6,56c-0.7,0.1-1.3,0.2-2,0.4c0,0-0.1,0.1-0.1,0.1c0,0,0,0.1,0,0.1
	c0,0.1,0.1,0.2,0.2,0.2C24.4,56.7,25,56.5,25.7,56.3L25.7,56.3z M31.1,55.2c-0.4-0.3-1.6-0.4-1.8-0.1c-0.1,0.1,0,0.3,0,0.4
	C29.9,55.6,30.5,55.5,31.1,55.2L31.1,55.2z M50.7,55l0-0.2c-0.3-0.2-1.2-0.3-1.5-0.1C49,54.8,49,54.9,48.9,55c0,0,0.1,0.1,0.2,0.1
	C49.6,55.1,50.1,55.1,50.7,55L50.7,55z M30.9,57.8c-0.3-0.5-1.6-0.4-2.1,0.2C29.5,58.2,30.1,57.9,30.9,57.8z M45.2,52.5
	c0.1,0.2,0.2,0.3,0.3,0.3c0.5,0,1-0.1,1.6-0.2c0,0,0.1-0.2,0.1-0.2c0,0-0.1-0.1-0.1-0.1c0,0-0.1,0-0.1,0
	C46.3,52.4,45.8,52.4,45.2,52.5z M49.4,53.1l0.4-0.4c-0.2-0.1-0.5-0.2-0.8-0.3c-0.1,0-0.2,0.2-0.4,0.3L49.4,53.1z"/>
<path class="st2" d="M16.6,10.1c-0.1,1.2-0.2,2.3-0.2,3.5c0.1,5.3,0.1,10.5,0.3,15.8c0.1,2.9,0.1,5.7,0.4,8.5
	c0.4,3.8,0.8,7.5,1.5,11.3c0.5,3,1.3,6,1.9,8.9c0.2,1.1,0.6,2.2,1,3.3c0.1,0.2,0.1,0.4,0.2,0.6l-1.4,0.5c-0.2-0.8-0.4-1.5-0.6-2.3
	c-0.8-3.5-1.7-6.9-2.3-10.4c-0.7-4-1.4-8-1.8-12.1c-0.5-5.2-0.9-10.5-1.2-15.7c-0.2-3.6-0.4-7.1-0.6-10.7c-0.1-0.9-0.1-0.9,0.9-1.1
	C15.2,10.3,15.9,10.2,16.6,10.1z M15.6,17.3l-0.5-0.4c-0.1,0.1-0.2,0.3-0.1,0.4c0.1,0.2,0.2,0.3,0.3,0.5L15.6,17.3z M17.3,44.8
	c-0.1,0.2-0.2,0.4-0.2,0.6c0,0.1,0.2,0.2,0.2,0.3c0.1-0.1,0.2-0.2,0.2-0.4S17.5,45,17.3,44.8L17.3,44.8z M17.2,46.8L17,47
	c0.1,0.2,0.2,0.3,0.4,0.5c0,0,0.2-0.1,0.2-0.1L17.2,46.8z"/>
<path class="st3" d="M24,67c0-0.3-0.1-0.5-0.1-0.8c0.7-0.2,1.4-0.3,2.1-0.5c2.3-0.5,4.5-1.1,6.8-1.5c4.7-0.9,9.5-1.8,14.3-2.2
	c1.8-0.1,3.6,0,5.4,0c0.3,0,0.5,0,0.6,0.4c0.1,0.6,0.1,0.7-0.6,0.8c-0.5,0.1-1,0.1-1.5,0.1c-1.8,0-3.6,0.2-5.3,0.8
	c-2.8,1-5.7,1.2-8.7,1.2c-2.9,0-5.7,0.2-8.5,0.7l-3.9,0.8C24.4,67,24.3,67,24,67z"/>
<path class="st3" d="M23.8,65.8c0-0.2-0.1-0.4-0.1-0.7c1.2-0.4,2.4-0.7,3.6-1.1c4.2-1.2,8.6-1.5,12.9-1.9c3.1-0.3,6.1-0.6,9.2-0.9
	c1-0.1,2.1-0.1,3.2-0.2c0.3,0,0.5,0.1,0.4,0.5c-1,0-2-0.1-3,0c-2.5,0.2-5,0.4-7.4,0.7c-3,0.4-6,0.9-9,1.5c-1.7,0.3-3.4,0.8-5,1.1
	C26.9,65.1,25.4,65.4,23.8,65.8z"/>
<path class="st3" d="M53,59.4c0,1,0,0.9-0.8,1c-2.1,0.1-4.1,0.3-6.2,0.5c-4.9,0.5-9.8,1-14.7,1.7c-1.9,0.3-3.8,0.9-5.7,1.3
	c-0.7,0.2-1.3,0.4-2,0.6c-0.2-0.4,0-0.5,0.3-0.6c1.4-0.4,2.8-0.9,4.2-1.3c5.2-1.4,10.6-1.8,15.9-2c2.7-0.1,5.4-0.3,8.1-1.1
	C52.5,59.5,52.7,59.5,53,59.4z"/>
<path class="st2" d="M22.9,67.2c-0.6,0.1-1.1,0.2-1.7,0.3c-0.1,0-0.2,0-0.2-0.1c-0.1-0.1-0.1-0.1-0.1-0.2c-0.2-1-0.3-2.1-0.5-3.1
	c0-0.1,0.1-0.2,0.2-0.4c0.1-0.1,0.2-0.1,0.3-0.1c1.1-0.4,1.2-0.3,1.4,0.8C22.6,65.3,22.7,66.2,22.9,67.2z"/>
<path class="st1" d="M32.1,31.7c-1.7,0.3-3.4,0.7-5.1,0.9c-0.1,0-0.3,0-0.4-0.1c-0.1,0-0.2-0.1-0.3-0.2c0-0.1-0.1-0.1-0.1-0.2
	c0-0.1,0-0.2,0-0.2c0-0.1,0.1-0.1,0.1-0.2c0.1-0.1,0.1-0.1,0.2-0.1c0.5-0.2,1.1-0.4,1.6-0.5c1.8-0.3,3.7-0.6,5.5-0.9
	c2.2-0.4,4.4-0.7,6.6-1.1c0.2,0,0.5,0,0.7,0c0.1,0,0.1,0,0.2,0c0.1,0,0.1,0.1,0.2,0.1c0,0.1,0.1,0.1,0.1,0.2c0,0.1,0,0.1,0,0.2
	c-0.1,0.2-0.2,0.6-0.4,0.6c-0.8,0.2-1.6,0.3-2.4,0.5c-2.1,0.4-4.3,0.7-6.4,1.1L32.1,31.7z"/>
<path class="st1" d="M41.2,36.3c-1.4,0.2-2.8,0.5-4.1,0.7c-0.2,0-0.4,0.1-0.6,0.1c-0.4,0-0.6-0.1-0.7-0.4c0-0.1,0-0.2,0-0.2
	c0-0.1,0-0.2,0.1-0.2c0-0.1,0.1-0.1,0.2-0.2c0.1,0,0.1-0.1,0.2-0.1c1.1-0.2,2.2-0.5,3.3-0.7c2.1-0.3,4.3-0.6,6.4-0.9
	c0.4-0.1,0.8,0,0.9,0.5c0.1,0.5-0.3,0.7-0.7,0.8c-1.3,0.2-2.6,0.3-3.9,0.5C41.8,36.2,41.5,36.3,41.2,36.3L41.2,36.3z"/>
<path class="st1" d="M26.9,38.6L24.6,39c-0.4,0.1-0.8,0-0.8-0.4c-0.1-0.4,0.2-0.6,0.6-0.7c1.6-0.3,3.2-0.6,4.9-0.9
	c0.1,0,0.2,0,0.3,0c0.1,0,0.2,0,0.2,0c0.1,0,0.1,0.1,0.2,0.1c0.1,0.1,0.1,0.1,0.1,0.2c0,0.1,0.1,0.1,0.1,0.2c0,0.1,0,0.2,0,0.2
	c0,0.1-0.1,0.1-0.1,0.2c0,0.1-0.1,0.1-0.2,0.2c-0.1,0-0.1,0.1-0.2,0.1C28.7,38.4,27.8,38.5,26.9,38.6L26.9,38.6z"/>
<path class="st1" d="M36.6,13.2c-0.3,0.4-3.5,0.6-4.1,0.4C32.9,13.1,35.8,12.8,36.6,13.2z"/>
<path class="st1" d="M18.5,12c0.3-0.2,0.4-0.4,0.6-0.4c1-0.2,2-0.4,3-0.6c0.1,0,0.2,0.1,0.4,0.2c-0.1,0.1-0.2,0.2-0.3,0.3
	c-1.1,0.2-2.2,0.5-3.2,0.7C18.8,12.2,18.8,12.1,18.5,12z"/>
<path class="st1" d="M20.7,14.5c-0.2,0-0.3,0.1-0.5,0.1c-0.2,0-0.4-0.1-0.5-0.1c0.1-0.1,0.3-0.3,0.4-0.4c0.6-0.2,1.3-0.3,1.9-0.4
	c0.2-0.1,0.5-0.1,0.7-0.2c0.1,0,0.3,0.1,0.4,0.2c-0.1,0.1-0.2,0.3-0.3,0.3C22.1,14.2,21.4,14.3,20.7,14.5L20.7,14.5z"/>
<path class="st1" d="M24.3,17c-0.2,0.1-0.4,0.2-0.5,0.2c-1,0.1-1.9,0.3-2.9,0.4c-0.1,0-0.3-0.1-0.4-0.2c0.1-0.1,0.2-0.3,0.4-0.3
	c1.1-0.1,2.1-0.2,3.2-0.4c0.1,0,0.2,0,0.2,0L24.3,17z"/>
<path class="st1" d="M25.1,13.8c0.4-0.5,2.8-0.9,3.5-0.6C28.3,13.7,25.7,14.2,25.1,13.8z"/>
<path class="st1" d="M27.6,10.9c-0.1,0.1-0.2,0.3-0.4,0.3c-1.1,0.1-2.1,0.3-3.4,0.4c0.2-0.2,0.2-0.5,0.4-0.5
	c1.1-0.1,2.2-0.2,3.3-0.4C27.5,10.8,27.5,10.9,27.6,10.9z"/>
<path class="st1" d="M39.4,10.1c-0.3,0.4-2.5,0.8-3.1,0.5C36.6,10.2,38.7,9.8,39.4,10.1z"/>
<path class="st1" d="M41.3,16c-0.1-0.4,0.1-0.5,0.4-0.6c1.3-0.3,2.3-0.2,2.6,0.2L41.3,16z"/>
<path class="st1" d="M27.8,60.1c0.1-0.1,0.2-0.1,0.3-0.2c0.8-0.2,1.5-0.3,2.3-0.4c0.1,0,0.3,0.1,0.5,0.2c-0.1,0.1-0.3,0.2-0.4,0.3
	c-0.9,0.1-1.8,0.2-2.6,0.3L27.8,60.1z"/>
<path class="st1" d="M42.1,9.8c0.3-0.1,0.6-0.2,0.9-0.3c0.6,0,1.2-0.1,1.7,0c0.1,0,0.2,0.1,0.3,0.2c0,0-0.1,0.2-0.1,0.2
	C44.7,10.1,42.6,10.1,42.1,9.8z"/>
<path class="st1" d="M41.5,58.1c-0.1,0.1-0.2,0.2-0.3,0.2c-0.8,0.1-1.6,0.2-2.4,0.3c-0.1,0-0.2-0.1-0.3-0.2c0.1-0.1,0.1-0.3,0.2-0.3
	c0.9-0.1,1.9-0.2,2.8-0.3L41.5,58.1z"/>
<path class="st1" d="M30.1,16.1c-0.2,0.5-1.9,0.8-2.8,0.5C27.4,16.2,29.4,15.9,30.1,16.1z"/>
<path class="st1" d="M36.1,16.3c-0.3,0-0.7,0.1-1,0.1c-0.1,0-0.2-0.1-0.4-0.1c0.1-0.1,0.1-0.3,0.2-0.3c0.4-0.1,0.8-0.2,1.2-0.2
	c0.4-0.1,0.8-0.1,1.2-0.1c0.1,0,0.2,0.1,0.4,0.1c-0.1,0.1-0.2,0.2-0.3,0.2C37,16.1,36.6,16.2,36.1,16.3L36.1,16.3z"/>
<path class="st1" d="M46.8,55.2c-0.1,0.1-0.2,0.2-0.3,0.2c-0.7,0.1-1.4,0.2-2.1,0.3c0,0-0.1,0-0.1,0c0,0-0.1-0.1-0.1-0.1
	c0,0,0-0.1,0-0.1c0,0,0-0.1,0.1-0.1C44.5,55,46.4,54.9,46.8,55.2z"/>
<path class="st1" d="M25.2,58.8c-0.4,0.1-0.7,0.2-1.1,0.2c-0.1,0-0.2-0.1-0.3-0.2c0.1-0.1,0.1-0.3,0.2-0.3c0.6-0.1,1.2-0.2,1.9-0.3
	c0.1,0,0.2,0.1,0.3,0.2c-0.1,0.1-0.2,0.2-0.3,0.2C25.7,58.8,25.5,58.8,25.2,58.8L25.2,58.8z"/>
<path class="st1" d="M41.5,56.2L39,56.5l0-0.2c0.7-0.5,1.5-0.3,2.3-0.4c0.1,0,0.3,0.1,0.4,0.2L41.5,56.2z"/>
<path class="st1" d="M33.1,59.2c0.2-0.1,0.4-0.2,0.6-0.3c0.5-0.1,1.1-0.2,1.6-0.2c0.1,0,0.2,0.1,0.3,0.2c0,0,0,0.2-0.1,0.2
	c-0.8,0.2-1.5,0.5-2.3,0.3L33.1,59.2z"/>
<path class="st1" d="M36.8,53.8c-0.1,0.1-0.2,0.2-0.3,0.2c-0.6,0.1-1.2,0.3-1.8,0.4c-0.1,0-0.2-0.1-0.3-0.1c0-0.1,0.1-0.3,0.1-0.3
	c0.7-0.2,1.4-0.3,2.2-0.5L36.8,53.8z"/>
<path class="st1" d="M23.8,61.2c0.2-0.5,1.8-0.8,2.5-0.5C26.1,61,24.4,61.3,23.8,61.2z"/>
<path class="st1" d="M32.5,11.2c-0.1,0.1-0.2,0.2-0.4,0.2c-0.6,0.1-1.3,0.1-1.9,0.2c-0.1,0-0.2-0.1-0.3-0.1c0.1-0.1,0.1-0.3,0.2-0.3
	c0.8-0.1,1.5-0.1,2.3-0.2C32.5,11,32.5,11.1,32.5,11.2z"/>
<path class="st1" d="M34.1,57.2c0.1-0.1,0.2-0.3,0.3-0.3c0.6-0.1,1.1-0.1,1.7-0.1c0.1,0,0.2,0.1,0.4,0.2c-0.1,0.1-0.2,0.2-0.4,0.3
	c0,0-0.1,0-0.2,0l-1.8,0.1L34.1,57.2z"/>
<path class="st1" d="M48.1,57.3c0.1-0.1,0.2-0.2,0.3-0.2c0.6-0.1,1.1-0.1,1.7-0.2c0,0,0.1,0,0.1,0c0,0,0.1,0.1,0.1,0.1
	c0,0,0,0.1,0,0.1c0,0,0,0.1-0.1,0.1C50,57.6,48.5,57.6,48.1,57.3z"/>
<path class="st1" d="M42.9,12.7c0.2-0.1,0.4-0.1,0.6-0.2c0.5,0,1,0,1.5,0c0.1,0,0.2,0.1,0.3,0.2c-0.1,0.1-0.2,0.2-0.3,0.2
	c-0.7,0-1.4,0-2,0C42.9,12.8,42.9,12.8,42.9,12.7z"/>
<path class="st1" d="M38.6,13c0.7-0.3,1.4-0.5,2.2-0.4c0.1,0,0.1,0.1,0.1,0.2c0,0.1-0.1,0.2-0.1,0.2C40.1,13.2,39.3,13.2,38.6,13z"
	/>
<path class="st1" d="M45.6,57.5c-0.3,0.1-0.5,0.2-0.8,0.3c-0.4,0.1-0.8,0.2-1.2,0.2c0,0-0.1,0-0.2,0c-0.1,0-0.1-0.1-0.1-0.1
	c0,0,0-0.1,0-0.2c0-0.1,0-0.1,0.1-0.1C43.6,57.4,45,57.2,45.6,57.5z"/>
<path class="st1" d="M41.3,52.6c0.3,0,0.5-0.1,0.8-0.1c0,0,0.1,0,0.1,0c0,0,0.1,0.1,0.1,0.1c0,0.1-0.1,0.2-0.1,0.2
	c-0.6,0.1-1.2,0.2-1.8,0.3c0,0-0.1,0-0.1-0.1c0,0-0.1-0.1-0.1-0.1c0,0,0-0.1,0.1-0.1c0,0,0.1-0.1,0.1-0.1
	C40.6,52.7,41,52.7,41.3,52.6L41.3,52.6z"/>
<path class="st1" d="M25.7,56.4c-0.7,0.2-1.3,0.3-2,0.5c-0.1,0-0.2-0.1-0.2-0.2c0-0.1,0-0.1,0-0.1c0,0,0.1-0.1,0.1-0.1
	c0.7-0.1,1.3-0.3,2-0.4L25.7,56.4z"/>
<path class="st1" d="M31.1,55.2c-0.6,0.2-1.2,0.3-1.8,0.2c0,0-0.1-0.3,0-0.4C29.5,54.9,30.6,54.9,31.1,55.2z"/>
<path class="st1" d="M50.7,55c-0.5,0.1-1,0.1-1.5,0.2c-0.1,0-0.2-0.1-0.2-0.1c0-0.1,0.1-0.2,0.2-0.3c0.3-0.2,1.2-0.2,1.5,0.1
	L50.7,55z"/>
<path class="st1" d="M30.8,57.8c-0.7,0.1-1.3,0.4-2.1,0.2C29.3,57.5,30.5,57.3,30.8,57.8z"/>
<path class="st1" d="M45.2,52.5c0.6-0.1,1.2-0.1,1.7-0.2c0,0,0.1,0,0.1,0c0,0,0.1,0.1,0.1,0.1c0,0,0,0.2-0.1,0.2
	c-0.5,0.1-1,0.1-1.6,0.2C45.4,52.8,45.3,52.7,45.2,52.5z"/>
<path class="st1" d="M49.4,53.1l-0.7-0.4c0.1-0.1,0.3-0.3,0.4-0.3c0.3,0.1,0.5,0.2,0.8,0.3L49.4,53.1z"/>
<path class="st2" d="M15.6,17.3l-0.3,0.4c-0.1-0.1-0.3-0.3-0.3-0.5c0-0.1,0.1-0.2,0.1-0.4L15.6,17.3z"/>
<path class="st2" d="M17.3,44.8c0.2,0.3,0.3,0.4,0.3,0.5c0,0.1-0.2,0.2-0.2,0.4c-0.1-0.1-0.2-0.2-0.2-0.3
	C17.1,45.2,17.2,45,17.3,44.8z"/>
<path class="st2" d="M17.2,46.8l0.4,0.5c-0.1,0-0.2,0.2-0.2,0.1c-0.1-0.2-0.3-0.3-0.4-0.5L17.2,46.8z"/>
<path d="M27.9,34.2c0.1,0,0.2-0.1,0.3-0.2c0.1-0.1,0.2-0.1,0.3-0.2c0.3-0.1,0.5-0.2,0.8-0.3c0.5-0.2,1-0.4,1.5-0.5
	c0.4-0.1,0.8-0.3,1.2-0.5c0,0,0,0,0.1,0c0.1,0,0.1,0,0.1-0.1c0.1-0.2,0.1-0.3,0.2-0.5c0.1-0.2,0.2-0.5,0.3-0.7l0.3-0.6l0,0
	c0.1-0.2,0.1-0.2,0.4-0.3c0,0,0.1,0,0.1,0c0,0,0.1,0,0.1,0c0.1,0.1,0.2,0.2,0.4,0.3l0.7,0.6l0.8,0.7c0,0,0,0,0,0c0,0,0,0,0.1,0
	c0.2,0,0.5-0.1,0.7-0.1c0.6-0.1,1.3-0.2,1.9-0.2c0.4,0,0.8-0.1,1.3-0.1c0.3,0,0.6,0,0.9,0c0,0,0,0,0,0c0,0,0.1,0,0.1,0
	c0,0,0.1,0.1,0.1,0.2c0,0,0,0,0,0.1c0,0,0,0.1-0.1,0.1c-0.1,0.4-0.2,0.8-0.3,1.3c-0.2,0.7-0.4,1.3-0.6,2c0,0,0,0.1,0,0.1
	c0,0,0,0,0,0.1c0,0,0,0.1,0,0.1c0,0,0,0.1-0.1,0.1c0,0,0,0-0.1,0.1c0,0,0,0-0.1,0c0,0-0.1,0-0.1,0c-0.3,0.1-0.6,0.3-0.9,0.4
	s-0.7,0.3-1,0.4c-0.4,0.2-0.8,0.3-1.2,0.5c-0.3,0.1-0.7,0.2-1.1,0.4c-0.2,0-0.3,0.1-0.5,0.1c-0.5,0-1,0.1-1.5,0.1
	c-0.3,0-0.5,0-0.8,0c-0.3,0-0.6,0.1-0.9,0.1c-0.2,0-0.5,0.1-0.7,0.1c-0.1,0-0.2,0-0.3,0.1c0,0,0,0-0.1,0c0,0,0,0-0.1,0
	c0,0,0,0,0-0.1c0,0,0,0,0-0.1c0,0,0,0,0,0s0,0,0,0c-0.1-0.2-0.3-0.4-0.4-0.6L28,34.5C28,34.4,27.9,34.3,27.9,34.2z M40.1,32L40.1,32
	c-0.4,0.3-0.7,0.5-1,0.7c-0.7,0.5-1.5,1-2.3,1.3c-0.1,0.1-0.2,0.1-0.4,0.2c-0.2,0.1-0.3,0.2-0.5,0.3c-0.6,0.3-1.1,0.7-1.6,1.1
	c0,0,0,0,0,0c0,0,0,0,0,0c0,0,0,0,0,0c0,0,0,0,0,0c0.1,0.2,0.2,0.3,0.2,0.5c0.1,0.2,0.2,0.4,0.3,0.6c0,0,0,0,0.1,0
	c0.3-0.1,0.6-0.2,0.9-0.3c0.4-0.1,0.8-0.3,1.2-0.5c0.3-0.1,0.7-0.3,1-0.4c0.4-0.2,0.7-0.4,1.1-0.5c0,0,0,0,0-0.1
	c0.2-0.5,0.3-1,0.5-1.5c0.1-0.4,0.2-0.7,0.3-1.1C40,32.4,40.1,32.2,40.1,32L40.1,32z M28.2,34.4l2.2,2.9c0.1,0,0.1,0,0.2,0
	c0.3,0,0.5-0.1,0.8-0.1c0.3,0,0.6-0.1,0.9-0.1c0.5,0,1,0,1.4,0c0.3,0,0.6,0,1,0h0l-0.2-0.5c-0.1-0.3-0.3-0.5-0.4-0.8c0,0,0,0,0,0
	c0,0,0,0,0,0l-0.5-0.1c-0.3-0.1-0.6-0.1-0.9-0.2c-0.3-0.1-0.6-0.1-0.9-0.1c-0.4-0.1-0.8-0.2-1.2-0.3c-0.7-0.2-1.3-0.3-1.9-0.5
	L28.2,34.4z M33.2,30.7c0,0.1-0.1,0.1-0.1,0.2c-0.1,0.2-0.2,0.3-0.2,0.5c-0.1,0.2-0.2,0.5-0.4,0.8c-0.2,0.6-0.5,1.2-0.7,1.8
	c-0.1,0.3-0.3,0.7-0.4,1c0,0,0,0,0,0.1c0.4,0.1,0.7,0.2,1.1,0.2c0.3,0,0.5,0.1,0.8,0.1c0.4,0.1,0.7,0.2,1.1,0.2h0c0,0,0,0,0-0.1
	C34.1,35,34,34.5,34,34c-0.1-0.4-0.1-0.7-0.2-1.1c-0.1-0.5-0.2-1-0.4-1.5c-0.1-0.2-0.1-0.5-0.2-0.7C33.2,30.7,33.2,30.7,33.2,30.7
	L33.2,30.7z M40.2,31.7L40.2,31.7c-1.5,0-3.1,0.1-4.6,0.4l0,0c0.4,0.4,0.8,0.7,1.2,1.1c0.1,0.1,0.3,0.2,0.5,0.4c0,0,0.1,0,0.1,0
	c0.3-0.2,0.6-0.3,0.9-0.5c0.6-0.4,1.2-0.8,1.7-1.3C40,31.8,40.1,31.7,40.2,31.7L40.2,31.7z M33.5,30.7L33.5,30.7
	c0.2,0.3,0.3,0.6,0.5,0.9c0.2,0.3,0.3,0.7,0.4,1c0.1,0.3,0.2,0.5,0.3,0.8c0.1,0.3,0.3,0.7,0.4,1l0.1,0.3c0.6-0.3,1.1-0.7,1.7-1
	l-0.1-0.1c-0.1-0.1-0.2-0.2-0.3-0.2c-0.4-0.4-0.9-0.8-1.3-1.2c-0.4-0.3-0.8-0.7-1.2-1C34,31.1,33.8,30.9,33.5,30.7L33.5,30.7z
	 M31.9,32.8L31.9,32.8L31.9,32.8c-0.3,0.1-0.6,0.2-0.9,0.3c-0.6,0.2-1.3,0.4-1.9,0.7l-0.6,0.2c-0.1,0-0.1,0.1-0.2,0.1l2.7,0.7
	L31.9,32.8z M33.5,31L33.5,31c0,0,0,0.1,0,0.1c0.1,0.2,0.1,0.4,0.2,0.5c0.1,0.4,0.2,0.8,0.3,1.3c0.1,0.3,0.1,0.6,0.2,1
	c0.1,0.4,0.1,0.8,0.2,1.1c0,0.1,0.1,0.2,0.1,0.4h0l0.7-0.5c0,0,0,0,0-0.1c-0.1-0.2-0.2-0.4-0.3-0.5c-0.2-0.4-0.4-0.8-0.6-1.3
	c-0.1-0.2-0.2-0.5-0.3-0.7c-0.1-0.2-0.2-0.5-0.4-0.8C33.6,31.3,33.6,31.2,33.5,31L33.5,31z"/>
<path class="st4" d="M40.1,32c-0.1,0.2-0.1,0.4-0.1,0.6c-0.1,0.4-0.2,0.8-0.3,1.1c-0.1,0.5-0.3,1-0.5,1.5c0,0,0,0,0,0.1
	c-0.4,0.2-0.7,0.4-1.1,0.5c-0.3,0.1-0.7,0.3-1,0.4c-0.4,0.2-0.8,0.3-1.2,0.5c-0.3,0.1-0.6,0.2-0.9,0.3c0,0-0.1,0-0.1,0
	c-0.1-0.2-0.2-0.4-0.3-0.6c-0.1-0.2-0.2-0.3-0.2-0.5c0,0,0,0,0,0c0,0,0,0,0,0c0,0,0,0,0,0c0,0,0,0,0,0c0.5-0.4,1.1-0.8,1.6-1.1
	c0.2-0.1,0.3-0.2,0.5-0.3c0.1-0.1,0.2-0.1,0.4-0.2c0.8-0.4,1.6-0.8,2.3-1.3C39.5,32.5,39.8,32.3,40.1,32L40.1,32z"/>
<path class="st4" d="M28.2,34.4l0.4,0.1c0.6,0.2,1.3,0.3,1.9,0.5c0.4,0.1,0.8,0.2,1.2,0.3c0.3,0.1,0.6,0.1,0.9,0.1
	c0.3,0.1,0.6,0.1,0.9,0.2l0.5,0.1c0,0,0,0,0,0c0,0,0,0,0,0c0.1,0.3,0.2,0.5,0.4,0.8l0.2,0.5h0c-0.3,0-0.6,0-1,0c-0.5,0-1,0-1.4,0
	c-0.3,0-0.6,0-0.9,0.1s-0.5,0.1-0.8,0.1c-0.1,0-0.1,0-0.2,0L28.2,34.4L28.2,34.4z"/>
<path class="st5" d="M33.1,30.7c0,0.1,0,0.1,0,0.1c0.1,0.2,0.1,0.4,0.2,0.7c0.1,0.5,0.3,1,0.4,1.5c0.1,0.4,0.1,0.7,0.2,1.1
	c0.1,0.5,0.2,1,0.3,1.4c0,0,0,0,0,0.1h0c-0.4-0.1-0.7-0.2-1.1-0.2c-0.2,0-0.5-0.1-0.8-0.1c-0.4,0-0.7-0.1-1.1-0.2c0,0,0,0,0-0.1
	c0.1-0.3,0.3-0.7,0.4-1c0.2-0.6,0.5-1.2,0.7-1.8c0.1-0.3,0.2-0.5,0.4-0.8c0.1-0.2,0.1-0.3,0.2-0.5C33.1,30.8,33.1,30.7,33.1,30.7z"
	/>
<path class="st4" d="M40.2,31.7c-0.1,0-0.1,0.1-0.2,0.1c-0.6,0.4-1.1,0.9-1.7,1.3c-0.3,0.2-0.6,0.3-0.9,0.5c0,0-0.1,0-0.1,0
	c-0.1-0.1-0.3-0.2-0.5-0.4c-0.4-0.4-0.8-0.7-1.2-1.1l0,0C37.1,31.8,38.6,31.7,40.2,31.7L40.2,31.7z"/>
<path class="st5" d="M33.5,30.7L33.5,30.7c0.3,0.2,0.5,0.4,0.7,0.6c0.4,0.3,0.8,0.7,1.2,1c0.4,0.4,0.9,0.8,1.3,1.2
	c0.1,0.1,0.2,0.2,0.3,0.2l0.1,0.1c-0.6,0.3-1.2,0.6-1.7,1l-0.1-0.3c-0.2-0.3-0.3-0.7-0.4-1c-0.1-0.3-0.2-0.5-0.3-0.8
	c-0.1-0.4-0.3-0.7-0.4-1C33.9,31.3,33.7,31,33.5,30.7L33.5,30.7L33.5,30.7z"/>
<path class="st4" d="M31.9,32.8l-0.9,2.1l-2.7-0.7c0.1,0,0.1-0.1,0.2-0.1l0.6-0.2c0.6-0.2,1.2-0.5,1.9-0.7
	C31.3,33.1,31.6,32.9,31.9,32.8L31.9,32.8L31.9,32.8z"/>
<path class="st5" d="M33.5,31c0.1,0.1,0.2,0.3,0.2,0.5c0.1,0.3,0.2,0.5,0.4,0.8c0.1,0.3,0.2,0.5,0.3,0.7c0.2,0.4,0.4,0.9,0.6,1.3
	c0.1,0.2,0.2,0.4,0.3,0.5c0,0,0,0,0,0.1l-0.7,0.5h0c0-0.1-0.1-0.2-0.1-0.4c-0.1-0.4-0.2-0.8-0.2-1.1c-0.1-0.3-0.1-0.6-0.2-1
	c-0.1-0.4-0.2-0.8-0.3-1.3C33.6,31.5,33.6,31.3,33.5,31C33.5,31.1,33.5,31.1,33.5,31L33.5,31z"/>
<path class="st6" d="M27.3,13.2c-0.3,0.7-0.8,1.1-1.6,1.3c-0.8,0.1-1.3-0.2-1.9-0.7c-1,1.5-1.9,1.7-3.4,0.6
	c-0.2,0.3-0.5,0.6-0.8,0.9c-0.2,0.1-0.4,0.2-0.6,0.3c-0.1,0-0.3,0-0.4-0.1c0.1-0.1,0.2-0.2,0.3-0.3c0.1-0.1,0.3-0.1,0.5-0.2
	c0.2-0.2,0.4-0.4,0.5-0.6s0.2-0.5,0.2-0.8c0-0.1,0.1-0.2,0.2-0.4c0.1,0.1,0.2,0.2,0.2,0.3c0.1,0.4,0.3,0.7,0.6,0.9
	c0.3,0.2,0.7,0.3,1,0.3c0.4,0,0.7-0.2,0.9-0.4c0.3-0.2,0.4-0.6,0.5-0.9c0-0.2,0.1-0.4,0.2-0.5c0.1,0.1,0.2,0.3,0.3,0.4
	c0.2,0.3,0.4,0.5,0.7,0.7c0.3,0.2,0.6,0.2,1,0.2c0.3-0.1,0.6-0.2,0.9-0.5c0.2-0.2,0.4-0.6,0.4-0.9c0-0.2,0.1-0.3,0.2-0.5
	c0.1,0.1,0.2,0.3,0.3,0.4c0.1,0.3,0.3,0.5,0.6,0.7c0.3,0.2,0.5,0.2,0.8,0.2c0.1,0,0.1,0,0.2,0c0.1,0.1,0.2,0.1,0.3,0.2
	c-0.1,0.1-0.2,0.2-0.2,0.2c-0.3,0-0.6,0-0.8-0.1c-0.3-0.1-0.5-0.2-0.7-0.4L27.3,13.2C27.4,13.2,27.4,13.2,27.3,13.2z"/>
<path class="st6" d="M28.5,17.8c-0.3,0.7-0.8,1.1-1.6,1.2c-0.8,0.1-1.3-0.2-1.9-0.7c-1,1.5-1.9,1.7-3.4,0.6
	c-0.2,0.3-0.5,0.6-0.8,0.9c-0.2,0.1-0.4,0.2-0.6,0.3c-0.1,0-0.3,0-0.4-0.1c0.1-0.1,0.2-0.2,0.3-0.3c0.1-0.1,0.3-0.1,0.5-0.2
	c0.2-0.2,0.4-0.4,0.5-0.6c0.1-0.2,0.2-0.5,0.2-0.8c0-0.1,0.1-0.2,0.2-0.4c0.1,0.1,0.2,0.2,0.2,0.3c0.1,0.4,0.3,0.7,0.6,0.9
	s0.7,0.3,1,0.3c0.4,0,0.7-0.2,0.9-0.4c0.3-0.2,0.4-0.6,0.5-0.9c0-0.2,0.1-0.4,0.2-0.5c0.1,0.1,0.2,0.3,0.3,0.4
	c0.2,0.3,0.4,0.5,0.7,0.7c0.3,0.2,0.6,0.2,1,0.2c0.3-0.1,0.6-0.2,0.9-0.5c0.2-0.2,0.4-0.6,0.4-0.9c0-0.2,0.1-0.3,0.2-0.5
	c0.1,0.1,0.2,0.3,0.3,0.4c0.1,0.3,0.3,0.5,0.6,0.7c0.3,0.2,0.5,0.2,0.8,0.2c0.1,0,0.1,0,0.2,0c0.1,0.1,0.2,0.1,0.3,0.2
	c-0.1,0.1-0.2,0.2-0.2,0.2c-0.3,0-0.6,0-0.8-0.1c-0.3-0.1-0.5-0.2-0.7-0.4L28.5,17.8C28.6,17.8,28.6,17.8,28.5,17.8z"/>
<path class="st6" d="M44.6,15.1c-0.3,0.7-0.8,1.1-1.6,1.3s-1.3-0.2-1.9-0.7c-1,1.5-1.9,1.7-3.4,0.6c-0.2,0.3-0.5,0.6-0.8,0.9
	c-0.2,0.1-0.4,0.2-0.6,0.3c-0.1,0-0.3,0-0.4-0.1c0.1-0.1,0.2-0.2,0.3-0.3c0.1-0.1,0.3-0.1,0.5-0.2c0.2-0.2,0.4-0.4,0.5-0.6
	c0.1-0.2,0.2-0.5,0.2-0.8c0-0.1,0.1-0.2,0.2-0.4c0.1,0.1,0.2,0.2,0.2,0.3c0.1,0.4,0.3,0.7,0.6,0.9c0.3,0.2,0.7,0.3,1,0.3
	c0.4,0,0.7-0.2,0.9-0.4c0.3-0.2,0.4-0.6,0.5-0.9c0-0.2,0.1-0.4,0.2-0.5c0.1,0.1,0.2,0.3,0.3,0.4c0.2,0.3,0.4,0.5,0.7,0.7
	c0.3,0.2,0.6,0.2,1,0.2c0.3-0.1,0.6-0.2,0.9-0.5c0.2-0.2,0.4-0.6,0.4-0.9c0-0.2,0.1-0.3,0.2-0.5c0.1,0.1,0.2,0.3,0.3,0.4
	c0.1,0.3,0.3,0.5,0.6,0.7c0.3,0.2,0.5,0.2,0.8,0.2c0.1,0,0.1,0,0.2,0c0.1,0.1,0.2,0.1,0.3,0.2c-0.1,0.1-0.2,0.2-0.2,0.2
	c-0.3,0-0.6,0-0.8-0.1c-0.3-0.1-0.5-0.2-0.7-0.4C44.8,15.3,44.7,15.2,44.6,15.1C44.7,15.2,44.6,15.2,44.6,15.1z"/>
<path class="st6" d="M44.7,10.7c-0.3,0.7-0.8,1.1-1.6,1.3c-0.8,0.1-1.3-0.2-1.9-0.7c-1,1.5-1.9,1.7-3.4,0.6
	c-0.2,0.3-0.5,0.6-0.8,0.9c-0.2,0.1-0.4,0.2-0.6,0.3c-0.1,0-0.3,0-0.4-0.1c0.1-0.1,0.2-0.2,0.3-0.3c0.1-0.1,0.3-0.1,0.5-0.2
	c0.2-0.2,0.4-0.4,0.5-0.6s0.2-0.5,0.2-0.8c0-0.1,0.1-0.2,0.2-0.4c0.1,0.1,0.2,0.2,0.2,0.3c0.1,0.4,0.3,0.7,0.6,0.9
	c0.3,0.2,0.7,0.3,1,0.3c0.4,0,0.7-0.2,0.9-0.4c0.3-0.2,0.4-0.6,0.5-0.9c0-0.2,0.1-0.4,0.2-0.5c0.1,0.1,0.2,0.3,0.3,0.4
	c0.2,0.3,0.4,0.5,0.7,0.7c0.3,0.2,0.6,0.2,1,0.2c0.3-0.1,0.6-0.2,0.9-0.5c0.2-0.2,0.4-0.6,0.4-0.9c0-0.2,0.1-0.3,0.2-0.5
	c0.1,0.1,0.2,0.3,0.3,0.4c0.1,0.3,0.3,0.5,0.6,0.7c0.3,0.2,0.5,0.2,0.8,0.2c0.1,0,0.1,0,0.2,0c0.1,0.1,0.2,0.1,0.3,0.2
	c-0.1,0.1-0.2,0.2-0.2,0.2c-0.3,0-0.6,0-0.8-0.1c-0.3-0.1-0.5-0.2-0.7-0.4L44.7,10.7C44.7,10.7,44.7,10.7,44.7,10.7z"/>
<path class="st6" d="M31.5,53.9c-0.3,0.7-0.8,1.1-1.6,1.2c-0.8,0.1-1.3-0.2-1.9-0.7c-1,1.5-1.9,1.7-3.4,0.6
	c-0.2,0.3-0.5,0.6-0.8,0.9c-0.2,0.1-0.4,0.2-0.6,0.3c-0.1,0-0.3,0-0.4-0.1c0.1-0.1,0.2-0.2,0.3-0.3c0.1-0.1,0.3-0.1,0.5-0.2
	c0.2-0.2,0.4-0.4,0.5-0.6c0.1-0.2,0.2-0.5,0.2-0.8c0-0.1,0.1-0.2,0.2-0.4c0.1,0.1,0.2,0.2,0.2,0.3c0.1,0.4,0.3,0.7,0.6,0.9
	c0.3,0.2,0.7,0.3,1,0.3c0.4,0,0.7-0.2,0.9-0.4s0.4-0.6,0.5-0.9c0-0.2,0.1-0.3,0.2-0.5c0.1,0.1,0.2,0.3,0.3,0.4
	c0.2,0.3,0.4,0.5,0.7,0.7c0.3,0.2,0.6,0.2,1,0.2c0.3-0.1,0.6-0.2,0.9-0.5c0.2-0.2,0.4-0.6,0.4-0.9c0-0.2,0.1-0.3,0.2-0.5
	c0.1,0.1,0.2,0.3,0.3,0.4c0.1,0.3,0.3,0.5,0.6,0.7c0.3,0.2,0.5,0.2,0.8,0.2c0.1,0,0.1,0,0.2,0c0.1,0.1,0.2,0.1,0.3,0.2
	c-0.1,0.1-0.2,0.2-0.2,0.2c-0.3,0-0.6,0-0.8-0.1c-0.3-0.1-0.5-0.2-0.7-0.4L31.5,53.9C31.6,53.9,31.5,53.9,31.5,53.9z"/>
<path class="st6" d="M32.7,58.6c-0.3,0.7-0.8,1.1-1.6,1.2c-0.8,0.1-1.3-0.2-1.9-0.7c-1,1.5-1.9,1.7-3.4,0.6
	c-0.2,0.3-0.5,0.6-0.8,0.9c-0.2,0.1-0.4,0.2-0.6,0.3c-0.1,0-0.3,0-0.4-0.1c0.1-0.1,0.2-0.2,0.3-0.3c0.1-0.1,0.3-0.1,0.5-0.2
	c0.2-0.2,0.4-0.4,0.5-0.6c0.1-0.2,0.2-0.5,0.2-0.8c0-0.1,0.1-0.2,0.1-0.4c0.1,0.1,0.2,0.2,0.2,0.3c0.1,0.4,0.3,0.7,0.6,0.9
	c0.3,0.2,0.7,0.3,1,0.3c0.4,0,0.7-0.2,0.9-0.4c0.3-0.2,0.4-0.6,0.5-0.9c0-0.2,0.1-0.4,0.2-0.5c0.1,0.1,0.2,0.3,0.3,0.4
	c0.2,0.3,0.4,0.5,0.7,0.7c0.3,0.2,0.6,0.2,1,0.2c0.3-0.1,0.6-0.2,0.9-0.5c0.2-0.2,0.4-0.6,0.4-0.9c0-0.2,0.1-0.3,0.2-0.5
	c0.1,0.1,0.2,0.3,0.3,0.4c0.1,0.3,0.3,0.5,0.6,0.7c0.3,0.2,0.5,0.2,0.8,0.2c0.1,0,0.1,0,0.2,0c0.1,0.1,0.2,0.1,0.3,0.2
	c-0.1,0.1-0.2,0.2-0.2,0.2c-0.3,0-0.6,0-0.8-0.1c-0.3-0.1-0.5-0.2-0.7-0.4L32.7,58.6C32.8,58.6,32.7,58.6,32.7,58.6z"/>
<path class="st6" d="M48.8,55.9c-0.3,0.7-0.8,1.1-1.6,1.2c-0.8,0.1-1.3-0.2-1.9-0.7c-1,1.5-1.9,1.7-3.4,0.6
	c-0.2,0.3-0.5,0.6-0.8,0.9c-0.2,0.1-0.4,0.2-0.6,0.3c-0.1,0-0.3,0-0.4-0.1c0.1-0.1,0.2-0.2,0.3-0.3c0.1-0.1,0.3-0.1,0.5-0.2
	c0.2-0.2,0.4-0.4,0.5-0.6c0.1-0.2,0.2-0.5,0.2-0.8c0-0.1,0.1-0.2,0.2-0.4c0.1,0.1,0.2,0.2,0.2,0.3c0.1,0.4,0.3,0.7,0.6,0.9
	c0.3,0.2,0.7,0.3,1,0.3c0.4,0,0.7-0.2,0.9-0.4c0.3-0.2,0.4-0.6,0.5-0.9c0-0.2,0.1-0.4,0.2-0.5c0.1,0.1,0.2,0.3,0.3,0.4
	c0.2,0.3,0.4,0.5,0.7,0.7c0.3,0.2,0.6,0.2,1,0.2c0.3-0.1,0.6-0.2,0.9-0.5c0.2-0.2,0.4-0.6,0.4-0.9c0-0.2,0.1-0.3,0.2-0.5
	c0.1,0.1,0.2,0.3,0.3,0.4c0.1,0.3,0.3,0.5,0.6,0.7c0.3,0.2,0.5,0.2,0.8,0.2c0.1,0,0.1,0,0.2,0c0.1,0.1,0.2,0.1,0.3,0.2
	c-0.1,0.1-0.2,0.2-0.2,0.2c-0.3,0-0.6,0-0.9-0.1c-0.3-0.1-0.5-0.2-0.7-0.4L48.8,55.9C48.8,55.9,48.8,55.9,48.8,55.9z"/>
<path class="st6" d="M48.8,51.5c-0.3,0.7-0.8,1.1-1.6,1.2c-0.8,0.1-1.3-0.2-1.9-0.7c-1,1.5-1.9,1.7-3.4,0.6
	c-0.2,0.3-0.5,0.6-0.8,0.9c-0.2,0.1-0.4,0.2-0.6,0.3c-0.1,0-0.3,0-0.4-0.1c0.1-0.1,0.2-0.2,0.3-0.3c0.1-0.1,0.3-0.1,0.5-0.2
	c0.2-0.2,0.4-0.4,0.5-0.6c0.1-0.2,0.2-0.5,0.2-0.8c0-0.1,0.1-0.2,0.2-0.4c0.1,0.1,0.2,0.2,0.2,0.3c0.1,0.4,0.3,0.7,0.6,0.9
	c0.3,0.2,0.7,0.3,1,0.3c0.4,0,0.7-0.2,0.9-0.4c0.3-0.2,0.4-0.6,0.5-0.9c0-0.2,0.1-0.3,0.2-0.5c0.1,0.1,0.2,0.3,0.3,0.4
	c0.2,0.3,0.4,0.5,0.7,0.7c0.3,0.2,0.6,0.2,1,0.2c0.3-0.1,0.6-0.2,0.9-0.5s0.4-0.6,0.4-0.9c0-0.2,0.1-0.3,0.2-0.5
	c0.1,0.1,0.2,0.3,0.3,0.4c0.1,0.3,0.3,0.5,0.6,0.7c0.3,0.2,0.5,0.2,0.8,0.2c0.1,0,0.1,0,0.2,0c0.1,0.1,0.2,0.1,0.3,0.2
	c-0.1,0.1-0.2,0.2-0.2,0.2c-0.3,0-0.6,0-0.8-0.1c-0.3-0.1-0.5-0.2-0.7-0.4L48.8,51.5C48.9,51.5,48.9,51.5,48.8,51.5z"/>
<path d="M52.7,14.3c1.1,0,1.7,0.8,1.4,1.7c-0.3,0.7-1.1,1-2,0.7c-0.2-0.1-0.3-0.1-0.4-0.2c-0.1-0.1-0.2-0.2-0.3-0.4
	c-0.1-0.1-0.1-0.3-0.1-0.5c0-0.2,0-0.3,0.1-0.5C51.5,14.6,52,14.3,52.7,14.3z"/>
<path d="M51.9,8.7c0-0.3,0.1-0.6,0.4-0.9c0.2-0.2,0.5-0.4,0.9-0.4c0.4,0,0.8,0.2,1,0.5c0.3,0.3,0.4,0.7,0.5,1c0,0.3-0.2,0.6-0.4,0.9
	c-0.2,0.2-0.6,0.4-0.9,0.3c-0.4,0-0.8-0.2-1-0.5C52,9.4,51.9,9.1,51.9,8.7z"/>
<path d="M9.6,31.2c0-0.3,0.2-0.6,0.4-0.9c0.2-0.2,0.5-0.4,0.9-0.4c0.4,0,0.8,0.2,1,0.5c0.3,0.3,0.4,0.7,0.4,1.1
	c0,0.3-0.2,0.6-0.4,0.9c-0.2,0.2-0.6,0.3-0.9,0.3c-0.4,0-0.7-0.2-1-0.5C9.8,32,9.6,31.6,9.6,31.2z"/>
<path d="M7.8,25.1c-0.2,0-0.4,0-0.5-0.1C7.1,25,7,24.9,6.9,24.7c-0.1-0.1-0.2-0.3-0.3-0.4c-0.1-0.2-0.1-0.3-0.1-0.5
	c0-0.3,0.2-0.7,0.4-0.9c0.3-0.2,0.6-0.4,0.9-0.4c0.2,0,0.3,0,0.5,0.1c0.2,0.1,0.3,0.2,0.4,0.3C8.9,23,9,23.1,9.1,23.3
	s0.1,0.3,0.1,0.5c0,0.2,0,0.4-0.1,0.5c-0.1,0.2-0.2,0.3-0.3,0.4C8.7,24.9,8.5,25,8.4,25C8.2,25.1,8,25.1,7.8,25.1z"/>
<path d="M59.7,11.2c0.8,0,1.4,0.5,1.4,1.3c0,0.2,0,0.3-0.1,0.5c-0.1,0.2-0.2,0.3-0.3,0.4c-0.1,0.1-0.3,0.2-0.4,0.3
	c-0.2,0.1-0.3,0.1-0.5,0.1c-0.8,0-1.4-0.5-1.4-1.3C58.4,11.7,58.9,11.2,59.7,11.2z"/>
<path d="M53.9,2.3c0.8,0,1.4,0.5,1.4,1.3c0,0.2,0,0.3-0.1,0.5c-0.1,0.2-0.2,0.3-0.3,0.4c-0.1,0.1-0.3,0.2-0.4,0.3
	c-0.2,0.1-0.3,0.1-0.5,0.1c-0.8,0-1.4-0.5-1.4-1.3C52.5,2.8,53.1,2.3,53.9,2.3z"/>
</svg>
