<?xml version="1.0" encoding="utf-8"?>
<!-- Generator: Adobe Illustrator 25.0.0, SVG Export Plug-In . SVG Version: 6.00 Build 0)  -->
<svg version="1.1" id="Capa_1" xmlns="http://www.w3.org/2000/svg" xmlns:xlink="http://www.w3.org/1999/xlink" x="0px" y="0px"
	 viewBox="0 0 92 66" style="enable-background:new 0 0 92 66;" xml:space="preserve">
<style type="text/css">
	.st0{fill:#FFFFFF;}
	.st1{fill:#A06A80;}
	.st2{fill:#FFD265;}
	.st3{fill:#8EC2D8;}
</style>
<rect class="st0" width="92" height="66"/>
<path d="M47.6,64.5c-3.9,0-7.9-0.1-11.8-0.1c-2.4,0-4.7,0.2-7.1,0.2c-2.5,0.1-4.9-0.2-7.3-0.9c-1.6-0.4-3.1-1.2-4.4-2.4
	c-1.7-1.5-2.5-3.5-2.7-5.7c-0.1-1.5-0.1-2.9-0.1-4.4c0-2.9,0-5.7,0-8.6c0-2.4,0-4.9,0.6-7.3c0.6-2.3,1.5-4.3,3.4-5.7
	c1.5-1.1,3.2-1.7,5-2c2.6-0.4,5.2-0.4,7.8-0.2c4.4,0.3,8.8,0.3,13.3,0.2c6.1,0,12.2-0.1,18.3-0.1c3,0,6.1,0.4,9,1.2
	c1.3,0.3,2.5,0.9,3.6,1.8c1.6,1.3,2.4,3,2.8,5c0.4,1.6,0.4,3.3,0.3,4.9c-0.1,4.3-0.3,8.5-0.4,12.8c0,0.2,0.1,0.5,0.1,0.7
	c0,0.1,0,0.3,0,0.4c-0.1,2-0.3,3.9-0.4,5.9c0,0.3,0,0.7-0.5,0.7c-0.1,0-0.2,0.1-0.2,0.2c-0.7,1.7-2.1,2.6-3.9,2.9
	c-2.5,0.6-5.1,0.7-7.7,0.8c-5,0.2-10,0-15-0.2c-1,0-1.9-0.1-2.9-0.1L47.6,64.5z M19.8,30.6c0.2,0.2,0.3,0.3,0.4,0.4
	c0.9,0.7,1.8,1.5,2.8,2.1c2.6,1.8,5.3,3.5,7.9,5.2c1.2,0.8,2.4,1.7,3.6,2.6c1.6,1.2,3.3,2.3,4.9,3.4c1.1,0.8,2.3,1.5,3.5,2.2
	c0.1,0.1,0.3,0.1,0.4,0.1c0.2,0,0.3,0,0.5,0.1c0.2,0.1,0.3,0.2,0.3,0.4c0,0.1,0.1,0.1,0.2,0.2c1.5,0.7,3.1,1,4.7,0.6
	c1.6-0.4,3-1.1,4.4-2c4.8-3,9.6-6,14.4-9c2.4-1.5,4.9-3,7.5-4.3c-0.6-0.4-1-0.8-1.6-1.2c-1.1-0.7-2.4-1.1-3.7-1.4
	c-3-0.7-6.1-0.9-9.1-0.9c-7.5,0-15,0.2-22.4,0.2c-3.6,0-7.1-0.2-10.7-0.3c-2.2-0.1-4.4,0.1-6.5,0.9C20.8,30.1,20.3,30.3,19.8,30.6
	L19.8,30.6z M18.8,60.7c0.2,0.1,0.3,0.2,0.5,0.3c1.7,0.9,3.5,1.4,5.3,1.7c2.2,0.4,4.4,0.3,6.6,0.2c3.3-0.1,6.5-0.3,9.8-0.2
	c6.1,0.1,12.2,0.5,18.4,0.6c4.3,0.1,8.6-0.1,12.8-0.7c0.5-0.1,1-0.2,1.6-0.4c-0.8-0.7-1.5-1.2-2.2-1.8c-1.2-1.1-2.6-2.1-4.1-2.9
	c-2.3-1.2-4.4-2.7-6.2-4.5c-2.1-1.9-4.3-3.6-6.7-5.1c-0.7-0.4-1.2-0.5-1.9,0c-1.2,0.7-2.5,1.2-3.9,1.5c-1.9,0.3-3.6-0.1-5.3-0.9
	c-0.2-0.1-0.3-0.1-0.5,0c-1.3,0.7-2.5,1.4-3.9,2c-4.6,2-9.2,4.2-13.7,6.4C23.1,58.2,21,59.4,18.8,60.7z M18.4,31.9
	c-0.7,0.8-1.3,1.8-1.6,2.9c-0.7,2.2-0.8,4.5-0.8,6.8c0,2.4,0.1,4.9,0.1,7.3c0,2.2,0,4.3,0.1,6.5c0.1,1.5,0.6,2.9,1.4,4.1
	c0.2,0.3,0.5,0.5,0.9,0.3c0.9-0.5,1.8-0.9,2.7-1.5c4.1-2.6,8.5-4.7,12.9-6.9c2.3-1.2,4.7-2.3,7-3.5c0.1-0.1,0.3-0.2,0.4-0.3
	l-0.3-0.2c-2.2-1.5-4.4-2.9-6.5-4.4c-2.3-1.6-4.6-3.4-7-5c-1.6-1.1-3.4-2-5-3.1C21.2,34,19.8,32.9,18.4,31.9z M75.2,61.2
	c0.4-0.6,0.7-1.3,0.8-2c0.3-1.4,0.3-2.9,0.9-4.3c0-0.1,0-0.2,0-0.2c0.1-4.5,0.2-9,0.2-13.5c0-1.7,0-3.4-0.3-5.1
	c-0.2-1.2-0.7-2.3-1.4-3.2c-0.2,0.2-0.4,0.4-0.6,0.5c-1.9,1.6-4,3.1-6.2,4.4c-3.8,2.4-7.6,4.7-11.3,7.1c-0.9,0.6-1.9,1.2-2.8,1.9
	c0.1,0.1,0.1,0.1,0.1,0.1c2.4,1.2,4.5,2.8,6.6,4.5c1.6,1.3,3.1,2.7,4.9,3.7c0.6,0.4,1.1,0.7,1.7,1c2,0.9,3.6,2.2,5.2,3.6
	C73.8,60.3,74.5,60.7,75.2,61.2z"/>
<path class="st1" d="M19.8,30.6c0.5-0.2,1-0.5,1.5-0.7c2.1-0.8,4.3-1,6.5-0.9c3.6,0.1,7.1,0.3,10.7,0.3c7.5,0,15-0.1,22.4-0.2
	c3.1,0,6.1,0.1,9.1,0.9c1.3,0.3,2.6,0.7,3.7,1.4c0.6,0.3,1,0.8,1.6,1.2c-2.7,1.3-5.1,2.8-7.5,4.3c-4.8,3-9.6,6-14.4,9
	c-1.4,0.9-2.8,1.6-4.4,2c-1.7,0.4-3.2,0.1-4.7-0.6c-0.1,0-0.2-0.1-0.2-0.2c-0.1-0.2-0.2-0.3-0.3-0.4c-0.2-0.1-0.3-0.1-0.5-0.1
	c-0.1,0-0.3,0-0.4-0.1c-1.2-0.7-2.3-1.5-3.5-2.2c-1.7-1.1-3.3-2.3-4.9-3.4c-1.2-0.9-2.4-1.8-3.6-2.6c-2.6-1.8-5.3-3.5-7.9-5.2
	c-1-0.7-1.9-1.4-2.8-2.1C20,30.9,19.9,30.8,19.8,30.6z"/>
<path class="st2" d="M18.8,60.7c2.2-1.2,4.3-2.5,6.5-3.6c4.5-2.3,9.1-4.4,13.7-6.4c1.3-0.6,2.6-1.3,3.9-2c0.2-0.1,0.3-0.1,0.5,0
	c1.7,0.8,3.4,1.2,5.3,0.9c1.4-0.2,2.7-0.7,3.9-1.5c0.7-0.4,1.2-0.4,1.9,0c2.4,1.5,4.7,3.1,6.7,5.1c1.9,1.8,4,3.3,6.3,4.5
	c1.5,0.8,2.9,1.8,4.1,2.9c0.7,0.6,1.4,1.2,2.2,1.8c-0.6,0.1-1.1,0.3-1.6,0.4c-4.3,0.6-8.6,0.8-12.8,0.7c-6.1-0.2-12.2-0.5-18.4-0.6
	c-3.3-0.1-6.5,0.1-9.8,0.2c-2.2,0.1-4.4,0.1-6.6-0.2c-1.9-0.3-3.7-0.8-5.3-1.7C19.1,60.9,18.9,60.8,18.8,60.7z"/>
<path class="st3" d="M18.4,31.9c1.5,1.1,2.8,2.1,4.3,3.1c1.6,1.1,3.4,2,5,3.1c2.4,1.6,4.6,3.4,7,5c2.2,1.5,4.4,2.9,6.5,4.4l0.3,0.2
	c-0.1,0.1-0.3,0.2-0.4,0.3c-2.3,1.2-4.7,2.3-7,3.5c-4.4,2.2-8.8,4.3-12.9,6.9c-0.9,0.6-1.8,1-2.7,1.5c-0.4,0.2-0.6,0.1-0.9-0.3
	c-0.9-1.2-1.4-2.6-1.4-4.1C16,53.2,16,51,16,48.8c0-2.4,0-4.9-0.1-7.3c0-2.3,0.1-4.6,0.8-6.8C17.1,33.7,17.6,32.7,18.4,31.9z"/>
<path class="st3" d="M75.2,61.2c-0.7-0.5-1.5-1-2.1-1.5c-1.6-1.4-3.3-2.7-5.2-3.6c-0.6-0.3-1.2-0.6-1.7-1c-1.8-1-3.3-2.4-4.9-3.7
	c-2-1.7-4.2-3.3-6.6-4.5c0,0-0.1-0.1-0.1-0.1c0.9-0.6,1.8-1.3,2.8-1.9c3.8-2.4,7.6-4.7,11.4-7.1c2.2-1.3,4.2-2.8,6.2-4.4
	c0.2-0.2,0.4-0.3,0.6-0.5c0.7,1,1.2,2.1,1.4,3.2c0.3,1.7,0.3,3.4,0.3,5.1c0,4.5-0.1,9-0.2,13.5c0,0.1,0,0.2,0,0.2
	c-0.6,1.4-0.6,2.9-0.9,4.3C75.9,59.9,75.6,60.6,75.2,61.2z"/>
<path d="M74.5,22.2c0.9,0.9,2,0.7,2.5-0.3c0.3-0.8-0.1-1.7-1-2.2c-0.2-0.1-0.3-0.1-0.5-0.1c-0.2,0-0.4,0-0.5,0.1
	c-0.2,0.1-0.3,0.2-0.5,0.3c-0.1,0.1-0.3,0.3-0.3,0.4C73.7,21.1,73.8,21.7,74.5,22.2z"/>
<path d="M7.5,32.9c0.3,0.3,0.4,0.6,0.4,1c0,0.4-0.2,0.7-0.4,1c-0.3,0.3-0.8,0.4-1.2,0.4c-0.4,0-0.9-0.2-1.2-0.5
	c-0.2-0.3-0.4-0.6-0.4-1c0-0.4,0.2-0.7,0.4-1c0.3-0.3,0.8-0.4,1.2-0.4C6.7,32.5,7.2,32.6,7.5,32.9z"/>
<path d="M72,26.7c0.7,0.6,1.5,0.7,2.1,0c0.1-0.1,0.2-0.3,0.3-0.5c0.1-0.2,0.1-0.4,0.1-0.6c0-0.2-0.1-0.4-0.1-0.6
	c-0.1-0.2-0.2-0.3-0.3-0.5c-0.7-0.6-1.5-0.7-2.1-0.1C71.2,25.3,71.3,26.1,72,26.7z"/>
<path d="M10.8,39.6c-0.7,0.7-1.5,0.7-2.1,0c-0.1-0.1-0.2-0.3-0.3-0.5c-0.1-0.2-0.1-0.4-0.1-0.6c0-0.2,0.1-0.4,0.1-0.6
	c0.1-0.2,0.2-0.3,0.3-0.5C9.5,37,10.4,37,11,37.6C11.6,38.2,11.5,39,10.8,39.6z"/>
</svg>
