<?xml version="1.0" encoding="utf-8"?>
<!-- Generator: Adobe Illustrator 25.0.0, SVG Export Plug-In . SVG Version: 6.00 Build 0)  -->
<svg version="1.1" id="Capa_1" xmlns="http://www.w3.org/2000/svg" xmlns:xlink="http://www.w3.org/1999/xlink" x="0px" y="0px"
	 viewBox="0 0 86 91" style="enable-background:new 0 0 86 91;" xml:space="preserve">
<style type="text/css">
	.st0{fill:#FFFFFF;}
	.st1{fill:#E88D4F;}
	.st2{fill:#8EC2D8;}
</style>
<rect class="st0" width="85.8" height="90.9"/>
<path d="M35.1,51.8c0.1,2.8,0.2,5.6,0.2,8.4c0,1.1-0.1,2.2-0.1,3.3c0,0.4,0,0.7,0.2,1.1c0.6,1.2,0.1,2.2-1.3,2.2
	c-0.8,0-1.5-0.2-2.3-0.2c-1.4,0-2.7-0.1-4.1,0.1c-2.4,0.3-4.6,0.1-6.6-1.1c-1.2-0.7-2.4-1.2-3.6-2c-0.4-0.3-0.8-0.7-1-1.1
	c-0.2-0.5-0.2-1-0.1-1.5c1-5.2,0.5-10.5,0.6-15.7c0-1.4-0.1-2.8-0.2-4.2c0-0.4,0-0.8,0.1-1.1c0.2-0.9,0.5-1,1.4-0.9
	c2.2,0.3,4.5,0.4,6.7-0.1c1.7-0.4,3.5-0.8,5.2-1.4c2.1-0.7,3.4-2.2,4.2-4.2c0.6-1.7,1.1-3.4,1-5.2c-0.2-2.1-1.1-3.7-2.9-4.7
	c-0.7-0.4-1.4-0.7-2.2-1c-0.9-0.4-1.9-0.6-2.9-0.5c-1,0.1-1.9,0.4-2.7,1c-2,1.2-3.9,2.8-5.4,4.6c-0.2,0.2-0.4,0.4-0.6,0.5
	c-0.2,0.1-0.5,0.2-0.8,0.2c-1.9,0-3.8-0.1-5.7-0.6c-1.1-0.3-1.7-1-2.4-1.7c-0.9-1-2-1.9-3-2.8c-0.3-0.2-0.6-0.5-0.8-0.8
	C6,22,5.9,21.6,6,21.4c1-1.6,1.9-3.4,3.2-4.8c1.1-1.2,2.6-2.1,4-3.1c2.7-1.9,5.5-3.8,8.9-4.5c1.4-0.3,2.8-0.5,4.2-0.7
	c2.2-0.2,4.4-0.3,6.5,0c2.5,0.3,5.1,0.8,7.5,1.6c1.7,0.5,3.3,1.1,5,1.5c1.1,0.3,2,1,2.7,1.8c1.8,2.1,3.3,4.3,4.3,6.9
	c1.4,3.7,2,7.4,1.3,11.4c-0.2,1.2-0.1,2.5-0.2,3.7c-0.1,0.5-0.4,1.1-0.6,1.6c-0.3,0.7-0.6,1.5-0.9,2.3c-1.4,5.1-4.8,8.3-9.7,10.2
	C39.8,50.2,37.4,51,35.1,51.8z M17.8,39.7c0,0.3-0.1,0.6-0.1,0.9c0,4.3,0,8.7,0,13c0,1.8-0.1,3.7-0.1,5.5c0,0.9,0,1.8,0,2.6
	c0,0.5,0.2,0.8,0.8,0.7c0.5-0.1,1,0,1.5,0c1.3,0,2.6,0,3.8,0c0.7,0,1.5-0.1,2.2-0.1c1.4-0.1,2.8-0.1,4.3-0.1
	c-0.1-4.6-0.2-9.1-0.3-13.7c0.2-0.1,0.6-0.2,0.9-0.3c2.2-0.6,4.4-1.2,6.6-1.8c1.2-0.3,2.2-0.9,3.3-1.6c3.6-2.3,5.7-5.6,6.9-9.6
	c0.5-1.7,0.8-3.6,1.2-5.4c0.6-2.4,0.1-4.7-0.8-7c-0.4-1-0.8-2-1.2-3.1c-0.7-1.7-1.6-3.3-2.9-4.7c-1.5-1.8-3.2-3.2-5.3-4.1
	c-0.1,0-0.2-0.2-0.4-0.2c-1.5-0.7-2.9-1.7-4.7-1.7c-1.4,0-2.8-0.2-4.3-0.3c-4.2-0.1-8.3,0.4-12,2.6c-2.4,1.4-4.6,3.1-6.8,4.7
	c-0.4,0.3-0.8,0.7-1.1,1.2c-0.9,1.4-1.8,2.8-2.7,4.2c0.2,0.1,0.3,0.2,0.5,0.4c1.7,0.8,2.8,2.3,4,3.7c0.8,0.9,0.9,0.9,1.8,0.1
	c1-0.9,1.9-1.9,3.1-2.6c3.7-2.2,8.1-3,12.4-2.3c2,0.3,3.8,1.1,5.4,2.3c2.4,1.8,2.8,4.4,2.4,7.2c-0.5,2.9-1.5,5.4-4.1,7.1
	c-2.3,1.5-4.8,2.1-7.4,2.4C22.4,40,20.2,39.8,17.8,39.7z M39.5,10.2l-0.1,0.2c0.3,0.2,0.7,0.4,1,0.5c1.3,0.5,2.4,1.4,3.2,2.5
	c0.2,0.3,0.5,0.6,0.7,0.9c0.9,1.3,2,2.6,2.7,4.1c0.8,1.7,1.4,3.6,2,5.4c0.6,1.9,1,3.9,0.5,5.9c-0.7,3-1.1,6-2.5,8.8
	c-1.3,2.6-2.8,4.8-5.2,6.5c-1.9,1.3-4,2-6.1,2.7c-1.4,0.4-2.8,0.8-4.4,1.2c0.7,0.4,1.3,0.9,1.9,1.3c0.8,0.7,1.5,0.7,2.5,0.3
	c2.6-1.1,5.3-1.9,8-3c3-1.2,5.1-3.4,6.5-6.2c1.5-3,2.2-6.2,2.5-9.5c0.3-3.2,0.6-6.3-0.4-9.5c-1.1-3.5-2.9-6.7-5.5-9.3
	c-0.2-0.2-0.4-0.3-0.7-0.4c-1-0.4-2-0.9-3-1.3C41.9,10.9,40.7,10.6,39.5,10.2z M30.5,49.4c0.1,3.7,0.2,7.2,0.3,10.8
	c0,1.4,0.2,2.6,1.6,3.3c0.1,0,0.1,0.2,0.2,0.2c0.6,0.3,1.2,0.7,1.9,1.1c0.1-0.6,0.2-1.1,0.2-1.7c0-0.7-0.1-1.3-0.2-2
	c-0.2-2.8-0.3-5.7-0.5-8.5c0-0.4-0.2-0.8-0.5-1.1C32.7,50.8,31.7,50.2,30.5,49.4z M34.6,65.7l-1.4-1.2c-1.6-1.3-3.4-1.8-5.5-1.7
	c-2.3,0.2-4.7,0.2-7,0.3c-0.7,0-1.3,0.1-2,0.1l-0.1,0.3c1.7,0.7,3.5,1.5,5.2,2.2c0.3,0.1,0.6,0.2,1,0.1c1.7-0.1,3.5-0.2,5.2-0.2
	c1.1,0,2.2,0.1,3.4,0.2C33.8,65.9,34.2,65.8,34.6,65.7z M25.5,21.5c-4.7,0.2-9.2,1-12.1,5.4c1.3,0.2,2.5,0.3,3.8,0.5
	c0.8,0.1,1.3-0.1,1.8-0.7c1.1-1.1,2.2-2.2,3.4-3.2C23.4,22.7,24.5,22.2,25.5,21.5z"/>
<path d="M17.8,67.5c0.4,0.1,0.8,0.1,1.1,0.1c2.5,0,5-0.1,7.5-0.1c1,0,2,0.1,2.9-0.1c1.6-0.3,3.1,0.1,4.5,0.9
	c0.1,0.1,0.2,0.1,0.3,0.1c1.5,0.6,1.6,0.6,1.5,2.2c0,2.3-0.2,4.6-0.2,6.8c0,0.6,0,1.2,0,1.7c0,1.1,0,2.1-0.1,3.2
	c0,0.2-0.3,0.4-0.5,0.5c-0.5,0.1-1,0.2-1.5,0.2c-2.5,0.1-5.1,0.2-7.6,0.2c-1.4,0-2.9,0-4.3-0.1c-0.5-0.1-0.9-0.2-1.3-0.5
	c-0.6-0.4-1.2-0.9-1.9-1.2c-0.4-0.2-0.7-0.4-0.9-0.8c-0.2-0.3-0.3-0.7-0.3-1.1c0.1-3.9,0.4-7.8,0.6-11.7
	C17.7,67.8,17.7,67.6,17.8,67.5z M30.8,68.1c-0.4,0-0.7,0.1-0.9,0.1c-1.2,0-2.5,0.1-3.7,0c-2-0.1-3.9-0.2-5.9-0.2
	c-0.7,0-1.3,0.1-2.1,0.2c-0.1,3.8-0.3,7.5-0.4,11.3c0.3,0.1,0.6,0.1,0.9,0.1c3.5,0,7,0.1,10.5,0.1c1.4,0,1.4,0,1.5-1.4
	c0.1-2.9,0.1-5.8,0.2-8.7C30.8,69.2,30.8,68.7,30.8,68.1z M34.8,81c0-0.5,0.1-0.8,0.1-1.2c0-3.3,0-6.5,0-9.8c0-0.1,0-0.2-0.1-0.3
	c0-0.1-0.1-0.2-0.2-0.2c-1-0.5-1.9-0.9-3-1.3c-0.1,4-0.2,7.9-0.3,11.9L34.8,81z M18.2,80.4c1.3,1.3,4.5,2.4,6.2,2.3
	c2-0.2,4.1-0.3,6.1-0.4c1.2-0.1,2.4-0.2,3.7-0.4c-1.1-0.4-2-0.7-3-1c-0.3-0.1-0.7-0.2-1-0.2c-3.3-0.1-6.6-0.2-9.9-0.2
	C19.7,80.5,19,80.4,18.2,80.4L18.2,80.4z"/>
<path class="st1" d="M17.8,39.7c2.4,0,4.6,0.3,6.8,0.1c2.6-0.2,5.1-0.9,7.4-2.4c2.6-1.7,3.7-4.2,4.1-7.1c0.5-2.8,0-5.4-2.4-7.2
	c-1.6-1.2-3.4-2-5.4-2.3c-4.3-0.7-8.7,0.1-12.4,2.3c-1.1,0.7-2.1,1.7-3.1,2.6c-0.9,0.8-1,0.8-1.8-0.1c-1.2-1.4-2.3-2.9-4-3.7
	c-0.2-0.1-0.3-0.2-0.5-0.4c0.9-1.5,1.8-2.9,2.7-4.2c0.3-0.5,0.7-0.9,1.1-1.2c2.3-1.6,4.5-3.3,6.8-4.7c3.7-2.2,7.8-2.8,12-2.6
	c1.4,0,2.8,0.2,4.3,0.3c1.8,0,3.1,1,4.7,1.7c0.1,0.1,0.2,0.2,0.4,0.2c2.1,0.9,3.8,2.3,5.3,4.1c1.2,1.4,2.2,3,2.9,4.7
	c0.4,1,0.8,2,1.2,3.1c0.8,2.3,1.3,4.6,0.8,7c-0.4,1.8-0.7,3.6-1.2,5.4c-1.2,3.9-3.3,7.3-6.9,9.6c-1,0.7-2,1.3-3.3,1.6
	c-2.2,0.5-4.4,1.2-6.6,1.8c-0.4,0.1-0.7,0.2-0.9,0.3c0.1,4.6,0.2,9.1,0.3,13.7c-1.5,0-2.9,0.1-4.3,0.1c-0.7,0-1.5,0.1-2.2,0.1
	c-1.3,0-2.6,0-3.8,0c-0.5,0-1-0.1-1.5,0c-0.6,0.1-0.8-0.2-0.8-0.7c0-0.9,0-1.8,0-2.6c0-1.8,0.1-3.7,0.1-5.5c0-4.3,0-8.7,0-13
	C17.7,40.3,17.7,40,17.8,39.7z"/>
<path class="st2" d="M39.5,10.2c1.2,0.4,2.4,0.7,3.6,1.2c1,0.4,2,0.8,3,1.3c0.3,0.1,0.5,0.3,0.7,0.4c2.5,2.6,4.4,5.8,5.5,9.3
	c1,3.2,0.7,6.3,0.4,9.5c-0.3,3.3-1,6.5-2.5,9.5c-1.4,2.8-3.6,5-6.5,6.2c-2.6,1.1-5.3,1.9-8,3c-1,0.4-1.7,0.3-2.5-0.3
	c-0.6-0.5-1.2-0.9-1.9-1.3c1.6-0.4,3-0.7,4.4-1.2c2.1-0.7,4.3-1.3,6.1-2.7c2.4-1.7,3.9-3.9,5.2-6.5c1.4-2.8,1.8-5.8,2.5-8.8
	c0.5-2,0.1-4-0.5-5.9c-0.6-1.8-1.1-3.7-2-5.4c-0.7-1.4-1.8-2.7-2.7-4.1c-0.2-0.3-0.5-0.6-0.7-0.9c-0.8-1.1-1.9-2-3.2-2.5
	c-0.3-0.1-0.7-0.3-1-0.5L39.5,10.2z"/>
<path class="st2" d="M30.5,49.4c1.2,0.8,2.1,1.4,3,2.1c0.3,0.3,0.5,0.7,0.5,1.1c0.2,2.8,0.4,5.7,0.5,8.5c0,0.7,0.2,1.3,0.2,2
	c0,0.6-0.1,1.1-0.2,1.7c-0.8-0.4-1.3-0.8-1.9-1.1c-0.1-0.1-0.1-0.2-0.2-0.2c-1.4-0.7-1.6-1.9-1.6-3.3C30.8,56.6,30.6,53.1,30.5,49.4
	z"/>
<path class="st2" d="M34.6,65.7c-0.4,0.1-0.7,0.2-1.1,0.2c-1.1,0-2.3-0.2-3.4-0.2c-1.7,0-3.5,0.2-5.2,0.2c-0.3,0-0.7,0-1-0.1
	c-1.7-0.7-3.5-1.5-5.2-2.2l0.1-0.3c0.7,0,1.3-0.1,2-0.1c2.4-0.1,4.7-0.1,7-0.3c2.1-0.2,3.9,0.3,5.5,1.7L34.6,65.7z"/>
<path class="st2" d="M25.5,21.5c-1,0.7-2.1,1.3-3.1,2c-1.2,1-2.4,2-3.4,3.1c-0.5,0.6-1,0.9-1.8,0.7c-1.3-0.2-2.5-0.3-3.8-0.5
	C16.3,22.5,20.8,21.7,25.5,21.5z"/>
<path class="st1" d="M30.8,68.1c0,0.5,0,1,0,1.5c-0.1,2.9-0.1,5.8-0.2,8.7c0,1.5,0,1.5-1.5,1.4c-3.5,0-7,0-10.5-0.1
	c-0.3,0-0.6-0.1-0.9-0.1c0.2-3.8,0.3-7.5,0.4-11.3c0.8-0.1,1.4-0.3,2.1-0.2c2,0,3.9,0.2,5.9,0.2c1.2,0,2.5,0,3.7,0
	C30.2,68.3,30.5,68.2,30.8,68.1z"/>
<path class="st2" d="M34.8,81l-3.5-0.9c0.1-4,0.2-7.9,0.3-11.9c1.1,0.5,2.1,0.9,3,1.3c0.1,0.1,0.1,0.1,0.2,0.2
	c0,0.1,0.1,0.2,0.1,0.3c0,3.3,0,6.5,0,9.8C34.9,80.2,34.8,80.5,34.8,81z"/>
<path class="st2" d="M18.2,80.4c0.8,0,1.5,0.1,2.1,0.1c3.3,0.1,6.6,0.2,9.9,0.2c0.3,0,0.7,0.1,1,0.2c1,0.3,1.9,0.6,3,1
	c-1.3,0.1-2.5,0.3-3.7,0.4c-2,0.2-4.1,0.2-6.1,0.4C22.7,82.8,19.5,81.7,18.2,80.4z"/>
<path d="M66.6,57.2c-0.3,1.4-0.6,2.8-0.9,4.2c-0.1,0.5-0.3,1.1-0.4,1.6c-0.1,0.2-0.1,0.4,0,0.5c0.1,0.7-0.2,1.1-0.9,1
	c-0.4-0.1-0.7-0.3-1.1-0.4c-0.7-0.2-1.4-0.3-2.1-0.4c-1.2-0.1-2.3-0.5-3.2-1.3c-0.5-0.5-1.1-0.9-1.6-1.4c-0.2-0.2-0.3-0.4-0.3-0.7
	c0-0.3,0-0.5,0.1-0.8c1.1-2.5,1.5-5.2,2.1-7.8c0.2-0.7,0.3-1.4,0.4-2.1c0-0.2,0.1-0.4,0.2-0.6c0.2-0.4,0.4-0.5,0.8-0.3
	c1.1,0.4,2.2,0.7,3.4,0.7c0.9,0,1.8,0,2.8-0.1c1.1-0.1,2-0.7,2.6-1.6c0.5-0.8,1-1.6,1.1-2.5c0.1-0.5,0.1-1-0.1-1.5
	c-0.2-0.5-0.4-0.9-0.8-1.2c-0.3-0.3-0.6-0.5-1-0.8c-0.4-0.3-0.9-0.5-1.4-0.6c-0.5-0.1-1,0-1.5,0.2c-1.2,0.4-2.3,0.9-3.2,1.7
	c-0.1,0.1-0.2,0.1-0.4,0.2c-0.1,0-0.3,0-0.4,0c-0.9-0.3-1.9-0.5-2.8-1c-0.4-0.3-0.8-0.7-1-1.1c-0.4-0.6-0.8-1.2-1.2-1.8
	c-0.1-0.2-0.2-0.3-0.3-0.5c0-0.1,0-0.1,0-0.2c0-0.1,0-0.1,0.1-0.2c0.7-0.7,1.3-1.5,2.1-2c0.7-0.5,1.6-0.7,2.4-1.1
	c1.6-0.6,3.2-1.2,5-1.2c0.7,0,1.5,0.1,2.2,0.2c1.1,0.1,2.2,0.4,3.3,0.8c1.2,0.4,2.4,1,3.5,1.7c0.8,0.5,1.5,0.9,2.3,1.4
	c0.5,0.3,0.9,0.7,1.1,1.2c0.7,1.2,1.1,2.6,1.3,4c0.3,2,0.1,4-0.7,5.8c-0.3,0.6-0.3,1.2-0.6,1.8c-0.1,0.3-0.3,0.5-0.5,0.7
	c-0.3,0.3-0.5,0.7-0.7,1c-1.3,2.4-3.4,3.6-6,3.9C69.1,57,67.9,57.1,66.6,57.2z M59.3,49.1c-0.1,0.1-0.1,0.3-0.1,0.4
	c-0.5,2.2-1,4.3-1.5,6.5c-0.2,0.9-0.5,1.8-0.7,2.7c-0.1,0.4-0.2,0.9-0.3,1.3c-0.1,0.3,0,0.4,0.3,0.4c0.2,0,0.5,0.1,0.7,0.2
	c0.6,0.2,1.3,0.3,1.9,0.4c0.4,0.1,0.7,0.1,1.1,0.2c0.7,0.1,1.4,0.3,2.1,0.4l1.5-6.9c0.1,0,0.3,0,0.5,0c1.2,0,2.3-0.1,3.5-0.1
	c0.6,0,1.2-0.2,1.8-0.4c2.1-0.7,3.5-2.2,4.6-4c0.5-0.8,0.8-1.7,1.3-2.5c0.6-1.1,0.6-2.4,0.4-3.6c-0.1-0.6-0.2-1.1-0.2-1.7
	c-0.1-0.9-0.4-1.9-0.9-2.7c-0.5-1-1.3-2-2.2-2.7c-0.1,0-0.1-0.1-0.1-0.1c-0.7-0.5-1.3-1.2-2.1-1.4c-0.7-0.2-1.4-0.4-2.1-0.6
	c-2.1-0.6-4.2-0.8-6.3-0.1c-1.4,0.4-2.7,1-4,1.5c-0.3,0.1-0.5,0.3-0.7,0.4c-0.6,0.6-1.2,1.2-1.8,1.8c0.1,0.1,0.1,0.2,0.2,0.2
	c0.8,0.6,1.1,1.5,1.6,2.3c0.3,0.5,0.3,0.5,0.9,0.3c0.6-0.3,1.2-0.7,1.8-0.9c2.1-0.7,4.4-0.6,6.5,0.3c0.9,0.4,1.8,1,2.4,1.8
	c1,1.2,0.9,2.5,0.3,3.9c-0.6,1.4-1.4,2.5-2.9,3.1c-1.3,0.4-2.7,0.5-4,0.3C61.6,49.8,60.5,49.5,59.3,49.1z M73.7,36.9l-0.1,0.1
	c0.1,0.1,0.3,0.3,0.4,0.4c0.6,0.4,1,1,1.3,1.6c0.1,0.2,0.2,0.4,0.2,0.5c0.3,0.8,0.7,1.5,0.9,2.4c0.2,1,0.3,2,0.4,2.9
	c0.1,1,0,2.1-0.4,3c-0.7,1.4-1.3,2.9-2.3,4.1c-1,1.1-2,2.1-3.4,2.6c-1.1,0.4-2.2,0.5-3.4,0.6c-0.8,0-1.5,0-2.3,0.1
	c0.3,0.3,0.6,0.6,0.8,0.9c0.3,0.4,0.7,0.5,1.2,0.5c1.4-0.2,2.9-0.3,4.3-0.6c1.6-0.3,3-1.1,4-2.3c1.1-1.3,1.8-2.8,2.4-4.4
	c0.5-1.5,1-3.1,0.9-4.8c-0.1-1.9-0.7-3.7-1.6-5.3c-0.1-0.1-0.2-0.2-0.3-0.3c-0.4-0.3-0.9-0.7-1.4-1C74.8,37.6,74.2,37.3,73.7,36.9z
	 M64.6,55.5c-0.4,1.9-0.7,3.6-1.1,5.4c-0.2,0.7-0.2,1.3,0.4,1.8c0,0,0,0.1,0.1,0.1c0.2,0.2,0.5,0.5,0.8,0.8c0.1-0.3,0.2-0.5,0.3-0.8
	c0.1-0.3,0.1-0.7,0.1-1c0.2-1.4,0.5-2.9,0.7-4.3c0-0.2,0-0.4-0.1-0.6C65.5,56.4,65.1,56,64.6,55.5z M64.7,64.1
	c-0.2-0.3-0.4-0.5-0.5-0.7c-0.3-0.4-0.7-0.7-1.1-1c-0.4-0.3-0.9-0.4-1.4-0.5c-1.2-0.2-2.4-0.5-3.5-0.7c-0.3-0.1-0.7-0.1-1-0.2
	L57,61.2c0.8,0.6,1.6,1.2,2.4,1.7c0.1,0.1,0.3,0.2,0.5,0.2c0.9,0.2,1.8,0.3,2.6,0.5c0.6,0.1,1.1,0.3,1.7,0.5
	C64.3,64.1,64.5,64.1,64.7,64.1L64.7,64.1z M65.4,40.9c-2.4-0.5-4.7-0.6-6.7,1.2c0.6,0.2,1.2,0.4,1.8,0.7C60.7,43,60.9,43,61,43
	c0.2,0,0.3-0.1,0.5-0.2c0.7-0.4,1.4-0.8,2.1-1.2C64.2,41.3,64.8,41.2,65.4,40.9L65.4,40.9z"/>
<path d="M56.1,63c0.2,0.1,0.4,0.1,0.6,0.2c1.3,0.3,2.5,0.6,3.8,0.8c0.5,0.1,1,0.2,1.5,0.3c0.8,0.1,1.6,0.4,2.1,1
	c0,0,0.1,0.1,0.1,0.1c0.7,0.5,0.7,0.5,0.5,1.3c-0.3,1.1-0.6,2.3-0.9,3.4c-0.1,0.3-0.1,0.6-0.2,0.9c-0.1,0.5-0.3,1.1-0.4,1.6
	c0,0-0.1,0.1-0.1,0.1s-0.1,0-0.2,0c-0.3,0-0.5,0-0.8-0.1c-1.3-0.3-2.6-0.5-3.8-0.8c-0.7-0.2-1.4-0.4-2.2-0.6
	c-0.2-0.1-0.4-0.2-0.6-0.4c-0.3-0.3-0.5-0.6-0.8-0.8c-0.2-0.1-0.3-0.3-0.3-0.5c-0.1-0.2-0.1-0.4,0-0.6c0.5-1.9,1.1-3.8,1.7-5.8
	C56,63.2,56,63.1,56.1,63z M62.5,64.9c-0.2,0-0.3,0-0.5-0.1c-0.6-0.1-1.2-0.3-1.8-0.4c-1-0.3-1.9-0.6-2.9-0.8
	c-0.4-0.1-0.7-0.1-1.1-0.1c-0.5,1.9-1,3.7-1.6,5.6c0.1,0.1,0.3,0.1,0.5,0.2c1.7,0.4,3.5,0.9,5.2,1.3c0.7,0.2,0.7,0.2,0.9-0.6
	c0.4-1.4,0.7-2.9,1.1-4.3C62.4,65.4,62.5,65.2,62.5,64.9L62.5,64.9z M63,71.8c0.1-0.2,0.2-0.4,0.2-0.6c0.4-1.6,0.8-3.3,1.2-4.9
	c0,0,0-0.1,0-0.1c0,0,0-0.1-0.1-0.1c-0.4-0.3-0.9-0.7-1.3-1l-1.6,5.9L63,71.8z M54.8,69.5c0.5,0.8,2,1.7,2.9,1.9
	c1,0.2,2.1,0.4,3.1,0.5c0.6,0.1,1.2,0.2,1.9,0.3c-0.5-0.3-0.9-0.6-1.4-0.8c-0.2-0.1-0.3-0.2-0.5-0.2c-1.6-0.4-3.3-0.9-4.9-1.3
	C55.5,69.7,55.2,69.6,54.8,69.5z"/>
<path class="st1" d="M59.3,49.1c1.2,0.3,2.3,0.7,3.4,0.8c1.3,0.2,2.7,0.1,4-0.3c1.5-0.5,2.3-1.7,2.9-3.1c0.6-1.3,0.6-2.7-0.3-3.9
	c-0.7-0.8-1.5-1.4-2.4-1.8c-2.1-0.9-4.3-1-6.5-0.3c-0.6,0.2-1.2,0.6-1.8,0.9c-0.5,0.3-0.6,0.3-0.9-0.3c-0.4-0.8-0.8-1.7-1.6-2.3
	c-0.1-0.1-0.1-0.2-0.2-0.2c0.6-0.6,1.2-1.2,1.8-1.8c0.2-0.2,0.4-0.3,0.7-0.4c1.3-0.5,2.6-1.1,4-1.5c2.1-0.7,4.2-0.5,6.3,0.1
	c0.7,0.2,1.4,0.4,2.1,0.6c0.9,0.2,1.5,0.9,2.1,1.4c0.1,0,0.1,0.1,0.1,0.1c0.9,0.7,1.7,1.6,2.2,2.7c0.5,0.8,0.8,1.7,0.9,2.7
	c0.1,0.6,0.2,1.1,0.2,1.7c0.1,1.2,0.1,2.4-0.4,3.6c-0.4,0.8-0.8,1.7-1.3,2.5c-1.1,1.8-2.5,3.3-4.6,4c-0.6,0.2-1.2,0.4-1.8,0.4
	c-1.2,0-2.3,0.1-3.5,0.1c-0.2,0-0.4,0-0.5,0l-1.5,6.9c-0.8-0.2-1.4-0.3-2.1-0.4c-0.4-0.1-0.7-0.1-1.1-0.2c-0.6-0.1-1.3-0.3-1.9-0.4
	c-0.2-0.1-0.5-0.1-0.7-0.2c-0.3,0-0.4-0.2-0.3-0.4c0.1-0.4,0.2-0.9,0.3-1.3c0.2-0.9,0.5-1.8,0.7-2.7c0.5-2.2,1-4.3,1.5-6.5
	C59.2,49.4,59.3,49.3,59.3,49.1z"/>
<path class="st2" d="M73.7,36.9c0.5,0.3,1.1,0.6,1.6,1c0.5,0.3,0.9,0.7,1.4,1c0.1,0.1,0.2,0.2,0.3,0.3c0.9,1.6,1.5,3.4,1.6,5.3
	c0.1,1.7-0.4,3.2-0.9,4.8c-0.5,1.6-1.2,3.2-2.4,4.4c-1,1.2-2.4,2.1-4,2.3c-1.4,0.2-2.9,0.3-4.3,0.6c-0.5,0.1-0.9,0-1.2-0.5
	c-0.2-0.3-0.5-0.6-0.8-0.9c0.8,0,1.6,0,2.3-0.1c1.1-0.1,2.3-0.2,3.4-0.6c1.4-0.6,2.4-1.5,3.4-2.6c1-1.2,1.6-2.7,2.3-4.1
	c0.5-1,0.5-2,0.4-3c0-1-0.2-2-0.4-2.9c-0.2-0.8-0.6-1.6-0.9-2.4c-0.1-0.2-0.2-0.4-0.2-0.5c-0.3-0.7-0.7-1.2-1.3-1.6
	C73.9,37.3,73.8,37.2,73.7,36.9L73.7,36.9z"/>
<path class="st2" d="M64.6,55.5c0.5,0.5,0.9,0.9,1.3,1.4c0.1,0.2,0.2,0.4,0.1,0.6c-0.2,1.4-0.5,2.9-0.7,4.3c-0.1,0.3-0.1,0.7-0.1,1
	c-0.1,0.3-0.2,0.6-0.3,0.8c-0.3-0.3-0.6-0.5-0.8-0.8c0,0,0-0.1-0.1-0.1c-0.6-0.5-0.6-1.1-0.4-1.8C63.9,59.1,64.2,57.3,64.6,55.5z"/>
<path class="st2" d="M64.7,64.1c-0.2,0-0.4,0-0.6,0c-0.6-0.2-1.1-0.4-1.7-0.5c-0.9-0.2-1.8-0.3-2.6-0.5c-0.2,0-0.3-0.1-0.5-0.2
	c-0.8-0.6-1.6-1.2-2.4-1.7l0.1-0.1c0.3,0.1,0.7,0.1,1,0.2c1.2,0.2,2.4,0.5,3.5,0.7c0.5,0.1,1,0.2,1.4,0.5c0.4,0.3,0.8,0.6,1.1,1
	C64.3,63.6,64.5,63.8,64.7,64.1z"/>
<path class="st2" d="M65.4,40.9c-0.6,0.2-1.2,0.4-1.8,0.6c-0.7,0.3-1.4,0.7-2.1,1.2c-0.1,0.1-0.3,0.2-0.5,0.2c-0.2,0-0.4,0-0.5-0.1
	c-0.6-0.3-1.2-0.5-1.8-0.7C60.7,40.3,63,40.5,65.4,40.9z"/>
<path class="st1" d="M62.5,64.9c-0.1,0.3-0.1,0.5-0.2,0.7c-0.4,1.4-0.7,2.9-1.1,4.3c-0.2,0.7-0.2,0.7-0.9,0.6
	c-1.7-0.4-3.5-0.9-5.2-1.3c-0.2,0-0.3-0.1-0.5-0.2c0.5-1.9,1-3.7,1.6-5.6c0.4,0,0.7,0.1,1.1,0.1c1,0.3,1.9,0.6,2.9,0.8
	c0.6,0.2,1.2,0.3,1.8,0.4C62.2,64.9,62.3,64.9,62.5,64.9z"/>
<path class="st2" d="M63,71.8l-1.6-0.9l1.6-5.9c0.5,0.4,0.9,0.7,1.3,1c0,0,0.1,0.1,0.1,0.1s0,0.1,0,0.1c-0.4,1.6-0.8,3.3-1.2,4.9
	C63.1,71.4,63.1,71.6,63,71.8z"/>
<path class="st2" d="M54.8,69.5c0.4,0.1,0.7,0.2,1,0.3c1.6,0.4,3.3,0.9,4.9,1.3c0.2,0,0.3,0.1,0.5,0.2c0.4,0.3,0.9,0.5,1.4,0.8
	c-0.7-0.1-1.3-0.2-1.9-0.3c-1-0.2-2.1-0.4-3.1-0.5C56.7,71.2,55.2,70.3,54.8,69.5z"/>
<path d="M10.3,34c-1.1-0.7-2.3-0.4-2.6,0.8c-0.2,0.9,0.4,1.8,1.5,2.1C9.4,37,9.6,37,9.8,37c0.2,0,0.4-0.1,0.6-0.2
	c0.2-0.1,0.3-0.2,0.5-0.4c0.1-0.2,0.2-0.3,0.3-0.5C11.3,35.2,11,34.5,10.3,34z"/>
<path d="M15.5,39.9c0.2-0.3,0.3-0.7,0.2-1.1c-0.1-0.4-0.3-0.7-0.6-1c-0.4-0.2-0.9-0.3-1.4-0.2c-0.5,0.1-0.9,0.4-1.2,0.8
	c-0.2,0.3-0.3,0.8-0.2,1.1c0.1,0.4,0.3,0.7,0.7,1c0.4,0.2,0.9,0.3,1.4,0.2C14.8,40.5,15.2,40.3,15.5,39.9z"/>
<path d="M41,57.6c0-0.4-0.2-0.8-0.5-1.1c-0.3-0.3-0.7-0.4-1.1-0.4c-0.9,0-1.8,1-1.8,1.9c0,0.4,0.2,0.8,0.5,1.1
	c0.3,0.3,0.7,0.4,1.1,0.4c0.5,0,0.9-0.3,1.2-0.6C40.8,58.6,41,58.1,41,57.6z"/>
<path d="M42.1,55.6c0.2,0,0.4,0,0.6-0.1c0.2-0.1,0.4-0.2,0.5-0.3c0.2-0.2,0.3-0.3,0.4-0.5c0.1-0.2,0.1-0.4,0.1-0.6
	c0-0.4-0.2-0.8-0.5-1.1c-0.3-0.3-0.7-0.5-1.2-0.4c-0.2,0-0.4,0-0.6,0.1c-0.2,0.1-0.4,0.2-0.5,0.3c-0.2,0.1-0.3,0.3-0.4,0.5
	c-0.1,0.2-0.1,0.4-0.1,0.6c0,0.2,0,0.4,0.1,0.6c0.1,0.2,0.2,0.4,0.4,0.5c0.2,0.2,0.3,0.3,0.5,0.3C41.6,55.6,41.8,55.6,42.1,55.6z"/>
<path d="M14.9,31.4c-0.8-0.6-1.8-0.4-2.3,0.4c-0.1,0.2-0.2,0.4-0.2,0.6s0,0.4,0,0.6c0,0.2,0.1,0.4,0.3,0.6c0.1,0.2,0.3,0.3,0.5,0.4
	c0.8,0.6,1.8,0.4,2.3-0.3C15.9,32.8,15.7,31.9,14.9,31.4z"/>
<path d="M52.1,76.9c0-0.4-0.2-0.8-0.5-1.1s-0.7-0.4-1.1-0.4c-0.9,0-1.8,1-1.8,1.9c0,0.4,0.2,0.8,0.5,1.1c0.3,0.3,0.7,0.4,1.1,0.4
	c0.5,0,0.9-0.3,1.2-0.6C51.9,77.9,52.1,77.4,52.1,76.9z"/>
<path d="M53.2,74.9c0.2,0,0.4,0,0.6-0.1c0.2-0.1,0.4-0.2,0.5-0.3c0.2-0.2,0.3-0.3,0.4-0.5c0.1-0.2,0.1-0.4,0.1-0.6
	c0-0.4-0.2-0.8-0.5-1.1c-0.3-0.3-0.7-0.5-1.2-0.4c-0.2,0-0.4,0-0.6,0.1c-0.2,0.1-0.4,0.2-0.5,0.3c-0.2,0.1-0.3,0.3-0.4,0.5
	c-0.1,0.2-0.1,0.4-0.1,0.6c0,0.2,0,0.4,0.1,0.6c0.1,0.2,0.2,0.4,0.4,0.5c0.2,0.2,0.3,0.3,0.5,0.3C52.8,74.9,53,74.9,53.2,74.9z"/>
</svg>
