<svg width="55" height="58" viewBox="0 0 55 58" fill="none" xmlns="http://www.w3.org/2000/svg">
<path d="M53.2847 28.796C53.0705 33.4094 52.95 38.0262 52.6153 42.6295C52.0363 50.6265 50.8783 53.0189 43.0297 53.8253C32.3396 54.9207 21.4755 54.5981 10.695 54.3965C5.97248 54.3091 3.38865 50.9558 3.06734 46.2248C2.39796 36.3596 1.54449 26.4944 1.33029 16.6157C1.10604 6.35403 4.45297 2.85618 14.5841 2.33201C22.9515 1.89856 31.3188 1.7944 39.6861 1.92208C48.5019 2.07328 52.545 6.07178 53.114 14.9491C53.4018 19.5457 53.1675 24.1793 53.1675 28.7927L53.2847 28.796Z" fill="#E88D4F"/>
<path d="M54.1185 30.1166C54.1185 34.189 54.2021 38.2681 54.1185 42.3405C53.8674 52.7299 50.5205 54.7157 42.431 55.539C31.2656 56.6747 19.8559 58.4958 8.51986 55.3777C4.64746 54.3125 2.26445 52.4813 2.0402 48.6205C1.31727 36.2756 0.497268 23.9206 0.366737 11.5622C0.313187 5.72909 4.34959 1.67683 10.2235 1.3005C20.7462 0.628485 31.3325 0.235356 41.8653 0.571364C49.5298 0.81665 53.4022 4.81515 54.2021 12.54C54.8079 18.3395 54.3226 24.2532 54.3226 30.1132L54.1185 30.1166ZM52.9805 28.6617H52.8801C52.8801 24.0987 53.1177 19.5256 52.8299 14.9828C52.2643 6.20622 48.2546 2.24132 39.5526 2.10692C31.2823 1.97924 22.9953 2.0834 14.7351 2.51349C4.72109 3.03094 1.41433 6.48847 1.63522 16.6258C1.84608 26.3701 2.68951 36.1345 3.3522 45.8787C3.68689 50.5526 6.22387 53.869 10.8928 53.9429C21.5495 54.1412 32.2864 54.457 42.856 53.3751C50.6142 52.5787 51.7555 50.2166 52.3312 42.3137C52.6592 37.7809 52.773 33.2179 52.9805 28.6617Z" fill="black"/>
<path d="M49.6769 28.4433C49.4928 32.4115 49.3957 36.3865 49.1079 40.348C48.6092 47.2328 47.6118 49.2926 40.8577 49.9881C31.6537 50.9323 22.3023 50.6601 13.0213 50.482C8.95478 50.4048 6.73242 47.5185 6.45797 43.446C5.87895 34.9517 5.14597 26.4608 4.95855 17.9564C4.76777 9.12277 7.63609 6.11214 16.3716 5.66189C23.5608 5.28892 30.7801 5.1982 37.9794 5.30908C45.5568 5.4334 49.051 8.88085 49.533 16.5217C49.7806 20.4799 49.5765 24.4649 49.5765 28.4399L49.6769 28.4433Z" fill="#FFD265"/>
<path d="M50.3935 29.579C50.3935 33.087 50.4638 36.5949 50.3935 40.0994C50.1793 49.044 47.2976 50.7543 40.3359 51.4632C30.7236 52.441 20.9003 54.0068 11.144 51.3255C7.79708 50.4082 5.7588 48.8289 5.56468 45.5092C4.94215 34.8812 4.2259 24.2432 4.13554 13.5884C4.07529 8.58524 7.54606 5.09747 12.6066 4.76146C21.6668 4.18353 30.7771 3.84416 39.8473 4.13649C46.4441 4.34817 49.7743 7.7889 50.4671 14.4385C50.9859 19.4282 50.5709 24.5187 50.5709 29.5589L50.3935 29.579ZM49.4162 28.3257H49.3158C49.3158 24.4011 49.5166 20.4598 49.2722 16.5654C48.797 9.01197 45.3463 5.59812 37.8525 5.47716C30.7336 5.36628 23.6013 5.457 16.4924 5.81317C7.86737 6.26006 5.02247 9.23373 5.21325 17.9632C5.39398 26.3634 6.12361 34.7636 6.69259 43.1437C6.96369 47.1758 9.16263 50.0218 13.1823 50.0957C22.3562 50.2671 31.5904 50.5426 40.6974 49.6085C47.3913 48.9365 48.3619 46.8902 48.8539 40.086C49.1384 36.1749 49.2354 32.2469 49.4162 28.3257Z" fill="black"/>
<path d="M31.7041 30.5769C31.935 34.8543 32.0153 39.2157 32.4672 43.5401C32.8019 46.6079 31.5267 47.6428 28.722 47.4916C27.8302 47.4378 26.9361 47.4378 26.0444 47.4916C23.8689 47.636 23.0857 46.6314 23.1259 44.4675C23.2196 39.4576 23.156 34.4444 23.156 29.8545C20.4316 28.5105 17.3959 30.96 16.5759 27.1227C15.5719 22.4623 18.7046 21.6626 21.9578 21.0746C21.4089 12.503 24.5985 8.71285 31.7041 8.9279C34.4653 9.0119 35.4392 10.3727 35.4961 12.8995C35.5463 15.1575 35.6233 17.15 32.3668 17.2273C31.4832 17.2475 30.6397 18.9678 29.7796 19.9154C30.5326 20.4967 31.2489 21.4879 32.0521 21.5685C33.7691 21.7433 35.8442 20.8965 35.8978 23.8097C35.9446 26.4104 36.9019 29.4748 32.8152 30.0292C32.5073 30.0662 32.2295 30.298 31.7041 30.5769ZM33.8026 15.5338C33.7859 13.3094 34.6059 11.1254 31.7275 10.702C26.108 9.87208 22.3829 13.2658 23.2665 18.7393C23.6949 21.377 22.982 22.301 20.5253 22.8958C19.5212 23.1377 18.2929 24.6262 18.159 25.6745C17.9114 27.6335 19.5447 27.9056 21.1478 27.657C23.2062 27.3411 23.8455 28.3055 23.9559 30.2812C24.2371 35.3986 24.7056 40.5026 25.0972 45.5965H30.6565C30.7825 45.1836 30.8677 44.7593 30.9108 44.3297C30.7368 40.1867 30.4557 36.0471 30.4055 31.8974C30.4055 30.8592 30.9811 28.9943 31.52 28.9036C35.4158 28.2618 34.7397 25.772 34.3147 23.0705C31.8915 22.59 28.2902 24.3204 28.3571 19.7474C28.3973 16.273 30.6163 15.5137 33.8026 15.5338Z" fill="black"/>
<path d="M33.8024 15.5339C30.6262 15.507 28.4072 16.2731 28.367 19.7541C28.3101 24.3272 31.9014 22.5967 34.3246 23.0772C34.7496 25.7653 35.4257 28.2686 31.5299 28.9103C30.991 29.0011 30.4053 30.8659 30.4154 31.9042C30.4656 36.0472 30.75 40.1868 30.9207 44.3365C30.8776 44.7661 30.7924 45.1904 30.6664 45.6032H25.1004C24.7088 40.5093 24.2403 35.4054 23.9591 30.288C23.8487 28.3122 23.2094 27.3479 21.151 27.6638C19.5479 27.9124 17.9146 27.6402 18.1622 25.6813C18.2961 24.633 19.5378 23.1444 20.5285 22.9025C22.9852 22.3078 23.6981 21.3838 23.2697 18.7461C22.3861 13.2725 26.1112 9.87884 31.7307 10.7088C34.5957 11.1254 33.7757 13.3095 33.8024 15.5339Z" fill="#EFCAB6"/>
</svg>
