<svg width="56" height="53" viewBox="0 0 56 53" fill="none" xmlns="http://www.w3.org/2000/svg">
<path d="M0.909151 52.3246C2.09894 47.5499 3.22152 44.1596 3.71894 40.6785C4.05504 38.2761 4.43483 35.1546 3.25513 33.3771C-4.30711 21.9864 4.22645 2.82048 19.1661 0.874993C24.5134 0.179456 30.1364 -0.180072 35.4098 0.673389C49.4016 2.9448 57.552 15.4141 54.2952 29.2677C50.2217 46.6124 36.1021 59.0414 16.3159 48.4202C14.5649 47.4793 11.8055 47.7481 9.71832 48.2622C7.23454 48.8738 4.97931 50.3791 0.909151 52.3246ZM4.6533 47.6037C10.7031 44.7073 15.3076 46.0883 20.9709 48.1782C36.8516 54.0449 47.0892 47.6574 51.9257 28.9653C55.0346 16.9463 48.7126 6.45273 37.5171 3.22705C29.5885 0.938835 21.7204 1.54701 14.1716 4.73237C5.53052 8.36462 0.00504392 18.7305 3.1543 27.1441C5.66496 33.8273 8.41761 40.0536 4.6533 47.6037Z" fill="black"/>
<path d="M4.65278 47.6039C8.41709 40.0605 5.66108 33.8275 3.15378 27.1443C0.00452733 18.7441 5.53 8.36484 14.1711 4.73259C21.73 1.57075 29.588 0.932338 37.5166 3.22055C48.712 6.45295 55.0341 16.9398 51.9251 28.9588C47.0887 47.6509 36.8511 54.0384 20.9704 48.1717C15.3004 46.0818 10.7026 44.7008 4.65278 47.6039ZM8.71286 42.8998C14.7626 39.1701 17.7875 43.2795 21.572 45.3493C27.5075 48.5884 33.6346 48.6119 39.4996 44.9158C46.9307 40.2487 50.7387 31.0152 49.0414 22.0673C47.3441 13.1194 40.8776 6.61088 32.0382 4.74939C23.5819 2.96183 15.5458 3.53976 9.8556 10.7169C5.18046 16.6105 5.21407 23.791 8.00033 30.5414C9.56655 34.3282 13.1124 37.5001 8.71286 42.8998Z" fill="#54A047"/>
<path d="M8.71285 42.8998C13.1124 37.5237 9.56654 34.3349 7.9936 30.5246C5.20734 23.7843 5.17372 16.6038 9.84887 10.7001C15.539 3.52299 23.5752 2.94505 32.0314 4.73262C40.8708 6.60418 47.3374 13.0959 49.0347 22.0505C50.732 31.0051 46.924 40.2453 39.4928 44.899C33.6346 48.5951 27.5075 48.5716 21.572 45.3258C17.7808 43.2728 14.7492 39.1634 8.71285 42.8998ZM14.0904 39.1802C15.5592 39.9362 17.9489 40.8602 19.9823 42.2748C28.3108 48.0978 38.2358 46.4245 43.6874 37.8899C48.3692 30.5548 48.6717 22.9039 44.047 15.4177C39.0593 7.35348 31.0735 5.36767 22.4425 6.34545C9.04895 7.88437 3.58061 21.9026 11.647 32.833C12.9006 34.5197 13.2435 36.8684 14.1005 39.1735L14.0904 39.1802Z" fill="black"/>
<path d="M14.1008 39.1734C13.2438 36.8684 12.901 34.5197 11.6574 32.8363C3.59101 21.9059 9.05935 7.88766 22.4529 6.34874C31.0839 5.36087 39.0697 7.3366 44.0574 15.421C48.6821 22.9072 48.3796 30.5581 43.6978 37.8932C38.2462 46.4278 28.3212 48.1011 19.9927 42.2781C17.9593 40.8433 15.5696 39.9294 14.1008 39.1734ZM16.225 20.7232C16.1712 30.3834 25.7433 40.2957 33.85 39.5396C36.2834 39.3145 39.2276 37.0935 40.572 34.9363C41.5803 33.3168 41.2678 29.3653 39.9805 28.233C38.6361 27.0435 35.4028 28.0515 33.0031 27.9507C31.1814 27.8734 28.2977 28.1389 27.8036 27.2182C27.0373 25.8036 27.3465 23.1861 28.2002 21.6371C30.3613 17.7058 28.5968 15.337 25.5887 13.3478C22.4126 11.2511 19.8448 12.4372 18.1945 15.5016C17.1392 17.5042 16.5813 19.7622 16.225 20.7232Z" fill="#4A824A"/>
<path d="M16.2243 20.7232C16.5806 19.7522 17.1385 17.4942 18.2006 15.5084C19.8374 12.444 22.4052 11.2579 25.5948 13.3546C28.6029 15.3437 30.3674 17.7227 28.2063 21.6439C27.3526 23.1996 27.0434 25.8104 27.8097 27.225C28.3071 28.1456 31.1707 27.897 33.0091 27.9575C35.4089 28.0583 38.6287 27.0503 39.9866 28.2397C41.2738 29.3721 41.5898 33.3235 40.5781 34.9431C39.2337 37.1003 36.2962 39.3112 33.8561 39.5464C25.7427 40.3058 16.1706 30.3935 16.2243 20.7232ZM38.7665 30.6321C37.0289 30.6321 35.2476 30.9076 33.5872 30.5716C30.8581 30.0206 27.7391 29.698 25.6452 28.1322C23.0438 26.1867 24.0992 23.381 25.5982 20.5855C26.2704 19.3321 24.8554 16.9599 24.3848 15.0951C22.5363 15.9821 20.6138 16.7516 18.8863 17.8302C18.3754 18.146 18.3317 19.3288 18.2141 20.1386C17.2058 27.2283 25.5175 37.2347 32.7067 37.6379C36.6592 37.8596 38.6691 35.7797 38.7665 30.6422V30.6321Z" fill="black"/>
<path d="M38.767 30.6421C38.6696 35.7797 36.6597 37.8663 32.7172 37.6479C25.5281 37.2447 17.2231 27.2316 18.2246 20.1486C18.3389 19.3388 18.3826 18.1561 18.8968 17.8402C20.6244 16.7616 22.5469 15.9922 24.3954 15.1051C24.866 16.9699 26.2809 19.3422 25.6087 20.5955C24.1097 23.3911 23.0544 26.1967 25.6558 28.1422C27.7497 29.708 30.8687 30.0306 33.5978 30.5816C35.2481 30.9177 37.0294 30.6421 38.767 30.6421Z" fill="white"/>
</svg>
